<?xml version="1.0" encoding="utf-8"?>
<!-- Generator: Adobe Illustrator 19.0.0, SVG Export Plug-In . SVG Version: 6.00 Build 0)  -->
<svg version="1.1" id="Layer_1" xmlns="http://www.w3.org/2000/svg" xmlns:xlink="http://www.w3.org/1999/xlink" x="0px" y="0px"
	 viewBox="0 0 1679.1 350" style="enable-background:new 0 0 1679.1 350;" xml:space="preserve">
<style type="text/css">
	.st0{opacity:0.5;fill:#56C4CD;}
	.st1{opacity:0.5;fill:#D3137E;}
</style>
<path class="st0" d="M964.2,350c-1.3-21.4-19.1-38.3-40.8-38.3c-4.4,0-8.7,0.7-12.7,2c-10-9.8-23.6-15.9-38.7-15.9
	c-15.1,0-28.7,6.1-38.7,15.9c-4-1.3-8.2-2-12.7-2c-21.7,0-39.5,16.9-40.8,38.3H964.2z"/>
<path class="st1" d="M227.9,227.6c-1.7-26.4-23.6-47.4-50.5-47.4c-5.5,0-10.7,0.9-15.7,2.5c-12.3-12.1-29.2-19.6-47.8-19.6
	c-18.6,0-35.5,7.5-47.8,19.6c-4.9-1.6-10.2-2.5-15.7-2.5c-26.9,0-48.8,20.9-50.5,47.4H227.9z"/>
<path class="st1" d="M1679.1,64.5c-1.7-26.4-23.6-47.4-50.5-47.4c-5.5,0-10.7,0.9-15.7,2.5C1600.7,7.5,1583.8,0,1565.2,0
	c-18.6,0-35.5,7.5-47.8,19.6c-4.9-1.6-10.2-2.5-15.7-2.5c-26.9,0-48.8,20.9-50.5,47.4H1679.1z"/>
</svg>
