<?xml version="1.0" encoding="utf-8"?>
<!-- Generator: Adobe Illustrator 19.0.0, SVG Export Plug-In . SVG Version: 6.00 Build 0)  -->
<svg version="1.1" id="Layer_1" xmlns="http://www.w3.org/2000/svg" xmlns:xlink="http://www.w3.org/1999/xlink" x="0px" y="0px"
	 viewBox="0 0 413.3 629.3" style="enable-background:new 0 0 413.3 629.3;" xml:space="preserve">
<style type="text/css">
	.st0{fill:#5FB0AD;}
	.st1{fill:#C3E6EA;}
	.st2{fill:#207A70;}
</style>
<g id="XMLID_689_">
	<g id="XMLID_694_">
		<path id="XMLID_696_" class="st0" d="M224.8,226.3c0-8.2-6.2-14.8-13.9-15.2v417.5l26.7,0.6L224.8,226.3z"/>
		<path id="XMLID_695_" class="st1" d="M210.3,211.1c-8,0-14.5,6.9-14.5,15.2L184.1,628l26.8,0.6V211.2
			C210.7,211.2,210.5,211.1,210.3,211.1z"/>
	</g>
	<g id="XMLID_100_">
		<g id="XMLID_700_">
			<polygon id="XMLID_702_" class="st0" points="34.6,255.1 0,264.3 222.2,246.1 219.8,234.3 			"/>
			<polygon id="XMLID_701_" class="st1" points="214.1,207.1 34.6,255.1 219.8,234.3 			"/>
		</g>
		<g id="XMLID_697_">
			<polygon id="XMLID_699_" class="st0" points="231.1,143.6 200.4,228.3 233.9,235.7 			"/>
			<polygon id="XMLID_698_" class="st1" points="226.7,0 187.1,225.3 200.4,228.3 231.1,143.6 			"/>
		</g>
		<g id="XMLID_691_">
			<polygon id="XMLID_693_" class="st1" points="233,206.5 211.1,236.8 340.9,299.2 			"/>
			<polygon id="XMLID_692_" class="st0" points="413.3,361.4 340.9,299.2 211.1,236.8 208.6,240.3 			"/>
		</g>
		<path id="XMLID_690_" class="st2" d="M227.5,231.2c-5.8,8.2-17.1,10.2-25.4,4.5c-8.2-5.8-10.2-17.1-4.5-25.4
			c5.8-8.2,17.1-10.2,25.4-4.5C231.2,211.6,233.2,223,227.5,231.2z"/>
	</g>
</g>
</svg>
