<?xml version="1.0" encoding="utf-8"?>
<!-- Generator: Adobe Illustrator 19.0.0, SVG Export Plug-In . SVG Version: 6.00 Build 0)  -->
<svg version="1.1" id="Layer_1" xmlns="http://www.w3.org/2000/svg" xmlns:xlink="http://www.w3.org/1999/xlink" x="0px" y="0px"
	 viewBox="0 0 1611.3 153.8" style="enable-background:new 0 0 1611.3 153.8;" xml:space="preserve">
<style type="text/css">
	.st0{opacity:0.5;fill:#56C4CD;}
</style>
<path class="st0" d="M227.9,64.5c-1.7-26.4-23.6-47.4-50.5-47.4c-5.5,0-10.7,0.9-15.7,2.5C149.5,7.5,132.6,0,114,0
	C95.3,0,78.4,7.5,66.1,19.6c-4.9-1.6-10.2-2.5-15.7-2.5C23.6,17.1,1.7,38,0,64.5H227.9z"/>
<path class="st0" d="M1611.3,153.8c-1.7-26.4-23.6-47.4-50.5-47.4c-5.5,0-10.7,0.9-15.7,2.5c-12.3-12.1-29.2-19.6-47.8-19.6
	c-18.6,0-35.5,7.5-47.8,19.6c-4.9-1.6-10.2-2.5-15.7-2.5c-26.9,0-48.8,20.9-50.5,47.4H1611.3z"/>
</svg>
