<?xml version="1.0" encoding="utf-8"?>
<!-- Generator: Adobe Illustrator 19.0.0, SVG Export Plug-In . SVG Version: 6.00 Build 0)  -->
<svg version="1.1" id="Layer_1" xmlns="http://www.w3.org/2000/svg" xmlns:xlink="http://www.w3.org/1999/xlink" x="0px" y="0px"
	 viewBox="0 0 1695.7 366" style="enable-background:new 0 0 1695.7 366;" xml:space="preserve">
<style type="text/css">
	.st0{opacity:0.22;fill:#A9B9B5;}
	.st1{opacity:0.22;fill:#C0D8D3;}
	.st2{fill:#699F42;}
	.st3{fill:#82C341;}
</style>
<path class="st0" d="M1692.5,277.5c-13.1,0-26.3,0-39.4,0c0-51.4,0-102.7,0-154.1c-23.6,0-47.1,0-70.7,0c-0.1,1.9-0.3,3.8-0.3,5.7
	c0,34.8,0,69.6,0,104.4c0,13.5,0,26.9,0,40.4l0-0.1c0-70.7,0-141.5,0-212.2c-31.4,0-62.8,0-94.2,0c-0.1,2.7-0.4,5.5-0.4,8.2
	c0,8.2,0,16.3,0,24.5c-0.4-0.4-0.9-0.5-1.8-0.5c-22.5,0-44.9,0-67.4,0c-5,0-10,0-15,0l0.8,64.3l0,0l1.8,154.6l-35.5,0.4l0,0.2
	l-2.7,0v0l-3.5,0c0,1.1,0,2.1,0,3.2c0,3.7,0.2,7.5,0.4,11.2c16.7,0,33.4,0,50.2,0h3.4h102.9c0,1.2,0,2.5,0,3.7
	c0.9,0.1,1.8,0.3,2.7,0.3c7.5,0,15,0.1,22.5,0.1c46.7,0,93.3,0,140,0c3.1,0,6.1,0,9.3,0c0.1-0.8,0.2-1.3,0.2-1.8
	c0-16.4,0-32.9,0-49.3C1695.7,277.6,1695.7,277.5,1692.5,277.5z M1495.8,143.9C1495.8,143.9,1495.8,143.9,1495.8,143.9
	c0-3.2,0-6.3,0-9.6c0,0,0,0,0,0V143.9z M1541.4,70.2h-13.5c0,0,0,0,0,0C1532.5,70.2,1536.9,70.2,1541.4,70.2
	C1541.4,70.2,1541.4,70.2,1541.4,70.2z M1573.5,70.2h-23.6c0,0,0,0,0,0C1557.8,70.2,1565.6,70.2,1573.5,70.2
	C1573.5,70.2,1573.5,70.2,1573.5,70.2z"/>
<path class="st1" d="M1405.8,320.3l-1.8-154.6l0,0l-0.8-64.3l-0.6-50.3h0l0-2.2l-109.8,0.8l-33-9.5l-0.1-10.3l-0.1,0l0.7-2.5L1165,0
	l-1.2,4.2l0.6,0.2l0.8,66.9l-49.3,0.6l1,84.8l-1.2,0l2,165.5l45.5-0.5l0,1.8h0c0,0.1,0,0.2,0,0.3c27.5-0.3,55-0.7,82.5-1
	c0-0.1,0-0.2,0-0.3l0.4,0l33.9-0.4c0,0.1,0,0.2,0,0.3c15.3-0.2,30.7-0.4,46-0.5c0-0.1,0-0.2,0-0.3l23.7-0.3l14.3-0.2l3.5,0v0l2.7,0
	l0-0.2L1405.8,320.3z M1399.8,160.7C1399.8,160.7,1399.8,160.7,1399.8,160.7c0-0.2,0-0.5,0-0.7c0,0,0,0,0,0V160.7z M1399.8,155.4
	C1399.8,155.4,1399.8,155.4,1399.8,155.4c0-6.5,0-12.9,0-19.5c0,0,0,0,0,0V155.4z"/>
<path id="XMLID_688_" class="st2" d="M411.7,60.4C207.8,68.3,41.4,197.9,0,366l845.5-32.4C791.4,169.1,615.5,52.6,411.7,60.4z"/>
<path id="XMLID_687_" class="st3" d="M768.3,126.6c-159.3,0-293.1,96.2-330.5,226.1h660.9C1061.5,222.8,927.7,126.6,768.3,126.6z"/>
</svg>
