<?xml version="1.0" encoding="utf-8"?>
<!-- Generator: Adobe Illustrator 19.0.0, SVG Export Plug-In . SVG Version: 6.00 Build 0)  -->
<svg version="1.1" id="Layer_1" xmlns="http://www.w3.org/2000/svg" xmlns:xlink="http://www.w3.org/1999/xlink" x="0px" y="0px"
	 viewBox="0 0 1497.5 192.9" style="enable-background:new 0 0 1497.5 192.9;" xml:space="preserve">
<style type="text/css">
	.st0{fill:#532C18;}
	.st1{fill:#93C53F;}
</style>
<path id="XMLID_107_" class="st0" d="M59.2,120.7c7.8,41.9,24.6,67,24.6,67l-38.9,5.2c9.9-28.5,8.2-48,5.2-69.2
	S59.2,120.7,59.2,120.7z"/>
<path id="XMLID_3_" class="st0" d="M149.4,96.4c7.8,41.9,24.6,67,24.6,67l-38.9,5.2c9.9-28.5,8.2-48,5.2-69.2
	C137.3,78.3,149.4,96.4,149.4,96.4z"/>
<circle id="XMLID_105_" class="st1" cx="137.4" cy="48.2" r="48.2"/>
<circle id="XMLID_104_" class="st1" cx="48.2" cy="78.4" r="48.2"/>
<path id="XMLID_103_" class="st0" d="M1206.4,89.8c1,34.1,11.2,55.9,11.2,55.9l-31.4-0.7c11.4-21.3,12.4-36.9,12.6-54
	S1206.4,89.8,1206.4,89.8z"/>
<circle id="XMLID_102_" class="st1" cx="1205.5" cy="58.3" r="38.5"/>
<g id="XMLID_99_">
	<path id="XMLID_101_" class="st0" d="M1474.5,131c0.6,21.3,7,35.1,7,35.1l-19.6-0.4c7.1-13.4,7.8-23.1,7.9-33.8
		C1469.9,121.1,1474.5,131,1474.5,131z"/>
	<circle id="XMLID_100_" class="st1" cx="1473.4" cy="115.2" r="24.1"/>
</g>
</svg>
