<?xml version="1.0" encoding="utf-8"?>
<!-- Generator: Adobe Illustrator 19.0.0, SVG Export Plug-In . SVG Version: 6.00 Build 0)  -->
<svg version="1.1" id="Layer_1" xmlns="http://www.w3.org/2000/svg" xmlns:xlink="http://www.w3.org/1999/xlink" x="0px" y="0px"
	 viewBox="0 0 1747.4 268.5" style="enable-background:new 0 0 1747.4 268.5;" xml:space="preserve">
<style type="text/css">
	.st0{fill:#72BED0;}
	.st1{fill:#2F6F85;}
	.st2{fill:#255364;}
	.st3{fill:#A6DCE2;}
	.st4{opacity:0.37;fill:#255364;}
	.st5{fill:#699F42;}
	.st6{opacity:0.63;fill:#356732;}
	.st7{fill:#C8202A;}
	.st8{fill:#8F191C;}
	.st9{opacity:0.78;}
	.st10{fill:#FFFFFF;}
	.st11{opacity:0.43;fill:#8F191C;}
	.st12{fill:#7C481D;}
	.st13{fill:#EFEEED;}
</style>
<g id="XMLID_2_">
	<g id="XMLID_67_">
		<path id="XMLID_97_" class="st0" d="M325.1,129.8c-16.9,19.6-25.8,45.9-22.7,73.6l3.3,29l68.3-7.8l-11.3-99.1L325.1,129.8z"/>
		<path id="XMLID_96_" class="st0" d="M362.2,120.8l-1.9-16.8c-11.4,4.9-21.6,11.9-30.2,20.5L362.2,120.8z"/>
		<path id="XMLID_95_" class="st0" d="M414.9,97.8l1.9,16.8l32.1-3.7C438.7,104.5,427.1,99.9,414.9,97.8z"/>
		<path id="XMLID_94_" class="st0" d="M455,115l-37.6,4.3l11.3,99.1l68.3-7.8l-3.3-29C490.5,153.9,475.8,130.3,455,115z"/>
		<path id="XMLID_93_" class="st0" d="M410,97c-7.5-0.9-15.1-1-22.9-0.1c-7.8,0.9-15.3,2.7-22.3,5.3l2.1,18.1l45.2-5.2L410,97z"/>
		
			<rect id="XMLID_92_" x="345.8" y="149.2" transform="matrix(-0.1135 -0.9935 0.9935 -0.1135 269.7646 584.5754)" class="st0" width="99.7" height="45.5"/>
		<path id="XMLID_84_" class="st1" d="M502.2,214.7l-3.8-33.7c-6.3-54.8-55.5-94.4-110.1-89l0,0c0,0-21.4,3.4-31.5,8.4
			c-38.2,18.6-64.1,58.9-59,103.6l3.3,29l0.5,4.8L502.2,214.7z M412.6,119.8l11.3,99.1l-45.2,5.2L367.4,125L412.6,119.8z
			 M366.9,120.3l-2.1-18.1c7.1-2.6,14.5-4.4,22.3-5.3c7.8-0.9,15.5-0.8,22.9,0.1l2.1,18.1L366.9,120.3z M448.9,110.9l-32.1,3.7
			l-1.9-16.8C427.1,99.9,438.7,104.5,448.9,110.9z M455,115c20.9,15.3,35.5,38.9,38.7,66.6l3.3,29l-68.3,7.8l-11.3-99.1L455,115z
			 M360.2,104l1.9,16.8l-32.1,3.7C338.6,115.9,348.8,108.9,360.2,104z M325.1,129.8l37.6-4.3l11.3,99.1l-68.3,7.8l-3.3-29
			C299.2,175.8,308.2,149.4,325.1,129.8z"/>
		<path id="XMLID_80_" class="st2" d="M364.9,122.7l11.9,104l49.8-5.7l-11.9-104L364.9,122.7z M410.5,122.3l5,43.7l-40.4,4.6
			l-5-43.7L410.5,122.3z M380.9,221.4l-5.3-46.2l40.4-4.6l5.3,46.2L380.9,221.4z"/>
		<path id="XMLID_79_" class="st3" d="M420.5,121.8l33.7-3.8c20.4,15.4,33.8,38.6,36.7,64l0.8,7.1l-69.8-55.5L420.5,121.8z"/>
		<polygon id="XMLID_78_" class="st3" points="422.8,142.1 492.6,197.6 493.8,208.1 478.9,209.8 425.7,167.5 		"/>
		<path id="XMLID_77_" class="st3" d="M431.1,110.1l-11.8,1.3l-1.2-10.1c0.9,0.2,1.9,0.4,2.8,0.7L431.1,110.1z"/>
		<path id="XMLID_76_" class="st3" d="M381.1,100.7c2.1-0.4,4.2-0.7,6.3-1c6.7-0.8,13.4-0.8,20-0.1l1.5,13l-11.2,1.3L381.1,100.7z"
			/>
		<path id="XMLID_75_" class="st3" d="M386.1,115.2l-16.7,1.9l-1.5-13c1-0.3,2-0.7,3-1L386.1,115.2z"/>
		<path id="XMLID_74_" class="st3" d="M357.9,108.2l1.2,10.1l-0.8,0.1l-7.8-6.2C352.8,110.7,355.3,109.4,357.9,108.2z"/>
		<path id="XMLID_73_" class="st3" d="M326.5,132.5l33.7-3.8l6.5,57L317,146.2C319.8,141.4,322.9,136.8,326.5,132.5z"/>
		<path id="XMLID_72_" class="st3" d="M314.1,151.7l53.6,42.6l3.2,27.8l-3.1,0.4l-61.2-48.7C308.2,166.2,310.7,158.7,314.1,151.7z"
			/>
		<polygon id="XMLID_71_" class="st3" points="378.8,177.8 413.5,173.8 418.1,214.1 379.4,183.4 		"/>
		<polygon id="XMLID_70_" class="st3" points="380.2,190.5 411.2,215.1 398.8,216.5 381.7,202.9 		"/>
		<polygon id="XMLID_69_" class="st3" points="373.7,133 373.3,129.4 408,125.4 412.3,163.4 412,163.5 		"/>
		<polygon id="XMLID_68_" class="st3" points="374.6,140.8 404.2,164.4 391.8,165.8 376,153.2 		"/>
	</g>
	<path id="XMLID_66_" class="st4" d="M305,198.6l3.3,29l0.5,4.8L479,212.9L342.1,109.2C316.5,130.5,301,163.1,305,198.6z"/>
	<g id="XMLID_35_">
		<path id="XMLID_65_" class="st0" d="M28,160.6c-16.9,19.6-25.8,45.9-22.7,73.6l3.3,29l68.3-7.8l-11.3-99.1L28,160.6z"/>
		<path id="XMLID_64_" class="st0" d="M65.1,151.6l-1.9-16.8c-11.4,4.9-21.6,11.9-30.2,20.5L65.1,151.6z"/>
		<path id="XMLID_63_" class="st0" d="M117.8,128.6l1.9,16.8l32.1-3.7C141.6,135.3,130.1,130.7,117.8,128.6z"/>
		<path id="XMLID_62_" class="st0" d="M157.9,145.8l-37.6,4.3l11.3,99.1l68.3-7.8l-3.3-29C193.4,184.7,178.8,161.1,157.9,145.8z"/>
		<path id="XMLID_61_" class="st0" d="M113,127.8c-7.5-0.9-15.1-1-22.9-0.1c-7.8,0.9-15.3,2.7-22.3,5.3l2.1,18.1l45.2-5.2L113,127.8
			z"/>
		
			<rect id="XMLID_60_" x="48.8" y="180" transform="matrix(-0.1135 -0.9935 0.9935 -0.1135 -91.6136 323.7412)" class="st0" width="99.7" height="45.5"/>
		<path id="XMLID_52_" class="st1" d="M205.2,245.5l-3.8-33.7c-6.3-54.8-55.5-94.4-110.1-89l0,0c0,0-21.4,3.4-31.5,8.4
			C21.5,149.8-4.5,190,0.6,234.8l3.3,29l0.5,4.8L205.2,245.5z M115.6,150.6l11.3,99.1l-45.2,5.2l-11.3-99.1L115.6,150.6z
			 M69.8,151.1L67.8,133c7.1-2.6,14.5-4.4,22.3-5.3c7.8-0.9,15.5-0.8,22.9,0.1l2.1,18.1L69.8,151.1z M151.9,141.7l-32.1,3.7
			l-1.9-16.8C130.1,130.7,141.6,135.3,151.9,141.7z M157.9,145.8c20.9,15.3,35.5,38.9,38.7,66.6l3.3,29l-68.3,7.8l-11.3-99.1
			L157.9,145.8z M63.2,134.8l1.9,16.8L33,155.3C41.5,146.7,51.8,139.7,63.2,134.8z M28,160.6l37.6-4.3L77,255.4l-68.3,7.8l-3.3-29
			C2.2,206.6,11.2,180.2,28,160.6z"/>
		<path id="XMLID_48_" class="st2" d="M67.8,153.5l11.9,104l49.8-5.7l-11.9-104L67.8,153.5z M113.4,153.1l5,43.7l-40.4,4.6l-5-43.7
			L113.4,153.1z M83.9,252.2l-5.3-46.2l40.4-4.6l5.3,46.2L83.9,252.2z"/>
		<path id="XMLID_47_" class="st3" d="M123.4,152.6l33.7-3.8c20.4,15.4,33.8,38.6,36.7,64l0.8,7.1l-69.8-55.5L123.4,152.6z"/>
		<polygon id="XMLID_46_" class="st3" points="125.8,172.9 195.6,228.4 196.8,238.9 181.9,240.6 128.7,198.3 		"/>
		<path id="XMLID_45_" class="st3" d="M134.1,140.9l-11.8,1.3l-1.2-10.1c0.9,0.2,1.9,0.4,2.8,0.7L134.1,140.9z"/>
		<path id="XMLID_44_" class="st3" d="M84,131.5c2.1-0.4,4.2-0.7,6.3-1c6.7-0.8,13.4-0.8,20-0.1l1.5,13l-11.2,1.3L84,131.5z"/>
		<path id="XMLID_43_" class="st3" d="M89,146l-16.7,1.9l-1.5-13c1-0.3,2-0.7,3-1L89,146z"/>
		<path id="XMLID_42_" class="st3" d="M60.8,139l1.2,10.1l-0.8,0.1l-7.8-6.2C55.8,141.5,58.2,140.2,60.8,139z"/>
		<path id="XMLID_41_" class="st3" d="M29.5,163.3l33.7-3.8l6.5,57L19.9,177C22.7,172.2,25.9,167.6,29.5,163.3z"/>
		<path id="XMLID_40_" class="st3" d="M17.1,182.5l53.6,42.6l3.2,27.8l-3.1,0.4L9.5,204.6C11.1,197,13.6,189.5,17.1,182.5z"/>
		<polygon id="XMLID_39_" class="st3" points="81.7,208.6 116.4,204.6 121,244.9 82.4,214.2 		"/>
		<polygon id="XMLID_38_" class="st3" points="83.2,221.3 114.2,245.9 101.8,247.3 84.6,233.7 		"/>
		<polygon id="XMLID_37_" class="st3" points="76.6,163.8 76.2,160.2 110.9,156.2 115.3,194.2 115,194.3 		"/>
		<polygon id="XMLID_36_" class="st3" points="77.5,171.7 107.1,195.2 94.7,196.6 78.9,184.1 		"/>
	</g>
	<g id="XMLID_4_">
		<path id="XMLID_34_" class="st0" d="M160.1,124.3c-20.5,23.8-31.4,55.8-27.5,89.4l4,35.2l82.9-9.5l-13.7-120.3L160.1,124.3z"/>
		<path id="XMLID_33_" class="st0" d="M205.1,113.4L202.8,93c-13.9,5.9-26.3,14.4-36.7,24.9L205.1,113.4z"/>
		<path id="XMLID_32_" class="st0" d="M269.2,85.4l2.3,20.4l39-4.5C298,93.5,284,88,269.2,85.4z"/>
		<path id="XMLID_31_" class="st0" d="M317.8,106.3l-45.7,5.2l13.7,120.3l82.9-9.5l-4-35.2C361,153.6,343.2,124.9,317.8,106.3z"/>
		<path id="XMLID_30_" class="st0" d="M263.3,84.5c-9.1-1.1-18.4-1.2-27.8-0.2c-9.5,1.1-18.5,3.3-27.1,6.4l2.5,22l54.9-6.3
			L263.3,84.5z"/>
		
			<rect id="XMLID_29_" x="185.3" y="147.8" transform="matrix(-0.1135 -0.9935 0.9935 -0.1135 99.403 439.637)" class="st0" width="121.1" height="55.3"/>
		<path id="XMLID_21_" class="st1" d="M375.2,227.4l-4.7-40.9C362.9,120,303.2,71.9,236.8,78.4l0,0c0,0-26,4.2-38.3,10.2
			c-46.3,22.6-77.9,71.5-71.7,125.8l4,35.2l0.6,5.8L375.2,227.4z M266.4,112.2l13.7,120.3l-54.9,6.3l-13.7-120.3L266.4,112.2z
			 M210.9,112.7l-2.5-22c8.6-3.1,17.6-5.3,27.1-6.4c9.5-1.1,18.8-1,27.8,0.2l2.5,22L210.9,112.7z M310.5,101.3l-39,4.5l-2.3-20.4
			C284,88,298,93.5,310.5,101.3z M317.8,106.3c25.3,18.6,43.1,47.3,47,80.9l4,35.2l-82.9,9.5l-13.7-120.3L317.8,106.3z M202.8,93
			l2.3,20.4l-39,4.5C176.5,107.4,188.9,98.9,202.8,93z M160.1,124.3l45.7-5.2l13.7,120.3l-82.9,9.5l-4-35.2
			C128.7,180.1,139.6,148.2,160.1,124.3z"/>
		<path id="XMLID_17_" class="st2" d="M208.4,115.7l14.4,126.2l60.4-6.9l-14.4-126.2L208.4,115.7z M263.8,115.2l6.1,53l-49,5.6
			l-6.1-53L263.8,115.2z M227.9,235.6l-6.4-56.1l49-5.6l6.4,56.1L227.9,235.6z"/>
		<path id="XMLID_16_" class="st3" d="M276,114.6l40.9-4.7c24.8,18.7,41,46.9,44.5,77.7l1,8.6l-84.8-67.4L276,114.6z"/>
		<polygon id="XMLID_15_" class="st3" points="278.8,139.3 363.6,206.7 365,219.3 346.9,221.4 282.3,170 		"/>
		<path id="XMLID_14_" class="st3" d="M288.9,100.3l-14.3,1.6l-1.4-12.3c1.1,0.2,2.3,0.5,3.4,0.8L288.9,100.3z"/>
		<path id="XMLID_13_" class="st3" d="M228.1,88.9c2.6-0.5,5.1-0.9,7.7-1.2c8.1-0.9,16.3-1,24.3-0.2l1.8,15.8l-13.7,1.6L228.1,88.9z
			"/>
		<path id="XMLID_12_" class="st3" d="M234.1,106.6l-20.3,2.3l-1.8-15.8c1.2-0.4,2.4-0.8,3.6-1.2L234.1,106.6z"/>
		<path id="XMLID_11_" class="st3" d="M199.9,98.1l1.4,12.3l-1,0.1l-9.5-7.5C193.8,101.2,196.8,99.5,199.9,98.1z"/>
		<path id="XMLID_10_" class="st3" d="M161.9,127.6l40.9-4.7l7.9,69.2l-60.4-48C153.6,138.4,157.5,132.8,161.9,127.6z"/>
		<path id="XMLID_9_" class="st3" d="M146.8,150.9l65.1,51.7l3.9,33.8l-3.7,0.4l-74.3-59.1C139.6,168.5,142.6,159.4,146.8,150.9z"/>
		<polygon id="XMLID_8_" class="st3" points="225.3,182.6 267.5,177.7 273.1,226.7 226.1,189.4 		"/>
		<polygon id="XMLID_7_" class="st3" points="227.1,198 264.7,227.9 249.7,229.6 228.8,213 		"/>
		<polygon id="XMLID_6_" class="st3" points="219.1,128.2 218.6,123.8 260.8,119 266,165.2 265.7,165.2 		"/>
		<polygon id="XMLID_5_" class="st3" points="220.2,137.7 256.1,166.3 241.1,168 221.9,152.8 		"/>
	</g>
</g>
<g id="XMLID_99_">
	<g id="XMLID_103_">
		<g id="XMLID_115_">
			<path id="XMLID_117_" class="st5" d="M1586.7,50c0.5-6.6,5.4-35.4,32.5-49.8c4.2-2.3,14.3,13.8,13,15.4
				c-1.3,1.6-16.6,15.3-16.8,36.7S1586.7,50,1586.7,50z"/>
			<path id="XMLID_116_" class="st6" d="M1629.1,8.5c-4.8,5.2-16.8,19.2-17,39.2c-0.2,16.1-14.4,9.6-23.9,3.4
				c5.8,4.5,27,19.6,27.2,1.1c0.2-21.4,15.5-35,16.8-36.7C1632.7,15,1631.3,11.8,1629.1,8.5z"/>
		</g>
		<g id="XMLID_108_">
			<g id="XMLID_112_">
				<path id="XMLID_139_" class="st7" d="M1709.5,132.9c3.8-47-28.5-78.4-99.6-84.1c-71.1-5.7-111.3,20.5-115.1,67.4
					s32.4,71.1,103.5,76.8C1669.5,198.7,1705.7,179.9,1709.5,132.9z"/>
			</g>
			<path id="XMLID_109_" class="st8" d="M1599.9,182.1c-40.1-3.2-71.5-11-93.7-23.8c15.6,19.9,46.8,31.1,92.3,34.7
				c44.3,3.5,75.1-2.4,92.9-18.8C1668.7,182.6,1638.2,185.1,1599.9,182.1z"/>
		</g>
		<g id="XMLID_105_" class="st9">
			<path id="XMLID_135_" class="st10" d="M1509.3,124.1c3.2-39.6,31.9-64.5,83.1-68.3c-55.2-1.5-86.3,20.9-89.4,59.4
				c-1.1,14.3,2,26.2,9.2,35.8C1509.5,143,1508.5,134.1,1509.3,124.1z"/>
		</g>
		<path id="XMLID_104_" class="st11" d="M1709.5,132.4c1.5-19.9-3.5-37-15.2-50.4l-176.7-11L1709.5,132.4z"/>
	</g>
	
		<rect id="XMLID_102_" x="1475.2" y="67.7" transform="matrix(0.9981 6.241179e-02 -6.241179e-02 0.9981 10.7925 -92.1341)" class="st12" width="10" height="118"/>
	
		<rect id="XMLID_101_" x="1716.9" y="82.8" transform="matrix(0.9981 6.241179e-02 -6.241179e-02 0.9981 12.2072 -107.1911)" class="st12" width="10" height="118"/>
	
		<rect id="XMLID_100_" x="1605" y="-66" transform="matrix(6.241179e-02 -0.9981 0.9981 6.241179e-02 1433.6134 1673.7972)" class="st13" width="5.3" height="279.8"/>
</g>
</svg>
