<?xml version="1.0" encoding="utf-8"?>
<!-- Generator: Adobe Illustrator 19.0.0, SVG Export Plug-In . SVG Version: 6.00 Build 0)  -->
<svg version="1.1" id="Layer_1" xmlns="http://www.w3.org/2000/svg" xmlns:xlink="http://www.w3.org/1999/xlink" x="0px" y="0px"
	 viewBox="0 0 349.7 297.5" style="enable-background:new 0 0 349.7 297.5;" xml:space="preserve">
<style type="text/css">
	.st0{fill-rule:evenodd;clip-rule:evenodd;fill:#FFCA31;}
	.st1{fill-rule:evenodd;clip-rule:evenodd;fill:#C8202A;}
	.st2{fill-rule:evenodd;clip-rule:evenodd;fill:#D14827;}
	.st3{fill-rule:evenodd;clip-rule:evenodd;fill:#FFFFFF;}
	.st4{fill-rule:evenodd;clip-rule:evenodd;fill:#2F432F;}
	.st5{fill-rule:evenodd;clip-rule:evenodd;fill:#1D301C;}
	.st6{opacity:0.2;fill-rule:evenodd;clip-rule:evenodd;fill:#5F5F5E;}
	.st7{fill-rule:evenodd;clip-rule:evenodd;fill:#DACA97;}
	.st8{fill-rule:evenodd;clip-rule:evenodd;fill:#CECECE;}
	.st9{fill-rule:evenodd;clip-rule:evenodd;fill:#718975;}
	.st10{fill-rule:evenodd;clip-rule:evenodd;fill:#ABCCC0;}
	.st11{fill-rule:evenodd;clip-rule:evenodd;fill:#DDDCD3;}
	.st12{opacity:0.11;fill-rule:evenodd;clip-rule:evenodd;fill:#666667;}
</style>
<g id="XMLID_99_">
	
		<rect id="XMLID_230_" x="5.4" y="144" transform="matrix(0.9963 8.603229e-02 -8.603229e-02 0.9963 18.1378 -3.3019)" class="st0" width="83.9" height="129.5"/>
	<g id="XMLID_227_">
		
			<rect id="XMLID_16_" x="2.8" y="205.7" transform="matrix(0.9963 8.603229e-02 -8.603229e-02 0.9963 20.7759 -2.9591)" class="st1" width="83.9" height="67.7"/>
	</g>
	
		<rect id="XMLID_226_" x="13" y="224.7" transform="matrix(0.9963 8.603229e-02 -8.603229e-02 0.9963 19.7331 -3.0946)" class="st2" width="65.6" height="5.4"/>
	
		<rect id="XMLID_225_" x="87.1" y="119" transform="matrix(-0.9963 -8.603229e-02 8.603229e-02 -0.9963 419.87 262.928)" class="st3" width="257" height="6.8"/>
	
		<rect id="XMLID_224_" x="81.3" y="186.1" transform="matrix(-0.9963 -8.603229e-02 8.603229e-02 -0.9963 402.524 396.4289)" class="st3" width="257" height="6.8"/>
	<g id="XMLID_220_">
		
			<rect id="XMLID_223_" x="70.8" y="83.7" transform="matrix(0.9963 8.603229e-02 -8.603229e-02 0.9963 8.557 -6.0713)" class="st4" width="7.9" height="25.2"/>
		
			<rect id="XMLID_222_" x="71.6" y="83.7" transform="matrix(0.9963 8.603229e-02 -8.603229e-02 0.9963 7.7333 -6.1783)" class="st5" width="7.9" height="5.9"/>
		
			<rect id="XMLID_221_" x="69.9" y="81.2" transform="matrix(0.9963 8.603229e-02 -8.603229e-02 0.9963 7.4663 -6.213)" class="st6" width="11.9" height="4.7"/>
	</g>
	
		<rect id="XMLID_219_" x="10" y="149.9" transform="matrix(0.9963 8.603229e-02 -8.603229e-02 0.9963 13.6149 -3.8895)" class="st7" width="83.9" height="12.2"/>
	
		<rect id="XMLID_218_" x="10.7" y="144.3" transform="matrix(0.9963 8.603229e-02 -8.603229e-02 0.9963 12.851 -3.9888)" class="st3" width="83.9" height="5.7"/>
	
		<rect id="XMLID_217_" x="5.1" y="205.8" transform="matrix(0.9963 8.603229e-02 -8.603229e-02 0.9963 18.4076 -3.2668)" class="st2" width="83.9" height="12.2"/>
	
		<rect id="XMLID_216_" x="5.9" y="200.2" transform="matrix(0.9963 8.603229e-02 -8.603229e-02 0.9963 17.6436 -3.366)" class="st3" width="83.9" height="5.7"/>
	
		<rect id="XMLID_215_" x="25.3" y="223" transform="matrix(0.9963 8.603229e-02 -8.603229e-02 0.9963 21.5172 -2.8628)" class="st3" width="37.3" height="50.3"/>
	
		<rect id="XMLID_214_" x="43.1" y="208.7" transform="matrix(8.603229e-02 -0.9963 0.9963 8.603229e-02 -184.7205 253.4327)" class="st8" width="5.4" height="37.3"/>
	
		<rect id="XMLID_213_" x="28.9" y="226.7" transform="matrix(0.9963 8.603229e-02 -8.603229e-02 0.9963 21.2566 -2.8966)" class="st9" width="30.6" height="37"/>
	
		<rect id="XMLID_212_" x="28.8" y="229.9" transform="matrix(0.9963 8.603229e-02 -8.603229e-02 0.9963 21.3804 -2.7359)" class="st10" width="27.3" height="33.6"/>
	
		<rect id="XMLID_211_" x="42.5" y="223" transform="matrix(0.9963 8.603229e-02 -8.603229e-02 0.9963 21.5172 -2.8627)" class="st3" width="3" height="50.3"/>
	
		<rect id="XMLID_210_" x="43.1" y="225.9" transform="matrix(-8.603229e-02 0.9963 -0.9963 -8.603229e-02 276.2599 201.3593)" class="st8" width="5.4" height="3"/>
	<polygon id="XMLID_209_" class="st4" points="98.9,99.6 57.1,96 31.1,93.8 11.1,140.7 52.9,144.3 94.8,147.9 	"/>
	<g id="XMLID_205_">
		<polygon id="XMLID_208_" class="st3" points="42.2,114.5 42.2,114.5 39.7,143.1 66.2,145.4 68.7,116.8 56.4,104.2 		"/>
		
			<rect id="XMLID_207_" x="45.5" y="119" transform="matrix(0.9963 8.603229e-02 -8.603229e-02 0.9963 11.2983 -4.1905)" class="st9" width="17.5" height="20"/>
		
			<rect id="XMLID_206_" x="45.4" y="122" transform="matrix(0.9963 8.603229e-02 -8.603229e-02 0.9963 11.4137 -4.0293)" class="st10" width="14.2" height="16.8"/>
	</g>
	<g id="XMLID_194_">
		
			<rect id="XMLID_204_" x="49.1" y="164.6" transform="matrix(0.9963 8.603229e-02 -8.603229e-02 0.9963 15.681 -4.7069)" class="st3" width="26.7" height="30"/>
		
			<rect id="XMLID_203_" x="51.4" y="167.2" transform="matrix(0.9963 8.603229e-02 -8.603229e-02 0.9963 15.7914 -4.6926)" class="st9" width="21.8" height="27.4"/>
		
			<rect id="XMLID_202_" x="51.5" y="167" transform="matrix(-0.9963 -8.603229e-02 8.603229e-02 -0.9963 105.8921 366.0327)" class="st10" width="18.8" height="27.4"/>
		
			<rect id="XMLID_201_" x="52.5" y="167.2" transform="matrix(0.9963 8.603229e-02 -8.603229e-02 0.9963 14.787 -4.8231)" class="st9" width="21.8" height="3.9"/>
		
			<rect id="XMLID_200_" x="60.8" y="167.2" transform="matrix(0.9963 8.603229e-02 -8.603229e-02 0.9963 15.7914 -4.6926)" class="st3" width="3" height="27.4"/>
		
			<rect id="XMLID_199_" x="21.3" y="193.4" transform="matrix(0.9963 8.603229e-02 -8.603229e-02 0.9963 16.9936 -3.4505)" class="st3" width="54.5" height="4"/>
		
			<rect id="XMLID_198_" x="24.9" y="162.5" transform="matrix(0.9963 8.603229e-02 -8.603229e-02 0.9963 15.4118 -2.6352)" class="st3" width="26.7" height="30"/>
		
			<rect id="XMLID_197_" x="27.3" y="165.1" transform="matrix(0.9963 8.603229e-02 -8.603229e-02 0.9963 15.5222 -2.6209)" class="st10" width="21.8" height="27.4"/>
		
			<rect id="XMLID_196_" x="28.3" y="165.1" transform="matrix(0.9963 8.603229e-02 -8.603229e-02 0.9963 14.5178 -2.7514)" class="st9" width="21.8" height="3.9"/>
		
			<rect id="XMLID_195_" x="36.7" y="165.1" transform="matrix(0.9963 8.603229e-02 -8.603229e-02 0.9963 15.5222 -2.6209)" class="st3" width="3" height="27.4"/>
	</g>
	<polygon id="XMLID_193_" class="st4" points="73.4,217.3 20.2,212.7 13.3,221.9 78.7,227.5 	"/>
	
		<rect id="XMLID_192_" x="90.1" y="58.7" transform="matrix(-0.9963 -8.603229e-02 8.603229e-02 -0.9963 406.7705 363.7422)" class="st11" width="242.2" height="228.7"/>
	
		<rect id="XMLID_191_" x="84.4" y="192.8" transform="matrix(-0.9963 -8.603229e-02 8.603229e-02 -0.9963 389.483 496.7923)" class="st6" width="242.2" height="94.5"/>
	
		<rect id="XMLID_190_" x="99.6" y="59.1" transform="matrix(-0.9963 -8.603229e-02 8.603229e-02 -0.9963 435.148 145.3454)" class="st12" width="242.2" height="8.3"/>
	
		<rect id="XMLID_189_" x="92.8" y="52.3" transform="matrix(-0.9963 -8.603229e-02 8.603229e-02 -0.9963 437.0987 130.3303)" class="st3" width="257" height="6.8"/>
	<g id="XMLID_186_">
		<polygon id="XMLID_14_" class="st1" points="140.8,0 205.3,5.6 306.6,14.3 342.3,62.8 201.4,50.6 97.3,41.6 		"/>
	</g>
	
		<rect id="XMLID_185_" x="93.9" y="125.8" transform="matrix(-0.9963 -8.603229e-02 8.603229e-02 -0.9963 417.9193 277.9432)" class="st9" width="242.2" height="8.3"/>
	
		<rect id="XMLID_184_" x="113.3" y="97.9" transform="matrix(-0.9963 -8.603229e-02 8.603229e-02 -0.9963 251.9283 211.2914)" class="st3" width="34.4" height="4.7"/>
	
		<rect id="XMLID_183_" x="116.7" y="63.1" transform="matrix(-0.9963 -8.603229e-02 8.603229e-02 -0.9963 257.0197 172.0999)" class="st3" width="31.1" height="34.9"/>
	
		<rect id="XMLID_182_" x="119.4" y="66.1" transform="matrix(-0.9963 -8.603229e-02 8.603229e-02 -0.9963 256.511 176.0212)" class="st10" width="25.4" height="32.8"/>
	
		<rect id="XMLID_181_" x="130.3" y="66.1" transform="matrix(-0.9963 -8.603229e-02 8.603229e-02 -0.9963 256.4378 176.5724)" class="st3" width="3.5" height="33.4"/>
	
		<rect id="XMLID_180_" x="112.9" y="102.5" transform="matrix(-0.9963 -8.603229e-02 8.603229e-02 -0.9963 250.674 220.9451)" class="st9" width="34.4" height="5.1"/>
	<path id="XMLID_179_" class="st3" d="M171.8,106.1c11.4,1,22.8,2,34.2,3c0.1-1.5,0.3-3.1,0.4-4.6c-11.4-1-22.8-2-34.2-3
		C172.1,103,171.9,104.6,171.8,106.1z"/>
	<path id="XMLID_178_" class="st3" d="M173.8,101.6c10.3,0.9,20.7,1.8,31,2.7c1-11.6,2-23.2,3-34.8c-10.3-0.9-20.7-1.8-31-2.7
		C175.8,78.4,174.8,90,173.8,101.6z"/>
	<path id="XMLID_177_" class="st10" d="M176.7,101.3c8.4,0.7,16.8,1.5,25.3,2.2c0.9-10.4,1.8-20.8,2.7-31.2
		c-8.4-0.7-16.8-1.5-25.3-2.2C178.5,80.5,177.6,90.9,176.7,101.3z"/>
	<path id="XMLID_176_" class="st3" d="M187.6,102.8c1.2,0.1,2.3,0.2,3.5,0.3c0.9-10.6,1.8-21.2,2.7-31.8c-1.2-0.1-2.3-0.2-3.5-0.3
		C189.4,81.6,188.5,92.2,187.6,102.8z"/>
	<path id="XMLID_175_" class="st9" d="M171.8,106.1c11.4,1,22.8,2,34.2,3c-0.1,1.7-0.3,3.4-0.4,5.1c-11.4-1-22.8-2-34.2-3
		C171.5,109.5,171.7,107.8,171.8,106.1z"/>
	<path id="XMLID_174_" class="st3" d="M230.4,111.2c11.4,1,22.8,2,34.2,3c0.1-1.5,0.3-3.1,0.4-4.6c-11.4-1-22.8-2-34.2-3
		C230.7,108.1,230.5,109.6,230.4,111.2z"/>
	<path id="XMLID_173_" class="st3" d="M232.4,106.7c10.3,0.9,20.7,1.8,31,2.7c1-11.6,2-23.2,3-34.8c-10.3-0.9-20.7-1.8-31-2.7
		C234.4,83.5,233.4,95.1,232.4,106.7z"/>
	<path id="XMLID_172_" class="st10" d="M235.3,106.4c8.4,0.7,16.8,1.5,25.3,2.2c0.9-10.4,1.8-20.8,2.7-31.2
		c-8.4-0.7-16.8-1.5-25.3-2.2C237.1,85.6,236.2,96,235.3,106.4z"/>
	<path id="XMLID_171_" class="st3" d="M246.2,107.9c1.2,0.1,2.3,0.2,3.5,0.3c0.9-10.6,1.8-21.2,2.7-31.8c-1.2-0.1-2.3-0.2-3.5-0.3
		C248,86.7,247.1,97.3,246.2,107.9z"/>
	<path id="XMLID_170_" class="st9" d="M230.4,111.2c11.4,1,22.8,2,34.2,3c-0.1,1.7-0.3,3.4-0.4,5.1c-11.4-1-22.8-2-34.2-3
		C230.1,114.6,230.3,112.9,230.4,111.2z"/>
	
		<rect id="XMLID_169_" x="289.2" y="113.1" transform="matrix(-0.9963 -8.603229e-02 8.603229e-02 -0.9963 601.6113 256.7264)" class="st3" width="34.4" height="4.7"/>
	
		<rect id="XMLID_168_" x="292.5" y="78.2" transform="matrix(-0.9963 -8.603229e-02 8.603229e-02 -0.9963 606.7035 217.535)" class="st3" width="31.1" height="34.9"/>
	
		<rect id="XMLID_167_" x="295.3" y="81.2" transform="matrix(-0.9963 -8.603229e-02 8.603229e-02 -0.9963 606.3875 219.9675)" class="st10" width="25.4" height="31.3"/>
	
		<rect id="XMLID_166_" x="306.2" y="81.2" transform="matrix(-0.9963 -8.603229e-02 8.603229e-02 -0.9963 606.3146 220.5155)" class="st3" width="3.5" height="31.9"/>
	
		<rect id="XMLID_165_" x="288.7" y="117.7" transform="matrix(-0.9963 -8.603229e-02 8.603229e-02 -0.9963 600.3569 266.3801)" class="st9" width="34.4" height="5.1"/>
	
		<rect id="XMLID_164_" x="87.9" y="192.9" transform="matrix(-0.9963 -8.603229e-02 8.603229e-02 -0.9963 400.0556 415.4284)" class="st6" width="242.2" height="12.3"/>
	
		<rect id="XMLID_163_" x="174" y="198.9" transform="matrix(-0.9963 -8.603229e-02 8.603229e-02 -0.9963 395.2082 503.4101)" class="st3" width="68.9" height="88.6"/>
	
		<rect id="XMLID_162_" x="177.5" y="199" transform="matrix(-0.9963 -8.603229e-02 8.603229e-02 -0.9963 405.7798 422.0477)" class="st8" width="68.9" height="6.5"/>
	
		<rect id="XMLID_161_" x="182.9" y="220" transform="matrix(-0.9963 -8.603229e-02 8.603229e-02 -0.9963 393.7446 514.6742)" class="st9" width="50.1" height="57.8"/>
	
		<rect id="XMLID_160_" x="187.8" y="225" transform="matrix(-0.9963 -8.603229e-02 8.603229e-02 -0.9963 398.1665 520.1208)" class="st10" width="45" height="52.9"/>
	
		<rect id="XMLID_159_" x="203" y="216.6" transform="matrix(-0.9963 -8.603229e-02 8.603229e-02 -0.9963 393.7448 514.6734)" class="st3" width="9.9" height="64.4"/>
	
		<rect id="XMLID_158_" x="195.1" y="245.9" transform="matrix(-0.9963 -8.603229e-02 8.603229e-02 -0.9963 393.7446 514.6742)" class="st3" width="25.6" height="5.9"/>
	<g id="XMLID_143_">
		<g id="XMLID_151_">
			
				<rect id="XMLID_157_" x="101.8" y="203.8" transform="matrix(0.9963 8.603229e-02 -8.603229e-02 0.9963 20.7734 -9.3219)" class="st3" width="33.4" height="65.2"/>
			
				<rect id="XMLID_156_" x="105" y="207.3" transform="matrix(0.9963 8.603229e-02 -8.603229e-02 0.9963 20.7497 -9.325)" class="st9" width="27.1" height="57.6"/>
			
				<rect id="XMLID_155_" x="107.8" y="210.2" transform="matrix(0.9963 8.603229e-02 -8.603229e-02 0.9963 20.8884 -9.4318)" class="st10" width="24.2" height="54.8"/>
			<polygon id="XMLID_154_" class="st3" points="133.5,220.2 106.5,217.9 106.2,221.3 118.3,222.3 114.7,264.7 118.1,265 
				121.7,222.6 133.2,223.6 			"/>
			
				<rect id="XMLID_153_" x="119" y="199.2" transform="matrix(0.9963 8.603229e-02 -8.603229e-02 0.9963 17.9092 -9.6941)" class="st3" width="4.8" height="7.5"/>
			
				<rect id="XMLID_152_" x="98.9" y="268.8" transform="matrix(0.9963 8.603229e-02 -8.603229e-02 0.9963 23.7101 -8.9404)" class="st9" width="33.4" height="3.6"/>
		</g>
		<g id="XMLID_144_">
			
				<rect id="XMLID_150_" x="275" y="218.7" transform="matrix(0.9963 8.603229e-02 -8.603229e-02 0.9963 22.7017 -24.1632)" class="st3" width="33.4" height="65.2"/>
			
				<rect id="XMLID_149_" x="278.2" y="222.2" transform="matrix(0.9963 8.603229e-02 -8.603229e-02 0.9963 22.678 -24.1663)" class="st9" width="27.1" height="57.6"/>
			
				<rect id="XMLID_148_" x="280.9" y="225.2" transform="matrix(0.9963 8.603229e-02 -8.603229e-02 0.9963 22.8168 -24.2732)" class="st10" width="24.2" height="54.8"/>
			<polygon id="XMLID_147_" class="st3" points="306.7,235.2 279.7,232.9 279.4,236.3 291.5,237.3 287.8,279.6 291.2,279.9 
				294.9,237.6 306.4,238.6 			"/>
			
				<rect id="XMLID_146_" x="292.2" y="214.2" transform="matrix(0.9963 8.603229e-02 -8.603229e-02 0.9963 19.8375 -24.5354)" class="st3" width="4.8" height="7.5"/>
			
				<rect id="XMLID_145_" x="272" y="283.8" transform="matrix(0.9963 8.603229e-02 -8.603229e-02 0.9963 25.6385 -23.7817)" class="st9" width="33.4" height="3.6"/>
		</g>
	</g>
	<path id="XMLID_137_" class="st6" d="M324.4,175.7c2.7,0.2,5.4,0.5,8.1,0.7c-0.1,1.2-0.2,2.4-0.3,3.6c-2.7-0.2-5.4-0.5-8.1-0.7
		C324.2,178.1,324.3,176.9,324.4,175.7L324.4,175.7z M323.6,184.7c2.7,0.2,5.4,0.5,8.1,0.7c-0.1,1.2-0.2,2.4-0.3,3.6
		c-2.7-0.2-5.4-0.5-8.1-0.7C323.4,187,323.5,185.9,323.6,184.7L323.6,184.7L323.6,184.7z M325.6,161.4c2.7,0.2,5.4,0.5,8.1,0.7
		c0.1-1.2,0.2-2.4,0.3-3.6c-2.7-0.2-5.4-0.5-8.1-0.7C325.8,159,325.7,160.2,325.6,161.4L325.6,161.4L325.6,161.4z M324.8,170.3
		l8.1,0.7l0.3-3.6l-8.1-0.7L324.8,170.3L324.8,170.3z M326.4,152.4c2.7,0.2,5.4,0.5,8.1,0.7c0.1-1.2,0.2-2.4,0.3-3.6
		c-2.7-0.2-5.4-0.5-8.1-0.7C326.6,150.1,326.5,151.3,326.4,152.4L326.4,152.4z"/>
	<path id="XMLID_131_" class="st6" d="M330.2,107.8c2.7,0.2,5.4,0.5,8.1,0.7c-0.1,1.2-0.2,2.4-0.3,3.6c-2.7-0.2-5.4-0.5-8.1-0.7
		C330,110.2,330.1,109,330.2,107.8L330.2,107.8z M329.4,116.8c2.7,0.2,5.4,0.5,8.1,0.7c-0.1,1.2-0.2,2.4-0.3,3.6
		c-2.7-0.2-5.4-0.5-8.1-0.7C329.2,119.1,329.3,118,329.4,116.8L329.4,116.8L329.4,116.8z M331.5,93.5c2.7,0.2,5.4,0.5,8.1,0.7
		c0.1-1.2,0.2-2.4,0.3-3.6c-2.7-0.2-5.4-0.5-8.1-0.7C331.7,91.1,331.6,92.3,331.5,93.5L331.5,93.5L331.5,93.5z M330.7,102.4l8.1,0.7
		l0.3-3.6l-8.1-0.7L330.7,102.4L330.7,102.4z M332.2,84.5c2.7,0.2,5.4,0.5,8.1,0.7c0.1-1.2,0.2-2.4,0.3-3.6
		c-2.7-0.2-5.4-0.5-8.1-0.7C332.4,82.2,332.3,83.4,332.2,84.5L332.2,84.5z"/>
	<path id="XMLID_122_" class="st6" d="M318.3,245.6c2.7,0.2,5.4,0.5,8.1,0.7c-0.1,1.2-0.2,2.4-0.3,3.6c-2.7-0.2-5.4-0.5-8.1-0.7
		C318.1,248,318.2,246.8,318.3,245.6L318.3,245.6z M315.2,281.4c2.7,0.2,5.4,0.5,8.1,0.7c-0.1,1.2-0.2,2.4-0.3,3.6
		c-2.7-0.2-5.4-0.5-8.1-0.7C315,283.8,315.1,282.6,315.2,281.4L315.2,281.4L315.2,281.4z M316,272.5c2.7,0.2,5.4,0.5,8.1,0.7
		c-0.1,1.2-0.2,2.4-0.3,3.6c-2.7-0.2-5.4-0.5-8.1-0.7C315.8,274.9,315.9,273.7,316,272.5L316,272.5L316,272.5z M316.8,263.5
		c2.7,0.2,5.4,0.5,8.1,0.7c-0.1,1.2-0.2,2.4-0.3,3.6c-2.7-0.2-5.4-0.5-8.1-0.7C316.6,265.9,316.7,264.7,316.8,263.5L316.8,263.5
		L316.8,263.5z M317.5,254.6c2.7,0.2,5.4,0.5,8.1,0.7c-0.1,1.2-0.2,2.4-0.3,3.6c-2.7-0.2-5.4-0.5-8.1-0.7
		C317.3,257,317.4,255.8,317.5,254.6L317.5,254.6L317.5,254.6z M319.6,231.3c2.7,0.2,5.4,0.5,8.1,0.7c0.1-1.2,0.2-2.4,0.3-3.6
		c-2.7-0.2-5.4-0.5-8.1-0.7C319.8,228.9,319.7,230.1,319.6,231.3L319.6,231.3L319.6,231.3z M318.8,240.3l8.1,0.7l0.3-3.6l-8.1-0.7
		L318.8,240.3L318.8,240.3z M320.3,222.4c2.7,0.2,5.4,0.5,8.1,0.7c0.1-1.2,0.2-2.4,0.3-3.6c-2.7-0.2-5.4-0.5-8.1-0.7
		C320.5,220,320.4,221.2,320.3,222.4L320.3,222.4z"/>
	
		<rect id="XMLID_121_" x="194.7" y="251.8" transform="matrix(-0.9963 -8.603229e-02 8.603229e-02 -0.9963 392.4841 524.3755)" class="st9" width="25.6" height="3.9"/>
	
		<rect id="XMLID_120_" x="205.6" y="248.8" transform="matrix(8.603229e-02 -0.9963 0.9963 8.603229e-02 -63.1037 438.6733)" class="st8" width="3.9" height="9.9"/>
	
		<rect id="XMLID_119_" x="107.6" y="167.5" transform="matrix(-0.9963 -8.603229e-02 8.603229e-02 -0.9963 234.5114 349.7897)" class="st3" width="34.4" height="4.7"/>
	
		<rect id="XMLID_118_" x="110.9" y="132.7" transform="matrix(-0.9963 -8.603229e-02 8.603229e-02 -0.9963 239.6028 310.5982)" class="st3" width="31.1" height="34.9"/>
	
		<rect id="XMLID_117_" x="113.6" y="135.7" transform="matrix(-0.9963 -8.603229e-02 8.603229e-02 -0.9963 239.0941 314.5196)" class="st10" width="25.4" height="32.8"/>
	
		<rect id="XMLID_116_" x="124.5" y="135.7" transform="matrix(-0.9963 -8.603229e-02 8.603229e-02 -0.9963 239.0209 315.0707)" class="st3" width="3.5" height="33.4"/>
	
		<rect id="XMLID_115_" x="107.2" y="172.2" transform="matrix(-0.9963 -8.603229e-02 8.603229e-02 -0.9963 233.257 359.4435)" class="st9" width="34.4" height="5.1"/>
	<path id="XMLID_114_" class="st3" d="M166.1,175.7c11.4,1,22.8,2,34.2,3c0.1-1.5,0.3-3.1,0.4-4.6c-11.4-1-22.8-2-34.2-3
		C166.3,172.6,166.2,174.2,166.1,175.7z"/>
	<path id="XMLID_113_" class="st3" d="M168.1,171.2c10.3,0.9,20.7,1.8,31,2.7c1-11.6,2-23.2,3-34.8c-10.3-0.9-20.7-1.8-31-2.7
		C170.1,148.1,169.1,159.7,168.1,171.2z"/>
	<path id="XMLID_112_" class="st10" d="M171,170.9c8.4,0.7,16.8,1.5,25.3,2.2c0.9-10.4,1.8-20.8,2.7-31.2
		c-8.4-0.7-16.8-1.5-25.3-2.2C172.8,150.1,171.9,160.5,171,170.9z"/>
	<path id="XMLID_111_" class="st3" d="M181.8,172.4c1.2,0.1,2.3,0.2,3.5,0.3c0.9-10.6,1.8-21.2,2.7-31.8c-1.2-0.1-2.3-0.2-3.5-0.3
		C183.7,151.2,182.8,161.8,181.8,172.4z"/>
	<path id="XMLID_110_" class="st9" d="M166.1,175.7c11.4,1,22.8,2,34.2,3c-0.1,1.7-0.3,3.4-0.4,5.1c-11.4-1-22.8-2-34.2-3
		C165.8,179.1,165.9,177.4,166.1,175.7z"/>
	<path id="XMLID_109_" class="st3" d="M224.7,180.8c11.4,1,22.8,2,34.2,3c0.1-1.5,0.3-3.1,0.4-4.6c-11.4-1-22.8-2-34.2-3
		C225,177.7,224.8,179.3,224.7,180.8z"/>
	<path id="XMLID_108_" class="st3" d="M226.7,176.3c10.3,0.9,20.7,1.8,31,2.7c1-11.6,2-23.2,3-34.8c-10.3-0.9-20.7-1.8-31-2.7
		C228.7,153.1,227.7,164.7,226.7,176.3z"/>
	<path id="XMLID_107_" class="st10" d="M229.6,176c8.4,0.7,16.8,1.5,25.3,2.2c0.9-10.4,1.8-20.8,2.7-31.2
		c-8.4-0.7-16.8-1.5-25.3-2.2C231.4,155.2,230.5,165.6,229.6,176z"/>
	<path id="XMLID_106_" class="st3" d="M240.5,177.5c1.2,0.1,2.3,0.2,3.5,0.3c0.9-10.6,1.8-21.2,2.7-31.8c-1.2-0.1-2.3-0.2-3.5-0.3
		C242.3,156.3,241.4,166.9,240.5,177.5z"/>
	<path id="XMLID_105_" class="st9" d="M224.7,180.8c11.4,1,22.8,2,34.2,3c-0.1,1.7-0.3,3.4-0.4,5.1c-11.4-1-22.8-2-34.2-3
		C224.4,184.2,224.5,182.5,224.7,180.8z"/>
	
		<rect id="XMLID_104_" x="283.4" y="182.7" transform="matrix(-0.9963 -8.603229e-02 8.603229e-02 -0.9963 584.1944 395.2247)" class="st3" width="34.4" height="4.7"/>
	
		<rect id="XMLID_103_" x="286.8" y="147.9" transform="matrix(-0.9963 -8.603229e-02 8.603229e-02 -0.9963 589.2866 356.0334)" class="st3" width="31.1" height="34.9"/>
	
		<rect id="XMLID_102_" x="289.5" y="150.9" transform="matrix(-0.9963 -8.603229e-02 8.603229e-02 -0.9963 588.9705 358.4659)" class="st10" width="25.4" height="31.3"/>
	
		<rect id="XMLID_101_" x="300.4" y="150.9" transform="matrix(-0.9963 -8.603229e-02 8.603229e-02 -0.9963 588.8977 359.0138)" class="st3" width="3.5" height="31.9"/>
	
		<rect id="XMLID_100_" x="283" y="187.3" transform="matrix(-0.9963 -8.603229e-02 8.603229e-02 -0.9963 582.9401 404.8784)" class="st9" width="34.4" height="5.1"/>
</g>
</svg>
