<?xml version="1.0" encoding="utf-8"?>
<!-- Generator: Adobe Illustrator 19.0.0, SVG Export Plug-In . SVG Version: 6.00 Build 0)  -->
<svg version="1.1" id="Layer_1" xmlns="http://www.w3.org/2000/svg" xmlns:xlink="http://www.w3.org/1999/xlink" x="0px" y="0px"
	 viewBox="0 0 1031.2 250" style="enable-background:new 0 0 1031.2 250;" xml:space="preserve">
<style type="text/css">
	.st0{fill:#DDDCD3;}
	.st1{fill:#D1D1CA;}
	.st2{fill:#4E5E66;}
	.st3{opacity:0.37;fill:none;stroke:#666667;stroke-width:0.5;stroke-miterlimit:10;}
	.st4{fill:#111F2D;}
	.st5{fill:#898171;}
	.st6{fill:#ADA58E;}
	.st7{fill:#CECEC5;}
	.st8{fill:#BAB9B4;}
	.st9{fill:#999280;}
	.st10{fill:#221C1C;}
	.st11{opacity:0.2;fill:#5F5F5E;}
	.st12{fill:#161111;}
	.st13{fill:#701017;}
	.st14{fill:#8F191C;}
	.st15{fill:#C8202A;}
	.st16{opacity:0.43;fill:#8F191C;}
	.st17{opacity:0.37;fill:none;stroke:#2F1110;stroke-width:0.5;stroke-miterlimit:10;}
	.st18{fill:#666667;}
	.st19{opacity:0.3;fill:#701017;}
	.st20{fill:none;stroke:#929497;stroke-width:0.5;stroke-miterlimit:10;}
</style>
<g id="XMLID_99_">
	
		<rect id="XMLID_334_" x="695.5" y="2.4" transform="matrix(0.9998 -1.874379e-02 1.874379e-02 0.9998 -1.9298 15.4317)" class="st0" width="253.6" height="216.6"/>
	
		<rect id="XMLID_333_" x="829.5" y="208" transform="matrix(0.9998 -1.874379e-02 1.874379e-02 0.9998 -3.9139 17.4278)" class="st1" width="196.5" height="18.9"/>
	
		<rect id="XMLID_330_" x="59.3" y="16.3" transform="matrix(0.9998 -1.874379e-02 1.874379e-02 0.9998 -2.3916 2.2702)" class="st2" width="121.3" height="224.8"/>
	
		<rect id="XMLID_329_" x="167" y="7.9" transform="matrix(0.9998 -1.874379e-02 1.874379e-02 0.9998 -2.2946 4.2884)" class="st0" width="121.3" height="233.2"/>
	
		<rect id="XMLID_328_" x="2.2" y="11.6" transform="matrix(0.9998 -1.874379e-02 1.874379e-02 0.9998 -2.427 0.6386)" class="st0" width="61.3" height="236.4"/>
	<line id="XMLID_327_" class="st3" x1="0.1" y1="18.5" x2="286.2" y2="13.2"/>
	<line id="XMLID_326_" class="st3" x1="0.7" y1="49.3" x2="286.8" y2="43.9"/>
	<line id="XMLID_325_" class="st3" x1="1.3" y1="80.1" x2="287.3" y2="74.7"/>
	<line id="XMLID_324_" class="st3" x1="1.8" y1="110.9" x2="287.9" y2="105.5"/>
	<line id="XMLID_323_" class="st3" x1="2.4" y1="141.6" x2="288.5" y2="136.3"/>
	<line id="XMLID_322_" class="st3" x1="3" y1="172.4" x2="289.1" y2="167"/>
	<line id="XMLID_321_" class="st3" x1="3.6" y1="203.2" x2="289.7" y2="197.8"/>
	<line id="XMLID_320_" class="st3" x1="193.1" y1="221.2" x2="189.1" y2="8.3"/>
	<line id="XMLID_319_" class="st3" x1="253.9" y1="220.1" x2="249.9" y2="7.1"/>
	
		<rect id="XMLID_316_" x="229.5" y="99.1" transform="matrix(0.9998 -1.874379e-02 1.874379e-02 0.9998 -2.0809 4.6892)" class="st4" width="39.3" height="28.5"/>
	
		<rect id="XMLID_313_" x="230.6" y="167.4" transform="matrix(0.9998 -1.874379e-02 1.874379e-02 0.9998 -3.2278 4.7215)" class="st4" width="39.3" height="14.2"/>
	<polygon id="XMLID_310_" class="st5" points="286.1,6.8 307.5,87.2 308.9,162.2 289,162.6 	"/>
	<polygon id="XMLID_307_" class="st6" points="540.5,84 685.4,13.9 689,157 542,161.4 	"/>
	<polygon id="XMLID_306_" class="st7" points="683.5,16 540.6,86 540.5,82.8 683.5,12.8 	"/>
	<polygon id="XMLID_305_" class="st8" points="693.5,4.8 683.4,10 688.6,210.6 697.3,210.4 	"/>
	<g id="XMLID_292_">
		
			<rect id="XMLID_302_" x="734.3" y="10.3" transform="matrix(0.9998 -1.874379e-02 1.874379e-02 0.9998 -0.3368 14.2271)" class="st2" width="49" height="29.6"/>
		
			<rect id="XMLID_299_" x="734.9" y="42.4" transform="matrix(0.9998 -1.874379e-02 1.874379e-02 0.9998 -0.9387 14.244)" class="st4" width="49" height="29.6"/>
		
			<rect id="XMLID_296_" x="735.5" y="74.5" transform="matrix(0.9998 -1.874379e-02 1.874379e-02 0.9998 -1.5405 14.261)" class="st2" width="49" height="29.6"/>
		
			<rect id="XMLID_293_" x="736.1" y="106.6" transform="matrix(0.9998 -1.874379e-02 1.874379e-02 0.9998 -2.1424 14.2779)" class="st4" width="49" height="29.6"/>
	</g>
	<line id="XMLID_291_" class="st3" x1="713.7" y1="4.7" x2="716.2" y2="140.7"/>
	
		<rect id="XMLID_288_" x="737.1" y="138.7" transform="matrix(0.9998 -1.874379e-02 1.874379e-02 0.9998 -3.1399 14.306)" class="st2" width="49" height="71.8"/>
	
		<rect id="XMLID_285_" x="307.2" y="87.9" transform="matrix(0.9998 -1.874379e-02 1.874379e-02 0.9998 -2.0827 7.9703)" class="st9" width="233.9" height="54.4"/>
	
		<rect id="XMLID_284_" x="306.7" y="85" transform="matrix(0.9998 -1.874379e-02 1.874379e-02 0.9998 -1.5488 7.9553)" class="st0" width="233.9" height="3.2"/>
	
		<rect id="XMLID_283_" x="439.9" y="92.2" transform="matrix(0.9998 -1.874379e-02 1.874379e-02 0.9998 -2.0879 8.9843)" class="st10" width="76.7" height="47.3"/>
	<g id="XMLID_253_">
		<polygon id="XMLID_282_" class="st11" points="781.7,210.1 725.6,127.2 727.2,211.1 		"/>
		
			<rect id="XMLID_279_" x="434" y="133.9" transform="matrix(0.9998 -1.874379e-02 1.874379e-02 0.9998 -3.2157 10.7503)" class="st12" width="275.8" height="86"/>
		
			<rect id="XMLID_278_" x="283.6" y="134" transform="matrix(0.9998 -1.874379e-02 1.874379e-02 0.9998 -3.2866 7.0089)" class="st1" width="177.3" height="89.7"/>
		
			<rect id="XMLID_277_" x="683.4" y="127.8" transform="matrix(0.9998 -1.874379e-02 1.874379e-02 0.9998 -3.1113 13.2432)" class="st0" width="43.1" height="89.7"/>
		
			<rect id="XMLID_276_" x="575.6" y="129.2" transform="matrix(0.9998 -1.874379e-02 1.874379e-02 0.9998 -3.1527 11.7702)" class="st0" width="101.4" height="89.7"/>
		
			<rect id="XMLID_275_" x="698.7" y="160.3" transform="matrix(0.9998 -1.874379e-02 1.874379e-02 0.9998 -2.9965 13.2399)" class="st12" width="12.3" height="12.3"/>
		
			<rect id="XMLID_274_" x="598.1" y="162.2" transform="matrix(0.9998 -1.874379e-02 1.874379e-02 0.9998 -3.0495 11.3552)" class="st12" width="12.3" height="12.3"/>
		
			<rect id="XMLID_273_" x="642.1" y="161.4" transform="matrix(0.9998 -1.874379e-02 1.874379e-02 0.9998 -3.0263 12.1788)" class="st12" width="12.3" height="12.3"/>
		
			<rect id="XMLID_272_" x="467" y="131.3" transform="matrix(0.9998 -1.874379e-02 1.874379e-02 0.9998 -3.21 9.735)" class="st0" width="101.4" height="89.7"/>
		
			<rect id="XMLID_271_" x="489.5" y="164.3" transform="matrix(0.9998 -1.874379e-02 1.874379e-02 0.9998 -3.1067 9.32)" class="st12" width="12.3" height="12.3"/>
		
			<rect id="XMLID_270_" x="533.5" y="163.4" transform="matrix(0.9998 -1.874379e-02 1.874379e-02 0.9998 -3.0835 10.1436)" class="st12" width="12.3" height="12.3"/>
		<line id="XMLID_269_" class="st3" x1="495.5" y1="116.7" x2="495.8" y2="134.4"/>
		
			<rect id="XMLID_268_" x="444.6" y="216.2" transform="matrix(0.9998 -1.874379e-02 1.874379e-02 0.9998 -3.9822 11.0208)" class="st1" width="282.7" height="3.5"/>
		<path id="XMLID_267_" class="st0" d="M435.7,222.5"/>
		<polygon id="XMLID_266_" class="st11" points="513,217.6 440.2,134.3 441.8,218.9 		"/>
		
			<rect id="XMLID_263_" x="294.2" y="164.8" transform="matrix(0.9998 -1.874379e-02 1.874379e-02 0.9998 -3.3994 5.7921)" class="st4" width="26.1" height="38.9"/>
		
			<rect id="XMLID_260_" x="330.3" y="164.1" transform="matrix(0.9998 -1.874379e-02 1.874379e-02 0.9998 -3.3804 6.4682)" class="st4" width="26.1" height="38.9"/>
		
			<rect id="XMLID_257_" x="293.7" y="149.2" transform="matrix(0.9998 -1.874379e-02 1.874379e-02 0.9998 -2.835 5.7762)" class="st2" width="26.1" height="9.9"/>
		
			<rect id="XMLID_254_" x="329.7" y="148.5" transform="matrix(0.9998 -1.874379e-02 1.874379e-02 0.9998 -2.8159 6.4523)" class="st2" width="26.1" height="9.9"/>
	</g>
	<g id="XMLID_222_">
		<g id="XMLID_234_">
			<polygon id="XMLID_252_" class="st13" points="325.4,190.3 312.6,190.6 273.7,192.2 274.6,197.5 334.7,197 331.6,191.7 			"/>
			<polygon id="XMLID_251_" class="st14" points="323.9,107.5 325.4,190.3 331.6,191.7 331.6,191.7 330,105.8 			"/>
			<g id="XMLID_248_">
				<polygon id="XMLID_44_" class="st15" points="310.7,92.9 311,109.7 329.8,110.5 331.3,192 312.6,192.7 313.2,224.8 444.6,222.3 
					442.1,90.5 				"/>
			</g>
			<g id="XMLID_245_">
				<polygon id="XMLID_42_" class="st15" points="278.1,194.1 276.5,108.2 311,109.7 310.7,92.9 310.7,92.9 264.6,88.7 267.1,225.6 
					313.2,224.8 312.6,192.7 				"/>
			</g>
			<polygon id="XMLID_244_" class="st16" points="278.1,194.1 276.5,108.2 311,109.7 310.7,92.9 310.7,92.9 264.6,88.7 267.1,225.6 
				313.2,224.8 312.6,192.7 			"/>
			<polygon id="XMLID_243_" class="st14" points="258.5,91.4 261,223.4 267.1,225.6 267.1,225.6 264.6,88.7 			"/>
			<line id="XMLID_242_" class="st17" x1="329.7" y1="92.6" x2="332.2" y2="224.4"/>
			<line id="XMLID_241_" class="st17" x1="385.9" y1="91.5" x2="388.4" y2="223.4"/>
			<line id="XMLID_240_" class="st17" x1="442.1" y1="90.5" x2="444.6" y2="222.3"/>
			<line id="XMLID_239_" class="st17" x1="357.8" y1="92.1" x2="360.3" y2="223.9"/>
			<line id="XMLID_238_" class="st17" x1="414" y1="91" x2="416.5" y2="222.8"/>
			<line id="XMLID_237_" class="st17" x1="330.3" y1="122.3" x2="442.7" y2="120.2"/>
			<line id="XMLID_236_" class="st17" x1="331.6" y1="191.7" x2="444" y2="189.6"/>
			<line id="XMLID_235_" class="st17" x1="330.9" y1="157" x2="443.4" y2="154.9"/>
		</g>
		
			<rect id="XMLID_233_" x="308.9" y="118.4" transform="matrix(0.9998 -1.874379e-02 1.874379e-02 0.9998 -2.3154 7.5621)" class="st0" width="186.8" height="17.8"/>
		<line id="XMLID_232_" class="st3" x1="308.7" y1="120.2" x2="309" y2="137.9"/>
		<line id="XMLID_231_" class="st3" x1="346.1" y1="119.5" x2="346.4" y2="137.2"/>
		<line id="XMLID_230_" class="st3" x1="383.4" y1="118.8" x2="383.7" y2="136.5"/>
		<line id="XMLID_229_" class="st3" x1="420.8" y1="118.1" x2="421.1" y2="135.8"/>
		<line id="XMLID_228_" class="st3" x1="458.1" y1="117.4" x2="458.5" y2="135.1"/>
		<polygon id="XMLID_227_" class="st18" points="309,137.9 317.6,154.7 324.8,154.5 324.5,137.6 		"/>
		<polygon id="XMLID_226_" class="st18" points="443,135.4 495.8,134.4 450.8,148.4 443.2,148.5 		"/>
		<polygon id="XMLID_225_" class="st19" points="324.5,139.6 443.3,152.3 443,135.4 324.5,137.6 		"/>
		<polyline id="XMLID_224_" class="st20" points="309,137.9 317.6,154.7 324.8,154.5 		"/>
		<polyline id="XMLID_223_" class="st20" points="443.2,148.5 450.8,148.4 495.8,134.4 		"/>
	</g>
	<polygon id="XMLID_221_" class="st11" points="539.9,130.7 516.1,91.7 516.9,131.1 	"/>
	<g id="XMLID_208_">
		
			<rect id="XMLID_218_" x="791.8" y="9.2" transform="matrix(0.9998 -1.874379e-02 1.874379e-02 0.9998 -0.3066 15.3041)" class="st2" width="49" height="29.6"/>
		
			<rect id="XMLID_215_" x="792.4" y="41.3" transform="matrix(0.9998 -1.874379e-02 1.874379e-02 0.9998 -0.9084 15.321)" class="st4" width="49" height="29.6"/>
		
			<rect id="XMLID_212_" x="793" y="73.4" transform="matrix(0.9998 -1.874379e-02 1.874379e-02 0.9998 -1.5102 15.338)" class="st2" width="49" height="29.6"/>
		
			<rect id="XMLID_209_" x="793.6" y="105.6" transform="matrix(0.9998 -1.874379e-02 1.874379e-02 0.9998 -2.1121 15.3549)" class="st4" width="49" height="29.6"/>
	</g>
	
		<rect id="XMLID_207_" x="828" y="115.7" transform="matrix(0.9998 -1.874379e-02 1.874379e-02 0.9998 -2.8943 17.4454)" class="st0" width="202.3" height="94.9"/>
	<polygon id="XMLID_206_" class="st8" points="829.3,219.9 791,212.1 789.6,126.7 827.6,117.5 	"/>
	<line id="XMLID_205_" class="st3" x1="694.1" y1="41.1" x2="947.7" y2="36.3"/>
	<line id="XMLID_204_" class="st3" x1="694.7" y1="73.1" x2="948.3" y2="68.3"/>
	<line id="XMLID_203_" class="st3" x1="695.3" y1="105.5" x2="948.9" y2="100.7"/>
	
		<rect id="XMLID_200_" x="856.6" y="146.5" transform="matrix(0.9998 -1.874379e-02 1.874379e-02 0.9998 -2.9106 16.2916)" class="st4" width="22" height="33.8"/>
	
		<rect id="XMLID_197_" x="881.3" y="146" transform="matrix(0.9998 -1.874379e-02 1.874379e-02 0.9998 -2.8977 16.753)" class="st4" width="22" height="33.8"/>
	
		<rect id="XMLID_194_" x="905.9" y="145.6" transform="matrix(0.9998 -1.874379e-02 1.874379e-02 0.9998 -2.8847 17.2143)" class="st4" width="22" height="33.8"/>
	
		<rect id="XMLID_191_" x="930.5" y="145.1" transform="matrix(0.9998 -1.874379e-02 1.874379e-02 0.9998 -2.8717 17.6756)" class="st4" width="22" height="33.8"/>
	
		<rect id="XMLID_188_" x="955.1" y="144.7" transform="matrix(0.9998 -1.874379e-02 1.874379e-02 0.9998 -2.8587 18.1369)" class="st4" width="22" height="33.8"/>
	
		<rect id="XMLID_185_" x="979.7" y="144.2" transform="matrix(0.9998 -1.874379e-02 1.874379e-02 0.9998 -2.8458 18.5982)" class="st4" width="22" height="33.8"/>
	<line id="XMLID_184_" class="st3" x1="828" y1="147.2" x2="1030" y2="143.4"/>
	<line id="XMLID_183_" class="st3" x1="828.7" y1="181.1" x2="1030.6" y2="177.3"/>
	
		<rect id="XMLID_180_" x="62.3" y="47.7" transform="matrix(0.9998 -1.874379e-02 1.874379e-02 0.9998 -1.1666 1.6579)" class="st4" width="51.2" height="30.8"/>
	
		<rect id="XMLID_177_" x="126.5" y="46.6" transform="matrix(0.9998 -1.874379e-02 1.874379e-02 0.9998 -1.1358 2.75)" class="st4" width="39.3" height="30.8"/>
	
		<rect id="XMLID_174_" x="63.4" y="108.9" transform="matrix(0.9998 -1.874379e-02 1.874379e-02 0.9998 -2.3141 1.6901)" class="st4" width="51.2" height="30.8"/>
	
		<rect id="XMLID_171_" x="127.6" y="107.8" transform="matrix(0.9998 -1.874379e-02 1.874379e-02 0.9998 -2.2834 2.7823)" class="st4" width="39.3" height="30.8"/>
	
		<rect id="XMLID_170_" x="114.8" y="19.9" transform="matrix(0.9998 -1.874379e-02 1.874379e-02 0.9998 -2.5077 2.2869)" class="st0" width="11.9" height="230.1"/>
	
		<rect id="XMLID_168_" x="62.5" y="75.8" transform="matrix(0.9998 -1.874379e-02 1.874379e-02 0.9998 -1.4213 2.1557)" class="st0" width="103.5" height="2.1"/>
	
		<rect id="XMLID_134_" x="61.9" y="45.1" transform="matrix(0.9998 -1.874379e-02 1.874379e-02 0.9998 -0.8446 2.1395)" class="st0" width="103.5" height="2.1"/>
	
		<rect id="XMLID_132_" x="63.7" y="137" transform="matrix(0.9998 -1.874379e-02 1.874379e-02 0.9998 -2.5677 2.188)" class="st0" width="103.5" height="2.1"/>
	
		<rect id="XMLID_102_" x="63.1" y="106.2" transform="matrix(0.9998 -1.874379e-02 1.874379e-02 0.9998 -1.9909 2.1717)" class="st0" width="103.5" height="2.1"/>
	
		<rect id="XMLID_101_" x="64.8" y="199.8" transform="matrix(0.9998 -1.874379e-02 1.874379e-02 0.9998 -3.7442 2.2211)" class="st0" width="103.5" height="2.1"/>
	
		<rect id="XMLID_100_" x="64.3" y="169" transform="matrix(0.9998 -1.874379e-02 1.874379e-02 0.9998 -3.1675 2.2048)" class="st0" width="103.5" height="2.1"/>
</g>
</svg>
