<?xml version="1.0" encoding="utf-8"?>
<!-- Generator: Adobe Illustrator 19.0.0, SVG Export Plug-In . SVG Version: 6.00 Build 0)  -->
<svg version="1.1" id="Layer_1" xmlns="http://www.w3.org/2000/svg" xmlns:xlink="http://www.w3.org/1999/xlink" x="0px" y="0px"
	 viewBox="0 0 1922.8 218.4" style="enable-background:new 0 0 1922.8 218.4;" xml:space="preserve">
<style type="text/css">
	.st0{fill:#69A447;}
	.st1{fill:#93C53F;}
	.st2{fill:#532C18;}
	.st3{fill:none;stroke:#FFFFFF;stroke-width:4;stroke-miterlimit:10;stroke-dasharray:25,20;}
	.st4{opacity:0.66;fill:#FFFFFF;}
</style>
<rect id="XMLID_177_" x="2.8" y="112.9" class="st0" width="1920" height="105.5"/>
<g id="XMLID_132_">
	<path id="XMLID_176_" class="st0" d="M1628.4,112.9c-140.2,28.2-276.9,59.5-408,94.2h303.9c99-33.4,201.6-64.8,307.2-94.2H1628.4z"
		/>
	<path id="XMLID_175_" class="st0" d="M2.8,112.9v11.7c13.8-3.9,27.6-7.8,41.5-11.7H2.8z"/>
	<path id="XMLID_174_" class="st0" d="M1032.7,112.9c-140.2,28.2-276.9,59.5-408,94.2h303.9c99-33.4,201.6-64.8,307.2-94.2H1032.7z"
		/>
	<path id="XMLID_173_" class="st0" d="M1922.8,179.8c-36,8.8-71.5,17.9-106.7,27.2h106.7V179.8z"/>
	<path id="XMLID_172_" class="st0" d="M436.9,112.9C296.7,141.1,160,172.3,28.9,207h303.9c99-33.4,201.6-64.8,307.2-94.2H436.9z"/>
	<path id="XMLID_171_" class="st1" d="M44.4,112.9c-13.9,3.9-27.7,7.7-41.5,11.7V207h26.1c131.1-34.7,267.8-65.9,408-94.2H44.4z"/>
	<path id="XMLID_170_" class="st1" d="M640.1,112.9c-105.7,29.3-208.2,60.7-307.2,94.2h291.8c131.1-34.7,267.8-65.9,408-94.2H640.1z
		"/>
	<path id="XMLID_168_" class="st1" d="M1235.8,112.9c-105.7,29.3-208.2,60.7-307.2,94.2h291.8c131.1-34.7,267.8-65.9,408-94.2
		H1235.8z"/>
	<path id="XMLID_134_" class="st1" d="M1922.8,112.9h-91.3c-105.7,29.3-208.2,60.7-307.2,94.2h291.8c35.2-9.3,70.8-18.4,106.7-27.2
		V112.9z"/>
</g>
<g id="XMLID_99_">
	<path id="XMLID_102_" class="st2" d="M1920.2,56.4C1626.4,19.5,1299.3,0,960.2,0S294.1,19.5,0.2,56.4v125.8
		c52.4-6.8,106.1-13,161.2-18.7c252.9-26.1,521.7-39.4,798.8-39.4s546,13.2,798.8,39.4c55,5.7,108.8,11.9,161.2,18.7V56.4z"/>
	<path id="XMLID_101_" class="st3" d="M1920.2,119.3c-293.9-36.9-621-56.4-960-56.4s-666.1,19.5-960,56.4"/>
	<path id="XMLID_100_" class="st4" d="M8.2,64.3c144.6-18,297.8-31.8,455.5-41.1C625.3,13.6,792.3,8.8,960.2,8.8
		s334.9,4.8,496.5,14.4c157.7,9.3,310.9,23.1,455.5,41.1c0,0,4.8,1.2,8,1.1l0-8.2c-293.9-36.9-621-56.4-960-56.4
		S294.1,20.3,0.2,57.2v8.2C1.5,65.1,8.2,64.3,8.2,64.3z"/>
</g>
</svg>
