<?xml version="1.0" encoding="utf-8"?>
<!-- Generator: Adobe Illustrator 19.0.0, SVG Export Plug-In . SVG Version: 6.00 Build 0)  -->
<svg version="1.1" id="Layer_1" xmlns="http://www.w3.org/2000/svg" xmlns:xlink="http://www.w3.org/1999/xlink" x="0px" y="0px"
	 viewBox="0 0 774.8 305.1" style="enable-background:new 0 0 774.8 305.1;" xml:space="preserve">
<style type="text/css">
	.st0{fill:#85B840;}
	.st1{fill:#FFCA31;}
	.st2{fill:#56C4CD;}
	.st3{fill:#D3137E;}
	.st4{fill:#E63252;}
	.st5{fill:#F9CED7;}
	.st6{fill:#00967B;}
	.st7{fill:#FFFFFF;}
	.st8{fill:#BAD551;}
	.st9{fill:#E3EEC4;}
	.st10{fill:#221F1F;}
	.st11{fill:#C8202A;}
	.st12{font-family:'Gotham-Medium';}
	.st13{font-size:44.3056px;}
	.st14{letter-spacing:11;}
</style>
<g id="XMLID_99_">
	<g id="XMLID_206_">
		<path id="XMLID_250_" class="st0" d="M198.8,33.5c-5.2,11.5-17.7,18.6-30.8,16.7c-13-1.9-22.8-12.1-24.7-24.4
			c-21.6,1.8-42.1,9-59.6,20.5L101.6,70C120.7,58,144,52.5,168,56c23.6,3.4,44,15,58.8,31.5l24-17.7
			C237.1,53.7,219.3,41.1,198.8,33.5"/>
		<path id="XMLID_249_" class="st0" d="M169.1,42.8c9.5,1.4,18.5-3.6,22.6-11.8c1-2,1.7-4.1,2-6.4c1.7-11.8-6.5-22.7-18.3-24.4
			c-11.9-1.7-22.9,6.4-24.6,18.2c-0.4,2.4-0.3,4.7,0.1,7C152.6,34.2,159.7,41.4,169.1,42.8"/>
		<path id="XMLID_248_" class="st1" d="M255.3,169c0.1-0.8,0.1-1.6,0.2-2.3c0.1-0.8,0.3-1.5,0.5-2.3c2.4-10.4,10.3-18.3,20.1-21.2
			c1.6-0.5,3.3-0.8,5-1c-1.7-21.4-8.9-41.7-20.3-59.1l-24,17.7c11.8,18.8,17.3,41.7,13.8,65.3c-2.1,14-7.1,26.8-14.2,37.9
			c-5.1,7.9-11.3,15-18.4,21.1l1.1,1.4l3.9,5.2l12.9,17.1c16.3-13.5,29.2-31.1,37.1-51.3c-1.6-0.7-3.1-1.5-4.5-2.4
			C259.8,189.5,254.6,179.6,255.3,169"/>
		<path id="XMLID_247_" class="st1" d="M287.5,149.6c-0.3,0-0.7-0.1-1-0.1c-1.7-0.2-3.4-0.1-5.1,0.1c-1.8,0.2-3.5,0.7-5.1,1.3
			c-6.9,2.8-12.3,9-13.4,16.8c-1.2,7.9,2.1,15.3,8,19.9c1.4,1.1,2.9,2,4.5,2.7c1.5,0.7,3.1,1.2,4.9,1.5c0.3,0.1,0.7,0.1,1,0.2
			c11.9,1.7,22.9-6.4,24.6-18.2C307.6,162.2,299.4,151.3,287.5,149.6"/>
		<path id="XMLID_246_" class="st2" d="M81.6,218.1c-0.1-0.1-0.1-0.1-0.2-0.2l-1,0.7c0.2,0.2,0.3,0.3,0.5,0.6
			C81.1,218.9,81.4,218.5,81.6,218.1"/>
		<path id="XMLID_245_" class="st2" d="M79.9,220.9c-0.1,0.1-0.1,0.2-0.1,0.2C79.9,221.2,79.9,221.1,79.9,220.9"/>
		<path id="XMLID_244_" class="st2" d="M80.9,219.2c-0.2-0.2-0.4-0.4-0.5-0.6l-0.7,0.6c0.1,0.6,0.3,1.4,0.3,1.7
			C80.1,220.6,80.4,220,80.9,219.2"/>
		<path id="XMLID_243_" class="st2" d="M208.6,237.9l-1.6-2.2c-11.6,7.2-24.8,12-38.8,13.8c-7.3,1-14.8,1.1-22.4,0.4
			c-1.8-0.2-3.5-0.4-5.3-0.7c-23.5-3.6-43.7-15.3-58.3-31.7c-0.3,0.4-0.5,0.7-0.7,1.1c-0.5,0.8-0.9,1.4-1,1.7c0,0.2,0,0.3-0.1,0.2
			c0,0,0.1-0.1,0.1-0.2c0-0.4-0.1-1.1-0.3-1.7l-22.4,16.3c12.5,14.8,28.5,26.8,46.9,34.7c1.6,0.7,3.1,1.3,4.7,1.9
			c0.7-1.6,1.6-3,2.6-4.4c6.2-8.7,17-13.8,28.4-12c11.2,1.7,19.9,9.6,23.3,19.6c0.5,1.6,1,3.3,1.2,5c1.7-0.1,3.4-0.3,5.1-0.5
			c19.8-2.3,38.4-9.1,54.7-19.5L208.6,237.9z"/>
		<path id="XMLID_242_" class="st2" d="M155.7,274.9c-2.9-6.4-8.9-11.3-16.5-12.5c-7.6-1.2-15,1.8-19.7,7.2c-1.2,1.3-2.2,2.8-3,4.4
			c-0.8,1.5-1.3,3.1-1.7,4.7c-0.1,0.5-0.3,1.1-0.3,1.7c-1.8,11.7,6.3,22.7,18.1,24.5c11.8,1.8,22.9-6.2,24.7-18
			c0.1-0.7,0.2-1.3,0.2-2c0.1-1.7,0-3.4-0.3-5C156.9,278.2,156.4,276.5,155.7,274.9"/>
		<path id="XMLID_241_" class="st3" d="M88.6,80.4L70.7,56.5C55,69.8,42.4,87,34.6,106.7c1.6,0.8,3.1,1.7,4.4,2.7
			c8.4,6.2,13.2,16.6,11.6,27.5c-1.6,11.1-9.5,19.8-19.5,23.2c-1.6,0.6-3.3,1-5,1.2c1.5,22.1,8.8,42.9,20.6,60.8l24-17.7
			c-12-18.9-17.6-42.1-14-65.9C60.2,115.2,71.9,94.9,88.6,80.4"/>
		<path id="XMLID_240_" class="st3" d="M43.1,135.8c1.1-7.3-1.7-14.3-6.8-18.9c-1.3-1.2-2.8-2.2-4.4-3.1c-1.5-0.8-3.1-1.4-4.7-1.9
			c-0.8-0.2-1.6-0.4-2.5-0.5C13,109.7,2,117.9,0.2,129.6c-1.7,11.8,6.5,22.7,18.3,24.4c0.7,0.1,1.5,0.2,2.2,0.2
			c1.7,0.1,3.4-0.1,5.1-0.4c1.8-0.3,3.5-0.9,5.1-1.6C37.3,149.2,42,143.3,43.1,135.8"/>
		<path id="XMLID_239_" class="st4" d="M232.3,197.5v-85h-36.5v58.1l17,17l-9.4,8.3v31.4C214.2,219.8,225.7,208.7,232.3,197.5"/>
		<rect id="XMLID_238_" x="203.8" y="138" class="st5" width="8.9" height="12"/>
		<rect id="XMLID_237_" x="215.5" y="138" class="st5" width="8.9" height="12"/>
		<rect id="XMLID_236_" x="203.8" y="123.4" class="st5" width="8.9" height="12"/>
		<rect id="XMLID_235_" x="215.5" y="123.4" class="st5" width="8.9" height="12"/>
		<rect id="XMLID_234_" x="203.8" y="152.7" class="st5" width="8.9" height="12"/>
		<rect id="XMLID_233_" x="215.5" y="152.7" class="st5" width="8.9" height="12"/>
		<polygon id="XMLID_232_" class="st5" points="203.8,178.6 204.7,179.5 212.7,179.5 212.7,167.5 203.8,167.5 		"/>
		<rect id="XMLID_231_" x="215.5" y="167.5" class="st5" width="8.9" height="12"/>
		<polygon id="XMLID_230_" class="st5" points="212.7,194.2 212.7,187.8 205.1,194.2 		"/>
		<polygon id="XMLID_229_" class="st5" points="212.7,187.4 212.7,182.3 207.5,182.3 		"/>
		<rect id="XMLID_228_" x="215.5" y="182.3" class="st5" width="8.9" height="12"/>
		<rect id="XMLID_227_" x="203.5" y="197" class="st5" width="9.2" height="12"/>
		<path id="XMLID_226_" class="st5" d="M224.3,208.9C224.3,208.9,224.3,209,224.3,208.9L224.3,208.9L224.3,208.9z"/>
		<path id="XMLID_225_" class="st5" d="M224.3,197h-8.9v12h8.8c0,0,0,0,0.1-0.1V197z"/>
		<path id="XMLID_224_" class="st2" d="M83.3,187.6c2.2-32.7,22.8-38.9,22.8-38.9c-14.9-12.7-10.6-25.6-10.6-25.6
			c-4.8-1.1-16.1-1.4-20.3,11.2c-4.4,18,11.9,22.2,11.9,22.2c-12.5,3.2-18.1,11.8-20.5,20.1c1.7,5.7,3.9,11.2,6.6,16.4
			c1.1-0.7,2.2-1.4,3.3-2.1C78.8,189.8,81.1,188.6,83.3,187.6"/>
		<path id="XMLID_223_" class="st2" d="M108.9,166.2c0-3.9,2.8-7,6.3-7c2.1,0,4,1.2,5.2,2.9c0.6,1,1,2.1,1.1,3.3h0.1l0-7.5l0-1.2
			l0-8.3l-0.2-43.7c-12.6,0.1-22.7,10.3-22.7,22.9c0.1,10.4,7.1,19.2,16.7,21.8c-15.1,2.7-25.1,13.8-28.6,36.7c11-4.4,22.8-6.1,35-5
			l0-3.9C120.8,175.4,108.9,173.7,108.9,166.2"/>
		<path id="XMLID_222_" class="st6" d="M149.7,191.6c-5.4-2.2-10.6-3.9-15.5-5.1c-23.5-5.7-42.2-0.5-56,7.4
			c-1.2,0.7-2.3,1.4-3.4,2.1c15,26.4,42.8,44.6,74.9,46l0-4.8L149.7,191.6z"/>
		<polygon id="XMLID_221_" class="st7" points="177,167.7 153.3,191.5 155.3,191.5 177.1,169.7 199.5,192.1 201.4,192.1 		"/>
		<path id="XMLID_220_" class="st8" d="M199.5,192.1l-22.4-22.4l-21.8,21.8l-1.4,1.4v49.3c0,0,0,0,0.1,0c16.9,0,32.8-4.6,46.3-12.7
			v-36.6L199.5,192.1z"/>
		<polygon id="XMLID_219_" class="st8" points="177,156.2 147,186.4 151.5,190.9 177,165.2 203,191.7 207.5,187.2 		"/>
		<path id="XMLID_218_" class="st9" d="M171.1,222.7v17.9c4.3-0.8,8.6-2,12.7-3.4v-14.5H171.1z"/>
		<rect id="XMLID_217_" x="161.6" y="195.4" class="st9" width="5.7" height="8.4"/>
		<rect id="XMLID_216_" x="168.1" y="195.4" class="st9" width="5.7" height="8.4"/>
		<rect id="XMLID_215_" x="161.6" y="204.7" class="st9" width="5.7" height="8.4"/>
		<rect id="XMLID_214_" x="168.1" y="204.7" class="st9" width="5.7" height="8.4"/>
		<rect id="XMLID_213_" x="179.9" y="195.4" class="st9" width="5.7" height="8.4"/>
		<rect id="XMLID_212_" x="186.4" y="195.4" class="st9" width="5.7" height="8.4"/>
		<rect id="XMLID_211_" x="179.9" y="204.7" class="st9" width="5.7" height="8.4"/>
		<rect id="XMLID_210_" x="186.4" y="204.7" class="st9" width="5.7" height="8.4"/>
		<path id="XMLID_209_" class="st6" d="M135.7,151.8c-0.5-0.2-1-0.4-1.6-0.6c-0.2-0.1-0.4-0.2-0.6-0.2c-0.6-0.2-1.3-0.5-1.9-0.6
			c-0.3-0.1-0.5-0.1-0.7-0.2c-0.7-0.2-1.5-0.4-2.3-0.5c-0.5-0.1-0.8-0.1-0.8-0.1c9.5-2.8,16.5-11.6,16.5-22
			c-0.1-12.6-10.3-22.7-22.9-22.7l0.2,43.7l0,8.3l0,1.2l0,7.5l0.1,0c0.1-1.2,0.4-2.2,1-3.2c0,0,0,0,0,0c0.6-0.9,1.3-1.7,2.2-2.2
			c0.9-0.6,1.9-0.9,3.1-0.9c3.5,0,6.4,3.1,6.4,6.9c0,7.5-11.8,9.3-12.7,11.2l0,3.9c4.4,0.4,8.8,1.1,13.3,2.2c3,0.7,5.8,1.6,8.7,2.5
			l11-11.3C153.9,172.1,148.9,157.9,135.7,151.8"/>
		<path id="XMLID_208_" class="st6" d="M128.5,149.5c0.8,0.1,1.5,0.3,2.3,0.5C129.8,149.8,129,149.6,128.5,149.5"/>
		<path id="XMLID_207_" class="st6" d="M133.9,151.1c-0.1,0-0.2-0.1-0.3-0.1c0,0-0.1,0-0.1,0c0.2,0.1,0.4,0.1,0.6,0.2
			C134,151.1,134,151.1,133.9,151.1"/>
	</g>
	<path id="XMLID_205_" class="st10" d="M366.7,180c-13.7,0-22.4-9.3-22.4-24.4c0-15.1,8.7-24.4,22.3-24.4c9.4,0,16.1,4,19,11.6
		l-7.3,3.2c-1.9-5.6-5.4-8.2-11.3-8.2c-8.8,0-14.7,6.5-14.7,17.8c0,11.2,5.4,17.8,14.4,17.8c6,0,10.4-3,12.2-9.1l7.3,2.4
		C383.4,175.4,376,180,366.7,180"/>
	<path id="XMLID_202_" class="st10" d="M428.8,161.3c0,11.7-6.7,18.7-17.9,18.7c-11.2,0-17.9-7-17.9-18.7c0-11.7,6.7-18.7,17.9-18.7
		C422.2,142.6,428.8,149.6,428.8,161.3 M400.8,161.3c0,8.1,3.7,12.7,10.1,12.7c6.5,0,10.2-4.5,10.2-12.7c0-8.1-3.7-12.6-10.2-12.6
		C404.5,148.6,400.8,153.2,400.8,161.3"/>
	<path id="XMLID_201_" class="st10" d="M495.3,156v23.3h-7.7v-22.1c0-5.9-3.2-8.3-7.4-8.3c-5,0-9.3,3.8-9.3,10.8v19.6h-7.7v-22.1
		c0-5.9-3.2-8.3-7.4-8.3c-4.3,0-9.3,3.2-9.3,11.2v19.1h-7.7v-35.9h6.8l0.4,6c2.5-4.5,7-6.7,11.6-6.7c5.2,0,9.9,2.3,12.1,7.2
		c2.3-4.9,7.5-7.2,12.4-7.2C488.9,142.6,495.3,146.8,495.3,156"/>
	<path id="XMLID_198_" class="st10" d="M542.2,161.2c0,11.8-6.1,18.8-15.9,18.8c-5.3,0-9.5-2.6-11.6-6.5v20.8h-7.7v-51h6.8l0.4,6.7
		c2.1-4.4,6.5-7.4,12.2-7.4C536,142.6,542.2,149.5,542.2,161.2 M534.5,161.3c0-7.8-3.7-12.5-9.9-12.5c-5.8,0-9.6,4.2-9.9,11.1v2.7
		c0.4,6.9,4.1,11.1,9.9,11.1C530.7,173.7,534.5,169.1,534.5,161.3"/>
	<path id="XMLID_195_" class="st10" d="M585.8,173.9l-0.5,5.2c-1.2,0.5-2.7,0.9-4.5,0.9c-4,0-6.5-1.4-7.3-5.3
		c-2.2,3.4-6.8,5.3-12.1,5.3c-6.8,0-11.7-3.2-11.7-9.4c0-5.5,4.6-9.6,14-11.3l9.1-1.6v-1.9c0-4.3-2.7-7.1-7.3-7.1
		c-4.5,0-7.8,1.9-9.3,6.5l-6-3.2c1.7-5.7,7.3-9.3,15.1-9.3c9,0,15.2,4.1,15.2,12.7v16.2c0,1.8,0.7,2.7,2.7,2.7
		C584.1,174.2,585,174.1,585.8,173.9 M572.8,167.3V163l-7.8,1.6c-4.9,0.9-7.3,2.6-7.3,5.5c0,2.7,2,4.1,5.4,4.1
		C567.8,174.1,572.8,171.6,572.8,167.3"/>
	<path id="XMLID_194_" class="st10" d="M590.1,172.4l5.2-4.5c1.9,4.3,6.1,6,11.1,6c5.1,0,7.7-1.9,7.7-4.3c0-2.2-2.1-3.5-8.3-4.7
		c-10.7-2-14.4-5.1-14.4-11.1c0-5.8,5.5-11.1,15.1-11.1c8,0,12.5,2.6,15.1,8.1l-5.6,4.2c-1.6-4.4-4.7-6.3-9.4-6.3
		c-4.5,0-7.5,2.2-7.5,4.4c0,2.6,2.1,4,8.8,5.2c10.3,1.9,13.9,5,13.9,10.9c0,6.3-5.8,10.9-15.7,10.9
		C599.1,180,593.1,177.7,590.1,172.4"/>
	<path id="XMLID_193_" class="st10" d="M628.1,172.4l5.2-4.5c1.9,4.3,6.1,6,11.1,6c5.1,0,7.7-1.9,7.7-4.3c0-2.2-2.1-3.5-8.3-4.7
		c-10.7-2-14.4-5.1-14.4-11.1c0-5.8,5.5-11.1,15.1-11.1c8,0,12.5,2.6,15.1,8.1l-5.6,4.2c-1.6-4.4-4.7-6.3-9.4-6.3
		c-4.5,0-7.5,2.2-7.5,4.4c0,2.6,2.1,4,8.8,5.2c10.3,1.9,13.9,5,13.9,10.9c0,6.3-5.8,10.9-15.7,10.9
		C637.1,180,631.1,177.7,628.1,172.4"/>
	<path id="XMLID_190_" class="st10" d="M667.8,132.5c0-3,1.9-4.7,5.2-4.7c3.3,0,5.1,1.7,5.1,4.7c0,3-1.8,4.8-5.1,4.8
		C669.7,137.3,667.8,135.5,667.8,132.5 M676.8,179.2h-7.7v-35.9h7.7V179.2z"/>
	<path id="XMLID_187_" class="st10" d="M722.6,161.3c0,11.7-6.7,18.7-17.9,18.7c-11.2,0-17.9-7-17.9-18.7c0-11.7,6.7-18.7,17.9-18.7
		C715.9,142.6,722.6,149.6,722.6,161.3 M694.5,161.3c0,8.1,3.7,12.7,10.1,12.7c6.5,0,10.2-4.5,10.2-12.7c0-8.1-3.7-12.6-10.2-12.6
		C698.2,148.6,694.5,153.2,694.5,161.3"/>
	<path id="XMLID_186_" class="st10" d="M765.3,156v23.3h-7.7v-20.8c0-7.1-3.3-9.5-7.7-9.5c-4.7,0-9.8,3-9.8,11.3v19h-7.7v-35.9h6.8
		l0.4,6c2.4-4.7,7-6.7,12.1-6.7C759.4,142.6,765.3,147,765.3,156"/>
	<path id="XMLID_185_" class="st10" d="M362.3,242.9c-9.9,0-16.1-6.7-16.1-17.6c0-10.9,6.3-17.6,16.1-17.6c6.8,0,11.6,2.8,13.7,8.4
		l-5.2,2.3c-1.3-4.1-3.9-5.9-8.1-5.9c-6.4,0-10.6,4.7-10.6,12.8c0,8.1,3.9,12.8,10.4,12.8c4.4,0,7.5-2.2,8.8-6.5l5.3,1.8
		C374.4,239.6,369,242.9,362.3,242.9"/>
	<path id="XMLID_182_" class="st10" d="M407.2,238.6l-0.4,3.7c-0.8,0.4-1.9,0.6-3.2,0.6c-2.9,0-4.7-1-5.3-3.8
		c-1.6,2.4-4.9,3.8-8.8,3.8c-4.9,0-8.5-2.3-8.5-6.8c0-4,3.3-7,10.1-8.1l6.6-1.1v-1.4c0-3.1-1.9-5.1-5.3-5.1c-3.2,0-5.6,1.4-6.7,4.7
		l-4.3-2.3c1.2-4.1,5.2-6.7,10.9-6.7c6.5,0,10.9,3,10.9,9.2v11.7c0,1.3,0.5,1.9,1.9,1.9C405.9,238.8,406.6,238.7,407.2,238.6
		 M397.8,233.8v-3.1l-5.7,1.1c-3.5,0.7-5.3,1.9-5.3,3.9c0,1.9,1.5,3,3.9,3C394.2,238.7,397.8,236.9,397.8,233.8"/>
	<path id="XMLID_181_" class="st10" d="M428.7,216.5l-0.9,5.1c-0.7-0.4-1.9-0.7-3.3-0.7c-3.1,0-6.5,2.5-6.5,7.8v13.8h-5.6v-25.9h4.7
		l0.5,4.7c1.4-3.4,4.2-5.2,8.2-5.2C426.9,215.9,428,216.1,428.7,216.5"/>
	<path id="XMLID_178_" class="st10" d="M456.2,231.5h-19c0.6,4.6,3.4,7,7.5,7c3.4,0,5.7-1.2,6.5-3.5l4.6,1.9c-1.9,3.8-5.5,6-11.2,6
		c-8.2,0-13-5-13-13.5c0-8.5,4.6-13.5,12.7-13.5c7.8,0,12,5.2,12,12.7C456.5,229.6,456.4,230.8,456.2,231.5 M437.3,227.3h14
		c-0.6-4.4-3-6.9-6.9-6.9C440.4,220.4,437.9,222.8,437.3,227.3"/>
	<path id="XMLID_177_" class="st10" d="M495.3,242.9c-9.9,0-16.1-6.7-16.1-17.6c0-10.9,6.3-17.6,16.1-17.6c6.8,0,11.6,2.8,13.7,8.4
		l-5.2,2.3c-1.3-4.1-3.9-5.9-8.1-5.9c-6.4,0-10.6,4.7-10.6,12.8c0,8.1,3.9,12.8,10.4,12.8c4.4,0,7.5-2.2,8.8-6.5l5.3,1.8
		C507.3,239.6,502,242.9,495.3,242.9"/>
	<path id="XMLID_174_" class="st10" d="M540.2,229.4c0,8.5-4.8,13.5-12.9,13.5s-12.9-5-12.9-13.5c0-8.5,4.8-13.5,12.9-13.5
		S540.2,221,540.2,229.4 M519.9,229.4c0,5.9,2.6,9.1,7.3,9.1c4.7,0,7.4-3.3,7.4-9.1c0-5.9-2.7-9.1-7.4-9.1
		C522.6,220.3,519.9,223.6,519.9,229.4"/>
	<path id="XMLID_173_" class="st10" d="M588.1,225.6v16.8h-5.6v-15.9c0-4.3-2.3-6-5.3-6c-3.6,0-6.7,2.8-6.7,7.8v14.1h-5.6v-15.9
		c0-4.3-2.3-6-5.3-6c-3.1,0-6.7,2.3-6.7,8.1v13.8h-5.6v-25.9h4.9l0.3,4.3c1.8-3.3,5-4.8,8.4-4.8c3.7,0,7.2,1.7,8.8,5.2
		c1.7-3.5,5.4-5.2,8.9-5.2C583.6,216,588.1,219,588.1,225.6"/>
	<path id="XMLID_172_" class="st10" d="M637.4,225.6v16.8h-5.6v-15.9c0-4.3-2.3-6-5.3-6c-3.6,0-6.7,2.8-6.7,7.8v14.1h-5.6v-15.9
		c0-4.3-2.3-6-5.3-6c-3.1,0-6.7,2.3-6.7,8.1v13.8h-5.6v-25.9h4.9l0.3,4.3c1.8-3.3,5-4.8,8.4-4.8c3.7,0,7.2,1.7,8.8,5.2
		c1.7-3.5,5.4-5.2,8.9-5.2C632.8,216,637.4,219,637.4,225.6"/>
	<path id="XMLID_171_" class="st10" d="M669.3,216.5v25.9h-4.9l-0.2-4.2c-1.8,3.3-5.1,4.7-9.2,4.7c-5.2,0-9.3-2.6-9.3-9.4v-17.1h5.6
		v15.6c0,4.8,2.1,6.3,5.3,6.3c3.9,0,7.3-2.4,7.3-7.9v-14H669.3z"/>
	<path id="XMLID_170_" class="st10" d="M701.7,225.6v16.8h-5.6v-15c0-5.1-2.4-6.9-5.6-6.9c-3.4,0-7.1,2.2-7.1,8.1v13.8H678v-25.9
		h4.9l0.3,4.3c1.8-3.4,5-4.8,8.8-4.8C697.4,216,701.7,219.1,701.7,225.6"/>
	<path id="XMLID_132_" class="st10" d="M709.2,208.6c0-2.2,1.3-3.4,3.7-3.4c2.4,0,3.7,1.2,3.7,3.4c0,2.2-1.3,3.5-3.7,3.5
		C710.5,212.1,709.2,210.8,709.2,208.6 M715.7,242.4h-5.6v-25.9h5.6V242.4z"/>
	<path id="XMLID_102_" class="st10" d="M741.1,240.7c-1.7,1.4-4.1,2.2-6.9,2.2c-4.5,0-7.9-2-7.9-7.4v-14.7h-4.9v-4.4h4.9v-6.1
		l5.6-1.6v7.6h9.1v4.4h-9.1v13.8c0,2.5,1.5,3.7,3.8,3.7c1.8,0,3.1-0.6,4.2-1.7L741.1,240.7z"/>
	<path id="XMLID_101_" class="st10" d="M758.3,245.5c-2.3,6-4.9,8.1-9.6,8.1c-2.7,0-4.6-0.6-6.1-2.1l1.6-4.3
		c1.2,1.5,2.6,1.9,4.3,1.9c1.9,0,3.4-0.7,4.5-3.7l1.1-2.8l-2.7-6.4l-8.1-19.7h6.2l5.7,16.3l1.5,4.9l1.8-5.3l5.4-15.8h5.8
		L758.3,245.5z"/>
	<text id="XMLID_100_" transform="matrix(1 0 0 1 346.1878 105.3478)" class="st11 st12 st13 st14">LEAMINGTON</text>
</g>
</svg>
