<?xml version="1.0" encoding="utf-8"?>
<!-- Generator: Adobe Illustrator 19.0.0, SVG Export Plug-In . SVG Version: 6.00 Build 0)  -->
<svg version="1.1" id="Layer_1" xmlns="http://www.w3.org/2000/svg" xmlns:xlink="http://www.w3.org/1999/xlink" x="0px" y="0px"
	 viewBox="0 0 697.7 696.7" style="enable-background:new 0 0 697.7 696.7;" xml:space="preserve">
<style type="text/css">
	.st0{fill:#06C9B6;}
	.st1{fill:#00A79D;}
	.st2{clip-path:url(#SVGID_2_);}
	.st3{fill:#2BB673;}
</style>
<g id="XMLID_42_">
	<g id="XMLID_81_">
		<g id="XMLID_96_">
			<path class="st0" d="M425.5,687.1c-2.3,0-4.4-1.1-5.8-2.9c-1.4-1.8-1.8-4.2-1.2-6.4c0.5-1.7,1.5-3.1,2.9-4l13.6-9.4
				c0.2-0.2,0.4-0.4,0.5-0.6l2.3-6.2c0-0.1,0.1-0.2,0.1-0.3l1.8-15.3c0.1-1.3,0.6-2.5,1.4-3.5l11-14.7c0.4-0.5,0.8-0.9,1.2-1.3
				l8.2-6.7c0.4-0.4,0.6-1,0.4-1.5l-4.6-11.4c-0.3-0.7-0.5-1.5-0.5-2.3l-1.9-30.2c-0.1-1.2,0.2-2.5,0.7-3.6l6.5-13.8
				c0.2-0.4,0.2-0.9-0.1-1.3l-9.5-14.7c-0.2-0.4-0.4-0.8-0.6-1.2l-4.1-9.9c-0.1-0.3-0.4-0.6-0.7-0.7l-19.1-7.3l-0.1,0l-45.3-13.8
				c-0.6-0.2-1.2-0.5-1.7-0.8l-15.1-9.4c-0.5-0.3-1-0.7-1.4-1.1l-26.4-27.4c-1.3-1.4-2-3.2-2-5.1v-11.9c0-0.4-0.2-0.9-0.6-1.1
				l-7-4.5c-2.1-1.3-3.4-3.6-3.4-6.2v-13.3c0-0.3-0.1-0.5-0.2-0.7l-1.2-1.8c-0.2-0.4-0.6-0.6-1.1-0.6c-0.2,0-0.4,0-0.6,0.1l-7.7,3.8
				c-1,0.5-2.1,0.8-3.2,0.8l-0.3,0c-24.6-0.9-35.2-30-37.8-38.9c-0.2-0.6-0.7-0.9-1.2-0.9l-33.5,1.8c-0.2,0-0.5,0.1-0.6,0.2
				l-21.7,14.2c-0.1,0-0.1,0.1-0.2,0.1l-23.5,21.6c-1.4,1.2-3.1,1.9-4.9,1.9h-40.2c-1.3,0-2.6-0.3-3.7-1l-8.5-4.9
				c-0.2-0.1-0.4-0.2-0.7-0.2c-0.2,0-0.5,0-0.8,0.3l-5.5,4.3c-1.3,1-2.9,1.5-4.5,1.5h-5.2c-1.5,0-2.9-0.4-4.1-1.3l-13.8-9.5
				c-0.2-0.1-0.5-0.2-0.7-0.2h-1.7c-2.4,0-4.7-1.2-6-3.1c-1.9-2.9-12.7-8.7-27.4-14.6c-0.2-0.1-0.3-0.1-0.5-0.1
				c-0.5,0-0.9,0.3-1.2,0.7l0,0.1c-1.2,2.5-3.7,4-6.5,4h-4.5c-1,0-1.9-0.2-2.8-0.6L21.3,389c-2.7-1.1-4.5-3.8-4.5-6.7v-19
				c0-0.6-0.4-1.1-0.9-1.2l-7.8-2.5c-3.2-1-5.3-4.1-5-7.4l10.6-160.2c0.1-2.1,1.2-4,2.9-5.3C53.2,158.8,158.1,31,178.7,5.7
				c1.4-1.7,3.5-2.7,5.7-2.7c1.7,0,3.3,0.6,4.6,1.7l19.2,15.7c0.6,0.5,1.1,1,1.5,1.7l13.5,20.7c0.2,0.3,0.6,0.5,1,0.6l8.1,0.7
				c0.9,0.1,1.7,0.3,2.5,0.7L287.2,70c0.2,0.1,0.4,0.1,0.6,0.1c0,0,68.2-0.9,68.2-0.9c3.7,0,6.8,2.8,7.2,6.4l3.5,29.7
				c0,0.1,0,0.2,0.1,0.3l7.7,22.3c0.1,0.3,0.2,0.6,0.3,1l4.7,23.7c0.2,1.1,0.2,2.2-0.1,3.3l-3,11.2c-0.1,0.5,0,1.1,0.5,1.4
				l21.2,15.9c0.5,0.4,1,0.8,1.3,1.3l14.1,17.8c0.1,0.2,0.3,0.3,0.4,0.4l12.2,6.1c1.1,0.5,2,1.4,2.7,2.4l14.5,20.8
				c0.2,0.3,0.4,0.4,0.7,0.5l9,2.4c0.1,0,0.2,0,0.3,0c0,0,0,0,0,0c0.5,0,1.1-0.4,1.3-1.1l0.7-3.9c0.5-2.6,2.3-4.8,4.9-5.6l1.9-0.6
				c0.8-0.2,1.5-0.4,2.3-0.4c3.5,0,6.6,2.5,7.2,6l32,181.1c0,0.2,0.1,0.4,0.2,0.5l3.9,5.4c0.6,0.9,1.1,2,1.3,3l0.6,3.6
				c0,0.3,0.2,0.5,0.4,0.7l29.6,27.8c0.2,0.2,0.6,0.4,0.9,0.4l27.8-0.9l0.2,0c0.5,0,0.9,0,1.3,0.1l14.1,2.6c1.6,0.3,3.1,1.2,4.2,2.4
				l3.7,4.3c0.2,0.3,0.6,0.5,1,0.5h7.2c2,0,3.8,0.8,5.2,2.1l11.7,11.7c0.2,0.2,0.5,0.3,0.8,0.4l23.4,2.6c0,0,0.1,0,0.1,0
				c0.3,0,0.7-0.1,0.9-0.4l22.3-22.3c1.4-1.4,3.2-2.1,5.2-2.1h13.3c3.8,0,7,2.9,7.3,6.7l0.5,6.2c0,0.4,0.2,0.7,0.5,0.9l0.8,0.7
				c2.7,2.1,3.5,5.9,2,9l-5.4,10.8c-1.1,2.3-3.3,3.7-5.8,4l-5.6,0.6c-0.4,0-0.7,0.3-1,0.6l-24.3,37.4c-0.6,0.9-1.4,1.7-2.3,2.3
				l-23.9,14.5c-0.5,0.3-0.8,1-0.5,1.6c2.1,5.2,2.4,9.1,0.8,11.7c-0.7,1.2-2.1,2.7-4.7,3c-7.2,1-9.5,1-22.1,1c-0.1,0-0.2,0-0.2,0
				c-42.4,6.9-59.2,30.9-64.4,40.8c-0.3,0.5-0.1,1,0,1.2c0.1,0.2,0.4,0.6,1,0.7c0.4,0,0.9,0.1,1.3,0.1c5.2,0,10.9-2.6,13.8-4.2
				c1.1-0.6,2.2-0.9,3.4-0.9c2.7,0,5.2,1.5,6.5,3.9l4.7,8.9c1.1,2.1,1.1,4.5,0.1,6.7c-1.1,2.1-3.1,3.6-5.4,4
				c-10.1,1.6-27.7,7.5-32.8,9.2c-0.3,0.1-0.5,0.2-0.6,0.5l-8.7,12.2c-0.6,0.8-1.3,1.5-2.2,2l-3.1,1.9c-1.1,0.7-2.4,1-3.8,1
				c-0.1,0-0.2,0-0.4,0c0,0-17.9-0.9-17.9-0.9c-0.2,0-0.3,0-0.5,0.1l-11.1,4c-0.4,0.1-0.7,0.5-0.8,0.9l-3.8,13.7
				c-0.6,2.3-2.3,4.1-4.5,4.9l-8,2.9c-0.2,0.1-0.3,0.2-0.5,0.3l-6.1,6.1c-1.4,1.4-3.2,2.1-5.2,2.1H425.5z"/>
		</g>
		<g id="XMLID_93_">
			<path class="st1" d="M184.4,6c1,0,1.9,0.3,2.7,1l19.2,15.7c0.3,0.3,0.6,0.6,0.9,1l13.5,20.7c0.7,1.1,1.9,1.8,3.2,1.9l8.2,0.7
				c0.5,0,1,0.2,1.5,0.4l52.4,25.2c0.6,0.3,1.2,0.4,1.9,0.4c0,0,0,0,0.1,0l68.1-0.9c0,0,0,0,0.1,0c2.2,0,4,1.6,4.3,3.8l3.5,29.7
				c0,0.3,0.1,0.6,0.2,0.9l7.7,22.3c0.1,0.2,0.1,0.4,0.2,0.6l4.7,23.7c0.1,0.6,0.1,1.3-0.1,2l-3,11.2c-0.5,1.7,0.2,3.5,1.6,4.5
				l21.2,15.9c0.3,0.2,0.6,0.5,0.8,0.8l14.1,17.8c0.4,0.5,0.9,0.9,1.5,1.2l12.2,6.1c0.6,0.3,1.2,0.8,1.6,1.4l14.5,20.8
				c0.6,0.8,1.4,1.4,2.4,1.7l9,2.4c0.4,0.1,0.7,0.1,1.1,0.1c2,0,3.8-1.4,4.2-3.5l0.7-3.9c0.3-1.5,1.4-2.8,2.9-3.3l1.9-0.6
				c0.5-0.2,0.9-0.2,1.4-0.2c2,0,3.9,1.4,4.2,3.6l32,181.1c0.1,0.6,0.4,1.2,0.7,1.8l3.9,5.4c0.4,0.5,0.6,1.1,0.7,1.8l0.6,3.6
				c0.2,0.9,0.6,1.8,1.3,2.4l29.6,27.8c0.8,0.7,1.9,1.2,2.9,1.2c0,0,0.1,0,0.1,0l27.7-0.9c0,0,0.1,0,0.1,0c0.3,0,0.5,0,0.8,0.1
				l14,2.6c1,0.2,1.8,0.7,2.5,1.4l3.7,4.3c0.8,1,2,1.5,3.3,1.5h7.2c1.1,0,2.2,0.5,3,1.3l11.7,11.7c0.7,0.7,1.6,1.1,2.6,1.2l23.4,2.6
				c0.2,0,0.3,0,0.5,0c1.1,0,2.2-0.4,3-1.3l22.3-22.3c0.8-0.8,1.9-1.3,3-1.3h13.3c2.2,0,4.1,1.7,4.3,3.9l0.5,6.2
				c0.1,1.2,0.7,2.3,1.6,3l0.8,0.7c1.6,1.3,2.1,3.5,1.2,5.3l-5.4,10.8c-0.7,1.3-2,2.2-3.4,2.4l-5.6,0.6c-1.3,0.1-2.5,0.8-3.2,1.9
				l-24.3,37.4c-0.4,0.5-0.8,1-1.4,1.3l-23.9,14.5c-1.8,1.1-2.5,3.3-1.7,5.3c1.6,3.9,3.2,10-1.5,10.7c-6.9,1-9,1-21.6,1
				c-0.2,0-0.5,0-0.7,0.1c-43.8,7.2-61.1,32.1-66.6,42.4c-1.4,2.7,0.4,6,3.4,6.3c0.5,0.1,1.1,0.1,1.6,0.1c5.6,0,11.5-2.6,15.2-4.6
				c0.6-0.3,1.3-0.5,2-0.5c1.5,0,3,0.8,3.8,2.3l4.7,8.9c1.4,2.6-0.3,5.8-3.2,6.3c-10.4,1.6-28.4,7.7-33.3,9.4
				c-0.8,0.3-1.6,0.8-2.1,1.6l-8.7,12.2c-0.3,0.5-0.8,0.9-1.3,1.2l-3.1,1.9c-0.7,0.4-1.4,0.6-2.2,0.6c-0.1,0-0.1,0-0.2,0l-17.8-0.9
				c-0.1,0-0.1,0-0.2,0c-0.5,0-1,0.1-1.4,0.3l-11.1,4c-1.3,0.5-2.3,1.6-2.7,2.9l-3.8,13.7c-0.4,1.3-1.4,2.4-2.7,2.9l-8,2.9
				c-0.6,0.2-1.1,0.6-1.6,1l-6.1,6.1c-0.8,0.8-1.9,1.3-3,1.3h-13.2h-11.3c-2.9,0-4.9-2.7-4.1-5.5l0,0c0.3-1,0.9-1.8,1.7-2.4
				l13.6-9.4c0.7-0.5,1.3-1.2,1.6-2l2.3-6.2c0.1-0.3,0.2-0.7,0.2-1l1.8-15.3c0.1-0.8,0.4-1.5,0.8-2.1l11-14.7
				c0.2-0.3,0.4-0.5,0.7-0.7l8.2-6.7c1.5-1.2,2-3.2,1.3-4.9l-4.6-11.4c-0.2-0.4-0.3-0.9-0.3-1.3l-1.9-30.2c0-0.7,0.1-1.4,0.4-2.1
				l6.5-13.8c0.6-1.3,0.5-2.9-0.3-4.2l-9.5-14.7c-0.1-0.2-0.3-0.4-0.4-0.7l-4.1-9.9c-0.5-1.1-1.3-1.9-2.4-2.4l-19.1-7.3
				c-0.1,0-0.2-0.1-0.3-0.1l-45.3-13.8c-0.4-0.1-0.7-0.3-1-0.5l-15.1-9.4c-0.3-0.2-0.6-0.4-0.8-0.7L340,463.4
				c-0.8-0.8-1.2-1.9-1.2-3v-11.9c0-1.5-0.8-2.8-2-3.6l-7-4.5c-1.2-0.8-2-2.2-2-3.6v-6.6v-6.7c0-0.8-0.3-1.7-0.7-2.4l-1.2-1.8
				c-0.8-1.2-2.2-1.9-3.6-1.9c-0.6,0-1.3,0.1-1.9,0.5l-7.7,3.8c-0.6,0.3-1.2,0.5-1.9,0.5c0,0-0.1,0-0.1,0
				c-22.3-0.8-32.2-27.3-35.1-36.7c-0.5-1.8-2.2-3.1-4.1-3.1c-0.1,0-0.2,0-0.2,0l-33.4,1.8c-0.8,0-1.5,0.3-2.1,0.7l-21.7,14.2
				c-0.2,0.1-0.4,0.3-0.6,0.4L190,421c-0.8,0.7-1.8,1.1-2.9,1.1h-40.2c-0.8,0-1.5-0.2-2.2-0.6l-8.5-4.9c-0.7-0.4-1.4-0.6-2.2-0.6
				c-0.9,0-1.9,0.3-2.6,0.9l-5.5,4.3c-0.8,0.6-1.7,0.9-2.6,0.9h-5.2c-0.9,0-1.7-0.3-2.4-0.8l-13.8-9.5c-0.7-0.5-1.6-0.8-2.4-0.8
				h-1.7c-1.4,0-2.7-0.6-3.5-1.8c-3.3-5-21-12.6-28.8-15.8c-0.5-0.2-1.1-0.3-1.6-0.3c-1.6,0-3.1,0.9-3.8,2.4l0,0.1
				c-0.7,1.5-2.2,2.4-3.8,2.4h-4.5c-0.6,0-1.1-0.1-1.7-0.3l-27.6-11.6c-1.6-0.7-2.6-2.2-2.6-4v-19c0-1.9-1.2-3.5-3-4.1L9,356.7
				c-1.9-0.6-3.1-2.4-3-4.4l10.6-160.2c0.1-1.2,0.7-2.4,1.7-3.1C55.5,160.8,162.6,30.2,181.1,7.6C181.9,6.5,183.2,6,184.4,6
				 M184.4,0c-3.1,0-6,1.4-8,3.8C163.8,19.3,51.9,156,14.7,184.2c-2.4,1.8-3.8,4.5-4,7.5L0,351.9c-0.3,4.7,2.6,9,7.1,10.5l6.6,2.1
				v17.8c0,4.2,2.5,7.9,6.3,9.5l27.6,11.6c1.3,0.5,2.6,0.8,4,0.8h4.5c3.4,0,6.5-1.7,8.5-4.4c17.2,7.1,23.7,11.6,24.7,13
				c1.8,2.8,5,4.4,8.5,4.4h1.2l13.4,9.2c1.7,1.2,3.7,1.8,5.8,1.8h5.2c2.3,0,4.5-0.8,6.3-2.2l4.6-3.6l7.5,4.4
				c1.6,0.9,3.4,1.4,5.2,1.4h40.2c2.6,0,5.1-1,7-2.7l23.4-21.5l21.2-13.8l31.6-1.7c1.7,5.3,5,14.1,10.7,22.1
				c7.9,11.1,18.1,17.3,29.5,17.7c0.1,0,0.2,0,0.4,0c1.6,0,3.1-0.4,4.6-1.1l6.3-3.2l0.1,0.1v6.2v6.6c0,3.5,1.8,6.8,4.8,8.7l6.2,4v11
				c0,2.7,1,5.2,2.9,7.2l26.4,27.4c0.6,0.6,1.2,1.1,2,1.6l15.1,9.4c0.8,0.5,1.6,0.9,2.5,1.1l45.3,13.8l18.4,7l3.9,9.3
				c0.2,0.6,0.5,1.1,0.9,1.6l9,13.9l-6.1,13c-0.7,1.6-1.1,3.3-1,5l1.9,30.2c0.1,1.1,0.3,2.2,0.7,3.2l4.1,10.3l-7.2,5.9
				c-0.6,0.5-1.2,1.1-1.7,1.8l-11,14.7c-1.1,1.5-1.8,3.2-2,5l-1.8,15.1l-2.1,5.6l-13.2,9.1c-2,1.4-3.4,3.4-4.1,5.7
				c-0.9,3.2-0.3,6.5,1.7,9.1c2,2.6,5,4.1,8.2,4.1h11.3H450c2.8,0,5.3-1.1,7.3-3l5.8-5.8l7.7-2.8c3.1-1.1,5.5-3.7,6.4-6.9l3.6-12.9
				l9.9-3.6l17.5,0.9c0.2,0,0.3,0,0.5,0c1.9,0,3.7-0.5,5.3-1.5l3.1-1.9c1.2-0.7,2.3-1.7,3.1-2.8l8.4-11.7
				c10.4-3.6,24.1-7.7,31.8-8.9c3.3-0.5,6.2-2.6,7.7-5.6c1.5-3,1.5-6.5-0.1-9.4l-4.7-8.9c-1.8-3.4-5.3-5.5-9.1-5.5
				c-1.7,0-3.4,0.4-4.9,1.2c-3.9,2.1-7.6,3.4-10.6,3.7c6.3-10.6,23-30.5,60.7-36.7c12.7,0,15,0,22.4-1.1c3-0.4,5.5-2,6.9-4.5
				c1.9-3.2,1.8-7.5-0.2-13l22.7-13.8c1.3-0.8,2.5-1.9,3.3-3.2l23.9-36.8l4.8-0.5c3.5-0.4,6.6-2.5,8.2-5.6l5.4-10.8
				c2.2-4.3,1-9.6-2.8-12.6l-0.3-0.2l-0.5-5.5c-0.4-5.3-5-9.4-10.3-9.4h-13.3c-2.8,0-5.3,1.1-7.3,3l-21.7,21.7l-22-2.4l-11.3-11.3
				c-1.9-1.9-4.5-3-7.3-3h-6.5l-3.2-3.8c-1.5-1.8-3.6-3-5.9-3.4l-14-2.6c-0.6-0.1-1.3-0.2-1.9-0.2c-0.1,0-0.2,0-0.3,0l-27,0.9
				l-28.7-26.9l-0.5-3c-0.3-1.5-0.9-3-1.8-4.3l-3.6-5.1L474.6,230c-0.9-4.9-5.1-8.5-10.1-8.5c-1.1,0-2.2,0.2-3.3,0.5l-1.9,0.6
				c-3.6,1.2-6.2,4.2-6.9,7.9l-0.4,2.1l-6.6-1.8l-14.1-20.3c-1-1.4-2.3-2.6-3.8-3.3l-11.8-5.9l-13.8-17.5c-0.6-0.7-1.2-1.3-1.9-1.9
				l-20.3-15.2l2.7-10.1c0.4-1.5,0.5-3.1,0.1-4.7l-4.7-23.7c-0.1-0.5-0.2-0.9-0.4-1.4l-7.7-22.1l-3.5-29.5c-0.6-5.2-5-9.1-10.2-9.1
				l-0.2,0l-67.7,0.9l-52-25c-1.1-0.5-2.3-0.9-3.5-1l-7.3-0.7l-13.1-20c-0.6-0.9-1.3-1.7-2.1-2.3L190.9,2.3
				C189.1,0.8,186.8,0,184.4,0L184.4,0z"/>
		</g>
	</g>
	<g id="XMLID_80_">
		<path id="XMLID_155_" class="st1" d="M136.3,419.1C136.3,419.1,136.3,419.1,136.3,419.1c-1.4,0-2.5-1.1-2.5-2.5l0.5-135.5
			c0-1.2,0.8-2.2,2-2.4l22.7-4.9l42.7-21.9c0.6-0.3,1.2-0.4,1.8-0.2l25,7c0.2,0,0.3,0.1,0.4,0.2l10.5,5.3l30.7-25.9
			c0.5-0.5,1.2-0.7,1.9-0.6l15,2c0.4,0,0.7,0.2,1,0.4l26.4,16.6h10.7l24.5-11.3l6.7-20c0.2-0.5,0.5-0.9,0.9-1.2l15-11
			c0.1-0.1,0.1-0.1,0.2-0.1l30.9-17.9c1.2-0.7,2.7-0.3,3.4,0.9c0.7,1.2,0.3,2.7-0.9,3.4l-30.8,17.9l-14.3,10.5l-6.7,20.2
			c-0.2,0.7-0.7,1.2-1.3,1.5l-26,12c-0.3,0.2-0.7,0.2-1,0.2h-12c-0.5,0-0.9-0.1-1.3-0.4l-26.5-16.7l-13.4-1.8L241.4,269
			c-0.8,0.6-1.8,0.8-2.7,0.3l-11.8-5.9l-23.8-6.7l-42.1,21.6c-0.2,0.1-0.4,0.2-0.6,0.2l-21,4.6l-0.5,133.5
			C138.8,418,137.7,419.1,136.3,419.1z"/>
	</g>
	<g id="XMLID_79_">
		<path id="XMLID_154_" class="st1" d="M136.3,378.6H44.8c-0.6,0-1.1-0.2-1.5-0.5l-12.6-9.7l-11.5-2.7c-1.3-0.3-2.2-1.7-1.9-3
			c0.3-1.3,1.7-2.2,3-1.9l12,2.9c0.3,0.1,0.7,0.2,0.9,0.5l12.3,9.5h90.7c1.4,0,2.5,1.1,2.5,2.5S137.7,378.6,136.3,378.6z"/>
	</g>
	<g id="XMLID_78_">
		<path id="XMLID_153_" class="st1" d="M320.4,420.3c-1.2,0-2.3-0.9-2.5-2.1l-14.3-92.6h-33.1c-1.3,0-2.4-1.1-2.5-2.4l-3.6-78.9
			c-0.1-1.4,1-2.5,2.4-2.6c1.4-0.1,2.5,1,2.6,2.4l3.5,76.5h32.9c1.2,0,2.3,0.9,2.5,2.1l14.6,94.7c0.2,1.4-0.7,2.6-2.1,2.9
			C320.6,420.3,320.5,420.3,320.4,420.3z"/>
	</g>
	<g id="XMLID_77_">
		<path id="XMLID_152_" class="st1" d="M395.8,384.6c-1.2,0-2.2-0.8-2.5-2l-4.6-25h-30.9c-1.4,0-2.5-1.1-2.5-2.5v-7.6h-22.5
			c-1.4,0-2.5-1.1-2.5-2.5v-11.5H307c-1.4,0-2.5-1.1-2.5-2.5s1.1-2.5,2.5-2.5h25.8c1.4,0,2.5,1.1,2.5,2.5v11.5h22.5
			c1.4,0,2.5,1.1,2.5,2.5v7.6h30.5c1.2,0,2.2,0.9,2.5,2l5,27c0.3,1.4-0.6,2.7-2,2.9C396.1,384.6,395.9,384.6,395.8,384.6z"/>
	</g>
	<g id="XMLID_76_">
		<path id="XMLID_151_" class="st1" d="M424.5,491c-0.1,0-0.1,0-0.2,0c-1.4-0.1-2.4-1.3-2.3-2.7l2.5-37.7h-18
			c-1.2,0-2.3-0.9-2.5-2.1l-1.3-8.3l-40.2,5.3c-1.3,0.2-2.6-0.7-2.8-2l-10.3-58.3c-0.1-0.7,0.1-1.4,0.5-2c0.4-0.6,1.1-0.9,1.8-1
			l69.7-4.7c1.4-0.1,2.6,0.9,2.7,2.3l0.8,11.3l23.9-0.9c1.2,0,2.4,0.9,2.6,2.1l4.7,31l25-2.1c0.1,0,0.2,0,0.3,0l25.4,0.9
			c1.4,0,2.5,1.2,2.4,2.6c0,1.4-1.2,2.5-2.6,2.4l-25.3-0.9l-27.2,2.3c-1.3,0.1-2.5-0.8-2.7-2.1l-4.7-31.1l-24.1,0.9
			c-1.4,0-2.5-1-2.6-2.3l-0.8-11.2l-64.4,4.3l9.4,53.2l40.2-5.4c1.3-0.2,2.6,0.7,2.8,2.1l1.4,8.6h18.5c0.7,0,1.4,0.3,1.8,0.8
			c0.5,0.5,0.7,1.2,0.7,1.9l-2.7,40.3C426.9,490,425.8,491,424.5,491z"/>
	</g>
	<g id="XMLID_75_">
		<path id="XMLID_150_" class="st1" d="M540.8,503.6c-0.8,0-1.7-0.4-2.1-1.2l-20.2-33.2l-28,11.5c-0.7,0.3-1.5,0.2-2.2-0.1
			c-0.7-0.4-1.1-1-1.2-1.8l-8.3-54.7c-0.2-1.4,0.7-2.6,2.1-2.8c1.4-0.2,2.6,0.7,2.8,2.1l7.9,51.5l27.1-11.1c1.1-0.5,2.4,0,3.1,1
			l20.1,33l17.9-9.3c1.2-0.6,2.6-0.2,3.3,0.9l5.2,8.5l6.1-2.7l-0.6-14c0-1,0.6-2,1.5-2.4l6.7-2.9l-11.7-18.9
			c-0.7-1.2-0.4-2.7,0.8-3.4c1.2-0.7,2.7-0.4,3.4,0.8l13.3,21.4c0.4,0.6,0.5,1.4,0.3,2.1c-0.2,0.7-0.7,1.3-1.4,1.5l-7.7,3.3
			l0.6,13.9c0,1-0.5,2-1.5,2.4l-9.7,4.3c-1.1,0.5-2.5,0.1-3.2-1l-5.1-8.4l-17.9,9.3C541.6,503.5,541.2,503.6,540.8,503.6z"/>
	</g>
	<g id="XMLID_74_">
		<path id="XMLID_149_" class="st1" d="M510.1,555.6h-18c-0.5,0-0.9-0.1-1.3-0.4l-40.5-25.6c-1.2-0.7-1.5-2.3-0.8-3.4
			c0.7-1.2,2.3-1.5,3.4-0.8l39.9,25.2h15.3l3.3-13.4l-2.9-8.1L470.1,491l-103.6,2.3c0,0,0,0-0.1,0c-1.4,0-2.5-1.1-2.5-2.4
			c0-1.4,1.1-2.5,2.4-2.6l104.7-2.3c0.7,0,1.3,0.2,1.8,0.7l39.7,39.3c0.3,0.3,0.5,0.6,0.6,0.9l3.3,9.3c0.2,0.5,0.2,1,0.1,1.4l-4,16
			C512.3,554.9,511.3,555.6,510.1,555.6z"/>
	</g>
	<g id="XMLID_73_">
		<path id="XMLID_148_" class="st1" d="M507.9,527.5c-0.7,0-1.3-0.3-1.8-0.8c-1-1-0.9-2.6,0.1-3.5l29.9-28.7c1-1,2.6-0.9,3.5,0.1
			c1,1,0.9,2.6-0.1,3.5l-29.9,28.7C509.2,527.2,508.6,527.5,507.9,527.5z"/>
	</g>
	<g id="XMLID_72_">
		<path id="XMLID_147_" class="st1" d="M475.5,495.3c-0.6,0-1.3-0.2-1.7-0.7c-1-1-1-2.5,0-3.5l14-14.3c1-1,2.5-1,3.5,0
			c1,1,1,2.5,0,3.5l-14,14.3C476.8,495,476.1,495.3,475.5,495.3z"/>
	</g>
	<g id="XMLID_71_">
		<path id="XMLID_146_" class="st1" d="M622.1,550.6c-0.8,0-1.5-0.3-2-1l-45.7-61c-0.8-1.1-0.6-2.7,0.5-3.5c1.1-0.8,2.7-0.6,3.5,0.5
			l45.7,61c0.8,1.1,0.6,2.7-0.5,3.5C623.1,550.5,622.6,550.6,622.1,550.6z"/>
	</g>
	<g id="XMLID_70_">
		<path id="XMLID_145_" class="st1" d="M606.1,564.6c-0.8,0-1.6-0.4-2.1-1.2l-39-61c-0.7-1.2-0.4-2.7,0.8-3.5
			c1.2-0.7,2.7-0.4,3.5,0.8l39,61c0.7,1.2,0.4,2.7-0.8,3.5C607.1,564.5,606.6,564.6,606.1,564.6z"/>
	</g>
	<g id="XMLID_69_">
		<path id="XMLID_144_" class="st1" d="M600.4,555.6c-0.9,0-1.7-0.5-2.2-1.3c-0.7-1.2-0.2-2.7,1-3.4l18-9.9c1.2-0.7,2.7-0.2,3.4,1
			c0.7,1.2,0.2,2.7-1,3.4l-18,9.9C601.2,555.5,600.8,555.6,600.4,555.6z"/>
	</g>
	<g id="XMLID_68_">
		<path id="XMLID_143_" class="st1" d="M646.3,534.1c-0.7,0-1.3-0.3-1.8-0.8l-32.6-33.7l-2.9,2.3l2.7,7.8c0.3,1,0,2.1-0.8,2.8l-9,7
			c-1.1,0.8-2.7,0.6-3.5-0.4c-0.8-1.1-0.6-2.7,0.4-3.5l7.6-5.9l-2.7-7.8c-0.3-1,0-2.1,0.8-2.8l6-4.8c1-0.8,2.5-0.7,3.4,0.2
			l34.2,35.3c1,1,0.9,2.6-0.1,3.5C647.6,533.9,647,534.1,646.3,534.1z"/>
	</g>
	<g id="XMLID_67_">
		<path id="XMLID_142_" class="st1" d="M632.8,520.1c-0.7,0-1.3-0.3-1.8-0.8c-1-1-0.9-2.6,0.1-3.5l54.7-52.5c1-1,2.6-0.9,3.5,0.1
			c1,1,0.9,2.6-0.1,3.5l-54.7,52.5C634,519.9,633.4,520.1,632.8,520.1z"/>
	</g>
	<g id="XMLID_66_">
		<path id="XMLID_141_" class="st1" d="M666.7,505c-0.5,0-1.1-0.2-1.5-0.5l-10.1-7.9c-1.1-0.8-1.3-2.4-0.4-3.5
			c0.8-1.1,2.4-1.3,3.5-0.4l10.1,7.9c1.1,0.8,1.3,2.4,0.4,3.5C668.2,504.7,667.5,505,666.7,505z"/>
	</g>
	<g id="XMLID_65_">
		<path id="XMLID_140_" class="st1" d="M649.9,503.6c-0.6,0-1.2-0.2-1.7-0.6l-20.8-18.7l-10,16.6c-0.7,1.2-2.2,1.6-3.4,0.9
			c-1.2-0.7-1.6-2.2-0.9-3.4l11.5-19.2c0.4-0.6,1-1.1,1.8-1.2c0.7-0.1,1.5,0.1,2,0.6l23.1,20.8c1,0.9,1.1,2.5,0.2,3.5
			C651.3,503.4,650.6,503.6,649.9,503.6z"/>
	</g>
	<g id="XMLID_64_">
		<path id="XMLID_139_" class="st1" d="M666.7,487.5c-0.7,0-1.4-0.3-1.8-0.8l-12.8-14c-0.9-1-0.9-2.6,0.2-3.5c1-0.9,2.6-0.9,3.5,0.2
			l12.8,14c0.9,1,0.9,2.6-0.2,3.5C667.9,487.3,667.3,487.5,666.7,487.5z"/>
	</g>
	<g id="XMLID_63_">
		<path id="XMLID_138_" class="st1" d="M571,572.6c-1,0-1.9-0.6-2.3-1.5l-30.3-68.9c-0.6-1.3,0-2.7,1.3-3.3c1.3-0.6,2.7,0,3.3,1.3
			l30.3,68.9c0.6,1.3,0,2.7-1.3,3.3C571.7,572.5,571.4,572.6,571,572.6z"/>
	</g>
	<g id="XMLID_62_">
		<path id="XMLID_137_" class="st1" d="M550,585.4c-1,0-1.9-0.6-2.3-1.5l-9.2-20.7c-0.3-0.6-0.3-1.3,0-2c0.3-0.6,0.8-1.1,1.4-1.4
			l8.7-3.4c0.5-0.2,1.1-0.2,1.7,0l16.1,5.3l22.8-24.8c0.9-1,2.5-1.1,3.5-0.1c1,0.9,1.1,2.5,0.1,3.5L569,566.2
			c-0.7,0.7-1.7,1-2.6,0.7l-16.8-5.5l-5.4,2.1l8.1,18.4c0.6,1.3,0,2.7-1.3,3.3C550.6,585.3,550.3,585.4,550,585.4z"/>
	</g>
	<g id="XMLID_61_">
		<path id="XMLID_136_" class="st1" d="M555.9,534.1c-0.9,0-1.8-0.5-2.2-1.4c-0.6-1.2-0.1-2.7,1.1-3.4l23.2-11.8
			c1.2-0.6,2.7-0.1,3.4,1.1c0.6,1.2,0.1,2.7-1.1,3.4l-23.2,11.8C556.7,534,556.3,534.1,555.9,534.1z"/>
	</g>
	<g id="XMLID_60_">
		<path id="XMLID_135_" class="st1" d="M508.5,652.6c-0.7,0-1.4-0.3-1.9-0.9l-23.7-29.3c-0.5-0.6-0.6-1.3-0.5-2
			c0.1-0.7,0.5-1.3,1.2-1.7l12.3-7.6l-27.3-70.6c-0.5-1.3,0.1-2.7,1.4-3.2c1.3-0.5,2.7,0.1,3.2,1.4l28.1,72.5c0.4,1.1,0,2.4-1,3
			l-11.6,7.2l21.9,27.1c0.9,1.1,0.7,2.6-0.4,3.5C509.6,652.4,509,652.6,508.5,652.6z"/>
	</g>
	<g id="XMLID_59_">
		<path id="XMLID_134_" class="st1" d="M484.7,623.3c-0.1,0-0.1,0-0.2,0l-23-1.4c-1.4-0.1-2.4-1.3-2.3-2.6c0.1-1.4,1.3-2.4,2.6-2.3
			l23,1.4c1.4,0.1,2.4,1.3,2.3,2.6C487.2,622.3,486.1,623.3,484.7,623.3z"/>
	</g>
	<g id="XMLID_58_">
		<path id="XMLID_133_" class="st1" d="M475.5,623.3c-1.1,0-2.1-0.8-2.4-1.9l-2.2-8.7c-0.1-0.6-0.1-1.2,0.2-1.7l14.2-29.3
			c0.6-1.2,2.1-1.8,3.3-1.2c1.2,0.6,1.8,2.1,1.2,3.3l-13.8,28.5l2,7.8c0.3,1.3-0.5,2.7-1.8,3C475.9,623.3,475.7,623.3,475.5,623.3z"
			/>
	</g>
	<g id="XMLID_57_">
		<path id="XMLID_132_" class="st1" d="M470.7,590.3c-0.2,0-0.4,0-0.6-0.1l-11.9-2.7c-1.3-0.3-2.2-1.6-1.9-3c0.3-1.3,1.6-2.2,3-1.9
			l10.8,2.5l13.1-9.4c1.1-0.8,2.7-0.5,3.5,0.6c0.8,1.1,0.5,2.7-0.6,3.5l-14,10C471.7,590.1,471.2,590.3,470.7,590.3z"/>
	</g>
	<g id="XMLID_56_">
		<path id="XMLID_131_" class="st1" d="M473.3,665.7c-0.8,0-1.6-0.4-2.1-1.1l-8.5-13.1c-0.2-0.4-0.4-0.8-0.4-1.2l-1.4-31.9
			c-0.1-1.4,1-2.5,2.4-2.6c1.4-0.1,2.5,1,2.6,2.4l1.4,31.3l8.1,12.6c0.7,1.2,0.4,2.7-0.7,3.5C474.2,665.6,473.7,665.7,473.3,665.7z"
			/>
	</g>
	<g id="XMLID_55_">
		<path id="XMLID_130_" class="st1" d="M450,686.6c-1.1,0-2-0.7-2.4-1.7l-9-28.1c-0.2-0.7-0.1-1.4,0.2-2s0.9-1,1.6-1.2l23.4-5.9
			l29.7-16.7c1.2-0.7,2.7-0.3,3.4,1c0.7,1.2,0.2,2.7-1,3.4l-30,16.9c-0.2,0.1-0.4,0.2-0.6,0.2l-21.2,5.4l8.2,25.5
			c0.4,1.3-0.3,2.7-1.6,3.1C450.5,686.6,450.3,686.6,450,686.6z"/>
	</g>
	<g id="XMLID_54_">
		<path id="XMLID_129_" class="st1" d="M428.2,675.2c-1.3,0-2.4-1-2.5-2.2c-0.1-1.4,0.9-2.6,2.2-2.7l17.6-1.8
			c1.4-0.1,2.6,0.9,2.7,2.2c0.1,1.4-0.9,2.6-2.2,2.7l-17.6,1.8C428.4,675.2,428.3,675.2,428.2,675.2z"/>
	</g>
	<g id="XMLID_53_">
		<path id="XMLID_128_" class="st1" d="M443.8,695.6C443.8,695.6,443.7,695.6,443.8,695.6c-1.1,0-2-0.7-2.3-1.6l-3.5-9
			c-0.5-1.3,0.1-2.7,1.4-3.2c1.3-0.5,2.7,0.1,3.2,1.4l1.3,3.4l1.6-3.5c0.6-1.3,2-1.8,3.3-1.3c1.3,0.6,1.8,2,1.3,3.3l-4,9
			C445.7,695.1,444.8,695.6,443.8,695.6z"/>
	</g>
	<g id="XMLID_52_">
		<path id="XMLID_127_" class="st1" d="M514.1,539.6c-1.3,0-2.4-1-2.5-2.4c-0.1-1.4,1-2.6,2.4-2.6l24.7-1.4l3.8-23
			c0.2-1.4,1.5-2.3,2.9-2.1c1.4,0.2,2.3,1.5,2.1,2.9l-4.2,25c-0.2,1.2-1.2,2-2.3,2.1l-26.7,1.5C514.2,539.6,514.2,539.6,514.1,539.6
			z"/>
	</g>
	<g id="XMLID_51_">
		<path id="XMLID_126_" class="st1" d="M555.9,578.3c-1,0-2-0.6-2.3-1.6l-15.1-40.2c-0.5-1.3,0.2-2.7,1.5-3.2
			c1.3-0.5,2.7,0.2,3.2,1.5l15.1,40.2c0.5,1.3-0.2,2.7-1.5,3.2C556.5,578.2,556.2,578.3,555.9,578.3z"/>
	</g>
	<g id="XMLID_50_">
		<path id="XMLID_125_" class="st1" d="M536.1,600.2c-0.3,0-0.5,0-0.8-0.1L485.8,583c-1.3-0.5-2-1.9-1.5-3.2c0.5-1.3,1.9-2,3.2-1.5
			l49.5,17.1c1.3,0.5,2,1.9,1.5,3.2C538.1,599.6,537.1,600.2,536.1,600.2z"/>
	</g>
	<g id="XMLID_49_">
		<path id="XMLID_124_" class="st1" d="M533.3,612.7c-0.2,0-0.4,0-0.5-0.1l-38.5-8.3c-1.3-0.3-2.2-1.6-1.9-3c0.3-1.3,1.6-2.2,3-1.9
			l38.5,8.3c1.3,0.3,2.2,1.6,1.9,3C535.5,611.9,534.4,612.7,533.3,612.7z"/>
	</g>
	<g id="XMLID_48_">
		<path id="XMLID_123_" class="st1" d="M537.8,631.3c-0.1,0-0.1,0-0.2,0l-29.9-2.7c-1.1-0.1-2-0.9-2.2-2.1l-1.4-8
			c-0.1-0.8,0.1-1.6,0.7-2.2l10.3-10.6l2.4-14.1c0.2-1.4,1.5-2.3,2.9-2c1.4,0.2,2.3,1.5,2,2.9l-2.5,14.9c-0.1,0.5-0.3,1-0.7,1.3
			l-9.9,10.2l0.8,4.9l25.3,2.3v-15.2c0-1.4,1.1-2.5,2.5-2.5s2.5,1.1,2.5,2.5v17.9c0,0.7-0.3,1.4-0.8,1.8
			C539.1,631.1,538.5,631.3,537.8,631.3z"/>
	</g>
	<g id="XMLID_47_">
		<path id="XMLID_122_" class="st1" d="M498.4,640.1c-0.6,0-1.1-0.2-1.6-0.6c-1.1-0.9-1.2-2.5-0.3-3.5l9.6-11.5
			c0.9-1.1,2.5-1.2,3.5-0.3c1.1,0.9,1.2,2.5,0.3,3.5l-9.6,11.5C499.8,639.8,499.1,640.1,498.4,640.1z"/>
	</g>
	<g id="XMLID_46_">
		<path id="XMLID_121_" class="st1" d="M506.5,620.6c-0.5,0-1.1-0.2-1.5-0.5l-7.8-6c-1.1-0.8-1.3-2.4-0.4-3.5
			c0.8-1.1,2.4-1.3,3.5-0.5l7.8,6c1.1,0.8,1.3,2.4,0.4,3.5C508,620.3,507.3,620.6,506.5,620.6z"/>
	</g>
	<g id="XMLID_45_">
		<path id="XMLID_120_" class="st1" d="M527.4,630.4c-0.8,0-1.5-0.4-2-1l-13.1-17.7c-0.8-1.1-0.6-2.7,0.5-3.5
			c1.1-0.8,2.7-0.6,3.5,0.5l13.1,17.7c0.8,1.1,0.6,2.7-0.5,3.5C528.5,630.2,527.9,630.4,527.4,630.4z"/>
	</g>
	<g id="XMLID_44_">
		<path id="XMLID_119_" class="st1" d="M525.5,578.3c-0.6,0-1.3-0.2-1.7-0.7c-1-1-1-2.5,0-3.5l5-5.1l2.1-16.1
			c0.1-0.8,0.6-1.5,1.3-1.9l11.7-6.4c1.2-0.7,2.7-0.2,3.4,1s0.2,2.7-1,3.4l-10.6,5.8l-2,15.7c-0.1,0.5-0.3,1-0.7,1.4l-5.6,5.7
			C526.8,578,526.2,578.3,525.5,578.3z"/>
	</g>
	<g id="XMLID_43_">
		<path id="XMLID_118_" class="st1" d="M540.5,594.6c-0.7,0-1.4-0.3-1.8-0.8l-31-33.9l1.4,27.7c0.1,1.4-1,2.6-2.4,2.6
			c-1.4,0.1-2.6-1-2.6-2.4l-1.8-34.7c-0.1-1.1,0.6-2,1.5-2.4c1-0.4,2.1-0.2,2.8,0.6l35.7,39c0.9,1,0.9,2.6-0.2,3.5
			C541.7,594.4,541.1,594.6,540.5,594.6z"/>
	</g>
	<g id="XMLID_83_">
		<defs>
			<circle id="SVGID_1_" cx="226.9" cy="562.4" r="129.3"/>
		</defs>
		<clipPath id="SVGID_2_">
			<use xlink:href="#SVGID_1_"  style="overflow:visible;"/>
		</clipPath>
		<g id="XMLID_82_" class="st2">
			<path id="XMLID_89_" class="st0" d="M351.9,563.1c0,0-38.3,37.3-47,87.3c0,0-15.3-62-64-30.7c-23.3,12.7-32,16.7-36.7,18.7
				s-18-0.7-20.7-0.7c-2.7,0-11.3-5.3-19.3-6.7c-8-1.3-28.7-4.7-31.3-12c-2.7-7.3-7.3-48.7-7.3-48.7l5.3-13.3l-5.3-9.3l2.7-26.7
				c0,0,30-31.3,48.7-26.7s54,10.7,54,10.7s86-7.3,85.3-33.3C315.5,445.7,422.9,490.4,351.9,563.1z"/>
			<path id="XMLID_114_" class="st1" d="M304.9,653.4c-1.4,0-2.6-0.9-2.9-2.3c-0.1-0.3-7.2-28-25.9-35.4c-9.6-3.8-20.9-1.6-33.6,6.5
				c-0.1,0-0.1,0.1-0.2,0.1c-23,12.5-31.8,16.6-36.9,18.8c-3.9,1.7-10.8,0.9-18.2,0c-1.5-0.2-3.1-0.4-3.7-0.4
				c-1.7,0-3.7-0.8-7.3-2.4c-3.7-1.6-8.3-3.6-12.5-4.3l-0.4-0.1c-15.6-2.6-30.5-6.1-33.3-13.9c-2.7-7.5-7-45.1-7.5-49.4
				c-0.1-0.5,0-1,0.2-1.5l4.8-12l-4.6-8.1c-0.3-0.5-0.4-1.2-0.4-1.8l2.7-26.7c0.1-0.7,0.4-1.3,0.8-1.8c1.3-1.3,31.4-32.5,51.6-27.5
				c17.3,4.3,49.5,9.9,53.4,10.6c32.2-2.8,82.6-13.4,82.2-30.2c-0.1-4.8,2.6-8.4,7.5-9.9c6.4-1.9,16.1,0,26,5.1
				c10.8,5.5,19.9,13.8,25.6,23.3c6.2,10.3,8.2,21.5,6,33.3c-2.5,13.6-10.7,27.6-24.3,41.5c0,0,0,0-0.1,0.1
				c-0.4,0.4-37.7,37.3-46.1,85.7c-0.2,1.4-1.4,2.4-2.9,2.5C304.9,653.4,304.9,653.4,304.9,653.4z M266.4,607.9
				c4.1,0,8.1,0.8,11.9,2.3c13.7,5.4,21.7,19.4,25.9,29.2c11.6-44.7,43.7-76.6,45.5-78.4c29.6-30.3,25.8-53.4,17.4-67.5
				c-5.1-8.6-13.4-16-23.2-21.1c-8.3-4.2-16.8-6.1-21.6-4.7c-2.9,0.8-3.2,2.5-3.2,3.9c0.7,28-79,35.6-88.1,36.4c-0.3,0-0.5,0-0.8,0
				c-0.4-0.1-35.7-6.1-54.2-10.7c-13.5-3.4-36.4,16.3-45.1,25.1l-2.5,24.7l4.9,8.5c0.5,0.8,0.5,1.8,0.2,2.6l-5.1,12.6
				c1.4,11.9,5,41.6,7.1,47.2c0.9,2.5,6.6,6.3,28.6,10l0.4,0.1c5,0.8,9.9,3,13.9,4.7c1.9,0.8,4.3,1.9,5,1.9c0.8,0,2.1,0.2,4.4,0.5
				c4,0.5,12.4,1.6,15.1,0.5c4.6-2,13.3-6,36.3-18.5C248.9,611,258,607.9,266.4,607.9z"/>
		</g>
	</g>
	<g id="XMLID_84_">
		<path id="XMLID_111_" class="st1" d="M226.9,696.7c-74.1,0-134.3-60.3-134.3-134.3c0-74.1,60.3-134.3,134.3-134.3
			c74.1,0,134.3,60.3,134.3,134.3C361.2,636.5,300.9,696.7,226.9,696.7z M226.9,438.1c-68.6,0-124.3,55.8-124.3,124.3
			s55.8,124.3,124.3,124.3S351.2,631,351.2,562.4S295.4,438.1,226.9,438.1z"/>
	</g>
	<g id="XMLID_88_">
		
			<rect id="XMLID_110_" x="187.1" y="594" transform="matrix(3.629678e-02 0.9993 -0.9993 3.629678e-02 807.3589 355.816)" class="st1" width="64.2" height="5"/>
	</g>
	<g id="XMLID_90_">
		
			<rect id="XMLID_109_" x="174" y="568.7" transform="matrix(0.9999 1.093685e-02 -1.093685e-02 0.9999 6.5928 -1.8939)" class="st1" width="5" height="66.4"/>
	</g>
	<g id="XMLID_91_">
		<path id="XMLID_108_" class="st1" d="M197,565.2c0-0.8-0.4-33.8-0.7-51.1l0-2.5h9.5V501h5v15.6h-9.5c0.1,10.3,0.6,47.8,0.6,48.7
			H197z"/>
	</g>
	<g id="XMLID_85_">
		<polygon id="XMLID_107_" class="st1" points="126.8,538.5 126.6,533.5 185.5,532.1 187,497.2 192,497.4 190.3,537 		"/>
	</g>
	<g id="XMLID_97_">
		
			<rect id="XMLID_106_" x="144.3" y="550.2" transform="matrix(1.565713e-02 0.9999 -0.9999 1.565713e-02 711.8798 382.2615)" class="st1" width="35" height="5"/>
	</g>
	<g id="XMLID_98_">
		<path class="st3" d="M264.3,559.7V608c0,0,24.7-3.5,40,31.2c0,0,6.9-19.5,16-35.5l-4.9-49.3L264.3,559.7z"/>
	</g>
	<g id="XMLID_86_">
		
			<rect id="XMLID_105_" x="252.2" y="542.5" transform="matrix(5.997394e-02 0.9982 -0.9982 5.997394e-02 841.3897 196.4634)" class="st1" width="128.5" height="5"/>
	</g>
	<g id="XMLID_87_">
		
			<rect id="XMLID_104_" x="218.7" y="468.4" transform="matrix(0.1016 0.9948 -0.9948 0.1016 759.9113 286.8338)" class="st1" width="5" height="191.5"/>
	</g>
	<g id="XMLID_99_">
		<rect id="XMLID_103_" x="261.8" y="561.1" class="st1" width="5" height="49.9"/>
	</g>
	<g id="XMLID_92_">
		
			<rect id="XMLID_102_" x="267.2" y="566.1" transform="matrix(0.548 0.8365 -0.8365 0.548 651.4954 -63.5425)" class="st1" width="234.7" height="10"/>
	</g>
	<g id="XMLID_100_">
		<rect id="XMLID_101_" x="220.4" y="686.7" class="st1" width="224.5" height="10"/>
	</g>
</g>
</svg>
