<?xml version="1.0" encoding="utf-8"?>
<!-- Generator: Adobe Illustrator 19.0.0, SVG Export Plug-In . SVG Version: 6.00 Build 0)  -->
<svg version="1.1" id="Layer_1" xmlns="http://www.w3.org/2000/svg" xmlns:xlink="http://www.w3.org/1999/xlink" x="0px" y="0px"
	 viewBox="0 0 1922.1 433.2" style="enable-background:new 0 0 1922.1 433.2;" xml:space="preserve">
<style type="text/css">
	.st0{fill:#69A447;}
	.st1{fill:#532C18;}
	.st2{fill:none;stroke:#FFFFFF;stroke-width:14;stroke-miterlimit:10;stroke-dasharray:25,20;}
	.st3{fill:#93C53F;}
</style>
<g id="XMLID_17_">
	<rect id="XMLID_15_" x="1.1" y="213.2" class="st0" width="1920" height="220"/>
	<path id="XMLID_14_" class="st1" d="M1921.1,170.4c-293.9-45.6-621-69.7-960-69.7s-666.1,24.1-960,69.7v155.3
		c52.4-8.4,106.1-16.1,161.2-23.1C415.1,270.4,683.9,254,961.1,254s546,16.4,798.8,48.6c55,7,108.8,14.7,161.2,23.1V170.4z"/>
	<path id="XMLID_13_" class="st2" d="M1921.1,248c-293.9-45.6-621-69.7-960-69.7S294.9,202.5,1.1,248"/>
	<path id="XMLID_12_" class="st1" d="M189.9,94.2c7.8,41.9,24.6,67,24.6,67l-38.9,5.2c9.9-28.5,8.2-48,5.2-69.2
		C177.8,76,189.9,94.2,189.9,94.2z"/>
	<circle id="XMLID_11_" class="st3" cx="183.9" cy="62.9" r="48.2"/>
	<path id="XMLID_10_" class="st1" d="M1771,92.2c-5.4,42.3,3.1,71.3,3.1,71.3l-38.6-6.9c18.2-24.2,22.4-43.2,26-64.3
		C1765,71.2,1771,92.2,1771,92.2z"/>
	<circle id="XMLID_9_" class="st3" cx="1774.9" cy="60.6" r="48.2"/>
	<path id="XMLID_8_" class="st1" d="M1367.6,67.4c1,34.1,11.2,55.9,11.2,55.9l-31.4-0.7c11.4-21.3,12.4-36.9,12.6-54
		C1360.2,51.6,1367.6,67.4,1367.6,67.4z"/>
	<circle id="XMLID_7_" class="st3" cx="1366.7" cy="41.9" r="38.5"/>
	<path id="XMLID_6_" class="st1" d="M1669.3,96c1,34.1,11.2,55.9,11.2,55.9l-31.4-0.7c11.4-21.3,12.4-36.9,12.6-54
		S1669.3,96,1669.3,96z"/>
	<circle id="XMLID_5_" class="st3" cx="1668.4" cy="70.6" r="38.5"/>
	<path id="XMLID_4_" class="st1" d="M752.9,63.5c6.1,33.5,19.5,53.6,19.5,53.6l-31.1,4.1c8-22.8,6.7-38.3,4.3-55.3
		C743.2,49,752.9,63.5,752.9,63.5z"/>
	<circle id="XMLID_3_" class="st3" cx="748.2" cy="38.5" r="38.5"/>
	<path id="XMLID_2_" class="st1" d="M370.8,87.3c1.7,34,12.5,55.7,12.5,55.7l-31.4,0c10.9-21.6,11.6-37.1,11.4-54.3
		C363.1,71.6,370.8,87.3,370.8,87.3z"/>
	<circle id="XMLID_1_" class="st3" cx="369.3" cy="61.9" r="38.5"/>
</g>
</svg>
