<?xml version="1.0" encoding="utf-8"?>
<!-- Generator: Adobe Illustrator 19.0.0, SVG Export Plug-In . SVG Version: 6.00 Build 0)  -->
<svg version="1.1" id="Layer_1" xmlns="http://www.w3.org/2000/svg" xmlns:xlink="http://www.w3.org/1999/xlink" x="0px" y="0px"
	 viewBox="0 0 54.3 84.9" style="enable-background:new 0 0 54.3 84.9;" xml:space="preserve">
<style type="text/css">
	.st0{fill:#B6D1CD;}
	.st1{fill:#E07027;}
</style>
<g>
	<path class="st0" d="M54.2,81.2c-1.5-12.4-3.1-24.7-4.6-37.1c0-0.4,0.2-0.9,0.5-1.2c1.2-1,1.7-2.1,1.4-3.6
		c-0.3-1.4-1.4-2.3-3.1-2.5c-3-0.4-6-0.9-8.9-1.1c-2.1-0.1-3.1-1-4-2.9c-1.6-3.6-4.1-9.2-8-13.6c0-0.1-0.1-0.2-0.2-0.2l0,0v0
		c-0.2-0.1-0.4-0.2-0.7-0.2c-3.2,0.1-6-1-8.3-3.2c-0.3-0.3-1.1-0.3-1.5-0.1c-5,3.7-10,7.4-15,11.1c-1.2,0.9-1.8,2.2-1.7,3.7
		c0.3,4.8,0.6,9.6,0.9,14.4c0.1,1.6,1.6,2.6,3.2,2.7c1.5,0,2.9-1.1,3.1-2.7c0.1-0.7,0.1-1.5,0.2-2.2c0-3.1,0-6.3,0.1-9.4
		c0-0.4,0.1-1,0.4-1.2c1.3-0.9,2.7-1.7,4.3-2.7c-0.1,0.5-0.1,0.8-0.1,1c-0.8,3.4-1.7,6.8-2.5,10.3C9.2,42.4,8.9,44,9,45.6
		c0.3,4.2,0.9,8.4,1.4,12.7c0.2,2,0.2,4-0.5,6c-1.7,5.3-3.3,10.6-4.8,16c-0.7,2.3,0.8,4.4,3.2,4.5c1.6,0,2.7-0.7,3.4-2.4
		c2-4.9,4-9.7,5.9-14.6c0.6-1.7,1-3.5,1.1-5.3c0.2-2.6,0-5.2,0-7.8c0.1,0,0.2-0.1,0.3-0.1c1,2,2,3.9,2.9,5.9c0.5,1.1,0.9,2.3,1,3.5
		c0.4,5.7,0.8,11.5,1.1,17.2c0.2,2.4,1.4,3.7,3.5,3.7c2.1,0,3.3-1.3,3.4-3.7c0.2-4.9,0.5-9.8,0.4-14.7c0-2.5-0.4-5-1.2-7.4
		c-1.2-3.8-2.8-7.5-4.1-11.3c-0.8-2.3-1.2-4.6-0.9-7c0.5-3.6,1.1-7.1,1.6-10.7c0.6,3.1,2.2,7.9,3.9,9.9c1.1,1.4,3.3,3,5.1,3
		c3.4,0.2,5.6,0.4,9,0.5c1,0,1.3,0.4,1.4,1.3c0.2,2,0.5,3.9,0.7,5.9c1,8.3,2,16.6,3,24.9c0.3,2.7,0.7,5.3,1,8
		c0.1,1.1,0.9,1.7,1.9,1.5c1.1-0.1,1.6-0.8,1.6-1.9C54.3,82.4,54.2,81.8,54.2,81.2z"/>
	<path class="st0" d="M26.1,15.5c4.3,0,7.7-3.4,7.8-7.7c0-4.3-3.4-7.7-7.7-7.7c-4.3,0-7.7,3.4-7.7,7.6C18.4,12,21.8,15.4,26.1,15.5z
		"/>
</g>
<g>
	<path class="st1" d="M49.8,75.3c0.3,2.7,0.7,5.3,1,8c0.1,1.1,0.9,1.7,1.9,1.5c1.1-0.1,1.6-0.8,1.6-1.9c0-0.6-0.1-1.1-0.1-1.7
		c-0.4-3.5-0.9-7-1.3-10.4h-3.7C49.4,72.3,49.6,73.8,49.8,75.3z"/>
	<path class="st1" d="M24,81c0.2,2.4,1.4,3.7,3.5,3.7c2.1,0,3.3-1.3,3.4-3.7c0.1-3.4,0.3-6.8,0.4-10.2h-7.9
		C23.6,74.2,23.8,77.6,24,81z"/>
	<path class="st1" d="M8.2,84.7c1.6,0,2.7-0.7,3.4-2.4c1.6-3.8,3.1-7.6,4.6-11.4H7.9c-1,3.1-1.9,6.3-2.8,9.4
		C4.4,82.6,5.9,84.6,8.2,84.7z"/>
</g>
</svg>
