<?xml version="1.0" encoding="utf-8"?>
<!-- Generator: Adobe Illustrator 19.0.0, SVG Export Plug-In . SVG Version: 6.00 Build 0)  -->
<svg version="1.1" id="Layer_1" xmlns="http://www.w3.org/2000/svg" xmlns:xlink="http://www.w3.org/1999/xlink" x="0px" y="0px"
	 viewBox="0 0 30.9 69.8" style="enable-background:new 0 0 30.9 69.8;" xml:space="preserve">
<style type="text/css">
	.st0{fill:#B6D1CD;}
	.st1{fill:#F27E90;}
</style>
<g>
	<circle class="st0" cx="15.4" cy="6.4" r="6.4"/>
	<path class="st0" d="M30.8,35.8l-3.4-17.7c-0.1-0.7-0.4-1.2-0.8-1.7c-0.3-0.3-0.6-0.6-0.9-0.8c-0.2-0.1-0.5-0.2-0.8-0.3
		c-1.2-0.3-2.9-0.5-4.8-0.5h-9.2c-1.9,0-3.6,0.2-4.8,0.5c-0.3,0.1-0.6,0.2-0.8,0.3c-0.4,0.2-0.7,0.5-0.9,0.8c-0.4,0.5-0.6,1-0.8,1.7
		L0.1,35.8c-0.4,1.8,0.5,3.6,1.9,3.9c1.4,0.3,2.9-0.9,3.2-2.7l2.7-14.1h1.3L4.3,49.1c-0.1,0.8,0.3,1.4,1.1,1.4h4.3v16.4
		c0,1.6,1.1,2.9,2.5,2.9c1.4,0,2.5-1.3,2.5-2.9V50.5h1.6v16.4c0,1.6,1.1,2.9,2.5,2.9c1.4,0,2.5-1.3,2.5-2.9V50.5h4.3
		c0.8,0,1.2-0.7,1.1-1.4l-4.9-26.3h1.3l2.7,14.1c0.4,1.8,1.8,3.1,3.2,2.7C30.3,39.4,31.1,37.6,30.8,35.8z"/>
	<path class="st1" d="M5.2,36.9C4.9,38.8,3.4,40,2,39.7c-1.2-0.3-2-1.6-2-3.1h5.3L5.2,36.9z"/>
	<path class="st1" d="M24.3,36.6H6.6L4.3,49.1c-0.1,0.8,0.3,1.4,1.1,1.4h4.3v16.4c0,1.6,1.1,2.9,2.5,2.9c1.4,0,2.5-1.3,2.5-2.9V50.5
		h1.6v16.4c0,1.6,1.1,2.9,2.5,2.9c1.4,0,2.5-1.3,2.5-2.9V50.5h4.3c0.8,0,1.2-0.7,1.1-1.4L24.3,36.6z"/>
</g>
</svg>
