<?xml version="1.0" encoding="utf-8"?>
<!-- Generator: Adobe Illustrator 19.0.0, SVG Export Plug-In . SVG Version: 6.00 Build 0)  -->
<svg version="1.1" id="Layer_1" xmlns="http://www.w3.org/2000/svg" xmlns:xlink="http://www.w3.org/1999/xlink" x="0px" y="0px"
	 viewBox="0 0 26.9 69.8" style="enable-background:new 0 0 26.9 69.8;" xml:space="preserve">
<style type="text/css">
	.st0{fill:#FFFFFF;}
	.st1{fill:#B6D1CD;}
	.st2{fill:#2CB1AA;}
</style>
<g>
	<g>
		<path class="st0" d="M4.8,34.5c0,0.2,0,0.3,0,0.5v-0.1C4.8,34.7,4.8,34.6,4.8,34.5z"/>
		<path class="st1" d="M26.9,21.6v18.1c0,1.9-1.3,3.4-2.8,3.4c-1.1,0-2.1-0.8-2.5-1.9c-0.2-0.5-0.3-1-0.3-1.5V21.6h-1.1l0,44.9
			c0,1.8-1.4,3.3-3.1,3.3c-1.7,0-3.1-1.5-3.1-3.3V42.9H13v23.6c0,1.8-1.4,3.3-3.1,3.3c-1.7,0-3.1-1.5-3.1-3.3c0,0,0-25.1,0-25.1
			V21.6H5.7v18.1c0,0.5-0.1,1.1-0.3,1.5c-0.5,1.1-1.4,1.9-2.5,1.9c-1.6,0-2.8-1.5-2.8-3.4V21.6c0-0.2,0-0.3,0-0.5
			c0.3-3.5,3.2-6.3,6.8-6.4c0,0,0.1,0,0.1,0H20c0,0,0.1,0,0.1,0c3.6,0,6.5,2.8,6.8,6.4c0,0,0,0,0,0C26.9,21.3,26.9,21.5,26.9,21.6z
			 M13.4,0C9.9,0,7,2.9,7,6.4c0,3.5,2.9,6.4,6.4,6.4c3.5,0,6.4-2.9,6.4-6.4C19.8,2.9,17,0,13.4,0z"/>
	</g>
	<path class="st2" d="M0,32.5v7.3c0,1.9,1.3,3.4,2.8,3.4c1.1,0,2.1-0.8,2.5-1.9c0.2-0.5,0.3-1,0.3-1.5v-7.3H0z M4.8,35v-0.1
		c0-0.1,0-0.3,0-0.4C4.8,34.6,4.8,34.8,4.8,35z M26.9,32.5v7.3c0,1.9-1.3,3.4-2.8,3.4c-1.1,0-2.1-0.8-2.5-1.9
		c-0.2-0.5-0.3-1-0.3-1.5v-7.3H26.9z M20.1,32.5l0,34.1c0,1.8-1.4,3.3-3.1,3.3c-1.7,0-3.1-1.5-3.1-3.3V42.9H13v23.6
		c0,1.8-1.4,3.3-3.1,3.3c-1.7,0-3.1-1.5-3.1-3.3c0,0,0-25.1,0-25.1v-9H20.1z"/>
</g>
</svg>
