<?xml version="1.0" encoding="utf-8"?>
<!-- Generator: Adobe Illustrator 19.0.0, SVG Export Plug-In . SVG Version: 6.00 Build 0)  -->
<svg version="1.1" id="Layer_1" xmlns="http://www.w3.org/2000/svg" xmlns:xlink="http://www.w3.org/1999/xlink" x="0px" y="0px"
	 viewBox="0 0 32.7 84.9" style="enable-background:new 0 0 32.7 84.9;" xml:space="preserve">
<style type="text/css">
	.st0{fill:#FFFFFF;}
	.st1{fill:#B6D1CD;}
	.st2{fill:#E07027;}
</style>
<g>
	<g>
		<g>
			<path class="st0" d="M5.8,41.9c0,0.2,0,0.4,0,0.6v-0.1C5.8,42.2,5.8,42.1,5.8,41.9z"/>
			<path class="st1" d="M32.7,26.3v22c0,2.3-1.6,4.1-3.4,4.1c-1.3,0-2.5-0.9-3.1-2.3c-0.2-0.6-0.4-1.2-0.4-1.8V26.3h-1.3l0,54.6
				c0,2.2-1.7,4-3.8,4c-2.1,0-3.8-1.8-3.8-4V52.2h-1.2v28.6c0,2.2-1.7,4-3.8,4c-2.1,0-3.8-1.8-3.8-4c0,0,0-30.5,0-30.5V26.3H6.9
				v22.1c0,0.7-0.1,1.3-0.4,1.8c-0.6,1.4-1.7,2.3-3.1,2.3c-1.9,0-3.4-1.9-3.4-4.1v-22c0-0.2,0-0.4,0-0.6C0.3,21.4,3.9,18,8.2,18
				c0,0,0.1,0,0.1,0h16c0,0,0.1,0,0.1,0c4.3,0.1,7.9,3.5,8.2,7.7c0,0,0,0,0,0C32.7,25.9,32.7,26.1,32.7,26.3z M16.3,0
				C12,0,8.6,3.5,8.6,7.8c0,4.3,3.5,7.8,7.8,7.8c4.3,0,7.8-3.5,7.8-7.8C24.1,3.5,20.6,0,16.3,0z"/>
		</g>
	</g>
	<path class="st0" d="M5.8,41.9c0,0.2,0,0.4,0,0.6v-0.1C5.8,42.2,5.8,42.1,5.8,41.9z"/>
	<g>
		<path class="st2" d="M24.4,80.9l0-50.7H8.2v20.1c0,0,0,30.5,0,30.5c0,2.2,1.7,4,3.8,4c2.1,0,3.8-1.8,3.8-4V52.2h1.2v28.7
			c0,2.2,1.7,4,3.8,4C22.7,84.9,24.4,83.1,24.4,80.9z"/>
		<path class="st2" d="M25.8,30.2v18.1c0,0.7,0.1,1.3,0.4,1.8c0.6,1.4,1.7,2.3,3.1,2.3c1.9,0,3.4-1.9,3.4-4.1V30.2H25.8z"/>
		<path class="st2" d="M0,30.2v18.1c0,2.3,1.6,4.1,3.4,4.1c1.3,0,2.5-0.9,3.1-2.3c0.2-0.6,0.4-1.2,0.4-1.8V30.2H0z"/>
	</g>
</g>
</svg>
