<?xml version="1.0" encoding="utf-8"?>
<!-- Generator: Adobe Illustrator 19.0.0, SVG Export Plug-In . SVG Version: 6.00 Build 0)  -->
<svg version="1.1" id="Layer_1" xmlns="http://www.w3.org/2000/svg" xmlns:xlink="http://www.w3.org/1999/xlink" x="0px" y="0px"
	 viewBox="0 0 166.2 17.4" style="enable-background:new 0 0 166.2 17.4;" xml:space="preserve">
<style type="text/css">
	.st0{fill:#F1B41C;}
	.st1{fill:none;stroke:#F1B41C;stroke-width:3;stroke-miterlimit:10;}
</style>
<g id="XMLID_14_">
	<path id="XMLID_15_" class="st0" d="M0,5.4h2.1v4.9h5.6V5.4h2.1v11.8H7.7v-5H2.1v5H0V5.4z"/>
	<path id="XMLID_17_" class="st0" d="M12.9,5.4H15v11.8h-2.1V5.4z"/>
	<path id="XMLID_19_" class="st0" d="M17.7,11.3L17.7,11.3c0-3.3,2.5-6.1,6.1-6.1c2.1,0,3.3,0.6,4.5,1.6L27,8.3
		c-0.9-0.8-1.8-1.3-3.3-1.3c-2.2,0-3.8,1.9-3.8,4.2v0c0,2.4,1.6,4.2,4,4.2c1.1,0,2.1-0.4,2.9-0.9v-2.2h-3v-1.8h5v5
		c-1.2,1-2.8,1.8-4.9,1.8C20.1,17.4,17.7,14.8,17.7,11.3z"/>
	<path id="XMLID_21_" class="st0" d="M31.4,5.4h2.1v4.9h5.6V5.4h2.1v11.8h-2.1v-5h-5.6v5h-2.1V5.4z"/>
	<path id="XMLID_23_" class="st0" d="M48.5,15.5l1.2-1.5c1.1,1,2.3,1.5,3.7,1.5c1.3,0,2.1-0.6,2.1-1.5v0c0-0.8-0.5-1.3-2.7-1.8
		c-2.5-0.6-3.9-1.4-3.9-3.5v0c0-2,1.7-3.4,4-3.4c1.7,0,3.1,0.5,4.3,1.5l-1.1,1.6C55.1,7.5,54.1,7,53,7C51.8,7,51,7.7,51,8.4v0
		c0,0.9,0.5,1.3,2.8,1.9c2.5,0.6,3.8,1.5,3.8,3.5v0c0,2.2-1.7,3.5-4.2,3.5C51.6,17.4,49.9,16.7,48.5,15.5z"/>
	<path id="XMLID_25_" class="st0" d="M59.6,11.3L59.6,11.3c0-3.4,2.5-6.1,6.1-6.1c2.2,0,3.5,0.8,4.6,1.8L69,8.5
		c-0.9-0.9-2-1.5-3.3-1.5c-2.3,0-3.9,1.9-3.9,4.2v0c0,2.3,1.6,4.2,3.9,4.2c1.5,0,2.4-0.6,3.4-1.5l1.3,1.3c-1.2,1.3-2.6,2.1-4.8,2.1
		C62.1,17.4,59.6,14.7,59.6,11.3z"/>
	<path id="XMLID_27_" class="st0" d="M72.5,5.4h2.1v4.9h5.6V5.4h2.1v11.8h-2.1v-5h-5.6v5h-2.1V5.4z"/>
	<path id="XMLID_29_" class="st0" d="M84.8,11.3L84.8,11.3c0-3.4,2.6-6.1,6.2-6.1s6.2,2.8,6.2,6.1v0c0,3.3-2.6,6.1-6.2,6.1
		C87.4,17.4,84.8,14.6,84.8,11.3z M95,11.3L95,11.3c0-2.3-1.7-4.2-4-4.2s-4,1.9-4,4.2v0c0,2.3,1.7,4.2,4,4.2
		C93.4,15.5,95,13.6,95,11.3z"/>
	<path id="XMLID_32_" class="st0" d="M99.2,11.3L99.2,11.3c0-3.4,2.6-6.1,6.2-6.1s6.2,2.8,6.2,6.1v0c0,3.3-2.6,6.1-6.2,6.1
		C101.7,17.4,99.2,14.6,99.2,11.3z M109.4,11.3L109.4,11.3c0-2.3-1.7-4.2-4-4.2s-4,1.9-4,4.2v0c0,2.3,1.7,4.2,4,4.2
		C107.7,15.5,109.4,13.6,109.4,11.3z"/>
	<path id="XMLID_35_" class="st0" d="M114.1,5.4h2.1v9.9h6.2v1.9h-8.3V5.4z"/>
</g>
<line class="st1" x1="132.5" y1="4.7" x2="166.1" y2="1.5"/>
</svg>
