<?xml version="1.0" encoding="utf-8"?>
<!-- Generator: Adobe Illustrator 19.0.0, SVG Export Plug-In . SVG Version: 6.00 Build 0)  -->
<svg version="1.1" id="Layer_1" xmlns="http://www.w3.org/2000/svg" xmlns:xlink="http://www.w3.org/1999/xlink" x="0px" y="0px"
	 viewBox="0 0 139.9 39.2" style="enable-background:new 0 0 139.9 39.2;" xml:space="preserve">
<style type="text/css">
	.st0{fill:#64C6C6;}
	.st1{fill:none;stroke:#64C6C6;stroke-width:3;stroke-miterlimit:10;}
</style>
<g id="XMLID_27_">
	<path id="XMLID_28_" class="st0" d="M48.7,8.5L48.7,8.5c0-3.4,2.5-6.1,6.1-6.1c2.2,0,3.5,0.8,4.6,1.8l-1.3,1.5
		c-0.9-0.9-2-1.5-3.3-1.5c-2.3,0-3.9,1.9-3.9,4.2v0c0,2.3,1.6,4.2,3.9,4.2c1.5,0,2.4-0.6,3.4-1.5l1.3,1.3c-1.2,1.3-2.6,2.1-4.8,2.1
		C51.2,14.5,48.7,11.9,48.7,8.5z"/>
	<path id="XMLID_30_" class="st0" d="M60.8,8.5L60.8,8.5c0-3.4,2.6-6.1,6.2-6.1s6.2,2.8,6.2,6.1v0c0,3.3-2.6,6.1-6.2,6.1
		C63.3,14.5,60.8,11.8,60.8,8.5z M71,8.5L71,8.5c0-2.3-1.7-4.2-4-4.2c-2.3,0-4,1.9-4,4.2v0c0,2.3,1.7,4.2,4,4.2
		C69.3,12.6,71,10.8,71,8.5z"/>
	<path id="XMLID_33_" class="st0" d="M75.7,2.5h2.1v9.9h6.2v1.9h-8.3V2.5z"/>
	<path id="XMLID_35_" class="st0" d="M86.1,2.5h2.1v9.9h6.2v1.9h-8.3V2.5z"/>
	<path id="XMLID_63_" class="st0" d="M96.6,2.5h8.8v1.9h-6.7v3.1h5.9v1.9h-5.9v3.2h6.8v1.9h-8.8V2.5z"/>
	<path id="XMLID_65_" class="st0" d="M107.3,8.5L107.3,8.5c0-3.3,2.5-6.1,6.1-6.1c2.1,0,3.3,0.6,4.5,1.6l-1.3,1.6
		c-0.9-0.8-1.8-1.3-3.3-1.3c-2.2,0-3.8,1.9-3.8,4.2v0c0,2.4,1.6,4.2,4,4.2c1.1,0,2.1-0.4,2.9-0.9V9.6h-3V7.7h5v5
		c-1.2,1-2.8,1.8-4.9,1.8C109.8,14.5,107.3,11.9,107.3,8.5z"/>
	<path id="XMLID_67_" class="st0" d="M121.1,2.5h8.8v1.9h-6.7v3.1h5.9v1.9h-5.9v3.2h6.8v1.9h-8.8V2.5z"/>
	<path id="XMLID_69_" class="st0" d="M138.1,0.9h1.8l-7.6,15.6h-1.8L138.1,0.9z"/>
	<path id="XMLID_71_" class="st0" d="M52.1,24.7h-3.7v-1.9h9.6v1.9h-3.7v9.9h-2.1V24.7z"/>
	<path id="XMLID_73_" class="st0" d="M60.1,22.8h5.3c1.5,0,2.6,0.4,3.4,1.2c0.6,0.6,1,1.5,1,2.5v0c0,1.9-1.2,3.1-2.8,3.6l3.2,4.5
		h-2.4l-2.9-4.1h-2.6v4.1h-2.1V22.8z M65.2,28.6c1.5,0,2.4-0.8,2.4-2v0c0-1.3-0.9-2-2.4-2h-3v4H65.2z"/>
	<path id="XMLID_76_" class="st0" d="M76.5,22.7h1.9l5.2,11.9h-2.2l-1.2-2.9h-5.6l-1.2,2.9h-2.1L76.5,22.7z M79.5,29.9l-2-4.7
		l-2,4.7H79.5z"/>
	<path id="XMLID_79_" class="st0" d="M85.7,22.8h4.4c3.7,0,6.3,2.5,6.3,5.9v0c0,3.3-2.6,5.9-6.3,5.9h-4.4V22.8z M90.1,32.7
		c2.5,0,4.1-1.7,4.1-4v0c0-2.3-1.6-4-4.1-4h-2.3v8H90.1z"/>
	<path id="XMLID_82_" class="st0" d="M98.9,22.8h8.8v1.9h-6.7v3.1h5.9v1.9h-5.9v3.2h6.8v1.9h-8.8V22.8z"/>
</g>
<line class="st1" x1="34.7" y1="7" x2="0.1" y2="3.8"/>
</svg>
