<?xml version="1.0" encoding="utf-8"?>
<!-- Generator: Adobe Illustrator 19.0.0, SVG Export Plug-In . SVG Version: 6.00 Build 0)  -->
<svg version="1.1" id="Layer_1" xmlns="http://www.w3.org/2000/svg" xmlns:xlink="http://www.w3.org/1999/xlink" x="0px" y="0px"
	 viewBox="0 0 167.9 39.2" style="enable-background:new 0 0 167.9 39.2;" xml:space="preserve">
<style type="text/css">
	.st0{fill:#E07027;}
	.st1{fill:none;stroke:#E07027;stroke-width:3;stroke-miterlimit:10;}
</style>
<g id="XMLID_14_">
	<path id="XMLID_15_" class="st0" d="M1.5,2.5h2.1v9.9h6.2v1.9H1.5V2.5z"/>
	<path id="XMLID_17_" class="st0" d="M12,2.5h8.8v1.9H14v3.1H20v1.9H14v3.2h6.8v1.9H12V2.5z"/>
	<path id="XMLID_19_" class="st0" d="M22.5,12.6l1.2-1.5c1.1,1,2.3,1.5,3.7,1.5c1.3,0,2.1-0.6,2.1-1.5v0c0-0.8-0.5-1.3-2.7-1.8
		C24.4,8.7,23,8,23,5.8v0c0-2,1.7-3.4,4-3.4c1.7,0,3.1,0.5,4.3,1.5l-1.1,1.6c-1.1-0.8-2.1-1.2-3.2-1.2c-1.2,0-1.9,0.6-1.9,1.4v0
		c0,0.9,0.5,1.3,2.8,1.9c2.5,0.6,3.8,1.5,3.8,3.5v0c0,2.2-1.7,3.5-4.2,3.5C25.6,14.5,23.9,13.9,22.5,12.6z"/>
	<path id="XMLID_21_" class="st0" d="M33.1,12.6l1.2-1.5c1.1,1,2.3,1.5,3.7,1.5c1.3,0,2.1-0.6,2.1-1.5v0c0-0.8-0.5-1.3-2.7-1.8
		C35,8.7,33.6,8,33.6,5.8v0c0-2,1.7-3.4,4-3.4c1.7,0,3.1,0.5,4.3,1.5l-1.1,1.6c-1.1-0.8-2.1-1.2-3.2-1.2c-1.2,0-1.9,0.6-1.9,1.4v0
		c0,0.9,0.5,1.3,2.8,1.9C41,8.1,42.3,9,42.3,11v0c0,2.2-1.7,3.5-4.2,3.5C36.2,14.5,34.5,13.9,33.1,12.6z"/>
	<path id="XMLID_23_" class="st0" d="M52.7,4.5h-3.7V2.5h9.6v1.9h-3.7v9.9h-2.1V4.5z"/>
	<path id="XMLID_25_" class="st0" d="M60.7,2.5h2.1v4.9h5.6V2.5h2.1v11.8h-2.1v-5h-5.6v5h-2.1V2.5z"/>
	<path id="XMLID_27_" class="st0" d="M77.7,2.4h1.9l5.2,11.9h-2.2l-1.2-2.9h-5.6l-1.2,2.9h-2.1L77.7,2.4z M80.7,9.7l-2-4.7l-2,4.7
		H80.7z"/>
	<path id="XMLID_30_" class="st0" d="M86.9,2.5h1.9l6.3,8.2V2.5h2v11.8h-1.7l-6.5-8.4v8.4h-2V2.5z"/>
	<path id="XMLID_32_" class="st0" d="M1.5,22.8h2.1v4.9h5.6v-4.9h2.1v11.8H9.2v-5H3.6v5H1.5V22.8z"/>
	<path id="XMLID_34_" class="st0" d="M14.5,22.8h2.1v11.8h-2.1V22.8z"/>
	<path id="XMLID_36_" class="st0" d="M19.2,28.7L19.2,28.7c0-3.3,2.5-6.1,6.1-6.1c2.1,0,3.3,0.6,4.5,1.6l-1.3,1.6
		c-0.9-0.8-1.8-1.3-3.3-1.3c-2.2,0-3.8,1.9-3.8,4.2v0c0,2.4,1.6,4.2,4,4.2c1.1,0,2.1-0.4,2.9-0.9v-2.2h-3V28h5v5
		c-1.2,1-2.8,1.8-4.9,1.8C21.6,34.8,19.2,32.2,19.2,28.7z"/>
	<path id="XMLID_38_" class="st0" d="M32.9,22.8H35v4.9h5.6v-4.9h2.1v11.8h-2.1v-5H35v5h-2.1V22.8z"/>
	<path id="XMLID_40_" class="st0" d="M50,32.9l1.2-1.5c1.1,1,2.3,1.5,3.7,1.5c1.3,0,2.1-0.6,2.1-1.5v0c0-0.8-0.5-1.3-2.7-1.8
		c-2.5-0.6-3.9-1.4-3.9-3.5v0c0-2,1.7-3.4,4-3.4c1.7,0,3.1,0.5,4.3,1.5l-1.1,1.6c-1.1-0.8-2.1-1.2-3.2-1.2c-1.2,0-1.9,0.6-1.9,1.4v0
		c0,0.9,0.5,1.3,2.8,1.9c2.5,0.6,3.8,1.5,3.8,3.5v0c0,2.2-1.7,3.5-4.2,3.5C53.1,34.8,51.4,34.1,50,32.9z"/>
	<path id="XMLID_42_" class="st0" d="M61.1,28.7L61.1,28.7c0-3.4,2.5-6.1,6.1-6.1c2.2,0,3.5,0.8,4.6,1.8L70.5,26
		c-0.9-0.9-2-1.5-3.3-1.5c-2.3,0-3.9,1.9-3.9,4.2v0c0,2.3,1.6,4.2,3.9,4.2c1.5,0,2.4-0.6,3.4-1.5l1.3,1.4c-1.2,1.3-2.6,2.1-4.8,2.1
		C63.7,34.8,61.1,32.1,61.1,28.7z"/>
	<path id="XMLID_44_" class="st0" d="M74.1,22.8h2.1v4.9h5.6v-4.9h2.1v11.8h-2.1v-5h-5.6v5h-2.1V22.8z"/>
	<path id="XMLID_46_" class="st0" d="M86.4,28.7L86.4,28.7c0-3.4,2.6-6.1,6.2-6.1c3.6,0,6.2,2.8,6.2,6.1v0c0,3.3-2.6,6.1-6.2,6.1
		S86.4,32,86.4,28.7z M96.5,28.7L96.5,28.7c0-2.3-1.7-4.2-4-4.2c-2.3,0-4,1.9-4,4.2v0c0,2.3,1.7,4.2,4,4.2
		C94.9,32.9,96.5,31,96.5,28.7z"/>
	<path id="XMLID_49_" class="st0" d="M100.7,28.7L100.7,28.7c0-3.4,2.6-6.1,6.2-6.1c3.6,0,6.2,2.8,6.2,6.1v0c0,3.3-2.6,6.1-6.2,6.1
		S100.7,32,100.7,28.7z M110.9,28.7L110.9,28.7c0-2.3-1.7-4.2-4-4.2c-2.3,0-4,1.9-4,4.2v0c0,2.3,1.7,4.2,4,4.2
		C109.3,32.9,110.9,31,110.9,28.7z"/>
	<path id="XMLID_52_" class="st0" d="M115.6,22.8h2.1v9.9h6.2v1.9h-8.3V22.8z"/>
</g>
<line class="st1" x1="126.2" y1="12.6" x2="167.8" y2="15.8"/>
</svg>
