<?xml version="1.0" encoding="utf-8"?>
<!-- Generator: Adobe Illustrator 19.0.0, SVG Export Plug-In . SVG Version: 6.00 Build 0)  -->
<svg version="1.1" id="Layer_1" xmlns="http://www.w3.org/2000/svg" xmlns:xlink="http://www.w3.org/1999/xlink" x="0px" y="0px"
	 viewBox="0 0 163.4 12.8" style="enable-background:new 0 0 163.4 12.8;" xml:space="preserve">
<style type="text/css">
	.st0{fill:#AE64A1;}
	.st1{fill:none;stroke:#AE64A1;stroke-width:3;stroke-miterlimit:10;}
</style>
<g id="XMLID_14_">
	<path id="XMLID_15_" class="st0" d="M58.2,7V0.2h2.1v6.7c0,2.2,1.1,3.4,3,3.4c1.8,0,3-1.1,3-3.3V0.2h2.1v6.7c0,3.5-2,5.3-5.1,5.3
		C60.2,12.2,58.2,10.4,58.2,7z"/>
	<path id="XMLID_17_" class="st0" d="M71.2,0.2h1.9l6.3,8.2V0.2h2V12h-1.7l-6.5-8.4V12h-2V0.2z"/>
	<path id="XMLID_19_" class="st0" d="M84.6,0.2h2.1V12h-2.1V0.2z"/>
	<path id="XMLID_21_" class="st0" d="M88.9,0.2h2.3l3.6,9.1l3.5-9.1h2.2l-4.9,11.9h-1.8L88.9,0.2z"/>
	<path id="XMLID_23_" class="st0" d="M102.5,0.2h8.8V2h-6.7v3.1h5.9V7h-5.9v3.2h6.8V12h-8.8V0.2z"/>
	<path id="XMLID_25_" class="st0" d="M113.8,0.2h5.3c1.5,0,2.6,0.4,3.4,1.2c0.6,0.6,1,1.5,1,2.5v0c0,1.9-1.2,3.1-2.8,3.6l3.2,4.5
		h-2.4l-2.9-4.1h-2.6V12h-2.1V0.2z M119,6c1.5,0,2.4-0.8,2.4-2v0c0-1.3-0.9-2-2.4-2h-3v4H119z"/>
	<path id="XMLID_28_" class="st0" d="M125.2,10.3l1.2-1.5c1.1,1,2.3,1.5,3.7,1.5c1.3,0,2.1-0.6,2.1-1.5v0c0-0.8-0.5-1.3-2.7-1.8
		c-2.5-0.6-3.9-1.4-3.9-3.5v0c0-2,1.7-3.4,4-3.4c1.7,0,3.1,0.5,4.3,1.5l-1.1,1.6c-1.1-0.8-2.1-1.2-3.2-1.2c-1.2,0-1.9,0.6-1.9,1.4v0
		c0,0.9,0.5,1.3,2.8,1.9c2.5,0.6,3.8,1.5,3.8,3.5v0c0,2.2-1.7,3.5-4.2,3.5C128.4,12.2,126.7,11.5,125.2,10.3z"/>
	<path id="XMLID_30_" class="st0" d="M137,0.2h2.1V12H137V0.2z"/>
	<path id="XMLID_32_" class="st0" d="M145.1,2.1h-3.7V0.2h9.6v1.9h-3.7V12h-2.1V2.1z"/>
	<path id="XMLID_34_" class="st0" d="M156.6,7.3l-4.7-7.2h2.4l3.3,5.2l3.3-5.2h2.4l-4.7,7.1V12h-2.1V7.3z"/>
</g>
<line class="st1" x1="45.9" y1="7" x2="0.1" y2="11.3"/>
</svg>
