<?xml version="1.0" encoding="utf-8"?>
<!-- Generator: Adobe Illustrator 19.0.0, SVG Export Plug-In . SVG Version: 6.00 Build 0)  -->
<svg version="1.1" id="Layer_1" xmlns="http://www.w3.org/2000/svg" xmlns:xlink="http://www.w3.org/1999/xlink" x="0px" y="0px"
	 viewBox="0 0 113.9 123.9" style="enable-background:new 0 0 113.9 123.9;" xml:space="preserve">
<style type="text/css">
	.st0{clip-path:url(#SVGID_2_);}
	.st1{fill:#AE64A1;}
	.st2{fill:#F1B41C;}
	.st3{fill:#E07027;}
	.st4{fill:#64C6C6;}
	.st5{fill:#FFFFFF;}
</style>
<g>
	<defs>
		<path id="SVGID_1_" d="M40.7,22.2c3.9-0.2,7.7,0.4,11.7,0.7V2.7c0-1.4,1.1-2.5,2.5-2.5h4c1.4,0,2.5,1.1,2.5,2.5v15.1
			C67,9.7,76.5,1.4,82.5,0.3c13.5-2.6,6.6,15.3-3.8,26.3c19.1-1.9,31.3,9.7,34.4,25.2c3.3,16.6-4.2,37.9-6.1,42.7
			c-4.4,11-11.7,20.1-21.9,25.7c-8.3,4.5-17,4.5-25.8,1.2c-2-0.8-4.9-0.4-7,0.5c-12.9,5.4-23-0.3-32.2-9
			C7.4,100.7,1.7,84.6,0.2,67.1C-1.7,44.6,9,23.5,40.7,22.2z"/>
	</defs>
	<clipPath id="SVGID_2_">
		<use xlink:href="#SVGID_1_"  style="overflow:visible;"/>
	</clipPath>
	<g class="st0">
		<path class="st1" d="M48.6-12c44.8-5,85.3,25.9,92.7,69.8L58,72L48.6-12z"/>
		<path class="st2" d="M58,72l-17.2,82.7C6,147.5-21.8,118.7-26,81.4c-1.6-14.6,0.5-28.8,5.8-41.5L58,72z"/>
		<path class="st3" d="M-20.2,39.9C-8.8,12.3,16.8-8.4,48.6-12L58,72L-20.2,39.9z"/>
		<path class="st4" d="M141.3,57.8c0.3,1.6,0.5,3.1,0.7,4.7c5.2,46.4-28.1,88.2-74.5,93.4c-9.1,1-18.1,0.6-26.7-1.2L58,72
			L141.3,57.8z"/>
	</g>
</g>
<g id="XMLID_70_">
	<path id="XMLID_71_" class="st5" d="M26.3,40l-2.4,0.6l-0.8-3.1l4.2-1.2h2.9v14.6h-4V40z"/>
	<path id="XMLID_73_" class="st5" d="M34.8,49.5c-1.1-1.1-1.8-2.7-1.8-5.4v0c0-4.5,2.2-8,6.7-8c2,0,3.4,0.6,4.8,1.6l-1.9,2.8
		c-0.9-0.7-1.7-1.1-2.9-1.1c-1.7,0-2.5,1.3-2.7,3.1c0.8-0.6,1.7-1.1,3.1-1.1c2.5,0,4.8,1.6,4.8,4.5v0c0,3.3-2.6,5.2-5.8,5.2
		C37.2,51.2,35.9,50.6,34.8,49.5z M41.1,46.2L41.1,46.2c0-1.1-0.8-1.9-2.1-1.9c-1.3,0-2,0.8-2,1.8v0c0,1.1,0.8,1.9,2,1.9
		C40.4,48.1,41.1,47.3,41.1,46.2z"/>
</g>
<g id="XMLID_63_">
	<path id="XMLID_64_" class="st5" d="M17.9,86.7l5.4-4.1c1.3-1.1,1.9-1.7,1.9-2.6c0-0.9-0.6-1.5-1.6-1.5s-1.7,0.6-2.9,1.9l-2.7-2.3
		c1.6-2,3.1-3.1,5.9-3.1c3.2,0,5.3,1.9,5.3,4.6v0c0,2.3-1.2,3.5-3.4,5.1l-2.5,1.7h6v3.3H17.9V86.7z"/>
	<path id="XMLID_66_" class="st5" d="M31.2,85.8L31.2,85.8c0-1.8,0.9-2.9,2.5-3.5c-1.1-0.6-2-1.6-2-3.1v0c0-2.3,2.2-4,5.5-4
		s5.5,1.7,5.5,4v0c0,1.6-0.9,2.5-2,3.1c1.5,0.7,2.5,1.7,2.5,3.5v0c0,2.6-2.5,4.3-6,4.3S31.2,88.3,31.2,85.8z M39.2,85.4L39.2,85.4
		c0-1-0.9-1.6-2.1-1.6S35,84.4,35,85.3v0c0,0.9,0.7,1.6,2.1,1.6S39.2,86.2,39.2,85.4z M38.9,79.6L38.9,79.6c0-0.8-0.7-1.6-1.8-1.6
		c-1.1,0-1.8,0.7-1.8,1.5v0c0,0.9,0.7,1.6,1.8,1.6S38.9,80.5,38.9,79.6z"/>
</g>
<g id="XMLID_32_">
	<path id="XMLID_33_" class="st5" d="M66.8,95.1l2.5-2.5c1,1.1,2.1,1.7,3.5,1.7c1.1,0,1.9-0.6,1.9-1.5v0c0-0.9-0.8-1.5-2.4-1.5h-1.7
		L70,89.2l3.3-3h-5.5v-3.3h10.5v2.9l-3.5,3c2.1,0.5,3.7,1.6,3.7,4.1v0c0,2.9-2.4,4.8-5.6,4.8C70.1,97.7,68.2,96.7,66.8,95.1z"/>
	<path id="XMLID_35_" class="st5" d="M83.1,86.6l-2.4,0.6L79.9,84l4.2-1.2h2.9v14.6h-4V86.6z"/>
</g>
<g id="XMLID_27_">
	<path id="XMLID_28_" class="st5" d="M69.8,52.3l5.4-4.1c1.3-1.1,1.9-1.7,1.9-2.6c0-0.9-0.6-1.5-1.6-1.5c-1,0-1.7,0.6-2.9,1.9
		l-2.7-2.3c1.6-2,3.1-3.1,5.9-3.1c3.2,0,5.3,1.9,5.3,4.6v0c0,2.3-1.2,3.5-3.4,5.1L75.2,52h6v3.3H69.8V52.3z"/>
	<path id="XMLID_30_" class="st5" d="M82.9,53.3l2.3-2.7c1.2,1,2.3,1.6,3.5,1.6c1.3,0,2.1-0.7,2.1-1.7v0c0-1-0.9-1.7-2.1-1.7
		c-0.9,0-1.6,0.3-2.3,0.7L84,48.2l0.4-7.4h9.7v3.3h-6.5l-0.1,2.2c0.7-0.3,1.3-0.5,2.3-0.5c2.6,0,5,1.4,5,4.6v0c0,3.2-2.5,5.2-6,5.2
		C86.2,55.6,84.4,54.7,82.9,53.3z"/>
</g>
</svg>
