<?xml version="1.0" encoding="utf-8"?>
<!-- Generator: Adobe Illustrator 19.0.0, SVG Export Plug-In . SVG Version: 6.00 Build 0)  -->
<svg version="1.1" id="Layer_1" xmlns="http://www.w3.org/2000/svg" xmlns:xlink="http://www.w3.org/1999/xlink" x="0px" y="0px"
	 viewBox="-843.2 411.4 326 321.6" style="enable-background:new -843.2 411.4 326 321.6;" xml:space="preserve">
<style type="text/css">
	.st0{fill:#8B5E3C;}
	.st1{fill:#A97C50;}
	.st2{fill:#414042;}
	.st3{fill:#009444;}
	.st4{fill:#603913;}
	.st5{fill:#FFFFFF;}
	.st6{opacity:0.3;}
	.st7{fill:#EEB600;}
</style>
<g id="XMLID_4_">
	<g id="XMLID_3_">
		<g>
			<rect x="-797.1" y="652" class="st0" width="28.5" height="81"/>
		</g>
	</g>
	<g id="XMLID_6_">
		<g>
			<rect x="-617.4" y="652" class="st0" width="28.5" height="81"/>
		</g>
	</g>
</g>
<g id="XMLID_1_">
	<g id="XMLID_73_">
		<path class="st1" d="M-527.2,433.7v219.6c0,6.8-5.5,12.3-12.3,12.3h-281.4c-6.8,0-12.3-5.5-12.3-12.3V433.7
			c0-6.8,5.5-12.3,12.3-12.3h281.5C-532.7,421.5-527.2,426.9-527.2,433.7z"/>
	</g>
	<g id="XMLID_76_">
		<path class="st2" d="M-517.2,433.7v219.6c0,12.3-10,22.3-22.3,22.3h-281.4c-12.3,0-22.3-10-22.3-22.3V433.7
			c0-12.3,10-22.3,22.3-22.3h281.5C-527.2,411.5-517.2,421.4-517.2,433.7z M-823.2,653.3c0,1.3,1,2.3,2.3,2.3l281.5,0
			c1.2,0,2.3-1,2.3-2.3V433.7c0-1.2-1-2.3-2.3-2.3h-281.5c-1.2,0-2.3,1-2.3,2.3V653.3z"/>
	</g>
</g>
<g id="XMLID_20_">
	<g>
		<rect x="-803.9" y="714.1" class="st3" width="41.3" height="18.9"/>
	</g>
</g>
<g id="XMLID_22_">
	<g>
		<rect x="-623.8" y="714.1" class="st3" width="41.3" height="18.9"/>
	</g>
</g>
<g id="XMLID_23_">
	<g>
		<polygon class="st4" points="-797.1,675.6 -768.6,675.6 -768.6,696.2 		"/>
	</g>
</g>
<g id="XMLID_24_">
	<g>
		<polygon class="st4" points="-617.4,675.5 -588.9,675.5 -588.9,696.2 		"/>
	</g>
</g>
<g>
	<g>
		<g>
			<path class="st5" d="M-777.3,580c0.8,0.3,1.5,0.8,2.1,1.5c0.5,0.7,0.8,1.5,0.8,2.5s-0.2,1.8-0.6,2.5c-0.4,0.7-1,1.3-1.6,1.7
				c-0.7,0.4-1.4,0.8-2.3,1s-1.7,0.3-2.6,0.3c-0.9,0-1.8-0.1-2.6-0.3c-0.9-0.2-1.6-0.5-2.3-0.9c-0.7-0.4-1.2-1-1.6-1.7
				c-0.4-0.7-0.6-1.5-0.6-2.5c0-0.9,0.3-1.8,0.8-2.4c0.5-0.7,1.2-1.2,2.1-1.6V580c-0.7-0.3-1.3-0.7-1.8-1.4
				c-0.5-0.6-0.8-1.4-0.8-2.3c0-0.9,0.2-1.7,0.6-2.3c0.4-0.6,0.9-1.2,1.5-1.6c0.6-0.4,1.4-0.7,2.2-0.9s1.7-0.3,2.5-0.3
				c0.8,0,1.7,0.1,2.5,0.3s1.6,0.5,2.2,0.9c0.6,0.4,1.2,0.9,1.6,1.6c0.4,0.6,0.6,1.4,0.6,2.3c0,0.9-0.2,1.7-0.7,2.3
				C-775.9,579.2-776.5,579.7-777.3,580L-777.3,580z M-781.6,582.2c-0.5,0-0.9,0.1-1.1,0.4c-0.3,0.3-0.4,0.6-0.4,1
				c0,0.4,0.1,0.7,0.4,1c0.3,0.3,0.6,0.4,1.1,0.4c0.5,0,0.9-0.1,1.1-0.4c0.3-0.3,0.4-0.6,0.4-1c0-0.4-0.1-0.7-0.4-1
				C-780.7,582.4-781.1,582.2-781.6,582.2z M-781.6,575.6c-0.4,0-0.8,0.1-1,0.4c-0.3,0.3-0.4,0.6-0.4,0.9c0,0.3,0.1,0.6,0.4,0.9
				c0.3,0.3,0.6,0.4,1,0.4s0.8-0.1,1-0.4c0.3-0.3,0.4-0.6,0.4-0.9c0-0.3-0.1-0.6-0.4-0.9C-780.8,575.7-781.2,575.6-781.6,575.6z"/>
			<path class="st5" d="M-758.8,589h-5.3v-3h-8.3v-4.7l6.5-9.5h7v9.7h2.3v4.5h-2.3V589z M-764.1,577l-2.9,4.4h3L-764.1,577
				L-764.1,577z"/>
			<path class="st5" d="M-754.9,586.2c0-0.4,0.1-0.8,0.3-1.2s0.4-0.7,0.7-1c0.3-0.3,0.6-0.5,1-0.7c0.4-0.2,0.8-0.3,1.3-0.3
				c0.4,0,0.8,0.1,1.2,0.3c0.4,0.2,0.7,0.4,1,0.7s0.5,0.6,0.7,1c0.2,0.4,0.3,0.8,0.3,1.2c0,0.4-0.1,0.9-0.3,1.2
				c-0.2,0.4-0.4,0.7-0.7,1c-0.3,0.3-0.6,0.5-1,0.7c-0.4,0.2-0.8,0.2-1.2,0.2c-0.4,0-0.9-0.1-1.3-0.2c-0.4-0.2-0.7-0.4-1-0.7
				c-0.3-0.3-0.5-0.6-0.7-1C-754.8,587.1-754.9,586.7-754.9,586.2z"/>
			<path class="st5" d="M-737.1,577.1c0.7,0,1.5,0.1,2.2,0.4c0.7,0.3,1.3,0.6,1.9,1.1c0.6,0.5,1,1.1,1.3,1.8s0.5,1.5,0.5,2.5
				c0,1.1-0.2,2-0.6,2.9c-0.4,0.8-1,1.5-1.7,2.1s-1.5,1-2.4,1.2c-0.9,0.3-1.9,0.4-2.9,0.4c-1,0-2-0.1-2.9-0.4
				c-0.9-0.3-1.7-0.7-2.4-1.2c-0.7-0.5-1.2-1.2-1.7-2c-0.4-0.8-0.6-1.8-0.6-2.9c0-1.1,0.2-2.1,0.6-3.1c0.4-0.9,0.9-1.8,1.5-2.6
				l3.9-5.5h7l-4,5.1l-0.2,0.3H-737.1z M-738.8,581.2c-0.5,0-0.9,0.2-1.3,0.5s-0.5,0.7-0.5,1.2c0,0.5,0.2,0.9,0.5,1.3
				c0.3,0.3,0.8,0.5,1.3,0.5c0.6,0,1-0.2,1.3-0.5c0.3-0.3,0.5-0.8,0.5-1.3c0-0.5-0.2-0.9-0.5-1.2
				C-737.8,581.3-738.2,581.2-738.8,581.2z"/>
			<path class="st5" d="M-787,601.5h4.9v1.2h-6.2v-9.3h6v1.1h-4.7v2.8h4.4v1.1h-4.4V601.5z"/>
			<path class="st5" d="M-776.1,602.6c0-0.2,0-0.3,0-0.5c0-0.2,0-0.4,0-0.5h0c-0.2,0.3-0.4,0.6-0.8,0.8c-0.4,0.2-0.8,0.3-1.2,0.3
				c-0.4,0-0.8-0.1-1-0.2s-0.5-0.3-0.7-0.5c-0.2-0.2-0.3-0.5-0.4-0.8c-0.1-0.3-0.1-0.6-0.1-1v-3.9h1.2v3.4c0,0.3,0,0.5,0.1,0.7
				c0,0.2,0.1,0.4,0.2,0.6c0.1,0.2,0.2,0.3,0.4,0.4c0.2,0.1,0.4,0.2,0.7,0.2c0.5,0,0.9-0.2,1.2-0.6c0.3-0.4,0.5-0.9,0.5-1.5v-3.3
				h1.2v4.9c0,0.2,0,0.4,0,0.6s0,0.5,0,0.7H-776.1z"/>
			<path class="st5" d="M-772.9,597.1c0-0.3,0-0.5,0-0.7h1.2c0,0.2,0,0.3,0,0.5c0,0.2,0,0.4,0,0.5h0c0.2-0.4,0.4-0.7,0.8-0.9
				c0.3-0.2,0.7-0.3,1.1-0.3c0.2,0,0.4,0,0.5,0.1l-0.1,1.1c-0.2,0-0.4-0.1-0.6-0.1c-0.3,0-0.6,0.1-0.8,0.2c-0.2,0.1-0.4,0.3-0.5,0.4
				c-0.1,0.2-0.3,0.4-0.3,0.6c-0.1,0.2-0.1,0.5-0.1,0.8v3.3h-1.2v-4.9C-772.9,597.6-772.9,597.4-772.9,597.1z"/>
			<path class="st5" d="M-762.1,599.5c0,0.5-0.1,0.9-0.3,1.3c-0.2,0.4-0.4,0.8-0.7,1s-0.7,0.5-1.1,0.7c-0.4,0.2-0.9,0.2-1.3,0.2
				c-0.5,0-0.9-0.1-1.3-0.2c-0.4-0.2-0.8-0.4-1.1-0.7c-0.3-0.3-0.5-0.6-0.7-1c-0.2-0.4-0.3-0.8-0.3-1.3c0-0.5,0.1-0.9,0.3-1.3
				c0.2-0.4,0.4-0.7,0.7-1c0.3-0.3,0.7-0.5,1.1-0.7c0.4-0.2,0.9-0.2,1.3-0.2c0.5,0,0.9,0.1,1.3,0.2c0.4,0.2,0.8,0.4,1.1,0.7
				c0.3,0.3,0.5,0.6,0.7,1C-762.1,598.6-762.1,599-762.1,599.5z M-763.3,599.5c0-0.3,0-0.6-0.1-0.9c-0.1-0.3-0.2-0.5-0.4-0.7
				c-0.2-0.2-0.4-0.4-0.7-0.5s-0.6-0.2-0.9-0.2s-0.6,0.1-0.9,0.2c-0.3,0.1-0.5,0.3-0.7,0.5c-0.2,0.2-0.3,0.4-0.4,0.7
				c-0.1,0.3-0.1,0.6-0.1,0.9c0,0.3,0,0.6,0.1,0.8c0.1,0.3,0.2,0.5,0.4,0.7c0.2,0.2,0.4,0.4,0.7,0.5c0.3,0.1,0.6,0.2,0.9,0.2
				s0.6-0.1,0.9-0.2s0.5-0.3,0.7-0.5c0.2-0.2,0.3-0.4,0.4-0.7C-763.4,600.1-763.3,599.8-763.3,599.5z"/>
			<path class="st5" d="M-759.1,605.8h-1.2v-9.4h1.2v1h0c0.2-0.3,0.5-0.6,0.9-0.8c0.4-0.2,0.8-0.3,1.4-0.3c0.5,0,0.9,0.1,1.3,0.2
				c0.4,0.2,0.7,0.4,1,0.7c0.3,0.3,0.5,0.6,0.6,1c0.1,0.4,0.2,0.8,0.2,1.3s-0.1,0.9-0.2,1.3c-0.1,0.4-0.4,0.8-0.6,1
				c-0.3,0.3-0.6,0.5-1,0.7c-0.4,0.2-0.8,0.3-1.3,0.3c-0.4,0-0.9-0.1-1.3-0.3s-0.7-0.5-0.9-0.8h0V605.8z M-755,599.5
				c0-0.3,0-0.6-0.1-0.8c-0.1-0.3-0.2-0.5-0.4-0.7c-0.2-0.2-0.4-0.4-0.6-0.5c-0.3-0.1-0.6-0.2-0.9-0.2c-0.3,0-0.6,0.1-0.9,0.2
				c-0.3,0.1-0.5,0.3-0.7,0.5s-0.3,0.5-0.4,0.7c-0.1,0.3-0.2,0.6-0.2,0.9c0,0.3,0,0.6,0.2,0.9c0.1,0.3,0.2,0.5,0.4,0.7
				c0.2,0.2,0.4,0.4,0.7,0.5c0.3,0.1,0.5,0.2,0.9,0.2c0.3,0,0.6-0.1,0.9-0.2c0.3-0.1,0.5-0.3,0.6-0.5c0.2-0.2,0.3-0.5,0.4-0.7
				C-755.1,600.1-755,599.8-755,599.5z"/>
			<path class="st5" d="M-746.2,599.5c0,0.1,0,0.1,0,0.2c0,0.1,0,0.1,0,0.2h-4.9c0,0.3,0.1,0.5,0.2,0.7c0.1,0.2,0.3,0.4,0.4,0.6
				s0.4,0.3,0.6,0.4c0.2,0.1,0.5,0.1,0.8,0.1c0.4,0,0.8-0.1,1.1-0.3s0.5-0.4,0.7-0.7l0.9,0.7c-0.3,0.4-0.7,0.8-1.2,1
				c-0.5,0.2-1,0.3-1.5,0.3c-0.5,0-0.9-0.1-1.3-0.2s-0.7-0.4-1-0.7c-0.3-0.3-0.5-0.6-0.7-1c-0.2-0.4-0.2-0.8-0.2-1.3
				c0-0.5,0.1-0.9,0.2-1.3c0.2-0.4,0.4-0.8,0.7-1c0.3-0.3,0.6-0.5,1-0.7c0.4-0.2,0.8-0.2,1.3-0.2c0.5,0,0.9,0.1,1.2,0.2
				c0.4,0.1,0.7,0.4,0.9,0.6c0.3,0.3,0.5,0.6,0.6,1C-746.3,598.5-746.2,599-746.2,599.5z M-747.5,599c0-0.2-0.1-0.5-0.1-0.7
				c-0.1-0.2-0.2-0.4-0.3-0.6c-0.1-0.2-0.3-0.3-0.5-0.4c-0.2-0.1-0.5-0.1-0.8-0.1c-0.3,0-0.5,0-0.7,0.1c-0.2,0.1-0.4,0.2-0.6,0.4
				s-0.3,0.3-0.4,0.6c-0.1,0.2-0.2,0.4-0.2,0.7H-747.5z"/>
			<path class="st5" d="M-740.7,598.6c0-0.5-0.1-0.8-0.4-1c-0.3-0.2-0.7-0.3-1.1-0.3c-0.4,0-0.7,0.1-1,0.2s-0.6,0.3-0.8,0.5
				l-0.7-0.8c0.3-0.3,0.7-0.5,1.1-0.7c0.4-0.2,0.9-0.2,1.4-0.2c0.4,0,0.8,0.1,1.2,0.2s0.6,0.3,0.8,0.5c0.2,0.2,0.4,0.5,0.5,0.8
				s0.2,0.6,0.2,1v2.7c0,0.2,0,0.4,0,0.7c0,0.2,0,0.4,0.1,0.6h-1.1c-0.1-0.3-0.1-0.6-0.1-0.9h0c-0.2,0.3-0.5,0.6-0.9,0.8
				c-0.3,0.2-0.8,0.3-1.2,0.3c-0.2,0-0.5,0-0.8-0.1c-0.3-0.1-0.5-0.2-0.7-0.3c-0.2-0.1-0.4-0.3-0.5-0.6c-0.1-0.2-0.2-0.5-0.2-0.9
				c0-0.5,0.1-0.8,0.4-1.1c0.3-0.3,0.6-0.5,1-0.6c0.4-0.1,0.9-0.2,1.4-0.3c0.5,0,1-0.1,1.6-0.1V598.6z M-741,599.7c-0.3,0-0.6,0-1,0
				c-0.3,0-0.6,0.1-0.9,0.2c-0.3,0.1-0.5,0.2-0.7,0.4c-0.2,0.2-0.3,0.4-0.3,0.6c0,0.2,0,0.3,0.1,0.5c0.1,0.1,0.2,0.2,0.3,0.3
				c0.1,0.1,0.3,0.1,0.4,0.2c0.1,0,0.3,0,0.5,0c0.6,0,1-0.2,1.3-0.5c0.3-0.3,0.5-0.8,0.5-1.3v-0.3H-741z"/>
			<path class="st5" d="M-736.4,596.4c0,0.2,0,0.3,0,0.5c0,0.2,0,0.4,0,0.5h0c0.1-0.2,0.2-0.3,0.3-0.5c0.1-0.1,0.3-0.3,0.5-0.4
				s0.4-0.2,0.6-0.3s0.4-0.1,0.7-0.1c0.4,0,0.7,0.1,1,0.2s0.5,0.3,0.7,0.5c0.2,0.2,0.3,0.5,0.4,0.8c0.1,0.3,0.1,0.6,0.1,1v3.9h-1.2
				v-3.5c0-0.3,0-0.5-0.1-0.7c0-0.2-0.1-0.4-0.2-0.6s-0.2-0.3-0.4-0.4c-0.2-0.1-0.4-0.2-0.7-0.2c-0.5,0-0.9,0.2-1.2,0.6
				c-0.3,0.4-0.5,0.9-0.5,1.5v3.3h-1.2v-4.9c0-0.2,0-0.4,0-0.6c0-0.3,0-0.5,0-0.7H-736.4z"/>
		</g>
		<g>
			<path class="st5" d="M-701.4,583.6c-0.7,0-1.5-0.1-2.2-0.4c-0.7-0.3-1.3-0.6-1.9-1.1c-0.6-0.5-1-1.1-1.3-1.8
				c-0.3-0.7-0.5-1.5-0.5-2.5c0-1.1,0.2-2,0.6-2.9c0.4-0.8,1-1.5,1.7-2.1c0.7-0.6,1.5-1,2.4-1.2c0.9-0.3,1.9-0.4,2.9-0.4
				c1,0,2,0.1,2.9,0.4s1.7,0.7,2.4,1.2s1.2,1.2,1.7,2c0.4,0.8,0.6,1.8,0.6,2.9c0,1.1-0.2,2.1-0.6,3.1s-0.9,1.8-1.5,2.6l-3.9,5.5h-7
				l4.1-5.3l0.1-0.1H-701.4z M-699.7,579.5c0.5,0,0.9-0.2,1.3-0.5s0.5-0.7,0.5-1.2c0-0.5-0.2-0.9-0.5-1.3c-0.3-0.3-0.8-0.5-1.3-0.5
				c-0.6,0-1,0.2-1.3,0.5c-0.3,0.3-0.5,0.8-0.5,1.3c0,0.5,0.2,0.9,0.5,1.2S-700.3,579.5-699.7,579.5z"/>
			<path class="st5" d="M-690,586.2c0-0.4,0.1-0.8,0.3-1.2c0.2-0.4,0.4-0.7,0.7-1c0.3-0.3,0.6-0.5,1-0.7c0.4-0.2,0.8-0.3,1.3-0.3
				c0.4,0,0.8,0.1,1.2,0.3c0.4,0.2,0.7,0.4,1,0.7c0.3,0.3,0.5,0.6,0.7,1s0.3,0.8,0.3,1.2c0,0.4-0.1,0.9-0.3,1.2
				c-0.2,0.4-0.4,0.7-0.7,1c-0.3,0.3-0.6,0.5-1,0.7c-0.4,0.2-0.8,0.2-1.2,0.2c-0.4,0-0.9-0.1-1.3-0.2c-0.4-0.2-0.7-0.4-1-0.7
				c-0.3-0.3-0.5-0.6-0.7-1C-690,587.1-690,586.7-690,586.2z"/>
			<path class="st5" d="M-666.6,583.2c0,1.2-0.2,2.2-0.7,3c-0.4,0.8-1,1.4-1.7,1.9c-0.7,0.5-1.5,0.8-2.3,1s-1.7,0.3-2.5,0.3
				c-0.9,0-1.7-0.1-2.6-0.4s-1.6-0.6-2.3-1c-0.7-0.5-1.3-1-1.8-1.7c-0.5-0.7-0.8-1.4-1-2.3l5.4-1.4c0.1,0.5,0.3,0.9,0.7,1.2
				c0.4,0.3,0.8,0.5,1.4,0.5c0.4,0,0.8-0.1,1.1-0.3c0.3-0.2,0.5-0.5,0.5-1c0-0.3-0.1-0.5-0.3-0.7s-0.4-0.3-0.7-0.5
				c-0.3-0.1-0.6-0.2-1-0.2c-0.4,0-0.7-0.1-1.1-0.1c-0.3,0-0.6,0-0.9,0s-0.8,0.1-1.2,0.1c-0.4,0-0.8,0.1-1.2,0.2
				c-0.4,0.1-0.8,0.1-1.2,0.2l0.6-10.5h11.7v4.8h-6.8l-0.1,1.2c0.2,0,0.5-0.1,0.7-0.1c0.2,0,0.4,0,0.6,0c0.9,0,1.7,0.1,2.5,0.3
				c0.8,0.2,1.5,0.5,2.1,1c0.6,0.4,1.1,1,1.4,1.7C-666.8,581.4-666.6,582.2-666.6,583.2z"/>
			<path class="st5" d="M-704.8,602.6h-1.3v-9.3h5.8v1.1h-4.5v2.9h4.2v1.1h-4.2V602.6z"/>
			<path class="st5" d="M-699.2,597.1c0-0.3,0-0.5,0-0.7h1.2c0,0.2,0,0.3,0,0.5c0,0.2,0,0.4,0,0.5h0c0.2-0.4,0.4-0.7,0.8-0.9
				c0.3-0.2,0.7-0.3,1.1-0.3c0.2,0,0.4,0,0.5,0.1l-0.1,1.1c-0.2,0-0.4-0.1-0.6-0.1c-0.3,0-0.6,0.1-0.8,0.2c-0.2,0.1-0.4,0.3-0.5,0.4
				c-0.1,0.2-0.3,0.4-0.3,0.6c-0.1,0.2-0.1,0.5-0.1,0.8v3.3h-1.2v-4.9C-699.2,597.6-699.2,597.4-699.2,597.1z"/>
			<path class="st5" d="M-688.9,599.5c0,0.1,0,0.1,0,0.2c0,0.1,0,0.1,0,0.2h-4.9c0,0.3,0.1,0.5,0.2,0.7c0.1,0.2,0.3,0.4,0.4,0.6
				s0.4,0.3,0.6,0.4c0.2,0.1,0.5,0.1,0.8,0.1c0.4,0,0.8-0.1,1.1-0.3c0.3-0.2,0.5-0.4,0.7-0.7l0.9,0.7c-0.3,0.4-0.7,0.8-1.2,1
				s-1,0.3-1.5,0.3c-0.5,0-0.9-0.1-1.3-0.2s-0.7-0.4-1-0.7c-0.3-0.3-0.5-0.6-0.7-1c-0.2-0.4-0.2-0.8-0.2-1.3c0-0.5,0.1-0.9,0.2-1.3
				c0.2-0.4,0.4-0.8,0.7-1c0.3-0.3,0.6-0.5,1-0.7c0.4-0.2,0.8-0.2,1.3-0.2c0.5,0,0.9,0.1,1.2,0.2c0.4,0.1,0.7,0.4,0.9,0.6
				c0.3,0.3,0.5,0.6,0.6,1C-689,598.5-688.9,599-688.9,599.5z M-690.2,599c0-0.2,0-0.5-0.1-0.7c-0.1-0.2-0.2-0.4-0.3-0.6
				s-0.3-0.3-0.5-0.4s-0.5-0.1-0.8-0.1c-0.3,0-0.5,0-0.7,0.1c-0.2,0.1-0.4,0.2-0.6,0.4c-0.2,0.2-0.3,0.3-0.4,0.6
				c-0.1,0.2-0.2,0.4-0.2,0.7H-690.2z"/>
			<path class="st5" d="M-686.1,596.4c0,0.2,0,0.3,0,0.5c0,0.2,0,0.4,0,0.5h0c0.1-0.2,0.2-0.3,0.3-0.5c0.1-0.1,0.3-0.3,0.5-0.4
				s0.4-0.2,0.6-0.3s0.4-0.1,0.7-0.1c0.4,0,0.7,0.1,1,0.2s0.5,0.3,0.7,0.5s0.3,0.5,0.4,0.8c0.1,0.3,0.1,0.6,0.1,1v3.9h-1.2v-3.5
				c0-0.3,0-0.5-0.1-0.7c0-0.2-0.1-0.4-0.2-0.6c-0.1-0.2-0.2-0.3-0.4-0.4c-0.2-0.1-0.4-0.2-0.7-0.2c-0.5,0-0.9,0.2-1.2,0.6
				c-0.3,0.4-0.5,0.9-0.5,1.5v3.3h-1.2v-4.9c0-0.2,0-0.4,0-0.6c0-0.3,0-0.5,0-0.7H-686.1z"/>
			<path class="st5" d="M-675.2,598c-0.1-0.2-0.3-0.4-0.6-0.5c-0.3-0.1-0.5-0.2-0.8-0.2c-0.3,0-0.6,0.1-0.9,0.2
				c-0.2,0.1-0.5,0.3-0.6,0.5s-0.3,0.4-0.4,0.7c-0.1,0.3-0.1,0.6-0.1,0.9c0,0.3,0,0.6,0.1,0.9c0.1,0.3,0.2,0.5,0.4,0.7
				c0.2,0.2,0.4,0.4,0.6,0.5c0.3,0.1,0.5,0.2,0.9,0.2c0.3,0,0.6-0.1,0.9-0.2c0.3-0.1,0.5-0.3,0.6-0.5l0.8,0.7
				c-0.3,0.3-0.6,0.5-1,0.7c-0.4,0.2-0.8,0.3-1.3,0.3c-0.5,0-0.9-0.1-1.3-0.2c-0.4-0.2-0.8-0.4-1.1-0.7c-0.3-0.3-0.5-0.6-0.7-1
				c-0.2-0.4-0.3-0.9-0.3-1.4c0-0.5,0.1-0.9,0.2-1.3s0.4-0.7,0.7-1c0.3-0.3,0.6-0.5,1.1-0.7c0.4-0.2,0.8-0.2,1.3-0.2
				c0.4,0,0.9,0.1,1.3,0.3s0.8,0.4,1,0.8L-675.2,598z"/>
			<path class="st5" d="M-671.8,597.4c0.1-0.3,0.4-0.6,0.8-0.8c0.4-0.2,0.8-0.3,1.2-0.3c0.4,0,0.7,0.1,1,0.2
				c0.3,0.1,0.5,0.3,0.7,0.5s0.3,0.5,0.4,0.8c0.1,0.3,0.1,0.6,0.1,1v3.9h-1.2v-3.4c0-0.3,0-0.5-0.1-0.7s-0.1-0.4-0.2-0.6
				c-0.1-0.2-0.2-0.3-0.4-0.4c-0.2-0.1-0.4-0.2-0.7-0.2c-0.5,0-0.9,0.2-1.2,0.6c-0.3,0.4-0.5,0.9-0.5,1.5v3.3h-1.2v-9.9h1.2
				L-671.8,597.4L-671.8,597.4z"/>
		</g>
		<g>
			<path class="st5" d="M-621.4,577.1c0.7,0,1.5,0.1,2.2,0.4c0.7,0.3,1.3,0.6,1.9,1.1c0.6,0.5,1,1.1,1.3,1.8s0.5,1.5,0.5,2.5
				c0,1.1-0.2,2-0.6,2.9s-1,1.5-1.7,2.1s-1.5,1-2.4,1.2c-0.9,0.3-1.9,0.4-2.9,0.4c-1,0-2-0.1-2.9-0.4c-0.9-0.3-1.7-0.7-2.4-1.2
				c-0.7-0.5-1.2-1.2-1.7-2c-0.4-0.8-0.6-1.8-0.6-2.9c0-1.1,0.2-2.1,0.6-3.1c0.4-0.9,0.9-1.8,1.5-2.6l3.9-5.5h7l-4,5.1l-0.2,0.3
				H-621.4z M-623.1,581.2c-0.5,0-0.9,0.2-1.3,0.5c-0.3,0.3-0.5,0.7-0.5,1.2c0,0.5,0.2,0.9,0.5,1.3c0.3,0.3,0.8,0.5,1.3,0.5
				c0.6,0,1-0.2,1.3-0.5c0.3-0.3,0.5-0.8,0.5-1.3c0-0.5-0.2-0.9-0.5-1.2C-622.1,581.3-622.5,581.2-623.1,581.2z"/>
			<path class="st5" d="M-613.4,586.2c0-0.4,0.1-0.8,0.3-1.2c0.2-0.4,0.4-0.7,0.7-1c0.3-0.3,0.6-0.5,1-0.7c0.4-0.2,0.8-0.3,1.3-0.3
				c0.4,0,0.8,0.1,1.2,0.3c0.4,0.2,0.7,0.4,1,0.7s0.5,0.6,0.7,1c0.2,0.4,0.3,0.8,0.3,1.2c0,0.4-0.1,0.9-0.3,1.2
				c-0.2,0.4-0.4,0.7-0.7,1c-0.3,0.3-0.6,0.5-1,0.7c-0.4,0.2-0.8,0.2-1.2,0.2c-0.4,0-0.9-0.1-1.3-0.2c-0.4-0.2-0.7-0.4-1-0.7
				c-0.3-0.3-0.5-0.6-0.7-1C-613.3,587.1-613.4,586.7-613.4,586.2z"/>
			<path class="st5" d="M-595.6,577.1c0.7,0,1.5,0.1,2.2,0.4c0.7,0.3,1.3,0.6,1.9,1.1c0.6,0.5,1,1.1,1.3,1.8s0.5,1.5,0.5,2.5
				c0,1.1-0.2,2-0.6,2.9s-1,1.5-1.7,2.1s-1.5,1-2.4,1.2c-0.9,0.3-1.9,0.4-2.9,0.4c-1,0-2-0.1-2.9-0.4c-0.9-0.3-1.7-0.7-2.4-1.2
				c-0.7-0.5-1.2-1.2-1.7-2c-0.4-0.8-0.6-1.8-0.6-2.9c0-1.1,0.2-2.1,0.6-3.1c0.4-0.9,0.9-1.8,1.5-2.6l3.9-5.5h7l-4,5.1l-0.2,0.3
				H-595.6z M-597.3,581.2c-0.5,0-0.9,0.2-1.3,0.5c-0.3,0.3-0.5,0.7-0.5,1.2c0,0.5,0.2,0.9,0.5,1.3c0.3,0.3,0.8,0.5,1.3,0.5
				c0.6,0,1-0.2,1.3-0.5c0.3-0.3,0.5-0.8,0.5-1.3c0-0.5-0.2-0.9-0.5-1.2C-596.3,581.3-596.7,581.2-597.3,581.2z"/>
			<path class="st5" d="M-639.8,600.8L-639.8,600.8l2.2-7.4h1.4l2.2,7.4h0l2-7.4h1.4l-2.7,9.3h-1.4l-2.3-7.5h0l-2.3,7.5h-1.4
				l-2.7-9.3h1.4L-639.8,600.8z"/>
			<path class="st5" d="M-624.1,599.5c0,0.1,0,0.1,0,0.2c0,0.1,0,0.1,0,0.2h-4.9c0,0.3,0.1,0.5,0.2,0.7c0.1,0.2,0.3,0.4,0.4,0.6
				s0.4,0.3,0.6,0.4c0.2,0.1,0.5,0.1,0.8,0.1c0.4,0,0.8-0.1,1.1-0.3c0.3-0.2,0.5-0.4,0.7-0.7l0.9,0.7c-0.3,0.4-0.7,0.8-1.2,1
				s-1,0.3-1.5,0.3c-0.5,0-0.9-0.1-1.3-0.2s-0.7-0.4-1-0.7c-0.3-0.3-0.5-0.6-0.7-1s-0.2-0.8-0.2-1.3c0-0.5,0.1-0.9,0.2-1.3
				c0.2-0.4,0.4-0.8,0.7-1c0.3-0.3,0.6-0.5,1-0.7c0.4-0.2,0.8-0.2,1.3-0.2c0.5,0,0.9,0.1,1.2,0.2c0.4,0.1,0.7,0.4,0.9,0.6
				c0.3,0.3,0.5,0.6,0.6,1C-624.1,598.5-624.1,599-624.1,599.5z M-625.3,599c0-0.2-0.1-0.5-0.1-0.7c-0.1-0.2-0.2-0.4-0.3-0.6
				s-0.3-0.3-0.5-0.4c-0.2-0.1-0.5-0.1-0.8-0.1c-0.3,0-0.5,0-0.7,0.1c-0.2,0.1-0.4,0.2-0.6,0.4s-0.3,0.3-0.4,0.6
				c-0.1,0.2-0.2,0.4-0.2,0.7H-625.3z"/>
			<path class="st5" d="M-619,598c-0.1-0.2-0.3-0.4-0.6-0.6c-0.3-0.1-0.5-0.2-0.9-0.2c-0.1,0-0.3,0-0.4,0c-0.1,0-0.3,0.1-0.4,0.1
				s-0.2,0.1-0.3,0.2s-0.1,0.2-0.1,0.4c0,0.3,0.1,0.5,0.4,0.6s0.6,0.2,1.1,0.3c0.3,0.1,0.6,0.2,0.8,0.2c0.3,0.1,0.5,0.2,0.7,0.4
				c0.2,0.1,0.3,0.3,0.4,0.5c0.1,0.2,0.2,0.4,0.2,0.7c0,0.4-0.1,0.7-0.2,0.9s-0.3,0.5-0.6,0.6c-0.2,0.2-0.5,0.3-0.8,0.3
				c-0.3,0.1-0.6,0.1-0.9,0.1c-0.5,0-0.9-0.1-1.4-0.3c-0.5-0.2-0.8-0.5-1.1-0.8l0.9-0.7c0.2,0.2,0.4,0.5,0.7,0.6
				c0.3,0.2,0.6,0.2,1,0.2c0.2,0,0.3,0,0.5,0c0.1,0,0.3-0.1,0.4-0.2c0.1-0.1,0.2-0.2,0.3-0.3c0.1-0.1,0.1-0.3,0.1-0.4
				c0-0.3-0.1-0.5-0.4-0.6c-0.3-0.1-0.7-0.3-1.2-0.4c-0.2-0.1-0.4-0.1-0.6-0.2c-0.2-0.1-0.4-0.2-0.6-0.3c-0.2-0.1-0.3-0.3-0.4-0.5
				c-0.1-0.2-0.2-0.4-0.2-0.7c0-0.3,0.1-0.6,0.2-0.9s0.3-0.4,0.5-0.6c0.2-0.2,0.5-0.3,0.7-0.3s0.6-0.1,0.9-0.1
				c0.4,0,0.9,0.1,1.3,0.3c0.4,0.2,0.7,0.4,1,0.8L-619,598z"/>
			<path class="st5" d="M-613.5,597.4h-1.7v3.2c0,0.4,0.1,0.6,0.2,0.8c0.1,0.2,0.4,0.2,0.7,0.2c0.1,0,0.2,0,0.4,0
				c0.1,0,0.2-0.1,0.4-0.1l0,1c-0.1,0.1-0.3,0.1-0.5,0.1c-0.2,0-0.4,0-0.6,0c-0.6,0-1-0.2-1.3-0.5c-0.3-0.3-0.5-0.8-0.5-1.5v-3.4
				h-1.2v-1h1.2v-1.8h1.2v1.8h1.7V597.4z"/>
			<path class="st5" d="M-608.7,602.6h-1.4l4-9.3h1.2l4,9.3h-1.5l-0.9-2.3h-4.4L-608.7,602.6z M-607.3,599.2h3.5l-1.7-4.4
				L-607.3,599.2z"/>
			<path class="st5" d="M-596.5,598c-0.1-0.2-0.3-0.4-0.6-0.6c-0.3-0.1-0.5-0.2-0.9-0.2c-0.1,0-0.3,0-0.4,0c-0.1,0-0.3,0.1-0.4,0.1
				s-0.2,0.1-0.3,0.2s-0.1,0.2-0.1,0.4c0,0.3,0.1,0.5,0.4,0.6s0.6,0.2,1.1,0.3c0.3,0.1,0.6,0.2,0.8,0.2c0.3,0.1,0.5,0.2,0.7,0.4
				c0.2,0.1,0.3,0.3,0.4,0.5c0.1,0.2,0.2,0.4,0.2,0.7c0,0.4-0.1,0.7-0.2,0.9s-0.3,0.5-0.6,0.6c-0.2,0.2-0.5,0.3-0.8,0.3
				c-0.3,0.1-0.6,0.1-0.9,0.1c-0.5,0-0.9-0.1-1.4-0.3c-0.5-0.2-0.8-0.5-1.1-0.8l0.9-0.7c0.2,0.2,0.4,0.5,0.7,0.6
				c0.3,0.2,0.6,0.2,1,0.2c0.2,0,0.3,0,0.5,0c0.1,0,0.3-0.1,0.4-0.2c0.1-0.1,0.2-0.2,0.3-0.3c0.1-0.1,0.1-0.3,0.1-0.4
				c0-0.3-0.1-0.5-0.4-0.6c-0.3-0.1-0.7-0.3-1.2-0.4c-0.2-0.1-0.4-0.1-0.6-0.2c-0.2-0.1-0.4-0.2-0.6-0.3c-0.2-0.1-0.3-0.3-0.4-0.5
				c-0.1-0.2-0.2-0.4-0.2-0.7c0-0.3,0.1-0.6,0.2-0.9s0.3-0.4,0.5-0.6c0.2-0.2,0.5-0.3,0.7-0.3s0.6-0.1,0.9-0.1
				c0.4,0,0.9,0.1,1.3,0.3c0.4,0.2,0.7,0.4,1,0.8L-596.5,598z"/>
			<path class="st5" d="M-592.6,594.2c0,0.2-0.1,0.4-0.2,0.6c-0.2,0.1-0.4,0.2-0.6,0.2s-0.4-0.1-0.6-0.2c-0.2-0.2-0.2-0.3-0.2-0.6
				c0-0.2,0.1-0.4,0.2-0.6s0.3-0.2,0.6-0.2s0.4,0.1,0.6,0.2C-592.7,593.8-592.6,594-592.6,594.2z M-592.8,602.6h-1.2v-6.2h1.2V602.6
				z"/>
			<path class="st5" d="M-586.8,598.6c0-0.5-0.1-0.8-0.4-1c-0.3-0.2-0.7-0.3-1.1-0.3c-0.3,0-0.7,0.1-1,0.2s-0.6,0.3-0.8,0.5
				l-0.7-0.8c0.3-0.3,0.7-0.5,1.1-0.7c0.4-0.2,0.9-0.2,1.4-0.2c0.4,0,0.8,0.1,1.2,0.2s0.6,0.3,0.8,0.5c0.2,0.2,0.4,0.5,0.5,0.8
				c0.1,0.3,0.2,0.6,0.2,1v2.7c0,0.2,0,0.4,0,0.7c0,0.2,0,0.4,0.1,0.6h-1.1c-0.1-0.3-0.1-0.6-0.1-0.9h0c-0.2,0.3-0.5,0.6-0.9,0.8
				c-0.3,0.2-0.8,0.3-1.2,0.3c-0.2,0-0.5,0-0.8-0.1c-0.3-0.1-0.5-0.2-0.7-0.3c-0.2-0.1-0.4-0.3-0.5-0.6c-0.1-0.2-0.2-0.5-0.2-0.9
				c0-0.5,0.1-0.8,0.4-1.1c0.3-0.3,0.6-0.5,1-0.6c0.4-0.1,0.9-0.2,1.4-0.3c0.5,0,1-0.1,1.6-0.1V598.6z M-587.1,599.7
				c-0.3,0-0.6,0-1,0s-0.6,0.1-0.9,0.2c-0.3,0.1-0.5,0.2-0.7,0.4s-0.3,0.4-0.3,0.6c0,0.2,0,0.3,0.1,0.5c0.1,0.1,0.2,0.2,0.3,0.3
				c0.1,0.1,0.3,0.1,0.4,0.2c0.1,0,0.3,0,0.5,0c0.6,0,1-0.2,1.3-0.5c0.3-0.3,0.5-0.8,0.5-1.3v-0.3H-587.1z"/>
			<path class="st5" d="M-582.4,596.4c0,0.2,0,0.3,0,0.5c0,0.2,0,0.4,0,0.5h0c0.1-0.2,0.2-0.3,0.3-0.5c0.1-0.1,0.3-0.3,0.5-0.4
				s0.4-0.2,0.6-0.3s0.4-0.1,0.7-0.1c0.4,0,0.7,0.1,1,0.2s0.5,0.3,0.7,0.5s0.3,0.5,0.4,0.8c0.1,0.3,0.1,0.6,0.1,1v3.9h-1.2v-3.5
				c0-0.3,0-0.5-0.1-0.7c0-0.2-0.1-0.4-0.2-0.6c-0.1-0.2-0.2-0.3-0.4-0.4c-0.2-0.1-0.4-0.2-0.7-0.2c-0.5,0-0.9,0.2-1.2,0.6
				c-0.3,0.4-0.5,0.9-0.5,1.5v3.3h-1.2v-4.9c0-0.2,0-0.4,0-0.6c0-0.3,0-0.5,0-0.7H-582.4z"/>
		</g>
	</g>
	<g>
		<g>
			<path class="st5" d="M-721,617.8c0.7,0,1.5,0.1,2.2,0.4c0.7,0.3,1.3,0.6,1.9,1.1c0.6,0.5,1,1.1,1.3,1.8s0.5,1.5,0.5,2.5
				c0,1.1-0.2,2-0.6,2.9c-0.4,0.8-1,1.5-1.7,2.1s-1.5,1-2.4,1.2c-0.9,0.3-1.9,0.4-2.9,0.4c-1,0-2-0.1-2.9-0.4
				c-0.9-0.3-1.7-0.7-2.4-1.2c-0.7-0.5-1.2-1.2-1.7-2c-0.4-0.8-0.6-1.8-0.6-2.9c0-1.1,0.2-2.1,0.6-3.1c0.4-0.9,0.9-1.8,1.5-2.6
				l3.9-5.5h7l-4,5.1l-0.2,0.3H-721z M-722.6,621.8c-0.5,0-0.9,0.2-1.3,0.5s-0.5,0.7-0.5,1.2c0,0.5,0.2,0.9,0.5,1.3
				c0.3,0.3,0.8,0.5,1.3,0.5c0.6,0,1-0.2,1.3-0.5c0.3-0.3,0.5-0.8,0.5-1.3c0-0.5-0.2-0.9-0.5-1.2
				C-721.6,622-722.1,621.8-722.6,621.8z"/>
			<path class="st5" d="M-713,626.9c0-0.4,0.1-0.8,0.3-1.2s0.4-0.7,0.7-1c0.3-0.3,0.6-0.5,1-0.7c0.4-0.2,0.8-0.3,1.3-0.3
				c0.4,0,0.8,0.1,1.2,0.3c0.4,0.2,0.7,0.4,1,0.7s0.5,0.6,0.7,1c0.2,0.4,0.3,0.8,0.3,1.2c0,0.4-0.1,0.9-0.3,1.2
				c-0.2,0.4-0.4,0.7-0.7,1c-0.3,0.3-0.6,0.5-1,0.7c-0.4,0.2-0.8,0.2-1.2,0.2c-0.4,0-0.9-0.1-1.3-0.2c-0.4-0.2-0.7-0.4-1-0.7
				c-0.3-0.3-0.5-0.6-0.7-1C-712.9,627.7-713,627.3-713,626.9z"/>
			<path class="st5" d="M-689.5,623.8c0,1.2-0.2,2.2-0.7,3c-0.4,0.8-1,1.4-1.7,1.9c-0.7,0.5-1.5,0.8-2.3,1c-0.9,0.2-1.7,0.3-2.5,0.3
				c-0.9,0-1.7-0.1-2.6-0.4s-1.6-0.6-2.3-1c-0.7-0.5-1.3-1-1.8-1.7c-0.5-0.7-0.8-1.4-1-2.3l5.4-1.4c0.1,0.5,0.3,0.9,0.7,1.2
				s0.8,0.5,1.4,0.5c0.4,0,0.8-0.1,1.1-0.3c0.3-0.2,0.5-0.5,0.5-1c0-0.3-0.1-0.5-0.3-0.7s-0.4-0.3-0.7-0.5c-0.3-0.1-0.6-0.2-1-0.2
				c-0.4,0-0.7-0.1-1.1-0.1c-0.3,0-0.6,0-0.9,0c-0.4,0-0.8,0.1-1.2,0.1c-0.4,0-0.8,0.1-1.2,0.2c-0.4,0.1-0.8,0.1-1.2,0.2l0.6-10.5
				h11.7v4.8h-6.8l-0.1,1.2c0.2,0,0.5-0.1,0.7-0.1c0.2,0,0.4,0,0.6,0c0.9,0,1.7,0.1,2.5,0.3c0.8,0.2,1.5,0.5,2.1,1s1.1,1,1.4,1.7
				C-689.7,622-689.5,622.9-689.5,623.8z"/>
			<path class="st5" d="M-746.7,643.3h-1.3V634h1.3V643.3z"/>
			<path class="st5" d="M-741.2,638.7c-0.1-0.2-0.3-0.4-0.6-0.6c-0.3-0.1-0.5-0.2-0.9-0.2c-0.1,0-0.3,0-0.4,0
				c-0.1,0-0.3,0.1-0.4,0.1s-0.2,0.1-0.3,0.2s-0.1,0.2-0.1,0.4c0,0.3,0.1,0.5,0.4,0.6s0.6,0.2,1.1,0.3c0.3,0.1,0.6,0.2,0.8,0.2
				c0.3,0.1,0.5,0.2,0.7,0.4c0.2,0.1,0.3,0.3,0.4,0.5s0.2,0.4,0.2,0.7c0,0.4-0.1,0.7-0.2,0.9c-0.1,0.3-0.3,0.5-0.6,0.6
				c-0.2,0.2-0.5,0.3-0.8,0.3c-0.3,0.1-0.6,0.1-0.9,0.1c-0.5,0-0.9-0.1-1.4-0.3c-0.5-0.2-0.8-0.5-1.1-0.8l0.9-0.7
				c0.2,0.2,0.4,0.5,0.7,0.6c0.3,0.2,0.6,0.2,1,0.2c0.2,0,0.3,0,0.5,0c0.1,0,0.3-0.1,0.4-0.2c0.1-0.1,0.2-0.2,0.3-0.3
				c0.1-0.1,0.1-0.3,0.1-0.4c0-0.3-0.1-0.5-0.4-0.6c-0.3-0.1-0.7-0.3-1.2-0.4c-0.2-0.1-0.4-0.1-0.6-0.2c-0.2-0.1-0.4-0.2-0.6-0.3
				s-0.3-0.3-0.4-0.5c-0.1-0.2-0.2-0.4-0.2-0.7c0-0.3,0.1-0.6,0.2-0.9c0.1-0.2,0.3-0.4,0.5-0.6c0.2-0.2,0.5-0.3,0.7-0.3
				s0.6-0.1,0.9-0.1c0.4,0,0.9,0.1,1.3,0.3c0.4,0.2,0.7,0.4,1,0.8L-741.2,638.7z"/>
			<path class="st5" d="M-737.4,643.3h-1.2v-9.9h1.2V643.3z"/>
			<path class="st5" d="M-731.4,639.3c0-0.5-0.1-0.8-0.4-1c-0.3-0.2-0.7-0.3-1.1-0.3c-0.4,0-0.7,0.1-1,0.2s-0.6,0.3-0.8,0.5
				l-0.7-0.8c0.3-0.3,0.7-0.5,1.1-0.7c0.4-0.2,0.9-0.2,1.4-0.2c0.4,0,0.8,0.1,1.2,0.2s0.6,0.3,0.8,0.5c0.2,0.2,0.4,0.5,0.5,0.8
				s0.2,0.6,0.2,1v2.7c0,0.2,0,0.4,0,0.7c0,0.2,0,0.4,0.1,0.6h-1.1c-0.1-0.3-0.1-0.6-0.1-0.9h0c-0.2,0.3-0.5,0.6-0.9,0.8
				c-0.3,0.2-0.8,0.3-1.2,0.3c-0.2,0-0.5,0-0.8-0.1c-0.3-0.1-0.5-0.2-0.7-0.3c-0.2-0.1-0.4-0.3-0.5-0.6c-0.1-0.2-0.2-0.5-0.2-0.9
				c0-0.5,0.1-0.8,0.4-1.1c0.3-0.3,0.6-0.5,1-0.6c0.4-0.1,0.9-0.2,1.4-0.3c0.5,0,1-0.1,1.6-0.1V639.3z M-731.7,640.3
				c-0.3,0-0.6,0-1,0c-0.3,0-0.6,0.1-0.9,0.2c-0.3,0.1-0.5,0.2-0.7,0.4c-0.2,0.2-0.3,0.4-0.3,0.6c0,0.2,0,0.3,0.1,0.5
				c0.1,0.1,0.2,0.2,0.3,0.3c0.1,0.1,0.3,0.1,0.4,0.2c0.1,0,0.3,0,0.5,0c0.6,0,1-0.2,1.3-0.5c0.3-0.3,0.5-0.8,0.5-1.3v-0.3H-731.7z"
				/>
			<path class="st5" d="M-726.2,637.3c0.3-0.2,0.8-0.3,1.2-0.3c0.4,0,0.8,0.1,1.1,0.3c0.3,0.2,0.6,0.5,0.8,1
				c0.2-0.4,0.5-0.7,0.9-0.9c0.4-0.2,0.8-0.3,1.2-0.3c0.4,0,0.7,0.1,1,0.2c0.3,0.1,0.5,0.3,0.7,0.5s0.3,0.5,0.4,0.8
				c0.1,0.3,0.1,0.6,0.1,1v3.9h-1.2v-3.5c0-0.3,0-0.5-0.1-0.7c0-0.2-0.1-0.4-0.2-0.6s-0.2-0.3-0.4-0.4c-0.2-0.1-0.4-0.2-0.7-0.2
				c-0.3,0-0.5,0.1-0.7,0.2c-0.2,0.1-0.4,0.3-0.5,0.5c-0.1,0.2-0.2,0.4-0.3,0.6c-0.1,0.2-0.1,0.5-0.1,0.7v3.4h-1.2v-3.7
				c0-0.2,0-0.5-0.1-0.7c0-0.2-0.1-0.4-0.2-0.5s-0.2-0.3-0.4-0.3s-0.4-0.1-0.6-0.1c-0.5,0-0.8,0.2-1.1,0.6c-0.3,0.4-0.5,0.9-0.5,1.5
				v3.3h-1.2v-4.9c0-0.2,0-0.4,0-0.6c0-0.3,0-0.5,0-0.7h1.2c0,0.2,0,0.3,0,0.5c0,0.2,0,0.4,0,0.5h0
				C-726.8,637.8-726.6,637.5-726.2,637.3z"/>
			<path class="st5" d="M-715.1,634.8c0,0.2-0.1,0.4-0.2,0.6c-0.2,0.1-0.4,0.2-0.6,0.2c-0.2,0-0.4-0.1-0.6-0.2
				c-0.2-0.2-0.2-0.3-0.2-0.6c0-0.2,0.1-0.4,0.2-0.6s0.3-0.2,0.6-0.2c0.2,0,0.4,0.1,0.6,0.2C-715.2,634.4-715.1,634.6-715.1,634.8z
				 M-715.3,643.3h-1.2v-6.2h1.2V643.3z"/>
			<path class="st5" d="M-708.8,638.7c-0.1-0.2-0.3-0.4-0.6-0.5c-0.3-0.1-0.5-0.2-0.8-0.2c-0.3,0-0.6,0.1-0.9,0.2
				c-0.2,0.1-0.5,0.3-0.6,0.5c-0.2,0.2-0.3,0.4-0.4,0.7c-0.1,0.3-0.1,0.6-0.1,0.9c0,0.3,0,0.6,0.1,0.9c0.1,0.3,0.2,0.5,0.4,0.7
				c0.2,0.2,0.4,0.4,0.6,0.5c0.3,0.1,0.5,0.2,0.9,0.2c0.3,0,0.6-0.1,0.9-0.2c0.3-0.1,0.5-0.3,0.6-0.5l0.8,0.7
				c-0.3,0.3-0.6,0.5-1,0.7c-0.4,0.2-0.8,0.3-1.3,0.3c-0.5,0-0.9-0.1-1.3-0.2c-0.4-0.2-0.8-0.4-1.1-0.7c-0.3-0.3-0.5-0.6-0.7-1
				c-0.2-0.4-0.3-0.9-0.3-1.4c0-0.5,0.1-0.9,0.2-1.3c0.2-0.4,0.4-0.7,0.7-1c0.3-0.3,0.6-0.5,1.1-0.7c0.4-0.2,0.8-0.2,1.3-0.2
				c0.4,0,0.9,0.1,1.3,0.3s0.8,0.4,1,0.8L-708.8,638.7z"/>
			<path class="st5" d="M-706.8,643.7l-0.9-0.3l4-9.9l0.9,0.3L-706.8,643.7z"/>
			<path class="st5" d="M-698.2,643.3h-1.4l4-9.3h1.2l4,9.3h-1.5l-0.9-2.3h-4.4L-698.2,643.3z M-696.8,639.9h3.5l-1.7-4.4
				L-696.8,639.9z"/>
			<path class="st5" d="M-689.3,637.8c0-0.3,0-0.5,0-0.7h1.2c0,0.2,0,0.3,0,0.5c0,0.2,0,0.4,0,0.5h0c0.2-0.4,0.4-0.7,0.8-0.9
				c0.3-0.2,0.7-0.3,1.1-0.3c0.2,0,0.4,0,0.5,0.1l-0.1,1.1c-0.2,0-0.4-0.1-0.6-0.1c-0.3,0-0.6,0.1-0.8,0.2s-0.4,0.3-0.5,0.4
				c-0.1,0.2-0.2,0.4-0.3,0.6c-0.1,0.2-0.1,0.5-0.1,0.8v3.3h-1.2v-4.9C-689.3,638.3-689.3,638-689.3,637.8z"/>
			<path class="st5" d="M-680.9,639.3c0-0.5-0.1-0.8-0.4-1c-0.3-0.2-0.7-0.3-1.1-0.3c-0.3,0-0.7,0.1-1,0.2s-0.6,0.3-0.8,0.5
				l-0.7-0.8c0.3-0.3,0.7-0.5,1.1-0.7c0.4-0.2,0.9-0.2,1.4-0.2c0.4,0,0.8,0.1,1.2,0.2s0.6,0.3,0.8,0.5c0.2,0.2,0.4,0.5,0.5,0.8
				c0.1,0.3,0.2,0.6,0.2,1v2.7c0,0.2,0,0.4,0,0.7c0,0.2,0,0.4,0.1,0.6h-1.1c-0.1-0.3-0.1-0.6-0.1-0.9h0c-0.2,0.3-0.5,0.6-0.9,0.8
				c-0.3,0.2-0.8,0.3-1.2,0.3c-0.2,0-0.5,0-0.8-0.1c-0.3-0.1-0.5-0.2-0.7-0.3c-0.2-0.1-0.4-0.3-0.5-0.6c-0.1-0.2-0.2-0.5-0.2-0.9
				c0-0.5,0.1-0.8,0.4-1.1c0.3-0.3,0.6-0.5,1-0.6c0.4-0.1,0.9-0.2,1.4-0.3c0.5,0,1-0.1,1.6-0.1V639.3z M-681.2,640.3
				c-0.3,0-0.6,0-1,0s-0.6,0.1-0.9,0.2c-0.3,0.1-0.5,0.2-0.7,0.4s-0.3,0.4-0.3,0.6c0,0.2,0,0.3,0.1,0.5c0.1,0.1,0.2,0.2,0.3,0.3
				c0.1,0.1,0.3,0.1,0.4,0.2c0.1,0,0.3,0,0.5,0c0.6,0,1-0.2,1.3-0.5c0.3-0.3,0.5-0.8,0.5-1.3v-0.3H-681.2z"/>
			<path class="st5" d="M-676.4,642.3v1h-1.2v-9.9h1.2v4.6h0c0.2-0.3,0.5-0.6,0.9-0.8c0.4-0.2,0.8-0.3,1.3-0.3
				c0.5,0,0.9,0.1,1.3,0.2c0.4,0.2,0.7,0.4,1,0.7c0.3,0.3,0.5,0.6,0.6,1c0.1,0.4,0.2,0.8,0.2,1.3s-0.1,0.9-0.2,1.3s-0.4,0.8-0.6,1
				c-0.3,0.3-0.6,0.5-1,0.7c-0.4,0.2-0.8,0.3-1.3,0.3c-0.4,0-0.9-0.1-1.3-0.3C-675.8,643-676.1,642.7-676.4,642.3L-676.4,642.3z
				 M-672.3,640.2c0-0.3,0-0.6-0.1-0.8c-0.1-0.3-0.2-0.5-0.4-0.7c-0.2-0.2-0.4-0.4-0.6-0.5c-0.3-0.1-0.6-0.2-0.9-0.2
				c-0.3,0-0.6,0.1-0.9,0.2c-0.3,0.1-0.5,0.3-0.7,0.5c-0.2,0.2-0.3,0.4-0.4,0.7c-0.1,0.3-0.2,0.6-0.2,0.9s0.1,0.6,0.2,0.9
				c0.1,0.3,0.2,0.5,0.4,0.7s0.4,0.4,0.7,0.5c0.3,0.1,0.5,0.2,0.9,0.2c0.3,0,0.6-0.1,0.9-0.2c0.3-0.1,0.5-0.3,0.6-0.5
				c0.2-0.2,0.3-0.4,0.4-0.7C-672.3,640.8-672.3,640.5-672.3,640.2z"/>
		</g>
		<g>
			<path class="st5" d="M-646.4,629.6h-5.3v-3h-8.3v-4.7l6.5-9.5h7v9.7h2.3v4.5h-2.3V629.6z M-651.7,617.7l-2.9,4.4h3L-651.7,617.7
				L-651.7,617.7z"/>
			<path class="st5" d="M-642.5,626.9c0-0.4,0.1-0.8,0.3-1.2c0.2-0.4,0.4-0.7,0.7-1c0.3-0.3,0.6-0.5,1-0.7c0.4-0.2,0.8-0.3,1.3-0.3
				c0.4,0,0.8,0.1,1.2,0.3c0.4,0.2,0.7,0.4,1,0.7s0.5,0.6,0.7,1c0.2,0.4,0.3,0.8,0.3,1.2c0,0.4-0.1,0.9-0.3,1.2
				c-0.2,0.4-0.4,0.7-0.7,1c-0.3,0.3-0.6,0.5-1,0.7c-0.4,0.2-0.8,0.2-1.2,0.2c-0.4,0-0.9-0.1-1.3-0.2c-0.4-0.2-0.7-0.4-1-0.7
				c-0.3-0.3-0.5-0.6-0.7-1C-642.5,627.7-642.5,627.3-642.5,626.9z"/>
			<path class="st5" d="M-619.1,623.8c0,1.2-0.2,2.2-0.7,3c-0.4,0.8-1,1.4-1.7,1.9c-0.7,0.5-1.5,0.8-2.3,1s-1.7,0.3-2.5,0.3
				c-0.9,0-1.7-0.1-2.6-0.4s-1.6-0.6-2.3-1c-0.7-0.5-1.3-1-1.8-1.7c-0.5-0.7-0.8-1.4-1-2.3l5.4-1.4c0.1,0.5,0.3,0.9,0.7,1.2
				c0.4,0.3,0.8,0.5,1.4,0.5c0.4,0,0.8-0.1,1.1-0.3c0.3-0.2,0.5-0.5,0.5-1c0-0.3-0.1-0.5-0.3-0.7s-0.4-0.3-0.7-0.5
				c-0.3-0.1-0.6-0.2-1-0.2c-0.4,0-0.7-0.1-1.1-0.1c-0.3,0-0.6,0-0.9,0s-0.8,0.1-1.2,0.1c-0.4,0-0.8,0.1-1.2,0.2
				c-0.4,0.1-0.8,0.1-1.2,0.2l0.6-10.5h11.7v4.8h-6.8l-0.1,1.2c0.2,0,0.5-0.1,0.7-0.1c0.2,0,0.4,0,0.6,0c0.9,0,1.7,0.1,2.5,0.3
				c0.8,0.2,1.5,0.5,2.1,1c0.6,0.4,1.1,1,1.4,1.7C-619.3,622-619.1,622.9-619.1,623.8z"/>
			<path class="st5" d="M-651.4,642.1h4.1v1.2h-5.4V634h1.3V642.1z"/>
			<path class="st5" d="M-642.2,639.3c0-0.5-0.1-0.8-0.4-1c-0.3-0.2-0.7-0.3-1.1-0.3c-0.3,0-0.7,0.1-1,0.2s-0.6,0.3-0.8,0.5
				l-0.7-0.8c0.3-0.3,0.7-0.5,1.1-0.7c0.4-0.2,0.9-0.2,1.4-0.2c0.4,0,0.8,0.1,1.2,0.2s0.6,0.3,0.8,0.5c0.2,0.2,0.4,0.5,0.5,0.8
				c0.1,0.3,0.2,0.6,0.2,1v2.7c0,0.2,0,0.4,0,0.7c0,0.2,0,0.4,0.1,0.6h-1.1c-0.1-0.3-0.1-0.6-0.1-0.9h0c-0.2,0.3-0.5,0.6-0.9,0.8
				c-0.3,0.2-0.8,0.3-1.2,0.3c-0.2,0-0.5,0-0.8-0.1c-0.3-0.1-0.5-0.2-0.7-0.3c-0.2-0.1-0.4-0.3-0.5-0.6c-0.1-0.2-0.2-0.5-0.2-0.9
				c0-0.5,0.1-0.8,0.4-1.1c0.3-0.3,0.6-0.5,1-0.6c0.4-0.1,0.9-0.2,1.4-0.3c0.5,0,1-0.1,1.6-0.1V639.3z M-642.5,640.3
				c-0.3,0-0.6,0-1,0s-0.6,0.1-0.9,0.2c-0.3,0.1-0.5,0.2-0.7,0.4s-0.3,0.4-0.3,0.6c0,0.2,0,0.3,0.1,0.5c0.1,0.1,0.2,0.2,0.3,0.3
				c0.1,0.1,0.3,0.1,0.4,0.2c0.1,0,0.3,0,0.5,0c0.6,0,1-0.2,1.3-0.5c0.3-0.3,0.5-0.8,0.5-1.3v-0.3H-642.5z"/>
			<path class="st5" d="M-636.1,638.1h-1.7v3.2c0,0.4,0.1,0.6,0.2,0.8c0.1,0.2,0.4,0.2,0.7,0.2c0.1,0,0.2,0,0.4,0
				c0.1,0,0.2-0.1,0.4-0.1l0,1c-0.1,0.1-0.3,0.1-0.5,0.1c-0.2,0-0.4,0-0.6,0c-0.6,0-1-0.2-1.3-0.5c-0.3-0.3-0.5-0.8-0.5-1.5v-3.4
				h-1.2v-1h1.2v-1.8h1.2v1.8h1.7V638.1z"/>
			<path class="st5" d="M-633.3,634.8c0,0.2-0.1,0.4-0.2,0.6c-0.2,0.1-0.4,0.2-0.6,0.2s-0.4-0.1-0.6-0.2c-0.2-0.2-0.2-0.3-0.2-0.6
				c0-0.2,0.1-0.4,0.2-0.6s0.3-0.2,0.6-0.2s0.4,0.1,0.6,0.2C-633.4,634.4-633.3,634.6-633.3,634.8z M-633.5,643.3h-1.2v-6.2h1.2
				V643.3z"/>
			<path class="st5" d="M-630.3,637.1c0,0.2,0,0.3,0,0.5c0,0.2,0,0.4,0,0.5h0c0.1-0.2,0.2-0.3,0.3-0.5c0.1-0.1,0.3-0.3,0.5-0.4
				s0.4-0.2,0.6-0.3s0.4-0.1,0.7-0.1c0.4,0,0.7,0.1,1,0.2s0.5,0.3,0.7,0.5s0.3,0.5,0.4,0.8c0.1,0.3,0.1,0.6,0.1,1v3.9h-1.2v-3.5
				c0-0.3,0-0.5-0.1-0.7c0-0.2-0.1-0.4-0.2-0.6c-0.1-0.2-0.2-0.3-0.4-0.4c-0.2-0.1-0.4-0.2-0.7-0.2c-0.5,0-0.9,0.2-1.2,0.6
				c-0.3,0.4-0.5,0.9-0.5,1.5v3.3h-1.2v-4.9c0-0.2,0-0.4,0-0.6c0-0.3,0-0.5,0-0.7H-630.3z"/>
		</g>
	</g>
</g>
<g>
	<path class="st5" d="M-781.4,535.8c0.6,0.1,1.2,0.4,1.8,0.7c0.6,0.3,1.1,0.8,1.6,1.3c0.5,0.5,0.8,1.1,1.1,1.8
		c0.3,0.7,0.4,1.4,0.4,2.2c0,1.4-0.3,2.6-0.9,3.6c-0.6,1-1.3,1.8-2.3,2.4c-0.9,0.6-2,1-3.3,1.3c-1.2,0.3-2.5,0.4-3.8,0.4h-11.9
		v-26.2h10.8c1.1,0,2.2,0.1,3.4,0.2c1.2,0.2,2.3,0.5,3.3,1c1,0.5,1.9,1.2,2.5,2.1c0.7,0.9,1,2.1,1,3.6c0,1.4-0.4,2.6-1.1,3.5
		c-0.7,0.9-1.6,1.6-2.8,2V535.8z M-790.4,530.1v3.2h2.4c0.6,0,1.1-0.1,1.5-0.4c0.4-0.3,0.6-0.7,0.6-1.3c0-0.5-0.2-0.9-0.6-1.1
		c-0.4-0.2-1-0.4-1.7-0.4H-790.4z M-790.4,538.9v3.6h2.6c0.7,0,1.3-0.2,1.7-0.5c0.4-0.3,0.6-0.8,0.6-1.4c0-0.3-0.1-0.6-0.3-0.9
		s-0.4-0.4-0.7-0.5c-0.3-0.1-0.6-0.2-0.9-0.3c-0.3,0-0.6-0.1-0.9-0.1H-790.4z"/>
	<path class="st5" d="M-763.1,537.1c0-0.6-0.2-1-0.6-1.3c-0.4-0.3-0.9-0.4-1.6-0.4c-0.8,0-1.5,0.2-2.2,0.5c-0.7,0.3-1.3,0.7-1.9,1.2
		l-4.3-4.2c1.2-1.1,2.6-2,4.2-2.6c1.6-0.6,3.3-0.9,5-0.9c1.8,0,3.4,0.3,4.6,0.8c1.2,0.5,2.2,1.2,2.9,2.1c0.7,0.9,1.2,2,1.5,3.2
		c0.3,1.2,0.4,2.5,0.4,3.8v10.2h-7.7v-1.6h-0.1c-0.5,0.7-1.2,1.3-2.1,1.6c-0.9,0.3-1.8,0.5-2.7,0.5c-0.8,0-1.5-0.1-2.3-0.3
		c-0.8-0.2-1.5-0.6-2.2-1.1c-0.7-0.5-1.2-1.1-1.6-1.9c-0.4-0.8-0.6-1.8-0.6-2.9c0-1.4,0.4-2.5,1.1-3.3s1.6-1.5,2.7-2
		c1.1-0.5,2.3-0.8,3.6-1C-765.7,537.2-764.4,537.1-763.1,537.1L-763.1,537.1z M-763,541.4c-1.3,0-2.3,0.1-3,0.4
		c-0.8,0.3-1.1,0.8-1.1,1.5c0,0.3,0.1,0.5,0.2,0.7c0.1,0.2,0.3,0.3,0.5,0.5c0.2,0.1,0.4,0.2,0.6,0.3c0.2,0.1,0.4,0.1,0.6,0.1
		c0.8,0,1.5-0.3,2-0.8c0.5-0.5,0.7-1.2,0.7-2v-0.7H-763z"/>
	<path class="st5" d="M-741,550.2c-1.7,0-3.2-0.2-4.6-0.7c-1.4-0.5-2.6-1.2-3.6-2.1c-1-0.9-1.8-2-2.4-3.3c-0.6-1.3-0.9-2.7-0.9-4.3
		c0-1.6,0.3-3,0.9-4.3c0.6-1.3,1.4-2.4,2.4-3.3c1-0.9,2.3-1.6,3.6-2.1c1.4-0.5,2.9-0.7,4.5-0.7c0.7,0,1.3,0.1,2,0.2
		c0.7,0.1,1.3,0.3,2,0.5c0.6,0.2,1.2,0.4,1.7,0.7c0.5,0.2,1,0.5,1.4,0.8l-4.3,6.1c-0.3-0.3-0.7-0.6-1.2-0.8
		c-0.5-0.2-0.9-0.3-1.4-0.3c-0.4,0-0.8,0.1-1.2,0.2c-0.4,0.1-0.7,0.3-1.1,0.6c-0.3,0.3-0.6,0.6-0.8,1c-0.2,0.4-0.3,0.9-0.3,1.4
		s0.1,1,0.3,1.4c0.2,0.4,0.4,0.7,0.8,1c0.3,0.3,0.7,0.5,1.1,0.6s0.8,0.2,1.2,0.2c0.5,0,1-0.1,1.4-0.3c0.5-0.2,0.9-0.4,1.1-0.8l4.3,6
		c-0.8,0.6-1.9,1.2-3.2,1.6C-738.2,549.9-739.5,550.2-741,550.2z"/>
	<path class="st5" d="M-723.5,540.9v8.5h-8.5v-28h8.5v15.9h0.1l4.6-7.4h9.9l-6.3,8.8l6.3,10.7h-10l-4.6-8.5H-723.5z"/>
	<path class="st5" d="M-708.1,539.6c0-1.3,0.2-2.5,0.6-3.7c0.4-1.2,0.9-2.3,1.7-3.3c0.7-1,1.7-1.7,2.8-2.3c1.1-0.6,2.4-0.9,3.8-0.9
		c1,0,2.1,0.2,3.1,0.6c1,0.4,1.8,1,2.5,1.9h0.1v-2h8v17.5c0,2.1-0.3,3.9-1,5.3s-1.6,2.5-2.8,3.3c-1.1,0.8-2.4,1.4-3.9,1.7
		c-1.5,0.3-2.9,0.5-4.4,0.5c-1.9,0-3.7-0.2-5.6-0.7c-1.8-0.5-3.5-1.2-4.8-2.1l3.7-5.7c0.9,0.7,1.9,1.2,3,1.6c1,0.3,2,0.5,3,0.5
		c0.6,0,1.2-0.1,1.8-0.2c0.6-0.2,1-0.4,1.5-0.7c0.4-0.3,0.8-0.7,1-1.1c0.2-0.5,0.4-1,0.4-1.6v-0.9h-0.1c-0.5,0.5-1.2,1-2.1,1.4
		s-2,0.6-3.2,0.6c-1.5,0-2.8-0.3-3.9-0.8c-1.1-0.5-2-1.2-2.8-2.1c-0.7-0.9-1.3-1.9-1.6-3.1C-707.9,542.2-708.1,540.9-708.1,539.6z
		 M-700.1,539.6c0,0.9,0.3,1.7,0.8,2.3c0.5,0.6,1.3,0.9,2.4,0.9c1,0,1.8-0.3,2.4-1c0.6-0.6,0.9-1.4,0.9-2.3c0-0.9-0.3-1.6-0.9-2.3
		c-0.6-0.6-1.4-1-2.4-1c-1,0-1.8,0.3-2.4,1C-699.9,538-700.1,538.8-700.1,539.6z"/>
	<path class="st5" d="M-681.5,530h8.2v2.2h0.1c0.4-0.8,1-1.4,1.9-2s1.8-0.8,2.9-0.8c0.7,0,1.2,0.1,1.6,0.2l-0.7,7.3
		c-0.3-0.1-0.6-0.1-0.9-0.2s-0.6-0.1-0.9-0.1c-1.1,0-2,0.3-2.7,1c-0.7,0.6-1,1.4-1,2.4v9.4h-8.5V530z"/>
	<path class="st5" d="M-644.3,539.6c0,1.7-0.3,3.2-0.9,4.5s-1.4,2.4-2.4,3.3c-1,0.9-2.2,1.6-3.6,2.1c-1.3,0.5-2.8,0.7-4.2,0.7
		c-1.5,0-2.9-0.2-4.2-0.7c-1.3-0.5-2.5-1.2-3.5-2.1c-1-0.9-1.8-2-2.4-3.3c-0.6-1.3-0.9-2.8-0.9-4.5c0-1.7,0.3-3.1,0.9-4.4
		c0.6-1.3,1.4-2.4,2.4-3.3s2.2-1.6,3.5-2c1.3-0.5,2.7-0.7,4.2-0.7c1.5,0,2.9,0.2,4.2,0.7c1.3,0.5,2.5,1.1,3.6,2s1.8,2,2.4,3.3
		S-644.3,538-644.3,539.6z M-655.4,536.4c-0.9,0-1.7,0.3-2.3,1c-0.6,0.6-0.9,1.4-0.9,2.3c0,0.9,0.3,1.7,0.9,2.3s1.4,1,2.3,1
		c0.9,0,1.7-0.3,2.3-1s0.9-1.4,0.9-2.3c0-0.9-0.3-1.6-0.9-2.3C-653.7,536.8-654.5,536.4-655.4,536.4z"/>
	<path class="st5" d="M-620.5,549.4h-8.3v-2.1h-0.1c-0.5,0.7-1.2,1.3-2.2,1.9c-1,0.5-2.1,0.8-3.3,0.8c-1.4,0-2.5-0.2-3.4-0.7
		c-0.9-0.5-1.6-1.1-2.1-1.9c-0.5-0.8-0.9-1.7-1.1-2.6c-0.2-1-0.3-1.9-0.3-2.9V530h8.5v10.3c0,1,0.2,1.7,0.5,2.1
		c0.3,0.4,0.8,0.6,1.4,0.6c0.6,0,1-0.2,1.4-0.7c0.4-0.5,0.5-1.1,0.5-2V530h8.5V549.4z"/>
	<path class="st5" d="M-616.6,530h8.3v2.1h0.1c0.5-0.7,1.2-1.3,2.2-1.9c1-0.5,2.1-0.8,3.3-0.8c1.4,0,2.5,0.2,3.4,0.7
		c0.9,0.5,1.6,1.1,2.1,1.9s0.9,1.6,1.1,2.6c0.2,1,0.3,1.9,0.3,2.9v11.8h-8.5v-10.4c0-1-0.2-1.7-0.5-2.1c-0.3-0.4-0.8-0.6-1.4-0.6
		c-0.6,0-1,0.2-1.4,0.7c-0.4,0.5-0.5,1.1-0.5,2v10.4h-8.5V530z"/>
	<path class="st5" d="M-592.7,539.6c0-1.3,0.2-2.5,0.6-3.7c0.4-1.2,0.9-2.3,1.7-3.3c0.7-1,1.7-1.7,2.8-2.3c1.1-0.6,2.4-0.9,3.8-0.9
		c0.9,0,1.9,0.2,2.8,0.5c0.9,0.4,1.7,0.9,2.3,1.5h0.1v-10.1h8.5v28h-7.7v-2h-0.1c-0.6,0.8-1.4,1.4-2.5,1.9c-1.1,0.5-2.2,0.7-3.4,0.7
		c-1.5,0-2.7-0.3-3.8-0.9s-2-1.4-2.8-2.3c-0.7-1-1.3-2.1-1.7-3.3C-592.5,542.2-592.7,540.9-592.7,539.6z M-584.8,539.6
		c0,0.9,0.3,1.7,0.8,2.3c0.5,0.6,1.3,0.9,2.4,0.9c1,0,1.8-0.3,2.4-1s0.9-1.4,0.9-2.3c0-0.9-0.3-1.6-0.9-2.3c-0.6-0.6-1.4-1-2.4-1
		c-1,0-1.8,0.3-2.4,1C-584.5,538-584.8,538.8-584.8,539.6z"/>
</g>
<g>
	<g class="st6">
		<g>
			<path d="M-647.9,457.9l-0.9,0.3c0,0-0.1,0-0.1,0l-6.1,0.5c-0.1,0-0.2,0.1-0.3,0.2l-1.5,2.4c-0.1,0.2-0.3,0.2-0.5,0.2l-0.9-0.3
				c-0.1,0-0.1,0-0.1-0.1l-4.9-4.4c-0.1,0-0.1-0.1-0.1-0.2l-0.7-2.3c0,0,0,0,0,0l-0.9-2.4c0-0.1-0.1-0.1-0.1-0.2l-3-2.7
				c-0.1,0-0.1-0.1-0.2-0.1l-3.2-0.6c-0.2,0-0.5,0.1-0.5,0.4l-0.1,1.1c0,0.1,0,0.2,0.1,0.3l3.5,3.5c0,0,0,0,0,0l1.5,1.7
				c0.2,0.2,0.1,0.5-0.1,0.6l-1.4,0.7c-0.1,0-0.2,0.1-0.3,0l-1.5-0.4c0,0,0,0,0,0l-2.2-0.9c-0.2-0.1-0.3-0.2-0.3-0.4l0.1-1.4
				c0-0.2-0.1-0.3-0.3-0.4l-2.5-1c-0.2-0.1-0.5,0-0.6,0.3l-0.9,4c0,0.2-0.2,0.3-0.3,0.3l-2.7,0.6c-0.2,0-0.3,0.2-0.3,0.4l0.2,2
				c0,0.2,0.2,0.3,0.3,0.4l3.6,0.7c0.2,0,0.4-0.1,0.5-0.3l0.6-3.4c0-0.2,0.2-0.4,0.5-0.3l3,0.5c0.1,0,0.1,0,0.1,0.1l1.5,0.9
				c0.1,0,0.1,0.1,0.2,0.1h2.3c0.2,0,0.3,0.1,0.4,0.2l1.7,3.3c0,0,0,0.1,0.1,0.1l4.6,4.6c0.1,0.1,0.1,0.2,0.1,0.4l-0.2,1.3
				c0,0.2-0.2,0.4-0.5,0.3l-3.3-0.4c-0.1,0-0.2,0-0.2,0l-6.4,3.3c0,0-0.1,0.1-0.1,0.1l-4.7,5.6c0,0-0.1,0.1-0.1,0.2l-0.5,2.1
				c0,0.2-0.2,0.3-0.4,0.3h-1.3c-0.1,0-0.1,0-0.2,0l-2.9-1.4c-0.1-0.1-0.2,0-0.3,0l-2.6,1.2c-0.2,0.1-0.3,0.3-0.2,0.5l0.5,2.2
				c0.1,0.3,0.5,0.4,0.7,0.2l0.7-0.8c0.1-0.1,0.2-0.1,0.3-0.1l1.8-0.1c0.2,0,0.4,0.2,0.4,0.4l-0.1,2.2c0,0.2,0.1,0.4,0.3,0.4
				l1.5,0.5c0.1,0,0.1,0.1,0.2,0.1l1.7,1.9c0.1,0.1,0.3,0.2,0.4,0.1l2.9-0.8c0.1,0,0.1,0,0.2,0l3.6,0.6c0,0,0,0,0,0l4.2,1.1
				c0,0,0,0,0.1,0l1.9,0.2c0.1,0,0.2,0.1,0.3,0.1l3.5,3.9c0,0,0.1,0.1,0.1,0.1l6.6,3.9c0.2,0.1,0.3,0.3,0.2,0.5l-4.3,8.1
				c0,0.1-0.1,0.1-0.2,0.2l-4.5,2.1c-0.1,0-0.2,0.1-0.2,0.2l-1.7,4.6c0,0.1-0.1,0.2-0.2,0.2l-6.6,4.4c-0.1,0.1-0.1,0.1-0.2,0.2
				l-0.5,1.8c-0.1,0.3,0.2,0.6,0.5,0.5c17.2-4.5,29.9-20.1,29.9-38.7c0-8.1-2.4-15.7-6.6-22C-647.6,457.9-647.8,457.9-647.9,457.9z"
				/>
		</g>
		<g>
			<path d="M-676.3,501l-2.8-5.2c-0.1-0.1-0.1-0.3,0-0.4l2.4-5c0.1-0.2,0-0.5-0.3-0.6l-2.1-0.6c-0.1,0-0.1-0.1-0.2-0.1l-2.8-2.9
				c-0.1-0.1-0.1-0.1-0.2-0.1l-6.3-1.4c-0.1,0-0.2-0.1-0.3-0.2l-1.3-2.8c-0.2-0.4-0.8-0.3-0.8,0.2v0.5c0,0.2-0.2,0.4-0.4,0.4h-0.4
				c-0.1,0-0.3-0.1-0.3-0.2l-5.5-7.5c-0.1-0.1-0.1-0.2-0.1-0.2v-6.1c0-0.1,0-0.1-0.1-0.2l-4-6.5c-0.1-0.1-0.3-0.2-0.4-0.2l-6.4,1.1
				c0,0,0,0-0.1,0h-4.3c-0.1,0-0.2,0-0.2-0.1l-1.7-1.1c-0.2-0.2-0.2-0.5,0-0.7l1-0.8c0.3-0.3,0.1-0.8-0.3-0.7l-0.9,0.2
				c-0.1,0-0.2,0.1-0.3,0.2c-3.4,5.9-5.4,12.7-5.4,20c0,22.1,17.9,40,40,40c1.6,0,3.1-0.1,4.6-0.3c0.2,0,0.4-0.2,0.4-0.4l-0.4-4.4
				c0,0,0-0.1,0-0.1c0.2-0.7,1.8-7.1,1.8-7.4C-674.4,507.2-676.1,501.6-676.3,501C-676.3,501-676.3,501-676.3,501z"/>
		</g>
		<g>
			<path d="M-706,453l7-1c0,0,0.1,0,0.1,0l3.1-1.7c0.1-0.1,0.2-0.1,0.3,0l3.5,1c0,0,0.1,0,0.1,0l5.6-0.3c0.1,0,0.3-0.1,0.3-0.2
				l1.8-2.8c0.1-0.1,0.2-0.2,0.4-0.2l2.6,0.4c0,0,0.1,0,0.1,0l6.9-0.7c0.1,0,0.2-0.1,0.3-0.1l1.8-2c0,0,0,0,0.1-0.1l2.6-1.7
				c0.1-0.1,0.2-0.1,0.3-0.1l3.7,0.6c0,0,0.1,0,0.1,0l0,0c0.4-0.1,0.5-0.6,0.1-0.8c-4.8-2.1-10.2-3.3-15.8-3.3
				c-12.4,0-23.5,5.7-30.9,14.5h0L-706,453C-706,453-706,453-706,453z M-679.2,444.1l3.9-2.1c0.1-0.1,0.3-0.1,0.4,0l1.9,1.1
				c0.3,0.1,0.3,0.5,0,0.7l-3.2,2.5c-0.1,0-0.1,0.1-0.2,0.1l-3.4,0.3c-0.1,0-0.2,0-0.3-0.1l-1-0.6c-0.3-0.2-0.2-0.5,0-0.7
				L-679.2,444.1C-679.2,444.1-679.2,444.1-679.2,444.1z M-691,444.5l1.3,0.6c0.1,0,0.2,0,0.3,0l1.9-0.6c0.2-0.1,0.4,0,0.5,0.2
				l0.9,1.5c0.1,0.2,0,0.5-0.2,0.6l-4.8,1.3c-0.1,0-0.2,0-0.3,0l-1.9-1.1c-0.3-0.2-0.3-0.5,0-0.7c0.6-0.4,1.6-1.1,1.9-1.5
				C-691.3,444.5-691.1,444.5-691,444.5z"/>
		</g>
	</g>
	<g>
		<g>
			<path class="st7" d="M-651.9,453.9l-0.9,0.3c0,0-0.1,0-0.1,0l-6.1,0.5c-0.1,0-0.2,0.1-0.3,0.2l-1.5,2.4c-0.1,0.2-0.3,0.2-0.5,0.2
				l-0.9-0.3c-0.1,0-0.1,0-0.1-0.1l-4.9-4.4c-0.1,0-0.1-0.1-0.1-0.2l-0.7-2.3c0,0,0,0,0,0l-0.9-2.4c0-0.1-0.1-0.1-0.1-0.2l-3-2.7
				c-0.1,0-0.1-0.1-0.2-0.1l-3.2-0.6c-0.2,0-0.5,0.1-0.5,0.4l-0.1,1.1c0,0.1,0,0.2,0.1,0.3l3.5,3.5c0,0,0,0,0,0l1.5,1.7
				c0.2,0.2,0.1,0.5-0.1,0.6l-1.4,0.7c-0.1,0-0.2,0.1-0.3,0l-1.5-0.4c0,0,0,0,0,0l-2.2-0.9c-0.2-0.1-0.3-0.2-0.3-0.4l0.1-1.4
				c0-0.2-0.1-0.3-0.3-0.4l-2.5-1c-0.2-0.1-0.5,0-0.6,0.3l-0.9,4c0,0.2-0.2,0.3-0.3,0.3l-2.7,0.6c-0.2,0-0.3,0.2-0.3,0.4l0.2,2
				c0,0.2,0.2,0.3,0.3,0.4l3.6,0.7c0.2,0,0.4-0.1,0.5-0.3l0.6-3.4c0-0.2,0.2-0.4,0.5-0.3l3,0.5c0.1,0,0.1,0,0.1,0.1l1.5,0.9
				c0.1,0,0.1,0.1,0.2,0.1h2.3c0.2,0,0.3,0.1,0.4,0.2l1.7,3.3c0,0,0,0.1,0.1,0.1l4.6,4.6c0.1,0.1,0.1,0.2,0.1,0.4l-0.2,1.3
				c0,0.2-0.2,0.4-0.5,0.3l-3.3-0.4c-0.1,0-0.2,0-0.2,0l-6.4,3.3c0,0-0.1,0.1-0.1,0.1l-4.7,5.6c0,0-0.1,0.1-0.1,0.2l-0.5,2.1
				c0,0.2-0.2,0.3-0.4,0.3h-1.3c-0.1,0-0.1,0-0.2,0l-2.9-1.4c-0.1-0.1-0.2,0-0.3,0l-2.6,1.2c-0.2,0.1-0.3,0.3-0.2,0.5l0.5,2.2
				c0.1,0.3,0.5,0.4,0.7,0.2l0.7-0.8c0.1-0.1,0.2-0.1,0.3-0.1l1.8-0.1c0.2,0,0.4,0.2,0.4,0.4l-0.1,2.2c0,0.2,0.1,0.4,0.3,0.4
				l1.5,0.5c0.1,0,0.1,0.1,0.2,0.1l1.7,1.9c0.1,0.1,0.3,0.2,0.4,0.1l2.9-0.8c0.1,0,0.1,0,0.2,0l3.6,0.6c0,0,0,0,0,0l4.2,1.1
				c0,0,0,0,0.1,0l1.9,0.2c0.1,0,0.2,0.1,0.3,0.1l3.5,3.9c0,0,0.1,0.1,0.1,0.1l6.6,3.9c0.2,0.1,0.3,0.3,0.2,0.5l-4.3,8.1
				c0,0.1-0.1,0.1-0.2,0.2l-4.5,2.1c-0.1,0-0.2,0.1-0.2,0.2l-1.7,4.6c0,0.1-0.1,0.2-0.2,0.2l-6.6,4.4c-0.1,0.1-0.1,0.1-0.2,0.2
				l-0.5,1.8c-0.1,0.3,0.2,0.6,0.5,0.5c17.2-4.5,29.9-20.1,29.9-38.7c0-8.1-2.4-15.7-6.6-22C-651.6,453.9-651.8,453.9-651.9,453.9z"
				/>
		</g>
		<g>
			<path class="st7" d="M-680.3,497l-2.8-5.2c-0.1-0.1-0.1-0.3,0-0.4l2.4-5c0.1-0.2,0-0.5-0.3-0.6l-2.1-0.6c-0.1,0-0.1-0.1-0.2-0.1
				l-2.8-2.9c-0.1-0.1-0.1-0.1-0.2-0.1l-6.3-1.4c-0.1,0-0.2-0.1-0.3-0.2l-1.3-2.8c-0.2-0.4-0.8-0.3-0.8,0.2v0.5
				c0,0.2-0.2,0.4-0.4,0.4h-0.4c-0.1,0-0.3-0.1-0.3-0.2l-5.5-7.5c-0.1-0.1-0.1-0.2-0.1-0.2v-6.1c0-0.1,0-0.1-0.1-0.2l-4-6.5
				c-0.1-0.1-0.3-0.2-0.4-0.2l-6.4,1.1c0,0,0,0-0.1,0h-4.3c-0.1,0-0.2,0-0.2-0.1l-1.7-1.1c-0.2-0.2-0.2-0.5,0-0.7l1-0.8
				c0.3-0.3,0.1-0.8-0.3-0.7l-0.9,0.2c-0.1,0-0.2,0.1-0.3,0.2c-3.4,5.9-5.4,12.7-5.4,20c0,22.1,17.9,40,40,40c1.6,0,3.1-0.1,4.6-0.3
				c0.2,0,0.4-0.2,0.4-0.4l-0.4-4.4c0,0,0-0.1,0-0.1c0.2-0.7,1.8-7.1,1.8-7.4C-678.4,503.2-680.1,497.6-680.3,497
				C-680.3,497-680.3,497-680.3,497z"/>
		</g>
		<g>
			<path class="st7" d="M-710,449l7-1c0,0,0.1,0,0.1,0l3.1-1.7c0.1-0.1,0.2-0.1,0.3,0l3.5,1c0,0,0.1,0,0.1,0l5.6-0.3
				c0.1,0,0.3-0.1,0.3-0.2l1.8-2.8c0.1-0.1,0.2-0.2,0.4-0.2l2.6,0.4c0,0,0.1,0,0.1,0l6.9-0.7c0.1,0,0.2-0.1,0.3-0.1l1.8-2
				c0,0,0,0,0.1-0.1l2.6-1.7c0.1-0.1,0.2-0.1,0.3-0.1l3.7,0.6c0,0,0.1,0,0.1,0l0,0c0.4-0.1,0.5-0.6,0.1-0.8
				c-4.8-2.1-10.2-3.3-15.8-3.3c-12.4,0-23.5,5.7-30.9,14.5h0L-710,449C-710,449-710,449-710,449z M-683.2,440.1l3.9-2.1
				c0.1-0.1,0.3-0.1,0.4,0l1.9,1.1c0.3,0.1,0.3,0.5,0,0.7l-3.2,2.5c-0.1,0-0.1,0.1-0.2,0.1l-3.4,0.3c-0.1,0-0.2,0-0.3-0.1l-1-0.6
				c-0.3-0.2-0.2-0.5,0-0.7L-683.2,440.1C-683.2,440.1-683.2,440.1-683.2,440.1z M-695,440.5l1.3,0.6c0.1,0,0.2,0,0.3,0l1.9-0.6
				c0.2-0.1,0.4,0,0.5,0.2l0.9,1.5c0.1,0.2,0,0.5-0.2,0.6l-4.8,1.3c-0.1,0-0.2,0-0.3,0l-1.9-1.1c-0.3-0.2-0.3-0.5,0-0.7
				c0.6-0.4,1.6-1.1,1.9-1.5C-695.3,440.5-695.1,440.5-695,440.5z"/>
		</g>
	</g>
</g>
</svg>
