<?xml version="1.0" encoding="utf-8"?>
<!-- Generator: Adobe Illustrator 19.0.0, SVG Export Plug-In . SVG Version: 6.00 Build 0)  -->
<svg version="1.1" id="Layer_1" xmlns="http://www.w3.org/2000/svg" xmlns:xlink="http://www.w3.org/1999/xlink" x="0px" y="0px"
	 viewBox="470.5 437.3 1889.5 129.6" style="enable-background:new 470.5 437.3 1889.5 129.6;" xml:space="preserve">
<style type="text/css">
	.st0{fill:#69A447;}
	.st1{fill:#532C18;}
	.st2{fill:#FFFFFF;}
	.st3{opacity:0.66;enable-background:new    ;}
</style>
<g id="XMLID_1_">
	<polygon class="st0" points="470.4,516.8 2360,516.6 2360,566.8 470.4,567 	"/>
</g>
<g id="XMLID_101_">
	<polygon class="st1" points="470.4,437.4 2360,437.3 2360,533.5 470.4,533.6 	"/>
</g>
<g id="XMLID_100_">
	<path class="st2" d="M2360,490h-12v-4h12V490z M2328,490h-25v-4h25V490z M2283,490h-25v-4h25V490z M2238,490h-25v-4h25V490z
		 M2193,490h-25v-4h25V490z M2148,490h-25v-4h25V490z M2103,490h-25v-4h25V490z M2058,490h-25v-4h25V490z M2013,490h-25v-4h25V490z
		 M1968,490h-25v-4h25V490z M1923,490h-25v-4h25V490z M1878,490h-25v-4h25V490z M1833,490h-25v-4h25V490z M1788,490h-25v-4h25V490z
		 M1743,490h-25v-4h25V490z M1698,490h-25v-4h25V490z M1653,490h-25v-4h25V490z M1608,490h-25v-4h25V490z M1563,490h-25v-4h25V490z
		 M1518,490h-25v-4h25V490z M1473,490h-25v-4h25V490z M1428,490h-25v-4h25V490z M1383,490h-25v-4h25V490z M1338,490h-25v-4h25V490z
		 M1293,490h-25v-4h25V490z M1248,490h-25v-4h25V490z M1203,490h-25v-4h25V490z M1158,490h-25v-4h25V490z M1113,490h-25v-4h25V490z
		 M1068,490h-25v-4h25V490z M1023,490h-25v-4h25V490z M978,490h-25v-4h25V490z M933,490h-25v-4h25V490z M888,490h-25v-4h25V490z
		 M843,490h-25v-4h25V490z M798,490h-25v-4h25V490z M753,490h-25v-4h25V490z M708,490h-25v-4h25V490z M663,490h-25v-4h25V490z
		 M618,490h-25v-4h25V490z M573,490h-25v-4h25V490z M528,490h-25v-4h25V490z M483,490l-12.6,0.1v-4L483,486V490z"/>
</g>
<g id="XMLID_99_" class="st3">
	
		<rect x="470.4" y="437.3" transform="matrix(-1 4.961286e-05 -4.961286e-05 -1 2830.4028 883.7236)" class="st2" width="1889.6" height="9.1"/>
</g>
</svg>
