<?xml version="1.0" encoding="utf-8"?>
<!-- Generator: Adobe Illustrator 19.0.0, SVG Export Plug-In . SVG Version: 6.00 Build 0)  -->
<svg version="1.1" id="Layer_1" xmlns="http://www.w3.org/2000/svg" xmlns:xlink="http://www.w3.org/1999/xlink" x="0px" y="0px"
	 viewBox="0 0 6169.6 312.7" style="enable-background:new 0 0 6169.6 312.7;" xml:space="preserve">
<style type="text/css">
	.st0{fill:none;}
	.st1{opacity:0.22;fill:#A9B9B5;}
	.st2{opacity:0.22;fill:#C0D8D3;}
</style>
<g id="XMLID_3_">
	<path id="XMLID_4_" class="st0" d="M434.2,70.2h23.6c0,0,0,0,0,0C449.8,70.2,442,70.2,434.2,70.2C434.2,70.2,434.2,70.2,434.2,70.2
		z"/>
	<path id="XMLID_5_" class="st0" d="M284,155.4C284,155.4,284,155.4,284,155.4l0-19.5c0,0,0,0,0,0C284,142.4,284,148.8,284,155.4z"
		/>
	<path id="XMLID_6_" class="st0" d="M412.1,70.2h13.5c0,0,0,0,0,0C421.1,70.2,416.7,70.2,412.1,70.2
		C412.1,70.2,412.1,70.2,412.1,70.2z"/>
	
		<rect id="XMLID_7_" x="286.7" y="309.4" transform="matrix(1.189927e-02 0.9999 -0.9999 1.189927e-02 595.9001 15.8256)" class="st0" width="6.6" height="0.1"/>
	<path id="XMLID_37_" class="st0" d="M380,143.9C380,143.9,380.1,143.9,380,143.9l0-9.6c0,0,0,0,0,0C380,137.6,380,140.8,380,143.9z
		"/>
	<path id="XMLID_43_" class="st0" d="M284,160.7C284,160.7,284,160.7,284,160.7l0-0.7c0,0,0,0,0,0C284,160.2,284,160.4,284,160.7z"
		/>
	<path id="XMLID_10_" class="st1" d="M576.7,277.5c-13.1,0-26.3,0-39.4,0c0-51.4,0-102.7,0-154.1c-23.6,0-47.1,0-70.7,0
		c-0.1,1.9-0.3,3.8-0.3,5.7c0,34.8,0,69.6,0,104.4c0,13.5,0,26.9,0,40.4l0-0.1c0-70.7,0-141.5,0-212.2c-31.4,0-62.8,0-94.2,0
		c-0.1,2.7-0.4,5.5-0.4,8.2c0,8.2,0,16.3,0,24.5c-0.4-0.4-0.9-0.5-1.8-0.5c-22.5,0-44.9,0-67.4,0c-5,0-10,0-15,0l0.8,64.3l0,0
		l1.8,148h290c0-8.4,0-16.9,0-25.3C579.9,277.6,579.9,277.5,576.7,277.5z M380.1,143.9C380.1,143.9,380,143.9,380.1,143.9
		c0-3.2,0-6.3,0-9.6c0,0,0,0,0,0V143.9z M425.6,70.2h-13.5c0,0,0,0,0,0C416.7,70.2,421.1,70.2,425.6,70.2
		C425.6,70.2,425.6,70.2,425.6,70.2z M457.7,70.2h-23.6c0,0,0,0,0,0C442,70.2,449.8,70.2,457.7,70.2
		C457.7,70.2,457.7,70.2,457.7,70.2z"/>
	<path id="XMLID_61_" class="st1" d="M2866.7,283.7c-10.3,0-20.6,0-31,0c0-40.3,0-80.7,0-121c-18.5,0-37,0-55.5,0
		c-0.1,1.5-0.2,3-0.2,4.5c0,27.3,0,54.7,0,82c0,10.6,0,21.1,0,31.7l0-0.1c0-55.5,0-111.1,0-166.6c-24.7,0-49.3,0-74,0
		c-0.1,2.1-0.3,4.3-0.3,6.4c0,6.4,0,12.8,0,19.2c-0.3-0.3-0.7-0.4-1.4-0.4c-17.6,0-35.3,0-52.9,0c-3.9,0-7.9,0-11.8,0l0.6,50.5l0,0
		l1.4,116.2h227.7c0-6.6,0-13.2,0-19.9C2869.3,283.7,2869.2,283.7,2866.7,283.7z M2712.3,178.8
		C2712.3,178.8,2712.3,178.8,2712.3,178.8c0-2.5,0-5,0-7.5c0,0,0,0,0,0V178.8z M2748.1,120.9h-10.6c0,0,0,0,0,0
		C2741.1,120.8,2744.6,120.8,2748.1,120.9C2748.1,120.8,2748.1,120.9,2748.1,120.9z M2773.3,120.9h-18.5c0,0,0,0,0,0
		C2761,120.9,2767.1,120.9,2773.3,120.9C2773.3,120.9,2773.3,120.9,2773.3,120.9z"/>
	<path id="XMLID_41_" class="st2" d="M288.2,165.7L288.2,165.7l-0.8-64.3l-0.6-50.3h0l0-2.2L177,49.7l-33-9.5L143.9,30l-0.1,0
		l0.7-2.5L49.2,0L48,4.2l0.6,0.2l0.8,66.9L0.2,71.9l1,84.8l-1.2,0l1.8,149.5h288.1L288.2,165.7z M284,160.7
		C284,160.7,284,160.7,284,160.7c0-0.2,0-0.5,0-0.7c0,0,0,0,0,0V160.7z M284,155.4C284,155.4,284,155.4,284,155.4
		c0-6.5,0-12.9,0-19.5c0,0,0,0,0,0V155.4z"/>
	<path id="XMLID_49_" class="st2" d="M1479.8,165.7L1479.8,165.7l-0.8-64.3l-0.6-50.3h0l0-2.2l-109.8,0.8l-33-9.5l-0.1-10.3l-0.1,0
		l0.7-2.5L1240.8,0l-1.2,4.2l0.6,0.2l0.8,66.9l-49.3,0.6l1,84.8l-1.2,0l1.8,149.5h288.1L1479.8,165.7z M1475.6,160.7
		C1475.6,160.7,1475.6,160.7,1475.6,160.7c0-0.2,0-0.5,0-0.7c0,0,0,0,0,0V160.7z M1475.6,155.4
		C1475.6,155.4,1475.6,155.4,1475.6,155.4c0-6.5,0-12.9,0-19.5c0,0,0,0,0,0V155.4z"/>
	<path id="XMLID_53_" class="st2" d="M2505.6,263L2505.6,263l-0.2-19.7l-0.2-15.5h0l0-0.7l-33.7,0.2l-10.1-2.9l0-3.2l0,0l0.2-0.8
		l-29.3-8.4l-0.4,1.3l0.2,0.1l0.2,20.5l-15.1,0.2l0.3,26.1l-0.4,0l0.5,45.9h88.5L2505.6,263z M2504.3,261.5
		C2504.3,261.5,2504.3,261.5,2504.3,261.5c0-0.1,0-0.1,0-0.2c0,0,0,0,0,0V261.5z M2504.3,259.8
		C2504.3,259.8,2504.3,259.8,2504.3,259.8c0-2,0-4,0-6c0,0,0,0,0,0V259.8z"/>
	<path id="XMLID_57_" class="st2" d="M2641.6,239L2641.6,239l-0.4-30.7l-0.3-24l0,0l0-1l-52.4,0.4l-15.7-4.5l-0.1-4.9l-0.1,0
		l0.3-1.2l-45.5-13.1l-0.6,2l0.3,0.1l0.4,31.9l-23.5,0.3l0.5,40.5l-0.6,0l0.8,71.3h137.5L2641.6,239z M2639.6,236.6
		C2639.6,236.6,2639.6,236.6,2639.6,236.6c0-0.1,0-0.2,0-0.3c0,0,0,0,0,0V236.6z M2639.6,234C2639.6,234,2639.6,234,2639.6,234
		c0-3.1,0-6.2,0-9.3c0,0,0,0,0,0V234z"/>
	<path id="XMLID_74_" class="st1" d="M3841,278.7c-12.6,0-25.3,0-37.9,0c0-49.4,0-98.8,0-148.1c-22.6,0-45.3,0-67.9,0
		c-0.1,1.8-0.3,3.7-0.3,5.5c0,33.5,0,66.9,0,100.4c0,12.9,0,25.9,0,38.8l0-0.1c0-68,0-136,0-204c-30.2,0-60.4,0-90.5,0
		c-0.1,2.6-0.4,5.3-0.4,7.9c0,7.8,0,15.7,0,23.5c-0.3-0.4-0.9-0.5-1.8-0.5c-21.6,0-43.2,0-64.7,0c-4.8,0-9.6,0-14.4,0l0.7,61.8l0,0
		l1.7,142.3h278.7c0-8.1,0-16.2,0-24.3C3844.1,278.7,3844.1,278.7,3841,278.7z M3652,150.2C3652,150.2,3652,150.2,3652,150.2
		c0-3,0-6.1,0-9.2c0,0,0,0,0,0V150.2z M3695.9,79.4h-13c0,0,0,0,0,0C3687.3,79.3,3691.5,79.3,3695.9,79.4
		C3695.9,79.3,3695.9,79.4,3695.9,79.4z M3726.7,79.4H3704c0,0,0,0,0,0C3711.6,79.4,3719.1,79.4,3726.7,79.4
		C3726.7,79.4,3726.7,79.4,3726.7,79.4z"/>
	<path id="XMLID_70_" class="st2" d="M3346.7,263L3346.7,263l-0.2-19.7l-0.2-15.5l0,0l0-0.7l-33.7,0.2l-10.1-2.9l0-3.2l0,0l0.2-0.8
		l-29.3-8.4l-0.4,1.3l0.2,0.1l0.2,20.5l-15.1,0.2l0.3,26.1l-0.4,0l0.5,45.9h88.5L3346.7,263z M3345.4,261.5
		C3345.4,261.5,3345.4,261.5,3345.4,261.5c0-0.1,0-0.1,0-0.2c0,0,0,0,0,0V261.5z M3345.4,259.8
		C3345.4,259.8,3345.4,259.8,3345.4,259.8c0-2,0-4,0-6c0,0,0,0,0,0V259.8z"/>
	<path id="XMLID_80_" class="st2" d="M4678,263L4678,263l-0.2-19.7l-0.2-15.5l0,0l0-0.7l-33.7,0.2l-10.1-2.9l0-3.2l0,0l0.2-0.8
		l-29.3-8.4l-0.4,1.3l0.2,0.1l0.2,20.5l-15.1,0.2l0.3,26.1l-0.4,0l0.5,45.9h88.5L4678,263z M4676.7,261.5
		C4676.7,261.5,4676.7,261.5,4676.7,261.5c0-0.1,0-0.1,0-0.2c0,0,0,0,0,0V261.5z M4676.7,259.8
		C4676.7,259.8,4676.7,259.8,4676.7,259.8c0-2,0-4,0-6c0,0,0,0,0,0V259.8z"/>
	<path id="XMLID_44_" class="st1" d="M1312,288.6c-8.1,0-16.1,0-24.2,0c0-31.5,0-62.9,0-94.4c-14.4,0-28.9,0-43.3,0
		c-0.1,1.2-0.2,2.3-0.2,3.5c0,21.3,0,42.6,0,63.9c0,8.2,0,16.5,0,24.7l0,0c0-43.3,0-86.6,0-130c-19.2,0-38.5,0-57.7,0
		c-0.1,1.7-0.2,3.3-0.2,5c0,5,0,10,0,15c-0.2-0.2-0.6-0.3-1.1-0.3c-13.8,0-27.5,0-41.3,0c-3.1,0-6.1,0-9.2,0l0.5,39.3l0,0l1.1,90.7
		H1314c0-5.2,0-10.3,0-15.5C1314,288.7,1314,288.6,1312,288.6z M1191.6,206.8C1191.6,206.8,1191.6,206.8,1191.6,206.8
		c0-1.9,0-3.9,0-5.9c0,0,0,0,0,0V206.8z M1219.5,161.7h-8.3c0,0,0,0,0,0C1214.1,161.6,1216.7,161.6,1219.5,161.7
		C1219.5,161.6,1219.5,161.7,1219.5,161.7z M1239.2,161.7h-14.4c0,0,0,0,0,0C1229.5,161.7,1234.3,161.7,1239.2,161.7
		C1239.2,161.7,1239.2,161.7,1239.2,161.7z"/>
	<path id="XMLID_89_" class="st2" d="M5451.8,165.7L5451.8,165.7l-0.8-64.3l-0.6-50.3h0l0-2.2l-109.8,0.8l-33-9.5l-0.1-10.3l-0.1,0
		l0.7-2.5L5212.8,0l-1.2,4.2l0.6,0.2l0.8,66.9l-49.3,0.6l1,84.8l-1.2,0l1.8,149.5h288.1L5451.8,165.7z M5447.6,160.7
		C5447.6,160.7,5447.6,160.7,5447.6,160.7c0-0.2,0-0.5,0-0.7c0,0,0,0,0,0V160.7z M5447.6,155.4
		C5447.6,155.4,5447.6,155.4,5447.6,155.4c0-6.5,0-12.9,0-19.5c0,0,0,0,0,0V155.4z"/>
	<path id="XMLID_84_" class="st1" d="M5284,288.6c-8.1,0-16.1,0-24.2,0c0-31.5,0-62.9,0-94.4c-14.4,0-28.9,0-43.3,0
		c-0.1,1.2-0.2,2.3-0.2,3.5c0,21.3,0,42.6,0,63.9c0,8.2,0,16.5,0,24.7l0,0c0-43.3,0-86.6,0-130c-19.2,0-38.5,0-57.7,0
		c-0.1,1.7-0.2,3.3-0.2,5c0,5,0,10,0,15c-0.2-0.2-0.6-0.3-1.1-0.3c-13.8,0-27.5,0-41.3,0c-3.1,0-6.1,0-9.2,0l0.5,39.3l0,0l1.1,90.7
		H5286c0-5.2,0-10.3,0-15.5C5286,288.7,5286,288.6,5284,288.6z M5163.6,206.8C5163.6,206.8,5163.6,206.8,5163.6,206.8
		c0-1.9,0-3.9,0-5.9c0,0,0,0,0,0V206.8z M5191.5,161.7h-8.3c0,0,0,0,0,0C5186.1,161.6,5188.7,161.6,5191.5,161.7
		C5191.5,161.6,5191.5,161.7,5191.5,161.7z M5211.2,161.7h-14.4c0,0,0,0,0,0C5201.5,161.7,5206.3,161.7,5211.2,161.7
		C5211.2,161.7,5211.2,161.7,5211.2,161.7z"/>
	<path id="XMLID_66_" class="st1" d="M4632,288.6c-8.1,0-16.1,0-24.2,0c0-31.5,0-62.9,0-94.4c-14.4,0-28.9,0-43.3,0
		c-0.1,1.2-0.2,2.3-0.2,3.5c0,21.3,0,42.6,0,63.9c0,8.2,0,16.5,0,24.7l0,0c0-43.3,0-86.6,0-130c-19.2,0-38.5,0-57.7,0
		c-0.1,1.7-0.2,3.3-0.2,5c0,5,0,10,0,15c-0.2-0.2-0.6-0.3-1.1-0.3c-13.8,0-27.5,0-41.3,0c-3.1,0-6.1,0-9.2,0l0.5,39.3l0,0l1.1,90.7
		H4634c0-5.2,0-10.3,0-15.5C4634,288.7,4634,288.6,4632,288.6z M4511.6,206.8C4511.6,206.8,4511.6,206.8,4511.6,206.8
		c0-1.9,0-3.9,0-5.9c0,0,0,0,0,0V206.8z M4539.5,161.7h-8.3c0,0,0,0,0,0C4534.1,161.6,4536.7,161.6,4539.5,161.7
		C4539.5,161.6,4539.5,161.7,4539.5,161.7z M4559.2,161.7h-14.4c0,0,0,0,0,0C4549.5,161.7,4554.3,161.7,4559.2,161.7
		C4559.2,161.7,4559.2,161.7,4559.2,161.7z"/>
</g>
</svg>
