<?xml version="1.0" encoding="utf-8"?>
<!-- Generator: Adobe Illustrator 19.0.0, SVG Export Plug-In . SVG Version: 6.00 Build 0)  -->
<svg version="1.1" id="Layer_1" xmlns="http://www.w3.org/2000/svg" xmlns:xlink="http://www.w3.org/1999/xlink" x="0px" y="0px"
	 viewBox="0 0 6169.6 649.1" style="enable-background:new 0 0 6169.6 649.1;" xml:space="preserve">
<style type="text/css">
	.st0{opacity:0.34;fill:#56C4CD;}
	.st1{opacity:0.34;fill:#D3137E;}
</style>
<path id="XMLID_122_" class="st0" d="M1706.1,343c-1.4-22.3-19.9-40-42.6-40c-4.6,0-9.1,0.7-13.2,2.1
	c-10.4-10.2-24.6-16.5-40.4-16.5c-15.7,0-30,6.3-40.4,16.5c-4.2-1.4-8.6-2.1-13.2-2.1c-22.7,0-41.2,17.7-42.6,40H1706.1z"/>
<path id="XMLID_4_" class="st0" d="M3118.1,224.6c-1.4-22.3-19.9-40-42.6-40c-4.6,0-9.1,0.7-13.2,2.1
	c-10.4-10.2-24.6-16.5-40.4-16.5c-15.7,0-30,6.3-40.4,16.5c-4.2-1.4-8.6-2.1-13.2-2.1c-22.7,0-41.2,17.7-42.6,40H3118.1z"/>
<path id="XMLID_121_" class="st0" d="M241.1,121.7c-1.4-22.3-19.9-40-42.6-40c-4.6,0-9.1,0.7-13.2,2.1
	c-10.4-10.2-24.6-16.5-40.4-16.5c-15.7,0-30,6.3-40.4,16.5c-4.2-1.4-8.6-2.1-13.2-2.1c-22.7,0-41.2,17.7-42.6,40H241.1z"/>
<path id="XMLID_5_" class="st0" d="M3261.6,112.7c-0.9-14.9-13.3-26.7-28.4-26.7c-3.1,0-6,0.5-8.8,1.4c-6.9-6.8-16.4-11-26.9-11
	s-20,4.2-26.9,11c-2.8-0.9-5.7-1.4-8.8-1.4c-15.1,0-27.5,11.8-28.4,26.7H3261.6z"/>
<path id="XMLID_120_" class="st1" d="M897.6,246.5c-1.1-18-16-32.2-34.3-32.2c-3.7,0-7.3,0.6-10.6,1.7c-8.4-8.2-19.8-13.3-32.5-13.3
	c-12.7,0-24.1,5.1-32.5,13.3c-3.3-1.1-6.9-1.7-10.6-1.7c-18.2,0-33.1,14.2-34.3,32.2H897.6z"/>
<path id="XMLID_119_" class="st1" d="M1513.8,110.1c-1.4-22.3-19.9-40-42.6-40c-4.6,0-9.1,0.7-13.2,2.1
	c-10.4-10.2-24.6-16.5-40.4-16.5c-15.7,0-30,6.3-40.4,16.5c-4.2-1.4-8.6-2.1-13.2-2.1c-22.7,0-41.2,17.7-42.6,40H1513.8z"/>
<path id="XMLID_7_" class="st1" d="M3352.2,246.5c-1.1-18-16-32.2-34.3-32.2c-3.7,0-7.3,0.6-10.6,1.7c-8.4-8.2-19.8-13.3-32.5-13.3
	s-24.1,5.1-32.5,13.3c-3.3-1.1-6.9-1.7-10.6-1.7c-18.2,0-33.1,14.2-34.3,32.2H3352.2z"/>
<path id="XMLID_6_" class="st1" d="M3968.4,110.1c-1.4-22.3-19.9-40-42.6-40c-4.6,0-9.1,0.7-13.2,2.1
	c-10.4-10.2-24.6-16.5-40.4-16.5c-15.7,0-30,6.3-40.4,16.5c-4.2-1.4-8.6-2.1-13.2-2.1c-22.7,0-41.2,17.7-42.6,40H3968.4z"/>
<path id="XMLID_118_" class="st1" d="M699,442.3c-1.4-22.3-19.9-40-42.6-40c-4.6,0-9.1,0.7-13.2,2.1c-10.4-10.2-24.6-16.5-40.4-16.5
	c-15.7,0-30,6.3-40.4,16.5c-4.2-1.4-8.6-2.1-13.2-2.1c-22.7,0-41.2,17.7-42.6,40H699z"/>
<path id="XMLID_37_" class="st0" d="M5625.8,343c-1.4-22.3-19.9-40-42.6-40c-4.6,0-9.1,0.7-13.2,2.1c-10.4-10.2-24.6-16.5-40.4-16.5
	c-15.7,0-30,6.3-40.4,16.5c-4.2-1.4-8.6-2.1-13.2-2.1c-22.7,0-41.2,17.7-42.6,40H5625.8z"/>
<path id="XMLID_10_" class="st1" d="M4817.2,246.5c-1.1-18-16-32.2-34.3-32.2c-3.7,0-7.3,0.6-10.6,1.7c-8.4-8.2-19.8-13.3-32.5-13.3
	c-12.7,0-24.1,5.1-32.5,13.3c-3.3-1.1-6.9-1.7-10.6-1.7c-18.2,0-33.1,14.2-34.3,32.2H4817.2z"/>
<path id="XMLID_9_" class="st1" d="M5433.4,110.1c-1.4-22.3-19.9-40-42.6-40c-4.6,0-9.1,0.7-13.2,2.1
	c-10.4-10.2-24.6-16.5-40.4-16.5c-15.7,0-30,6.3-40.4,16.5c-4.2-1.4-8.6-2.1-13.2-2.1c-22.7,0-41.2,17.7-42.6,40H5433.4z"/>
</svg>
