<?xml version="1.0" encoding="utf-8"?>
<!-- Generator: Adobe Illustrator 19.0.0, SVG Export Plug-In . SVG Version: 6.00 Build 0)  -->
<svg version="1.1" id="Layer_1" xmlns="http://www.w3.org/2000/svg" xmlns:xlink="http://www.w3.org/1999/xlink" x="0px" y="0px"
	 viewBox="0 0 6169.6 649.1" style="enable-background:new 0 0 6169.6 649.1;" xml:space="preserve">
<style type="text/css">
	.st0{opacity:0.34;fill:#56C4CD;}
	.st1{opacity:0.34;fill:#D3137E;}
</style>
<path id="XMLID_122_" class="st0" d="M3968.4,343c1.4-22.3,19.9-40,42.6-40c4.6,0,9.1,0.7,13.2,2.1c10.4-10.2,24.6-16.5,40.4-16.5
	c15.7,0,30,6.3,40.4,16.5c4.2-1.4,8.6-2.1,13.2-2.1c22.7,0,41.2,17.7,42.6,40H3968.4z"/>
<path id="XMLID_4_" class="st0" d="M2556.4,224.6c1.4-22.3,19.9-40,42.6-40c4.6,0,9.1,0.7,13.2,2.1c10.4-10.2,24.6-16.5,40.4-16.5
	c15.7,0,30,6.3,40.4,16.5c4.2-1.4,8.6-2.1,13.2-2.1c22.7,0,41.2,17.7,42.6,40H2556.4z"/>
<path id="XMLID_121_" class="st0" d="M5433.4,121.7c1.4-22.3,19.9-40,42.6-40c4.6,0,9.1,0.7,13.2,2.1c10.4-10.2,24.6-16.5,40.4-16.5
	s30,6.3,40.4,16.5c4.2-1.4,8.6-2.1,13.2-2.1c22.7,0,41.2,17.7,42.6,40H5433.4z"/>
<path id="XMLID_119_" class="st1" d="M4160.7,110.1c1.4-22.3,19.9-40,42.6-40c4.6,0,9.1,0.7,13.2,2.1c10.4-10.2,24.6-16.5,40.4-16.5
	s30,6.3,40.4,16.5c4.2-1.4,8.6-2.1,13.2-2.1c22.7,0,41.2,17.7,42.6,40H4160.7z"/>
<path id="XMLID_7_" class="st1" d="M2322.3,246.5c1.1-18,16-32.2,34.3-32.2c3.7,0,7.3,0.6,10.6,1.7c8.4-8.2,19.8-13.3,32.5-13.3
	s24.1,5.1,32.5,13.3c3.3-1.1,6.9-1.7,10.6-1.7c18.2,0,33.1,14.2,34.3,32.2H2322.3z"/>
<path id="XMLID_37_" class="st0" d="M1284.9,343c1.4-22.3,19.9-40,42.6-40c4.6,0,9.1,0.7,13.2,2.1c10.4-10.2,24.6-16.5,40.4-16.5
	c15.7,0,30,6.3,40.4,16.5c4.2-1.4,8.6-2.1,13.2-2.1c22.7,0,41.2,17.7,42.6,40H1284.9z"/>
<path id="XMLID_10_" class="st1" d="M857.3,246.5c1.1-18,16-32.2,34.3-32.2c3.7,0,7.3,0.6,10.6,1.7c8.4-8.2,19.8-13.3,32.5-13.3
	c12.7,0,24.1,5.1,32.5,13.3c3.3-1.1,6.9-1.7,10.6-1.7c18.2,0,33.1,14.2,34.3,32.2H857.3z"/>
<path id="XMLID_9_" class="st1" d="M292.1,95.6c0.7-10.5,9.3-18.8,20-18.8c2.2,0,4.2,0.3,6.2,1c4.9-4.8,11.6-7.8,18.9-7.8
	c7.4,0,14.1,3,18.9,7.8c2-0.6,4-1,6.2-1c10.6,0,19.3,8.3,20,18.8H292.1z"/>
</svg>
