<?xml version="1.0" encoding="utf-8"?>
<!-- Generator: Adobe Illustrator 19.0.0, SVG Export Plug-In . SVG Version: 6.00 Build 0)  -->
<svg version="1.1" id="Layer_1" xmlns="http://www.w3.org/2000/svg" xmlns:xlink="http://www.w3.org/1999/xlink" x="0px" y="0px"
	 viewBox="0 0 527.3 470.6" style="enable-background:new 0 0 527.3 470.6;" xml:space="preserve">
<style type="text/css">
	.st0{fill:#DDDCD3;}
	.st1{fill-rule:evenodd;clip-rule:evenodd;fill:#333333;}
	.st2{fill:#333333;}
	.st3{fill-rule:evenodd;clip-rule:evenodd;fill:#63CBE5;}
	.st4{fill:#ED1C24;}
	.st5{fill:#FFFFFF;}
	.st6{fill-rule:evenodd;clip-rule:evenodd;fill:#B38E85;}
	.st7{fill-rule:evenodd;clip-rule:evenodd;fill:#FFFFFF;}
	.st8{fill-rule:evenodd;clip-rule:evenodd;fill:#39B54A;}
	.st9{fill-rule:evenodd;clip-rule:evenodd;fill:#231F20;fill-opacity:0.2;}
	.st10{fill:#B38E85;}
	.st11{fill:#FBB040;}
</style>
<g id="XMLID_1_">
	<rect id="XMLID_23_" x="18.4" y="207.7" class="st0" width="489.4" height="262.8"/>
	<rect id="XMLID_27_" x="229.1" y="133.8" class="st0" width="68" height="73.9"/>
	<g id="XMLID_28_">
		<polygon id="XMLID_26_" class="st1" points="266,63.8 207,139.8 325.1,139.8 		"/>
	</g>
	<g id="XMLID_32_">
		<rect id="XMLID_31_" x="254.1" y="0" class="st2" width="23.8" height="83.5"/>
	</g>
	<g id="XMLID_30_">
		<rect id="XMLID_29_" x="230.3" y="23.8" class="st2" width="71.5" height="23.8"/>
	</g>
	<rect id="XMLID_33_" x="357.9" y="294" class="st3" width="103.1" height="124.9"/>
	<polygon id="XMLID_59_" class="st4" points="527.3,258.5 0,258.5 20.6,179.7 506.8,179.7 	"/>
	<rect id="XMLID_60_" y="258.5" class="st5" width="527.3" height="10.9"/>
	<polygon id="XMLID_62_" class="st6" points="229.1,139.8 297,139.8 297,164.1 	"/>
	<polygon id="XMLID_63_" class="st6" points="18.4,269.5 507.7,269.5 507.7,284 	"/>
	<rect id="XMLID_34_" x="349.5" y="405.5" class="st7" width="120" height="24"/>
	<rect id="XMLID_37_" x="357.9" y="300" class="st7" width="12" height="120"/>
	<rect id="XMLID_38_" x="449.1" y="300" class="st7" width="12" height="120"/>
	<rect id="XMLID_35_" x="354.7" y="394.1" class="st8" width="110" height="11.3"/>
	<rect id="XMLID_36_" x="349.5" y="294" class="st7" width="120" height="12"/>
	<rect id="XMLID_39_" x="369.9" y="306" class="st9" width="79.1" height="9.8"/>
	<rect id="XMLID_45_" x="426.5" y="394.3" class="st9" width="38.2" height="11.2"/>
	<rect id="XMLID_41_" x="357.9" y="306" class="st9" width="12" height="7.2"/>
	<rect id="XMLID_42_" x="449.1" y="306" class="st9" width="12" height="7.2"/>
	<polygon id="XMLID_40_" class="st10" points="349.5,429.5 469.5,429.5 469.5,450.3 349.5,436.5 	"/>
	<g id="XMLID_46_">
		<rect id="XMLID_75_" x="72.4" y="294" class="st3" width="103.1" height="124.9"/>
		<rect id="XMLID_74_" x="64" y="405.5" class="st7" width="120" height="24"/>
		<rect id="XMLID_73_" x="72.4" y="300" class="st7" width="12" height="120"/>
		<rect id="XMLID_72_" x="163.6" y="300" class="st7" width="12" height="120"/>
		<rect id="XMLID_71_" x="69.2" y="394.1" class="st8" width="110" height="11.3"/>
		<rect id="XMLID_70_" x="64" y="294" class="st7" width="120" height="12"/>
		<rect id="XMLID_67_" x="84.4" y="306" class="st9" width="79.1" height="9.8"/>
		<rect id="XMLID_64_" x="141" y="394.3" class="st9" width="38.2" height="11.2"/>
		<rect id="XMLID_55_" x="72.4" y="306" class="st9" width="12" height="7.2"/>
		<rect id="XMLID_51_" x="163.6" y="306" class="st9" width="12" height="7.2"/>
		<polygon id="XMLID_48_" class="st10" points="64,429.5 184,429.5 184,450.3 64,436.5 		"/>
	</g>
	<g id="XMLID_77_">
		<path id="XMLID_78_" class="st10" d="M306.1,374.2c0-9.3-4.5-17.8-11.8-23.9c-7.3-6.1-17.3-10-28.3-10c-11,0-21,3.8-28.3,10
			c-7.3,6.1-11.8,14.6-11.8,23.9v96.4h80.2V374.2z"/>
	</g>
	<circle id="XMLID_24_" class="st11" cx="290.7" cy="418.9" r="6.3"/>
</g>
</svg>
