<?xml version="1.0" encoding="utf-8"?>
<!-- Generator: Adobe Illustrator 19.0.0, SVG Export Plug-In . SVG Version: 6.00 Build 0)  -->
<svg version="1.1" id="Layer_1" xmlns="http://www.w3.org/2000/svg" xmlns:xlink="http://www.w3.org/1999/xlink" x="0px" y="0px"
	 viewBox="0 0 264.1 383.5" style="enable-background:new 0 0 264.1 383.5;" xml:space="preserve">
<style type="text/css">
	.st0{fill:#8B5E3C;}
	.st1{fill:#A97C50;}
	.st2{fill:#414042;}
	.st3{fill:#FFFFFF;}
	.st4{fill:#009444;}
	.st5{fill:#603913;}
</style>
<g id="XMLID_4_">
	<g id="XMLID_3_">
		<rect x="29.9" y="302.5" class="st0" width="28.5" height="81"/>
	</g>
	<g id="XMLID_6_">
		<rect x="209.6" y="302.5" class="st0" width="28.5" height="81"/>
	</g>
</g>
<g id="XMLID_1_">
	<path id="XMLID_73_" class="st1" d="M241.9,316H22.3c-6.8,0-12.3-5.5-12.3-12.3V22.3C10,15.5,15.5,10,22.3,10h219.6
		c6.8,0,12.3,5.5,12.3,12.3v281.5C254.1,310.5,248.7,316,241.9,316z"/>
	<path id="XMLID_76_" class="st2" d="M241.9,326H22.3C10,326,0,316,0,303.7V22.3C0,10,10,0,22.3,0h219.6c12.3,0,22.3,10,22.3,22.3
		v281.5C264.1,316,254.2,326,241.9,326z M22.3,20C21,20,20,21,20,22.3v281.5c0,1.2,1,2.3,2.3,2.3h219.6c1.2,0,2.3-1,2.3-2.3V22.3
		c0-1.2-1-2.3-2.3-2.3H22.3z"/>
</g>
<g id="XMLID_19_">
	<g id="XMLID_18_">
		<g id="XMLID_7_">
			<g id="XMLID_244_">
				<g id="XMLID_245_">
					<path class="st3" d="M47.5,67.1L58,59c2.6-2.1,3.6-3.4,3.6-5.1c0-1.8-1.2-2.9-3.1-2.9s-3.4,1.1-5.6,3.6l-5.3-4.4
						c3-3.9,6-6,11.5-6c6.2,0,10.4,3.7,10.4,9v0.1c0,4.5-2.3,6.8-6.5,9.9l-4.8,3.4h11.6v6.4H47.5V67.1z"/>
				</g>
				<g id="XMLID_247_">
					<path class="st3" d="M71.4,65.2L71.4,65.2c0-3.5,1.8-5.6,4.8-6.8c-2.2-1.2-3.9-3.1-3.9-6.1v-0.1c0-4.5,4.3-7.8,10.6-7.8
						s10.6,3.3,10.6,7.8v0.1c0,3.1-1.7,4.9-3.9,6.1c2.9,1.3,4.8,3.2,4.8,6.7v0.1c0,5-4.8,8.3-11.6,8.3S71.4,70.1,71.4,65.2z
						 M87,64.4L87,64.4c0-1.9-1.7-3.1-4.1-3.1s-4.1,1.2-4.1,3.1v0.1c0,1.7,1.4,3.2,4.1,3.2S87,66.1,87,64.4z M86.4,53.1L86.4,53.1
						c0-1.6-1.3-3.1-3.5-3.1c-2.1,0-3.5,1.4-3.5,2.9v0.1c0,1.8,1.4,3.1,3.5,3.1S86.4,54.9,86.4,53.1z"/>
				</g>
				<g id="XMLID_251_">
					<path class="st3" d="M96.4,65.1h8v7.8h-8V65.1z"/>
				</g>
				<g id="XMLID_253_">
					<path class="st3" d="M106.1,65.2L106.1,65.2c0-3.5,1.8-5.6,4.8-6.8c-2.2-1.2-3.9-3.1-3.9-6.1v-0.1c0-4.5,4.3-7.8,10.6-7.8
						s10.6,3.3,10.6,7.8v0.1c0,3.1-1.7,4.9-3.9,6.1c2.9,1.3,4.8,3.2,4.8,6.7v0.1c0,5-4.8,8.3-11.6,8.3S106.1,70.1,106.1,65.2z
						 M121.8,64.4L121.8,64.4c0-1.9-1.7-3.1-4.1-3.1s-4.1,1.2-4.1,3.1v0.1c0,1.7,1.4,3.2,4.1,3.2S121.8,66.1,121.8,64.4z
						 M121.2,53.1L121.2,53.1c0-1.6-1.3-3.1-3.5-3.1s-3.5,1.4-3.5,2.9v0.1c0,1.8,1.4,3.1,3.5,3.1S121.2,54.9,121.2,53.1z"/>
				</g>
			</g>
			<g id="XMLID_225_">
				<g id="XMLID_226_">
					<path class="st3" d="M64,84.4L64,84.4c0-2,1.4-3.5,3.5-3.5c1.3,0,2,0.4,2.7,1.1l-0.8,0.9c-0.5-0.5-1.1-0.8-1.9-0.8
						c-1.3,0-2.2,1.1-2.2,2.4v0c0,1.3,0.9,2.4,2.2,2.4c0.8,0,1.4-0.3,2-0.9l0.8,0.8c-0.7,0.7-1.5,1.2-2.8,1.2
						C65.5,87.9,64,86.4,64,84.4z"/>
				</g>
				<g id="XMLID_228_">
					<path class="st3" d="M73.9,80.9H75l3,6.9h-1.3L76,86.1h-3.2l-0.7,1.6h-1.2L73.9,80.9z M75.6,85.1l-1.2-2.7l-1.2,2.7H75.6z"/>
				</g>
				<g id="XMLID_231_">
					<path class="st3" d="M79.9,82.1h-2.2V81h5.5v1.1h-2.2v5.7h-1.2V82.1z"/>
				</g>
				<g id="XMLID_233_">
					<path class="st3" d="M84.5,81h1.2v2.8H89V81h1.2v6.8H89v-2.9h-3.2v2.9h-1.2V81z"/>
				</g>
				<g id="XMLID_235_">
					<path class="st3" d="M91.6,84.4L91.6,84.4c0-1.9,1.5-3.5,3.6-3.5s3.5,1.6,3.5,3.5v0c0,1.9-1.5,3.5-3.6,3.5S91.6,86.3,91.6,84.4
						z M97.5,84.4L97.5,84.4c0-1.3-1-2.4-2.3-2.4s-2.3,1.1-2.3,2.4v0c0,1.3,1,2.4,2.3,2.4S97.5,85.7,97.5,84.4z"/>
				</g>
				<g id="XMLID_238_">
					<path class="st3" d="M100.2,81h1.2v5.7h3.6v1.1h-4.8V81z"/>
				</g>
				<g id="XMLID_240_">
					<path class="st3" d="M106.3,81h1.2v6.8h-1.2V81z"/>
				</g>
				<g id="XMLID_242_">
					<path class="st3" d="M109,84.4L109,84.4c0-2,1.4-3.5,3.5-3.5c1.3,0,2,0.4,2.7,1.1l-0.8,0.9c-0.5-0.5-1.1-0.8-1.9-0.8
						c-1.3,0-2.2,1.1-2.2,2.4v0c0,1.3,0.9,2.4,2.2,2.4c0.8,0,1.4-0.3,2-0.9l0.8,0.8c-0.7,0.7-1.5,1.2-2.8,1.2
						C110.5,87.9,109,86.4,109,84.4z"/>
				</g>
			</g>
		</g>
		<g id="XMLID_9_">
			<g id="XMLID_216_">
				<g id="XMLID_217_">
					<path class="st3" d="M161.4,70.3c-2.1-2.1-3.5-5.3-3.5-10.5v-0.1c0-8.8,4.3-15.5,13.1-15.5c3.9,0,6.7,1.1,9.4,3.1l-3.7,5.5
						c-1.7-1.3-3.3-2.1-5.6-2.1c-3.3,0-4.9,2.5-5.3,6c1.5-1.1,3.3-2.2,6.1-2.2c4.9,0,9.3,3.1,9.3,8.8v0.1c0,6.3-5,10.1-11.2,10.1
						C166,73.5,163.4,72.3,161.4,70.3z M173.6,63.8L173.6,63.8c0-2.1-1.5-3.7-4-3.7c-2.5,0-3.9,1.6-3.9,3.6v0.1c0,2.1,1.5,3.7,4,3.7
						C172.1,67.4,173.6,65.9,173.6,63.8z"/>
				</g>
				<g id="XMLID_220_">
					<path class="st3" d="M183.6,65.1h8v7.8h-8V65.1z"/>
				</g>
				<g id="XMLID_222_">
					<path class="st3" d="M197.4,70.3c-2.1-2.1-3.5-5.3-3.5-10.5v-0.1c0-8.8,4.3-15.5,13.1-15.5c3.9,0,6.7,1.1,9.4,3.1l-3.7,5.5
						c-1.7-1.3-3.3-2.1-5.6-2.1c-3.3,0-4.9,2.5-5.3,6c1.5-1.1,3.3-2.2,6.1-2.2c4.9,0,9.3,3.1,9.3,8.8v0.1c0,6.3-5,10.1-11.2,10.1
						C202.1,73.5,199.5,72.3,197.4,70.3z M209.6,63.8L209.6,63.8c0-2.1-1.5-3.7-4-3.7c-2.5,0-3.9,1.6-3.9,3.6v0.1
						c0,2.1,1.5,3.7,4,3.7C208.2,67.4,209.6,65.9,209.6,63.8z"/>
				</g>
			</g>
			<g id="XMLID_202_">
				<g id="XMLID_203_">
					<path class="st3" d="M167.2,84.9V81h1.2v3.9c0,1.3,0.7,1.9,1.7,1.9c1.1,0,1.7-0.6,1.7-1.9V81h1.2v3.9c0,2-1.1,3.1-2.9,3.1
						C168.3,87.9,167.2,86.9,167.2,84.9z"/>
				</g>
				<g id="XMLID_205_">
					<path class="st3" d="M174.6,81h1.1l3.6,4.7V81h1.2v6.8h-1l-3.8-4.8v4.8h-1.2V81z"/>
				</g>
				<g id="XMLID_207_">
					<path class="st3" d="M182.4,81h1.2v6.8h-1.2V81z"/>
				</g>
				<g id="XMLID_209_">
					<path class="st3" d="M187.1,82.1h-2.2V81h5.5v1.1h-2.2v5.7h-1.2V82.1z"/>
				</g>
				<g id="XMLID_211_">
					<path class="st3" d="M191.7,81h5V82h-3.8v1.8h3.4v1.1h-3.4v1.8h3.9v1.1h-5.1V81z"/>
				</g>
				<g id="XMLID_213_">
					<path class="st3" d="M198.2,81h2.5c2.1,0,3.6,1.5,3.6,3.4v0c0,1.9-1.5,3.4-3.6,3.4h-2.5V81z M200.7,86.7c1.4,0,2.4-1,2.4-2.3v0
						c0-1.3-0.9-2.3-2.4-2.3h-1.3v4.6H200.7z"/>
				</g>
			</g>
		</g>
	</g>
	<g id="XMLID_17_">
		<g id="XMLID_10_">
			<g id="XMLID_199_">
				<g id="XMLID_200_">
					<path class="st3" d="M69.5,140.4l4.9-4.9c2,2.1,4.1,3.2,6.7,3.2c2.2,0,3.6-1.1,3.6-2.9v-0.1c0-1.8-1.6-2.9-4.6-2.9h-3.3
						l-1.1-4.1l6.5-5.8H71.4v-6.3h20.4v5.6L85,128c4,0.9,7.3,3.1,7.3,7.9v0.1c0,5.7-4.6,9.4-10.9,9.4
						C76,145.4,72.2,143.4,69.5,140.4z"/>
				</g>
			</g>
			<g id="XMLID_180_">
				<g id="XMLID_181_">
					<path class="st3" d="M58.3,152.8h1.1l3,6.9h-1.3l-0.7-1.6h-3.2l-0.7,1.6h-1.2L58.3,152.8z M60,156.9l-1.2-2.7l-1.2,2.7H60z"/>
				</g>
				<g id="XMLID_184_">
					<path class="st3" d="M63.6,152.8h1.1l3.6,4.7v-4.7h1.2v6.8h-1l-3.8-4.8v4.8h-1.2V152.8z"/>
				</g>
				<g id="XMLID_186_">
					<path class="st3" d="M71,156.3L71,156.3c0-1.9,1.5-3.5,3.5-3.5c1.2,0,1.9,0.3,2.6,0.9l-0.8,0.9c-0.5-0.4-1-0.7-1.9-0.7
						c-1.3,0-2.2,1.1-2.2,2.4v0c0,1.4,0.9,2.4,2.3,2.4c0.6,0,1.2-0.2,1.6-0.5v-1.3h-1.7v-1h2.9v2.9c-0.7,0.6-1.6,1.1-2.8,1.1
						C72.4,159.7,71,158.2,71,156.3z"/>
				</g>
				<g id="XMLID_188_">
					<path class="st3" d="M78.9,152.8h1.2v5.7h3.6v1.1h-4.8V152.8z"/>
				</g>
				<g id="XMLID_190_">
					<path class="st3" d="M85,152.8h1.2v6.8H85V152.8z"/>
				</g>
				<g id="XMLID_192_">
					<path class="st3" d="M87.7,156.3L87.7,156.3c0-2,1.4-3.5,3.5-3.5c1.3,0,2,0.4,2.7,1.1l-0.8,0.9c-0.5-0.5-1.1-0.8-1.9-0.8
						c-1.3,0-2.2,1.1-2.2,2.4v0c0,1.3,0.9,2.4,2.2,2.4c0.8,0,1.4-0.3,2-0.9l0.8,0.8c-0.7,0.7-1.5,1.2-2.8,1.2
						C89.2,159.7,87.7,158.2,87.7,156.3z"/>
				</g>
				<g id="XMLID_194_">
					<path class="st3" d="M97.6,152.8h1.1l3,6.9h-1.3l-0.7-1.6h-3.2l-0.7,1.6h-1.2L97.6,152.8z M99.3,156.9l-1.2-2.7l-1.2,2.7H99.3z
						"/>
				</g>
				<g id="XMLID_197_">
					<path class="st3" d="M102.8,152.8h1.1l3.6,4.7v-4.7h1.2v6.8h-1l-3.8-4.8v4.8h-1.2V152.8z"/>
				</g>
			</g>
		</g>
		<g id="XMLID_11_">
			<g id="XMLID_173_">
				<g id="XMLID_174_">
					<path class="st3" d="M151.5,138.9l10.5-8c2.6-2.1,3.6-3.4,3.6-5.1c0-1.8-1.2-2.9-3.1-2.9c-1.9,0-3.4,1.1-5.6,3.6l-5.3-4.4
						c3-3.9,6-6,11.5-6c6.2,0,10.4,3.7,10.4,9v0.1c0,4.5-2.3,6.8-6.5,9.9l-4.8,3.4h11.6v6.4h-22.3V138.9z"/>
				</g>
				<g id="XMLID_176_">
					<path class="st3" d="M176.1,136.9h8v7.8h-8V136.9z"/>
				</g>
				<g id="XMLID_178_">
					<path class="st3" d="M185.5,140.9l4.5-5.2c2.3,1.9,4.5,3.1,6.8,3.1c2.6,0,4.1-1.3,4.1-3.3v-0.1c0-2-1.7-3.3-4.1-3.3
						c-1.7,0-3.2,0.6-4.5,1.4l-4.6-2.6l0.8-14.3h18.8v6.4h-12.7l-0.2,4.3c1.3-0.6,2.6-1,4.5-1c5.1,0,9.7,2.8,9.7,8.9v0.1
						c0,6.3-4.8,10-11.6,10C191.9,145.4,188.4,143.6,185.5,140.9z"/>
				</g>
			</g>
			<g id="XMLID_154_">
				<g id="XMLID_155_">
					<path class="st3" d="M160,152.8h3.1c0.8,0,1.4,0.2,1.8,0.6c0.3,0.3,0.5,0.7,0.5,1.1v0c0,0.8-0.5,1.3-1,1.5
						c0.8,0.3,1.4,0.7,1.4,1.7v0c0,1.2-1,1.9-2.5,1.9H160V152.8z M162.8,155.7c0.8,0,1.3-0.3,1.3-0.9v0c0-0.5-0.4-0.9-1.2-0.9h-1.7
						v1.8H162.8z M163.2,158.6c0.8,0,1.3-0.3,1.3-0.9v0c0-0.6-0.5-0.9-1.4-0.9h-1.9v1.9H163.2z"/>
				</g>
				<g id="XMLID_159_">
					<path class="st3" d="M169.4,152.8h1.1l3,6.9h-1.3l-0.7-1.6h-3.2l-0.7,1.6h-1.2L169.4,152.8z M171.2,156.9l-1.2-2.7l-1.2,2.7
						H171.2z"/>
				</g>
				<g id="XMLID_162_">
					<path class="st3" d="M174.7,152.8h2.7c1.6,0,2.6,0.9,2.6,2.3v0c0,1.5-1.2,2.3-2.7,2.3h-1.4v2.2h-1.2V152.8z M177.3,156.4
						c0.9,0,1.5-0.5,1.5-1.2v0c0-0.8-0.6-1.2-1.5-1.2h-1.4v2.4H177.3z"/>
				</g>
				<g id="XMLID_165_">
					<path class="st3" d="M182.9,153.9h-2.2v-1.1h5.5v1.1h-2.2v5.7h-1.2V153.9z"/>
				</g>
				<g id="XMLID_167_">
					<path class="st3" d="M187.6,152.8h1.2v6.8h-1.2V152.8z"/>
				</g>
				<g id="XMLID_169_">
					<path class="st3" d="M190.1,158.6l0.7-0.9c0.7,0.6,1.3,0.9,2.1,0.9c0.7,0,1.2-0.3,1.2-0.9v0c0-0.5-0.3-0.7-1.5-1
						c-1.4-0.4-2.3-0.8-2.3-2v0c0-1.2,1-2,2.3-2c1,0,1.8,0.3,2.5,0.9l-0.6,0.9c-0.6-0.5-1.2-0.7-1.8-0.7c-0.7,0-1.1,0.4-1.1,0.8v0
						c0,0.5,0.3,0.8,1.6,1.1c1.4,0.4,2.2,0.9,2.2,2v0c0,1.3-1,2-2.4,2C191.9,159.7,190.9,159.4,190.1,158.6z"/>
				</g>
				<g id="XMLID_171_">
					<path class="st3" d="M198.3,153.9h-2.2v-1.1h5.5v1.1h-2.2v5.7h-1.2V153.9z"/>
				</g>
			</g>
		</g>
	</g>
	<g id="XMLID_15_">
		<g id="XMLID_12_">
			<g id="XMLID_146_">
				<g id="XMLID_147_">
					<path class="st3" d="M67.3,245l-4.7,1.1l-1.5-6l8.2-2.3H75V266h-7.7V245z"/>
				</g>
				<g id="XMLID_149_">
					<path class="st3" d="M78.4,258.2h8v7.8h-8V258.2z"/>
				</g>
				<g id="XMLID_151_">
					<path class="st3" d="M89.2,263.3l3.7-5.4c1.9,1.5,3.8,2.3,6,2.3c3.2,0,4.9-2.3,5.3-5.9c-1.4,1.4-3.5,2.3-6,2.3
						c-5.5,0-9.5-3.4-9.5-8.9v-0.1c0-6.2,4.8-10.3,11.2-10.3c4.1,0,6.5,1.2,8.7,3.3c2.1,2,3.4,5.2,3.4,10.4v0.1
						c0,9.2-4.6,15.5-13,15.5C94.9,266.6,91.8,265.3,89.2,263.3z M104.4,247.3L104.4,247.3c0-2.3-1.6-3.9-4-3.9
						c-2.5,0-3.9,1.6-3.9,3.8v0.1c0,2.1,1.6,3.7,4,3.7C102.9,250.9,104.4,249.3,104.4,247.3z"/>
				</g>
			</g>
			<g id="XMLID_120_">
				<g id="XMLID_121_">
					<path class="st3" d="M50.9,274.1h2.7c1.6,0,2.6,0.9,2.6,2.3v0c0,1.5-1.2,2.3-2.7,2.3h-1.4v2.2h-1.2V274.1z M53.5,277.6
						c0.9,0,1.5-0.5,1.5-1.2v0c0-0.8-0.6-1.2-1.5-1.2h-1.4v2.4H53.5z"/>
				</g>
				<g id="XMLID_124_">
					<path class="st3" d="M57.4,274.1h5v1.1h-3.8v1.8H62v1.1h-3.4v1.8h3.9v1.1h-5.1V274.1z"/>
				</g>
				<g id="XMLID_126_">
					<path class="st3" d="M63.9,274.1H65l3.6,4.7v-4.7h1.2v6.8h-1l-3.8-4.8v4.8h-1.2V274.1z"/>
				</g>
				<g id="XMLID_128_">
					<path class="st3" d="M73.2,275.2h-2.2v-1.1h5.5v1.1h-2.2v5.7h-1.2V275.2z"/>
				</g>
				<g id="XMLID_130_">
					<path class="st3" d="M77.8,274.1h5v1.1H79v1.8h3.4v1.1H79v1.8h3.9v1.1h-5.1V274.1z"/>
				</g>
				<g id="XMLID_132_">
					<path class="st3" d="M84.1,277.5L84.1,277.5c0-2,1.4-3.5,3.5-3.5c1.3,0,2,0.4,2.7,1.1l-0.8,0.9c-0.5-0.5-1.1-0.8-1.9-0.8
						c-1.3,0-2.2,1.1-2.2,2.4v0c0,1.3,0.9,2.4,2.2,2.4c0.8,0,1.4-0.3,2-0.9l0.8,0.8c-0.7,0.7-1.5,1.2-2.8,1.2
						C85.5,281,84.1,279.5,84.1,277.5z"/>
				</g>
				<g id="XMLID_134_">
					<path class="st3" d="M91,277.5L91,277.5c0-1.9,1.5-3.5,3.6-3.5s3.5,1.6,3.5,3.5v0c0,1.9-1.5,3.5-3.6,3.5S91,279.4,91,277.5z
						 M96.9,277.5L96.9,277.5c0-1.3-1-2.4-2.3-2.4s-2.3,1.1-2.3,2.4v0c0,1.3,1,2.4,2.3,2.4S96.9,278.8,96.9,277.5z"/>
				</g>
				<g id="XMLID_137_">
					<path class="st3" d="M99.1,279.9l0.7-0.9c0.7,0.6,1.3,0.9,2.1,0.9c0.7,0,1.2-0.3,1.2-0.9v0c0-0.5-0.3-0.7-1.5-1
						c-1.4-0.3-2.3-0.8-2.3-2v0c0-1.2,1-2,2.3-2c1,0,1.8,0.3,2.5,0.9l-0.6,0.9c-0.6-0.5-1.2-0.7-1.8-0.7c-0.7,0-1.1,0.4-1.1,0.8v0
						c0,0.5,0.3,0.8,1.6,1.1c1.4,0.4,2.2,0.9,2.2,2v0c0,1.3-1,2-2.4,2C100.9,281,99.9,280.6,99.1,279.9z"/>
				</g>
				<g id="XMLID_139_">
					<path class="st3" d="M107.3,275.2h-2.2v-1.1h5.5v1.1h-2.2v5.7h-1.2V275.2z"/>
				</g>
				<g id="XMLID_141_">
					<path class="st3" d="M113.4,274h1.1l3,6.9h-1.3l-0.7-1.6h-3.2l-0.7,1.6h-1.2L113.4,274z M115.2,278.2l-1.2-2.7l-1.2,2.7H115.2z
						"/>
				</g>
				<g id="XMLID_144_">
					<path class="st3" d="M118.7,274.1h1.2v5.7h3.6v1.1h-4.8V274.1z"/>
				</g>
			</g>
		</g>
		<g id="XMLID_13_">
			<g id="XMLID_114_">
				<g id="XMLID_115_">
					<path class="st3" d="M168.1,258.2h8v7.8h-8V258.2z"/>
				</g>
				<g id="XMLID_117_">
					<path class="st3" d="M178.9,263.3l3.7-5.4c1.9,1.5,3.8,2.3,6,2.3c3.2,0,4.9-2.3,5.3-5.9c-1.4,1.4-3.5,2.3-6,2.3
						c-5.5,0-9.5-3.4-9.5-8.9v-0.1c0-6.2,4.8-10.3,11.2-10.3c4.1,0,6.5,1.2,8.7,3.3c2.1,2,3.4,5.2,3.4,10.4v0.1
						c0,9.2-4.6,15.5-13,15.5C184.5,266.6,181.5,265.3,178.9,263.3z M194,247.3L194,247.3c0-2.3-1.6-3.9-4-3.9
						c-2.5,0-3.9,1.6-3.9,3.8v0.1c0,2.1,1.6,3.7,4,3.7C192.5,250.9,194,249.3,194,247.3z"/>
				</g>
			</g>
			<g id="XMLID_95_">
				<g id="XMLID_96_">
					<path class="st3" d="M159.3,274.1h1.2v5.7h3.6v1.1h-4.8V274.1z"/>
				</g>
				<g id="XMLID_98_">
					<path class="st3" d="M165,278v-3.9h1.2v3.9c0,1.3,0.7,1.9,1.7,1.9c1.1,0,1.7-0.6,1.7-1.9v-3.9h1.2v3.9c0,2-1.1,3.1-2.9,3.1
						C166.1,281,165,280,165,278z"/>
				</g>
				<g id="XMLID_100_">
					<path class="st3" d="M174.1,275.2H172v-1.1h5.5v1.1h-2.2v5.7h-1.2V275.2z"/>
				</g>
				<g id="XMLID_102_">
					<path class="st3" d="M178.7,274.1h1.2v2.8h3.2v-2.8h1.2v6.8h-1.2V278h-3.2v2.9h-1.2V274.1z"/>
				</g>
				<g id="XMLID_104_">
					<path class="st3" d="M186.1,274.1h5v1.1h-3.8v1.8h3.4v1.1h-3.4v1.8h3.9v1.1h-5.1V274.1z"/>
				</g>
				<g id="XMLID_106_">
					<path class="st3" d="M192.6,274.1h3c0.9,0,1.5,0.3,2,0.7c0.4,0.4,0.6,0.9,0.6,1.5v0c0,1.1-0.7,1.8-1.6,2.1l1.8,2.6H197
						l-1.7-2.4h-1.5v2.4h-1.2V274.1z M195.6,277.4c0.9,0,1.4-0.4,1.4-1.1v0c0-0.7-0.5-1.1-1.4-1.1h-1.7v2.3H195.6z"/>
				</g>
				<g id="XMLID_109_">
					<path class="st3" d="M202.1,274h1.1l3,6.9h-1.3l-0.7-1.6H201l-0.7,1.6h-1.2L202.1,274z M203.8,278.2l-1.2-2.7l-1.2,2.7H203.8z"
						/>
				</g>
				<g id="XMLID_112_">
					<path class="st3" d="M207.3,274.1h1.1l3.6,4.7v-4.7h1.2v6.8h-1l-3.8-4.8v4.8h-1.2V274.1z"/>
				</g>
			</g>
		</g>
	</g>
	<g id="XMLID_16_">
		<g id="XMLID_14_">
			<g id="XMLID_88_">
				<g id="XMLID_89_">
					<path class="st3" d="M69.4,197.5h8v7.8h-8V197.5z"/>
				</g>
				<g id="XMLID_91_">
					<path class="st3" d="M79.2,197.6L79.2,197.6c0-3.5,1.8-5.6,4.8-6.8c-2.2-1.2-3.9-3.1-3.9-6.1v-0.1c0-4.5,4.3-7.8,10.6-7.8
						s10.6,3.3,10.6,7.8v0.1c0,3.1-1.7,4.9-3.9,6.1c2.9,1.3,4.8,3.2,4.8,6.7v0.1c0,5-4.8,8.3-11.6,8.3S79.2,202.5,79.2,197.6z
						 M94.9,196.8L94.9,196.8c0-1.9-1.7-3.1-4.1-3.1s-4.1,1.2-4.1,3.1v0.1c0,1.7,1.4,3.2,4.1,3.2S94.9,198.5,94.9,196.8z
						 M94.3,185.6L94.3,185.6c0-1.6-1.3-3.1-3.5-3.1c-2.1,0-3.5,1.4-3.5,2.9v0.1c0,1.8,1.4,3.1,3.5,3.1S94.3,187.3,94.3,185.6z"/>
				</g>
			</g>
			<g id="XMLID_45_">
				<g id="XMLID_47_">
					<path class="st3" d="M52.3,213.4H55c1.6,0,2.6,0.9,2.6,2.3v0c0,1.5-1.2,2.3-2.7,2.3h-1.4v2.2h-1.2V213.4z M54.9,216.9
						c0.9,0,1.5-0.5,1.5-1.2v0c0-0.8-0.6-1.2-1.5-1.2h-1.4v2.4H54.9z"/>
				</g>
				<g id="XMLID_51_">
					<path class="st3" d="M58.8,213.4h3c0.9,0,1.5,0.3,2,0.7c0.4,0.4,0.6,0.9,0.6,1.5v0c0,1.1-0.7,1.8-1.6,2.1l1.8,2.6h-1.4
						l-1.7-2.4H60v2.4h-1.2V213.4z M61.7,216.8c0.9,0,1.4-0.4,1.4-1.1v0c0-0.7-0.5-1.1-1.4-1.1H60v2.3H61.7z"/>
				</g>
				<g id="XMLID_56_">
					<path class="st3" d="M65.8,213.4h5v1.1H67v1.8h3.4v1.1H67v1.8h3.9v1.1h-5.1V213.4z"/>
				</g>
				<g id="XMLID_59_">
					<path class="st3" d="M71.9,219.2l0.7-0.9c0.7,0.6,1.3,0.9,2.1,0.9c0.7,0,1.2-0.3,1.2-0.9v0c0-0.5-0.3-0.7-1.5-1
						c-1.4-0.4-2.3-0.8-2.3-2v0c0-1.2,1-2,2.3-2c1,0,1.8,0.3,2.5,0.9l-0.6,0.9c-0.6-0.5-1.2-0.7-1.8-0.7c-0.7,0-1.1,0.4-1.1,0.8v0
						c0,0.5,0.3,0.8,1.6,1.1c1.4,0.4,2.2,0.9,2.2,2v0c0,1.3-1,2-2.4,2C73.7,220.3,72.7,219.9,71.9,219.2z"/>
				</g>
				<g id="XMLID_62_">
					<path class="st3" d="M78.6,213.4h3.1c0.8,0,1.4,0.2,1.8,0.6c0.3,0.3,0.5,0.7,0.5,1.1v0c0,0.8-0.5,1.3-1,1.5
						c0.8,0.3,1.4,0.7,1.4,1.7v0c0,1.2-1,1.9-2.5,1.9h-3.1V213.4z M81.4,216.3c0.8,0,1.3-0.3,1.3-0.9v0c0-0.5-0.4-0.9-1.2-0.9h-1.7
						v1.8H81.4z M81.7,219.1c0.8,0,1.3-0.3,1.3-0.9v0c0-0.6-0.5-0.9-1.4-0.9h-1.9v1.9H81.7z"/>
				</g>
				<g id="XMLID_68_">
					<path class="st3" d="M87.3,217.5l-2.7-4.1H86l1.9,3l1.9-3h1.4l-2.7,4.1v2.7h-1.2V217.5z"/>
				</g>
				<g id="XMLID_71_">
					<path class="st3" d="M93.9,214.5h-2.2v-1.1h5.5v1.1h-2.2v5.7h-1.2V214.5z"/>
				</g>
				<g id="XMLID_74_">
					<path class="st3" d="M98.5,213.4h5v1.1h-3.8v1.8h3.4v1.1h-3.4v1.8h3.9v1.1h-5.1V213.4z"/>
				</g>
				<g id="XMLID_77_">
					<path class="st3" d="M105,213.4h3c0.9,0,1.5,0.3,2,0.7c0.4,0.4,0.6,0.9,0.6,1.5v0c0,1.1-0.7,1.8-1.6,2.1l1.8,2.6h-1.4l-1.7-2.4
						h-1.5v2.4H105V213.4z M108,216.8c0.9,0,1.4-0.4,1.4-1.1v0c0-0.7-0.5-1.1-1.4-1.1h-1.7v2.3H108z"/>
				</g>
				<g id="XMLID_81_">
					<path class="st3" d="M112.1,213.4h1.2v6.8h-1.2V213.4z"/>
				</g>
				<g id="XMLID_83_">
					<path class="st3" d="M117.6,213.3h1.1l3,6.9h-1.3l-0.7-1.6h-3.2l-0.7,1.6h-1.2L117.6,213.3z M119.3,217.5l-1.2-2.7l-1.2,2.7
						H119.3z"/>
				</g>
				<g id="XMLID_86_">
					<path class="st3" d="M122.8,213.4h1.1l3.6,4.7v-4.7h1.2v6.8h-1l-3.8-4.8v4.8h-1.2V213.4z"/>
				</g>
			</g>
		</g>
		<g id="XMLID_37_">
			<g id="XMLID_38_">
				<g id="XMLID_39_">
					<path class="st3" d="M164.3,199.5l10.5-8c2.6-2.1,3.6-3.4,3.6-5.1c0-1.8-1.2-2.9-3.1-2.9c-1.9,0-3.4,1.1-5.6,3.6l-5.3-4.4
						c3-3.9,6-6,11.5-6c6.2,0,10.4,3.7,10.4,9v0.1c0,4.5-2.3,6.8-6.5,9.9L175,199h11.6v6.4h-22.3V199.5z"/>
				</g>
				<g id="XMLID_42_">
					<path class="st3" d="M189.2,202.6l3.7-5.4c1.9,1.5,3.8,2.3,6,2.3c3.2,0,4.9-2.3,5.3-5.9c-1.4,1.4-3.5,2.3-6,2.3
						c-5.5,0-9.5-3.4-9.5-8.9v-0.1c0-6.2,4.8-10.3,11.2-10.3c4.1,0,6.5,1.2,8.7,3.3c2.1,2,3.4,5.2,3.4,10.4v0.1
						c0,9.2-4.6,15.5-13,15.5C194.8,205.9,191.8,204.6,189.2,202.6z M204.3,186.6L204.3,186.6c0-2.3-1.6-3.9-4-3.9
						c-2.5,0-3.9,1.6-3.9,3.8v0.1c0,2.1,1.6,3.7,4,3.7C202.8,190.3,204.3,188.7,204.3,186.6z"/>
				</g>
			</g>
			<g id="XMLID_21_">
				<g id="XMLID_25_">
					<path class="st3" d="M171.5,216.8L171.5,216.8c0-1.9,1.5-3.5,3.6-3.5s3.5,1.6,3.5,3.5v0c0,1.9-1.5,3.5-3.6,3.5
						S171.5,218.7,171.5,216.8z M177.4,216.8L177.4,216.8c0-1.3-1-2.4-2.3-2.4c-1.4,0-2.3,1.1-2.3,2.4v0c0,1.3,1,2.4,2.3,2.4
						C176.4,219.2,177.4,218.1,177.4,216.8z"/>
				</g>
				<g id="XMLID_28_">
					<path class="st3" d="M181.4,214.5h-2.2v-1.1h5.5v1.1h-2.2v5.7h-1.2V214.5z"/>
				</g>
				<g id="XMLID_30_">
					<path class="st3" d="M186,213.4h1.2v2.8h3.2v-2.8h1.2v6.8h-1.2v-2.9h-3.2v2.9H186V213.4z"/>
				</g>
				<g id="XMLID_32_">
					<path class="st3" d="M193.4,213.4h5v1.1h-3.8v1.8h3.4v1.1h-3.4v1.8h3.9v1.1h-5.1V213.4z"/>
				</g>
				<g id="XMLID_34_">
					<path class="st3" d="M199.9,213.4h3c0.9,0,1.5,0.3,2,0.7c0.4,0.4,0.6,0.9,0.6,1.5v0c0,1.1-0.7,1.8-1.6,2.1l1.8,2.6h-1.4
						l-1.7-2.4h-1.5v2.4h-1.2V213.4z M202.8,216.8c0.9,0,1.4-0.4,1.4-1.1v0c0-0.7-0.5-1.1-1.4-1.1h-1.7v2.3H202.8z"/>
				</g>
			</g>
		</g>
	</g>
</g>
<g id="XMLID_20_">
	<rect x="23.1" y="364.6" class="st4" width="41.3" height="18.9"/>
</g>
<g id="XMLID_22_">
	<rect x="203.2" y="364.6" class="st4" width="41.3" height="18.9"/>
</g>
<g id="XMLID_23_">
	<polygon class="st5" points="29.9,326.1 58.4,326.1 58.4,346.7 	"/>
</g>
<g id="XMLID_24_">
	<polygon class="st5" points="209.6,326 238.1,326 238.1,346.7 	"/>
</g>
</svg>
