<?xml version="1.0" encoding="utf-8"?>
<!-- Generator: Adobe Illustrator 19.0.0, SVG Export Plug-In . SVG Version: 6.00 Build 0)  -->
<svg version="1.1" id="Layer_1" xmlns="http://www.w3.org/2000/svg" xmlns:xlink="http://www.w3.org/1999/xlink" x="0px" y="0px"
	 viewBox="0 0 1914.8 758.4" style="enable-background:new 0 0 1914.8 758.4;" xml:space="preserve">
<style type="text/css">
	.st0{opacity:0.34;fill:#56C4CD;}
	.st1{opacity:0.34;fill:#D3137E;}
</style>
<path id="XMLID_17_" class="st0" d="M1738.3,355c-1.4-22.3-19.9-40-42.6-40c-4.6,0-9.1,0.7-13.2,2.1c-10.4-10.2-24.6-16.5-40.4-16.5
	c-15.7,0-30,6.3-40.4,16.5c-4.2-1.4-8.6-2.1-13.2-2.1c-22.7,0-41.2,17.7-42.6,40H1738.3z"/>
<path class="st0" d="M273.3,133.6c-1.4-22.3-19.9-40-42.6-40c-4.6,0-9.1,0.7-13.2,2.1c-10.4-10.2-24.6-16.5-40.4-16.5
	c-15.7,0-30,6.3-40.4,16.5c-4.2-1.4-8.6-2.1-13.2-2.1c-22.7,0-41.2,17.7-42.6,40H273.3z"/>
<path id="XMLID_16_" class="st1" d="M948.5,263.8c-1.4-22.3-19.9-40-42.6-40c-4.6,0-9.1,0.7-13.2,2.1
	c-10.4-10.2-24.6-16.5-40.4-16.5c-15.7,0-30,6.3-40.4,16.5c-4.2-1.4-8.6-2.1-13.2-2.1c-22.7,0-41.2,17.7-42.6,40H948.5z"/>
<path class="st1" d="M1545.9,122c-1.4-22.3-19.9-40-42.6-40c-4.6,0-9.1,0.7-13.2,2.1c-10.4-10.2-24.6-16.5-40.4-16.5
	c-15.7,0-30,6.3-40.4,16.5c-4.2-1.4-8.6-2.1-13.2-2.1c-22.7,0-41.2,17.7-42.6,40H1545.9z"/>
<path id="XMLID_15_" class="st1" d="M731.1,454.2c-1.4-22.3-19.9-40-42.6-40c-4.6,0-9.1,0.7-13.2,2.1
	c-10.4-10.2-24.6-16.5-40.4-16.5c-15.7,0-30,6.3-40.4,16.5c-4.2-1.4-8.6-2.1-13.2-2.1c-22.7,0-41.2,17.7-42.6,40H731.1z"/>
</svg>
