<?xml version="1.0" encoding="utf-8"?>
<!-- Generator: Adobe Illustrator 19.0.0, SVG Export Plug-In . SVG Version: 6.00 Build 0)  -->
<svg version="1.1" id="Layer_1" xmlns="http://www.w3.org/2000/svg" xmlns:xlink="http://www.w3.org/1999/xlink" x="0px" y="0px"
	 viewBox="0 0 176.1 161" style="enable-background:new 0 0 176.1 161;" xml:space="preserve">
<style type="text/css">
	.st0{fill:#333333;}
	.st1{fill-rule:evenodd;clip-rule:evenodd;fill:#949494;}
	.st2{fill-rule:evenodd;clip-rule:evenodd;fill:#63CBE5;}
	.st3{fill-rule:evenodd;clip-rule:evenodd;fill:#EBE5DF;}
	.st4{opacity:0.3;fill:#231F20;}
</style>
<g id="XMLID_29_">
	<g id="XMLID_107_">
		<path id="XMLID_108_" class="st0" d="M11.2,33.6h153.7h3.7v3.7v119.9v3.7h-3.7H11.2H7.4v-3.7V37.3v-3.7H11.2L11.2,33.6z
			 M161.1,41.1H14.9v112.4h146.2V41.1z"/>
	</g>
	<g id="XMLID_105_">
		<rect id="XMLID_106_" y="153.5" class="st0" width="176.1" height="7.5"/>
	</g>
	<g id="XMLID_111_">
		<rect id="XMLID_112_" y="33.7" class="st0" width="176.1" height="7.5"/>
	</g>
	<g id="XMLID_101_">
		<path id="XMLID_102_" class="st0" d="M29.9,18.6h116.2h3.7v3.7v15v3.7h-3.7H29.9h-3.7v-3.7v-15v-3.7H29.9L29.9,18.6z M142.4,26.1
			H33.7v7.5h108.8V26.1z"/>
	</g>
	<g id="XMLID_99_">
		<polygon id="XMLID_100_" class="st0" points="44.9,20.8 44.9,14.6 44.9,11.8 47.6,11 84,0 86,0 128.4,10.9 131.2,11.7 131.2,14.6 
			131.2,22 123.7,22 123.7,17.4 85.2,7.5 52.4,17.3 52.4,20.8 		"/>
	</g>
	<g id="XMLID_95_">
		<path id="XMLID_96_" class="st0" d="M26.3,48.6h15H45v3.7v26.2v3.7h-3.7h-15h-3.7v-3.7V52.3v-3.7H26.3L26.3,48.6z M37.5,56.1H30
			v18.7h7.5V56.1z"/>
	</g>
	<g id="XMLID_91_">
		<path id="XMLID_92_" class="st0" d="M26.3,90.7h15H45v3.7v26.2v3.7h-3.7h-15h-3.7v-3.7V94.5v-3.7H26.3L26.3,90.7z M37.5,98.2H30
			v18.7h7.5V98.2z"/>
	</g>
	<g id="XMLID_87_">
		<path id="XMLID_88_" class="st0" d="M134.9,48.6h15h3.7l0,3.7v26.2l0,3.7h-3.7h-15h-3.7v-3.7V52.3v-3.7H134.9L134.9,48.6z
			 M146.2,56.1h-7.5v18.7h7.5V56.1z"/>
	</g>
	<g id="XMLID_83_">
		<path id="XMLID_84_" class="st0" d="M134.9,90.7h15h3.7l0,3.7v26.2l0,3.7h-3.7h-15h-3.7v-3.7V94.5v-3.7H134.9L134.9,90.7z
			 M146.2,98.2h-7.5v18.7h7.5V98.2z"/>
	</g>
	<g id="XMLID_79_">
		<path id="XMLID_80_" class="st0" d="M58.6,48.6h19h3.7v3.7v19v3.7h-3.7h-19h-3.7v-3.7v-19v-3.7H58.6L58.6,48.6z M73.9,56.1H62.4
			v11.5h11.5V56.1z"/>
	</g>
	<g id="XMLID_75_">
		<path id="XMLID_76_" class="st0" d="M98.4,48.6h19h3.7v3.7v19v3.7h-3.7h-19h-3.7v-3.7v-19v-3.7H98.4L98.4,48.6z M113.7,56.1h-11.5
			v11.5h11.5V56.1z"/>
	</g>
	<g id="XMLID_71_">
		<path id="XMLID_72_" class="st0" d="M58.6,83h19h3.7v3.7v19v3.7h-3.7h-19h-3.7v-3.7v-19V83H58.6L58.6,83z M73.9,90.5H62.4V102
			h11.5V90.5z"/>
	</g>
	<g id="XMLID_67_">
		<path id="XMLID_68_" class="st0" d="M98.4,83h19h3.7v3.7v19v3.7h-3.7h-19h-3.7v-3.7v-19V83H98.4L98.4,83z M113.7,90.5h-11.5V102
			h11.5V90.5z"/>
	</g>
	<g id="XMLID_63_">
		<path id="XMLID_64_" class="st0" d="M74.9,119.7h26.2h3.7v3.7v33.7v3.7h-3.7H74.9h-3.7v-3.7v-33.7v-3.7H74.9L74.9,119.7z
			 M97.4,127.2H78.7v26.2h18.7V127.2z"/>
	</g>
	<g id="XMLID_61_">
		<polygon id="XMLID_62_" class="st1" points="52.4,18.6 123.7,18.6 123.7,17.4 85.2,7.5 52.4,17.3 		"/>
	</g>
	<g id="XMLID_59_">
		<rect id="XMLID_60_" x="33.7" y="26.1" class="st1" width="108.8" height="7.5"/>
	</g>
	<g id="XMLID_48_">
		<path id="XMLID_49_" class="st1" d="M146.2,41.1H29.9h-3.7H14.9v112.4h56.2v-30v-3.7h3.7h26.2h3.7v3.7v30h56.2V41.1h-11.2H146.2
			L146.2,41.1z M94.6,71.4v-19v-3.7h3.7h19h3.7v3.7v19v3.7h-3.7h-19h-3.7V71.4L94.6,71.4z M98.4,83h19h3.7v3.7v19v3.7h-3.7h-19h-3.7
			v-3.7v-19V83H98.4L98.4,83z M81.4,52.3v19v3.7h-3.7h-19h-3.7v-3.7v-19v-3.7h3.7h19h3.7V52.3L81.4,52.3z M58.6,83h19h3.7v3.7v19
			v3.7h-3.7h-19h-3.7v-3.7v-19V83H58.6L58.6,83z M131.2,82.3v-3.7V52.3v-3.7h3.7h15h3.7l0,3.7v26.2l0,3.7h-3.7h-15H131.2L131.2,82.3
			z M134.9,90.7h15h3.7l0,3.7v26.2l0,3.7h-3.7h-15h-3.7v-3.7V94.5v-3.7H134.9L134.9,90.7z M45,78.5v3.7h-3.7h-15h-3.7v-3.7V52.3
			v-3.7h3.7h15H45v3.7V78.5L45,78.5z M26.3,90.7h15H45v3.7v26.2v3.7h-3.7h-15h-3.7v-3.7V94.5v-3.7H26.3z"/>
	</g>
	<g id="XMLID_46_">
		<rect id="XMLID_47_" x="30" y="56.1" class="st2" width="7.5" height="18.7"/>
	</g>
	<g id="XMLID_44_">
		<rect id="XMLID_45_" x="62.4" y="56.1" class="st2" width="11.5" height="11.5"/>
	</g>
	<g id="XMLID_42_">
		<rect id="XMLID_43_" x="102.1" y="56.1" class="st2" width="11.5" height="11.5"/>
	</g>
	<g id="XMLID_40_">
		<rect id="XMLID_41_" x="138.7" y="56.1" class="st2" width="7.5" height="18.7"/>
	</g>
	<g id="XMLID_38_">
		<rect id="XMLID_39_" x="30" y="98.2" class="st2" width="7.5" height="18.7"/>
	</g>
	<g id="XMLID_36_">
		<rect id="XMLID_37_" x="62.4" y="90.5" class="st2" width="11.5" height="11.5"/>
	</g>
	<g id="XMLID_34_">
		<rect id="XMLID_35_" x="102.1" y="90.5" class="st2" width="11.5" height="11.5"/>
	</g>
	<g id="XMLID_32_">
		<rect id="XMLID_33_" x="138.7" y="98.2" class="st2" width="7.5" height="18.7"/>
	</g>
	<g id="XMLID_30_">
		<rect id="XMLID_31_" x="78.7" y="127.2" class="st3" width="18.7" height="26.2"/>
	</g>
</g>
<rect id="XMLID_28_" x="33.7" y="26.1" class="st4" width="108.8" height="3.7"/>
<rect id="XMLID_114_" x="14.9" y="41.2" class="st4" width="146.2" height="3.7"/>
<rect id="XMLID_113_" x="68.2" y="118.4" class="st0" width="39.7" height="8.9"/>
</svg>
