<?xml version="1.0" encoding="utf-8"?>
<!-- Generator: Adobe Illustrator 19.0.0, SVG Export Plug-In . SVG Version: 6.00 Build 0)  -->
<svg version="1.1" id="Layer_1" xmlns="http://www.w3.org/2000/svg" xmlns:xlink="http://www.w3.org/1999/xlink" x="0px" y="0px"
	 width="420.6px" height="214px" viewBox="-389 209 420.6 214" style="enable-background:new -389 209 420.6 214;"
	 xml:space="preserve">
<style type="text/css">
	.st0{opacity:0.3;}
	.st1{fill:#EC4C4D;}
	.st2{enable-background:new    ;}
	.st3{fill:#FFFFFF;}
	.st4{fill:#4DA6AD;}
</style>
<g>
	<g>
		<g class="st0">
			<path d="M-335.1,213.9h-34.8c-5,0-9,4-9,9v34.8c0,4.9,4,9,9,9h34.8c4.9,0,9-4.1,9-9v-34.8C-326.1,217.9-330.2,213.9-335.1,213.9z
				"/>
		</g>
		<g>
			<path class="st1" d="M-340.1,208.9h-34.8c-5,0-9,4-9,9v34.8c0,4.9,4,9,9,9h34.8c4.9,0,9-4.1,9-9v-34.8
				C-331.1,212.9-335.2,208.9-340.1,208.9z"/>
		</g>
	</g>
	<g>
		<g class="st2">
			<path class="st3" d="M-371.8,240.7l1.9-2.8c1,0.8,1.9,1.2,3.1,1.2c1.7,0,2.5-1.2,2.7-3c-0.7,0.7-1.8,1.2-3.1,1.2
				c-2.8,0-4.9-1.7-4.9-4.6l0,0c0-3.2,2.5-5.3,5.8-5.3c2.1,0,3.3,0.6,4.4,1.7c1.1,1,1.7,2.7,1.7,5.4l0,0c0,4.7-2.4,8-6.7,8
				C-368.9,242.5-370.5,241.8-371.8,240.7z M-364,232.5L-364,232.5c0-1.2-0.8-2-2.1-2s-2,0.8-2,1.9l0,0c0,1.1,0.8,1.9,2.1,1.9
				S-364,233.6-364,232.5z"/>
			<path class="st3" d="M-358.5,238.1h4.1v4h-4.1V238.1z"/>
			<path class="st3" d="M-352.9,239.2l5.4-4.1c1.3-1.1,1.9-1.7,1.9-2.6s-0.6-1.5-1.6-1.5s-1.7,0.6-2.9,1.9l-2.7-2.3
				c1.6-2,3.1-3.1,5.9-3.1c3.2,0,5.3,1.9,5.3,4.6l0,0c0,2.3-1.2,3.5-3.3,5.1l-2.5,1.7h6v3.3h-11.5L-352.9,239.2L-352.9,239.2z"/>
		</g>
	</g>
	<g>
		<g class="st0">
			<path d="M-335.1,342.8h-34.8c-4.9,0-9,4-9,9v34.8c0,5,4.1,9,9,9h34.8c4.9,0,9-4,9-9v-34.8C-326.1,346.8-330.2,342.8-335.1,342.8z
				"/>
		</g>
		<g>
			<path class="st1" d="M-340.1,337.8h-34.8c-4.9,0-9,4-9,9v34.8c0,5,4.1,9,9,9h34.8c4.9,0,9-4,9-9v-34.8
				C-331.1,341.8-335.2,337.8-340.1,337.8z"/>
		</g>
	</g>
	<g>
		<g class="st2">
			<path class="st3" d="M-369.5,369.8l2.5-2.5c1,1.1,2.1,1.7,3.5,1.7c1.1,0,1.9-0.6,1.9-1.5l0,0c0-0.9-0.8-1.5-2.4-1.5h-1.7
				l-0.6-2.1l3.3-3h-5.5v-3.2h10.5v2.9l-3.5,3c2.1,0.5,3.7,1.6,3.7,4.1l0,0c0,2.9-2.4,4.8-5.6,4.8
				C-366.1,372.3-368.1,371.3-369.5,369.8z"/>
			<path class="st3" d="M-356.1,368h4.1v4h-4.1V368z"/>
			<path class="st3" d="M-349,361.2l-2.4,0.6l-0.8-3.1l4.2-1.2h2.9v14.6h-3.9V361.2z"/>
		</g>
	</g>
	<g class="st2">
		<path class="st4" d="M-375.5,405.6L-375.5,405.6c0-2.5,1.8-4.5,4.5-4.5c1.6,0,2.6,0.6,3.4,1.4l-1,1.1c-0.7-0.6-1.4-1.1-2.4-1.1
			c-1.7,0-2.9,1.4-2.9,3.1l0,0c0,1.7,1.2,3.1,2.9,3.1c1.1,0,1.7-0.4,2.5-1.1l1,1c-0.9,0.9-1.9,1.5-3.5,1.5
			C-373.6,410.1-375.5,408.1-375.5,405.6z"/>
		<path class="st4" d="M-366.6,405.6L-366.6,405.6c0-2.5,1.9-4.5,4.5-4.5s4.5,2,4.5,4.5l0,0c0,2.4-1.9,4.5-4.5,4.5
			S-366.6,408.1-366.6,405.6z M-359.1,405.6L-359.1,405.6c0-1.7-1.2-3.1-2.9-3.1c-1.7,0-2.9,1.4-2.9,3.1l0,0c0,1.7,1.2,3.1,2.9,3.1
			C-360.3,408.7-359.1,407.3-359.1,405.6z"/>
		<path class="st4" d="M-355.7,401.2h3.4c2,0,3.3,1.2,3.3,2.9l0,0c0,1.9-1.6,3-3.5,3h-1.7v2.8h-1.5V401.2z M-352.4,405.8
			c1.2,0,1.9-0.6,1.9-1.5l0,0c0-1-0.7-1.5-1.9-1.5h-1.8v3.1L-352.4,405.8L-352.4,405.8z"/>
		<path class="st4" d="M-347.4,401.2h3.2c2.7,0,4.6,1.9,4.6,4.3l0,0c0,2.4-1.9,4.3-4.6,4.3h-3.2V401.2z M-344.2,408.5
			c1.8,0,3-1.2,3-2.9l0,0c0-1.7-1.2-2.9-3-2.9h-1.7v5.9L-344.2,408.5L-344.2,408.5z"/>
	</g>
	<g>
		<g class="st0">
			<path d="M-241.2,213.9H-276c-5,0-9,4-9,9v34.8c0,4.9,4,9,9,9h34.8c5,0,9-4.1,9-9v-34.8C-232.2,217.9-236.2,213.9-241.2,213.9z"/>
		</g>
		<g>
			<path class="st1" d="M-246.2,208.9H-281c-5,0-9,4-9,9v34.8c0,4.9,4,9,9,9h34.8c5,0,9-4.1,9-9v-34.8
				C-237.2,212.9-241.2,208.9-246.2,208.9z"/>
		</g>
	</g>
	<g>
		<g class="st2">
			<path class="st3" d="M-278.8,238.2L-278.8,238.2c0-1.8,0.9-2.9,2.5-3.5c-1.1-0.6-2-1.6-2-3.1l0,0c0-2.3,2.2-4,5.5-4
				s5.5,1.7,5.5,4l0,0c0,1.6-0.9,2.5-2,3.1c1.5,0.7,2.5,1.7,2.5,3.5l0,0c0,2.6-2.5,4.3-6,4.3C-276.3,242.4-278.8,240.7-278.8,238.2z
				 M-270.7,237.8L-270.7,237.8c0-1-0.9-1.6-2.1-1.6c-1.2,0-2.1,0.6-2.1,1.6l0,0c0,0.9,0.7,1.6,2.1,1.6
				C-271.5,239.4-270.7,238.7-270.7,237.8z M-271.1,232L-271.1,232c0-0.8-0.7-1.6-1.8-1.6s-1.8,0.7-1.8,1.5l0,0
				c0,0.9,0.7,1.6,1.8,1.6S-271.1,232.9-271.1,232z"/>
			<path class="st3" d="M-265.4,238.1h4.1v4h-4.1V238.1z"/>
			<path class="st3" d="M-252.5,239.4h-7l-0.7-2.8l7.5-8.9h4.1v8.8h1.8v3h-1.8v2.8h-3.9L-252.5,239.4L-252.5,239.4z M-252.5,236.4
				v-4.2l-3.5,4.2H-252.5z"/>
		</g>
	</g>
	<g>
		<g class="st0">
			<path d="M-241.2,342.8H-276c-5,0-9,4-9,9v34.8c0,5,4,9,9,9h34.8c5,0,9-4,9-9v-34.8C-232.2,346.8-236.2,342.8-241.2,342.8z"/>
		</g>
		<g>
			<path class="st1" d="M-246.2,337.8H-281c-5,0-9,4-9,9v34.8c0,5,4,9,9,9h34.8c5,0,9-4,9-9v-34.8
				C-237.2,341.8-241.2,337.8-246.2,337.8z"/>
		</g>
	</g>
	<g>
		<g class="st2">
			<path class="st3" d="M-277.9,368.1l5.4-4.1c1.3-1.1,1.9-1.7,1.9-2.6s-0.6-1.5-1.6-1.5s-1.7,0.6-2.9,1.9l-2.7-2.3
				c1.6-2,3.1-3.1,5.9-3.1c3.2,0,5.3,1.9,5.3,4.6l0,0c0,2.3-1.2,3.5-3.3,5.1l-2.5,1.7h6v3.3h-11.5L-277.9,368.1L-277.9,368.1z"/>
			<path class="st3" d="M-264.8,367.1h4.1v4h-4.1V367.1z"/>
			<path class="st3" d="M-259.4,368.8l2.5-2.5c1,1.1,2.1,1.7,3.5,1.7c1.1,0,1.9-0.6,1.9-1.5l0,0c0-0.9-0.8-1.5-2.4-1.5h-1.7
				l-0.6-2.1l3.3-3h-5.5v-3.2h10.5v2.9l-3.5,3c2.1,0.5,3.7,1.6,3.7,4.1l0,0c0,2.9-2.4,4.8-5.6,4.8
				C-256.1,371.4-258,370.4-259.4,368.8z"/>
		</g>
	</g>
	<g class="st2">
		<path class="st4" d="M-276.2,405.6L-276.2,405.6c0-2.5,1.8-4.5,4.5-4.5c1.6,0,2.6,0.6,3.4,1.4l-1,1.1c-0.7-0.6-1.4-1.1-2.4-1.1
			c-1.7,0-2.9,1.4-2.9,3.1l0,0c0,1.7,1.2,3.1,2.9,3.1c1.1,0,1.7-0.4,2.5-1.1l1,1c-0.9,0.9-1.9,1.5-3.5,1.5
			C-274.3,410.1-276.2,408.1-276.2,405.6z"/>
		<path class="st4" d="M-266.6,401.2h1.5v3.6h4.1v-3.6h1.5v8.7h-1.5v-3.7h-4.1v3.7h-1.5V401.2z"/>
		<path class="st4" d="M-257.2,401.2h6.5v1.4h-4.9v2.4h4.4v1.4h-4.4v3.5h-1.5L-257.2,401.2L-257.2,401.2z"/>
	</g>
	<g>
		<g class="st0">
			<path d="M-147.5,213.9h-34.8c-4.9,0-9,4-9,9v34.8c0,4.9,4.1,9,9,9h34.8c5,0,9-4.1,9-9v-34.8
				C-138.5,217.9-142.6,213.9-147.5,213.9z"/>
		</g>
		<g>
			<path class="st1" d="M-152.5,208.9h-34.8c-4.9,0-9,4-9,9v34.8c0,4.9,4.1,9,9,9h34.8c4.9,0,9-4.1,9-9v-34.8
				C-143.5,212.9-147.6,208.9-152.5,208.9z"/>
		</g>
	</g>
	<g>
		<g class="st2">
			<path class="st3" d="M-183.1,240.8c-1.1-1.1-1.8-2.7-1.8-5.4l0,0c0-4.5,2.2-7.9,6.7-7.9c2,0,3.4,0.6,4.8,1.6l-1.9,2.8
				c-0.9-0.7-1.7-1.1-2.9-1.1c-1.7,0-2.5,1.3-2.7,3.1c0.8-0.6,1.7-1.1,3.1-1.1c2.5,0,4.8,1.6,4.8,4.5l0,0c0,3.2-2.6,5.2-5.7,5.2
				C-180.8,242.5-182.1,241.8-183.1,240.8z M-176.9,237.5L-176.9,237.5c0-1.1-0.8-1.9-2-1.9s-2,0.8-2,1.8l0,0c0,1.1,0.8,1.9,2,1.9
				C-177.6,239.3-176.9,238.5-176.9,237.5z"/>
			<path class="st3" d="M-171.2,238.1h4.1v4h-4.1V238.1z"/>
			<path class="st3" d="M-163.6,240.8c-1.1-1.1-1.8-2.7-1.8-5.4l0,0c0-4.5,2.2-7.9,6.7-7.9c2,0,3.4,0.6,4.8,1.6l-1.9,2.8
				c-0.9-0.7-1.7-1.1-2.9-1.1c-1.7,0-2.5,1.3-2.7,3.1c0.8-0.6,1.7-1.1,3.1-1.1c2.5,0,4.8,1.6,4.8,4.5l0,0c0,3.2-2.6,5.2-5.7,5.2
				C-161.2,242.5-162.6,241.8-163.6,240.8z M-157.3,237.5L-157.3,237.5c0-1.1-0.8-1.9-2-1.9c-1.3,0-2,0.8-2,1.8l0,0
				c0,1.1,0.8,1.9,2,1.9S-157.3,238.5-157.3,237.5z"/>
		</g>
	</g>
	<g>
		<g class="st0">
			<path d="M-147.5,342.8h-34.8c-4.9,0-9,4-9,9v34.8c0,5,4.1,9,9,9h34.8c5,0,9-4,9-9v-34.8C-138.5,346.8-142.6,342.8-147.5,342.8z"
				/>
		</g>
		<g>
			<path class="st1" d="M-152.5,337.8h-34.8c-4.9,0-9,4-9,9v34.8c0,5,4.1,9,9,9h34.8c5,0,9-4,9-9v-34.8
				C-143.5,341.8-147.6,337.8-152.5,337.8z"/>
		</g>
	</g>
	<g>
		<g class="st2">
			<path class="st3" d="M-179.9,360.2l-2.4,0.6l-0.8-3.1l4.2-1.2h2.9v14.6h-3.9V360.2L-179.9,360.2z"/>
			<path class="st3" d="M-173.7,367.1h4.1v4h-4.1V367.1z"/>
			<path class="st3" d="M-166.1,369.7c-1.1-1.1-1.8-2.7-1.8-5.4l0,0c0-4.5,2.2-7.9,6.7-7.9c2,0,3.4,0.6,4.8,1.6l-1.9,2.8
				c-0.9-0.7-1.7-1.1-2.9-1.1c-1.7,0-2.5,1.3-2.7,3.1c0.8-0.6,1.7-1.1,3.1-1.1c2.5,0,4.8,1.6,4.8,4.5l0,0c0,3.2-2.6,5.2-5.7,5.2
				C-163.7,371.4-165,370.8-166.1,369.7z M-159.8,366.4L-159.8,366.4c0-1.1-0.8-1.9-2-1.9c-1.3,0-2,0.8-2,1.8l0,0
				c0,1.1,0.8,1.9,2,1.9C-160.5,368.3-159.8,367.4-159.8,366.4z"/>
		</g>
	</g>
	<g>
		<g class="st0">
			<path d="M-60.3,213.9h-34.8c-5,0-9,4-9,9v34.8c0,4.9,4,9,9,9h34.8c5,0,9-4.1,9-9v-34.8C-51.3,217.9-55.4,213.9-60.3,213.9z"/>
		</g>
		<g>
			<path class="st1" d="M-65.3,208.9h-34.8c-5,0-9,4-9,9v34.8c0,4.9,4,9,9,9h34.8c4.9,0,9-4.1,9-9v-34.8
				C-56.3,212.9-60.4,208.9-65.3,208.9z"/>
		</g>
	</g>
	<g>
		<g class="st2">
			<path class="st3" d="M-97.4,240.2l2.3-2.7c1.2,1,2.3,1.6,3.5,1.6c1.3,0,2.1-0.7,2.1-1.7l0,0c0-1-0.9-1.7-2.1-1.7
				c-0.9,0-1.6,0.3-2.3,0.7l-2.4-1.3l0.4-7.3h9.7v3.3h-6.5l-0.1,2.2c0.7-0.3,1.3-0.5,2.3-0.5c2.6,0,5,1.4,5,4.6l0,0
				c0,3.2-2.5,5.1-6,5.1C-94.1,242.5-95.9,241.6-97.4,240.2z"/>
			<path class="st3" d="M-83.9,238.1h4.1v4h-4.1V238.1z"/>
			<path class="st3" d="M-78.5,239.9l2.5-2.5c1,1.1,2.1,1.7,3.5,1.7c1.1,0,1.9-0.6,1.9-1.5l0,0c0-0.9-0.8-1.5-2.4-1.5h-1.7l-0.6-2.1
				l3.3-3h-5.5v-3.2H-67v2.9l-3.5,3c2.1,0.5,3.7,1.6,3.7,4.1l0,0c0,2.9-2.4,4.8-5.6,4.8C-75.2,242.5-77.1,241.4-78.5,239.9z"/>
		</g>
	</g>
	<g>
		<g class="st0">
			<path d="M-60.3,342.8h-34.8c-4.9,0-9,4-9,9v34.8c0,5,4.1,9,9,9h34.8c4.9,0,9-4,9-9v-34.8C-51.3,346.8-55.4,342.8-60.3,342.8z"/>
		</g>
		<g>
			<path class="st1" d="M-65.3,337.8h-34.8c-4.9,0-9,4-9,9v34.8c0,5,4.1,9,9,9h34.8c4.9,0,9-4,9-9v-34.8
				C-56.3,341.8-60.4,337.8-65.3,337.8z"/>
		</g>
	</g>
	<g>
		<g class="st2">
			<path class="st3" d="M-92.4,360.2l-2.4,0.6l-0.8-3.1l4.2-1.2h2.9v14.6h-3.9V360.2L-92.4,360.2z"/>
			<path class="st3" d="M-86.1,367.1h4.1v4h-4.1V367.1z"/>
			<path class="st3" d="M-80.8,369.1l2.3-2.7c1.2,1,2.3,1.6,3.5,1.6c1.3,0,2.1-0.7,2.1-1.7l0,0c0-1-0.9-1.7-2.1-1.7
				c-0.9,0-1.6,0.3-2.3,0.7l-2.4-1.3l0.4-7.3h9.7v3.3h-6.5l-0.1,2.2c0.7-0.3,1.3-0.5,2.3-0.5c2.6,0,5,1.4,5,4.6l0,0
				c0,3.2-2.5,5.1-6,5.1C-77.5,371.4-79.3,370.5-80.8,369.1z"/>
		</g>
	</g>
	<g>
		<g class="st0">
			<path d="M22.6,213.9h-34.8c-4.9,0-9,4-9,9v34.8c0,4.9,4.1,9,9,9h34.8c5,0,9-4.1,9-9v-34.8C31.6,217.9,27.6,213.9,22.6,213.9z"/>
		</g>
		<g>
			<path class="st1" d="M17.6,208.9h-34.8c-4.9,0-9,4-9,9v34.8c0,4.9,4.1,9,9,9h34.8c5,0,9-4.1,9-9v-34.8
				C26.6,212.9,22.6,208.9,17.6,208.9z"/>
		</g>
	</g>
	<g>
		<g class="st2">
			<path class="st3" d="M-8.2,239.4h-7l-0.7-2.8l7.5-8.9h4.1v8.8h1.8v3h-1.8v2.8h-3.9L-8.2,239.4L-8.2,239.4z M-8.2,236.4v-4.2
				l-3.5,4.2H-8.2z"/>
			<path class="st3" d="M-1,238.1h4.1v4H-1V238.1z"/>
			<path class="st3" d="M11.9,239.4h-7l-0.7-2.8l7.5-8.9h4.1v8.8h1.8v3h-1.8v2.8h-3.9L11.9,239.4L11.9,239.4z M11.9,236.4v-4.2
				l-3.5,4.2H11.9z"/>
		</g>
	</g>
	<g>
		<g class="st0">
			<path d="M22.6,342.8h-34.8c-5,0-9,4-9,9v34.8c0,5,4,9,9,9h34.8c4.9,0,9-4,9-9v-34.8C31.6,346.8,27.6,342.8,22.6,342.8z"/>
		</g>
		<g>
			<path class="st1" d="M17.6,337.8h-34.8c-5,0-9,4-9,9v34.8c0,5,4,9,9,9h34.8c4.9,0,9-4,9-9v-34.8
				C26.6,341.8,22.6,337.8,17.6,337.8z"/>
		</g>
	</g>
	<g>
		<g class="st2">
			<path class="st3" d="M-9.4,360.2l-2.4,0.6l-0.8-3.1l4.2-1.2h2.9v14.6h-3.9V360.2L-9.4,360.2z"/>
			<path class="st3" d="M-3.2,367.1h4.1v4h-4.1V367.1z"/>
			<path class="st3" d="M2.2,369.1l2.3-2.7c1.2,1,2.3,1.6,3.5,1.6c1.3,0,2.1-0.7,2.1-1.7l0,0c0-1-0.9-1.7-2.1-1.7
				c-0.9,0-1.6,0.3-2.3,0.7L3.3,364l0.4-7.3h9.7v3.3H6.9l-0.1,2.2c0.7-0.3,1.3-0.5,2.3-0.5c2.6,0,5,1.4,5,4.6l0,0
				c0,3.2-2.5,5.1-6,5.1C5.5,371.4,3.7,370.5,2.2,369.1z"/>
		</g>
	</g>
	<g>
		<path class="st4" d="M-389,273.1h4c0.8,0,1.5,0.1,2.2,0.3c0.6,0.2,1.2,0.4,1.6,0.7c0.5,0.3,0.8,0.7,1.1,1.1
			c0.3,0.4,0.5,0.8,0.7,1.2c0.2,0.4,0.3,0.9,0.4,1.3s0.1,0.8,0.1,1.2c0,0.7-0.1,1.5-0.4,2.2s-0.7,1.3-1.2,1.8s-1.2,1-2,1.3
			s-1.7,0.5-2.7,0.5h-3.8L-389,273.1L-389,273.1z M-387.5,283.2h2c0.7,0,1.3-0.1,1.9-0.3s1.1-0.5,1.6-0.8c0.4-0.4,0.8-0.8,1.1-1.3
			c0.3-0.5,0.4-1.2,0.4-1.9c0-0.4-0.1-0.8-0.2-1.3s-0.3-1-0.7-1.4c-0.3-0.4-0.8-0.8-1.4-1.1c-0.6-0.3-1.4-0.5-2.3-0.5h-2.4V283.2z"
			/>
		<path class="st4" d="M-377.3,274.2c0-0.3,0.1-0.5,0.3-0.8s0.5-0.3,0.8-0.3s0.5,0.1,0.8,0.3c0.2,0.2,0.3,0.5,0.3,0.8
			s-0.1,0.5-0.3,0.8c-0.2,0.2-0.5,0.3-0.8,0.3s-0.5-0.1-0.8-0.3C-377.1,274.7-377.3,274.5-377.3,274.2z M-376.9,276.9h1.5v7.8h-1.5
			V276.9z"/>
		<path class="st4" d="M-373.1,277.9c0.4-0.4,0.9-0.7,1.4-0.9c0.5-0.2,1.1-0.3,1.6-0.3c0.6,0,1.1,0.1,1.5,0.2s0.7,0.3,1,0.6
			c0.3,0.2,0.5,0.5,0.6,0.8s0.2,0.6,0.2,1v4c0,0.3,0,0.5,0,0.8c0,0.2,0,0.4,0,0.7h-1.3c0-0.4,0-0.8,0-1.2l0,0
			c-0.3,0.5-0.7,0.9-1.2,1.1c-0.4,0.2-1,0.3-1.6,0.3c-0.4,0-0.7,0-1-0.1s-0.6-0.2-0.9-0.4s-0.4-0.4-0.6-0.7s-0.2-0.6-0.2-1
			c0-0.5,0.1-0.9,0.3-1.3c0.2-0.3,0.5-0.6,0.9-0.8c0.4-0.2,0.8-0.4,1.4-0.5c0.5-0.1,1.1-0.1,1.7-0.1h1.1v-0.3c0-0.2,0-0.4-0.1-0.6
			s-0.2-0.4-0.3-0.5s-0.3-0.3-0.6-0.4c-0.2-0.1-0.5-0.1-0.8-0.1s-0.5,0-0.7,0.1s-0.4,0.1-0.6,0.2s-0.3,0.2-0.5,0.3
			c-0.1,0.1-0.3,0.2-0.4,0.3L-373.1,277.9z M-368.9,281c-0.3,0-0.7,0-1.1,0.1s-0.7,0.1-1,0.2s-0.5,0.3-0.7,0.5s-0.3,0.4-0.3,0.8
			s0.1,0.8,0.5,1s0.7,0.3,1.2,0.3c0.4,0,0.7-0.1,1-0.2s0.5-0.3,0.7-0.5s0.3-0.5,0.4-0.7c0.1-0.3,0.1-0.5,0.1-0.8v-0.5h-0.8V281z"/>
		<path class="st4" d="M-364.6,272.3h1.5v5.7l0,0c0.3-0.4,0.6-0.7,1.1-1c0.5-0.2,1-0.4,1.6-0.4s1.1,0.1,1.6,0.3
			c0.5,0.2,0.9,0.5,1.2,0.9s0.6,0.8,0.8,1.3s0.3,1,0.3,1.6s-0.1,1.1-0.3,1.6s-0.4,0.9-0.8,1.3c-0.3,0.4-0.8,0.7-1.2,0.9
			c-0.5,0.2-1,0.3-1.6,0.3c-0.5,0-1-0.1-1.5-0.3c-0.5-0.2-0.9-0.6-1.2-1l0,0v1.1h-1.5V272.3z M-360.6,283.5c0.4,0,0.7-0.1,1.1-0.2
			c0.3-0.1,0.6-0.3,0.8-0.6s0.4-0.5,0.5-0.9c0.1-0.3,0.2-0.7,0.2-1.1s-0.1-0.8-0.2-1.1s-0.3-0.6-0.5-0.9c-0.2-0.2-0.5-0.4-0.8-0.6
			c-0.3-0.1-0.7-0.2-1.1-0.2c-0.4,0-0.7,0.1-1.1,0.2c-0.3,0.1-0.6,0.3-0.8,0.6c-0.2,0.2-0.4,0.5-0.5,0.9s-0.2,0.7-0.2,1.1
			s0.1,0.8,0.2,1.1c0.1,0.3,0.3,0.6,0.5,0.9s0.5,0.4,0.8,0.6C-361.3,283.5-361,283.5-360.6,283.5z"/>
		<path class="st4" d="M-353.5,281.4c0,0.3,0.1,0.6,0.2,0.9c0.1,0.3,0.3,0.5,0.6,0.7c0.2,0.2,0.5,0.3,0.8,0.5c0.3,0.1,0.6,0.2,1,0.2
			c0.5,0,0.9-0.1,1.2-0.3c0.3-0.2,0.6-0.5,0.9-0.8l1.1,0.9c-0.8,1.1-2,1.6-3.4,1.6c-0.6,0-1.2-0.1-1.7-0.3c-0.5-0.2-0.9-0.5-1.3-0.9
			c-0.3-0.4-0.6-0.8-0.8-1.3s-0.3-1-0.3-1.6s0.1-1.1,0.3-1.6s0.5-0.9,0.8-1.3c0.4-0.4,0.8-0.7,1.3-0.9c0.5-0.2,1-0.3,1.6-0.3
			c0.7,0,1.3,0.1,1.7,0.4s0.9,0.6,1.2,0.9c0.3,0.4,0.5,0.8,0.7,1.3c0.1,0.5,0.2,1,0.2,1.5v0.5L-353.5,281.4L-353.5,281.4z
			 M-348.8,280.2c0-0.3-0.1-0.6-0.2-0.9c-0.1-0.3-0.2-0.5-0.4-0.7s-0.4-0.4-0.7-0.5s-0.6-0.2-1-0.2s-0.7,0.1-1,0.2s-0.6,0.3-0.8,0.5
			s-0.4,0.5-0.5,0.7s-0.2,0.5-0.2,0.8L-348.8,280.2L-348.8,280.2z"/>
		<path class="st4" d="M-341.3,278.2h-2.1v3.5c0,0.2,0,0.4,0,0.6s0.1,0.4,0.1,0.6c0.1,0.2,0.2,0.3,0.3,0.4s0.4,0.2,0.6,0.2
			c0.2,0,0.4,0,0.5,0c0.2,0,0.4-0.1,0.5-0.2v1.3c-0.2,0.1-0.4,0.2-0.7,0.2s-0.5,0.1-0.6,0.1c-0.6,0-1-0.1-1.3-0.2s-0.5-0.4-0.7-0.6
			s-0.2-0.5-0.3-0.8c0-0.3,0-0.6,0-0.9v-4h-1.7v-1.3h1.7v-2.2h1.5v2.2h2.1v1.1H-341.3z"/>
		<path class="st4" d="M-338.3,281.4c0,0.3,0.1,0.6,0.2,0.9c0.1,0.3,0.3,0.5,0.6,0.7c0.2,0.2,0.5,0.3,0.8,0.5c0.3,0.1,0.6,0.2,1,0.2
			c0.5,0,0.9-0.1,1.2-0.3c0.3-0.2,0.6-0.5,0.9-0.8l1.1,0.9c-0.8,1.1-2,1.6-3.4,1.6c-0.6,0-1.2-0.1-1.7-0.3c-0.5-0.2-0.9-0.5-1.3-0.9
			c-0.3-0.4-0.6-0.8-0.8-1.3s-0.3-1-0.3-1.6s0.1-1.1,0.3-1.6s0.5-0.9,0.8-1.3c0.4-0.4,0.8-0.7,1.3-0.9c0.5-0.2,1-0.3,1.6-0.3
			c0.7,0,1.3,0.1,1.7,0.4s0.9,0.6,1.2,0.9c0.3,0.4,0.5,0.8,0.7,1.3c0.1,0.5,0.2,1,0.2,1.5v0.5L-338.3,281.4L-338.3,281.4z
			 M-333.7,280.2c0-0.3-0.1-0.6-0.2-0.9c-0.1-0.3-0.2-0.5-0.4-0.7s-0.4-0.4-0.7-0.5s-0.6-0.2-1-0.2s-0.7,0.1-1,0.2s-0.6,0.3-0.8,0.5
			s-0.4,0.5-0.5,0.7s-0.2,0.5-0.2,0.8L-333.7,280.2L-333.7,280.2z"/>
		<path class="st4" d="M-326.2,278.9c-0.2-0.2-0.4-0.4-0.6-0.5c-0.3-0.1-0.6-0.2-0.9-0.2c-0.3,0-0.7,0.1-0.9,0.2
			c-0.3,0.1-0.4,0.4-0.4,0.6s0.1,0.4,0.2,0.6c0.1,0.1,0.3,0.3,0.5,0.3c0.2,0.1,0.4,0.2,0.6,0.2c0.2,0,0.4,0.1,0.6,0.1
			c0.3,0.1,0.6,0.2,0.9,0.3s0.5,0.3,0.7,0.4c0.2,0.2,0.4,0.4,0.5,0.6c0.1,0.3,0.2,0.6,0.2,0.9c0,0.4-0.1,0.8-0.3,1.1
			c-0.2,0.3-0.4,0.6-0.7,0.8c-0.3,0.2-0.6,0.3-1,0.4s-0.8,0.1-1.1,0.1c-0.6,0-1.2-0.1-1.7-0.3c-0.5-0.2-0.9-0.6-1.3-1.1l1.1-0.9
			c0.2,0.2,0.5,0.5,0.8,0.6c0.3,0.2,0.7,0.3,1.1,0.3c0.2,0,0.4,0,0.6-0.1c0.2,0,0.4-0.1,0.5-0.2s0.3-0.2,0.4-0.3
			c0.1-0.1,0.1-0.3,0.1-0.4c0-0.2-0.1-0.4-0.2-0.5c-0.1-0.1-0.3-0.3-0.5-0.3s-0.4-0.1-0.6-0.2c-0.2,0-0.4-0.1-0.6-0.1
			c-0.3-0.1-0.6-0.2-0.9-0.3c-0.3-0.1-0.5-0.2-0.8-0.4c-0.2-0.2-0.4-0.4-0.5-0.6s-0.2-0.6-0.2-0.9c0-0.4,0.1-0.8,0.3-1.1
			c0.2-0.3,0.4-0.5,0.7-0.7s0.6-0.3,0.9-0.4c0.4-0.1,0.7-0.1,1.1-0.1c0.5,0,1,0.1,1.5,0.3c0.5,0.2,0.9,0.5,1.1,1L-326.2,278.9z"/>
	</g>
	<g>
		<path class="st4" d="M-283.5,268.4h2.3l3.7,8.8h0.1l3.6-8.8h2.3V280h-1.6v-9.5l0,0l-3.9,9.5h-1l-3.9-9.5l0,0v9.5h-1.6
			L-283.5,268.4L-283.5,268.4z"/>
		<path class="st4" d="M-269.3,276.1c0-0.6,0.1-1.1,0.3-1.6s0.5-0.9,0.9-1.3s0.8-0.7,1.3-0.9s1-0.3,1.6-0.3s1.1,0.1,1.6,0.3
			c0.5,0.2,0.9,0.5,1.3,0.9s0.7,0.8,0.9,1.3s0.3,1,0.3,1.6s-0.1,1.1-0.3,1.6s-0.5,0.9-0.9,1.3s-0.8,0.7-1.3,0.9
			c-0.5,0.2-1,0.3-1.6,0.3s-1.1-0.1-1.6-0.3s-0.9-0.5-1.3-0.9c-0.4-0.4-0.7-0.8-0.9-1.3S-269.3,276.7-269.3,276.1z M-267.8,276.1
			c0,0.4,0.1,0.8,0.2,1.1c0.1,0.3,0.3,0.6,0.5,0.9s0.5,0.4,0.8,0.6s0.7,0.2,1.1,0.2c0.4,0,0.7-0.1,1.1-0.2c0.3-0.1,0.6-0.3,0.8-0.6
			s0.4-0.5,0.5-0.9c0.1-0.3,0.2-0.7,0.2-1.1s-0.1-0.8-0.2-1.1c-0.1-0.3-0.3-0.6-0.5-0.9c-0.2-0.2-0.5-0.4-0.8-0.6
			c-0.3-0.1-0.7-0.2-1.1-0.2c-0.4,0-0.7,0.1-1.1,0.2s-0.6,0.3-0.8,0.6c-0.2,0.2-0.4,0.5-0.5,0.9S-267.8,275.7-267.8,276.1z"/>
		<path class="st4" d="M-259.6,276.1c0-0.6,0.1-1.1,0.3-1.6s0.5-0.9,0.9-1.3s0.8-0.7,1.3-0.9s1-0.3,1.6-0.3c0.6,0,1.1,0.1,1.6,0.3
			c0.5,0.2,0.9,0.5,1.3,0.9s0.7,0.8,0.9,1.3s0.3,1,0.3,1.6s-0.1,1.1-0.3,1.6s-0.5,0.9-0.9,1.3s-0.8,0.7-1.3,0.9
			c-0.5,0.2-1,0.3-1.6,0.3c-0.6,0-1.1-0.1-1.6-0.3s-0.9-0.5-1.3-0.9c-0.4-0.4-0.7-0.8-0.9-1.3S-259.6,276.7-259.6,276.1z
			 M-258,276.1c0,0.4,0.1,0.8,0.2,1.1c0.1,0.3,0.3,0.6,0.5,0.9s0.5,0.4,0.8,0.6s0.7,0.2,1.1,0.2c0.4,0,0.7-0.1,1.1-0.2
			c0.3-0.1,0.6-0.3,0.8-0.6s0.4-0.5,0.5-0.9c0.1-0.3,0.2-0.7,0.2-1.1s-0.1-0.8-0.2-1.1c-0.1-0.3-0.3-0.6-0.5-0.9
			c-0.2-0.2-0.5-0.4-0.8-0.6c-0.3-0.1-0.7-0.2-1.1-0.2c-0.4,0-0.7,0.1-1.1,0.2s-0.6,0.3-0.8,0.6c-0.2,0.2-0.4,0.5-0.5,0.9
			S-258,275.7-258,276.1z"/>
		<path class="st4" d="M-241.7,280h-1.5v-1.1l0,0c-0.3,0.4-0.7,0.7-1.2,1c-0.5,0.2-1,0.3-1.5,0.3c-0.6,0-1.1-0.1-1.6-0.3
			c-0.5-0.2-0.9-0.5-1.2-0.9s-0.6-0.8-0.8-1.3s-0.3-1-0.3-1.6s0.1-1.1,0.3-1.6s0.5-0.9,0.8-1.3s0.8-0.7,1.2-0.9
			c0.5-0.2,1-0.3,1.6-0.3s1.1,0.1,1.6,0.4c0.5,0.2,0.9,0.6,1.1,1l0,0v-5.7h1.5L-241.7,280L-241.7,280z M-245.8,278.8
			c0.4,0,0.7-0.1,1.1-0.2c0.3-0.1,0.6-0.3,0.8-0.6s0.4-0.5,0.5-0.9c0.1-0.3,0.2-0.7,0.2-1.1s-0.1-0.8-0.2-1.1
			c-0.1-0.3-0.3-0.6-0.5-0.9c-0.2-0.2-0.5-0.4-0.8-0.6c-0.3-0.1-0.7-0.2-1.1-0.2c-0.4,0-0.7,0.1-1.1,0.2s-0.6,0.3-0.8,0.6
			c-0.2,0.2-0.4,0.5-0.5,0.9s-0.2,0.7-0.2,1.1s0.1,0.8,0.2,1.1c0.1,0.3,0.3,0.6,0.5,0.9s0.5,0.4,0.8,0.6S-246.1,278.8-245.8,278.8z"
			/>
		<path class="st4" d="M-293.5,282.4h4c0.8,0,1.5,0.1,2.2,0.3c0.6,0.2,1.2,0.4,1.6,0.7c0.5,0.3,0.8,0.7,1.1,1.1s0.5,0.8,0.7,1.2
			c0.2,0.4,0.3,0.9,0.4,1.3s0.1,0.8,0.1,1.2c0,0.7-0.1,1.5-0.4,2.2c-0.3,0.7-0.7,1.3-1.2,1.8s-1.2,1-2,1.3s-1.7,0.5-2.7,0.5h-3.8
			L-293.5,282.4L-293.5,282.4z M-291.9,292.5h2c0.7,0,1.3-0.1,1.9-0.3s1.1-0.5,1.6-0.8c0.4-0.4,0.8-0.8,1.1-1.3s0.4-1.2,0.4-1.9
			c0-0.4-0.1-0.8-0.2-1.3c-0.1-0.5-0.3-1-0.7-1.4c-0.3-0.4-0.8-0.8-1.4-1.1c-0.6-0.3-1.4-0.5-2.3-0.5h-2.4L-291.9,292.5
			L-291.9,292.5z"/>
		<path class="st4" d="M-281.7,283.5c0-0.3,0.1-0.5,0.3-0.8s0.5-0.3,0.8-0.3s0.5,0.1,0.8,0.3c0.2,0.2,0.3,0.5,0.3,0.8
			s-0.1,0.5-0.3,0.8c-0.2,0.2-0.5,0.3-0.8,0.3s-0.5-0.1-0.8-0.3C-281.6,284-281.7,283.8-281.7,283.5z M-281.4,286.2h1.5v7.8h-1.5
			V286.2z"/>
		<path class="st4" d="M-273.4,288.2c-0.2-0.2-0.4-0.4-0.6-0.5c-0.3-0.1-0.6-0.2-0.9-0.2c-0.3,0-0.7,0.1-0.9,0.2
			c-0.3,0.1-0.4,0.4-0.4,0.6s0.1,0.4,0.2,0.6c0.1,0.1,0.3,0.3,0.5,0.3c0.2,0.1,0.4,0.2,0.6,0.2c0.2,0,0.4,0.1,0.6,0.1
			c0.3,0.1,0.6,0.2,0.9,0.3s0.5,0.3,0.7,0.4c0.2,0.2,0.4,0.4,0.5,0.6c0.1,0.3,0.2,0.6,0.2,0.9c0,0.4-0.1,0.8-0.3,1.1
			c-0.2,0.3-0.4,0.6-0.7,0.8c-0.3,0.2-0.6,0.3-1,0.4s-0.8,0.1-1.1,0.1c-0.6,0-1.2-0.1-1.7-0.3c-0.5-0.2-0.9-0.6-1.3-1.1l1.1-0.9
			c0.2,0.2,0.5,0.5,0.8,0.6c0.3,0.2,0.7,0.3,1.1,0.3c0.2,0,0.4,0,0.6-0.1c0.2,0,0.4-0.1,0.5-0.2s0.3-0.2,0.4-0.3
			c0.1-0.1,0.1-0.3,0.1-0.4c0-0.2-0.1-0.4-0.2-0.5c-0.1-0.1-0.3-0.3-0.5-0.3s-0.4-0.1-0.6-0.2c-0.2,0-0.4-0.1-0.6-0.1
			c-0.3-0.1-0.6-0.2-0.9-0.3c-0.3-0.1-0.5-0.2-0.8-0.4c-0.2-0.2-0.4-0.4-0.5-0.6s-0.2-0.6-0.2-0.9c0-0.4,0.1-0.8,0.3-1.1
			c0.2-0.3,0.4-0.5,0.7-0.7s0.6-0.3,0.9-0.4c0.4-0.1,0.7-0.1,1.1-0.1c0.5,0,1,0.1,1.5,0.3c0.5,0.2,0.9,0.5,1.1,1L-273.4,288.2z"/>
		<path class="st4" d="M-270.7,290.1c0-0.6,0.1-1.1,0.3-1.6s0.5-0.9,0.9-1.3s0.8-0.7,1.3-0.9s1-0.3,1.6-0.3s1.1,0.1,1.6,0.3
			c0.5,0.2,0.9,0.5,1.3,0.9s0.7,0.8,0.9,1.3s0.3,1,0.3,1.6s-0.1,1.1-0.3,1.6s-0.5,0.9-0.9,1.3s-0.8,0.7-1.3,0.9
			c-0.5,0.2-1,0.3-1.6,0.3s-1.1-0.1-1.6-0.3s-0.9-0.5-1.3-0.9c-0.4-0.4-0.7-0.8-0.9-1.3S-270.7,290.7-270.7,290.1z M-269.1,290.1
			c0,0.4,0.1,0.8,0.2,1.1c0.1,0.3,0.3,0.6,0.5,0.9s0.5,0.4,0.8,0.6s0.7,0.2,1.1,0.2c0.4,0,0.7-0.1,1.1-0.2c0.3-0.1,0.6-0.3,0.8-0.6
			s0.4-0.5,0.5-0.9c0.1-0.3,0.2-0.7,0.2-1.1s-0.1-0.8-0.2-1.1c-0.1-0.3-0.3-0.6-0.5-0.9c-0.2-0.2-0.5-0.4-0.8-0.6
			c-0.3-0.1-0.7-0.2-1.1-0.2c-0.4,0-0.7,0.1-1.1,0.2s-0.6,0.3-0.8,0.6c-0.2,0.2-0.4,0.5-0.5,0.9S-269.1,289.7-269.1,290.1z"/>
		<path class="st4" d="M-260.6,286.2h1.5v1.2l0,0c0.1-0.2,0.2-0.4,0.4-0.6s0.3-0.3,0.5-0.4s0.4-0.2,0.7-0.3c0.2-0.1,0.5-0.1,0.7-0.1
			s0.5,0,0.7,0.1l-0.1,1.6c-0.1,0-0.2-0.1-0.4-0.1c-0.1,0-0.2,0-0.4,0c-0.7,0-1.3,0.2-1.7,0.6s-0.6,1-0.6,1.9v3.9h-1.5v-7.8H-260.6z
			"/>
		<path class="st4" d="M-247,294h-1.5v-1.1l0,0c-0.3,0.4-0.7,0.7-1.2,1c-0.5,0.2-1,0.3-1.5,0.3c-0.6,0-1.1-0.1-1.6-0.3
			c-0.5-0.2-0.9-0.5-1.2-0.9s-0.6-0.8-0.8-1.3s-0.3-1-0.3-1.6s0.1-1.1,0.3-1.6s0.5-0.9,0.8-1.3s0.8-0.7,1.2-0.9
			c0.5-0.2,1-0.3,1.6-0.3s1.1,0.1,1.6,0.4c0.5,0.2,0.9,0.6,1.1,1l0,0v-5.7h1.5L-247,294L-247,294z M-251.1,292.8
			c0.4,0,0.7-0.1,1.1-0.2c0.3-0.1,0.6-0.3,0.8-0.6s0.4-0.5,0.5-0.9c0.1-0.3,0.2-0.7,0.2-1.1s-0.1-0.8-0.2-1.1
			c-0.1-0.3-0.3-0.6-0.5-0.9c-0.2-0.2-0.5-0.4-0.8-0.6c-0.3-0.1-0.7-0.2-1.1-0.2c-0.4,0-0.7,0.1-1.1,0.2s-0.6,0.3-0.8,0.6
			c-0.2,0.2-0.4,0.5-0.5,0.9s-0.2,0.7-0.2,1.1s0.1,0.8,0.2,1.1c0.1,0.3,0.3,0.6,0.5,0.9s0.5,0.4,0.8,0.6S-251.5,292.8-251.1,292.8z"
			/>
		<path class="st4" d="M-243.7,290.7c0,0.3,0.1,0.6,0.2,0.9c0.1,0.3,0.3,0.5,0.6,0.7c0.2,0.2,0.5,0.3,0.8,0.5c0.3,0.1,0.6,0.2,1,0.2
			c0.5,0,0.9-0.1,1.2-0.3c0.3-0.2,0.6-0.5,0.9-0.8l1.1,0.9c-0.8,1.1-2,1.6-3.4,1.6c-0.6,0-1.2-0.1-1.7-0.3c-0.5-0.2-0.9-0.5-1.3-0.9
			c-0.3-0.4-0.6-0.8-0.8-1.3s-0.3-1-0.3-1.6s0.1-1.1,0.3-1.6s0.5-0.9,0.8-1.3c0.4-0.4,0.8-0.7,1.3-0.9c0.5-0.2,1-0.3,1.6-0.3
			c0.7,0,1.3,0.1,1.7,0.4s0.9,0.6,1.2,0.9c0.3,0.4,0.5,0.8,0.7,1.3c0.1,0.5,0.2,1,0.2,1.5v0.5L-243.7,290.7L-243.7,290.7z
			 M-239,289.5c0-0.3-0.1-0.6-0.2-0.9c-0.1-0.3-0.2-0.5-0.4-0.7s-0.4-0.4-0.7-0.5s-0.6-0.2-1-0.2s-0.7,0.1-1,0.2s-0.6,0.3-0.8,0.5
			s-0.4,0.5-0.5,0.7s-0.2,0.5-0.2,0.8L-239,289.5L-239,289.5z"/>
		<path class="st4" d="M-235.7,286.2h1.5v1.2l0,0c0.1-0.2,0.2-0.4,0.4-0.6s0.3-0.3,0.5-0.4s0.4-0.2,0.7-0.3c0.2-0.1,0.5-0.1,0.7-0.1
			s0.5,0,0.7,0.1l-0.1,1.6c-0.1,0-0.2-0.1-0.4-0.1c-0.1,0-0.2,0-0.4,0c-0.7,0-1.3,0.2-1.7,0.6s-0.6,1-0.6,1.9v3.9h-1.5v-7.8H-235.7z
			"/>
	</g>
	<g>
		<path class="st4" d="M-21.3,268.4h2.3l3.7,8.8h0.1l3.6-8.8h2.3V280h-1.6v-9.5l0,0l-3.9,9.5h-1l-3.9-9.5l0,0v9.5h-1.6L-21.3,268.4
			L-21.3,268.4z"/>
		<path class="st4" d="M-5.6,276.7c0,0.3,0.1,0.6,0.2,0.9c0.1,0.3,0.3,0.5,0.6,0.7c0.2,0.2,0.5,0.3,0.8,0.5c0.3,0.1,0.6,0.2,1,0.2
			c0.5,0,0.9-0.1,1.2-0.3c0.3-0.2,0.6-0.5,0.9-0.8l1.1,0.9c-0.8,1.1-2,1.6-3.4,1.6c-0.6,0-1.2-0.1-1.7-0.3c-0.5-0.2-0.9-0.5-1.3-0.9
			c-0.3-0.4-0.6-0.8-0.8-1.3s-0.3-1-0.3-1.6s0.1-1.1,0.3-1.6s0.5-0.9,0.8-1.3c0.4-0.4,0.8-0.7,1.3-0.9c0.5-0.2,1-0.3,1.6-0.3
			c0.7,0,1.3,0.1,1.7,0.4s0.9,0.6,1.2,0.9c0.3,0.4,0.5,0.8,0.7,1.3c0.1,0.5,0.2,1,0.2,1.5v0.5L-5.6,276.7L-5.6,276.7z M-1,275.5
			c0-0.3-0.1-0.6-0.2-0.9c-0.1-0.3-0.2-0.5-0.4-0.7s-0.4-0.4-0.7-0.5s-0.6-0.2-1-0.2s-0.7,0.1-1,0.2s-0.6,0.3-0.8,0.5
			s-0.4,0.5-0.5,0.7s-0.2,0.5-0.2,0.8L-1,275.5L-1,275.5z"/>
		<path class="st4" d="M2.4,272.2h1.5v1.2l0,0c0.2-0.4,0.5-0.8,1-1c0.5-0.3,1-0.4,1.6-0.4c0.4,0,0.7,0.1,1.1,0.2
			c0.3,0.1,0.6,0.3,0.9,0.5s0.5,0.5,0.6,0.9c0.2,0.4,0.2,0.8,0.2,1.3v5H7.8v-4.6c0-0.4,0-0.7-0.1-0.9c-0.1-0.3-0.2-0.5-0.4-0.6
			c-0.2-0.2-0.4-0.3-0.6-0.3c-0.2-0.1-0.4-0.1-0.7-0.1s-0.6,0-0.9,0.1s-0.5,0.3-0.7,0.5s-0.3,0.5-0.5,0.8c-0.1,0.3-0.2,0.7-0.2,1.2
			v4H2.2v-7.8H2.4z"/>
		<path class="st4" d="M15.6,273.5h-2.1v3.5c0,0.2,0,0.4,0,0.6s0.1,0.4,0.1,0.6c0.1,0.2,0.2,0.3,0.3,0.4s0.4,0.2,0.6,0.2
			c0.2,0,0.4,0,0.5,0c0.2,0,0.4-0.1,0.5-0.2v1.3c-0.2,0.1-0.4,0.2-0.7,0.2s-0.5,0.1-0.6,0.1c-0.6,0-1-0.1-1.3-0.2s-0.5-0.4-0.7-0.6
			s-0.2-0.5-0.3-0.8c0-0.3,0-0.6,0-0.9v-4h-1.7v-1.3h1.7v-2.2h1.5v2.2h2.1v1.1H15.6z"/>
		<path class="st4" d="M17.6,273.2c0.4-0.4,0.9-0.7,1.4-0.9c0.5-0.2,1.1-0.3,1.6-0.3c0.6,0,1.1,0.1,1.5,0.2s0.7,0.3,1,0.6
			c0.3,0.2,0.5,0.5,0.6,0.8s0.2,0.6,0.2,1v4c0,0.3,0,0.5,0,0.8c0,0.2,0,0.4,0,0.7h-1.3c0-0.4,0-0.8,0-1.2l0,0
			c-0.3,0.5-0.7,0.9-1.2,1.1c-0.4,0.2-1,0.3-1.6,0.3c-0.4,0-0.7,0-1-0.1s-0.6-0.2-0.9-0.4s-0.4-0.4-0.6-0.7s-0.2-0.6-0.2-1
			c0-0.5,0.1-0.9,0.3-1.3c0.2-0.3,0.5-0.6,0.9-0.8c0.4-0.2,0.8-0.4,1.4-0.5c0.5-0.1,1.1-0.1,1.7-0.1h1.1v-0.3c0-0.2,0-0.4-0.1-0.6
			s-0.2-0.4-0.3-0.5s-0.3-0.3-0.6-0.4c-0.2-0.1-0.5-0.1-0.8-0.1s-0.5,0-0.7,0.1s-0.4,0.1-0.6,0.2c-0.2,0.1-0.3,0.2-0.5,0.3
			c-0.1,0.1-0.3,0.2-0.4,0.3L17.6,273.2z M21.7,276.3c-0.3,0-0.7,0-1.1,0.1s-0.7,0.1-1,0.2s-0.5,0.3-0.7,0.5s-0.3,0.4-0.3,0.8
			s0.1,0.8,0.5,1s0.7,0.3,1.2,0.3c0.4,0,0.7-0.1,1-0.2s0.5-0.3,0.7-0.5s0.3-0.5,0.4-0.7c0.1-0.3,0.1-0.5,0.1-0.8v-0.5h-0.8V276.3z"
			/>
		<path class="st4" d="M26.2,267.6h1.5V280h-1.5V267.6z"/>
		<path class="st4" d="M-19.8,282.4h1.6v4.8h6v-4.8h1.6V294h-1.6v-5.3h-6v5.3h-1.6V282.4z"/>
		<path class="st4" d="M-6.9,290.7c0,0.3,0.1,0.6,0.2,0.9c0.1,0.3,0.3,0.5,0.6,0.7c0.2,0.2,0.5,0.3,0.8,0.5c0.3,0.1,0.6,0.2,1,0.2
			c0.5,0,0.9-0.1,1.2-0.3c0.3-0.2,0.6-0.5,0.9-0.8l1.1,0.9c-0.8,1.1-2,1.6-3.4,1.6c-0.6,0-1.2-0.1-1.7-0.3c-0.5-0.2-0.9-0.5-1.3-0.9
			c-0.3-0.4-0.6-0.8-0.8-1.3s-0.3-1-0.3-1.6s0.1-1.1,0.3-1.6s0.5-0.9,0.8-1.3c0.4-0.4,0.8-0.7,1.3-0.9c0.5-0.2,1-0.3,1.6-0.3
			c0.7,0,1.3,0.1,1.7,0.4s0.9,0.6,1.2,0.9c0.3,0.4,0.5,0.8,0.7,1.3c0.1,0.5,0.2,1,0.2,1.5v0.5L-6.9,290.7L-6.9,290.7z M-2.3,289.5
			c0-0.3-0.1-0.6-0.2-0.9c-0.1-0.3-0.2-0.5-0.4-0.7s-0.4-0.4-0.7-0.5s-0.6-0.2-1-0.2s-0.7,0.1-1,0.2s-0.6,0.3-0.8,0.5
			s-0.4,0.5-0.5,0.7s-0.2,0.5-0.2,0.8L-2.3,289.5L-2.3,289.5z"/>
		<path class="st4" d="M1.1,287.2c0.4-0.4,0.9-0.7,1.4-0.9c0.5-0.2,1.1-0.3,1.6-0.3c0.6,0,1.1,0.1,1.5,0.2s0.7,0.3,1,0.6
			c0.3,0.2,0.5,0.5,0.6,0.8s0.2,0.6,0.2,1v4c0,0.3,0,0.5,0,0.8c0,0.2,0,0.4,0,0.7H6.1c0-0.4,0-0.8,0-1.2l0,0
			c-0.3,0.5-0.7,0.9-1.2,1.1c-0.4,0.2-1,0.3-1.6,0.3c-0.4,0-0.7,0-1-0.1s-0.6-0.2-0.9-0.4s-0.4-0.4-0.6-0.7s-0.2-0.6-0.2-1
			c0-0.5,0.1-0.9,0.3-1.3c0.2-0.3,0.5-0.6,0.9-0.8c0.4-0.2,0.8-0.4,1.4-0.5c0.5-0.1,1.1-0.1,1.7-0.1H6v-0.3c0-0.2,0-0.4-0.1-0.6
			s-0.2-0.4-0.3-0.5s-0.3-0.3-0.6-0.4c-0.2-0.1-0.5-0.1-0.8-0.1s-0.5,0-0.7,0.1s-0.4,0.1-0.6,0.2c-0.2,0.1-0.3,0.2-0.5,0.3
			c-0.1,0.1-0.3,0.2-0.4,0.3L1.1,287.2z M5.2,290.3c-0.3,0-0.7,0-1.1,0.1s-0.7,0.1-1,0.2s-0.5,0.3-0.7,0.5s-0.3,0.4-0.3,0.8
			s0.1,0.8,0.5,1s0.7,0.3,1.2,0.3c0.4,0,0.7-0.1,1-0.2s0.5-0.3,0.7-0.5s0.3-0.5,0.4-0.7C6,291.5,6,291.3,6,291v-0.5H5.2V290.3z"/>
		<path class="st4" d="M9.6,281.6h1.5V294H9.6V281.6z"/>
		<path class="st4" d="M17.6,287.5h-2.1v3.5c0,0.2,0,0.4,0,0.6s0.1,0.4,0.1,0.6c0.1,0.2,0.2,0.3,0.3,0.4s0.4,0.2,0.6,0.2
			c0.2,0,0.4,0,0.5,0c0.2,0,0.4-0.1,0.5-0.2v1.3c-0.2,0.1-0.4,0.2-0.7,0.2s-0.5,0.1-0.6,0.1c-0.6,0-1-0.1-1.3-0.2s-0.5-0.4-0.7-0.6
			s-0.2-0.5-0.3-0.8c0-0.3,0-0.6,0-0.9v-4h-1.7v-1.3h1.7v-2.2h1.5v2.2h2.1v1.1H17.6z"/>
		<path class="st4" d="M19.5,281.6H21v5.8l0,0c0.2-0.4,0.5-0.8,1-1c0.5-0.3,1-0.4,1.6-0.4c0.4,0,0.7,0.1,1.1,0.2
			c0.3,0.1,0.6,0.3,0.9,0.5s0.5,0.5,0.6,0.9c0.2,0.4,0.2,0.8,0.2,1.3v5h-1.5v-4.6c0-0.4,0-0.7-0.1-0.9c-0.1-0.3-0.2-0.5-0.4-0.6
			c-0.2-0.2-0.4-0.3-0.6-0.3c-0.2-0.1-0.4-0.1-0.7-0.1s-0.6,0-0.9,0.1s-0.5,0.3-0.7,0.5s-0.3,0.5-0.5,0.8c-0.1,0.3-0.2,0.7-0.2,1.2
			v4h-1.5v-12.4H19.5z"/>
	</g>
	<g>
		<path class="st4" d="M-20.9,397.1h1.6v5h0.1l5.1-5h2.2l-5.6,5.4l6,6.2h-2.3l-5.4-5.8h-0.1v5.8h-1.6V397.1z"/>
		<path class="st4" d="M-10.9,398.2c0-0.3,0.1-0.5,0.3-0.8s0.5-0.3,0.8-0.3s0.5,0.1,0.8,0.3c0.2,0.2,0.3,0.5,0.3,0.8
			s-0.1,0.5-0.3,0.8c-0.2,0.2-0.5,0.3-0.8,0.3s-0.5-0.1-0.8-0.3C-10.8,398.7-10.9,398.5-10.9,398.2z M-10.5,400.9H-9v7.8h-1.5V400.9
			z"/>
		<path class="st4" d="M1.1,408.7h-1.5v-1.1l0,0c-0.3,0.4-0.7,0.7-1.2,1c-0.5,0.2-1,0.3-1.5,0.3c-0.6,0-1.1-0.1-1.6-0.3
			c-0.5-0.2-0.9-0.5-1.2-0.9s-0.6-0.8-0.8-1.3s-0.3-1-0.3-1.6s0.1-1.1,0.3-1.6s0.5-0.9,0.8-1.3s0.8-0.7,1.2-0.9
			c0.5-0.2,1-0.3,1.6-0.3s1.1,0.1,1.6,0.4c0.5,0.2,0.9,0.6,1.1,1l0,0v-5.7h1.5L1.1,408.7L1.1,408.7z M-3,407.5
			c0.4,0,0.7-0.1,1.1-0.2c0.3-0.1,0.6-0.3,0.8-0.6s0.4-0.5,0.5-0.9c0.1-0.3,0.2-0.7,0.2-1.1s-0.1-0.8-0.2-1.1
			c-0.1-0.3-0.3-0.6-0.5-0.9c-0.2-0.2-0.5-0.4-0.8-0.6c-0.3-0.1-0.7-0.2-1.1-0.2c-0.4,0-0.7,0.1-1.1,0.2s-0.6,0.3-0.8,0.6
			c-0.2,0.2-0.4,0.5-0.5,0.9s-0.2,0.7-0.2,1.1s0.1,0.8,0.2,1.1c0.1,0.3,0.3,0.6,0.5,0.9s0.5,0.4,0.8,0.6S-3.4,407.5-3,407.5z"/>
		<path class="st4" d="M3.3,400.9h1.5v1.2l0,0c0.2-0.4,0.5-0.8,1-1c0.5-0.3,1-0.4,1.6-0.4c0.4,0,0.7,0.1,1.1,0.2
			c0.3,0.1,0.6,0.3,0.9,0.5s0.5,0.5,0.6,0.9c0.2,0.4,0.2,0.8,0.2,1.3v5H8.7V404c0-0.4,0-0.7-0.1-0.9c-0.1-0.3-0.2-0.5-0.4-0.6
			c-0.2-0.2-0.4-0.3-0.6-0.3c-0.2-0.1-0.4-0.1-0.7-0.1s-0.6,0-0.9,0.1s-0.5,0.3-0.7,0.5s-0.3,0.5-0.5,0.8c-0.1,0.3-0.2,0.7-0.2,1.2
			v4H3.1v-7.8H3.3z"/>
		<path class="st4" d="M13.5,405.4c0,0.3,0.1,0.6,0.2,0.9c0.1,0.3,0.3,0.5,0.6,0.7c0.2,0.2,0.5,0.3,0.8,0.5c0.3,0.1,0.6,0.2,1,0.2
			c0.5,0,0.9-0.1,1.2-0.3c0.3-0.2,0.6-0.5,0.9-0.8l1.1,0.9c-0.8,1.1-2,1.6-3.4,1.6c-0.6,0-1.2-0.1-1.7-0.3c-0.5-0.2-0.9-0.5-1.3-0.9
			c-0.3-0.4-0.6-0.8-0.8-1.3s-0.3-1-0.3-1.6s0.1-1.1,0.3-1.6s0.5-0.9,0.8-1.3c0.4-0.4,0.8-0.7,1.3-0.9c0.5-0.2,1-0.3,1.6-0.3
			c0.7,0,1.3,0.1,1.7,0.4s0.9,0.6,1.2,0.9c0.3,0.4,0.5,0.8,0.7,1.3c0.1,0.5,0.2,1,0.2,1.5v0.5L13.5,405.4L13.5,405.4z M18.2,404.2
			c0-0.3-0.1-0.6-0.2-0.9c-0.1-0.3-0.2-0.5-0.4-0.7s-0.4-0.4-0.7-0.5s-0.6-0.2-1-0.2s-0.7,0.1-1,0.2s-0.6,0.3-0.8,0.5
			s-0.4,0.5-0.5,0.7s-0.2,0.5-0.2,0.8L18.2,404.2L18.2,404.2z"/>
		<path class="st4" d="M20.6,400.9h1.7l2.3,6.1l0,0l2.2-6.1h1.6l-3.7,9.4c-0.1,0.3-0.3,0.6-0.4,0.9s-0.3,0.5-0.5,0.7
			s-0.4,0.3-0.7,0.5s-0.6,0.2-1,0.2c-0.2,0-0.4,0-0.7,0c-0.2,0-0.4-0.1-0.6-0.2l0.2-1.3c0.3,0.1,0.6,0.2,0.9,0.2
			c0.2,0,0.4,0,0.6-0.1c0.2-0.1,0.3-0.1,0.4-0.3c0.1-0.1,0.2-0.2,0.3-0.4c0.1-0.2,0.2-0.3,0.2-0.5l0.5-1.2L20.6,400.9z"/>
		<path class="st4" d="M-24.3,411.1h4c0.8,0,1.5,0.1,2.2,0.3c0.6,0.2,1.2,0.4,1.6,0.7c0.5,0.3,0.8,0.7,1.1,1.1s0.5,0.8,0.7,1.2
			c0.2,0.4,0.3,0.9,0.4,1.3s0.1,0.8,0.1,1.2c0,0.7-0.1,1.5-0.4,2.2c-0.3,0.7-0.7,1.3-1.2,1.8s-1.2,1-2,1.3s-1.7,0.5-2.7,0.5h-3.8
			L-24.3,411.1L-24.3,411.1z M-22.7,421.2h2c0.7,0,1.3-0.1,1.9-0.3s1.1-0.5,1.6-0.8c0.4-0.4,0.8-0.8,1.1-1.3s0.4-1.2,0.4-1.9
			c0-0.4-0.1-0.8-0.2-1.3c-0.1-0.5-0.3-1-0.7-1.4c-0.3-0.4-0.8-0.8-1.4-1.1c-0.6-0.3-1.4-0.5-2.3-0.5h-2.4L-22.7,421.2L-22.7,421.2z
			"/>
		<path class="st4" d="M-12.5,412.2c0-0.3,0.1-0.5,0.3-0.8s0.5-0.3,0.8-0.3s0.5,0.1,0.8,0.3c0.2,0.2,0.3,0.5,0.3,0.8
			s-0.1,0.5-0.3,0.8c-0.2,0.2-0.5,0.3-0.8,0.3s-0.5-0.1-0.8-0.3C-12.4,412.7-12.5,412.5-12.5,412.2z M-12.2,414.9h1.5v7.8h-1.5
			V414.9z"/>
		<path class="st4" d="M-4.2,416.9c-0.2-0.2-0.4-0.4-0.6-0.5c-0.3-0.1-0.6-0.2-0.9-0.2c-0.3,0-0.7,0.1-0.9,0.2
			c-0.3,0.1-0.4,0.4-0.4,0.6s0.1,0.4,0.2,0.6c0.1,0.1,0.3,0.3,0.5,0.3c0.2,0.1,0.4,0.2,0.6,0.2c0.2,0,0.4,0.1,0.6,0.1
			c0.3,0.1,0.6,0.2,0.9,0.3s0.5,0.3,0.7,0.4c0.2,0.2,0.4,0.4,0.5,0.6c0.1,0.3,0.2,0.6,0.2,0.9c0,0.4-0.1,0.8-0.3,1.1
			c-0.2,0.3-0.4,0.6-0.7,0.8c-0.3,0.2-0.6,0.3-1,0.4s-0.8,0.1-1.1,0.1c-0.6,0-1.2-0.1-1.7-0.3c-0.5-0.2-0.9-0.6-1.3-1.1l1.1-0.9
			c0.2,0.2,0.5,0.5,0.8,0.6c0.3,0.2,0.7,0.3,1.1,0.3c0.2,0,0.4,0,0.6-0.1c0.2,0,0.4-0.1,0.5-0.2s0.3-0.2,0.4-0.3
			c0.1-0.1,0.1-0.3,0.1-0.4c0-0.2-0.1-0.4-0.2-0.5c-0.1-0.1-0.3-0.3-0.5-0.3s-0.4-0.1-0.6-0.2c-0.2,0-0.4-0.1-0.6-0.1
			c-0.3-0.1-0.6-0.2-0.9-0.3c-0.3-0.1-0.5-0.2-0.8-0.4c-0.2-0.2-0.4-0.4-0.5-0.6s-0.2-0.6-0.2-0.9c0-0.4,0.1-0.8,0.3-1.1
			c0.2-0.3,0.4-0.5,0.7-0.7s0.6-0.3,0.9-0.4c0.4-0.1,0.7-0.1,1.1-0.1c0.5,0,1,0.1,1.5,0.3c0.5,0.2,0.9,0.5,1.1,1L-4.2,416.9z"/>
		<path class="st4" d="M0,419.4c0,0.3,0.1,0.6,0.2,0.9c0.1,0.3,0.3,0.5,0.6,0.7c0.2,0.2,0.5,0.3,0.8,0.5c0.3,0.1,0.6,0.2,1,0.2
			c0.5,0,0.9-0.1,1.2-0.3c0.3-0.2,0.6-0.5,0.9-0.8l1.1,0.9c-0.8,1.1-2,1.6-3.4,1.6c-0.6,0-1.2-0.1-1.7-0.3c-0.5-0.2-0.9-0.5-1.3-0.9
			c-0.3-0.4-0.6-0.8-0.8-1.3s-0.3-1-0.3-1.6s0.1-1.1,0.3-1.6s0.5-0.9,0.8-1.3c0.4-0.4,0.8-0.7,1.3-0.9c0.5-0.2,1-0.3,1.6-0.3
			c0.7,0,1.3,0.1,1.7,0.4s0.9,0.6,1.2,0.9c0.3,0.4,0.5,0.8,0.7,1.3c0.1,0.5,0.2,1,0.2,1.5v0.5L0,419.4L0,419.4z M4.7,418.2
			c0-0.3-0.1-0.6-0.2-0.9c-0.1-0.3-0.2-0.5-0.4-0.7s-0.4-0.4-0.7-0.5s-0.6-0.2-1-0.2s-0.7,0.1-1,0.2s-0.6,0.3-0.8,0.5
			s-0.4,0.5-0.5,0.7s-0.2,0.5-0.2,0.8L4.7,418.2L4.7,418.2z"/>
		<path class="st4" d="M8,415.9c0.4-0.4,0.9-0.7,1.4-0.9c0.5-0.2,1.1-0.3,1.6-0.3c0.6,0,1.1,0.1,1.5,0.2s0.7,0.3,1,0.6
			c0.3,0.2,0.5,0.5,0.6,0.8s0.2,0.6,0.2,1v4c0,0.3,0,0.5,0,0.8c0,0.2,0,0.4,0,0.7H13c0-0.4,0-0.8,0-1.2l0,0
			c-0.3,0.5-0.7,0.9-1.2,1.1c-0.4,0.2-1,0.3-1.6,0.3c-0.4,0-0.7,0-1-0.1s-0.6-0.2-0.9-0.4s-0.4-0.4-0.6-0.7s-0.2-0.6-0.2-1
			c0-0.5,0.1-0.9,0.3-1.3c0.2-0.3,0.5-0.6,0.9-0.8c0.4-0.2,0.8-0.4,1.4-0.5c0.5-0.1,1.1-0.1,1.7-0.1h1.1v-0.3c0-0.2,0-0.4-0.1-0.6
			s-0.2-0.4-0.3-0.5s-0.3-0.3-0.6-0.4c-0.2-0.1-0.5-0.1-0.8-0.1s-0.5,0-0.7,0.1s-0.4,0.1-0.6,0.2c-0.2,0.1-0.3,0.2-0.5,0.3
			c-0.1,0.1-0.3,0.2-0.4,0.3L8,415.9z M12.2,419c-0.3,0-0.7,0-1.1,0.1s-0.7,0.1-1,0.2s-0.5,0.3-0.7,0.5s-0.3,0.4-0.3,0.8
			s0.1,0.8,0.5,1s0.7,0.3,1.2,0.3c0.4,0,0.7-0.1,1-0.2s0.5-0.3,0.7-0.5s0.3-0.5,0.4-0.7c0.1-0.3,0.1-0.5,0.1-0.8v-0.5h-0.8V419z"/>
		<path class="st4" d="M20.6,416.9c-0.2-0.2-0.4-0.4-0.6-0.5c-0.3-0.1-0.6-0.2-0.9-0.2c-0.3,0-0.7,0.1-0.9,0.2
			c-0.3,0.1-0.4,0.4-0.4,0.6s0.1,0.4,0.2,0.6c0.1,0.1,0.3,0.3,0.5,0.3c0.2,0.1,0.4,0.2,0.6,0.2c0.2,0,0.4,0.1,0.6,0.1
			c0.3,0.1,0.6,0.2,0.9,0.3s0.5,0.3,0.7,0.4c0.2,0.2,0.4,0.4,0.5,0.6c0.1,0.3,0.2,0.6,0.2,0.9c0,0.4-0.1,0.8-0.3,1.1
			c-0.2,0.3-0.4,0.6-0.7,0.8c-0.3,0.2-0.6,0.3-1,0.4s-0.8,0.1-1.1,0.1c-0.6,0-1.2-0.1-1.7-0.3c-0.5-0.2-0.9-0.6-1.3-1.1l1.1-0.9
			c0.2,0.2,0.5,0.5,0.8,0.6c0.3,0.2,0.7,0.3,1.1,0.3c0.2,0,0.4,0,0.6-0.1c0.2,0,0.4-0.1,0.5-0.2s0.3-0.2,0.4-0.3
			c0.1-0.1,0.1-0.3,0.1-0.4c0-0.2-0.1-0.4-0.2-0.5c-0.1-0.1-0.3-0.3-0.5-0.3s-0.4-0.1-0.6-0.2c-0.2,0-0.4-0.1-0.6-0.1
			c-0.3-0.1-0.6-0.2-0.9-0.3c-0.3-0.1-0.5-0.2-0.8-0.4c-0.2-0.2-0.4-0.4-0.5-0.6s-0.2-0.6-0.2-0.9c0-0.4,0.1-0.8,0.3-1.1
			c0.2-0.3,0.4-0.5,0.7-0.7s0.6-0.3,0.9-0.4c0.4-0.1,0.7-0.1,1.1-0.1c0.5,0,1,0.1,1.5,0.3c0.5,0.2,0.9,0.5,1.1,1L20.6,416.9z"/>
		<path class="st4" d="M24.9,419.4c0,0.3,0.1,0.6,0.2,0.9c0.1,0.3,0.3,0.5,0.6,0.7c0.2,0.2,0.5,0.3,0.8,0.5c0.3,0.1,0.6,0.2,1,0.2
			c0.5,0,0.9-0.1,1.2-0.3c0.3-0.2,0.6-0.5,0.9-0.8l1.1,0.9c-0.8,1.1-2,1.6-3.4,1.6c-0.6,0-1.2-0.1-1.7-0.3c-0.5-0.2-0.9-0.5-1.3-0.9
			c-0.3-0.4-0.6-0.8-0.8-1.3s-0.3-1-0.3-1.6s0.1-1.1,0.3-1.6s0.5-0.9,0.8-1.3c0.4-0.4,0.8-0.7,1.3-0.9c0.5-0.2,1-0.3,1.6-0.3
			c0.7,0,1.3,0.1,1.7,0.4s0.9,0.6,1.2,0.9c0.3,0.4,0.5,0.8,0.7,1.3c0.1,0.5,0.2,1,0.2,1.5v0.5L24.9,419.4L24.9,419.4z M29.5,418.2
			c0-0.3-0.1-0.6-0.2-0.9c-0.1-0.3-0.2-0.5-0.4-0.7s-0.4-0.4-0.7-0.5s-0.6-0.2-1-0.2s-0.7,0.1-1,0.2s-0.6,0.3-0.8,0.5
			s-0.4,0.5-0.5,0.7s-0.2,0.5-0.2,0.8L29.5,418.2L29.5,418.2z"/>
	</g>
	<g>
		<path class="st4" d="M-183.7,273.1h4.1c0.7,0,1.4,0.1,1.8,0.3c0.5,0.2,0.9,0.5,1.1,0.8c0.3,0.3,0.5,0.7,0.6,1
			c0.1,0.4,0.2,0.8,0.2,1.1s-0.1,0.7-0.2,1.1c-0.1,0.4-0.3,0.7-0.6,1s-0.7,0.6-1.1,0.8c-0.5,0.2-1.1,0.3-1.8,0.3h-2.5v5.1h-1.6
			V273.1z M-182.2,278.2h2.1c0.3,0,0.6,0,0.9-0.1c0.3,0,0.6-0.1,0.8-0.3s0.4-0.3,0.6-0.6c0.1-0.2,0.2-0.6,0.2-1s-0.1-0.7-0.2-1
			c-0.1-0.2-0.3-0.4-0.6-0.6s-0.5-0.2-0.8-0.3c-0.3,0-0.6-0.1-0.9-0.1h-2.1V278.2z"/>
		<path class="st4" d="M-175.6,273.1h1.8l3.4,9.4l0,0l3.5-9.4h1.7l-4.6,11.6h-1.5L-175.6,273.1z"/>
		<path class="st4" d="M-164,273.1h4c0.8,0,1.5,0.1,2.2,0.3c0.6,0.2,1.2,0.4,1.6,0.7c0.5,0.3,0.8,0.7,1.1,1.1s0.5,0.8,0.7,1.2
			c0.2,0.4,0.3,0.9,0.4,1.3s0.1,0.8,0.1,1.2c0,0.7-0.1,1.5-0.4,2.2c-0.3,0.7-0.7,1.3-1.2,1.8s-1.2,1-2,1.3s-1.7,0.5-2.7,0.5h-3.8
			L-164,273.1L-164,273.1z M-162.4,283.2h2c0.7,0,1.3-0.1,1.9-0.3s1.1-0.5,1.6-0.8c0.4-0.4,0.8-0.8,1.1-1.3s0.4-1.2,0.4-1.9
			c0-0.4-0.1-0.8-0.2-1.3c-0.1-0.5-0.3-1-0.7-1.4c-0.3-0.4-0.8-0.8-1.4-1.1c-0.6-0.3-1.4-0.5-2.3-0.5h-2.4L-162.4,283.2
			L-162.4,283.2z"/>
	</g>
	<g>
		<path class="st4" d="M-98.4,275.6c-0.3-0.4-0.7-0.8-1.2-1s-1-0.3-1.6-0.3c-0.7,0-1.2,0.1-1.8,0.4c-0.5,0.2-1,0.6-1.4,1
			s-0.7,0.9-0.9,1.5s-0.3,1.2-0.3,1.8c0,0.6,0.1,1.2,0.3,1.7s0.5,1,0.9,1.4s0.8,0.7,1.4,1c0.5,0.2,1.1,0.4,1.8,0.4s1.2-0.1,1.8-0.4
			c0.5-0.3,0.9-0.7,1.3-1.1l1.3,1c-0.1,0.1-0.2,0.3-0.5,0.5c-0.2,0.2-0.5,0.4-0.9,0.7c-0.4,0.2-0.8,0.4-1.3,0.6s-1.1,0.3-1.8,0.3
			c-0.9,0-1.7-0.2-2.5-0.5c-0.7-0.3-1.4-0.8-1.9-1.4s-0.9-1.2-1.2-1.9c-0.3-0.7-0.4-1.4-0.4-2.2c0-0.9,0.1-1.7,0.4-2.5
			c0.3-0.8,0.7-1.4,1.2-2s1.2-1,1.9-1.3s1.6-0.5,2.5-0.5c0.8,0,1.5,0.1,2.3,0.4c0.7,0.3,1.3,0.7,1.8,1.4L-98.4,275.6z"/>
		<path class="st4" d="M-95.3,277.9c0.4-0.4,0.9-0.7,1.4-0.9c0.5-0.2,1.1-0.3,1.6-0.3c0.6,0,1.1,0.1,1.5,0.2s0.7,0.3,1,0.6
			c0.3,0.2,0.5,0.5,0.6,0.8s0.2,0.6,0.2,1v4c0,0.3,0,0.5,0,0.8c0,0.2,0,0.4,0,0.7h-1.3c0-0.4,0-0.8,0-1.2l0,0
			c-0.3,0.5-0.7,0.9-1.2,1.1c-0.4,0.2-1,0.3-1.6,0.3c-0.4,0-0.7,0-1-0.1s-0.6-0.2-0.9-0.4s-0.4-0.4-0.6-0.7s-0.2-0.6-0.2-1
			c0-0.5,0.1-0.9,0.3-1.3c0.2-0.3,0.5-0.6,0.9-0.8c0.4-0.2,0.8-0.4,1.4-0.5c0.5-0.1,1.1-0.1,1.7-0.1h1.1v-0.3c0-0.2,0-0.4-0.1-0.6
			s-0.2-0.4-0.3-0.5s-0.3-0.3-0.6-0.4c-0.2-0.1-0.5-0.1-0.8-0.1s-0.5,0-0.7,0.1s-0.4,0.1-0.6,0.2c-0.2,0.1-0.3,0.2-0.5,0.3
			c-0.1,0.1-0.3,0.2-0.4,0.3L-95.3,277.9z M-91.1,281c-0.3,0-0.7,0-1.1,0.1s-0.7,0.1-1,0.2s-0.5,0.3-0.7,0.5s-0.3,0.4-0.3,0.8
			s0.1,0.8,0.5,1s0.7,0.3,1.2,0.3c0.4,0,0.7-0.1,1-0.2s0.5-0.3,0.7-0.5s0.3-0.5,0.4-0.7c0.1-0.3,0.1-0.5,0.1-0.8v-0.5h-0.8V281z"/>
		<path class="st4" d="M-86.8,276.9h1.5v1.2l0,0c0.2-0.4,0.5-0.8,1-1c0.5-0.3,1-0.4,1.6-0.4c0.4,0,0.7,0.1,1.1,0.2
			c0.3,0.1,0.6,0.3,0.9,0.5s0.5,0.5,0.6,0.9c0.2,0.4,0.2,0.8,0.2,1.3v5h-1.5V280c0-0.4,0-0.7-0.1-0.9c-0.1-0.3-0.2-0.5-0.4-0.6
			c-0.2-0.2-0.4-0.3-0.6-0.3c-0.2-0.1-0.4-0.1-0.7-0.1s-0.6,0-0.9,0.1s-0.5,0.3-0.7,0.5s-0.3,0.5-0.5,0.8c-0.1,0.3-0.2,0.7-0.2,1.2
			v4H-87v-7.8H-86.8z"/>
		<path class="st4" d="M-72.2,279c-0.3-0.3-0.6-0.5-0.9-0.6c-0.3-0.1-0.7-0.2-1.1-0.2c-0.4,0-0.8,0.1-1.1,0.2s-0.6,0.3-0.8,0.6
			c-0.2,0.3-0.4,0.6-0.5,0.9s-0.2,0.7-0.2,1c0,0.4,0.1,0.7,0.2,1c0.1,0.3,0.3,0.6,0.5,0.8c0.2,0.2,0.5,0.4,0.8,0.6
			c0.3,0.1,0.6,0.2,1,0.2s0.8-0.1,1.1-0.2s0.6-0.4,0.8-0.6l1,1c-0.4,0.4-0.8,0.7-1.3,0.9s-1,0.3-1.6,0.3s-1.1-0.1-1.6-0.3
			c-0.5-0.2-0.9-0.5-1.3-0.8c-0.4-0.4-0.6-0.8-0.8-1.3s-0.3-1-0.3-1.6s0.1-1.2,0.3-1.7s0.5-0.9,0.8-1.3c0.4-0.4,0.8-0.6,1.3-0.8
			s1.1-0.3,1.7-0.3c0.6,0,1.1,0.1,1.6,0.3s1,0.5,1.4,0.9L-72.2,279z"/>
		<path class="st4" d="M-68.7,281.4c0,0.3,0.1,0.6,0.2,0.9c0.1,0.3,0.3,0.5,0.6,0.7c0.2,0.2,0.5,0.3,0.8,0.5c0.3,0.1,0.6,0.2,1,0.2
			c0.5,0,0.9-0.1,1.2-0.3c0.3-0.2,0.6-0.5,0.9-0.8l1.1,0.9c-0.8,1.1-2,1.6-3.4,1.6c-0.6,0-1.2-0.1-1.7-0.3c-0.5-0.2-0.9-0.5-1.3-0.9
			c-0.3-0.4-0.6-0.8-0.8-1.3s-0.3-1-0.3-1.6s0.1-1.1,0.3-1.6s0.5-0.9,0.8-1.3c0.4-0.4,0.8-0.7,1.3-0.9c0.5-0.2,1-0.3,1.6-0.3
			c0.7,0,1.3,0.1,1.7,0.4s0.9,0.6,1.2,0.9c0.3,0.4,0.5,0.8,0.7,1.3c0.1,0.5,0.2,1,0.2,1.5v0.5L-68.7,281.4L-68.7,281.4z M-64,280.2
			c0-0.3-0.1-0.6-0.2-0.9c-0.1-0.3-0.2-0.5-0.4-0.7s-0.4-0.4-0.7-0.5s-0.6-0.2-1-0.2s-0.7,0.1-1,0.2s-0.6,0.3-0.8,0.5
			s-0.4,0.5-0.5,0.7s-0.2,0.5-0.2,0.8L-64,280.2L-64,280.2z"/>
		<path class="st4" d="M-60.7,276.9h1.5v1.2l0,0c0.1-0.2,0.2-0.4,0.4-0.6s0.3-0.3,0.5-0.4s0.4-0.2,0.7-0.3c0.2-0.1,0.5-0.1,0.7-0.1
			s0.5,0,0.7,0.1l-0.1,1.6c-0.1,0-0.2-0.1-0.4-0.1c-0.1,0-0.2,0-0.4,0c-0.7,0-1.3,0.2-1.7,0.6s-0.6,1-0.6,1.9v3.9h-1.5v-7.8H-60.7z"
			/>
	</g>
	<g>
		<path class="st4" d="M-103.1,406.3c0.3,0.4,0.6,0.7,1.1,0.9c0.4,0.2,0.9,0.3,1.4,0.3c0.3,0,0.5,0,0.8-0.1s0.5-0.2,0.7-0.4
			c0.2-0.2,0.4-0.4,0.5-0.6s0.2-0.5,0.2-0.8c0-0.4-0.1-0.8-0.4-1c-0.3-0.2-0.6-0.4-1.1-0.6c-0.4-0.2-0.9-0.3-1.4-0.5
			c-0.5-0.1-1-0.4-1.4-0.6c-0.4-0.3-0.8-0.6-1.1-1.1c-0.3-0.4-0.4-1-0.4-1.8c0-0.3,0.1-0.7,0.2-1.1c0.1-0.4,0.4-0.7,0.7-1
			s0.7-0.6,1.2-0.8c0.5-0.2,1.1-0.3,1.8-0.3c0.6,0,1.2,0.1,1.8,0.3s1.1,0.5,1.5,1.1l-1.3,1.2c-0.2-0.3-0.5-0.6-0.8-0.7
			c-0.4-0.2-0.8-0.3-1.2-0.3s-0.8,0.1-1.1,0.2s-0.5,0.3-0.7,0.4c-0.2,0.2-0.3,0.4-0.4,0.6s-0.1,0.4-0.1,0.6c0,0.5,0.1,0.9,0.4,1.1
			s0.6,0.5,1.1,0.6c0.4,0.2,0.9,0.3,1.4,0.4s1,0.3,1.4,0.5s0.8,0.6,1.1,1s0.4,0.9,0.4,1.6c0,0.6-0.1,1.1-0.3,1.5s-0.5,0.8-0.9,1.1
			c-0.4,0.3-0.8,0.5-1.3,0.7s-1,0.2-1.6,0.2c-0.7,0-1.4-0.1-2.1-0.4c-0.7-0.3-1.2-0.7-1.6-1.2L-103.1,406.3z"/>
		<path class="st4" d="M-90.5,402.2h-2.1v3.5c0,0.2,0,0.4,0,0.6s0.1,0.4,0.1,0.6c0.1,0.2,0.2,0.3,0.3,0.4s0.4,0.2,0.6,0.2
			c0.2,0,0.4,0,0.5,0c0.2,0,0.4-0.1,0.5-0.2v1.3c-0.2,0.1-0.4,0.2-0.7,0.2s-0.5,0.1-0.6,0.1c-0.6,0-1-0.1-1.3-0.2s-0.5-0.4-0.7-0.6
			s-0.2-0.5-0.3-0.8c0-0.3,0-0.6,0-0.9v-4h-1.7v-1.3h1.7v-2.2h1.5v2.2h2.1v1.1H-90.5z"/>
		<path class="st4" d="M-88.6,400.9h1.5v1.2l0,0c0.1-0.2,0.2-0.4,0.4-0.6s0.3-0.3,0.5-0.4s0.4-0.2,0.7-0.3c0.2-0.1,0.5-0.1,0.7-0.1
			s0.5,0,0.7,0.1l-0.1,1.6c-0.1,0-0.2-0.1-0.4-0.1c-0.1,0-0.2,0-0.4,0c-0.7,0-1.3,0.2-1.7,0.6s-0.6,1-0.6,1.9v3.9h-1.5v-7.8H-88.6z"
			/>
		<path class="st4" d="M-83.3,404.8c0-0.6,0.1-1.1,0.3-1.6s0.5-0.9,0.9-1.3s0.8-0.7,1.3-0.9s1-0.3,1.6-0.3s1.1,0.1,1.6,0.3
			c0.5,0.2,0.9,0.5,1.3,0.9s0.7,0.8,0.9,1.3s0.3,1,0.3,1.6s-0.1,1.1-0.3,1.6s-0.5,0.9-0.9,1.3s-0.8,0.7-1.3,0.9
			c-0.5,0.2-1,0.3-1.6,0.3s-1.1-0.1-1.6-0.3s-0.9-0.5-1.3-0.9c-0.4-0.4-0.7-0.8-0.9-1.3S-83.3,405.4-83.3,404.8z M-81.7,404.8
			c0,0.4,0.1,0.8,0.2,1.1c0.1,0.3,0.3,0.6,0.5,0.9s0.5,0.4,0.8,0.6s0.7,0.2,1.1,0.2c0.4,0,0.7-0.1,1.1-0.2c0.3-0.1,0.6-0.3,0.8-0.6
			s0.4-0.5,0.5-0.9c0.1-0.3,0.2-0.7,0.2-1.1s-0.1-0.8-0.2-1.1c-0.1-0.3-0.3-0.6-0.5-0.9c-0.2-0.2-0.5-0.4-0.8-0.6
			c-0.3-0.1-0.7-0.2-1.1-0.2c-0.4,0-0.7,0.1-1.1,0.2s-0.6,0.3-0.8,0.6c-0.2,0.2-0.4,0.5-0.5,0.9S-81.7,404.4-81.7,404.8z"/>
		<path class="st4" d="M-73.2,396.3h1.5v8l3.3-3.4h2l-3.6,3.5l3.9,4.2h-2.1l-3.6-4v4h-1.5L-73.2,396.3L-73.2,396.3z"/>
		<path class="st4" d="M-63.6,405.4c0,0.3,0.1,0.6,0.2,0.9c0.1,0.3,0.3,0.5,0.6,0.7c0.2,0.2,0.5,0.3,0.8,0.5c0.3,0.1,0.6,0.2,1,0.2
			c0.5,0,0.9-0.1,1.2-0.3c0.3-0.2,0.6-0.5,0.9-0.8l1.1,0.9c-0.8,1.1-2,1.6-3.4,1.6c-0.6,0-1.2-0.1-1.7-0.3c-0.5-0.2-0.9-0.5-1.3-0.9
			c-0.3-0.4-0.6-0.8-0.8-1.3s-0.3-1-0.3-1.6s0.1-1.1,0.3-1.6s0.5-0.9,0.8-1.3c0.4-0.4,0.8-0.7,1.3-0.9c0.5-0.2,1-0.3,1.6-0.3
			c0.7,0,1.3,0.1,1.7,0.4s0.9,0.6,1.2,0.9c0.3,0.4,0.5,0.8,0.7,1.3c0.1,0.5,0.2,1,0.2,1.5v0.5L-63.6,405.4L-63.6,405.4z
			 M-58.9,404.2c0-0.3-0.1-0.6-0.2-0.9c-0.1-0.3-0.2-0.5-0.4-0.7s-0.4-0.4-0.7-0.5s-0.6-0.2-1-0.2s-0.7,0.1-1,0.2s-0.6,0.3-0.8,0.5
			s-0.4,0.5-0.5,0.7s-0.2,0.5-0.2,0.8L-58.9,404.2L-58.9,404.2z"/>
	</g>
	<g>
		<path class="st4" d="M-198.4,397.7h4.1c0.4,0,0.7,0,1.1,0.1c0.4,0.1,0.8,0.2,1.2,0.4c0.4,0.2,0.8,0.4,1.1,0.7c0.4,0.3,0.7,0.6,1,1
			c0.3,0.4,0.5,0.9,0.7,1.4c0.2,0.5,0.2,1.1,0.2,1.8c0,0.7-0.1,1.2-0.2,1.8c-0.2,0.5-0.4,1-0.7,1.4c-0.3,0.4-0.6,0.7-1,1
			c-0.4,0.3-0.7,0.5-1.1,0.7c-0.4,0.2-0.8,0.3-1.2,0.4c-0.4,0.1-0.8,0.1-1.1,0.1h-4.1V397.7z M-197.1,407.2h2.4
			c0.6,0,1.2-0.1,1.7-0.2s1-0.4,1.4-0.8c0.4-0.3,0.7-0.8,0.9-1.3c0.2-0.5,0.3-1.2,0.3-1.9c0-0.7-0.1-1.4-0.3-1.9
			c-0.2-0.5-0.5-1-0.9-1.3s-0.8-0.6-1.4-0.8s-1.1-0.2-1.7-0.2h-2.4V407.2z"/>
		<path class="st4" d="M-180.8,407.1c-0.4,0.5-0.9,0.9-1.4,1.1s-1.1,0.3-1.8,0.3c-0.6,0-1.1-0.1-1.5-0.3c-0.4-0.2-0.8-0.5-1.1-0.8
			s-0.5-0.7-0.7-1.2c-0.2-0.5-0.3-0.9-0.3-1.5c0-0.5,0.1-1.1,0.3-1.5c0.2-0.5,0.4-0.9,0.8-1.2c0.3-0.3,0.7-0.6,1.2-0.8
			c0.4-0.2,0.9-0.3,1.5-0.3c0.5,0,1,0.1,1.4,0.3s0.8,0.4,1.1,0.7c0.3,0.3,0.5,0.7,0.7,1.2s0.2,1,0.2,1.6v0.4h-5.7
			c0,0.3,0.1,0.6,0.2,0.9c0.1,0.3,0.3,0.5,0.5,0.7c0.2,0.2,0.4,0.4,0.7,0.5c0.3,0.1,0.6,0.2,0.9,0.2c0.5,0,1-0.1,1.3-0.3
			c0.4-0.2,0.7-0.5,1-0.8L-180.8,407.1z M-181.8,404.2c0-0.6-0.2-1.1-0.6-1.5c-0.4-0.4-0.9-0.5-1.6-0.5c-0.7,0-1.2,0.2-1.6,0.5
			c-0.4,0.4-0.6,0.9-0.7,1.5H-181.8z"/>
		<path class="st4" d="M-178.7,403c0-0.3,0-0.6,0-0.9c0-0.3,0-0.5,0-0.8h1.1c0,0.2,0,0.4,0,0.6c0,0.2,0,0.4,0,0.6h0
			c0.1-0.2,0.2-0.3,0.3-0.5s0.3-0.3,0.5-0.4c0.2-0.1,0.4-0.2,0.7-0.3c0.3-0.1,0.5-0.1,0.8-0.1c0.4,0,0.7,0,1,0.1
			c0.3,0.1,0.5,0.2,0.6,0.3c0.2,0.1,0.3,0.3,0.4,0.4c0.1,0.2,0.2,0.3,0.2,0.4c0.3-0.4,0.6-0.8,0.9-1c0.3-0.2,0.8-0.4,1.3-0.4
			c0.5,0,0.9,0.1,1.3,0.2c0.3,0.1,0.6,0.3,0.8,0.6c0.2,0.3,0.4,0.6,0.5,0.9c0.1,0.4,0.1,0.8,0.1,1.2v4.3h-1.2v-4.3
			c0-0.2,0-0.5-0.1-0.7c-0.1-0.2-0.1-0.4-0.3-0.6c-0.1-0.2-0.3-0.3-0.5-0.4s-0.5-0.2-0.9-0.2c-0.3,0-0.5,0.1-0.7,0.2
			c-0.2,0.1-0.4,0.2-0.6,0.4c-0.2,0.2-0.3,0.4-0.4,0.7c-0.1,0.3-0.1,0.5-0.1,0.9v4.1h-1.2v-4c0-0.8-0.1-1.4-0.3-1.7s-0.6-0.5-1-0.5
			c-0.4,0-0.7,0.1-1,0.2c-0.3,0.1-0.5,0.3-0.7,0.6s-0.3,0.5-0.4,0.9c-0.1,0.3-0.1,0.7-0.1,1.1v3.5h-1.2V403z"/>
		<path class="st4" d="M-159.4,407.1c-0.4,0.5-0.9,0.9-1.4,1.1c-0.5,0.2-1.1,0.3-1.8,0.3c-0.6,0-1.1-0.1-1.5-0.3
			c-0.4-0.2-0.8-0.5-1.1-0.8s-0.5-0.7-0.7-1.2c-0.2-0.5-0.2-0.9-0.2-1.5c0-0.5,0.1-1.1,0.3-1.5s0.4-0.9,0.8-1.2
			c0.3-0.3,0.7-0.6,1.2-0.8c0.4-0.2,0.9-0.3,1.5-0.3c0.5,0,1,0.1,1.4,0.3c0.4,0.2,0.8,0.4,1.1,0.7s0.5,0.7,0.7,1.2s0.2,1,0.2,1.6
			v0.4h-5.7c0,0.3,0.1,0.6,0.2,0.9c0.1,0.3,0.3,0.5,0.5,0.7c0.2,0.2,0.4,0.4,0.7,0.5c0.3,0.1,0.6,0.2,0.9,0.2c0.5,0,1-0.1,1.3-0.3
			c0.4-0.2,0.7-0.5,1-0.8L-159.4,407.1z M-160.4,404.2c0-0.6-0.2-1.1-0.6-1.5c-0.4-0.4-0.9-0.5-1.6-0.5c-0.7,0-1.2,0.2-1.6,0.5
			c-0.4,0.4-0.6,0.9-0.7,1.5H-160.4z"/>
		<path class="st4" d="M-157.3,403c0-0.3,0-0.6,0-0.9c0-0.3,0-0.5,0-0.8h1.1c0,0.2,0,0.4,0,0.6c0,0.2,0,0.4,0,0.6h0
			c0.1-0.2,0.2-0.3,0.3-0.5s0.3-0.3,0.5-0.4c0.2-0.1,0.4-0.2,0.7-0.3c0.3-0.1,0.5-0.1,0.8-0.1c0.5,0,0.9,0.1,1.2,0.2
			c0.3,0.1,0.6,0.3,0.8,0.6c0.2,0.3,0.4,0.6,0.5,0.9c0.1,0.4,0.2,0.8,0.2,1.2v4.4h-1.2v-4.3c0-0.6-0.1-1.1-0.4-1.4
			c-0.3-0.3-0.7-0.5-1.2-0.5c-0.4,0-0.7,0.1-1,0.2c-0.3,0.1-0.5,0.3-0.7,0.6s-0.3,0.5-0.4,0.9c-0.1,0.3-0.1,0.7-0.1,1.1v3.5h-1.2
			V403z"/>
		<path class="st4" d="M-145,402.3h-2.1v3.6c0,0.2,0,0.4,0,0.6c0,0.2,0.1,0.4,0.1,0.5c0.1,0.1,0.2,0.3,0.3,0.3
			c0.1,0.1,0.3,0.1,0.6,0.1c0.2,0,0.3,0,0.5-0.1c0.2,0,0.4-0.1,0.5-0.2l0,1.1c-0.2,0.1-0.4,0.2-0.7,0.2c-0.2,0-0.5,0.1-0.7,0.1
			c-0.4,0-0.8-0.1-1-0.2c-0.3-0.1-0.5-0.3-0.6-0.5c-0.1-0.2-0.2-0.5-0.3-0.8c0-0.3-0.1-0.6-0.1-1v-3.9h-1.6v-1h1.6v-2h1.2v2h2.1
			V402.3z"/>
		<path class="st4" d="M-143.7,398.5c0-0.2,0.1-0.4,0.3-0.6c0.2-0.2,0.4-0.3,0.6-0.3s0.4,0.1,0.6,0.3c0.2,0.2,0.3,0.4,0.3,0.6
			c0,0.3-0.1,0.5-0.2,0.6s-0.4,0.2-0.6,0.2c-0.3,0-0.5-0.1-0.6-0.2S-143.7,398.8-143.7,398.5z M-143.4,401.3h1.2v7.1h-1.2V401.3z"/>
		<path class="st4" d="M-139.9,402.2c0.4-0.4,0.8-0.7,1.3-0.8c0.5-0.2,1-0.3,1.5-0.3c1.1,0,1.8,0.2,2.3,0.7c0.5,0.5,0.7,1.3,0.7,2.3
			v3.1c0,0.2,0,0.4,0,0.6s0,0.4,0.1,0.6h-1.1c0-0.2-0.1-0.3-0.1-0.5c0-0.2,0-0.4,0-0.5h0c-0.2,0.4-0.5,0.7-0.9,0.9
			c-0.4,0.2-0.9,0.3-1.4,0.3c-0.4,0-0.7,0-1-0.1c-0.3-0.1-0.6-0.2-0.8-0.4c-0.2-0.2-0.4-0.4-0.6-0.7c-0.1-0.3-0.2-0.6-0.2-0.9
			c0-0.6,0.2-1,0.5-1.4c0.3-0.3,0.7-0.6,1.1-0.7s0.9-0.3,1.5-0.3c0.5,0,1-0.1,1.4-0.1h0.5v-0.2c0-0.5-0.2-0.9-0.5-1.2
			c-0.3-0.3-0.7-0.4-1.3-0.4c-0.4,0-0.8,0.1-1.1,0.2c-0.4,0.1-0.7,0.3-1,0.6L-139.9,402.2z M-136.5,405c-0.8,0-1.4,0.1-1.8,0.3
			c-0.4,0.2-0.7,0.6-0.7,1c0,0.4,0.1,0.8,0.4,0.9c0.3,0.2,0.7,0.3,1.1,0.3c0.3,0,0.6-0.1,0.9-0.2c0.3-0.1,0.5-0.3,0.6-0.5
			c0.2-0.2,0.3-0.4,0.4-0.7s0.1-0.5,0.2-0.8V405H-136.5z"/>
	</g>
</g>
</svg>
