<?xml version="1.0" encoding="utf-8"?>
<!-- Generator: Adobe Illustrator 19.0.0, SVG Export Plug-In . SVG Version: 6.00 Build 0)  -->
<svg version="1.1" id="Layer_1" xmlns="http://www.w3.org/2000/svg" xmlns:xlink="http://www.w3.org/1999/xlink" x="0px" y="0px"
	 viewBox="0 0 158.1 175.3" style="enable-background:new 0 0 158.1 175.3;" xml:space="preserve">
<style type="text/css">
	.st0{fill:#FFEDDF;}
	.st1{fill-rule:evenodd;clip-rule:evenodd;fill:#FFEDDF;}
	.st2{fill-rule:evenodd;clip-rule:evenodd;fill:#ED1C24;}
	.st3{fill-rule:evenodd;clip-rule:evenodd;fill:#E0C6B3;}
	.st4{fill-rule:evenodd;clip-rule:evenodd;fill:#8DC63F;}
	.st5{fill-rule:evenodd;clip-rule:evenodd;fill:#D1D3D4;}
	.st6{fill-rule:evenodd;clip-rule:evenodd;fill:#2EE3E8;}
	.st7{fill-rule:evenodd;clip-rule:evenodd;fill:#FFFFFF;}
	.st8{fill-rule:evenodd;clip-rule:evenodd;fill:#414042;}
	.st9{opacity:0.3;fill-rule:evenodd;clip-rule:evenodd;fill:#750A2B;}
</style>
<rect id="XMLID_1_" x="16.6" y="79.7" class="st0" width="125" height="95.6"/>
<g id="XMLID_38_">
	<rect id="XMLID_39_" x="54.5" y="39.8" class="st1" width="50.6" height="15"/>
</g>
<g id="XMLID_13_">
	<polygon id="XMLID_14_" class="st2" points="37.7,39.8 121.9,39.8 79.8,0 	"/>
</g>
<rect id="XMLID_37_" x="36.9" y="88.5" class="st3" width="10.3" height="86.7"/>
<rect id="XMLID_41_" x="116.1" y="88.5" class="st3" width="10.3" height="86.7"/>
<g id="XMLID_35_">
	<polygon id="XMLID_36_" class="st2" points="111.6,55 46.6,55 42.4,55 22.8,55 0,88.5 7.8,88.5 12,88.5 146.1,88.5 150.3,88.5 
		158.1,88.5 135.3,55 115.8,55 	"/>
</g>
<rect id="XMLID_43_" x="97.7" y="159.7" class="st4" width="53.5" height="15.5"/>
<rect id="XMLID_42_" x="10.2" y="159.7" class="st4" width="53.5" height="15.5"/>
<rect id="XMLID_40_" x="68" y="134.8" class="st5" width="24.8" height="40.4"/>
<rect id="XMLID_44_" x="53.8" y="101.8" class="st6" width="20" height="20"/>
<rect id="XMLID_46_" x="87.7" y="101.8" class="st6" width="20" height="20"/>
<rect id="XMLID_45_" x="52.2" y="99.8" class="st7" width="23.2" height="5.8"/>
<rect id="XMLID_48_" x="86.1" y="99.8" class="st7" width="23.2" height="5.8"/>
<rect id="XMLID_49_" x="86.1" y="118.9" class="st7" width="23.2" height="2.9"/>
<rect id="XMLID_50_" x="52.1" y="118.9" class="st7" width="23.2" height="2.9"/>
<rect id="XMLID_47_" x="64.9" y="131.9" class="st8" width="30.8" height="6.8"/>
<rect id="XMLID_51_" x="16.6" y="88.5" class="st9" width="20.4" height="7.1"/>
<rect id="XMLID_53_" x="47.2" y="88.5" class="st9" width="68.8" height="7.1"/>
<rect id="XMLID_58_" x="53.9" y="105.7" class="st9" width="20" height="2.4"/>
<rect id="XMLID_60_" x="68" y="138.7" class="st9" width="24.8" height="2.4"/>
<rect id="XMLID_59_" x="87.7" y="105.7" class="st9" width="20" height="2.4"/>
<rect id="XMLID_57_" x="54.7" y="39.8" class="st9" width="50.4" height="7.1"/>
<rect id="XMLID_54_" x="126.5" y="88.5" class="st9" width="15.1" height="7.1"/>
<rect id="XMLID_55_" x="116.1" y="88.5" class="st9" width="10.4" height="9.8"/>
<rect id="XMLID_56_" x="36.9" y="88.5" class="st9" width="10.4" height="9.8"/>
</svg>
