<?xml version="1.0" encoding="utf-8"?>
<!-- Generator: Adobe Illustrator 19.0.0, SVG Export Plug-In . SVG Version: 6.00 Build 0)  -->
<svg version="1.1" id="Layer_1" xmlns="http://www.w3.org/2000/svg" xmlns:xlink="http://www.w3.org/1999/xlink" x="0px" y="0px"
	 viewBox="0 0 408.8 247.1" style="enable-background:new 0 0 408.8 247.1;" xml:space="preserve">
<style type="text/css">
	.st0{clip-path:url(#XMLID_16_);fill:#00247D;}
	.st1{clip-path:url(#XMLID_16_);}
	.st2{fill:#FFFFFF;}
	.st3{fill:#CF142B;}
</style>
<g id="XMLID_44_">
	<defs>
		<rect id="XMLID_39_" width="408.8" height="247.1"/>
	</defs>
	<clipPath id="XMLID_16_">
		<use xlink:href="#XMLID_39_"  style="overflow:visible;"/>
	</clipPath>
	<rect id="XMLID_1_" class="st0" width="408.8" height="247.1"/>
	<g id="XMLID_37_" class="st1">
		<polygon id="XMLID_52_" class="st2" points="165.8,262.1 165.8,160.4 -15,160.4 -15,86.6 165.8,86.6 165.8,-15 243,-15 243,86.6 
			423.8,86.6 423.8,160.4 243,160.4 243,262.1 		"/>
	</g>
	<g id="XMLID_23_" class="st1">
		
			<rect id="XMLID_41_" x="186.4" y="-165.8" transform="matrix(-0.5023 0.8647 -0.8647 -0.5023 415.569 11.7198)" class="st2" width="36" height="582.5"/>
		
			<rect id="XMLID_22_" x="-76.9" y="117.4" transform="matrix(0.8647 0.5024 -0.5024 0.8647 90.6871 -85.7105)" class="st3" width="562.5" height="16"/>
		
			<rect id="XMLID_40_" x="-86.9" y="107.4" transform="matrix(-0.8647 0.5024 -0.5024 -0.8647 444.179 131.2296)" class="st2" width="582.5" height="36"/>
		
			<rect id="XMLID_36_" x="-76.9" y="117.4" transform="matrix(-0.8647 0.5024 -0.5024 -0.8647 444.1785 131.2295)" class="st3" width="562.5" height="16"/>
	</g>
	<g id="XMLID_38_" class="st1">
		<polygon id="XMLID_51_" class="st3" points="408.8,101.6 228,101.6 228,0 180.8,0 180.8,101.6 0,101.6 0,145.4 180.8,145.4 
			180.8,247.1 228,247.1 228,145.4 408.8,145.4 		"/>
	</g>
</g>
</svg>
