<?xml version="1.0" encoding="utf-8"?>
<!-- Generator: Adobe Illustrator 19.0.0, SVG Export Plug-In . SVG Version: 6.00 Build 0)  -->
<svg version="1.1" id="Layer_1" xmlns="http://www.w3.org/2000/svg" xmlns:xlink="http://www.w3.org/1999/xlink" x="0px" y="0px"
	 viewBox="-817 349.5 264.2 383.5" style="enable-background:new -817 349.5 264.2 383.5;" xml:space="preserve">
<style type="text/css">
	.st0{fill:#8B5E3C;}
	.st1{fill:#A97C50;}
	.st2{fill:#414042;}
	.st3{fill:#009444;}
	.st4{fill:#603913;}
	.st5{fill:#FFFFFF;}
	.st6{opacity:0.75;}
	.st7{fill:#D59D00;}
	.st8{fill:#EEB600;}
</style>
<g id="XMLID_4_">
	<g id="XMLID_3_">
		<rect x="-797.1" y="652" class="st0" width="28.5" height="81"/>
	</g>
	<g id="XMLID_6_">
		<rect x="-617.4" y="652" class="st0" width="28.5" height="81"/>
	</g>
</g>
<g id="XMLID_1_">
	<path id="XMLID_73_" class="st1" d="M-794.8,359.5h219.6c6.8,0,12.3,5.5,12.3,12.3v281.4c0,6.8-5.5,12.3-12.3,12.3h-219.6
		c-6.8,0-12.3-5.5-12.3-12.3V371.7C-807,365-801.5,359.5-794.8,359.5z"/>
	<path id="XMLID_76_" class="st2" d="M-794.8,349.5h219.6c12.3,0,22.3,10,22.3,22.3v281.4c0,12.3-10,22.3-22.3,22.3h-219.6
		c-12.3,0-22.3-10-22.3-22.3V371.7C-817,359.5-807,349.5-794.8,349.5z M-575.1,655.5c1.3,0,2.3-1,2.3-2.3V371.7c0-1.2-1-2.3-2.3-2.3
		h-219.6c-1.2,0-2.3,1-2.3,2.3v281.5c0,1.2,1,2.3,2.3,2.3H-575.1z"/>
</g>
<g id="XMLID_20_">
	<rect x="-803.9" y="714.1" class="st3" width="41.3" height="18.9"/>
</g>
<g id="XMLID_22_">
	<rect x="-623.8" y="714.1" class="st3" width="41.3" height="18.9"/>
</g>
<g id="XMLID_23_">
	<polygon class="st4" points="-797.1,675.6 -768.6,675.6 -768.6,696.2 	"/>
</g>
<g id="XMLID_24_">
	<polygon class="st4" points="-617.4,675.5 -588.9,675.5 -588.9,696.2 	"/>
</g>
<g>
	<g>
		<g>
			<path class="st5" d="M-740.1,549.6c0.4,0.1,0.7,0.3,1,0.5c0.3,0.2,0.5,0.5,0.8,0.7c0.2,0.3,0.4,0.6,0.5,0.9
				c0.1,0.3,0.2,0.6,0.2,1c0,0.8-0.2,1.5-0.5,2.1s-0.8,1.1-1.3,1.4c-0.5,0.4-1.2,0.6-1.9,0.8c-0.7,0.2-1.4,0.3-2.1,0.3
				c-0.7,0-1.4-0.1-2.1-0.2c-0.7-0.2-1.3-0.4-1.9-0.8c-0.6-0.4-1.1-0.8-1.5-1.3c-0.4-0.5-0.7-1.2-0.9-1.9l4.4-1
				c0.1,0.3,0.3,0.7,0.6,0.9c0.3,0.3,0.7,0.4,1.2,0.4c0.1,0,0.3,0,0.4,0c0.1,0,0.3-0.1,0.4-0.2s0.2-0.2,0.3-0.3
				c0.1-0.1,0.1-0.3,0.1-0.5c0-0.4-0.2-0.7-0.5-0.8c-0.4-0.1-0.9-0.2-1.5-0.2h-1.3v-3.2h1.5c0.5,0,0.9-0.1,1.2-0.2
				c0.3-0.1,0.5-0.4,0.5-0.8c0-0.3-0.1-0.5-0.4-0.6c-0.2-0.1-0.5-0.2-0.7-0.2c-0.3,0-0.6,0.1-0.9,0.3c-0.3,0.2-0.4,0.5-0.5,0.9
				l-4.3-0.9c0.2-0.8,0.6-1.4,1-1.9s0.9-0.9,1.5-1.2c0.6-0.3,1.2-0.5,1.8-0.7c0.6-0.1,1.3-0.2,1.9-0.2c0.6,0,1.2,0.1,1.9,0.2
				s1.2,0.4,1.8,0.7c0.5,0.3,1,0.8,1.3,1.3c0.3,0.5,0.5,1.1,0.5,1.9c0,0.8-0.2,1.4-0.6,1.9C-739,549-739.5,549.3-740.1,549.6
				L-740.1,549.6z"/>
			<path class="st5" d="M-729.9,557.3c-0.9,0-1.6-0.1-2.2-0.3c-0.6-0.2-1.2-0.5-1.6-0.9s-0.8-0.8-1.1-1.3c-0.3-0.5-0.5-1-0.7-1.6
				c-0.2-0.5-0.3-1.1-0.4-1.7s-0.1-1.1-0.1-1.6c0-0.5,0-1,0.1-1.6s0.2-1.1,0.4-1.6s0.4-1,0.7-1.5c0.3-0.5,0.7-0.9,1.1-1.3
				s1-0.7,1.6-0.9s1.4-0.3,2.2-0.3c1.3,0,2.3,0.2,3.1,0.7c0.8,0.5,1.4,1.1,1.9,1.8c0.5,0.7,0.8,1.5,0.9,2.4s0.3,1.7,0.3,2.4
				c0,0.5,0,1-0.1,1.6c-0.1,0.6-0.2,1.1-0.4,1.7c-0.2,0.5-0.4,1.1-0.7,1.6c-0.3,0.5-0.7,0.9-1.1,1.3s-1,0.7-1.7,0.9
				C-728.3,557.2-729.1,557.3-729.9,557.3z M-729.9,546.6c-0.3,0-0.5,0.1-0.7,0.3s-0.3,0.5-0.4,0.8c-0.1,0.3-0.2,0.7-0.2,1
				c0,0.4-0.1,0.8-0.1,1.1c0,0.4,0,0.8,0.1,1.2c0,0.4,0.1,0.8,0.2,1.1c0.1,0.3,0.2,0.6,0.4,0.8c0.2,0.2,0.4,0.3,0.7,0.3
				c0.3,0,0.5-0.1,0.7-0.3c0.2-0.2,0.3-0.5,0.4-0.8s0.2-0.7,0.2-1.1c0-0.4,0.1-0.8,0.1-1.2c0-0.4,0-0.7-0.1-1.1c0-0.4-0.1-0.7-0.2-1
				c-0.1-0.3-0.2-0.6-0.4-0.8C-729.4,546.7-729.6,546.6-729.9,546.6z"/>
			<path class="st5" d="M-757.8,567.9h-1v-7.5h4.7v0.9h-3.6v2.3h3.4v0.9h-3.4V567.9z"/>
			<path class="st5" d="M-753.1,567.9h-1.2l3.2-7.5h1l3.2,7.5h-1.2l-0.8-1.8h-3.6L-753.1,567.9z M-752,565.1h2.8l-1.4-3.5
				L-752,565.1z"/>
			<path class="st5" d="M-742.1,566.2L-742.1,566.2l2.2-5.8h1.6v7.5h-1v-6.3h0l-2.5,6.3h-0.7l-2.5-6.3h0v6.3h-1v-7.5h1.6
				L-742.1,566.2z"/>
			<path class="st5" d="M-735.3,567.9h-1v-7.5h1V567.9z"/>
			<path class="st5" d="M-732.5,567h3.3v0.9h-4.4v-7.5h1V567z"/>
			<path class="st5" d="M-727.1,567.9h-1v-7.5h1V567.9z"/>
			<path class="st5" d="M-724.2,567h3.9v0.9h-5v-7.5h4.8v0.9h-3.8v2.2h3.5v0.9h-3.5V567z"/>
			<path class="st5" d="M-715.2,561.8c-0.1-0.2-0.3-0.4-0.6-0.5c-0.3-0.1-0.5-0.2-0.9-0.2c-0.2,0-0.3,0-0.5,0.1s-0.3,0.1-0.5,0.2
				c-0.1,0.1-0.3,0.2-0.3,0.4c-0.1,0.2-0.1,0.3-0.1,0.5c0,0.2,0,0.4,0.1,0.5c0.1,0.1,0.2,0.3,0.3,0.3c0.1,0.1,0.3,0.2,0.5,0.2
				c0.2,0.1,0.4,0.1,0.6,0.2c0.3,0.1,0.5,0.2,0.8,0.3c0.3,0.1,0.5,0.2,0.7,0.4s0.4,0.4,0.5,0.6c0.1,0.2,0.2,0.6,0.2,0.9
				c0,0.4-0.1,0.7-0.2,1c-0.1,0.3-0.3,0.5-0.6,0.7c-0.2,0.2-0.5,0.3-0.8,0.4c-0.3,0.1-0.6,0.1-1,0.1c-0.5,0-0.9-0.1-1.4-0.3
				c-0.4-0.2-0.8-0.5-1.1-0.8l0.8-0.7c0.2,0.3,0.4,0.5,0.7,0.6c0.3,0.2,0.6,0.2,1,0.2c0.2,0,0.4,0,0.5-0.1c0.2,0,0.3-0.1,0.5-0.2
				c0.1-0.1,0.3-0.2,0.4-0.4c0.1-0.2,0.1-0.4,0.1-0.6s0-0.4-0.1-0.6c-0.1-0.2-0.2-0.3-0.4-0.4s-0.4-0.2-0.6-0.3
				c-0.2-0.1-0.4-0.2-0.7-0.2c-0.2-0.1-0.5-0.2-0.7-0.3c-0.2-0.1-0.4-0.2-0.6-0.4c-0.2-0.2-0.3-0.4-0.4-0.6
				c-0.1-0.2-0.2-0.5-0.2-0.9c0-0.4,0.1-0.7,0.2-1c0.2-0.3,0.3-0.5,0.6-0.7c0.2-0.2,0.5-0.3,0.8-0.4c0.3-0.1,0.6-0.1,0.9-0.1
				c0.4,0,0.8,0.1,1.2,0.2c0.4,0.2,0.7,0.4,0.9,0.6L-715.2,561.8z"/>
			<path class="st5" d="M-747.4,575.2L-747.4,575.2l1.8-6h1.2l1.7,6h0l1.6-6h1.1l-2.2,7.5h-1.1l-1.8-6h0l-1.8,6h-1.1l-2.2-7.5h1.1
				L-747.4,575.2z"/>
			<path class="st5" d="M-737.9,576.7h-1v-7.5h1V576.7z"/>
			<path class="st5" d="M-733.5,576.7h-1v-6.6h-2.4v-0.9h5.8v0.9h-2.4V576.7z"/>
			<path class="st5" d="M-730.1,569.2h1v3.1h3.8v-3.1h1.1v7.5h-1.1v-3.4h-3.8v3.4h-1V569.2z"/>
			<path class="st5" d="M-755.7,584.4c-0.3,0.4-0.7,0.7-1.2,1c-0.5,0.3-1,0.4-1.7,0.4c-0.6,0-1.1-0.1-1.6-0.3
				c-0.5-0.2-0.9-0.5-1.2-0.8c-0.3-0.3-0.6-0.8-0.8-1.2c-0.2-0.5-0.3-1-0.3-1.6c0-0.6,0.1-1.1,0.3-1.6c0.2-0.5,0.5-0.9,0.8-1.2
				c0.4-0.3,0.8-0.6,1.3-0.8c0.5-0.2,1-0.3,1.6-0.3c0.3,0,0.5,0,0.8,0.1c0.3,0,0.5,0.1,0.8,0.2s0.5,0.2,0.7,0.4
				c0.2,0.1,0.4,0.3,0.5,0.5l-0.8,0.6c-0.2-0.3-0.4-0.5-0.8-0.6c-0.3-0.2-0.7-0.2-1.1-0.2c-0.4,0-0.8,0.1-1.2,0.2
				c-0.3,0.2-0.6,0.4-0.9,0.7c-0.2,0.3-0.4,0.6-0.6,1s-0.2,0.7-0.2,1.2c0,0.4,0.1,0.8,0.2,1.2c0.1,0.4,0.3,0.7,0.6,1
				c0.2,0.3,0.5,0.5,0.9,0.6c0.3,0.2,0.7,0.2,1.2,0.2c0.4,0,0.8-0.1,1.2-0.3c0.3-0.2,0.6-0.4,0.9-0.7L-755.7,584.4z"/>
			<path class="st5" d="M-754.7,578.1h1v3.1h3.8v-3.1h1.1v7.5h-1.1v-3.4h-3.8v3.4h-1V578.1z"/>
			<path class="st5" d="M-745.9,585.5h-1v-7.5h1V585.5z"/>
			<path class="st5" d="M-743,584.6h3.3v0.9h-4.4v-7.5h1V584.6z"/>
			<path class="st5" d="M-738.7,578.1h2.6c0.5,0,1,0.1,1.4,0.2c0.5,0.1,0.9,0.4,1.3,0.7c0.4,0.3,0.7,0.7,0.9,1.2s0.4,1,0.4,1.7
				c0,0.6-0.1,1.2-0.4,1.7s-0.6,0.9-0.9,1.2s-0.8,0.5-1.3,0.7s-1,0.2-1.4,0.2h-2.6V578.1z M-737.6,584.6h1.3c0.5,0,0.9-0.1,1.3-0.2
				s0.7-0.3,1-0.5c0.3-0.2,0.5-0.5,0.7-0.9c0.2-0.4,0.2-0.8,0.2-1.2c0-0.5-0.1-0.9-0.2-1.2c-0.2-0.4-0.4-0.6-0.7-0.9
				c-0.3-0.2-0.6-0.4-1-0.5c-0.4-0.1-0.8-0.2-1.3-0.2h-1.3V584.6z"/>
			<path class="st5" d="M-729.6,585.5h-1v-7.5h2.4c0.4,0,0.7,0,1,0.1c0.3,0.1,0.6,0.2,0.9,0.4s0.4,0.4,0.6,0.6
				c0.1,0.3,0.2,0.6,0.2,1c0,0.5-0.2,1-0.5,1.3c-0.3,0.3-0.8,0.6-1.3,0.6l2.1,3.4h-1.3l-1.9-3.3h-1.1V585.5z M-729.6,581.3h1.2
				c0.2,0,0.5,0,0.7-0.1c0.2,0,0.4-0.1,0.6-0.2c0.2-0.1,0.3-0.2,0.4-0.4s0.1-0.3,0.1-0.6s0-0.4-0.1-0.6s-0.2-0.3-0.4-0.4
				c-0.2-0.1-0.3-0.2-0.5-0.2s-0.4-0.1-0.6-0.1h-1.3V581.3z"/>
			<path class="st5" d="M-723.1,584.6h3.9v0.9h-5v-7.5h4.8v0.9h-3.8v2.2h3.5v0.9h-3.5V584.6z"/>
			<path class="st5" d="M-712.5,584L-712.5,584l0-6h1v7.5h-1.3l-4-6.1h0v6.1h-1v-7.5h1.4L-712.5,584z"/>
		</g>
		<g>
			<path class="st5" d="M-744.9,605.8l-2.3,1.6l-2.2-3.4l4.9-3.1h4.3v13.9h-4.7V605.8z"/>
			<path class="st5" d="M-729.9,615.2c-0.9,0-1.6-0.1-2.2-0.3c-0.6-0.2-1.2-0.5-1.6-0.9s-0.8-0.8-1.1-1.3c-0.3-0.5-0.5-1-0.7-1.6
				c-0.2-0.5-0.3-1.1-0.4-1.7s-0.1-1.1-0.1-1.6c0-0.5,0-1,0.1-1.6s0.2-1.1,0.4-1.6s0.4-1,0.7-1.5c0.3-0.5,0.7-0.9,1.1-1.3
				s1-0.7,1.6-0.9s1.4-0.3,2.2-0.3c1.3,0,2.3,0.2,3.1,0.7c0.8,0.5,1.4,1.1,1.9,1.8c0.5,0.7,0.8,1.5,0.9,2.4s0.3,1.7,0.3,2.4
				c0,0.5,0,1-0.1,1.6c-0.1,0.6-0.2,1.1-0.4,1.7c-0.2,0.5-0.4,1.1-0.7,1.6c-0.3,0.5-0.7,0.9-1.1,1.3s-1,0.7-1.7,0.9
				C-728.3,615.1-729.1,615.2-729.9,615.2z M-729.9,604.5c-0.3,0-0.5,0.1-0.7,0.3s-0.3,0.5-0.4,0.8c-0.1,0.3-0.2,0.7-0.2,1
				c0,0.4-0.1,0.8-0.1,1.1c0,0.4,0,0.8,0.1,1.2c0,0.4,0.1,0.8,0.2,1.1c0.1,0.3,0.2,0.6,0.4,0.8c0.2,0.2,0.4,0.3,0.7,0.3
				c0.3,0,0.5-0.1,0.7-0.3c0.2-0.2,0.3-0.5,0.4-0.8s0.2-0.7,0.2-1.1c0-0.4,0.1-0.8,0.1-1.2c0-0.4,0-0.7-0.1-1.1c0-0.4-0.1-0.7-0.2-1
				c-0.1-0.3-0.2-0.6-0.4-0.8C-729.4,604.6-729.6,604.5-729.9,604.5z"/>
			<path class="st5" d="M-775.1,619.7c-0.1-0.2-0.3-0.4-0.6-0.5c-0.3-0.1-0.5-0.2-0.9-0.2c-0.2,0-0.3,0-0.5,0.1s-0.3,0.1-0.5,0.2
				c-0.1,0.1-0.3,0.2-0.3,0.4c-0.1,0.2-0.1,0.3-0.1,0.5c0,0.2,0,0.4,0.1,0.5c0.1,0.1,0.2,0.3,0.3,0.3c0.1,0.1,0.3,0.2,0.5,0.2
				c0.2,0.1,0.4,0.1,0.6,0.2c0.3,0.1,0.5,0.2,0.8,0.3c0.3,0.1,0.5,0.2,0.7,0.4s0.4,0.4,0.5,0.6c0.1,0.2,0.2,0.6,0.2,0.9
				c0,0.4-0.1,0.7-0.2,1c-0.1,0.3-0.3,0.5-0.6,0.7c-0.2,0.2-0.5,0.3-0.8,0.4c-0.3,0.1-0.6,0.1-1,0.1c-0.5,0-0.9-0.1-1.4-0.3
				c-0.4-0.2-0.8-0.5-1.1-0.8l0.8-0.7c0.2,0.3,0.4,0.5,0.7,0.6c0.3,0.2,0.6,0.2,1,0.2c0.2,0,0.4,0,0.5-0.1c0.2,0,0.3-0.1,0.5-0.2
				c0.1-0.1,0.3-0.2,0.4-0.4c0.1-0.2,0.1-0.4,0.1-0.6s0-0.4-0.1-0.6c-0.1-0.2-0.2-0.3-0.4-0.4s-0.4-0.2-0.6-0.3
				c-0.2-0.1-0.4-0.2-0.7-0.2c-0.2-0.1-0.5-0.2-0.7-0.3c-0.2-0.1-0.4-0.2-0.6-0.4c-0.2-0.2-0.3-0.4-0.4-0.6
				c-0.1-0.2-0.2-0.5-0.2-0.9c0-0.4,0.1-0.7,0.2-1c0.2-0.3,0.3-0.5,0.6-0.7c0.2-0.2,0.5-0.3,0.8-0.4c0.3-0.1,0.6-0.1,0.9-0.1
				c0.4,0,0.8,0.1,1.2,0.2c0.4,0.2,0.7,0.4,0.9,0.6L-775.1,619.7z"/>
			<path class="st5" d="M-771.8,625.8h-1v-7.5h1V625.8z"/>
			<path class="st5" d="M-764.7,624.3L-764.7,624.3l0-6h1v7.5h-1.3l-4-6.1h0v6.1h-1v-7.5h1.4L-764.7,624.3z"/>
			<path class="st5" d="M-756.1,619.9c-0.2-0.2-0.5-0.4-0.9-0.6c-0.3-0.1-0.7-0.2-1.2-0.2c-0.4,0-0.8,0.1-1.2,0.2
				c-0.4,0.2-0.7,0.4-0.9,0.7c-0.2,0.3-0.4,0.6-0.6,1s-0.2,0.7-0.2,1.2c0,0.4,0.1,0.8,0.2,1.2c0.1,0.4,0.3,0.7,0.6,1
				c0.2,0.3,0.5,0.5,0.9,0.6c0.4,0.2,0.8,0.2,1.2,0.2c0.4,0,0.7,0,1-0.1c0.3-0.1,0.6-0.2,0.8-0.3v-2.1h-1.7v-0.9h2.7v3.6
				c-0.4,0.2-0.8,0.4-1.3,0.5c-0.5,0.1-1,0.2-1.5,0.2c-0.6,0-1.1-0.1-1.6-0.3c-0.5-0.2-0.9-0.5-1.3-0.8c-0.4-0.3-0.6-0.8-0.8-1.2
				c-0.2-0.5-0.3-1-0.3-1.6c0-0.6,0.1-1.1,0.3-1.6c0.2-0.5,0.5-0.9,0.8-1.2c0.4-0.3,0.8-0.6,1.3-0.8c0.5-0.2,1-0.3,1.6-0.3
				c0.6,0,1.1,0.1,1.6,0.3c0.5,0.2,0.9,0.4,1.2,0.7L-756.1,619.9z"/>
			<path class="st5" d="M-752.5,624.9h3.3v0.9h-4.4v-7.5h1V624.9z"/>
			<path class="st5" d="M-747.1,624.9h3.9v0.9h-5v-7.5h4.8v0.9h-3.8v2.2h3.5v0.9h-3.5V624.9z"/>
			<path class="st5" d="M-739.2,618.3h2.3c0.4,0,0.8,0,1.1,0.1c0.3,0.1,0.6,0.2,0.8,0.4c0.2,0.2,0.4,0.4,0.5,0.6
				c0.1,0.3,0.2,0.6,0.2,0.9c0,0.4-0.1,0.7-0.2,1c-0.1,0.3-0.3,0.5-0.6,0.7c-0.2,0.2-0.5,0.3-0.9,0.4s-0.7,0.1-1.1,0.1h-1.2v3.3h-1
				V618.3z M-738.1,621.6h1.1c0.3,0,0.5,0,0.7-0.1c0.2,0,0.4-0.1,0.6-0.2c0.2-0.1,0.3-0.2,0.4-0.4c0.1-0.2,0.1-0.3,0.1-0.6
				c0-0.2,0-0.4-0.1-0.6c-0.1-0.2-0.2-0.3-0.4-0.4c-0.2-0.1-0.3-0.2-0.5-0.2c-0.2,0-0.4-0.1-0.7-0.1h-1.1V621.6z"/>
			<path class="st5" d="M-733.2,625.8h-1.2l3.2-7.5h1l3.2,7.5h-1.2l-0.8-1.8h-3.6L-733.2,625.8z M-732.1,623h2.8l-1.4-3.5
				L-732.1,623z"/>
			<path class="st5" d="M-724.9,625.8h-1v-7.5h2.4c0.4,0,0.7,0,1,0.1c0.3,0.1,0.6,0.2,0.9,0.4s0.4,0.4,0.6,0.6
				c0.1,0.3,0.2,0.6,0.2,1c0,0.5-0.2,1-0.5,1.3c-0.3,0.3-0.8,0.6-1.3,0.6l2.1,3.4h-1.3l-1.9-3.3h-1.1V625.8z M-724.9,621.6h1.2
				c0.2,0,0.5,0,0.7-0.1c0.2,0,0.4-0.1,0.6-0.2c0.2-0.1,0.3-0.2,0.4-0.4s0.1-0.3,0.1-0.6s0-0.4-0.1-0.6s-0.2-0.3-0.4-0.4
				c-0.2-0.1-0.3-0.2-0.5-0.2s-0.4-0.1-0.6-0.1h-1.3V621.6z"/>
			<path class="st5" d="M-718.4,624.9h3.9v0.9h-5v-7.5h4.8v0.9h-3.8v2.2h3.5v0.9h-3.5V624.9z"/>
			<path class="st5" d="M-707.8,624.3L-707.8,624.3l0-6h1v7.5h-1.3l-4-6.1h0v6.1h-1v-7.5h1.4L-707.8,624.3z"/>
			<path class="st5" d="M-702.3,625.8h-1v-6.6h-2.4v-0.9h5.8v0.9h-2.4V625.8z"/>
			<path class="st5" d="M-695.2,619.7c-0.1-0.2-0.3-0.4-0.6-0.5c-0.3-0.1-0.5-0.2-0.9-0.2c-0.2,0-0.3,0-0.5,0.1s-0.3,0.1-0.5,0.2
				c-0.1,0.1-0.3,0.2-0.3,0.4c-0.1,0.2-0.1,0.3-0.1,0.5c0,0.2,0,0.4,0.1,0.5c0.1,0.1,0.2,0.3,0.3,0.3c0.1,0.1,0.3,0.2,0.5,0.2
				c0.2,0.1,0.4,0.1,0.6,0.2c0.3,0.1,0.5,0.2,0.8,0.3c0.3,0.1,0.5,0.2,0.7,0.4s0.4,0.4,0.5,0.6c0.1,0.2,0.2,0.6,0.2,0.9
				c0,0.4-0.1,0.7-0.2,1c-0.1,0.3-0.3,0.5-0.6,0.7c-0.2,0.2-0.5,0.3-0.8,0.4c-0.3,0.1-0.6,0.1-1,0.1c-0.5,0-0.9-0.1-1.4-0.3
				c-0.4-0.2-0.8-0.5-1.1-0.8l0.8-0.7c0.2,0.3,0.4,0.5,0.7,0.6c0.3,0.2,0.6,0.2,1,0.2c0.2,0,0.4,0,0.5-0.1c0.2,0,0.3-0.1,0.5-0.2
				c0.1-0.1,0.3-0.2,0.4-0.4c0.1-0.2,0.1-0.4,0.1-0.6s0-0.4-0.1-0.6c-0.1-0.2-0.2-0.3-0.4-0.4s-0.4-0.2-0.6-0.3
				c-0.2-0.1-0.4-0.2-0.7-0.2c-0.2-0.1-0.5-0.2-0.7-0.3c-0.2-0.1-0.4-0.2-0.6-0.4c-0.2-0.2-0.3-0.4-0.4-0.6
				c-0.1-0.2-0.2-0.5-0.2-0.9c0-0.4,0.1-0.7,0.2-1c0.2-0.3,0.3-0.5,0.6-0.7c0.2-0.2,0.5-0.3,0.8-0.4c0.3-0.1,0.6-0.1,0.9-0.1
				c0.4,0,0.8,0.1,1.2,0.2c0.4,0.2,0.7,0.4,0.9,0.6L-695.2,619.7z"/>
			<path class="st5" d="M-747.4,633.1L-747.4,633.1l1.8-6h1.2l1.7,6h0l1.6-6h1.1l-2.2,7.5h-1.1l-1.8-6h0l-1.8,6h-1.1l-2.2-7.5h1.1
				L-747.4,633.1z"/>
			<path class="st5" d="M-737.9,634.6h-1v-7.5h1V634.6z"/>
			<path class="st5" d="M-733.5,634.6h-1v-6.6h-2.4v-0.9h5.8v0.9h-2.4V634.6z"/>
			<path class="st5" d="M-730.1,627.1h1v3.1h3.8v-3.1h1.1v7.5h-1.1v-3.4h-3.8v3.4h-1V627.1z"/>
			<path class="st5" d="M-755.7,642.3c-0.3,0.4-0.7,0.7-1.2,1c-0.5,0.3-1,0.4-1.7,0.4c-0.6,0-1.1-0.1-1.6-0.3
				c-0.5-0.2-0.9-0.5-1.2-0.8c-0.3-0.3-0.6-0.8-0.8-1.2c-0.2-0.5-0.3-1-0.3-1.6c0-0.6,0.1-1.1,0.3-1.6c0.2-0.5,0.5-0.9,0.8-1.2
				c0.4-0.3,0.8-0.6,1.3-0.8c0.5-0.2,1-0.3,1.6-0.3c0.3,0,0.5,0,0.8,0.1c0.3,0,0.5,0.1,0.8,0.2s0.5,0.2,0.7,0.4
				c0.2,0.1,0.4,0.3,0.5,0.5l-0.8,0.6c-0.2-0.3-0.4-0.5-0.8-0.6c-0.3-0.2-0.7-0.2-1.1-0.2c-0.4,0-0.8,0.1-1.2,0.2
				c-0.3,0.2-0.6,0.4-0.9,0.7c-0.2,0.3-0.4,0.6-0.6,1s-0.2,0.7-0.2,1.2c0,0.4,0.1,0.8,0.2,1.2c0.1,0.4,0.3,0.7,0.6,1
				c0.2,0.3,0.5,0.5,0.9,0.6c0.3,0.2,0.7,0.2,1.2,0.2c0.4,0,0.8-0.1,1.2-0.3c0.3-0.2,0.6-0.4,0.9-0.7L-755.7,642.3z"/>
			<path class="st5" d="M-754.7,636h1v3.1h3.8V636h1.1v7.5h-1.1V640h-3.8v3.4h-1V636z"/>
			<path class="st5" d="M-745.9,643.5h-1V636h1V643.5z"/>
			<path class="st5" d="M-743,642.5h3.3v0.9h-4.4V636h1V642.5z"/>
			<path class="st5" d="M-738.7,636h2.6c0.5,0,1,0.1,1.4,0.2c0.5,0.1,0.9,0.4,1.3,0.7c0.4,0.3,0.7,0.7,0.9,1.2s0.4,1,0.4,1.7
				c0,0.6-0.1,1.2-0.4,1.7s-0.6,0.9-0.9,1.2s-0.8,0.5-1.3,0.7s-1,0.2-1.4,0.2h-2.6V636z M-737.6,642.5h1.3c0.5,0,0.9-0.1,1.3-0.2
				s0.7-0.3,1-0.5c0.3-0.2,0.5-0.5,0.7-0.9c0.2-0.4,0.2-0.8,0.2-1.2c0-0.5-0.1-0.9-0.2-1.2c-0.2-0.4-0.4-0.6-0.7-0.9
				c-0.3-0.2-0.6-0.4-1-0.5c-0.4-0.1-0.8-0.2-1.3-0.2h-1.3V642.5z"/>
			<path class="st5" d="M-729.6,643.5h-1V636h2.4c0.4,0,0.7,0,1,0.1c0.3,0.1,0.6,0.2,0.9,0.4s0.4,0.4,0.6,0.6c0.1,0.3,0.2,0.6,0.2,1
				c0,0.5-0.2,1-0.5,1.3c-0.3,0.3-0.8,0.6-1.3,0.6l2.1,3.4h-1.3l-1.9-3.3h-1.1V643.5z M-729.6,639.2h1.2c0.2,0,0.5,0,0.7-0.1
				c0.2,0,0.4-0.1,0.6-0.2c0.2-0.1,0.3-0.2,0.4-0.4s0.1-0.3,0.1-0.6s0-0.4-0.1-0.6s-0.2-0.3-0.4-0.4c-0.2-0.1-0.3-0.2-0.5-0.2
				s-0.4-0.1-0.6-0.1h-1.3V639.2z"/>
			<path class="st5" d="M-723.1,642.5h3.9v0.9h-5V636h4.8v0.9h-3.8v2.2h3.5v0.9h-3.5V642.5z"/>
			<path class="st5" d="M-712.5,642L-712.5,642l0-6h1v7.5h-1.3l-4-6.1h0v6.1h-1V636h1.4L-712.5,642z"/>
		</g>
	</g>
	<g>
		<g>
			<path class="st5" d="M-636.4,549.6c0.4,0.1,0.7,0.3,1,0.5c0.3,0.2,0.5,0.5,0.8,0.7c0.2,0.3,0.4,0.6,0.5,0.9
				c0.1,0.3,0.2,0.6,0.2,1c0,0.8-0.2,1.5-0.5,2.1s-0.8,1.1-1.3,1.4c-0.5,0.4-1.2,0.6-1.9,0.8s-1.4,0.3-2.1,0.3
				c-0.7,0-1.4-0.1-2.1-0.2c-0.7-0.2-1.3-0.4-1.9-0.8s-1.1-0.8-1.5-1.3c-0.4-0.5-0.7-1.2-0.9-1.9l4.4-1c0.1,0.3,0.3,0.7,0.6,0.9
				s0.7,0.4,1.2,0.4c0.1,0,0.3,0,0.4,0c0.1,0,0.3-0.1,0.4-0.2s0.2-0.2,0.3-0.3c0.1-0.1,0.1-0.3,0.1-0.5c0-0.4-0.2-0.7-0.5-0.8
				s-0.9-0.2-1.5-0.2h-1.3v-3.2h1.5c0.5,0,0.9-0.1,1.2-0.2c0.3-0.1,0.5-0.4,0.5-0.8c0-0.3-0.1-0.5-0.4-0.6c-0.2-0.1-0.5-0.2-0.7-0.2
				c-0.3,0-0.6,0.1-0.9,0.3c-0.3,0.2-0.4,0.5-0.5,0.9l-4.3-0.9c0.2-0.8,0.6-1.4,1-1.9s0.9-0.9,1.5-1.2c0.6-0.3,1.2-0.5,1.8-0.7
				c0.6-0.1,1.3-0.2,1.9-0.2c0.6,0,1.2,0.1,1.9,0.2c0.7,0.2,1.2,0.4,1.8,0.7c0.5,0.3,1,0.8,1.3,1.3c0.3,0.5,0.5,1.1,0.5,1.9
				c0,0.8-0.2,1.4-0.6,1.9C-635.3,549-635.8,549.3-636.4,549.6L-636.4,549.6z"/>
			<path class="st5" d="M-627.5,547.9l-2.3,1.6l-2.2-3.4l4.9-3.1h4.3v13.9h-4.7V547.9z"/>
			<path class="st5" d="M-654.2,567.9h-1v-7.5h4.7v0.9h-3.6v2.3h3.4v0.9h-3.4V567.9z"/>
			<path class="st5" d="M-649.5,567.9h-1.2l3.2-7.5h1l3.2,7.5h-1.2l-0.8-1.8h-3.6L-649.5,567.9z M-648.3,565.1h2.8l-1.4-3.5
				L-648.3,565.1z"/>
			<path class="st5" d="M-638.4,566.2L-638.4,566.2l2.2-5.8h1.6v7.5h-1v-6.3h0l-2.5,6.3h-0.7l-2.5-6.3h0v6.3h-1v-7.5h1.6
				L-638.4,566.2z"/>
			<path class="st5" d="M-631.7,567.9h-1v-7.5h1V567.9z"/>
			<path class="st5" d="M-628.8,567h3.3v0.9h-4.4v-7.5h1V567z"/>
			<path class="st5" d="M-623.4,567.9h-1v-7.5h1V567.9z"/>
			<path class="st5" d="M-620.5,567h3.9v0.9h-5v-7.5h4.8v0.9h-3.8v2.2h3.5v0.9h-3.5V567z"/>
			<path class="st5" d="M-611.5,561.8c-0.1-0.2-0.3-0.4-0.6-0.5c-0.3-0.1-0.5-0.2-0.9-0.2c-0.2,0-0.3,0-0.5,0.1s-0.3,0.1-0.5,0.2
				c-0.1,0.1-0.3,0.2-0.3,0.4c-0.1,0.2-0.1,0.3-0.1,0.5c0,0.2,0,0.4,0.1,0.5c0.1,0.1,0.2,0.3,0.3,0.3s0.3,0.2,0.5,0.2
				c0.2,0.1,0.4,0.1,0.6,0.2c0.3,0.1,0.5,0.2,0.8,0.3s0.5,0.2,0.7,0.4c0.2,0.2,0.4,0.4,0.5,0.6c0.1,0.2,0.2,0.6,0.2,0.9
				c0,0.4-0.1,0.7-0.2,1c-0.1,0.3-0.3,0.5-0.6,0.7c-0.2,0.2-0.5,0.3-0.8,0.4c-0.3,0.1-0.6,0.1-1,0.1c-0.5,0-0.9-0.1-1.4-0.3
				c-0.4-0.2-0.8-0.5-1.1-0.8l0.8-0.7c0.2,0.3,0.4,0.5,0.7,0.6c0.3,0.2,0.6,0.2,1,0.2c0.2,0,0.4,0,0.5-0.1c0.2,0,0.3-0.1,0.5-0.2
				c0.1-0.1,0.3-0.2,0.4-0.4c0.1-0.2,0.1-0.4,0.1-0.6s0-0.4-0.1-0.6c-0.1-0.2-0.2-0.3-0.4-0.4s-0.4-0.2-0.6-0.3s-0.4-0.2-0.7-0.2
				c-0.2-0.1-0.5-0.2-0.7-0.3c-0.2-0.1-0.4-0.2-0.6-0.4c-0.2-0.2-0.3-0.4-0.4-0.6c-0.1-0.2-0.2-0.5-0.2-0.9c0-0.4,0.1-0.7,0.2-1
				c0.2-0.3,0.3-0.5,0.6-0.7c0.2-0.2,0.5-0.3,0.8-0.4s0.6-0.1,0.9-0.1c0.4,0,0.8,0.1,1.2,0.2s0.7,0.4,0.9,0.6L-611.5,561.8z"/>
			<path class="st5" d="M-654.9,575.2L-654.9,575.2l1.8-6h1.2l1.7,6h0l1.6-6h1.1l-2.2,7.5h-1.1l-1.8-6h0l-1.8,6h-1.1l-2.2-7.5h1.1
				L-654.9,575.2z"/>
			<path class="st5" d="M-645.4,576.7h-1v-7.5h1V576.7z"/>
			<path class="st5" d="M-640.9,576.7h-1v-6.6h-2.4v-0.9h5.8v0.9h-2.4V576.7z"/>
			<path class="st5" d="M-637.5,569.2h1v3.1h3.8v-3.1h1.1v7.5h-1.1v-3.4h-3.8v3.4h-1V569.2z"/>
			<path class="st5" d="M-622.3,573c0,0.6-0.1,1.1-0.3,1.6c-0.2,0.5-0.5,0.9-0.8,1.2c-0.4,0.3-0.8,0.6-1.3,0.8
				c-0.5,0.2-1,0.3-1.6,0.3s-1.1-0.1-1.6-0.3c-0.5-0.2-0.9-0.5-1.3-0.8c-0.4-0.3-0.6-0.8-0.8-1.2c-0.2-0.5-0.3-1-0.3-1.6
				c0-0.6,0.1-1.1,0.3-1.6c0.2-0.5,0.5-0.9,0.8-1.2c0.4-0.3,0.8-0.6,1.3-0.8s1-0.3,1.6-0.3s1.1,0.1,1.6,0.3s0.9,0.5,1.3,0.8
				s0.6,0.8,0.8,1.2C-622.4,571.9-622.3,572.4-622.3,573z M-623.4,573c0-0.4-0.1-0.8-0.2-1.2s-0.3-0.7-0.6-1
				c-0.2-0.3-0.5-0.5-0.9-0.7c-0.3-0.2-0.7-0.2-1.2-0.2c-0.4,0-0.8,0.1-1.2,0.2c-0.3,0.2-0.6,0.4-0.9,0.7c-0.2,0.3-0.4,0.6-0.6,1
				s-0.2,0.7-0.2,1.2c0,0.4,0.1,0.8,0.2,1.2c0.1,0.4,0.3,0.7,0.6,1c0.2,0.3,0.5,0.5,0.9,0.6s0.7,0.2,1.2,0.2c0.4,0,0.8-0.1,1.2-0.2
				c0.4-0.2,0.7-0.4,0.9-0.6c0.2-0.3,0.4-0.6,0.6-1C-623.5,573.8-623.4,573.4-623.4,573z"/>
			<path class="st5" d="M-618,576.9c-0.5,0-0.9-0.1-1.3-0.2c-0.4-0.2-0.7-0.4-0.9-0.7c-0.2-0.3-0.4-0.6-0.5-0.9
				c-0.1-0.4-0.2-0.7-0.2-1.1v-4.7h1v4.7c0,0.3,0,0.5,0.1,0.8s0.2,0.5,0.3,0.7c0.1,0.2,0.3,0.4,0.6,0.5s0.5,0.2,0.9,0.2
				c0.3,0,0.6-0.1,0.9-0.2c0.2-0.1,0.4-0.3,0.6-0.5c0.1-0.2,0.2-0.4,0.3-0.7s0.1-0.5,0.1-0.8v-4.7h1v4.7c0,0.4-0.1,0.8-0.2,1.1
				c-0.1,0.4-0.3,0.7-0.5,0.9c-0.2,0.3-0.5,0.5-0.9,0.7C-617.1,576.8-617.5,576.9-618,576.9z"/>
			<path class="st5" d="M-610.7,576.7h-1v-6.6h-2.4v-0.9h5.8v0.9h-2.4V576.7z"/>
			<path class="st5" d="M-652,584.4c-0.3,0.4-0.7,0.7-1.2,1c-0.5,0.3-1,0.4-1.7,0.4c-0.6,0-1.1-0.1-1.6-0.3
				c-0.5-0.2-0.9-0.5-1.2-0.8c-0.3-0.3-0.6-0.8-0.8-1.2c-0.2-0.5-0.3-1-0.3-1.6c0-0.6,0.1-1.1,0.3-1.6c0.2-0.5,0.5-0.9,0.8-1.2
				c0.4-0.3,0.8-0.6,1.3-0.8s1-0.3,1.6-0.3c0.3,0,0.5,0,0.8,0.1c0.3,0,0.5,0.1,0.8,0.2c0.2,0.1,0.5,0.2,0.7,0.4s0.4,0.3,0.5,0.5
				l-0.8,0.6c-0.2-0.3-0.4-0.5-0.8-0.6c-0.3-0.2-0.7-0.2-1.1-0.2c-0.4,0-0.8,0.1-1.2,0.2c-0.3,0.2-0.6,0.4-0.9,0.7
				c-0.2,0.3-0.4,0.6-0.6,1s-0.2,0.7-0.2,1.2c0,0.4,0.1,0.8,0.2,1.2c0.1,0.4,0.3,0.7,0.6,1c0.2,0.3,0.5,0.5,0.9,0.6
				c0.3,0.2,0.7,0.2,1.2,0.2c0.4,0,0.8-0.1,1.2-0.3s0.6-0.4,0.9-0.7L-652,584.4z"/>
			<path class="st5" d="M-651,578.1h1v3.1h3.8v-3.1h1.1v7.5h-1.1v-3.4h-3.8v3.4h-1V578.1z"/>
			<path class="st5" d="M-642.2,585.5h-1v-7.5h1V585.5z"/>
			<path class="st5" d="M-639.4,584.6h3.3v0.9h-4.4v-7.5h1V584.6z"/>
			<path class="st5" d="M-635,578.1h2.6c0.5,0,1,0.1,1.4,0.2c0.5,0.1,0.9,0.4,1.3,0.7c0.4,0.3,0.7,0.7,0.9,1.2
				c0.2,0.5,0.4,1,0.4,1.7c0,0.6-0.1,1.2-0.4,1.7c-0.2,0.5-0.6,0.9-0.9,1.2c-0.4,0.3-0.8,0.5-1.3,0.7s-1,0.2-1.4,0.2h-2.6V578.1z
				 M-633.9,584.6h1.3c0.5,0,0.9-0.1,1.3-0.2c0.4-0.1,0.7-0.3,1-0.5c0.3-0.2,0.5-0.5,0.7-0.9c0.2-0.4,0.2-0.8,0.2-1.2
				c0-0.5-0.1-0.9-0.2-1.2c-0.2-0.4-0.4-0.6-0.7-0.9s-0.6-0.4-1-0.5c-0.4-0.1-0.8-0.2-1.3-0.2h-1.3V584.6z"/>
			<path class="st5" d="M-625.9,585.5h-1v-7.5h2.4c0.4,0,0.7,0,1,0.1c0.3,0.1,0.6,0.2,0.9,0.4c0.2,0.2,0.4,0.4,0.6,0.6
				c0.1,0.3,0.2,0.6,0.2,1c0,0.5-0.2,1-0.5,1.3c-0.3,0.3-0.8,0.6-1.3,0.6l2.1,3.4h-1.3l-1.9-3.3h-1.1V585.5z M-625.9,581.3h1.2
				c0.2,0,0.5,0,0.7-0.1c0.2,0,0.4-0.1,0.6-0.2c0.2-0.1,0.3-0.2,0.4-0.4c0.1-0.2,0.1-0.3,0.1-0.6s0-0.4-0.1-0.6
				c-0.1-0.2-0.2-0.3-0.4-0.4c-0.2-0.1-0.3-0.2-0.5-0.2c-0.2,0-0.4-0.1-0.6-0.1h-1.3V581.3z"/>
			<path class="st5" d="M-619.4,584.6h3.9v0.9h-5v-7.5h4.8v0.9h-3.8v2.2h3.5v0.9h-3.5V584.6z"/>
			<path class="st5" d="M-608.8,584L-608.8,584l0-6h1v7.5h-1.3l-4-6.1h0v6.1h-1v-7.5h1.4L-608.8,584z"/>
		</g>
		<g>
			<path class="st5" d="M-644.7,605.8l-2.3,1.6l-2.2-3.4l4.9-3.1h4.3v13.9h-4.7V605.8z"/>
			<path class="st5" d="M-635.7,612.6c0-0.4,0.1-0.7,0.2-1c0.1-0.3,0.3-0.6,0.6-0.8c0.2-0.2,0.5-0.4,0.8-0.5c0.3-0.1,0.7-0.2,1-0.2
				c0.3,0,0.7,0.1,1,0.2c0.3,0.1,0.6,0.3,0.8,0.5c0.2,0.2,0.4,0.5,0.6,0.8c0.1,0.3,0.2,0.6,0.2,1s-0.1,0.7-0.2,1
				c-0.1,0.3-0.3,0.6-0.6,0.8s-0.5,0.4-0.8,0.5c-0.3,0.1-0.6,0.2-1,0.2c-0.4,0-0.7-0.1-1-0.2c-0.3-0.1-0.6-0.3-0.8-0.5
				s-0.4-0.5-0.6-0.8C-635.6,613.2-635.7,612.9-635.7,612.6z"/>
			<path class="st5" d="M-622.8,606.8c0.2-0.2,0.4-0.4,0.5-0.6c0.1-0.2,0.2-0.4,0.2-0.6c0-0.3-0.1-0.5-0.2-0.7
				c-0.2-0.2-0.4-0.3-0.8-0.3c-0.4,0-0.7,0.2-0.9,0.5c-0.2,0.3-0.4,0.7-0.4,1.2l-4.5-0.5c0.1-0.9,0.3-1.7,0.7-2.3
				c0.4-0.7,0.9-1.2,1.4-1.6c0.6-0.4,1.2-0.7,1.9-1s1.4-0.3,2.2-0.3c0.7,0,1.4,0.1,2,0.3s1.3,0.4,1.8,0.8c0.5,0.4,0.9,0.8,1.3,1.4
				c0.3,0.6,0.5,1.3,0.5,2.1c0,0.6-0.1,1.1-0.2,1.5s-0.4,0.8-0.6,1.2c-0.3,0.3-0.5,0.6-0.9,0.9c-0.3,0.3-0.7,0.5-1,0.8l-2,1.5h4.8
				v3.9h-11.3v-3.6L-622.8,606.8z"/>
			<path class="st5" d="M-652,622.4c-0.3,0.4-0.7,0.7-1.2,1c-0.5,0.3-1,0.4-1.7,0.4c-0.6,0-1.1-0.1-1.6-0.3
				c-0.5-0.2-0.9-0.5-1.2-0.8c-0.3-0.3-0.6-0.8-0.8-1.2c-0.2-0.5-0.3-1-0.3-1.6c0-0.6,0.1-1.1,0.3-1.6c0.2-0.5,0.5-0.9,0.8-1.2
				c0.4-0.3,0.8-0.6,1.3-0.8s1-0.3,1.6-0.3c0.3,0,0.5,0,0.8,0.1c0.3,0,0.5,0.1,0.8,0.2c0.2,0.1,0.5,0.2,0.7,0.4s0.4,0.3,0.5,0.5
				l-0.8,0.6c-0.2-0.3-0.4-0.5-0.8-0.6c-0.3-0.2-0.7-0.2-1.1-0.2c-0.4,0-0.8,0.1-1.2,0.2c-0.3,0.2-0.6,0.4-0.9,0.7
				c-0.2,0.3-0.4,0.6-0.6,1s-0.2,0.7-0.2,1.2c0,0.4,0.1,0.8,0.2,1.2c0.1,0.4,0.3,0.7,0.6,1c0.2,0.3,0.5,0.5,0.9,0.6
				c0.3,0.2,0.7,0.2,1.2,0.2c0.4,0,0.8-0.1,1.2-0.3s0.6-0.4,0.9-0.7L-652,622.4z"/>
			<path class="st5" d="M-651,616.1h1v3.1h3.8v-3.1h1.1v7.5h-1.1v-3.4h-3.8v3.4h-1V616.1z"/>
			<path class="st5" d="M-642.2,623.6h-1v-7.5h1V623.6z"/>
			<path class="st5" d="M-639.4,622.7h3.3v0.9h-4.4v-7.5h1V622.7z"/>
			<path class="st5" d="M-635,616.1h2.6c0.5,0,1,0.1,1.4,0.2c0.5,0.1,0.9,0.4,1.3,0.7c0.4,0.3,0.7,0.7,0.9,1.2
				c0.2,0.5,0.4,1,0.4,1.7c0,0.6-0.1,1.2-0.4,1.7c-0.2,0.5-0.6,0.9-0.9,1.2c-0.4,0.3-0.8,0.5-1.3,0.7s-1,0.2-1.4,0.2h-2.6V616.1z
				 M-633.9,622.7h1.3c0.5,0,0.9-0.1,1.3-0.2c0.4-0.1,0.7-0.3,1-0.5c0.3-0.2,0.5-0.5,0.7-0.9c0.2-0.4,0.2-0.8,0.2-1.2
				c0-0.5-0.1-0.9-0.2-1.2c-0.2-0.4-0.4-0.6-0.7-0.9s-0.6-0.4-1-0.5c-0.4-0.1-0.8-0.2-1.3-0.2h-1.3V622.7z"/>
			<path class="st5" d="M-625.9,623.6h-1v-7.5h2.4c0.4,0,0.7,0,1,0.1c0.3,0.1,0.6,0.2,0.9,0.4c0.2,0.2,0.4,0.4,0.6,0.6
				c0.1,0.3,0.2,0.6,0.2,1c0,0.5-0.2,1-0.5,1.3c-0.3,0.3-0.8,0.6-1.3,0.6l2.1,3.4h-1.3l-1.9-3.3h-1.1V623.6z M-625.9,619.4h1.2
				c0.2,0,0.5,0,0.7-0.1c0.2,0,0.4-0.1,0.6-0.2c0.2-0.1,0.3-0.2,0.4-0.4c0.1-0.2,0.1-0.3,0.1-0.6s0-0.4-0.1-0.6
				c-0.1-0.2-0.2-0.3-0.4-0.4c-0.2-0.1-0.3-0.2-0.5-0.2c-0.2,0-0.4-0.1-0.6-0.1h-1.3V619.4z"/>
			<path class="st5" d="M-619.4,622.7h3.9v0.9h-5v-7.5h4.8v0.9h-3.8v2.2h3.5v0.9h-3.5V622.7z"/>
			<path class="st5" d="M-608.8,622.1L-608.8,622.1l0-6h1v7.5h-1.3l-4-6.1h0v6.1h-1v-7.5h1.4L-608.8,622.1z"/>
			<path class="st5" d="M-641.8,624.9h2.3c0.4,0,0.8,0,1.1,0.1c0.3,0.1,0.6,0.2,0.8,0.4c0.2,0.2,0.4,0.4,0.5,0.6
				c0.1,0.3,0.2,0.6,0.2,0.9c0,0.4-0.1,0.7-0.2,1c-0.1,0.3-0.3,0.5-0.6,0.7c-0.2,0.2-0.5,0.3-0.9,0.4s-0.7,0.1-1.1,0.1h-1.2v3.3h-1
				V624.9z M-640.7,628.2h1.1c0.3,0,0.5,0,0.7-0.1c0.2,0,0.4-0.1,0.6-0.2c0.2-0.1,0.3-0.2,0.4-0.4c0.1-0.2,0.1-0.3,0.1-0.6
				c0-0.2,0-0.4-0.1-0.6c-0.1-0.2-0.2-0.3-0.4-0.4c-0.2-0.1-0.3-0.2-0.5-0.2c-0.2,0-0.4-0.1-0.7-0.1h-1.1V628.2z"/>
			<path class="st5" d="M-634.4,631.5h3.9v0.9h-5v-7.5h4.8v0.9h-3.8v2.2h3.5v0.9h-3.5V631.5z"/>
			<path class="st5" d="M-628.1,632.4h-1v-7.5h2.4c0.4,0,0.7,0,1,0.1c0.3,0.1,0.6,0.2,0.9,0.4c0.2,0.2,0.4,0.4,0.6,0.6
				c0.1,0.3,0.2,0.6,0.2,1c0,0.5-0.2,1-0.5,1.3c-0.3,0.3-0.8,0.6-1.3,0.6l2.1,3.4h-1.3l-1.9-3.3h-1.1V632.4z M-628.1,628.2h1.2
				c0.2,0,0.5,0,0.7-0.1c0.2,0,0.4-0.1,0.6-0.2c0.2-0.1,0.3-0.2,0.4-0.4c0.1-0.2,0.1-0.3,0.1-0.6s0-0.4-0.1-0.6
				c-0.1-0.2-0.2-0.3-0.4-0.4c-0.2-0.1-0.3-0.2-0.5-0.2c-0.2,0-0.4-0.1-0.6-0.1h-1.3V628.2z"/>
			<path class="st5" d="M-649.3,641.3h-1v-7.5h4.7v0.9h-3.6v2.3h3.4v0.9h-3.4V641.3z"/>
			<path class="st5" d="M-644.6,641.3h-1.2l3.2-7.5h1l3.2,7.5h-1.2l-0.8-1.8h-3.6L-644.6,641.3z M-643.4,638.5h2.8l-1.4-3.5
				L-643.4,638.5z"/>
			<path class="st5" d="M-633.5,639.5L-633.5,639.5l2.2-5.8h1.6v7.5h-1V635h0l-2.5,6.3h-0.7l-2.5-6.3h0v6.3h-1v-7.5h1.6
				L-633.5,639.5z"/>
			<path class="st5" d="M-626.8,641.3h-1v-7.5h1V641.3z"/>
			<path class="st5" d="M-623.9,640.3h3.3v0.9h-4.4v-7.5h1V640.3z"/>
			<path class="st5" d="M-617.5,641.3h-1.1V638l-2.8-4.3h1.3l2.1,3.4l2.1-3.4h1.2l-2.8,4.3V641.3z"/>
		</g>
	</g>
</g>
<g>
	<path class="st5" d="M-762.6,512.5h9.1v8.3h-9.1v10.2h-9.9v-30h20.2v8.4h-10.4V512.5z"/>
	<path class="st5" d="M-738.6,516.7c0-0.7-0.2-1.2-0.7-1.5c-0.5-0.3-1.1-0.5-1.8-0.5c-0.9,0-1.8,0.2-2.6,0.6
		c-0.8,0.4-1.5,0.8-2.1,1.3l-4.9-4.8c1.4-1.3,3-2.3,4.8-3c1.9-0.7,3.8-1.1,5.8-1.1c2.1,0,3.9,0.3,5.3,0.9c1.4,0.6,2.5,1.4,3.3,2.5
		c0.8,1,1.4,2.3,1.7,3.6c0.3,1.4,0.5,2.9,0.5,4.4v11.7h-8.9v-1.8h-0.1c-0.6,0.8-1.4,1.5-2.4,1.8c-1,0.4-2.1,0.6-3,0.6
		c-0.9,0-1.8-0.1-2.7-0.4c-0.9-0.3-1.8-0.7-2.5-1.2c-0.7-0.6-1.4-1.3-1.8-2.2c-0.5-0.9-0.7-2-0.7-3.3c0-1.6,0.4-2.8,1.2-3.8
		s1.8-1.7,3.1-2.3c1.2-0.6,2.6-0.9,4.2-1.1C-741.6,516.9-740.1,516.8-738.6,516.7L-738.6,516.7z M-738.5,521.6
		c-1.4,0-2.6,0.2-3.5,0.5c-0.9,0.3-1.3,0.9-1.3,1.7c0,0.3,0.1,0.6,0.2,0.8c0.1,0.2,0.3,0.4,0.6,0.5c0.2,0.1,0.5,0.2,0.7,0.3
		c0.3,0.1,0.5,0.1,0.7,0.1c0.9,0,1.7-0.3,2.2-0.9c0.6-0.6,0.8-1.4,0.8-2.3v-0.8H-738.5z"/>
	<path class="st5" d="M-711.7,530.9v-11.7c0-1.1-0.1-1.9-0.4-2.5c-0.3-0.5-0.7-0.8-1.4-0.8c-0.5,0-0.9,0.2-1.4,0.7
		c-0.4,0.5-0.7,1.3-0.7,2.4v11.8h-9.8v-22.3h9.5v2.5h0.1c0.3-0.4,0.6-0.7,1-1.1c0.4-0.4,0.9-0.7,1.4-1c0.5-0.3,1.1-0.5,1.8-0.7
		c0.6-0.2,1.4-0.3,2.1-0.3c1.5,0,2.7,0.3,3.8,0.8c1.1,0.5,1.9,1.3,2.5,2.4c0.7-0.9,1.6-1.7,2.7-2.3c1.1-0.6,2.4-0.9,4.1-0.9
		c1.6,0,2.9,0.3,3.9,0.9c1,0.6,1.8,1.4,2.5,2.3s1,1.9,1.3,3s0.4,2.1,0.4,3v13.6h-9.8V519c0-1.2-0.1-2-0.4-2.4
		c-0.3-0.4-0.8-0.6-1.4-0.6c-0.6,0-1,0.3-1.4,0.8c-0.4,0.5-0.6,1.3-0.6,2.3v11.8H-711.7z"/>
	<path class="st5" d="M-684.2,502.2c0-0.7,0.1-1.3,0.4-1.9c0.3-0.6,0.6-1.1,1.1-1.6c0.5-0.5,1-0.8,1.6-1.1c0.6-0.3,1.3-0.4,2-0.4
		c0.7,0,1.3,0.1,1.9,0.4c0.6,0.3,1.1,0.6,1.6,1.1c0.5,0.5,0.8,1,1.1,1.6c0.3,0.6,0.4,1.2,0.4,1.9c0,0.7-0.1,1.4-0.4,2
		c-0.3,0.6-0.6,1.1-1.1,1.6c-0.5,0.4-1,0.8-1.6,1c-0.6,0.3-1.2,0.4-1.9,0.4c-0.7,0-1.4-0.1-2-0.4c-0.6-0.3-1.2-0.6-1.6-1
		c-0.5-0.4-0.8-1-1.1-1.6C-684,503.5-684.2,502.9-684.2,502.2z M-684,508.6h9.8v22.3h-9.8V508.6z"/>
	<path class="st5" d="M-669.7,498.9h10v32h-10V498.9z"/>
	<path class="st5" d="M-655.3,502.2c0-0.7,0.1-1.3,0.4-1.9c0.3-0.6,0.6-1.1,1.1-1.6c0.5-0.5,1-0.8,1.6-1.1c0.6-0.3,1.3-0.4,2-0.4
		c0.7,0,1.3,0.1,1.9,0.4c0.6,0.3,1.1,0.6,1.6,1.1c0.5,0.5,0.8,1,1.1,1.6c0.3,0.6,0.4,1.2,0.4,1.9c0,0.7-0.1,1.4-0.4,2
		c-0.3,0.6-0.6,1.1-1.1,1.6c-0.5,0.4-1,0.8-1.6,1c-0.6,0.3-1.2,0.4-1.9,0.4c-0.7,0-1.4-0.1-2-0.4c-0.6-0.3-1.2-0.6-1.6-1
		c-0.5-0.4-0.8-1-1.1-1.6C-655.2,503.5-655.3,502.9-655.3,502.2z M-655.2,508.6h9.8v22.3h-9.8V508.6z"/>
	<path class="st5" d="M-617.6,519.9c0,0.4,0,0.7,0,1.1c0,0.4,0,0.7-0.1,1h-15c0,0.4,0.2,0.7,0.4,1.1c0.2,0.3,0.5,0.6,0.9,0.8
		c0.4,0.2,0.7,0.4,1.2,0.5c0.4,0.1,0.9,0.2,1.3,0.2c0.9,0,1.7-0.2,2.3-0.5c0.6-0.3,1.1-0.7,1.4-1.1l6.9,3.5c-1,1.6-2.4,2.9-4.3,3.8
		c-1.9,0.9-4.1,1.4-6.5,1.4c-1.6,0-3.2-0.3-4.7-0.8c-1.5-0.5-2.9-1.3-4-2.3c-1.2-1-2.1-2.3-2.8-3.7c-0.7-1.5-1.1-3.2-1.1-5.2
		c0-1.8,0.3-3.5,1-5c0.6-1.5,1.5-2.7,2.6-3.8c1.1-1,2.4-1.8,3.9-2.4c1.5-0.6,3.1-0.8,4.8-0.8c1.8,0,3.3,0.3,4.8,0.9
		c1.4,0.6,2.7,1.5,3.7,2.5c1,1.1,1.8,2.4,2.4,3.9C-617.9,516.6-617.6,518.2-617.6,519.9z M-626,516.8c0-0.8-0.3-1.4-0.9-1.9
		s-1.4-0.8-2.4-0.8c-1.1,0-1.9,0.3-2.5,0.9s-0.9,1.2-1,1.8H-626z"/>
	<path class="st5" d="M-595.9,523.8c0,1.5-0.3,2.8-0.9,3.8c-0.6,1-1.4,1.8-2.4,2.4c-1,0.6-2,1-3.2,1.3c-1.2,0.3-2.2,0.4-3.3,0.4
		c-1.9,0-3.8-0.3-5.7-0.8c-1.8-0.6-3.5-1.3-4.8-2.4l4.8-5.5c0.7,0.6,1.5,1.1,2.4,1.5c0.9,0.4,1.8,0.6,2.6,0.6c0.3,0,0.7-0.1,1-0.2
		c0.3-0.1,0.4-0.4,0.4-0.7c0-0.4-0.3-0.7-0.8-0.9c-0.5-0.2-1.4-0.5-2.7-0.8c-0.7-0.2-1.4-0.4-2.2-0.7c-0.7-0.3-1.4-0.8-2-1.3
		c-0.6-0.5-1.1-1.2-1.5-2c-0.4-0.8-0.6-1.7-0.6-2.8c0-1.4,0.3-2.7,1-3.7c0.6-1,1.4-1.8,2.4-2.5c1-0.6,2-1.1,3.2-1.4
		c1.1-0.3,2.2-0.4,3.2-0.4c1.7,0,3.4,0.3,5.1,0.8c1.7,0.5,3.2,1.2,4.6,2.1l-4.6,5.5c-0.7-0.5-1.4-0.8-2.2-1.1
		c-0.7-0.3-1.5-0.4-2.2-0.4c-0.5,0-0.9,0.1-1.2,0.2c-0.3,0.1-0.5,0.4-0.5,0.7c0,0.3,0.2,0.5,0.5,0.7c0.4,0.2,1.2,0.4,2.4,0.6
		c0.9,0.2,1.7,0.4,2.6,0.8c0.8,0.4,1.6,0.8,2.2,1.4c0.7,0.6,1.2,1.2,1.6,2C-596.1,521.8-595.9,522.7-595.9,523.8z"/>
</g>
<g>
	<g class="st6">
		<path class="st7" d="M-622.3,414.3c0-5.2-4.3-9.5-9.5-9.5c-1.9,0-18.2,0-20.1,0c-4,0-7.7,2.2-9.7,5.8l-1.4,2.6
			c0.5,1.3,0.8,2.7,0.8,4.1c0,2.3-0.8,4.5-2,6.3c1.5,0.1,2.8,0.5,4.1,1.2l5.6-10.4c0.1-0.3,0.4-0.4,0.7-0.3c0.3,0.1,0.5,0.3,0.5,0.6
			l0,67c0,2.7,2.2,4.8,4.8,4.8s4.8-2.2,4.8-4.8v-38.6h2.1v38.6c0,2.7,2.2,4.8,4.8,4.8s4.8-2.2,4.8-4.8c0-62.3-0.1-29.3-0.1-67.3
			c0-0.5,0.4-0.8,0.8-0.8c0.5,0,0.8,0.4,0.9,0.8l0.1,29.5c0,2.2,1.8,4,4,4c0,0,0,0,0,0c2.2,0,4-1.8,4-4L-622.3,414.3z"/>
		<path class="st7" d="M-665.2,427.3h-15.6c-3.8,0-6.8,3.1-6.9,6.8c0,1.2,0,0.2,0,5.7l-3.2-0.7c0,0-7.2-19.7-9.7-27.2
			c-1.9-5.5-5-8.3-9.4-8.3c-6,0-7.9,0-14.1,0c-4.3,0-7.5,2.8-9.4,8.3c-2.9,8.5-9.5,26.6-9.6,26.8c-0.8,2.1,0.3,4.4,2.4,5.2
			c2.1,0.8,4.4-0.3,5.2-2.4c0.1-0.2,4.8-13.2,8.1-22.4c-0.2,1.8,0.5-2-5.8,30.2c-0.3,1.4,0.8,2.7,2.2,2.7c0.9,0,1.9,0,3.1,0v29.4
			c0,2.7,2.2,4.9,4.9,4.9c2.7,0,4.9-2.2,4.9-4.9v-29.4c0.7,0,1.4,0,2.1,0v29.4c0,2.7,2.2,4.9,4.9,4.9s4.9-2.2,4.9-4.9v-29.4
			c1.2,0,2.2,0,3.1,0c1.4,0,2.5-1.3,2.2-2.7c-6.2-32.2-5.5-28.4-5.8-30.2c3.3,9.2,8,22.2,8.1,22.4c0.6,1.6,2.1,2.6,3.7,2.7
			c3.3,0.7,5.6,1.2,9.6,2c1.8,0.4,3.5-1,3.5-2.8c0,0,0-8.2,0.1-9.1c0-0.3,0.3-0.6,0.6-0.6c0.3,0,0.6,0.3,0.6,0.6
			c0,7.8,0,45.4,0,48.7c0,1.9,1.6,3.5,3.5,3.5s3.5-1.6,3.5-3.5c0-3.4,0-24.3,0-27.8h1.5c0,3.5,0,24.4,0,27.8c0,1.9,1.6,3.5,3.5,3.5
			s3.5-1.6,3.5-3.5c0-20,0-43.6-0.1-48.8c0-0.3,0.3-0.6,0.6-0.6s0.6,0.3,0.6,0.6l0.1,21.3c0,1.6,1.3,2.9,2.9,2.9c0,0,0,0,0,0
			c1.6,0,2.9-1.3,2.9-2.9c0,0,0,0,0,0c0-4.4-0.1-17.3-0.1-21.3C-658.3,430.4-661.4,427.3-665.2,427.3z"/>
		<circle class="st7" cx="-642.6" cy="392.8" r="8.3"/>
		<circle class="st7" cx="-672.9" cy="417.3" r="7.6"/>
		<path class="st7" d="M-717,401.1c4.7,0,8.4-3.8,8.4-8.4c0-4.6-3.8-8.4-8.4-8.4c-4.6,0-8.4,3.8-8.4,8.4
			C-725.4,397.3-721.7,401.1-717,401.1z"/>
	</g>
	<g>
		<path class="st8" d="M-626.3,410.3c0-5.2-4.3-9.5-9.5-9.5c-1.9,0-18.2,0-20.1,0c-4,0-7.7,2.2-9.7,5.8l-1.4,2.6
			c0.5,1.3,0.8,2.7,0.8,4.1c0,2.3-0.8,4.5-2,6.3c1.5,0.1,2.8,0.5,4.1,1.2l5.6-10.4c0.1-0.3,0.4-0.4,0.7-0.3c0.3,0.1,0.5,0.3,0.5,0.6
			l0,67c0,2.7,2.2,4.8,4.8,4.8s4.8-2.2,4.8-4.8v-38.6h2.1v38.6c0,2.7,2.2,4.8,4.8,4.8s4.8-2.2,4.8-4.8c0-62.3-0.1-29.3-0.1-67.3
			c0-0.5,0.4-0.8,0.8-0.8c0.5,0,0.8,0.4,0.9,0.8l0.1,29.5c0,2.2,1.8,4,4,4c0,0,0,0,0,0c2.2,0,4-1.8,4-4L-626.3,410.3z"/>
		<path class="st8" d="M-669.2,423.3h-15.6c-3.8,0-6.8,3.1-6.9,6.8c0,1.2,0,0.2,0,5.7l-3.2-0.7c0,0-7.2-19.7-9.7-27.2
			c-1.9-5.5-5-8.3-9.4-8.3c-6,0-7.9,0-14.1,0c-4.3,0-7.5,2.8-9.4,8.3c-2.9,8.5-9.5,26.6-9.6,26.8c-0.8,2.1,0.3,4.4,2.4,5.2
			c2.1,0.8,4.4-0.3,5.2-2.4c0.1-0.2,4.8-13.2,8.1-22.4c-0.2,1.8,0.5-2-5.8,30.2c-0.3,1.4,0.8,2.7,2.2,2.7c0.9,0,1.9,0,3.1,0v29.4
			c0,2.7,2.2,4.9,4.9,4.9c2.7,0,4.9-2.2,4.9-4.9v-29.4c0.7,0,1.4,0,2.1,0v29.4c0,2.7,2.2,4.9,4.9,4.9s4.9-2.2,4.9-4.9v-29.4
			c1.2,0,2.2,0,3.1,0c1.4,0,2.5-1.3,2.2-2.7c-6.2-32.2-5.5-28.4-5.8-30.2c3.3,9.2,8,22.2,8.1,22.4c0.6,1.6,2.1,2.6,3.7,2.7
			c3.3,0.7,5.6,1.2,9.6,2c1.8,0.4,3.5-1,3.5-2.8c0,0,0-8.2,0.1-9.1c0-0.3,0.3-0.6,0.6-0.6c0.3,0,0.6,0.3,0.6,0.6
			c0,7.8,0,45.4,0,48.7c0,1.9,1.6,3.5,3.5,3.5s3.5-1.6,3.5-3.5c0-3.4,0-24.3,0-27.8h1.5c0,3.5,0,24.4,0,27.8c0,1.9,1.6,3.5,3.5,3.5
			s3.5-1.6,3.5-3.5c0-20,0-43.6-0.1-48.8c0-0.3,0.3-0.6,0.6-0.6s0.6,0.3,0.6,0.6l0.1,21.3c0,1.6,1.3,2.9,2.9,2.9c0,0,0,0,0,0
			c1.6,0,2.9-1.3,2.9-2.9c0,0,0,0,0,0c0-4.4-0.1-17.3-0.1-21.3C-662.3,426.4-665.4,423.3-669.2,423.3z"/>
		<circle class="st8" cx="-646.6" cy="388.8" r="8.3"/>
		<circle class="st8" cx="-676.9" cy="413.3" r="7.6"/>
		<path class="st8" d="M-721,397.1c4.7,0,8.4-3.8,8.4-8.4c0-4.6-3.8-8.4-8.4-8.4c-4.6,0-8.4,3.8-8.4,8.4
			C-729.4,393.3-725.7,397.1-721,397.1z"/>
	</g>
</g>
</svg>
