<?xml version="1.0" encoding="utf-8"?>
<!-- Generator: Adobe Illustrator 19.0.0, SVG Export Plug-In . SVG Version: 6.00 Build 0)  -->
<svg version="1.1" id="Layer_1" xmlns="http://www.w3.org/2000/svg" xmlns:xlink="http://www.w3.org/1999/xlink" x="0px" y="0px"
	 viewBox="-367 268.9 358.3 296.8" style="enable-background:new -367 268.9 358.3 296.8;" xml:space="preserve">
<style type="text/css">
	.st0{fill:#8B5E3C;}
	.st1{fill:#A97C50;}
	.st2{fill:#414042;}
	.st3{fill:#009444;}
	.st4{fill:#603913;}
	.st5{enable-background:new    ;}
	.st6{fill:#FFFFFF;}
	.st7{fill:#FFE590;}
	.st8{fill:#48E5D9;}
</style>
<rect x="-292.1" y="484.7" class="st0" width="28.5" height="81"/>
<rect x="-112.4" y="484.7" class="st0" width="28.5" height="81"/>
<path class="st1" d="M-36.3,501.2h-303.7c-9.4,0-17-4-17-8.9V287.8c0-4.9,7.6-8.9,17-8.9h303.7c9.4,0,17,4,17,8.9v204.6
	C-19.5,497.3-26.9,501.2-36.3,501.2z"/>
<path class="st2" d="M-31,507.8h-313.7c-12.3,0-22.3-10-22.3-22.3V291.1c0-12.3,10-22.3,22.3-22.3H-31c12.3,0,22.3,10,22.3,22.3
	v194.5C-8.8,497.8-18.7,507.8-31,507.8z M-344.7,288.9c-1.3,0-2.3,1-2.3,2.3v194.5c0,1.2,1,2.3,2.3,2.3H-31c1.2,0,2.3-1,2.3-2.3
	V291.1c0-1.2-1-2.3-2.3-2.3H-344.7z"/>
<rect x="-298.9" y="546.8" class="st3" width="41.3" height="18.9"/>
<rect x="-118.8" y="546.8" class="st3" width="41.3" height="18.9"/>
<polygon class="st4" points="-292.1,508.3 -263.6,508.3 -263.6,528.9 "/>
<polygon class="st4" points="-112.4,508.2 -83.9,508.2 -83.9,528.9 "/>
<g>
	<g id="XMLID_11_">
		<g class="st5">
			<path class="st6" d="M-319.6,455.2v-0.1c0-4.8,2.5-7.7,6.8-9.5c-3.1-1.7-5.4-4.3-5.4-8.6v-0.1c0-6.3,6.1-11.1,15-11.1
				s15,4.7,15,11.1v0.1c0,4.3-2.4,6.9-5.4,8.6c4,1.9,6.8,4.5,6.8,9.5v0.1c0,7.1-6.8,11.7-16.3,11.7
				C-312.8,466.9-319.6,462.2-319.6,455.2z M-297.6,454.2v-0.1c0-2.6-2.4-4.3-5.7-4.3c-3.3,0-5.7,1.8-5.7,4.3v0.1
				c0,2.4,2,4.5,5.7,4.5S-297.6,456.6-297.6,454.2z M-298.4,438.3v-0.1c0-2.2-1.9-4.2-4.9-4.2c-3,0-4.9,1.9-4.9,4.1v0.1
				c0,2.5,1.9,4.4,4.9,4.4C-300.3,442.6-298.4,440.8-298.4,438.3z"/>
			<path class="st6" d="M-285.3,460.7l6.3-7.4c3.2,2.7,6.3,4.3,9.6,4.3c3.6,0,5.8-1.8,5.8-4.6v-0.1c0-2.8-2.4-4.6-5.8-4.6
				c-2.4,0-4.5,0.9-6.3,2l-6.5-3.6l1.1-20.1h26.5v9.1h-17.9l-0.3,6c1.8-0.9,3.7-1.4,6.3-1.4c7.1,0,13.6,4,13.6,12.6v0.1
				c0,8.8-6.7,14.1-16.4,14.1C-276.2,467-281.1,464.5-285.3,460.7z"/>
		</g>
		<g id="XMLID_18_">
			<g class="st5">
				<path class="st6" d="M-178.3,437.2l-6.7,1.5l-2.1-8.5l11.6-3.3h8v40h-10.8V437.2z"/>
				<path class="st6" d="M-161.7,461.4l6.3-7.4c3.2,2.7,6.3,4.3,9.6,4.3c3.6,0,5.8-1.8,5.8-4.6v-0.1c0-2.8-2.4-4.6-5.8-4.6
					c-2.4,0-4.5,0.9-6.3,2l-6.5-3.6l1.1-20.1h26.5v9.1h-17.9l-0.3,6c1.8-0.9,3.7-1.4,6.3-1.4c7.1,0,13.6,4,13.6,12.6v0.1
					c0,8.8-6.7,14.1-16.4,14.1C-152.6,467.7-157.5,465.3-161.7,461.4z"/>
			</g>
		</g>
		<g class="st5">
			<path class="st7" d="M-241.2,439.5h1.3l1.1,3.9l1.3-3.9h1.1l1.3,3.9l1.2-3.9h1.3l-1.9,5.7h-1.2l-1.3-3.9l-1.3,3.9h-1.2
				L-241.2,439.5z"/>
			<path class="st7" d="M-232.1,442.4L-232.1,442.4c0-1.6,1.3-3,3-3s3,1.3,3,2.9v0c0,1.6-1.3,3-3,3
				C-230.8,445.3-232.1,444-232.1,442.4z M-227.4,442.4L-227.4,442.4c0-1-0.7-1.8-1.7-1.8c-1,0-1.7,0.8-1.7,1.8v0
				c0,1,0.7,1.8,1.7,1.8C-228,444.2-227.4,443.4-227.4,442.4z"/>
			<path class="st7" d="M-224.8,443.2v-3.6h1.3v3.2c0,0.9,0.4,1.4,1.2,1.4c0.8,0,1.3-0.5,1.3-1.4v-3.2h1.3v5.7h-1.3v-0.9
				c-0.4,0.5-0.9,1-1.8,1C-224.1,445.3-224.8,444.5-224.8,443.2z"/>
			<path class="st7" d="M-218,437.4h1.3v7.8h-1.3V437.4z"/>
			<path class="st7" d="M-215.3,442.4L-215.3,442.4c0-1.9,1.3-3,2.6-3c0.9,0,1.5,0.5,1.9,1v-3.1h1.3v7.8h-1.3v-0.9
				c-0.4,0.6-1,1.1-1.9,1.1C-214,445.3-215.3,444.3-215.3,442.4z M-210.7,442.4L-210.7,442.4c0-1.1-0.8-1.8-1.6-1.8
				c-0.9,0-1.6,0.7-1.6,1.8v0c0,1.1,0.8,1.8,1.6,1.8C-211.5,444.2-210.7,443.5-210.7,442.4z"/>
		</g>
		<g class="st5">
			<path class="st7" d="M-239.5,457.2v0.9h-1.3v-7.8h1.3v3.1c0.4-0.6,1-1.1,1.9-1.1c1.3,0,2.6,1.1,2.6,2.9v0c0,1.9-1.3,2.9-2.6,2.9
				C-238.5,458.2-239.1,457.7-239.5,457.2z M-236.2,455.3L-236.2,455.3c0-1.1-0.7-1.8-1.6-1.8s-1.7,0.7-1.7,1.8v0
				c0,1.1,0.8,1.8,1.7,1.8C-237,457.1-236.2,456.4-236.2,455.3z"/>
			<path class="st7" d="M-233.9,455.3L-233.9,455.3c0-1.6,1.1-3,2.8-3c1.8,0,2.7,1.4,2.7,3.1c0,0.1,0,0.2,0,0.4h-4.2
				c0.1,0.9,0.8,1.4,1.6,1.4c0.6,0,1.1-0.2,1.5-0.7l0.8,0.7c-0.5,0.6-1.3,1.1-2.3,1.1C-232.6,458.2-233.9,457-233.9,455.3z
				 M-229.7,454.9c-0.1-0.8-0.6-1.5-1.4-1.5c-0.8,0-1.4,0.6-1.5,1.5H-229.7z"/>
			<path class="st7" d="M-224.3,452.4h1.3l1.1,3.9l1.3-3.9h1.1l1.3,3.9l1.2-3.9h1.3l-1.9,5.7h-1.2l-1.3-3.9l-1.3,3.9h-1.2
				L-224.3,452.4z"/>
			<path class="st7" d="M-214.6,450.3h1.3v3.1c0.4-0.5,0.9-1,1.8-1c1.3,0,2,0.9,2,2.2v3.6h-1.3v-3.2c0-0.9-0.4-1.4-1.2-1.4
				c-0.8,0-1.3,0.5-1.3,1.4v3.2h-1.3V450.3z"/>
			<path class="st7" d="M-207.9,450.3h1.4v1.2h-1.4V450.3z M-207.9,452.4h1.3v5.7h-1.3V452.4z"/>
			<path class="st7" d="M-204.6,456.5v-3h-0.7v-1.1h0.7v-1.6h1.3v1.6h1.5v1.1h-1.5v2.8c0,0.5,0.3,0.7,0.7,0.7c0.3,0,0.5-0.1,0.8-0.2
				v1.1c-0.3,0.2-0.7,0.3-1.2,0.3C-204,458.2-204.6,457.8-204.6,456.5z"/>
			<path class="st7" d="M-201,455.3L-201,455.3c0-1.6,1.1-3,2.8-3c1.8,0,2.7,1.4,2.7,3.1c0,0.1,0,0.2,0,0.4h-4.2
				c0.1,0.9,0.8,1.4,1.6,1.4c0.6,0,1.1-0.2,1.5-0.7l0.8,0.7c-0.5,0.6-1.3,1.1-2.3,1.1C-199.7,458.2-201,457-201,455.3z
				 M-196.8,454.9c-0.1-0.8-0.6-1.5-1.4-1.5c-0.8,0-1.4,0.6-1.5,1.5H-196.8z"/>
		</g>
		<g id="XMLID_12_">
			<g class="st5">
				<path class="st8" d="M-117.1,439.4h1.4l1.2,4l1.3-4h1.1l1.3,4l1.2-4h1.3l-1.9,5.9h-1.2l-1.3-4l-1.3,4h-1.2L-117.1,439.4z"/>
				<path class="st8" d="M-107.6,442.3L-107.6,442.3c0-1.7,1.3-3.1,3.1-3.1s3.1,1.4,3.1,3v0c0,1.7-1.3,3-3.1,3
					C-106.3,445.3-107.6,444-107.6,442.3z M-102.7,442.3L-102.7,442.3c0-1.1-0.7-1.9-1.8-1.9c-1.1,0-1.8,0.8-1.8,1.9v0
					c0,1,0.7,1.9,1.8,1.9C-103.4,444.2-102.7,443.3-102.7,442.3z"/>
				<path class="st8" d="M-100.1,443.1v-3.7h1.3v3.3c0,0.9,0.5,1.4,1.3,1.4c0.8,0,1.3-0.5,1.3-1.5v-3.3h1.3v5.8h-1.3v-0.9
					c-0.4,0.6-0.9,1-1.8,1C-99.3,445.3-100.1,444.4-100.1,443.1z"/>
				<path class="st8" d="M-93.1,437.1h1.3v8.1h-1.3V437.1z"/>
				<path class="st8" d="M-90.3,442.3L-90.3,442.3c0-2,1.3-3.1,2.7-3.1c1,0,1.6,0.5,2,1v-3.1h1.3v8.1h-1.3v-1c-0.4,0.6-1,1.1-2,1.1
					C-89,445.3-90.3,444.2-90.3,442.3z M-85.6,442.3L-85.6,442.3c0-1.2-0.8-1.9-1.7-1.9c-0.9,0-1.7,0.7-1.7,1.9v0
					c0,1.1,0.8,1.9,1.7,1.9C-86.4,444.2-85.6,443.4-85.6,442.3z"/>
				<path class="st8" d="M-77.9,444.3v0.9h-1.3v-8.1h1.3v3.2c0.4-0.6,1-1.1,2-1.1c1.4,0,2.7,1.1,2.7,3v0c0,1.9-1.3,3-2.7,3
					C-76.9,445.3-77.5,444.8-77.9,444.3z M-74.6,442.3L-74.6,442.3c0-1.2-0.8-1.9-1.7-1.9c-0.9,0-1.7,0.8-1.7,1.9v0
					c0,1.1,0.8,1.9,1.7,1.9C-75.3,444.2-74.6,443.5-74.6,442.3z"/>
				<path class="st8" d="M-72.2,442.3L-72.2,442.3c0-1.7,1.2-3.1,2.9-3.1c1.9,0,2.8,1.5,2.8,3.1c0,0.1,0,0.2,0,0.4h-4.3
					c0.1,1,0.8,1.5,1.7,1.5c0.7,0,1.1-0.2,1.6-0.7l0.8,0.7c-0.6,0.7-1.3,1.1-2.4,1.1C-70.9,445.3-72.2,444.1-72.2,442.3z
					 M-67.8,441.9c-0.1-0.9-0.6-1.5-1.5-1.5c-0.8,0-1.4,0.6-1.5,1.5H-67.8z"/>
			</g>
			<g class="st5">
				<path class="st8" d="M-116.6,452.6h1.3v0.9c0.4-0.6,0.9-1,1.8-1c1.3,0,2.1,0.9,2.1,2.2v3.7h-1.3v-3.3c0-0.9-0.5-1.4-1.3-1.4
					c-0.8,0-1.3,0.5-1.3,1.5v3.3h-1.3V452.6z"/>
				<path class="st8" d="M-110,455.6L-110,455.6c0-1.7,1.3-3.1,3.1-3.1s3.1,1.4,3.1,3v0c0,1.7-1.3,3-3.1,3
					C-108.7,458.6-110,457.3-110,455.6z M-105.1,455.6L-105.1,455.6c0-1.1-0.7-1.9-1.8-1.9c-1.1,0-1.8,0.8-1.8,1.9v0
					c0,1,0.7,1.9,1.8,1.9C-105.8,457.5-105.1,456.6-105.1,455.6z"/>
				<path class="st8" d="M-102.4,452.6h1.3v0.9c0.4-0.6,0.9-1,1.8-1c1.3,0,2.1,0.9,2.1,2.2v3.7h-1.3v-3.3c0-0.9-0.5-1.4-1.3-1.4
					c-0.8,0-1.3,0.5-1.3,1.5v3.3h-1.3V452.6z"/>
				<path class="st8" d="M-95.8,454.4h3.3v1.3h-3.3V454.4z"/>
				<path class="st8" d="M-91.6,452.6h1.4l1.2,4l1.3-4h1.1l1.3,4l1.2-4h1.3l-1.9,5.9h-1.2l-1.3-4l-1.3,4h-1.2L-91.6,452.6z"/>
				<path class="st8" d="M-81.6,450.4h1.3v3.1c0.4-0.6,0.9-1,1.8-1c1.3,0,2.1,0.9,2.1,2.2v3.7h-1.3v-3.3c0-0.9-0.5-1.4-1.3-1.4
					c-0.8,0-1.3,0.5-1.3,1.5v3.3h-1.3V450.4z"/>
				<path class="st8" d="M-74.7,450.5h1.4v1.3h-1.4V450.5z M-74.7,452.6h1.3v5.8h-1.3V452.6z"/>
				<path class="st8" d="M-71.3,456.9v-3.1h-0.7v-1.2h0.7V451h1.3v1.6h1.6v1.2H-70v2.9c0,0.5,0.3,0.7,0.7,0.7c0.3,0,0.6-0.1,0.8-0.2
					v1.1c-0.3,0.2-0.7,0.3-1.2,0.3C-70.6,458.6-71.3,458.2-71.3,456.9z"/>
				<path class="st8" d="M-67.5,455.6L-67.5,455.6c0-1.7,1.2-3.1,2.9-3.1c1.9,0,2.8,1.5,2.8,3.1c0,0.1,0,0.2,0,0.4h-4.3
					c0.1,1,0.8,1.5,1.7,1.5c0.7,0,1.1-0.2,1.6-0.7l0.8,0.7c-0.6,0.7-1.3,1.1-2.4,1.1C-66.2,458.6-67.5,457.4-67.5,455.6z
					 M-63.2,455.2c-0.1-0.9-0.6-1.5-1.5-1.5c-0.8,0-1.4,0.6-1.5,1.5H-63.2z"/>
			</g>
		</g>
	</g>
	<g id="XMLID_19_">
		<g>
			<path class="st7" d="M-311.2,314v5.8c0,0.6-0.4,1.1-1,1.1c-0.4,0-0.7-0.3-0.9-0.6c-0.1-0.2-0.1-0.3-0.1-0.5V314h-0.3v14.4
				c0,0.6-0.5,1.1-1,1.1c-0.6,0-1-0.5-1-1.1v-7.5h-0.4v7.5c0,0.6-0.5,1.1-1,1.1c-0.6,0-1-0.5-1-1.1v-8V314h-0.4v5.8
				c0,0.2,0,0.4-0.1,0.5c-0.2,0.4-0.5,0.6-0.9,0.6c-0.5,0-1-0.5-1-1.1V314c0-0.1,0-0.1,0-0.2c0.2-1.1,1.1-2,2.3-2l0,0h4.2l0,0
				c1.1,0,2.1,1,2.2,2l0,0C-311.2,313.9-311.2,313.9-311.2,314z M-315.5,307.1c-1.1,0-2.1,1-2.1,2c0,1.1,1,2,2,2c1.1,0,2-1,2-2
				C-313.5,308-314.3,307.1-315.5,307.1z"/>
			<path class="st7" d="M-300.3,314v5.8c0,0.6-0.4,1.1-1,1.1c-0.4,0-0.7-0.3-0.9-0.6c-0.1-0.2-0.1-0.3-0.1-0.5V314h-0.4v14.4
				c0,0.6-0.5,1.1-1,1.1c-0.6,0-1-0.5-1-1.1v-7.5h-0.3v7.5c0,0.6-0.5,1.1-1,1.1c-0.6,0-1-0.5-1-1.1v-8V314h-0.4v5.8
				c0,0.2,0,0.4-0.1,0.5c-0.2,0.4-0.5,0.6-0.9,0.6c-0.5,0-1-0.5-1-1.1V314c0-0.1,0-0.1,0-0.2c0.2-1.1,1.1-2,2.3-2l0,0h4.2l0,0
				c1.1,0,2.1,1,2.2,2l0,0C-300.3,313.9-300.3,313.9-300.3,314z M-304.6,307.1c-1.1,0-2,1-2,2c0,1.1,1,2,2,2c1.1,0,2-1,2-2
				C-302.5,308-303.5,307.1-304.6,307.1z"/>
			<path class="st7" d="M-289.3,314v5.8c0,0.6-0.4,1.1-1,1.1c-0.4,0-0.7-0.3-0.9-0.6c-0.1-0.2-0.1-0.3-0.1-0.5V314h-0.3v14.4
				c0,0.6-0.5,1.1-1,1.1c-0.6,0-1-0.5-1-1.1v-7.5h-0.3v7.5c0,0.6-0.5,1.1-1,1.1c-0.6,0-1-0.5-1-1.1v-8V314h-0.4v5.8
				c0,0.2,0,0.4-0.1,0.5c-0.2,0.4-0.5,0.6-0.9,0.6c-0.5,0-1-0.5-1-1.1V314c0-0.1,0-0.1,0-0.2c0.1-1.1,1.1-2,2.2-2l0,0h4.2l0,0
				c1.1,0,2.1,1,2.2,2l0,0C-289.3,313.9-289.3,313.9-289.3,314z M-293.6,307.1c-1.1,0-2,1-2,2c0,1.1,1,2,2,2c1.1,0,2-1,2-2
				C-291.6,308-292.5,307.1-293.6,307.1z"/>
			<path class="st7" d="M-278.4,314v5.8c0,0.6-0.4,1.1-1,1.1c-0.4,0-0.7-0.3-0.9-0.6c-0.1-0.2-0.1-0.3-0.1-0.5V314h-0.4v14.4
				c0,0.6-0.5,1.1-1,1.1c-0.6,0-1-0.5-1-1.1v-7.5h-0.3v7.5c0,0.6-0.5,1.1-1,1.1c-0.6,0-1-0.5-1-1.1v-8V314h-0.4v5.8
				c0,0.2,0,0.4-0.1,0.5c-0.2,0.4-0.5,0.6-0.9,0.6c-0.5,0-1-0.5-1-1.1V314c0-0.1,0-0.1,0-0.2c0.2-1.1,1.1-2,2.3-2l0,0h4.2l0,0
				c1.1,0,2.1,1,2.2,2l0,0C-278.4,313.9-278.4,313.9-278.4,314z M-282.7,307.1c-1.1,0-2,1-2,2c0,1.1,1,2,2,2c1.1,0,2-1,2-2
				C-280.6,308-281.6,307.1-282.7,307.1z"/>
			<path class="st7" d="M-267.5,314v5.8c0,0.6-0.4,1.1-1,1.1c-0.4,0-0.7-0.3-0.9-0.6c-0.1-0.2-0.1-0.3-0.1-0.5V314h-0.4v14.4
				c0,0.6-0.5,1.1-1,1.1c-0.6,0-1-0.5-1-1.1v-7.5h-0.3v7.5c0,0.6-0.5,1.1-1,1.1c-0.6,0-1-0.5-1-1.1v-8V314h-0.4v5.8
				c0,0.2,0,0.4-0.1,0.5c-0.2,0.4-0.5,0.6-0.9,0.6c-0.5,0-1-0.5-1-1.1V314c0-0.1,0-0.1,0-0.2c0.2-1.1,1.1-2,2.3-2l0,0h4.2l0,0
				c1.1,0,2.1,1,2.2,2l0,0C-267.5,313.9-267.5,313.9-267.5,314z M-271.8,307.1c-1.1,0-2,1-2,2c0,1.1,1,2,2,2c1.1,0,2-1,2-2
				C-269.8,308-270.6,307.1-271.8,307.1z"/>
			<path class="st7" d="M-256.6,314v5.8c0,0.6-0.4,1.1-1,1.1c-0.4,0-0.7-0.3-0.9-0.6c-0.1-0.2-0.1-0.3-0.1-0.5V314h-0.4v14.4
				c0,0.6-0.5,1.1-1,1.1c-0.6,0-1-0.5-1-1.1v-7.5h-0.2v7.5c0,0.6-0.5,1.1-1,1.1c-0.6,0-1-0.5-1-1.1v-8V314h-0.4v5.8
				c0,0.2,0,0.4-0.1,0.5c-0.2,0.4-0.5,0.6-0.9,0.6c-0.5,0-1-0.5-1-1.1V314c0-0.1,0-0.1,0-0.2c0.1-1.1,1.1-2,2.2-2l0,0h4.2l0,0
				c1.1,0,2.1,1,2.2,2l0,0C-256.6,313.9-256.6,313.9-256.6,314z M-260.9,307.1c-1.1,0-2,1-2,2c0,1.1,1,2,2,2c1.1,0,2-1,2-2
				C-258.8,308-259.7,307.1-260.9,307.1z"/>
			<path class="st7" d="M-245.6,314v5.8c0,0.6-0.4,1.1-1,1.1c-0.4,0-0.7-0.3-0.9-0.6c-0.1-0.2-0.1-0.3-0.1-0.5V314h-0.4v14.4
				c0,0.6-0.5,1.1-1,1.1c-0.6,0-1-0.5-1-1.1v-7.5h-0.3v7.5c0,0.6-0.5,1.1-1,1.1c-0.6,0-1-0.5-1-1.1v-8V314h-0.4v5.8
				c0,0.2,0,0.4-0.1,0.5c-0.2,0.4-0.5,0.6-0.9,0.6c-0.5,0-1-0.5-1-1.1V314c0-0.1,0-0.1,0-0.2c0.2-1.1,1.1-2,2.3-2l0,0h4.2l0,0
				c1.1,0,2.1,1,2.2,2l0,0C-245.6,313.9-245.6,313.9-245.6,314z M-249.9,307.1c-1.1,0-2,1-2,2c0,1.1,1,2,2,2c1.1,0,2-1,2-2
				C-247.9,308-248.8,307.1-249.9,307.1z"/>
			<path class="st7" d="M-234.7,314v5.8c0,0.6-0.4,1.1-1,1.1c-0.4,0-0.7-0.3-0.9-0.6c-0.1-0.2-0.1-0.3-0.1-0.5V314h-0.4v14.4
				c0,0.6-0.5,1.1-1,1.1c-0.6,0-1-0.5-1-1.1v-7.5h-0.3v7.5c0,0.6-0.5,1.1-1,1.1c-0.6,0-1-0.5-1-1.1v-8V314h-0.4v5.8
				c0,0.2,0,0.4-0.1,0.5c-0.2,0.4-0.5,0.6-0.9,0.6c-0.5,0-1-0.5-1-1.1V314c0-0.1,0-0.1,0-0.2c0.2-1.1,1.1-2,2.3-2l0,0h4.2l0,0
				c1.1,0,2.1,1,2.2,2l0,0C-234.7,313.9-234.7,313.9-234.7,314z M-239,307.1c-1.1,0-2,1-2,2c0,1.1,1,2,2,2c1.1,0,2-1,2-2
				C-236.9,308-237.9,307.1-239,307.1z"/>
			<path class="st7" d="M-223.7,314v5.8c0,0.6-0.4,1.1-1,1.1c-0.4,0-0.7-0.3-0.9-0.6c-0.1-0.2-0.1-0.3-0.1-0.5V314h-0.4v14.4
				c0,0.6-0.5,1.1-1,1.1c-0.6,0-1-0.5-1-1.1v-7.5h-0.3v7.5c0,0.6-0.5,1.1-1,1.1c-0.6,0-1-0.5-1-1.1v-8V314h-0.4v5.8
				c0,0.2,0,0.4-0.1,0.5c-0.2,0.4-0.5,0.6-0.9,0.6c-0.5,0-1-0.5-1-1.1V314c0-0.1,0-0.1,0-0.2c0.2-1.1,1.1-2,2.3-2l0,0h4.2l0,0
				c1.1,0,2.1,1,2.2,2l0,0C-223.7,313.9-223.7,313.9-223.7,314z M-228,307.1c-1.1,0-2,1-2,2c0,1.1,1,2,2,2c1.1,0,2-1,2-2
				C-226,308-226.9,307.1-228,307.1z"/>
			<path class="st7" d="M-212.8,314v5.8c0,0.6-0.4,1.1-1,1.1c-0.4,0-0.7-0.3-0.9-0.6c-0.1-0.2-0.1-0.3-0.1-0.5V314h-0.4v14.4
				c0,0.6-0.5,1.1-1,1.1c-0.6,0-1-0.5-1-1.1v-7.5h-0.3v7.5c0,0.6-0.5,1.1-1,1.1c-0.6,0-1-0.5-1-1.1v-8V314h-0.4v5.8
				c0,0.2,0,0.4-0.1,0.5c-0.2,0.4-0.5,0.6-0.9,0.6c-0.5,0-1-0.5-1-1.1V314c0-0.1,0-0.1,0-0.2c0.1-1.1,1.1-2,2.2-2l0,0h4.2l0,0
				c1.1,0,2.1,1,2.2,2l0,0C-212.8,313.9-212.8,313.9-212.8,314z M-217.1,307.1c-1.1,0-2,1-2,2c0,1.1,1,2,2,2c1.1,0,2-1,2-2
				C-215,308-216,307.1-217.1,307.1z"/>
			<path class="st7" d="M-201.9,314v5.8c0,0.6-0.4,1.1-1,1.1c-0.4,0-0.7-0.3-0.9-0.6c-0.1-0.2-0.1-0.3-0.1-0.5V314h-0.4v14.4
				c0,0.6-0.5,1.1-1,1.1c-0.6,0-1-0.5-1-1.1v-7.5h-0.3v7.5c0,0.6-0.5,1.1-1,1.1c-0.6,0-1-0.5-1-1.1v-8V314h-0.4v5.8
				c0,0.2,0,0.4-0.1,0.5c-0.2,0.4-0.5,0.6-0.9,0.6c-0.5,0-1-0.5-1-1.1V314c0-0.1,0-0.1,0-0.2c0.2-1.1,1.1-2,2.2-2l0,0h4.2l0,0
				c1.1,0,2.1,1,2.2,2l0,0C-201.9,313.9-201.9,313.9-201.9,314z M-206.2,307.1c-1.1,0-2,1-2,2c0,1.1,1,2,2,2c1.1,0,2-1,2-2
				C-204.2,308-205,307.1-206.2,307.1z"/>
			<path class="st7" d="M-191,314v5.8c0,0.6-0.4,1.1-1,1.1c-0.4,0-0.7-0.3-0.9-0.6c-0.1-0.2-0.1-0.3-0.1-0.5V314h-0.4v14.4
				c0,0.6-0.5,1.1-1,1.1c-0.6,0-1-0.5-1-1.1v-7.5h-0.3v7.5c0,0.6-0.5,1.1-1,1.1c-0.6,0-1-0.5-1-1.1v-8V314h-0.4v5.8
				c0,0.2,0,0.4-0.1,0.5c-0.2,0.4-0.5,0.6-0.9,0.6c-0.5,0-1-0.5-1-1.1V314c0-0.1,0-0.1,0-0.2c0.1-1.1,1.1-2,2.2-2l0,0h4.2l0,0
				c1.1,0,2.1,1,2.2,2l0,0C-191,313.9-191,313.9-191,314z M-195.3,307.1c-1.1,0-2,1-2,2c0,1.1,1,2,2,2c1.1,0,2-1,2-2
				C-193.2,308-194.1,307.1-195.3,307.1z"/>
			<path class="st7" d="M-180,314v5.8c0,0.6-0.4,1.1-1,1.1c-0.4,0-0.7-0.3-0.9-0.6c-0.1-0.2-0.1-0.3-0.1-0.5V314h-0.4v14.4
				c0,0.6-0.5,1.1-1,1.1c-0.6,0-1-0.5-1-1.1v-7.5h-0.3v7.5c0,0.6-0.5,1.1-1,1.1c-0.6,0-1-0.5-1-1.1v-8V314h-0.4v5.8
				c0,0.2,0,0.4-0.1,0.5c-0.2,0.4-0.5,0.6-0.9,0.6c-0.5,0-1-0.5-1-1.1V314c0-0.1,0-0.1,0-0.2c0.1-1.1,1.1-2,2.2-2l0,0h4.2l0,0
				c1.1,0,2.1,1,2.2,2l0,0C-180,313.9-180,313.9-180,314z M-184.3,307.1c-1.1,0-2,1-2,2c0,1.1,1,2,2,2c1.1,0,2-1,2-2
				C-182.3,308-183.2,307.1-184.3,307.1z"/>
			<path class="st7" d="M-169.1,314v5.8c0,0.6-0.4,1.1-1,1.1c-0.4,0-0.7-0.3-0.9-0.6c-0.1-0.2-0.1-0.3-0.1-0.5V314h-0.2v14.4
				c0,0.6-0.5,1.1-1,1.1c-0.6,0-1-0.5-1-1.1v-7.5h-0.3v7.5c0,0.6-0.5,1.1-1,1.1c-0.6,0-1-0.5-1-1.1v-8V314h-0.4v5.8
				c0,0.2,0,0.4-0.1,0.5c-0.2,0.4-0.5,0.6-0.9,0.6c-0.5,0-1-0.5-1-1.1V314c0-0.1,0-0.1,0-0.2c0.1-1.1,1.1-2,2.2-2l0,0h4.2l0,0
				c1.1,0,2.1,1,2.2,2l0,0C-169.1,313.9-169.1,313.9-169.1,314z M-173.4,307.1c-1.1,0-2,1-2,2c0,1.1,1,2,2,2c1.1,0,2-1,2-2
				C-171.3,308-172.3,307.1-173.4,307.1z"/>
			<path class="st7" d="M-158.1,314v5.8c0,0.6-0.4,1.1-1,1.1c-0.4,0-0.7-0.3-0.9-0.6c-0.1-0.2-0.1-0.3-0.1-0.5V314h-0.4v14.4
				c0,0.6-0.5,1.1-1,1.1c-0.6,0-1-0.5-1-1.1v-7.5h-0.3v7.5c0,0.6-0.5,1.1-1,1.1c-0.6,0-1-0.5-1-1.1v-8V314h-0.4v5.8
				c0,0.2,0,0.4-0.1,0.5c-0.2,0.4-0.5,0.6-0.9,0.6c-0.5,0-1-0.5-1-1.1V314c0-0.1,0-0.1,0-0.2c0.1-1.1,1.1-2,2.2-2l0,0h4.2l0,0
				c1.1,0,2.1,1,2.2,2l0,0C-158.1,313.9-158.1,313.9-158.1,314z M-162.4,307.1c-1.1,0-2.1,1-2.1,2c0,1.1,1,2,2,2c1.1,0,2-1,2-2
				C-160.4,308-161.3,307.1-162.4,307.1z"/>
			<path class="st7" d="M-147.2,314v5.8c0,0.6-0.4,1.1-1,1.1c-0.4,0-0.7-0.3-0.9-0.6c-0.1-0.2-0.1-0.3-0.1-0.5V314h-0.4v14.4
				c0,0.6-0.5,1.1-1,1.1c-0.6,0-1-0.5-1-1.1v-7.5h-0.3v7.5c0,0.6-0.5,1.1-1,1.1c-0.6,0-1-0.5-1-1.1v-8V314h-0.4v5.8
				c0,0.2,0,0.4-0.1,0.5c-0.2,0.4-0.5,0.6-0.9,0.6c-0.5,0-1-0.5-1-1.1V314c0-0.1,0-0.1,0-0.2c0.1-1.1,1.1-2,2.2-2l0,0h4.2l0,0
				c1.1,0,2.1,1,2.2,2l0,0C-147.2,313.9-147.2,313.9-147.2,314z M-151.5,307.1c-1.1,0-2,1-2,2c0,1.1,1,2,2,2c1.1,0,2-1,2-2
				C-149.4,308-150.4,307.1-151.5,307.1z"/>
			<path class="st7" d="M-136.3,314v5.8c0,0.6-0.4,1.1-1,1.1c-0.4,0-0.7-0.3-0.9-0.6c-0.1-0.2-0.1-0.3-0.1-0.5V314h-0.4v14.4
				c0,0.6-0.5,1.1-1,1.1c-0.6,0-1-0.5-1-1.1v-7.5h-0.3v7.5c0,0.6-0.5,1.1-1,1.1c-0.6,0-1-0.5-1-1.1v-8V314h-0.4v5.8
				c0,0.2,0,0.4-0.1,0.5c-0.2,0.4-0.5,0.6-0.9,0.6c-0.5,0-1-0.5-1-1.1V314c0-0.1,0-0.1,0-0.2c0.1-1.1,1.1-2,2.2-2l0,0h4.2l0,0
				c1.1,0,2.1,1,2.2,2l0,0C-136.3,313.9-136.3,313.9-136.3,314z M-140.6,307.1c-1.1,0-2,1-2,2c0,1.1,1,2,2,2c1.1,0,2-1,2-2
				C-138.6,308-139.4,307.1-140.6,307.1z"/>
			<path class="st7" d="M-125.4,314v5.8c0,0.6-0.4,1.1-1,1.1c-0.4,0-0.7-0.3-0.9-0.6c-0.1-0.2-0.1-0.3-0.1-0.5V314h-0.4v14.4
				c0,0.6-0.5,1.1-1,1.1c-0.6,0-1-0.5-1-1.1v-7.5h-0.3v7.5c0,0.6-0.5,1.1-1,1.1c-0.6,0-1-0.5-1-1.1v-8V314h-0.4v5.8
				c0,0.2,0,0.4-0.1,0.5c-0.2,0.4-0.5,0.6-0.9,0.6c-0.5,0-1-0.5-1-1.1V314c0-0.1,0-0.1,0-0.2c0.1-1.1,1.1-2,2.2-2l0,0h4.2l0,0
				c1.1,0,2.1,1,2.2,2l0,0C-125.4,313.9-125.4,313.9-125.4,314z M-129.7,307.1c-1.1,0-2,1-2,2c0,1.1,1,2,2,2c1.1,0,2-1,2-2
				C-127.6,308-128.5,307.1-129.7,307.1z"/>
			<path class="st7" d="M-114.4,314v5.8c0,0.6-0.4,1.1-1,1.1c-0.4,0-0.7-0.3-0.9-0.6c-0.1-0.2-0.1-0.3-0.1-0.5V314h-0.4v14.4
				c0,0.6-0.5,1.1-1,1.1c-0.6,0-1-0.5-1-1.1v-7.5h-0.3v7.5c0,0.6-0.5,1.1-1,1.1c-0.6,0-1-0.5-1-1.1v-8V314h-0.4v5.8
				c0,0.2,0,0.4-0.1,0.5c-0.2,0.4-0.5,0.6-0.9,0.6c-0.5,0-1-0.5-1-1.1V314c0-0.1,0-0.1,0-0.2c0.1-1.1,1.1-2,2.2-2l0,0h4.2l0,0
				c1.1,0,2.1,1,2.2,2l0,0C-114.4,313.9-114.4,313.9-114.4,314z M-118.7,307.1c-1.1,0-2,1-2,2c0,1.1,1,2,2,2c1.1,0,2-1,2-2
				C-116.7,308-117.6,307.1-118.7,307.1z"/>
			<path class="st7" d="M-103.5,314v5.8c0,0.6-0.4,1.1-1,1.1c-0.4,0-0.7-0.3-0.9-0.6c-0.1-0.2-0.1-0.3-0.1-0.5V314h-0.4v14.4
				c0,0.6-0.5,1.1-1,1.1c-0.6,0-1-0.5-1-1.1v-7.5h-0.3v7.5c0,0.6-0.5,1.1-1,1.1c-0.6,0-1-0.5-1-1.1v-8V314h-0.4v5.8
				c0,0.2,0,0.4-0.1,0.5c-0.2,0.4-0.5,0.6-0.9,0.6c-0.5,0-1-0.5-1-1.1V314c0-0.1,0-0.1,0-0.2c0.2-1.1,1.1-2,2.3-2l0,0h4.2l0,0
				c1.1,0,2.1,1,2.2,2l0,0C-103.5,313.9-103.5,313.9-103.5,314z M-107.8,307.1c-1.1,0-2,1-2,2c0,1.1,1,2,2,2s2-1,2-2
				C-105.7,308-106.7,307.1-107.8,307.1z"/>
			<path class="st7" d="M-92.5,314v5.8c0,0.6-0.4,1.1-1,1.1c-0.4,0-0.7-0.3-0.9-0.6c-0.1-0.2-0.1-0.3-0.1-0.5V314h-0.4v14.4
				c0,0.6-0.5,1.1-1,1.1c-0.6,0-1-0.5-1-1.1v-7.5H-97v7.5c0,0.6-0.5,1.1-1,1.1c-0.6,0-1-0.5-1-1.1v-8V314h-0.4v5.8
				c0,0.2,0,0.4-0.1,0.5c-0.2,0.4-0.5,0.6-0.9,0.6c-0.5,0-1-0.5-1-1.1V314c0-0.1,0-0.1,0-0.2c0.1-1.1,1.1-2,2.2-2l0,0h4.2l0,0
				c1.1,0,2.1,1,2.2,2l0,0C-92.5,313.9-92.5,313.9-92.5,314z M-96.8,307.1c-1.1,0-2,1-2,2c0,1.1,1,2,2,2c1.1,0,2-1,2-2
				C-94.8,308-95.7,307.1-96.8,307.1z"/>
			<path class="st7" d="M-81.7,314v5.8c0,0.6-0.4,1.1-1,1.1c-0.4,0-0.7-0.3-0.9-0.6c-0.1-0.2-0.1-0.3-0.1-0.5V314h-0.4v14.4
				c0,0.6-0.5,1.1-1,1.1c-0.6,0-1-0.5-1-1.1v-7.5h-0.3v7.5c0,0.6-0.5,1.1-1,1.1c-0.6,0-1-0.5-1-1.1v-8V314h-0.4v5.8
				c0,0.2,0,0.4-0.1,0.5c-0.2,0.4-0.5,0.6-0.9,0.6c-0.5,0-1-0.5-1-1.1V314c0-0.1,0-0.1,0-0.2c0.1-1.1,1.1-2,2.2-2l0,0h4.2l0,0
				c1.1,0,2.1,1,2.2,2l0,0C-81.7,313.9-81.7,313.9-81.7,314z M-85.9,307.1c-1.1,0-2,1-2,2c0,1.1,1,2,2,2c1.1,0,2-1,2-2
				C-83.8,308-84.8,307.1-85.9,307.1z"/>
			<path class="st7" d="M-70.7,314v5.8c0,0.6-0.4,1.1-1,1.1c-0.4,0-0.7-0.3-0.9-0.6c-0.1-0.2-0.1-0.3-0.1-0.5V314h-0.3v14.4
				c0,0.6-0.5,1.1-1,1.1c-0.6,0-1-0.5-1-1.1v-7.5h-0.3v7.5c0,0.6-0.5,1.1-1,1.1c-0.5,0-1-0.5-1-1.1v-8V314h-0.4v5.8
				c0,0.2,0,0.4-0.1,0.5c-0.2,0.4-0.5,0.6-0.9,0.6c-0.5,0-1-0.5-1-1.1V314c0-0.1,0-0.1,0-0.2c0.1-1.1,1.1-2,2.2-2l0,0h4.2l0,0
				c1.1,0,2.1,1,2.2,2l0,0C-70.7,313.9-70.7,313.9-70.7,314z M-75,307.1c-1.1,0-2,1-2,2c0,1.1,1,2,2,2c1.1,0,2-1,2-2
				C-73,308-73.8,307.1-75,307.1z"/>
			<path class="st7" d="M-59.8,314v5.8c0,0.6-0.4,1.1-1,1.1c-0.4,0-0.7-0.3-0.9-0.6c-0.1-0.2-0.1-0.3-0.1-0.5V314h-0.4v14.4
				c0,0.6-0.5,1.1-1,1.1c-0.6,0-1-0.5-1-1.1v-7.5h-0.3v7.5c0,0.6-0.5,1.1-1,1.1c-0.6,0-1-0.5-1-1.1v-8V314h-0.4v5.8
				c0,0.2,0,0.4-0.1,0.5c-0.2,0.4-0.5,0.6-0.9,0.6c-0.5,0-1-0.5-1-1.1V314c0-0.1,0-0.1,0-0.2c0.1-1.1,1.1-2,2.2-2l0,0h4.2l0,0
				c1.1,0,2.1,1,2.2,2l0,0C-59.8,313.9-59.8,313.9-59.8,314z M-64.1,307.1c-1.1,0-2,1-2,2c0,1.1,1,2,2,2c1.1,0,2-1,2-2
				C-62,308-62.9,307.1-64.1,307.1z"/>
			<path class="st7" d="M-48.8,314v5.8c0,0.6-0.4,1.1-1,1.1c-0.4,0-0.7-0.3-0.9-0.6c-0.1-0.2-0.1-0.3-0.1-0.5V314h-0.4v14.4
				c0,0.6-0.5,1.1-1,1.1c-0.6,0-1-0.5-1-1.1v-7.5h-0.3v7.5c0,0.6-0.5,1.1-1,1.1c-0.6,0-1-0.5-1-1.1v-8V314h-0.4v5.8
				c0,0.2,0,0.4-0.1,0.5c-0.2,0.4-0.5,0.6-0.9,0.6c-0.5,0-1-0.5-1-1.1V314c0-0.1,0-0.1,0-0.2c0.1-1.1,1.1-2,2.2-2l0,0h4.2l0,0
				c1.1,0,2.1,1,2.2,2l0,0C-48.8,313.9-48.8,313.9-48.8,314z M-53.1,307.1c-1.1,0-2,1-2,2c0,1.1,1,2,2,2c1.1,0,2-1,2-2
				C-51.1,308-52,307.1-53.1,307.1z"/>
			<path class="st7" d="M-311.2,339.2v5.8c0,0.6-0.4,1.1-1,1.1c-0.4,0-0.7-0.3-0.9-0.6c-0.1-0.2-0.1-0.3-0.1-0.5v-5.8h-0.3v14.4
				c0,0.6-0.5,1.1-1,1.1c-0.6,0-1-0.5-1-1.1v-7.5h-0.4v7.5c0,0.6-0.5,1.1-1,1.1c-0.6,0-1-0.5-1-1.1v-8v-6.3h-0.4v5.8
				c0,0.2,0,0.4-0.1,0.5c-0.2,0.4-0.5,0.6-0.9,0.6c-0.5,0-1-0.5-1-1.1v-5.8c0-0.1,0-0.1,0-0.2c0.1-1.1,1.1-2,2.2-2l0,0h4.2l0,0
				C-312.3,337.1-311.4,338.1-311.2,339.2L-311.2,339.2C-311.2,339.1-311.2,339.2-311.2,339.2z M-315.5,332.4c-1.1,0-2,1-2,2
				c0,1.1,1,2,2,2c1.1,0,2-1,2-2C-313.5,333.2-314.3,332.4-315.5,332.4z"/>
			<path class="st7" d="M-300.3,339.2v5.8c0,0.6-0.4,1.1-1,1.1c-0.4,0-0.7-0.3-0.9-0.6c-0.1-0.2-0.1-0.3-0.1-0.5v-5.8h-0.4v14.4
				c0,0.6-0.5,1.1-1,1.1c-0.6,0-1-0.5-1-1.1v-7.5h-0.3v7.5c0,0.6-0.5,1.1-1,1.1c-0.6,0-1-0.5-1-1.1v-8v-6.3h-0.4v5.8
				c0,0.2,0,0.4-0.1,0.5c-0.2,0.4-0.5,0.6-0.9,0.6c-0.5,0-1-0.5-1-1.1v-5.8c0-0.1,0-0.1,0-0.2c0.1-1.1,1.1-2,2.2-2l0,0h4.2l0,0
				C-301.5,337.1-300.5,338.1-300.3,339.2L-300.3,339.2C-300.3,339.1-300.3,339.2-300.3,339.2z M-304.6,332.4c-1.1,0-2,1-2,2
				c0,1.1,1,2,2,2c1.1,0,2-1,2-2C-302.5,333.2-303.5,332.4-304.6,332.4z"/>
			<path class="st7" d="M-289.3,339.2v5.8c0,0.6-0.4,1.1-1,1.1c-0.4,0-0.7-0.3-0.9-0.6c-0.1-0.2-0.1-0.3-0.1-0.5v-5.8h-0.3v14.4
				c0,0.6-0.5,1.1-1,1.1c-0.6,0-1-0.5-1-1.1v-7.5h-0.3v7.5c0,0.6-0.5,1.1-1,1.1c-0.6,0-1-0.5-1-1.1v-8v-6.3h-0.4v5.8
				c0,0.2,0,0.4-0.1,0.5c-0.2,0.4-0.5,0.6-0.9,0.6c-0.5,0-1-0.5-1-1.1v-5.8c0-0.1,0-0.1,0-0.2c0.1-1.1,1.1-2,2.2-2l0,0h4.2l0,0
				C-290.4,337.1-289.4,338.1-289.3,339.2L-289.3,339.2C-289.3,339.1-289.3,339.2-289.3,339.2z M-293.6,332.4c-1.1,0-2,1-2,2
				c0,1.1,1,2,2,2c1.1,0,2-1,2-2C-291.6,333.2-292.5,332.4-293.6,332.4z"/>
			<path class="st7" d="M-278.4,339.2v5.8c0,0.6-0.4,1.1-1,1.1c-0.4,0-0.7-0.3-0.9-0.6c-0.1-0.2-0.1-0.3-0.1-0.5v-5.8h-0.4v14.4
				c0,0.6-0.5,1.1-1,1.1c-0.6,0-1-0.5-1-1.1v-7.5h-0.3v7.5c0,0.6-0.5,1.1-1,1.1c-0.6,0-1-0.5-1-1.1v-8v-6.3h-0.4v5.8
				c0,0.2,0,0.4-0.1,0.5c-0.2,0.4-0.5,0.6-0.9,0.6c-0.5,0-1-0.5-1-1.1v-5.8c0-0.1,0-0.1,0-0.2c0.1-1.1,1.1-2,2.2-2l0,0h4.2l0,0
				C-279.6,337.1-278.6,338.1-278.4,339.2L-278.4,339.2C-278.4,339.1-278.4,339.2-278.4,339.2z M-282.7,332.4c-1.1,0-2,1-2,2
				c0,1.1,1,2,2,2c1.1,0,2-1,2-2C-280.6,333.2-281.6,332.4-282.7,332.4z"/>
			<path class="st7" d="M-267.5,339.2v5.8c0,0.6-0.4,1.1-1,1.1c-0.4,0-0.7-0.3-0.9-0.6c-0.1-0.2-0.1-0.3-0.1-0.5v-5.8h-0.4v14.4
				c0,0.6-0.5,1.1-1,1.1c-0.6,0-1-0.5-1-1.1v-7.5h-0.3v7.5c0,0.6-0.5,1.1-1,1.1c-0.6,0-1-0.5-1-1.1v-8v-6.3h-0.4v5.8
				c0,0.2,0,0.4-0.1,0.5c-0.2,0.4-0.5,0.6-0.9,0.6c-0.5,0-1-0.5-1-1.1v-5.8c0-0.1,0-0.1,0-0.2c0.1-1.1,1.1-2,2.2-2l0,0h4.2l0,0
				C-268.6,337.1-267.7,338.1-267.5,339.2L-267.5,339.2C-267.5,339.1-267.5,339.2-267.5,339.2z M-271.8,332.4c-1.1,0-2,1-2,2
				c0,1.1,1,2,2,2c1.1,0,2-1,2-2C-269.8,333.2-270.6,332.4-271.8,332.4z"/>
			<path class="st7" d="M-256.6,339.2v5.8c0,0.6-0.4,1.1-1,1.1c-0.4,0-0.7-0.3-0.9-0.6c-0.1-0.2-0.1-0.3-0.1-0.5v-5.8h-0.4v14.4
				c0,0.6-0.5,1.1-1,1.1c-0.6,0-1-0.5-1-1.1v-7.5h-0.2v7.5c0,0.6-0.5,1.1-1,1.1c-0.6,0-1-0.5-1-1.1v-8v-6.3h-0.4v5.8
				c0,0.2,0,0.4-0.1,0.5c-0.2,0.4-0.5,0.6-0.9,0.6c-0.5,0-1-0.5-1-1.1v-5.8c0-0.1,0-0.1,0-0.2c0.1-1.1,1.1-2,2.2-2l0,0h4.2l0,0
				C-257.6,337.1-256.7,338.1-256.6,339.2L-256.6,339.2C-256.6,339.1-256.6,339.2-256.6,339.2z M-260.9,332.4c-1.1,0-2,1-2,2
				c0,1.1,1,2,2,2c1.1,0,2-1,2-2C-258.8,333.2-259.7,332.4-260.9,332.4z"/>
			<path class="st7" d="M-245.6,339.2v5.8c0,0.6-0.4,1.1-1,1.1c-0.4,0-0.7-0.3-0.9-0.6c-0.1-0.2-0.1-0.3-0.1-0.5v-5.8h-0.4v14.4
				c0,0.6-0.5,1.1-1,1.1c-0.6,0-1-0.5-1-1.1v-7.5h-0.3v7.5c0,0.6-0.5,1.1-1,1.1c-0.6,0-1-0.5-1-1.1v-8v-6.3h-0.4v5.8
				c0,0.2,0,0.4-0.1,0.5c-0.2,0.4-0.5,0.6-0.9,0.6c-0.5,0-1-0.5-1-1.1v-5.8c0-0.1,0-0.1,0-0.2c0.1-1.1,1.1-2,2.2-2l0,0h4.2l0,0
				C-246.7,337.1-245.8,338.1-245.6,339.2L-245.6,339.2C-245.6,339.1-245.6,339.2-245.6,339.2z M-249.9,332.4c-1.1,0-2,1-2,2
				c0,1.1,1,2,2,2c1.1,0,2-1,2-2C-247.9,333.2-248.8,332.4-249.9,332.4z"/>
			<path class="st7" d="M-234.7,339.2v5.8c0,0.6-0.4,1.1-1,1.1c-0.4,0-0.7-0.3-0.9-0.6c-0.1-0.2-0.1-0.3-0.1-0.5v-5.8h-0.4v14.4
				c0,0.6-0.5,1.1-1,1.1c-0.6,0-1-0.5-1-1.1v-7.5h-0.3v7.5c0,0.6-0.5,1.1-1,1.1c-0.6,0-1-0.5-1-1.1v-8v-6.3h-0.4v5.8
				c0,0.2,0,0.4-0.1,0.5c-0.2,0.4-0.5,0.6-0.9,0.6c-0.5,0-1-0.5-1-1.1v-5.8c0-0.1,0-0.1,0-0.2c0.1-1.1,1.1-2,2.2-2l0,0h4.2l0,0
				C-235.9,337.1-234.9,338.1-234.7,339.2L-234.7,339.2C-234.7,339.1-234.7,339.2-234.7,339.2z M-239,332.4c-1.1,0-2,1-2,2
				c0,1.1,1,2,2,2c1.1,0,2-1,2-2C-236.9,333.2-237.9,332.4-239,332.4z"/>
			<path class="st7" d="M-223.7,339.2v5.8c0,0.6-0.4,1.1-1,1.1c-0.4,0-0.7-0.3-0.9-0.6c-0.1-0.2-0.1-0.3-0.1-0.5v-5.8h-0.4v14.4
				c0,0.6-0.5,1.1-1,1.1c-0.6,0-1-0.5-1-1.1v-7.5h-0.3v7.5c0,0.6-0.5,1.1-1,1.1c-0.6,0-1-0.5-1-1.1v-8v-6.3h-0.4v5.8
				c0,0.2,0,0.4-0.1,0.5c-0.2,0.4-0.5,0.6-0.9,0.6c-0.5,0-1-0.5-1-1.1v-5.8c0-0.1,0-0.1,0-0.2c0.1-1.1,1.1-2,2.2-2l0,0h4.2l0,0
				C-224.9,337.1-223.9,338.1-223.7,339.2L-223.7,339.2C-223.7,339.1-223.7,339.2-223.7,339.2z M-228,332.4c-1.1,0-2,1-2,2
				c0,1.1,1,2,2,2c1.1,0,2-1,2-2C-226,333.2-226.9,332.4-228,332.4z"/>
			<path class="st7" d="M-212.8,339.2v5.8c0,0.6-0.4,1.1-1,1.1c-0.4,0-0.7-0.3-0.9-0.6c-0.1-0.2-0.1-0.3-0.1-0.5v-5.8h-0.4v14.4
				c0,0.6-0.5,1.1-1,1.1c-0.6,0-1-0.5-1-1.1v-7.5h-0.3v7.5c0,0.6-0.5,1.1-1,1.1c-0.6,0-1-0.5-1-1.1v-8v-6.3h-0.4v5.8
				c0,0.2,0,0.4-0.1,0.5c-0.2,0.4-0.5,0.6-0.9,0.6c-0.5,0-1-0.5-1-1.1v-5.8c0-0.1,0-0.1,0-0.2c0.1-1.1,1.1-2,2.2-2l0,0h4.2l0,0
				C-214,337.1-213,338.1-212.8,339.2L-212.8,339.2C-212.8,339.1-212.8,339.2-212.8,339.2z M-217.1,332.4c-1.1,0-2,1-2,2
				c0,1.1,1,2,2,2c1.1,0,2-1,2-2C-215,333.2-216,332.4-217.1,332.4z"/>
			<path class="st7" d="M-201.9,339.2v5.8c0,0.6-0.4,1.1-1,1.1c-0.4,0-0.7-0.3-0.9-0.6c-0.1-0.2-0.1-0.3-0.1-0.5v-5.8h-0.4v14.4
				c0,0.6-0.5,1.1-1,1.1c-0.6,0-1-0.5-1-1.1v-7.5h-0.3v7.5c0,0.6-0.5,1.1-1,1.1c-0.6,0-1-0.5-1-1.1v-8v-6.3h-0.4v5.8
				c0,0.2,0,0.4-0.1,0.5c-0.2,0.4-0.5,0.6-0.9,0.6c-0.5,0-1-0.5-1-1.1v-5.8c0-0.1,0-0.1,0-0.2c0.1-1.1,1.1-2,2.2-2l0,0h4.2l0,0
				C-203,337.1-202.1,338.1-201.9,339.2L-201.9,339.2C-201.9,339.1-201.9,339.2-201.9,339.2z M-206.2,332.4c-1.1,0-2,1-2,2
				c0,1.1,1,2,2,2c1.1,0,2-1,2-2C-204.2,333.2-205,332.4-206.2,332.4z"/>
			<path class="st7" d="M-191,339.2v5.8c0,0.6-0.4,1.1-1,1.1c-0.4,0-0.7-0.3-0.9-0.6c-0.1-0.2-0.1-0.3-0.1-0.5v-5.8h-0.4v14.4
				c0,0.6-0.5,1.1-1,1.1c-0.6,0-1-0.5-1-1.1v-7.5h-0.3v7.5c0,0.6-0.5,1.1-1,1.1c-0.6,0-1-0.5-1-1.1v-8v-6.3h-0.4v5.8
				c0,0.2,0,0.4-0.1,0.5c-0.2,0.4-0.5,0.6-0.9,0.6c-0.5,0-1-0.5-1-1.1v-5.8c0-0.1,0-0.1,0-0.2c0.1-1.1,1.1-2,2.2-2l0,0h4.2l0,0
				C-192.1,337.1-191.2,338.1-191,339.2L-191,339.2C-191,339.1-191,339.2-191,339.2z M-195.3,332.4c-1.1,0-2,1-2,2c0,1.1,1,2,2,2
				c1.1,0,2-1,2-2C-193.2,333.2-194.1,332.4-195.3,332.4z"/>
			<path class="st7" d="M-180,339.2v5.8c0,0.6-0.4,1.1-1,1.1c-0.4,0-0.7-0.3-0.9-0.6c-0.1-0.2-0.1-0.3-0.1-0.5v-5.8h-0.4v14.4
				c0,0.6-0.5,1.1-1,1.1c-0.6,0-1-0.5-1-1.1v-7.5h-0.3v7.5c0,0.6-0.5,1.1-1,1.1c-0.6,0-1-0.5-1-1.1v-8v-6.3h-0.4v5.8
				c0,0.2,0,0.4-0.1,0.5c-0.2,0.4-0.5,0.6-0.9,0.6c-0.5,0-1-0.5-1-1.1v-5.8c0-0.1,0-0.1,0-0.2c0.1-1.1,1.1-2,2.2-2l0,0h4.2l0,0
				C-181.1,337.1-180.2,338.1-180,339.2L-180,339.2C-180,339.1-180,339.2-180,339.2z M-184.3,332.4c-1.1,0-2,1-2,2c0,1.1,1,2,2,2
				c1.1,0,2-1,2-2C-182.3,333.2-183.2,332.4-184.3,332.4z"/>
			<path class="st7" d="M-169.1,339.2v5.8c0,0.6-0.4,1.1-1,1.1c-0.4,0-0.7-0.3-0.9-0.6c-0.1-0.2-0.1-0.3-0.1-0.5v-5.8h-0.2v14.4
				c0,0.6-0.5,1.1-1,1.1c-0.6,0-1-0.5-1-1.1v-7.5h-0.3v7.5c0,0.6-0.5,1.1-1,1.1c-0.6,0-1-0.5-1-1.1v-8v-6.3h-0.4v5.8
				c0,0.2,0,0.4-0.1,0.5c-0.2,0.4-0.5,0.6-0.9,0.6c-0.5,0-1-0.5-1-1.1v-5.8c0-0.1,0-0.1,0-0.2c0.1-1.1,1.1-2,2.2-2l0,0h4.2l0,0
				C-170.1,337.1-169.1,338.1-169.1,339.2L-169.1,339.2C-169.1,339.1-169.1,339.2-169.1,339.2z M-173.4,332.4c-1.1,0-2,1-2,2
				c0,1.1,1,2,2,2c1.1,0,2-1,2-2C-171.3,333.2-172.3,332.4-173.4,332.4z"/>
			<path class="st7" d="M-158.1,339.2v5.8c0,0.6-0.4,1.1-1,1.1c-0.4,0-0.7-0.3-0.9-0.6c-0.1-0.2-0.1-0.3-0.1-0.5v-5.8h-0.4v14.4
				c0,0.6-0.5,1.1-1,1.1c-0.6,0-1-0.5-1-1.1v-7.5h-0.3v7.5c0,0.6-0.5,1.1-1,1.1c-0.6,0-1-0.5-1-1.1v-8v-6.3h-0.4v5.8
				c0,0.2,0,0.4-0.1,0.5c-0.2,0.4-0.5,0.6-0.9,0.6c-0.5,0-1-0.5-1-1.1v-5.8c0-0.1,0-0.1,0-0.2c0.1-1.1,1.1-2,2.2-2l0,0h4.2l0,0
				C-159.3,337.1-158.3,338.1-158.1,339.2L-158.1,339.2C-158.1,339.1-158.1,339.2-158.1,339.2z M-162.4,332.4c-1.1,0-2,1-2,2
				c0,1.1,1,2,2,2c1.1,0,2-1,2-2C-160.4,333.2-161.3,332.4-162.4,332.4z"/>
			<path class="st7" d="M-147.2,339.2v5.8c0,0.6-0.4,1.1-1,1.1c-0.4,0-0.7-0.3-0.9-0.6c-0.1-0.2-0.1-0.3-0.1-0.5v-5.8h-0.4v14.4
				c0,0.6-0.5,1.1-1,1.1c-0.6,0-1-0.5-1-1.1v-7.5h-0.3v7.5c0,0.6-0.5,1.1-1,1.1c-0.6,0-1-0.5-1-1.1v-8v-6.3h-0.4v5.8
				c0,0.2,0,0.4-0.1,0.5c-0.2,0.4-0.5,0.6-0.9,0.6c-0.5,0-1-0.5-1-1.1v-5.8c0-0.1,0-0.1,0-0.2c0.1-1.1,1.1-2,2.2-2l0,0h4.2l0,0
				C-148.4,337.1-147.4,338.1-147.2,339.2L-147.2,339.2C-147.2,339.1-147.2,339.2-147.2,339.2z M-151.5,332.4c-1.1,0-2,1-2,2
				c0,1.1,1,2,2,2c1.1,0,2-1,2-2C-149.4,333.2-150.4,332.4-151.5,332.4z"/>
			<path class="st7" d="M-136.3,339.2v5.8c0,0.6-0.4,1.1-1,1.1c-0.4,0-0.7-0.3-0.9-0.6c-0.1-0.2-0.1-0.3-0.1-0.5v-5.8h-0.4v14.4
				c0,0.6-0.5,1.1-1,1.1c-0.6,0-1-0.5-1-1.1v-7.5h-0.3v7.5c0,0.6-0.5,1.1-1,1.1c-0.6,0-1-0.5-1-1.1v-8v-6.3h-0.4v5.8
				c0,0.2,0,0.4-0.1,0.5c-0.2,0.4-0.5,0.6-0.9,0.6c-0.5,0-1-0.5-1-1.1v-5.8c0-0.1,0-0.1,0-0.2c0.1-1.1,1.1-2,2.2-2l0,0h4.2l0,0
				C-137.4,337.1-136.5,338.1-136.3,339.2L-136.3,339.2C-136.3,339.1-136.3,339.2-136.3,339.2z M-140.6,332.4c-1.1,0-2,1-2,2
				c0,1.1,1,2,2,2c1.1,0,2-1,2-2C-138.6,333.2-139.4,332.4-140.6,332.4z"/>
			<path class="st7" d="M-125.4,339.2v5.8c0,0.6-0.4,1.1-1,1.1c-0.4,0-0.7-0.3-0.9-0.6c-0.1-0.2-0.1-0.3-0.1-0.5v-5.8h-0.4v14.4
				c0,0.6-0.5,1.1-1,1.1c-0.6,0-1-0.5-1-1.1v-7.5h-0.3v7.5c0,0.6-0.5,1.1-1,1.1c-0.6,0-1-0.5-1-1.1v-8v-6.3h-0.4v5.8
				c0,0.2,0,0.4-0.1,0.5c-0.2,0.4-0.5,0.6-0.9,0.6c-0.5,0-1-0.5-1-1.1v-5.8c0-0.1,0-0.1,0-0.2c0.1-1.1,1.1-2,2.2-2l0,0h4.2l0,0
				C-126.5,337.1-125.6,338.1-125.4,339.2L-125.4,339.2C-125.4,339.1-125.4,339.2-125.4,339.2z M-129.7,332.4c-1.1,0-2,1-2,2
				c0,1.1,1,2,2,2c1.1,0,2-1,2-2C-127.6,333.2-128.5,332.4-129.7,332.4z"/>
			<path class="st7" d="M-114.4,339.2v5.8c0,0.6-0.4,1.1-1,1.1c-0.4,0-0.7-0.3-0.9-0.6c-0.1-0.2-0.1-0.3-0.1-0.5v-5.8h-0.4v14.4
				c0,0.6-0.5,1.1-1,1.1c-0.6,0-1-0.5-1-1.1v-7.5h-0.3v7.5c0,0.6-0.5,1.1-1,1.1c-0.6,0-1-0.5-1-1.1v-8v-6.3h-0.4v5.8
				c0,0.2,0,0.4-0.1,0.5c-0.2,0.4-0.5,0.6-0.9,0.6c-0.5,0-1-0.5-1-1.1v-5.8c0-0.1,0-0.1,0-0.2c0.1-1.1,1.1-2,2.2-2l0,0h4.2l0,0
				C-115.5,337.1-114.6,338.1-114.4,339.2L-114.4,339.2C-114.4,339.1-114.4,339.2-114.4,339.2z M-118.7,332.4c-1.1,0-2,1-2,2
				c0,1.1,1,2,2,2c1.1,0,2-1,2-2C-116.7,333.2-117.6,332.4-118.7,332.4z"/>
			<path class="st7" d="M-103.5,339.2v5.8c0,0.6-0.4,1.1-1,1.1c-0.4,0-0.7-0.3-0.9-0.6c-0.1-0.2-0.1-0.3-0.1-0.5v-5.8h-0.4v14.4
				c0,0.6-0.5,1.1-1,1.1c-0.6,0-1-0.5-1-1.1v-7.5h-0.3v7.5c0,0.6-0.5,1.1-1,1.1c-0.6,0-1-0.5-1-1.1v-8v-6.3h-0.4v5.8
				c0,0.2,0,0.4-0.1,0.5c-0.2,0.4-0.5,0.6-0.9,0.6c-0.5,0-1-0.5-1-1.1v-5.8c0-0.1,0-0.1,0-0.2c0.1-1.1,1.1-2,2.2-2l0,0h4.2l0,0
				C-104.7,337.1-103.7,338.1-103.5,339.2L-103.5,339.2C-103.5,339.1-103.5,339.2-103.5,339.2z M-107.8,332.4c-1.1,0-2,1-2,2
				c0,1.1,1,2,2,2s2-1,2-2C-105.7,333.2-106.7,332.4-107.8,332.4z"/>
			<path class="st7" d="M-92.5,339.2v5.8c0,0.6-0.4,1.1-1,1.1c-0.4,0-0.7-0.3-0.9-0.6c-0.1-0.2-0.1-0.3-0.1-0.5v-5.8h-0.4v14.4
				c0,0.6-0.5,1.1-1,1.1c-0.6,0-1-0.5-1-1.1v-7.5H-97v7.5c0,0.6-0.5,1.1-1,1.1c-0.6,0-1-0.5-1-1.1v-8v-6.3h-0.4v5.8
				c0,0.2,0,0.4-0.1,0.5c-0.2,0.4-0.5,0.6-0.9,0.6c-0.5,0-1-0.5-1-1.1v-5.8c0-0.1,0-0.1,0-0.2c0.1-1.1,1.1-2,2.2-2l0,0h4.2l0,0
				C-93.7,337.1-92.7,338.1-92.5,339.2L-92.5,339.2C-92.5,339.1-92.5,339.2-92.5,339.2z M-96.8,332.4c-1.1,0-2,1-2,2c0,1.1,1,2,2,2
				c1.1,0,2-1,2-2C-94.8,333.2-95.7,332.4-96.8,332.4z"/>
			<path class="st7" d="M-81.7,339.2v5.8c0,0.6-0.4,1.1-1,1.1c-0.4,0-0.7-0.3-0.9-0.6c-0.1-0.2-0.1-0.3-0.1-0.5v-5.8h-0.4v14.4
				c0,0.6-0.5,1.1-1,1.1c-0.6,0-1-0.5-1-1.1v-7.5h-0.3v7.5c0,0.6-0.5,1.1-1,1.1c-0.6,0-1-0.5-1-1.1v-8v-6.3h-0.4v5.8
				c0,0.2,0,0.4-0.1,0.5c-0.2,0.4-0.5,0.6-0.9,0.6c-0.5,0-1-0.5-1-1.1v-5.8c0-0.1,0-0.1,0-0.2c0.1-1.1,1.1-2,2.2-2l0,0h4.2l0,0
				C-82.8,337.1-81.8,338.1-81.7,339.2L-81.7,339.2C-81.7,339.1-81.7,339.2-81.7,339.2z M-85.9,332.4c-1.1,0-2,1-2,2c0,1.1,1,2,2,2
				c1.1,0,2-1,2-2C-83.8,333.2-84.8,332.4-85.9,332.4z"/>
			<path class="st7" d="M-70.7,339.2v5.8c0,0.6-0.4,1.1-1,1.1c-0.4,0-0.7-0.3-0.9-0.6c-0.1-0.2-0.1-0.3-0.1-0.5v-5.8h-0.3v14.4
				c0,0.6-0.5,1.1-1,1.1c-0.6,0-1-0.5-1-1.1v-7.5h-0.3v7.5c0,0.6-0.5,1.1-1,1.1c-0.5,0-1-0.5-1-1.1v-8v-6.3h-0.4v5.8
				c0,0.2,0,0.4-0.1,0.5c-0.2,0.4-0.5,0.6-0.9,0.6c-0.5,0-1-0.5-1-1.1v-5.8c0-0.1,0-0.1,0-0.2c0.1-1.1,1.1-2,2.2-2l0,0h4.2l0,0
				C-71.7,337.1-70.8,338.1-70.7,339.2L-70.7,339.2C-70.7,339.1-70.7,339.2-70.7,339.2z M-75,332.4c-1.1,0-2,1-2,2c0,1.1,1,2,2,2
				c1.1,0,2-1,2-2C-73,333.2-73.8,332.4-75,332.4z"/>
			<path class="st7" d="M-59.8,339.2v5.8c0,0.6-0.4,1.1-1,1.1c-0.4,0-0.7-0.3-0.9-0.6c-0.1-0.2-0.1-0.3-0.1-0.5v-5.8h-0.4v14.4
				c0,0.6-0.5,1.1-1,1.1c-0.6,0-1-0.5-1-1.1v-7.5h-0.3v7.5c0,0.6-0.5,1.1-1,1.1c-0.6,0-1-0.5-1-1.1v-8v-6.3h-0.4v5.8
				c0,0.2,0,0.4-0.1,0.5c-0.2,0.4-0.5,0.6-0.9,0.6c-0.5,0-1-0.5-1-1.1v-5.8c0-0.1,0-0.1,0-0.2c0.1-1.1,1.1-2,2.2-2l0,0h4.2l0,0
				C-60.9,337.1-60,338.1-59.8,339.2L-59.8,339.2C-59.8,339.1-59.8,339.2-59.8,339.2z M-64.1,332.4c-1.1,0-2,1-2,2c0,1.1,1,2,2,2
				c1.1,0,2-1,2-2C-62,333.2-62.9,332.4-64.1,332.4z"/>
			<path class="st7" d="M-48.8,339.2v5.8c0,0.6-0.4,1.1-1,1.1c-0.4,0-0.7-0.3-0.9-0.6c-0.1-0.2-0.1-0.3-0.1-0.5v-5.8h-0.4v14.4
				c0,0.6-0.5,1.1-1,1.1c-0.6,0-1-0.5-1-1.1v-7.5h-0.3v7.5c0,0.6-0.5,1.1-1,1.1c-0.6,0-1-0.5-1-1.1v-8v-6.3h-0.4v5.8
				c0,0.2,0,0.4-0.1,0.5c-0.2,0.4-0.5,0.6-0.9,0.6c-0.5,0-1-0.5-1-1.1v-5.8c0-0.1,0-0.1,0-0.2c0.1-1.1,1.1-2,2.2-2l0,0h4.2l0,0
				C-49.9,337.1-49,338.1-48.8,339.2L-48.8,339.2C-48.8,339.1-48.8,339.2-48.8,339.2z M-53.1,332.4c-1.1,0-2,1-2,2c0,1.1,1,2,2,2
				c1.1,0,2-1,2-2C-51.1,333.2-52,332.4-53.1,332.4z"/>
			<path class="st7" d="M-311.2,364.5v5.8c0,0.6-0.4,1.1-1,1.1c-0.4,0-0.7-0.3-0.9-0.6c-0.1-0.2-0.1-0.3-0.1-0.5v-5.8h-0.3V379
				c0,0.6-0.5,1.1-1,1.1c-0.6,0-1-0.5-1-1.1v-7.5h-0.4v7.5c0,0.6-0.5,1.1-1,1.1c-0.6,0-1-0.5-1-1.1v-8v-6.3h-0.4v5.8
				c0,0.2,0,0.4-0.1,0.5c-0.2,0.4-0.5,0.6-0.9,0.6c-0.5,0-1-0.5-1-1.1v-5.8c0-0.1,0-0.1,0-0.2c0.1-1.1,1.1-2,2.2-2l0,0h4.2l0,0
				C-312.3,362.4-311.4,363.4-311.2,364.5L-311.2,364.5C-311.2,364.4-311.2,364.4-311.2,364.5z M-315.5,357.6c-1.1,0-2,1-2,2
				c0,1.1,1,2,2,2c1.1,0,2-1,2-2C-313.5,358.5-314.3,357.6-315.5,357.6z"/>
			<path class="st7" d="M-300.3,364.5v5.8c0,0.6-0.4,1.1-1,1.1c-0.4,0-0.7-0.3-0.9-0.6c-0.1-0.2-0.1-0.3-0.1-0.5v-5.8h-0.4V379
				c0,0.6-0.5,1.1-1,1.1c-0.6,0-1-0.5-1-1.1v-7.5h-0.3v7.5c0,0.6-0.5,1.1-1,1.1c-0.6,0-1-0.5-1-1.1v-8v-6.3h-0.4v5.8
				c0,0.2,0,0.4-0.1,0.5c-0.2,0.4-0.5,0.6-0.9,0.6c-0.5,0-1-0.5-1-1.1v-5.8c0-0.1,0-0.1,0-0.2c0.1-1.1,1.1-2,2.2-2l0,0h4.2l0,0
				C-301.5,362.4-300.5,363.4-300.3,364.5L-300.3,364.5C-300.3,364.4-300.3,364.4-300.3,364.5z M-304.6,357.6c-1.1,0-2,1-2,2
				c0,1.1,1,2,2,2c1.1,0,2-1,2-2C-302.5,358.5-303.5,357.6-304.6,357.6z"/>
			<path class="st7" d="M-289.3,364.5v5.8c0,0.6-0.4,1.1-1,1.1c-0.4,0-0.7-0.3-0.9-0.6c-0.1-0.2-0.1-0.3-0.1-0.5v-5.8h-0.3V379
				c0,0.6-0.5,1.1-1,1.1c-0.6,0-1-0.5-1-1.1v-7.5h-0.3v7.5c0,0.6-0.5,1.1-1,1.1c-0.6,0-1-0.5-1-1.1v-8v-6.3h-0.4v5.8
				c0,0.2,0,0.4-0.1,0.5c-0.2,0.4-0.5,0.6-0.9,0.6c-0.5,0-1-0.5-1-1.1v-5.8c0-0.1,0-0.1,0-0.2c0.1-1.1,1.1-2,2.2-2l0,0h4.2l0,0
				C-290.4,362.4-289.4,363.4-289.3,364.5L-289.3,364.5C-289.3,364.4-289.3,364.4-289.3,364.5z M-293.6,357.6c-1.1,0-2,1-2,2
				c0,1.1,1,2,2,2c1.1,0,2-1,2-2C-291.6,358.5-292.5,357.6-293.6,357.6z"/>
			<path class="st7" d="M-278.4,364.5v5.8c0,0.6-0.4,1.1-1,1.1c-0.4,0-0.7-0.3-0.9-0.6c-0.1-0.2-0.1-0.3-0.1-0.5v-5.8h-0.4V379
				c0,0.6-0.5,1.1-1,1.1c-0.6,0-1-0.5-1-1.1v-7.5h-0.3v7.5c0,0.6-0.5,1.1-1,1.1c-0.6,0-1-0.5-1-1.1v-8v-6.3h-0.4v5.8
				c0,0.2,0,0.4-0.1,0.5c-0.2,0.4-0.5,0.6-0.9,0.6c-0.5,0-1-0.5-1-1.1v-5.8c0-0.1,0-0.1,0-0.2c0.1-1.1,1.1-2,2.2-2l0,0h4.2l0,0
				C-279.6,362.4-278.6,363.4-278.4,364.5L-278.4,364.5C-278.4,364.4-278.4,364.4-278.4,364.5z M-282.7,357.6c-1.1,0-2,1-2,2
				c0,1.1,1,2,2,2c1.1,0,2-1,2-2C-280.6,358.5-281.6,357.6-282.7,357.6z"/>
			<path class="st7" d="M-267.5,364.5v5.8c0,0.6-0.4,1.1-1,1.1c-0.4,0-0.7-0.3-0.9-0.6c-0.1-0.2-0.1-0.3-0.1-0.5v-5.8h-0.4V379
				c0,0.6-0.5,1.1-1,1.1c-0.6,0-1-0.5-1-1.1v-7.5h-0.3v7.5c0,0.6-0.5,1.1-1,1.1c-0.6,0-1-0.5-1-1.1v-8v-6.3h-0.4v5.8
				c0,0.2,0,0.4-0.1,0.5c-0.2,0.4-0.5,0.6-0.9,0.6c-0.5,0-1-0.5-1-1.1v-5.8c0-0.1,0-0.1,0-0.2c0.1-1.1,1.1-2,2.2-2l0,0h4.2l0,0
				C-268.6,362.4-267.7,363.4-267.5,364.5L-267.5,364.5C-267.5,364.4-267.5,364.4-267.5,364.5z M-271.8,357.6c-1.1,0-2,1-2,2
				c0,1.1,1,2,2,2c1.1,0,2-1,2-2C-269.8,358.5-270.6,357.6-271.8,357.6z"/>
			<path class="st7" d="M-256.6,364.5v5.8c0,0.6-0.4,1.1-1,1.1c-0.4,0-0.7-0.3-0.9-0.6c-0.1-0.2-0.1-0.3-0.1-0.5v-5.8h-0.4V379
				c0,0.6-0.5,1.1-1,1.1c-0.6,0-1-0.5-1-1.1v-7.5h-0.2v7.5c0,0.6-0.5,1.1-1,1.1c-0.6,0-1-0.5-1-1.1v-8v-6.3h-0.4v5.8
				c0,0.2,0,0.4-0.1,0.5c-0.2,0.4-0.5,0.6-0.9,0.6c-0.5,0-1-0.5-1-1.1v-5.8c0-0.1,0-0.1,0-0.2c0.1-1.1,1.1-2,2.2-2l0,0h4.2l0,0
				C-257.6,362.4-256.7,363.4-256.6,364.5L-256.6,364.5C-256.6,364.4-256.6,364.4-256.6,364.5z M-260.9,357.6c-1.1,0-2,1-2,2
				c0,1.1,1,2,2,2c1.1,0,2-1,2-2C-258.8,358.5-259.7,357.6-260.9,357.6z"/>
			<path class="st7" d="M-245.6,364.5v5.8c0,0.6-0.4,1.1-1,1.1c-0.4,0-0.7-0.3-0.9-0.6c-0.1-0.2-0.1-0.3-0.1-0.5v-5.8h-0.4V379
				c0,0.6-0.5,1.1-1,1.1c-0.6,0-1-0.5-1-1.1v-7.5h-0.3v7.5c0,0.6-0.5,1.1-1,1.1c-0.6,0-1-0.5-1-1.1v-8v-6.3h-0.4v5.8
				c0,0.2,0,0.4-0.1,0.5c-0.2,0.4-0.5,0.6-0.9,0.6c-0.5,0-1-0.5-1-1.1v-5.8c0-0.1,0-0.1,0-0.2c0.1-1.1,1.1-2,2.2-2l0,0h4.2l0,0
				C-246.7,362.4-245.8,363.4-245.6,364.5L-245.6,364.5C-245.6,364.4-245.6,364.4-245.6,364.5z M-249.9,357.6c-1.1,0-2,1-2,2
				c0,1.1,1,2,2,2c1.1,0,2-1,2-2C-247.9,358.5-248.8,357.6-249.9,357.6z"/>
			<path class="st7" d="M-234.7,364.5v5.8c0,0.6-0.4,1.1-1,1.1c-0.4,0-0.7-0.3-0.9-0.6c-0.1-0.2-0.1-0.3-0.1-0.5v-5.8h-0.4V379
				c0,0.6-0.5,1.1-1,1.1c-0.6,0-1-0.5-1-1.1v-7.5h-0.3v7.5c0,0.6-0.5,1.1-1,1.1c-0.6,0-1-0.5-1-1.1v-8v-6.3h-0.4v5.8
				c0,0.2,0,0.4-0.1,0.5c-0.2,0.4-0.5,0.6-0.9,0.6c-0.5,0-1-0.5-1-1.1v-5.8c0-0.1,0-0.1,0-0.2c0.1-1.1,1.1-2,2.2-2l0,0h4.2l0,0
				C-235.9,362.4-234.9,363.4-234.7,364.5L-234.7,364.5C-234.7,364.4-234.7,364.4-234.7,364.5z M-239,357.6c-1.1,0-2,1-2,2
				c0,1.1,1,2,2,2c1.1,0,2-1,2-2C-236.9,358.5-237.9,357.6-239,357.6z"/>
			<path class="st7" d="M-223.7,364.5v5.8c0,0.6-0.4,1.1-1,1.1c-0.4,0-0.7-0.3-0.9-0.6c-0.1-0.2-0.1-0.3-0.1-0.5v-5.8h-0.4V379
				c0,0.6-0.5,1.1-1,1.1c-0.6,0-1-0.5-1-1.1v-7.5h-0.3v7.5c0,0.6-0.5,1.1-1,1.1c-0.6,0-1-0.5-1-1.1v-8v-6.3h-0.4v5.8
				c0,0.2,0,0.4-0.1,0.5c-0.2,0.4-0.5,0.6-0.9,0.6c-0.5,0-1-0.5-1-1.1v-5.8c0-0.1,0-0.1,0-0.2c0.1-1.1,1.1-2,2.2-2l0,0h4.2l0,0
				C-224.9,362.4-223.9,363.4-223.7,364.5L-223.7,364.5C-223.7,364.4-223.7,364.4-223.7,364.5z M-228,357.6c-1.1,0-2,1-2,2
				c0,1.1,1,2,2,2c1.1,0,2-1,2-2C-226,358.5-226.9,357.6-228,357.6z"/>
			<path class="st7" d="M-212.8,364.5v5.8c0,0.6-0.4,1.1-1,1.1c-0.4,0-0.7-0.3-0.9-0.6c-0.1-0.2-0.1-0.3-0.1-0.5v-5.8h-0.4V379
				c0,0.6-0.5,1.1-1,1.1c-0.6,0-1-0.5-1-1.1v-7.5h-0.3v7.5c0,0.6-0.5,1.1-1,1.1c-0.6,0-1-0.5-1-1.1v-8v-6.3h-0.4v5.8
				c0,0.2,0,0.4-0.1,0.5c-0.2,0.4-0.5,0.6-0.9,0.6c-0.5,0-1-0.5-1-1.1v-5.8c0-0.1,0-0.1,0-0.2c0.1-1.1,1.1-2,2.2-2l0,0h4.2l0,0
				C-214,362.4-213,363.4-212.8,364.5L-212.8,364.5C-212.8,364.4-212.8,364.4-212.8,364.5z M-217.1,357.6c-1.1,0-2,1-2,2
				c0,1.1,1,2,2,2c1.1,0,2-1,2-2C-215,358.5-216,357.6-217.1,357.6z"/>
			<path class="st7" d="M-201.9,364.5v5.8c0,0.6-0.4,1.1-1,1.1c-0.4,0-0.7-0.3-0.9-0.6c-0.1-0.2-0.1-0.3-0.1-0.5v-5.8h-0.4V379
				c0,0.6-0.5,1.1-1,1.1c-0.6,0-1-0.5-1-1.1v-7.5h-0.3v7.5c0,0.6-0.5,1.1-1,1.1c-0.6,0-1-0.5-1-1.1v-8v-6.3h-0.4v5.8
				c0,0.2,0,0.4-0.1,0.5c-0.2,0.4-0.5,0.6-0.9,0.6c-0.5,0-1-0.5-1-1.1v-5.8c0-0.1,0-0.1,0-0.2c0.1-1.1,1.1-2,2.2-2l0,0h4.2l0,0
				C-203,362.4-202.1,363.4-201.9,364.5L-201.9,364.5C-201.9,364.4-201.9,364.4-201.9,364.5z M-206.2,357.6c-1.1,0-2,1-2,2
				c0,1.1,1,2,2,2c1.1,0,2-1,2-2C-204.2,358.5-205,357.6-206.2,357.6z"/>
			<path class="st7" d="M-191,364.5v5.8c0,0.6-0.4,1.1-1,1.1c-0.4,0-0.7-0.3-0.9-0.6c-0.1-0.2-0.1-0.3-0.1-0.5v-5.8h-0.4V379
				c0,0.6-0.5,1.1-1,1.1c-0.6,0-1-0.5-1-1.1v-7.5h-0.3v7.5c0,0.6-0.5,1.1-1,1.1c-0.6,0-1-0.5-1-1.1v-8v-6.3h-0.4v5.8
				c0,0.2,0,0.4-0.1,0.5c-0.2,0.4-0.5,0.6-0.9,0.6c-0.5,0-1-0.5-1-1.1v-5.8c0-0.1,0-0.1,0-0.2c0.1-1.1,1.1-2,2.2-2l0,0h4.2l0,0
				C-192.1,362.4-191.2,363.4-191,364.5L-191,364.5C-191,364.4-191,364.4-191,364.5z M-195.3,357.6c-1.1,0-2,1-2,2c0,1.1,1,2,2,2
				c1.1,0,2-1,2-2C-193.2,358.5-194.1,357.6-195.3,357.6z"/>
			<path class="st7" d="M-180,364.5v5.8c0,0.6-0.4,1.1-1,1.1c-0.4,0-0.7-0.3-0.9-0.6c-0.1-0.2-0.1-0.3-0.1-0.5v-5.8h-0.4V379
				c0,0.6-0.5,1.1-1,1.1c-0.6,0-1-0.5-1-1.1v-7.5h-0.3v7.5c0,0.6-0.5,1.1-1,1.1c-0.6,0-1-0.5-1-1.1v-8v-6.3h-0.4v5.8
				c0,0.2,0,0.4-0.1,0.5c-0.2,0.4-0.5,0.6-0.9,0.6c-0.5,0-1-0.5-1-1.1v-5.8c0-0.1,0-0.1,0-0.2c0.1-1.1,1.1-2,2.2-2l0,0h4.2l0,0
				C-181.1,362.4-180.2,363.4-180,364.5L-180,364.5C-180,364.4-180,364.4-180,364.5z M-184.3,357.6c-1.1,0-2,1-2,2c0,1.1,1,2,2,2
				c1.1,0,2-1,2-2C-182.3,358.5-183.2,357.6-184.3,357.6z"/>
			<path class="st7" d="M-169.1,364.5v5.8c0,0.6-0.4,1.1-1,1.1c-0.4,0-0.7-0.3-0.9-0.6c-0.1-0.2-0.1-0.3-0.1-0.5v-5.8h-0.2V379
				c0,0.6-0.5,1.1-1,1.1c-0.6,0-1-0.5-1-1.1v-7.5h-0.3v7.5c0,0.6-0.5,1.1-1,1.1c-0.6,0-1-0.5-1-1.1v-8v-6.3h-0.4v5.8
				c0,0.2,0,0.4-0.1,0.5c-0.2,0.4-0.5,0.6-0.9,0.6c-0.5,0-1-0.5-1-1.1v-5.8c0-0.1,0-0.1,0-0.2c0.1-1.1,1.1-2,2.2-2l0,0h4.2l0,0
				C-170.1,362.4-169.1,363.4-169.1,364.5L-169.1,364.5C-169.1,364.4-169.1,364.4-169.1,364.5z M-173.4,357.6c-1.1,0-2,1-2,2
				c0,1.1,1,2,2,2c1.1,0,2-1,2-2C-171.3,358.5-172.3,357.6-173.4,357.6z"/>
			<path class="st7" d="M-158.1,364.5v5.8c0,0.6-0.4,1.1-1,1.1c-0.4,0-0.7-0.3-0.9-0.6c-0.1-0.2-0.1-0.3-0.1-0.5v-5.8h-0.4V379
				c0,0.6-0.5,1.1-1,1.1c-0.6,0-1-0.5-1-1.1v-7.5h-0.3v7.5c0,0.6-0.5,1.1-1,1.1c-0.6,0-1-0.5-1-1.1v-8v-6.3h-0.4v5.8
				c0,0.2,0,0.4-0.1,0.5c-0.2,0.4-0.5,0.6-0.9,0.6c-0.5,0-1-0.5-1-1.1v-5.8c0-0.1,0-0.1,0-0.2c0.1-1.1,1.1-2,2.2-2l0,0h4.2l0,0
				C-159.3,362.4-158.3,363.4-158.1,364.5L-158.1,364.5C-158.1,364.4-158.1,364.4-158.1,364.5z M-162.4,357.6c-1.1,0-2,1-2,2
				c0,1.1,1,2,2,2c1.1,0,2-1,2-2C-160.4,358.5-161.3,357.6-162.4,357.6z"/>
			<path class="st7" d="M-147.2,364.5v5.8c0,0.6-0.4,1.1-1,1.1c-0.4,0-0.7-0.3-0.9-0.6c-0.1-0.2-0.1-0.3-0.1-0.5v-5.8h-0.4V379
				c0,0.6-0.5,1.1-1,1.1c-0.6,0-1-0.5-1-1.1v-7.5h-0.3v7.5c0,0.6-0.5,1.1-1,1.1c-0.6,0-1-0.5-1-1.1v-8v-6.3h-0.4v5.8
				c0,0.2,0,0.4-0.1,0.5c-0.2,0.4-0.5,0.6-0.9,0.6c-0.5,0-1-0.5-1-1.1v-5.8c0-0.1,0-0.1,0-0.2c0.1-1.1,1.1-2,2.2-2l0,0h4.2l0,0
				C-148.4,362.4-147.4,363.4-147.2,364.5L-147.2,364.5C-147.2,364.4-147.2,364.4-147.2,364.5z M-151.5,357.6c-1.1,0-2,1-2,2
				c0,1.1,1,2,2,2c1.1,0,2-1,2-2C-149.4,358.5-150.4,357.6-151.5,357.6z"/>
			<path class="st7" d="M-136.3,364.5v5.8c0,0.6-0.4,1.1-1,1.1c-0.4,0-0.7-0.3-0.9-0.6c-0.1-0.2-0.1-0.3-0.1-0.5v-5.8h-0.4V379
				c0,0.6-0.5,1.1-1,1.1c-0.6,0-1-0.5-1-1.1v-7.5h-0.3v7.5c0,0.6-0.5,1.1-1,1.1c-0.6,0-1-0.5-1-1.1v-8v-6.3h-0.4v5.8
				c0,0.2,0,0.4-0.1,0.5c-0.2,0.4-0.5,0.6-0.9,0.6c-0.5,0-1-0.5-1-1.1v-5.8c0-0.1,0-0.1,0-0.2c0.1-1.1,1.1-2,2.2-2l0,0h4.2l0,0
				C-137.4,362.4-136.5,363.4-136.3,364.5L-136.3,364.5C-136.3,364.4-136.3,364.4-136.3,364.5z M-140.6,357.6c-1.1,0-2,1-2,2
				c0,1.1,1,2,2,2c1.1,0,2-1,2-2C-138.6,358.5-139.4,357.6-140.6,357.6z"/>
			<path class="st7" d="M-125.4,364.5v5.8c0,0.6-0.4,1.1-1,1.1c-0.4,0-0.7-0.3-0.9-0.6c-0.1-0.2-0.1-0.3-0.1-0.5v-5.8h-0.4V379
				c0,0.6-0.5,1.1-1,1.1c-0.6,0-1-0.5-1-1.1v-7.5h-0.3v7.5c0,0.6-0.5,1.1-1,1.1c-0.6,0-1-0.5-1-1.1v-8v-6.3h-0.4v5.8
				c0,0.2,0,0.4-0.1,0.5c-0.2,0.4-0.5,0.6-0.9,0.6c-0.5,0-1-0.5-1-1.1v-5.8c0-0.1,0-0.1,0-0.2c0.1-1.1,1.1-2,2.2-2l0,0h4.2l0,0
				C-126.5,362.4-125.6,363.4-125.4,364.5L-125.4,364.5C-125.4,364.4-125.4,364.4-125.4,364.5z M-129.7,357.6c-1.1,0-2,1-2,2
				c0,1.1,1,2,2,2c1.1,0,2-1,2-2C-127.6,358.5-128.5,357.6-129.7,357.6z"/>
			<path class="st7" d="M-114.4,364.5v5.8c0,0.6-0.4,1.1-1,1.1c-0.4,0-0.7-0.3-0.9-0.6c-0.1-0.2-0.1-0.3-0.1-0.5v-5.8h-0.4V379
				c0,0.6-0.5,1.1-1,1.1c-0.6,0-1-0.5-1-1.1v-7.5h-0.3v7.5c0,0.6-0.5,1.1-1,1.1c-0.6,0-1-0.5-1-1.1v-8v-6.3h-0.4v5.8
				c0,0.2,0,0.4-0.1,0.5c-0.2,0.4-0.5,0.6-0.9,0.6c-0.5,0-1-0.5-1-1.1v-5.8c0-0.1,0-0.1,0-0.2c0.1-1.1,1.1-2,2.2-2l0,0h4.2l0,0
				C-115.5,362.4-114.6,363.4-114.4,364.5L-114.4,364.5C-114.4,364.4-114.4,364.4-114.4,364.5z M-118.7,357.6c-1.1,0-2,1-2,2
				c0,1.1,1,2,2,2c1.1,0,2-1,2-2C-116.7,358.5-117.6,357.6-118.7,357.6z"/>
			<path class="st7" d="M-103.5,364.5v5.8c0,0.6-0.4,1.1-1,1.1c-0.4,0-0.7-0.3-0.9-0.6c-0.1-0.2-0.1-0.3-0.1-0.5v-5.8h-0.4V379
				c0,0.6-0.5,1.1-1,1.1c-0.6,0-1-0.5-1-1.1v-7.5h-0.3v7.5c0,0.6-0.5,1.1-1,1.1c-0.6,0-1-0.5-1-1.1v-8v-6.3h-0.4v5.8
				c0,0.2,0,0.4-0.1,0.5c-0.2,0.4-0.5,0.6-0.9,0.6c-0.5,0-1-0.5-1-1.1v-5.8c0-0.1,0-0.1,0-0.2c0.1-1.1,1.1-2,2.2-2l0,0h4.2l0,0
				C-104.7,362.4-103.7,363.4-103.5,364.5L-103.5,364.5C-103.5,364.4-103.5,364.4-103.5,364.5z M-107.8,357.6c-1.1,0-2,1-2,2
				c0,1.1,1,2,2,2s2-1,2-2C-105.7,358.5-106.7,357.6-107.8,357.6z"/>
			<path class="st7" d="M-92.5,364.5v5.8c0,0.6-0.4,1.1-1,1.1c-0.4,0-0.7-0.3-0.9-0.6c-0.1-0.2-0.1-0.3-0.1-0.5v-5.8h-0.4V379
				c0,0.6-0.5,1.1-1,1.1c-0.6,0-1-0.5-1-1.1v-7.5H-97v7.5c0,0.6-0.5,1.1-1,1.1c-0.6,0-1-0.5-1-1.1v-8v-6.3h-0.4v5.8
				c0,0.2,0,0.4-0.1,0.5c-0.2,0.4-0.5,0.6-0.9,0.6c-0.5,0-1-0.5-1-1.1v-5.8c0-0.1,0-0.1,0-0.2c0.1-1.1,1.1-2,2.2-2l0,0h4.2l0,0
				C-93.7,362.4-92.7,363.4-92.5,364.5L-92.5,364.5C-92.5,364.4-92.5,364.4-92.5,364.5z M-96.8,357.6c-1.1,0-2,1-2,2c0,1.1,1,2,2,2
				c1.1,0,2-1,2-2C-94.8,358.5-95.7,357.6-96.8,357.6z"/>
			<path class="st7" d="M-81.7,364.5v5.8c0,0.6-0.4,1.1-1,1.1c-0.4,0-0.7-0.3-0.9-0.6c-0.1-0.2-0.1-0.3-0.1-0.5v-5.8h-0.4V379
				c0,0.6-0.5,1.1-1,1.1c-0.6,0-1-0.5-1-1.1v-7.5h-0.3v7.5c0,0.6-0.5,1.1-1,1.1c-0.6,0-1-0.5-1-1.1v-8v-6.3h-0.4v5.8
				c0,0.2,0,0.4-0.1,0.5c-0.2,0.4-0.5,0.6-0.9,0.6c-0.5,0-1-0.5-1-1.1v-5.8c0-0.1,0-0.1,0-0.2c0.1-1.1,1.1-2,2.2-2l0,0h4.2l0,0
				C-82.8,362.4-81.8,363.4-81.7,364.5L-81.7,364.5C-81.7,364.4-81.7,364.4-81.7,364.5z M-85.9,357.6c-1.1,0-2,1-2,2c0,1.1,1,2,2,2
				c1.1,0,2-1,2-2C-83.8,358.5-84.8,357.6-85.9,357.6z"/>
			<path class="st7" d="M-70.7,364.5v5.8c0,0.6-0.4,1.1-1,1.1c-0.4,0-0.7-0.3-0.9-0.6c-0.1-0.2-0.1-0.3-0.1-0.5v-5.8h-0.3V379
				c0,0.6-0.5,1.1-1,1.1c-0.6,0-1-0.5-1-1.1v-7.5h-0.3v7.5c0,0.6-0.5,1.1-1,1.1c-0.5,0-1-0.5-1-1.1v-8v-6.3h-0.4v5.8
				c0,0.2,0,0.4-0.1,0.5c-0.2,0.4-0.5,0.6-0.9,0.6c-0.5,0-1-0.5-1-1.1v-5.8c0-0.1,0-0.1,0-0.2c0.1-1.1,1.1-2,2.2-2l0,0h4.2l0,0
				C-71.7,362.4-70.8,363.4-70.7,364.5L-70.7,364.5C-70.7,364.4-70.7,364.4-70.7,364.5z M-75,357.6c-1.1,0-2,1-2,2c0,1.1,1,2,2,2
				c1.1,0,2-1,2-2C-73,358.5-73.8,357.6-75,357.6z"/>
			<path class="st7" d="M-59.8,364.5v5.8c0,0.6-0.4,1.1-1,1.1c-0.4,0-0.7-0.3-0.9-0.6c-0.1-0.2-0.1-0.3-0.1-0.5v-5.8h-0.4V379
				c0,0.6-0.5,1.1-1,1.1c-0.6,0-1-0.5-1-1.1v-7.5h-0.3v7.5c0,0.6-0.5,1.1-1,1.1c-0.6,0-1-0.5-1-1.1v-8v-6.3h-0.4v5.8
				c0,0.2,0,0.4-0.1,0.5c-0.2,0.4-0.5,0.6-0.9,0.6c-0.5,0-1-0.5-1-1.1v-5.8c0-0.1,0-0.1,0-0.2c0.1-1.1,1.1-2,2.2-2l0,0h4.2l0,0
				C-60.9,362.4-60,363.4-59.8,364.5L-59.8,364.5C-59.8,364.4-59.8,364.4-59.8,364.5z M-64.1,357.6c-1.1,0-2,1-2,2c0,1.1,1,2,2,2
				c1.1,0,2-1,2-2C-62,358.5-62.9,357.6-64.1,357.6z"/>
			<path class="st7" d="M-48.8,364.5v5.8c0,0.6-0.4,1.1-1,1.1c-0.4,0-0.7-0.3-0.9-0.6c-0.1-0.2-0.1-0.3-0.1-0.5v-5.8h-0.4V379
				c0,0.6-0.5,1.1-1,1.1c-0.6,0-1-0.5-1-1.1v-7.5h-0.3v7.5c0,0.6-0.5,1.1-1,1.1c-0.6,0-1-0.5-1-1.1v-8v-6.3h-0.4v5.8
				c0,0.2,0,0.4-0.1,0.5c-0.2,0.4-0.5,0.6-0.9,0.6c-0.5,0-1-0.5-1-1.1v-5.8c0-0.1,0-0.1,0-0.2c0.1-1.1,1.1-2,2.2-2l0,0h4.2l0,0
				C-49.9,362.4-49,363.4-48.8,364.5L-48.8,364.5C-48.8,364.4-48.8,364.4-48.8,364.5z M-53.1,357.6c-1.1,0-2,1-2,2c0,1.1,1,2,2,2
				c1.1,0,2-1,2-2C-51.1,358.5-52,357.6-53.1,357.6z"/>
			<path class="st7" d="M-311.2,389.7v5.8c0,0.6-0.4,1.1-1,1.1c-0.4,0-0.7-0.3-0.9-0.6c-0.1-0.2-0.1-0.3-0.1-0.5v-5.8h-0.3v14.4
				c0,0.6-0.5,1.1-1,1.1c-0.6,0-1-0.5-1-1.1v-7.5h-0.4v7.5c0,0.6-0.5,1.1-1,1.1c-0.6,0-1-0.5-1-1.1v-8v-6.3h-0.4v5.8
				c0,0.2,0,0.4-0.1,0.5c-0.2,0.4-0.5,0.6-0.9,0.6c-0.5,0-1-0.5-1-1.1v-5.8c0-0.1,0-0.1,0-0.2c0.1-1.1,1.1-2,2.2-2l0,0h4.2l0,0
				C-312.3,387.6-311.4,388.6-311.2,389.7L-311.2,389.7C-311.2,389.7-311.2,389.7-311.2,389.7z M-315.5,382.9c-1.1,0-2,1-2,2
				c0,1.1,1,2,2,2c1.1,0,2-1,2-2C-313.5,383.7-314.3,382.9-315.5,382.9z"/>
			<path class="st7" d="M-300.3,389.7v5.8c0,0.6-0.4,1.1-1,1.1c-0.4,0-0.7-0.3-0.9-0.6c-0.1-0.2-0.1-0.3-0.1-0.5v-5.8h-0.4v14.4
				c0,0.6-0.5,1.1-1,1.1c-0.6,0-1-0.5-1-1.1v-7.5h-0.3v7.5c0,0.6-0.5,1.1-1,1.1c-0.6,0-1-0.5-1-1.1v-8v-6.3h-0.4v5.8
				c0,0.2,0,0.4-0.1,0.5c-0.2,0.4-0.5,0.6-0.9,0.6c-0.5,0-1-0.5-1-1.1v-5.8c0-0.1,0-0.1,0-0.2c0.1-1.1,1.1-2,2.2-2l0,0h4.2l0,0
				C-301.5,387.6-300.5,388.6-300.3,389.7L-300.3,389.7C-300.3,389.7-300.3,389.7-300.3,389.7z M-304.6,382.9c-1.1,0-2,1-2,2
				c0,1.1,1,2,2,2c1.1,0,2-1,2-2C-302.5,383.7-303.5,382.9-304.6,382.9z"/>
			<path class="st7" d="M-289.3,389.7v5.8c0,0.6-0.4,1.1-1,1.1c-0.4,0-0.7-0.3-0.9-0.6c-0.1-0.2-0.1-0.3-0.1-0.5v-5.8h-0.3v14.4
				c0,0.6-0.5,1.1-1,1.1c-0.6,0-1-0.5-1-1.1v-7.5h-0.3v7.5c0,0.6-0.5,1.1-1,1.1c-0.6,0-1-0.5-1-1.1v-8v-6.3h-0.4v5.8
				c0,0.2,0,0.4-0.1,0.5c-0.2,0.4-0.5,0.6-0.9,0.6c-0.5,0-1-0.5-1-1.1v-5.8c0-0.1,0-0.1,0-0.2c0.1-1.1,1.1-2,2.2-2l0,0h4.2l0,0
				C-290.4,387.6-289.4,388.6-289.3,389.7L-289.3,389.7L-289.3,389.7z M-293.6,382.9c-1.1,0-2,1-2,2c0,1.1,1,2,2,2c1.1,0,2-1,2-2
				C-291.6,383.7-292.5,382.9-293.6,382.9z"/>
			<path class="st7" d="M-278.4,389.7v5.8c0,0.6-0.4,1.1-1,1.1c-0.4,0-0.7-0.3-0.9-0.6c-0.1-0.2-0.1-0.3-0.1-0.5v-5.8h-0.4v14.4
				c0,0.6-0.5,1.1-1,1.1c-0.6,0-1-0.5-1-1.1v-7.5h-0.3v7.5c0,0.6-0.5,1.1-1,1.1c-0.6,0-1-0.5-1-1.1v-8v-6.3h-0.4v5.8
				c0,0.2,0,0.4-0.1,0.5c-0.2,0.4-0.5,0.6-0.9,0.6c-0.5,0-1-0.5-1-1.1v-5.8c0-0.1,0-0.1,0-0.2c0.1-1.1,1.1-2,2.2-2l0,0h4.2l0,0
				C-279.6,387.6-278.6,388.6-278.4,389.7L-278.4,389.7C-278.4,389.7-278.4,389.7-278.4,389.7z M-282.7,382.9c-1.1,0-2,1-2,2
				c0,1.1,1,2,2,2c1.1,0,2-1,2-2C-280.6,383.7-281.6,382.9-282.7,382.9z"/>
			<path class="st7" d="M-267.5,389.7v5.8c0,0.6-0.4,1.1-1,1.1c-0.4,0-0.7-0.3-0.9-0.6c-0.1-0.2-0.1-0.3-0.1-0.5v-5.8h-0.4v14.4
				c0,0.6-0.5,1.1-1,1.1c-0.6,0-1-0.5-1-1.1v-7.5h-0.3v7.5c0,0.6-0.5,1.1-1,1.1c-0.6,0-1-0.5-1-1.1v-8v-6.3h-0.4v5.8
				c0,0.2,0,0.4-0.1,0.5c-0.2,0.4-0.5,0.6-0.9,0.6c-0.5,0-1-0.5-1-1.1v-5.8c0-0.1,0-0.1,0-0.2c0.1-1.1,1.1-2,2.2-2l0,0h4.2l0,0
				C-268.6,387.6-267.7,388.6-267.5,389.7L-267.5,389.7C-267.5,389.7-267.5,389.7-267.5,389.7z M-271.8,382.9c-1.1,0-2,1-2,2
				c0,1.1,1,2,2,2c1.1,0,2-1,2-2C-269.8,383.7-270.6,382.9-271.8,382.9z"/>
			<path class="st7" d="M-256.6,389.7v5.8c0,0.6-0.4,1.1-1,1.1c-0.4,0-0.7-0.3-0.9-0.6c-0.1-0.2-0.1-0.3-0.1-0.5v-5.8h-0.4v14.4
				c0,0.6-0.5,1.1-1,1.1c-0.6,0-1-0.5-1-1.1v-7.5h-0.2v7.5c0,0.6-0.5,1.1-1,1.1c-0.6,0-1-0.5-1-1.1v-8v-6.3h-0.4v5.8
				c0,0.2,0,0.4-0.1,0.5c-0.2,0.4-0.5,0.6-0.9,0.6c-0.5,0-1-0.5-1-1.1v-5.8c0-0.1,0-0.1,0-0.2c0.1-1.1,1.1-2,2.2-2l0,0h4.2l0,0
				C-257.6,387.6-256.7,388.6-256.6,389.7L-256.6,389.7L-256.6,389.7z M-260.9,382.9c-1.1,0-2,1-2,2c0,1.1,1,2,2,2c1.1,0,2-1,2-2
				C-258.8,383.7-259.7,382.9-260.9,382.9z"/>
			<path class="st7" d="M-245.6,389.7v5.8c0,0.6-0.4,1.1-1,1.1c-0.4,0-0.7-0.3-0.9-0.6c-0.1-0.2-0.1-0.3-0.1-0.5v-5.8h-0.4v14.4
				c0,0.6-0.5,1.1-1,1.1c-0.6,0-1-0.5-1-1.1v-7.5h-0.3v7.5c0,0.6-0.5,1.1-1,1.1c-0.6,0-1-0.5-1-1.1v-8v-6.3h-0.4v5.8
				c0,0.2,0,0.4-0.1,0.5c-0.2,0.4-0.5,0.6-0.9,0.6c-0.5,0-1-0.5-1-1.1v-5.8c0-0.1,0-0.1,0-0.2c0.1-1.1,1.1-2,2.2-2l0,0h4.2l0,0
				C-246.7,387.6-245.8,388.6-245.6,389.7L-245.6,389.7C-245.6,389.7-245.6,389.7-245.6,389.7z M-249.9,382.9c-1.1,0-2,1-2,2
				c0,1.1,1,2,2,2c1.1,0,2-1,2-2C-247.9,383.7-248.8,382.9-249.9,382.9z"/>
			<path class="st7" d="M-234.7,389.7v5.8c0,0.6-0.4,1.1-1,1.1c-0.4,0-0.7-0.3-0.9-0.6c-0.1-0.2-0.1-0.3-0.1-0.5v-5.8h-0.4v14.4
				c0,0.6-0.5,1.1-1,1.1c-0.6,0-1-0.5-1-1.1v-7.5h-0.3v7.5c0,0.6-0.5,1.1-1,1.1c-0.6,0-1-0.5-1-1.1v-8v-6.3h-0.4v5.8
				c0,0.2,0,0.4-0.1,0.5c-0.2,0.4-0.5,0.6-0.9,0.6c-0.5,0-1-0.5-1-1.1v-5.8c0-0.1,0-0.1,0-0.2c0.1-1.1,1.1-2,2.2-2l0,0h4.2l0,0
				C-235.9,387.6-234.9,388.6-234.7,389.7L-234.7,389.7C-234.7,389.7-234.7,389.7-234.7,389.7z M-239,382.9c-1.1,0-2,1-2,2
				c0,1.1,1,2,2,2c1.1,0,2-1,2-2C-236.9,383.7-237.9,382.9-239,382.9z"/>
			<path class="st7" d="M-223.7,389.7v5.8c0,0.6-0.4,1.1-1,1.1c-0.4,0-0.7-0.3-0.9-0.6c-0.1-0.2-0.1-0.3-0.1-0.5v-5.8h-0.4v14.4
				c0,0.6-0.5,1.1-1,1.1c-0.6,0-1-0.5-1-1.1v-7.5h-0.3v7.5c0,0.6-0.5,1.1-1,1.1c-0.6,0-1-0.5-1-1.1v-8v-6.3h-0.4v5.8
				c0,0.2,0,0.4-0.1,0.5c-0.2,0.4-0.5,0.6-0.9,0.6c-0.5,0-1-0.5-1-1.1v-5.8c0-0.1,0-0.1,0-0.2c0.1-1.1,1.1-2,2.2-2l0,0h4.2l0,0
				C-224.9,387.6-223.9,388.6-223.7,389.7L-223.7,389.7C-223.7,389.7-223.7,389.7-223.7,389.7z M-228,382.9c-1.1,0-2,1-2,2
				c0,1.1,1,2,2,2c1.1,0,2-1,2-2C-226,383.7-226.9,382.9-228,382.9z"/>
			<path class="st7" d="M-212.8,389.7v5.8c0,0.6-0.4,1.1-1,1.1c-0.4,0-0.7-0.3-0.9-0.6c-0.1-0.2-0.1-0.3-0.1-0.5v-5.8h-0.4v14.4
				c0,0.6-0.5,1.1-1,1.1c-0.6,0-1-0.5-1-1.1v-7.5h-0.3v7.5c0,0.6-0.5,1.1-1,1.1c-0.6,0-1-0.5-1-1.1v-8v-6.3h-0.4v5.8
				c0,0.2,0,0.4-0.1,0.5c-0.2,0.4-0.5,0.6-0.9,0.6c-0.5,0-1-0.5-1-1.1v-5.8c0-0.1,0-0.1,0-0.2c0.1-1.1,1.1-2,2.2-2l0,0h4.2l0,0
				C-214,387.6-213,388.6-212.8,389.7L-212.8,389.7C-212.8,389.7-212.8,389.7-212.8,389.7z M-217.1,382.9c-1.1,0-2,1-2,2
				c0,1.1,1,2,2,2c1.1,0,2-1,2-2C-215,383.7-216,382.9-217.1,382.9z"/>
		</g>
		<g>
			<path class="st8" d="M-201.9,389.7v5.8c0,0.6-0.4,1.1-1,1.1c-0.4,0-0.7-0.3-0.9-0.6c-0.1-0.2-0.1-0.3-0.1-0.5v-5.8h-0.4v14.4
				c0,0.6-0.5,1.1-1,1.1c-0.6,0-1-0.5-1-1.1v-7.5h-0.3v7.5c0,0.6-0.5,1.1-1,1.1c-0.6,0-1-0.5-1-1.1v-8v-6.3h-0.4v5.8
				c0,0.2,0,0.4-0.1,0.5c-0.2,0.4-0.5,0.6-0.9,0.6c-0.5,0-1-0.5-1-1.1v-5.8c0-0.1,0-0.1,0-0.2c0.1-1.1,1.1-2,2.2-2l0,0h4.2l0,0
				C-203,387.6-202.1,388.6-201.9,389.7L-201.9,389.7C-201.9,389.7-201.9,389.7-201.9,389.7z M-206.2,382.9c-1.1,0-2,1-2,2
				c0,1.1,1,2,2,2c1.1,0,2-1,2-2C-204.2,383.7-205,382.9-206.2,382.9z"/>
			<path class="st8" d="M-191,389.7v5.8c0,0.6-0.4,1.1-1,1.1c-0.4,0-0.7-0.3-0.9-0.6c-0.1-0.2-0.1-0.3-0.1-0.5v-5.8h-0.4v14.4
				c0,0.6-0.5,1.1-1,1.1c-0.6,0-1-0.5-1-1.1v-7.5h-0.3v7.5c0,0.6-0.5,1.1-1,1.1c-0.6,0-1-0.5-1-1.1v-8v-6.3h-0.4v5.8
				c0,0.2,0,0.4-0.1,0.5c-0.2,0.4-0.5,0.6-0.9,0.6c-0.5,0-1-0.5-1-1.1v-5.8c0-0.1,0-0.1,0-0.2c0.1-1.1,1.1-2,2.2-2l0,0h4.2l0,0
				C-192.1,387.6-191.2,388.6-191,389.7L-191,389.7C-191,389.7-191,389.7-191,389.7z M-195.3,382.9c-1.1,0-2,1-2,2c0,1.1,1,2,2,2
				c1.1,0,2-1,2-2C-193.2,383.7-194.1,382.9-195.3,382.9z"/>
			<path class="st8" d="M-180,389.7v5.8c0,0.6-0.4,1.1-1,1.1c-0.4,0-0.7-0.3-0.9-0.6c-0.1-0.2-0.1-0.3-0.1-0.5v-5.8h-0.4v14.4
				c0,0.6-0.5,1.1-1,1.1c-0.6,0-1-0.5-1-1.1v-7.5h-0.3v7.5c0,0.6-0.5,1.1-1,1.1c-0.6,0-1-0.5-1-1.1v-8v-6.3h-0.4v5.8
				c0,0.2,0,0.4-0.1,0.5c-0.2,0.4-0.5,0.6-0.9,0.6c-0.5,0-1-0.5-1-1.1v-5.8c0-0.1,0-0.1,0-0.2c0.1-1.1,1.1-2,2.2-2l0,0h4.2l0,0
				C-181.1,387.6-180.2,388.6-180,389.7L-180,389.7C-180,389.7-180,389.7-180,389.7z M-184.3,382.9c-1.1,0-2,1-2,2c0,1.1,1,2,2,2
				c1.1,0,2-1,2-2C-182.3,383.7-183.2,382.9-184.3,382.9z"/>
			<path class="st8" d="M-169.1,389.7v5.8c0,0.6-0.4,1.1-1,1.1c-0.4,0-0.7-0.3-0.9-0.6c-0.1-0.2-0.1-0.3-0.1-0.5v-5.8h-0.2v14.4
				c0,0.6-0.5,1.1-1,1.1c-0.6,0-1-0.5-1-1.1v-7.5h-0.3v7.5c0,0.6-0.5,1.1-1,1.1c-0.6,0-1-0.5-1-1.1v-8v-6.3h-0.4v5.8
				c0,0.2,0,0.4-0.1,0.5c-0.2,0.4-0.5,0.6-0.9,0.6c-0.5,0-1-0.5-1-1.1v-5.8c0-0.1,0-0.1,0-0.2c0.1-1.1,1.1-2,2.2-2l0,0h4.2l0,0
				C-170.1,387.6-169.1,388.6-169.1,389.7L-169.1,389.7C-169.1,389.7-169.1,389.7-169.1,389.7z M-173.4,382.9c-1.1,0-2,1-2,2
				c0,1.1,1,2,2,2c1.1,0,2-1,2-2C-171.3,383.7-172.3,382.9-173.4,382.9z"/>
			<path class="st8" d="M-158.1,389.7v5.8c0,0.6-0.4,1.1-1,1.1c-0.4,0-0.7-0.3-0.9-0.6c-0.1-0.2-0.1-0.3-0.1-0.5v-5.8h-0.4v14.4
				c0,0.6-0.5,1.1-1,1.1c-0.6,0-1-0.5-1-1.1v-7.5h-0.3v7.5c0,0.6-0.5,1.1-1,1.1c-0.6,0-1-0.5-1-1.1v-8v-6.3h-0.4v5.8
				c0,0.2,0,0.4-0.1,0.5c-0.2,0.4-0.5,0.6-0.9,0.6c-0.5,0-1-0.5-1-1.1v-5.8c0-0.1,0-0.1,0-0.2c0.1-1.1,1.1-2,2.2-2l0,0h4.2l0,0
				C-159.3,387.6-158.3,388.6-158.1,389.7L-158.1,389.7C-158.1,389.7-158.1,389.7-158.1,389.7z M-162.4,382.9c-1.1,0-2,1-2,2
				c0,1.1,1,2,2,2c1.1,0,2-1,2-2C-160.4,383.7-161.3,382.9-162.4,382.9z"/>
			<path class="st8" d="M-147.2,389.7v5.8c0,0.6-0.4,1.1-1,1.1c-0.4,0-0.7-0.3-0.9-0.6c-0.1-0.2-0.1-0.3-0.1-0.5v-5.8h-0.4v14.4
				c0,0.6-0.5,1.1-1,1.1c-0.6,0-1-0.5-1-1.1v-7.5h-0.3v7.5c0,0.6-0.5,1.1-1,1.1c-0.6,0-1-0.5-1-1.1v-8v-6.3h-0.4v5.8
				c0,0.2,0,0.4-0.1,0.5c-0.2,0.4-0.5,0.6-0.9,0.6c-0.5,0-1-0.5-1-1.1v-5.8c0-0.1,0-0.1,0-0.2c0.1-1.1,1.1-2,2.2-2l0,0h4.2l0,0
				C-148.4,387.6-147.4,388.6-147.2,389.7L-147.2,389.7C-147.2,389.7-147.2,389.7-147.2,389.7z M-151.5,382.9c-1.1,0-2,1-2,2
				c0,1.1,1,2,2,2c1.1,0,2-1,2-2C-149.4,383.7-150.4,382.9-151.5,382.9z"/>
			<path class="st8" d="M-136.3,389.7v5.8c0,0.6-0.4,1.1-1,1.1c-0.4,0-0.7-0.3-0.9-0.6c-0.1-0.2-0.1-0.3-0.1-0.5v-5.8h-0.4v14.4
				c0,0.6-0.5,1.1-1,1.1c-0.6,0-1-0.5-1-1.1v-7.5h-0.3v7.5c0,0.6-0.5,1.1-1,1.1c-0.6,0-1-0.5-1-1.1v-8v-6.3h-0.4v5.8
				c0,0.2,0,0.4-0.1,0.5c-0.2,0.4-0.5,0.6-0.9,0.6c-0.5,0-1-0.5-1-1.1v-5.8c0-0.1,0-0.1,0-0.2c0.1-1.1,1.1-2,2.2-2l0,0h4.2l0,0
				C-137.4,387.6-136.5,388.6-136.3,389.7L-136.3,389.7C-136.3,389.7-136.3,389.7-136.3,389.7z M-140.6,382.9c-1.1,0-2,1-2,2
				c0,1.1,1,2,2,2c1.1,0,2-1,2-2C-138.6,383.7-139.4,382.9-140.6,382.9z"/>
			<path class="st8" d="M-125.4,389.7v5.8c0,0.6-0.4,1.1-1,1.1c-0.4,0-0.7-0.3-0.9-0.6c-0.1-0.2-0.1-0.3-0.1-0.5v-5.8h-0.4v14.4
				c0,0.6-0.5,1.1-1,1.1c-0.6,0-1-0.5-1-1.1v-7.5h-0.3v7.5c0,0.6-0.5,1.1-1,1.1c-0.6,0-1-0.5-1-1.1v-8v-6.3h-0.4v5.8
				c0,0.2,0,0.4-0.1,0.5c-0.2,0.4-0.5,0.6-0.9,0.6c-0.5,0-1-0.5-1-1.1v-5.8c0-0.1,0-0.1,0-0.2c0.1-1.1,1.1-2,2.2-2l0,0h4.2l0,0
				C-126.5,387.6-125.6,388.6-125.4,389.7L-125.4,389.7C-125.4,389.7-125.4,389.7-125.4,389.7z M-129.7,382.9c-1.1,0-2,1-2,2
				c0,1.1,1,2,2,2c1.1,0,2-1,2-2C-127.6,383.7-128.5,382.9-129.7,382.9z"/>
			<path class="st8" d="M-114.4,389.7v5.8c0,0.6-0.4,1.1-1,1.1c-0.4,0-0.7-0.3-0.9-0.6c-0.1-0.2-0.1-0.3-0.1-0.5v-5.8h-0.4v14.4
				c0,0.6-0.5,1.1-1,1.1c-0.6,0-1-0.5-1-1.1v-7.5h-0.3v7.5c0,0.6-0.5,1.1-1,1.1c-0.6,0-1-0.5-1-1.1v-8v-6.3h-0.4v5.8
				c0,0.2,0,0.4-0.1,0.5c-0.2,0.4-0.5,0.6-0.9,0.6c-0.5,0-1-0.5-1-1.1v-5.8c0-0.1,0-0.1,0-0.2c0.1-1.1,1.1-2,2.2-2l0,0h4.2l0,0
				C-115.5,387.6-114.6,388.6-114.4,389.7L-114.4,389.7C-114.4,389.7-114.4,389.7-114.4,389.7z M-118.7,382.9c-1.1,0-2,1-2,2
				c0,1.1,1,2,2,2c1.1,0,2-1,2-2C-116.7,383.7-117.6,382.9-118.7,382.9z"/>
			<path class="st8" d="M-103.5,389.7v5.8c0,0.6-0.4,1.1-1,1.1c-0.4,0-0.7-0.3-0.9-0.6c-0.1-0.2-0.1-0.3-0.1-0.5v-5.8h-0.4v14.4
				c0,0.6-0.5,1.1-1,1.1c-0.6,0-1-0.5-1-1.1v-7.5h-0.3v7.5c0,0.6-0.5,1.1-1,1.1c-0.6,0-1-0.5-1-1.1v-8v-6.3h-0.4v5.8
				c0,0.2,0,0.4-0.1,0.5c-0.2,0.4-0.5,0.6-0.9,0.6c-0.5,0-1-0.5-1-1.1v-5.8c0-0.1,0-0.1,0-0.2c0.1-1.1,1.1-2,2.2-2l0,0h4.2l0,0
				C-104.7,387.6-103.7,388.6-103.5,389.7L-103.5,389.7C-103.5,389.7-103.5,389.7-103.5,389.7z M-107.8,382.9c-1.1,0-2,1-2,2
				c0,1.1,1,2,2,2s2-1,2-2C-105.7,383.7-106.7,382.9-107.8,382.9z"/>
			<path class="st8" d="M-92.5,389.7v5.8c0,0.6-0.4,1.1-1,1.1c-0.4,0-0.7-0.3-0.9-0.6c-0.1-0.2-0.1-0.3-0.1-0.5v-5.8h-0.4v14.4
				c0,0.6-0.5,1.1-1,1.1c-0.6,0-1-0.5-1-1.1v-7.5H-97v7.5c0,0.6-0.5,1.1-1,1.1c-0.6,0-1-0.5-1-1.1v-8v-6.3h-0.4v5.8
				c0,0.2,0,0.4-0.1,0.5c-0.2,0.4-0.5,0.6-0.9,0.6c-0.5,0-1-0.5-1-1.1v-5.8c0-0.1,0-0.1,0-0.2c0.1-1.1,1.1-2,2.2-2l0,0h4.2l0,0
				C-93.7,387.6-92.7,388.6-92.5,389.7L-92.5,389.7C-92.5,389.7-92.5,389.7-92.5,389.7z M-96.8,382.9c-1.1,0-2,1-2,2c0,1.1,1,2,2,2
				c1.1,0,2-1,2-2C-94.8,383.7-95.7,382.9-96.8,382.9z"/>
			<path class="st8" d="M-81.7,389.7v5.8c0,0.6-0.4,1.1-1,1.1c-0.4,0-0.7-0.3-0.9-0.6c-0.1-0.2-0.1-0.3-0.1-0.5v-5.8h-0.4v14.4
				c0,0.6-0.5,1.1-1,1.1c-0.6,0-1-0.5-1-1.1v-7.5h-0.3v7.5c0,0.6-0.5,1.1-1,1.1c-0.6,0-1-0.5-1-1.1v-8v-6.3h-0.4v5.8
				c0,0.2,0,0.4-0.1,0.5c-0.2,0.4-0.5,0.6-0.9,0.6c-0.5,0-1-0.5-1-1.1v-5.8c0-0.1,0-0.1,0-0.2c0.1-1.1,1.1-2,2.2-2l0,0h4.2l0,0
				C-82.8,387.6-81.8,388.6-81.7,389.7L-81.7,389.7C-81.7,389.7-81.7,389.7-81.7,389.7z M-85.9,382.9c-1.1,0-2,1-2,2c0,1.1,1,2,2,2
				c1.1,0,2-1,2-2C-83.8,383.7-84.8,382.9-85.9,382.9z"/>
			<path class="st8" d="M-70.7,389.7v5.8c0,0.6-0.4,1.1-1,1.1c-0.4,0-0.7-0.3-0.9-0.6c-0.1-0.2-0.1-0.3-0.1-0.5v-5.8h-0.3v14.4
				c0,0.6-0.5,1.1-1,1.1c-0.6,0-1-0.5-1-1.1v-7.5h-0.3v7.5c0,0.6-0.5,1.1-1,1.1c-0.5,0-1-0.5-1-1.1v-8v-6.3h-0.4v5.8
				c0,0.2,0,0.4-0.1,0.5c-0.2,0.4-0.5,0.6-0.9,0.6c-0.5,0-1-0.5-1-1.1v-5.8c0-0.1,0-0.1,0-0.2c0.1-1.1,1.1-2,2.2-2l0,0h4.2l0,0
				C-71.7,387.6-70.8,388.6-70.7,389.7L-70.7,389.7C-70.7,389.7-70.7,389.7-70.7,389.7z M-75,382.9c-1.1,0-2,1-2,2c0,1.1,1,2,2,2
				c1.1,0,2-1,2-2C-73,383.7-73.8,382.9-75,382.9z"/>
			<path class="st8" d="M-59.8,389.7v5.8c0,0.6-0.4,1.1-1,1.1c-0.4,0-0.7-0.3-0.9-0.6c-0.1-0.2-0.1-0.3-0.1-0.5v-5.8h-0.4v14.4
				c0,0.6-0.5,1.1-1,1.1c-0.6,0-1-0.5-1-1.1v-7.5h-0.3v7.5c0,0.6-0.5,1.1-1,1.1c-0.6,0-1-0.5-1-1.1v-8v-6.3h-0.4v5.8
				c0,0.2,0,0.4-0.1,0.5c-0.2,0.4-0.5,0.6-0.9,0.6c-0.5,0-1-0.5-1-1.1v-5.8c0-0.1,0-0.1,0-0.2c0.1-1.1,1.1-2,2.2-2l0,0h4.2l0,0
				C-60.9,387.6-60,388.6-59.8,389.7L-59.8,389.7C-59.8,389.7-59.8,389.7-59.8,389.7z M-64.1,382.9c-1.1,0-2,1-2,2c0,1.1,1,2,2,2
				c1.1,0,2-1,2-2C-62,383.7-62.9,382.9-64.1,382.9z"/>
			<path class="st8" d="M-48.8,389.7v5.8c0,0.6-0.4,1.1-1,1.1c-0.4,0-0.7-0.3-0.9-0.6c-0.1-0.2-0.1-0.3-0.1-0.5v-5.8h-0.4v14.4
				c0,0.6-0.5,1.1-1,1.1c-0.6,0-1-0.5-1-1.1v-7.5h-0.3v7.5c0,0.6-0.5,1.1-1,1.1c-0.6,0-1-0.5-1-1.1v-8v-6.3h-0.4v5.8
				c0,0.2,0,0.4-0.1,0.5c-0.2,0.4-0.5,0.6-0.9,0.6c-0.5,0-1-0.5-1-1.1v-5.8c0-0.1,0-0.1,0-0.2c0.1-1.1,1.1-2,2.2-2l0,0h4.2l0,0
				C-49.9,387.6-49,388.6-48.8,389.7L-48.8,389.7C-48.8,389.7-48.8,389.7-48.8,389.7z M-53.1,382.9c-1.1,0-2,1-2,2c0,1.1,1,2,2,2
				c1.1,0,2-1,2-2C-51.1,383.7-52,382.9-53.1,382.9z"/>
		</g>
	</g>
</g>
</svg>
