<?xml version="1.0" encoding="utf-8"?>
<!-- Generator: Adobe Illustrator 19.0.0, SVG Export Plug-In . SVG Version: 6.00 Build 0)  -->
<svg version="1.1" id="Layer_1" xmlns="http://www.w3.org/2000/svg" xmlns:xlink="http://www.w3.org/1999/xlink" x="0px" y="0px"
	 viewBox="0 0 182.3 175.7" style="enable-background:new 0 0 182.3 175.7;" xml:space="preserve">
<style type="text/css">
	.st0{fill:#FFEDDF;}
	.st1{fill-rule:evenodd;clip-rule:evenodd;fill:#333333;}
	.st2{fill:#333333;}
	.st3{fill-rule:evenodd;clip-rule:evenodd;fill:#F45A52;}
	.st4{fill-rule:evenodd;clip-rule:evenodd;fill:#63CBE5;}
	.st5{fill-rule:evenodd;clip-rule:evenodd;fill:#8DC63F;}
	.st6{fill-rule:evenodd;clip-rule:evenodd;fill:#754C29;}
	.st7{opacity:0.3;fill-rule:evenodd;clip-rule:evenodd;fill:#750A2B;}
</style>
<rect id="XMLID_17_" x="3.1" y="93.7" class="st0" width="176.1" height="82"/>
<rect id="XMLID_133_" x="52.3" y="72.2" class="st0" width="77.6" height="82"/>
<g id="XMLID_132_">
	<polygon id="XMLID_134_" class="st1" points="39.3,72.2 143,72.2 91.1,32.4 	"/>
</g>
<g id="XMLID_143_">
	<g id="XMLID_139_">
		<path id="XMLID_140_" class="st2" d="M91.1,0h25.5h2.9v2.9v19.6v2.9h-2.9H91.1h-2.9v-2.9V2.9V0H91.1L91.1,0z M113.6,5.9H94v13.7
			h19.7V5.9z"/>
	</g>
	<g id="XMLID_137_">
		<rect id="XMLID_138_" x="88.1" y="14.7" class="st2" width="5.9" height="31.4"/>
	</g>
	<g id="XMLID_135_">
		<polygon id="XMLID_136_" class="st3" points="94,19.6 113.6,19.6 113.6,5.9 94,5.9 94,14.7 		"/>
	</g>
</g>
<rect id="XMLID_144_" y="88.7" class="st2" width="182.3" height="16.5"/>
<rect id="XMLID_145_" x="52.3" y="72.2" class="st2" width="8.3" height="103.5"/>
<rect id="XMLID_147_" x="123.1" y="72.2" class="st2" width="8.3" height="103.5"/>
<rect id="XMLID_149_" x="74.5" y="110" class="st1" width="33.3" height="28"/>
<rect id="XMLID_146_" x="78.5" y="114" class="st4" width="25.3" height="20"/>
<g id="XMLID_152_">
	<rect id="XMLID_157_" x="14.3" y="110" class="st1" width="14.7" height="12.3"/>
	<rect id="XMLID_156_" x="16" y="111.7" class="st4" width="11.1" height="8.8"/>
</g>
<g id="XMLID_159_">
	<rect id="XMLID_161_" x="32" y="110" class="st1" width="14.7" height="12.3"/>
	<rect id="XMLID_160_" x="33.7" y="111.7" class="st4" width="11.1" height="8.8"/>
</g>
<g id="XMLID_165_">
	<rect id="XMLID_167_" x="14.3" y="125.7" class="st1" width="14.7" height="12.3"/>
	<rect id="XMLID_166_" x="16" y="127.4" class="st4" width="11.1" height="8.8"/>
</g>
<g id="XMLID_162_">
	<rect id="XMLID_164_" x="32" y="125.7" class="st1" width="14.7" height="12.3"/>
	<rect id="XMLID_163_" x="33.7" y="127.4" class="st4" width="11.1" height="8.8"/>
</g>
<g id="XMLID_171_">
	<rect id="XMLID_173_" x="14.3" y="141.3" class="st1" width="14.7" height="12.3"/>
	<rect id="XMLID_172_" x="16" y="143.1" class="st4" width="11.1" height="8.8"/>
</g>
<g id="XMLID_168_">
	<rect id="XMLID_170_" x="32" y="141.3" class="st1" width="14.7" height="12.3"/>
	<rect id="XMLID_169_" x="33.7" y="143.1" class="st4" width="11.1" height="8.8"/>
</g>
<g id="XMLID_189_">
	<rect id="XMLID_191_" x="136.3" y="110" class="st1" width="14.7" height="12.3"/>
	<rect id="XMLID_190_" x="138" y="111.7" class="st4" width="11.1" height="8.8"/>
</g>
<g id="XMLID_186_">
	<rect id="XMLID_188_" x="154" y="110" class="st1" width="14.7" height="12.3"/>
	<rect id="XMLID_187_" x="155.7" y="111.7" class="st4" width="11.1" height="8.8"/>
</g>
<g id="XMLID_183_">
	<rect id="XMLID_185_" x="136.3" y="125.7" class="st1" width="14.7" height="12.3"/>
	<rect id="XMLID_184_" x="138" y="127.4" class="st4" width="11.1" height="8.8"/>
</g>
<g id="XMLID_180_">
	<rect id="XMLID_182_" x="154" y="125.7" class="st1" width="14.7" height="12.3"/>
	<rect id="XMLID_181_" x="155.7" y="127.4" class="st4" width="11.1" height="8.8"/>
</g>
<g id="XMLID_177_">
	<rect id="XMLID_179_" x="136.3" y="141.3" class="st1" width="14.7" height="12.3"/>
	<rect id="XMLID_178_" x="138" y="143.1" class="st4" width="11.1" height="8.8"/>
</g>
<g id="XMLID_174_">
	<rect id="XMLID_176_" x="154" y="141.3" class="st1" width="14.7" height="12.3"/>
	<rect id="XMLID_175_" x="155.7" y="143.1" class="st4" width="11.1" height="8.8"/>
</g>
<rect id="XMLID_148_" x="3.1" y="105.2" class="st1" width="6.5" height="70.5"/>
<rect id="XMLID_151_" x="172.7" y="105.2" class="st1" width="6.5" height="70.5"/>
<rect id="XMLID_154_" x="114.8" y="162.9" class="st5" width="62.3" height="9.3"/>
<rect id="XMLID_155_" x="4.2" y="162.9" class="st5" width="62.3" height="9.3"/>
<rect id="XMLID_153_" x="110.5" y="166.4" class="st1" width="70.7" height="9.3"/>
<rect id="XMLID_150_" y="166.4" class="st1" width="70.7" height="9.3"/>
<g id="XMLID_158_">
	<path id="XMLID_192_" class="st6" d="M83.6,148.4c-1.4,1.4-2.3,3.4-2.3,5.6v21.7H101V154c0-2.2-0.9-4.2-2.3-5.6
		c-1.4-1.4-3.4-2.3-5.6-2.3h-3.9C87,146.1,85,146.9,83.6,148.4z"/>
</g>
<rect id="XMLID_193_" x="60.6" y="72.2" class="st7" width="62.5" height="8.2"/>
<rect id="XMLID_195_" x="60.6" y="105.2" class="st7" width="62.5" height="3"/>
<rect id="XMLID_198_" x="74.5" y="138" class="st7" width="33.3" height="3"/>
<rect id="XMLID_196_" x="131.4" y="105.2" class="st7" width="41.7" height="3"/>
<rect id="XMLID_197_" x="9.6" y="105.2" class="st7" width="42.7" height="3"/>
</svg>
