<?xml version="1.0" encoding="utf-8"?>
<!-- Generator: Adobe Illustrator 19.0.0, SVG Export Plug-In . SVG Version: 6.00 Build 0)  -->
<svg version="1.1" id="Layer_1" xmlns="http://www.w3.org/2000/svg" xmlns:xlink="http://www.w3.org/1999/xlink" x="0px" y="0px"
	 viewBox="0 0 6968.6 265" style="enable-background:new 0 0 6968.6 265;" xml:space="preserve">
<style type="text/css">
	.st0{fill:#699F42;}
	.st1{fill:#82C341;}
</style>
<path id="XMLID_6_" class="st0" d="M658.7,64.2C584.9,20.6,495-3.3,398.9,0.4C211.9,7.5,56.4,117.2,0,265h361.8h468
	C800,181.8,738.8,111.5,658.7,64.2z"/>
<path id="XMLID_5_" class="st1" d="M642.5,63.4c-8.5,0-16.9,0.3-25.2,0.8C479.2,73.1,364,154.3,320.4,265h468h176.2
	C918.3,147.6,791.6,63.4,642.5,63.4z"/>
<path id="XMLID_7_" class="st0" d="M4321.4,164.6c-36.9-21.8-81.9-33.8-129.9-31.9c-93.5,3.6-171.2,58.4-199.4,132.3h180.9h234
	C4392,223.4,4361.4,188.2,4321.4,164.6z"/>
<path id="XMLID_8_" class="st0" d="M5254.7,82.8c-67-39.5-148.6-61.3-235.8-57.9c-169.7,6.5-310.8,106-362,240.2h328.4H5410
	C5382.9,189.5,5327.4,125.6,5254.7,82.8z"/>
<path id="XMLID_9_" class="st0" d="M5401.7,145.3c-44-26-97.6-40.3-154.9-38.1c-111.5,4.3-204.2,69.6-237.8,157.8h215.8h279
	C5485.9,215.4,5449.4,173.4,5401.7,145.3z"/>
<path id="XMLID_10_" class="st0" d="M4785.3,205.1c-22-13-48.8-20.1-77.5-19c-55.7,2.1-102.1,34.8-118.9,78.9h107.9h139.5
	C4827.4,240.2,4809.1,219.2,4785.3,205.1z"/>
<path id="XMLID_4_" class="st1" d="M4313.2,164.2c-4.2,0-8.4,0.1-12.6,0.4c-69,4.4-126.6,45-148.4,100.4h234h88.1
	C4451.2,206.3,4387.8,164.2,4313.2,164.2z"/>
<path id="XMLID_37_" class="st1" d="M4864,174.3c-3.8,0-7.6,0.1-11.3,0.4c-62.1,4-113.9,40.5-133.5,90.3h210.5h79.3
	C4988.1,212.2,4931.1,174.3,4864,174.3z"/>
<path id="XMLID_38_" class="st1" d="M4992.5,214.6c-2.1,0-4.2,0.1-6.3,0.2c-34.5,2.2-63.3,22.5-74.2,50.2h117h44.1
	C5061.5,235.6,5029.8,214.6,4992.5,214.6z"/>
<path id="XMLID_2_" class="st1" d="M1458.5,146c-5,0-10,0.2-14.9,0.5c-81.5,5.2-149.5,53.2-175.3,118.5h276.3h104
	C1621.4,195.7,1546.6,146,1458.5,146z"/>
<path id="XMLID_3_" class="st1" d="M1730,83.7c-7.6,0-15.2,0.3-22.7,0.7c-124.1,8-227.7,81-266.9,180.5h420.8h158.5
	C1978,159.5,1864.1,83.7,1730,83.7z"/>
</svg>
