<?xml version="1.0" encoding="utf-8"?>
<!-- Generator: Adobe Illustrator 19.0.0, SVG Export Plug-In . SVG Version: 6.00 Build 0)  -->
<svg version="1.1" id="Layer_1" xmlns="http://www.w3.org/2000/svg" xmlns:xlink="http://www.w3.org/1999/xlink" x="0px" y="0px"
	 viewBox="0 0 380.9 448.5" style="enable-background:new 0 0 380.9 448.5;" xml:space="preserve">
<style type="text/css">
	.st0{fill:#E5D0AC;}
	.st1{fill:#BE1E2D;}
	.st2{fill-rule:evenodd;clip-rule:evenodd;fill:#63CBE5;}
	.st3{fill-rule:evenodd;clip-rule:evenodd;fill:#FFFFFF;}
	.st4{fill-rule:evenodd;clip-rule:evenodd;fill:#8DC63F;}
	.st5{opacity:0.3;fill-rule:evenodd;clip-rule:evenodd;fill:#6B0E34;}
	.st6{opacity:0.2;fill-rule:evenodd;clip-rule:evenodd;fill:#6B0E34;}
	.st7{opacity:0.3;fill:#6B0E34;}
	.st8{fill:#FECA5F;}
	.st9{fill:#333333;}
</style>
<polygon id="XMLID_1_" class="st0" points="332.4,448.5 48.5,448.5 48.5,167.8 190.4,37.8 332.4,167.8 "/>
<rect id="XMLID_2_" x="255.9" class="st1" width="48.5" height="132.4"/>
<g id="XMLID_20_">
	<g id="XMLID_13_">
		<g id="XMLID_7_">
			<rect id="XMLID_8_" x="232.1" y="223.2" class="st2" width="67.6" height="67.6"/>
		</g>
		<rect id="XMLID_11_" x="232.1" y="218.2" class="st3" width="6.5" height="72.6"/>
		<rect id="XMLID_12_" x="296.5" y="218.2" class="st3" width="6.5" height="72.6"/>
	</g>
	<g id="XMLID_9_">
		<rect id="XMLID_4_" x="228.7" y="216" class="st3" width="77.5" height="20"/>
		<rect id="XMLID_10_" x="228.7" y="280.8" class="st3" width="77.5" height="12.9"/>
	</g>
	<rect id="XMLID_14_" x="234.2" y="267.7" class="st4" width="65.5" height="13.1"/>
	<polygon id="XMLID_15_" class="st5" points="228.7,293.7 306.3,293.7 306.3,303.2 228.7,296.8 	"/>
	<rect id="XMLID_16_" x="238.6" y="236" class="st6" width="57.9" height="7.2"/>
	<rect id="XMLID_17_" x="296.5" y="236" class="st6" width="6.5" height="4.8"/>
	<rect id="XMLID_19_" x="232.1" y="236" class="st6" width="6.5" height="4.8"/>
	<rect id="XMLID_18_" x="234.2" y="267.7" class="st6" width="65.5" height="1.3"/>
	<rect id="XMLID_21_" x="269.9" y="269" class="st6" width="29.8" height="11.8"/>
</g>
<g id="XMLID_23_">
	<g id="XMLID_34_">
		<g id="XMLID_37_">
			<rect id="XMLID_38_" x="68.4" y="223.2" class="st2" width="67.6" height="67.6"/>
		</g>
		<rect id="XMLID_36_" x="68.4" y="218.2" class="st3" width="6.5" height="72.6"/>
		<rect id="XMLID_35_" x="132.7" y="218.2" class="st3" width="6.5" height="72.6"/>
	</g>
	<g id="XMLID_31_">
		<rect id="XMLID_33_" x="65" y="216" class="st3" width="77.5" height="20"/>
		<rect id="XMLID_32_" x="65" y="280.8" class="st3" width="77.5" height="12.9"/>
	</g>
	<rect id="XMLID_30_" x="70.5" y="267.7" class="st4" width="65.5" height="13.1"/>
	<polygon id="XMLID_29_" class="st5" points="65,293.7 142.5,293.7 142.5,303.2 65,296.8 	"/>
	<rect id="XMLID_28_" x="74.8" y="236" class="st6" width="57.9" height="7.2"/>
	<rect id="XMLID_27_" x="132.7" y="236" class="st6" width="6.5" height="4.8"/>
	<rect id="XMLID_26_" x="68.4" y="236" class="st6" width="6.5" height="4.8"/>
	<rect id="XMLID_25_" x="70.5" y="267.7" class="st6" width="65.5" height="1.3"/>
	<rect id="XMLID_24_" x="106.1" y="269" class="st6" width="29.8" height="11.8"/>
</g>
<rect id="XMLID_5_" x="284.8" class="st5" width="19.6" height="132.4"/>
<polygon id="XMLID_3_" class="st1" points="0,190 190.4,15.6 380.9,190 "/>
<rect id="XMLID_6_" x="48.5" y="190" class="st7" width="283.8" height="16.6"/>
<rect id="XMLID_22_" x="148.4" y="349.1" class="st8" width="76.2" height="99.5"/>
<rect id="XMLID_59_" x="140.7" y="337.3" class="st9" width="91.6" height="23.3"/>
<circle id="XMLID_60_" class="st9" cx="210.2" cy="398.8" r="7.2"/>
<rect id="XMLID_62_" x="45.8" y="406.1" class="st4" width="65.5" height="13.1"/>
<rect id="XMLID_65_" x="116.8" y="406.1" class="st4" width="22.1" height="13.1"/>
<rect id="XMLID_67_" x="271" y="406.1" class="st4" width="65.5" height="13.1"/>
<rect id="XMLID_66_" x="243.5" y="406.1" class="st4" width="22.1" height="13.1"/>
<rect id="XMLID_61_" x="37.5" y="412.7" class="st9" width="105" height="35.9"/>
<rect id="XMLID_63_" x="235.3" y="412.7" class="st9" width="105" height="35.9"/>
<rect id="XMLID_64_" x="148.4" y="360.7" class="st7" width="76.2" height="12.8"/>
</svg>
