<?xml version="1.0" encoding="utf-8"?>
<!-- Generator: Adobe Illustrator 19.0.0, SVG Export Plug-In . SVG Version: 6.00 Build 0)  -->
<svg version="1.1" id="Layer_1" xmlns="http://www.w3.org/2000/svg" xmlns:xlink="http://www.w3.org/1999/xlink" x="0px" y="0px"
	 viewBox="-848 411.4 326 321.6" style="enable-background:new -848 411.4 326 321.6;" xml:space="preserve">
<style type="text/css">
	.st0{fill:#8B5E3C;}
	.st1{fill:#A97C50;}
	.st2{fill:#414042;}
	.st3{fill:#009444;}
	.st4{fill:#603913;}
	.st5{fill:#FFFFFF;}
</style>
<g id="XMLID_4_">
	<g id="XMLID_3_">
		<rect x="-797.1" y="652" class="st0" width="28.5" height="81"/>
	</g>
	<g id="XMLID_6_">
		<rect x="-617.4" y="652" class="st0" width="28.5" height="81"/>
	</g>
</g>
<g id="XMLID_1_">
	<path id="XMLID_73_" class="st1" d="M-838,653.3V433.7c0-6.8,5.5-12.3,12.3-12.3h281.4c6.8,0,12.3,5.5,12.3,12.3v219.6
		c0,6.8-5.5,12.3-12.3,12.3h-281.5C-832.5,665.5-838,660.1-838,653.3z"/>
	<path id="XMLID_76_" class="st2" d="M-848,653.3V433.7c0-12.3,10-22.3,22.3-22.3h281.4c12.3,0,22.3,10,22.3,22.3v219.6
		c0,12.3-10,22.3-22.3,22.3h-281.5C-838,675.5-848,665.6-848,653.3z M-542,433.7c0-1.3-1-2.3-2.3-2.3h-281.5c-1.2,0-2.3,1-2.3,2.3
		v219.6c0,1.2,1,2.3,2.3,2.3h281.5c1.2,0,2.3-1,2.3-2.3V433.7z"/>
</g>
<g id="XMLID_20_">
	<rect x="-803.9" y="714.1" class="st3" width="41.3" height="18.9"/>
</g>
<g id="XMLID_22_">
	<rect x="-623.8" y="714.1" class="st3" width="41.3" height="18.9"/>
</g>
<g id="XMLID_23_">
	<polygon class="st4" points="-797.1,675.6 -768.6,675.6 -768.6,696.2 	"/>
</g>
<g id="XMLID_24_">
	<polygon class="st4" points="-617.4,675.5 -588.9,675.5 -588.9,696.2 	"/>
</g>
<g>
	<g>
		<path class="st5" d="M-789.2,536.1l9.6-18.1h-10.8v-7h20.1v6l-9,19.2H-789.2z"/>
		<path class="st5" d="M-749.4,522.9c0.6,0.2,1.2,0.5,1.8,0.9c0.5,0.4,1,0.8,1.4,1.3c0.4,0.5,0.7,1,0.9,1.6c0.2,0.6,0.3,1.2,0.3,1.8
			c0,1.5-0.3,2.7-0.9,3.8c-0.6,1.1-1.4,1.9-2.4,2.6c-1,0.7-2.1,1.2-3.4,1.5c-1.3,0.3-2.5,0.5-3.8,0.5c-1.3,0-2.5-0.1-3.8-0.4
			c-1.2-0.3-2.4-0.8-3.4-1.4c-1-0.6-1.9-1.4-2.7-2.4c-0.8-1-1.3-2.1-1.7-3.5l7.9-1.9c0.1,0.6,0.5,1.2,1,1.7c0.6,0.5,1.3,0.8,2.2,0.8
			c0.2,0,0.5,0,0.7-0.1c0.3-0.1,0.5-0.2,0.7-0.3c0.2-0.1,0.4-0.3,0.5-0.5c0.1-0.2,0.2-0.5,0.2-0.8c0-0.8-0.3-1.3-1-1.5
			c-0.7-0.2-1.6-0.4-2.7-0.4h-2.4v-5.8h2.7c0.9,0,1.6-0.1,2.2-0.4c0.5-0.2,0.8-0.7,0.8-1.4c0-0.5-0.2-0.9-0.6-1.1
			c-0.4-0.2-0.9-0.3-1.4-0.3c-0.6,0-1.1,0.2-1.6,0.6c-0.5,0.4-0.8,0.9-0.9,1.6l-7.9-1.7c0.4-1.4,1-2.5,1.8-3.5s1.7-1.7,2.7-2.3
			c1-0.6,2.1-1,3.2-1.2c1.2-0.2,2.3-0.4,3.4-0.4c1.1,0,2.3,0.1,3.5,0.4c1.2,0.3,2.3,0.7,3.2,1.3c1,0.6,1.8,1.4,2.4,2.3
			c0.6,0.9,0.9,2.1,0.9,3.4c0,1.4-0.4,2.6-1.1,3.4c-0.7,0.8-1.7,1.4-2.7,1.7V522.9z"/>
		<path class="st5" d="M-801.3,553.3c0,1-0.2,2-0.5,2.9c-0.4,0.9-0.9,1.6-1.5,2.3s-1.4,1.1-2.3,1.5c-0.9,0.4-1.8,0.5-2.9,0.5
			s-2-0.2-2.9-0.5c-0.9-0.4-1.6-0.8-2.3-1.5s-1.1-1.4-1.5-2.3c-0.4-0.9-0.5-1.8-0.5-2.9c0-1.1,0.2-2,0.5-2.9
			c0.4-0.9,0.9-1.6,1.5-2.2s1.4-1.1,2.3-1.4c0.9-0.3,1.8-0.5,2.9-0.5s2,0.2,2.9,0.5c0.9,0.3,1.6,0.8,2.3,1.4s1.1,1.4,1.5,2.2
			C-801.5,551.3-801.3,552.2-801.3,553.3z M-803.4,553.3c0-0.7-0.1-1.4-0.4-2.1c-0.2-0.7-0.6-1.2-1-1.7c-0.4-0.5-1-0.9-1.6-1.2
			c-0.6-0.3-1.3-0.4-2.1-0.4c-0.8,0-1.5,0.1-2.1,0.4c-0.6,0.3-1.2,0.7-1.6,1.2c-0.4,0.5-0.8,1.1-1,1.7c-0.2,0.7-0.4,1.4-0.4,2.1
			c0,0.8,0.1,1.5,0.4,2.1c0.2,0.7,0.6,1.2,1,1.7c0.4,0.5,1,0.9,1.6,1.2s1.3,0.4,2.1,0.4c0.8,0,1.5-0.1,2.1-0.4
			c0.6-0.3,1.2-0.7,1.6-1.2c0.4-0.5,0.8-1.1,1-1.7C-803.5,554.8-803.4,554-803.4,553.3z"/>
		<path class="st5" d="M-795.2,557.3L-795.2,557.3l3.2-10.8h2.1l3.2,10.8h0l3-10.8h2l-4,13.6h-2l-3.3-10.9h0l-3.3,10.9h-2l-4-13.6
			h2.1L-795.2,557.3z"/>
		<path class="st5" d="M-770.2,557.4L-770.2,557.4l0-10.9h1.9v13.6h-2.4l-7.2-11.1h0v11.1h-1.9v-13.6h2.5L-770.2,557.4z"/>
		<path class="st5" d="M-746.5,553.3c0,1-0.2,2-0.5,2.9c-0.4,0.9-0.9,1.6-1.5,2.3s-1.4,1.1-2.3,1.5c-0.9,0.4-1.8,0.5-2.9,0.5
			s-2-0.2-2.9-0.5c-0.9-0.4-1.6-0.8-2.3-1.5s-1.1-1.4-1.5-2.3c-0.4-0.9-0.5-1.8-0.5-2.9c0-1.1,0.2-2,0.5-2.9
			c0.4-0.9,0.9-1.6,1.5-2.2s1.4-1.1,2.3-1.4c0.9-0.3,1.8-0.5,2.9-0.5s2,0.2,2.9,0.5c0.9,0.3,1.6,0.8,2.3,1.4s1.1,1.4,1.5,2.2
			C-746.7,551.3-746.5,552.2-746.5,553.3z M-748.6,553.3c0-0.7-0.1-1.4-0.4-2.1c-0.2-0.7-0.6-1.2-1-1.7c-0.4-0.5-1-0.9-1.6-1.2
			c-0.6-0.3-1.3-0.4-2.1-0.4c-0.8,0-1.5,0.1-2.1,0.4c-0.6,0.3-1.2,0.7-1.6,1.2c-0.4,0.5-0.8,1.1-1,1.7c-0.2,0.7-0.4,1.4-0.4,2.1
			c0,0.8,0.1,1.5,0.4,2.1c0.2,0.7,0.6,1.2,1,1.7c0.4,0.5,1,0.9,1.6,1.2s1.3,0.4,2.1,0.4c0.8,0,1.5-0.1,2.1-0.4
			c0.6-0.3,1.2-0.7,1.6-1.2c0.4-0.5,0.8-1.1,1-1.7C-748.7,554.8-748.6,554-748.6,553.3z"/>
		<path class="st5" d="M-738.7,560.4c-0.9,0-1.7-0.2-2.3-0.5c-0.7-0.3-1.2-0.7-1.6-1.2c-0.4-0.5-0.8-1.1-1-1.7s-0.3-1.3-0.3-2v-8.6
			h1.9v8.4c0,0.5,0.1,0.9,0.2,1.4c0.1,0.5,0.3,0.9,0.6,1.2c0.3,0.4,0.6,0.6,1,0.9s1,0.3,1.6,0.3c0.6,0,1.2-0.1,1.6-0.3
			c0.4-0.2,0.8-0.5,1-0.9c0.3-0.4,0.5-0.8,0.6-1.2c0.1-0.5,0.2-0.9,0.2-1.4v-8.4h1.9v8.6c0,0.7-0.1,1.4-0.3,2s-0.5,1.2-1,1.7
			c-0.4,0.5-1,0.9-1.6,1.2C-737.1,560.3-737.8,560.4-738.7,560.4z"/>
		<path class="st5" d="M-728.4,560.1h-1.9v-13.6h4.4c0.7,0,1.3,0.1,1.9,0.2c0.6,0.1,1.1,0.3,1.5,0.6c0.4,0.3,0.8,0.7,1,1.2
			s0.4,1.1,0.4,1.8c0,1-0.3,1.8-0.9,2.4c-0.6,0.6-1.4,1-2.4,1.2l3.8,6.2h-2.3l-3.5-6h-2V560.1z M-728.4,552.5h2.2
			c0.4,0,0.9,0,1.2-0.1c0.4-0.1,0.7-0.2,1-0.4s0.5-0.4,0.7-0.7c0.2-0.3,0.2-0.6,0.2-1s-0.1-0.8-0.2-1c-0.2-0.3-0.4-0.5-0.7-0.7
			s-0.6-0.3-1-0.4c-0.4-0.1-0.8-0.1-1.2-0.1h-2.3V552.5z"/>
		<path class="st5" d="M-796.3,570.5h1.9v5.7h6.9v-5.7h1.9v13.6h-1.9v-6.2h-6.9v6.2h-1.9V570.5z"/>
		<path class="st5" d="M-768.6,577.3c0,1-0.2,2-0.5,2.9c-0.4,0.9-0.9,1.6-1.5,2.3s-1.4,1.1-2.3,1.5c-0.9,0.4-1.8,0.5-2.9,0.5
			s-2-0.2-2.9-0.5c-0.9-0.4-1.6-0.8-2.3-1.5s-1.1-1.4-1.5-2.3c-0.4-0.9-0.5-1.8-0.5-2.9c0-1.1,0.2-2,0.5-2.9
			c0.4-0.9,0.9-1.6,1.5-2.2s1.4-1.1,2.3-1.4c0.9-0.3,1.8-0.5,2.9-0.5s2,0.2,2.9,0.5c0.9,0.3,1.6,0.8,2.3,1.4s1.1,1.4,1.5,2.2
			C-768.8,575.2-768.6,576.2-768.6,577.3z M-770.7,577.3c0-0.7-0.1-1.4-0.4-2.1c-0.2-0.7-0.6-1.2-1-1.7c-0.4-0.5-1-0.9-1.6-1.2
			c-0.6-0.3-1.3-0.4-2.1-0.4c-0.8,0-1.5,0.1-2.1,0.4c-0.6,0.3-1.2,0.7-1.6,1.2c-0.4,0.5-0.8,1.1-1,1.7c-0.2,0.7-0.4,1.4-0.4,2.1
			c0,0.8,0.1,1.5,0.4,2.1c0.2,0.7,0.6,1.2,1,1.7c0.4,0.5,1,0.9,1.6,1.2s1.3,0.4,2.1,0.4c0.8,0,1.5-0.1,2.1-0.4
			c0.6-0.3,1.2-0.7,1.6-1.2c0.4-0.5,0.8-1.1,1-1.7C-770.8,578.7-770.7,578-770.7,577.3z"/>
		<path class="st5" d="M-759,580.9L-759,580.9l4-10.4h3v13.6h-1.9v-11.4h0l-4.5,11.4h-1.2l-4.5-11.4h0v11.4h-1.8v-13.6h3L-759,580.9
			z"/>
		<path class="st5" d="M-746.8,582.4h7.1v1.7h-9v-13.6h8.7v1.7h-6.8v4.1h6.4v1.6h-6.4V582.4z"/>
	</g>
	<g>
		<path class="st5" d="M-618.8,521.6c0.4-0.3,0.7-0.7,1-1c0.3-0.4,0.4-0.8,0.4-1.2c0-0.5-0.1-0.9-0.4-1.2s-0.8-0.5-1.4-0.5
			c-0.7,0-1.3,0.3-1.7,0.8c-0.5,0.5-0.7,1.3-0.7,2.2l-8.1-0.9c0.2-1.6,0.6-3,1.3-4.2c0.7-1.2,1.5-2.2,2.6-3c1-0.8,2.2-1.4,3.5-1.7
			c1.3-0.4,2.6-0.6,3.9-0.6c1.2,0,2.5,0.2,3.7,0.5c1.2,0.3,2.3,0.8,3.3,1.4c0.9,0.7,1.7,1.5,2.3,2.5c0.6,1,0.9,2.3,0.9,3.8
			c0,1-0.1,2-0.4,2.8s-0.6,1.5-1.1,2.1c-0.5,0.6-1,1.2-1.6,1.7s-1.2,1-1.8,1.4l-3.7,2.6h8.7v7.1h-20.4v-6.6L-618.8,521.6z"/>
		<path class="st5" d="M-604.5,532.1c0-0.6,0.1-1.2,0.4-1.8c0.2-0.6,0.6-1,1-1.5c0.4-0.4,0.9-0.7,1.5-1c0.6-0.2,1.2-0.4,1.8-0.4
			c0.6,0,1.2,0.1,1.8,0.4c0.6,0.2,1,0.6,1.5,1c0.4,0.4,0.8,0.9,1,1.5c0.2,0.6,0.4,1.2,0.4,1.8s-0.1,1.2-0.4,1.8s-0.6,1.1-1,1.5
			c-0.4,0.4-0.9,0.7-1.5,1s-1.1,0.4-1.8,0.4c-0.6,0-1.3-0.1-1.8-0.4s-1.1-0.6-1.5-1c-0.4-0.4-0.8-0.9-1-1.5
			S-604.5,532.7-604.5,532.1z"/>
		<path class="st5" d="M-589.3,536.1l9.6-18.1h-10.8v-7h20.1v6l-9,19.2H-589.3z"/>
		<path class="st5" d="M-647.3,560.1h-1.9v-13.6h4.4c0.7,0,1.3,0.1,1.9,0.2s1.1,0.3,1.5,0.6s0.8,0.7,1,1.2s0.4,1.1,0.4,1.8
			c0,1-0.3,1.8-0.9,2.4c-0.6,0.6-1.4,1-2.4,1.2l3.8,6.2h-2.3l-3.5-6h-2V560.1z M-647.3,552.5h2.2c0.4,0,0.9,0,1.2-0.1
			c0.4-0.1,0.7-0.2,1-0.4c0.3-0.2,0.5-0.4,0.7-0.7c0.2-0.3,0.2-0.6,0.2-1s-0.1-0.8-0.2-1c-0.2-0.3-0.4-0.5-0.7-0.7
			c-0.3-0.2-0.6-0.3-1-0.4c-0.4-0.1-0.8-0.1-1.2-0.1h-2.3V552.5z"/>
		<path class="st5" d="M-635.6,558.4h7.1v1.7h-9v-13.6h8.7v1.7h-6.8v4.1h6.4v1.6h-6.4V558.4z"/>
		<path class="st5" d="M-619.2,549c-0.3-0.4-0.6-0.7-1.1-0.9c-0.5-0.2-1-0.4-1.6-0.4c-0.3,0-0.6,0-0.9,0.1s-0.6,0.2-0.9,0.4
			c-0.3,0.2-0.5,0.4-0.6,0.7c-0.2,0.3-0.2,0.6-0.2,1c0,0.4,0.1,0.7,0.2,0.9c0.1,0.2,0.3,0.5,0.6,0.6c0.2,0.2,0.5,0.3,0.9,0.4
			c0.3,0.1,0.7,0.2,1.1,0.4c0.5,0.1,0.9,0.3,1.4,0.5c0.5,0.2,0.9,0.4,1.3,0.7c0.4,0.3,0.7,0.7,0.9,1.1c0.2,0.4,0.4,1,0.4,1.7
			c0,0.7-0.1,1.3-0.4,1.8c-0.3,0.5-0.6,0.9-1,1.3c-0.4,0.3-0.9,0.6-1.5,0.8c-0.6,0.2-1.2,0.2-1.8,0.2c-0.9,0-1.7-0.2-2.5-0.5
			s-1.5-0.8-2-1.5l1.5-1.2c0.3,0.5,0.7,0.9,1.3,1.2c0.5,0.3,1.1,0.4,1.7,0.4c0.3,0,0.6,0,1-0.1c0.3-0.1,0.6-0.2,0.9-0.4
			c0.3-0.2,0.5-0.4,0.6-0.7c0.2-0.3,0.2-0.6,0.2-1s-0.1-0.8-0.3-1c-0.2-0.3-0.4-0.5-0.7-0.7c-0.3-0.2-0.6-0.4-1-0.5
			c-0.4-0.1-0.8-0.3-1.2-0.4c-0.4-0.1-0.9-0.3-1.3-0.5c-0.4-0.2-0.8-0.4-1.1-0.7c-0.3-0.3-0.6-0.6-0.8-1.1c-0.2-0.4-0.3-0.9-0.3-1.6
			c0-0.7,0.1-1.3,0.4-1.7c0.3-0.5,0.6-0.9,1.1-1.2c0.4-0.3,0.9-0.6,1.5-0.7c0.6-0.1,1.1-0.2,1.7-0.2c0.8,0,1.5,0.1,2.2,0.4
			c0.7,0.3,1.2,0.7,1.7,1.1L-619.2,549z"/>
		<path class="st5" d="M-613.1,560.1h-1.9v-13.6h1.9V560.1z"/>
		<path class="st5" d="M-609.8,546.5h4.7c0.9,0,1.7,0.1,2.6,0.4c0.9,0.3,1.7,0.7,2.4,1.2c0.7,0.5,1.3,1.3,1.7,2.1s0.7,1.9,0.7,3.1
			c0,1.2-0.2,2.2-0.7,3s-1,1.6-1.7,2.1c-0.7,0.6-1.5,1-2.4,1.2c-0.9,0.3-1.7,0.4-2.6,0.4h-4.7V546.5z M-607.9,558.4h2.4
			c0.8,0,1.6-0.1,2.3-0.3c0.7-0.2,1.3-0.6,1.8-1c0.5-0.4,0.9-1,1.2-1.6c0.3-0.6,0.4-1.4,0.4-2.2c0-0.8-0.1-1.6-0.4-2.2
			s-0.7-1.2-1.2-1.6c-0.5-0.4-1.1-0.8-1.8-1c-0.7-0.2-1.5-0.3-2.3-0.3h-2.4V558.4z"/>
		<path class="st5" d="M-593.3,558.4h7.1v1.7h-9v-13.6h8.7v1.7h-6.8v4.1h6.4v1.6h-6.4V558.4z"/>
		<path class="st5" d="M-574.1,557.4L-574.1,557.4l0-10.9h1.9v13.6h-2.4l-7.2-11.1h0v11.1h-1.9v-13.6h2.5L-574.1,557.4z"/>
		<path class="st5" d="M-564.2,560.1h-1.9v-11.9h-4.4v-1.7h10.6v1.7h-4.4V560.1z"/>
		<path class="st5" d="M-551.2,549c-0.3-0.4-0.6-0.7-1.1-0.9c-0.5-0.2-1-0.4-1.6-0.4c-0.3,0-0.6,0-0.9,0.1s-0.6,0.2-0.9,0.4
			c-0.3,0.2-0.5,0.4-0.6,0.7c-0.2,0.3-0.2,0.6-0.2,1c0,0.4,0.1,0.7,0.2,0.9c0.1,0.2,0.3,0.5,0.6,0.6c0.2,0.2,0.5,0.3,0.9,0.4
			c0.3,0.1,0.7,0.2,1.1,0.4c0.5,0.1,0.9,0.3,1.4,0.5c0.5,0.2,0.9,0.4,1.3,0.7c0.4,0.3,0.7,0.7,0.9,1.1c0.2,0.4,0.4,1,0.4,1.7
			c0,0.7-0.1,1.3-0.4,1.8c-0.3,0.5-0.6,0.9-1,1.3c-0.4,0.3-0.9,0.6-1.5,0.8c-0.6,0.2-1.2,0.2-1.8,0.2c-0.9,0-1.7-0.2-2.5-0.5
			s-1.5-0.8-2-1.5l1.5-1.2c0.3,0.5,0.7,0.9,1.3,1.2c0.5,0.3,1.1,0.4,1.7,0.4c0.3,0,0.6,0,1-0.1c0.3-0.1,0.6-0.2,0.9-0.4
			c0.3-0.2,0.5-0.4,0.6-0.7c0.2-0.3,0.2-0.6,0.2-1s-0.1-0.8-0.3-1c-0.2-0.3-0.4-0.5-0.7-0.7c-0.3-0.2-0.6-0.4-1-0.5
			c-0.4-0.1-0.8-0.3-1.2-0.4c-0.4-0.1-0.9-0.3-1.3-0.5c-0.4-0.2-0.8-0.4-1.1-0.7c-0.3-0.3-0.6-0.6-0.8-1.1c-0.2-0.4-0.3-0.9-0.3-1.6
			c0-0.7,0.1-1.3,0.4-1.7c0.3-0.5,0.6-0.9,1.1-1.2c0.4-0.3,0.9-0.6,1.5-0.7c0.6-0.1,1.1-0.2,1.7-0.2c0.8,0,1.5,0.1,2.2,0.4
			c0.7,0.3,1.2,0.7,1.7,1.1L-551.2,549z"/>
		<path class="st5" d="M-647.5,570.5h4.1c0.7,0,1.4,0.1,2,0.2c0.6,0.1,1.1,0.4,1.5,0.7c0.4,0.3,0.7,0.7,1,1.2c0.2,0.5,0.3,1,0.3,1.7
			c0,0.7-0.1,1.3-0.4,1.7c-0.2,0.5-0.6,0.9-1,1.2c-0.4,0.3-1,0.5-1.6,0.7c-0.6,0.1-1.3,0.2-2,0.2h-2.1v6h-1.9V570.5z M-645.6,576.5
			h2c0.5,0,0.9,0,1.3-0.1s0.7-0.2,1-0.4s0.5-0.4,0.7-0.7s0.2-0.6,0.2-1s-0.1-0.8-0.2-1s-0.4-0.5-0.7-0.7c-0.3-0.2-0.6-0.3-1-0.4
			c-0.4-0.1-0.8-0.1-1.2-0.1h-2.1V576.5z"/>
		<path class="st5" d="M-634.2,582.4h7.1v1.7h-9v-13.6h8.7v1.7h-6.8v4.1h6.4v1.6h-6.4V582.4z"/>
		<path class="st5" d="M-622.6,584.1h-1.9v-13.6h4.4c0.7,0,1.3,0.1,1.9,0.2c0.6,0.1,1.1,0.3,1.5,0.6s0.8,0.7,1,1.2s0.4,1.1,0.4,1.8
			c0,1-0.3,1.8-0.9,2.4c-0.6,0.6-1.4,1-2.4,1.2l3.8,6.2h-2.3l-3.5-6h-2V584.1z M-622.6,576.4h2.2c0.4,0,0.9,0,1.2-0.1
			c0.4-0.1,0.7-0.2,1-0.4c0.3-0.2,0.5-0.4,0.7-0.7c0.2-0.3,0.2-0.6,0.2-1s-0.1-0.8-0.2-1c-0.2-0.3-0.4-0.5-0.7-0.7
			c-0.3-0.2-0.6-0.3-1-0.4c-0.4-0.1-0.8-0.1-1.2-0.1h-2.3V576.4z"/>
		<path class="st5" d="M-608,570.5h1.9v5.7h6.9v-5.7h1.9v13.6h-1.9v-6.2h-6.9v6.2h-1.9V570.5z"/>
		<path class="st5" d="M-580.3,577.3c0,1-0.2,2-0.5,2.9s-0.9,1.6-1.5,2.3c-0.6,0.6-1.4,1.1-2.3,1.5c-0.9,0.4-1.8,0.5-2.9,0.5
			c-1,0-2-0.2-2.9-0.5c-0.9-0.4-1.6-0.8-2.3-1.5c-0.6-0.6-1.1-1.4-1.5-2.3c-0.4-0.9-0.5-1.8-0.5-2.9c0-1.1,0.2-2,0.5-2.9
			c0.4-0.9,0.9-1.6,1.5-2.2c0.6-0.6,1.4-1.1,2.3-1.4c0.9-0.3,1.8-0.5,2.9-0.5c1,0,2,0.2,2.9,0.5c0.9,0.3,1.6,0.8,2.3,1.4
			c0.6,0.6,1.1,1.4,1.5,2.2S-580.3,576.2-580.3,577.3z M-582.3,577.3c0-0.7-0.1-1.4-0.4-2.1c-0.2-0.7-0.6-1.2-1-1.7
			c-0.4-0.5-1-0.9-1.6-1.2c-0.6-0.3-1.3-0.4-2.1-0.4c-0.8,0-1.5,0.1-2.1,0.4c-0.6,0.3-1.2,0.7-1.6,1.2c-0.4,0.5-0.8,1.1-1,1.7
			c-0.2,0.7-0.4,1.4-0.4,2.1c0,0.8,0.1,1.5,0.4,2.1c0.2,0.7,0.6,1.2,1,1.7c0.4,0.5,1,0.9,1.6,1.2c0.6,0.3,1.3,0.4,2.1,0.4
			c0.8,0,1.5-0.1,2.1-0.4c0.6-0.3,1.2-0.7,1.6-1.2c0.4-0.5,0.8-1.1,1-1.7C-582.5,578.7-582.3,578-582.3,577.3z"/>
		<path class="st5" d="M-570.7,580.9L-570.7,580.9l4-10.4h3v13.6h-1.9v-11.4h0l-4.5,11.4h-1.2l-4.5-11.4h0v11.4h-1.8v-13.6h3
			L-570.7,580.9z"/>
		<path class="st5" d="M-558.5,582.4h7.1v1.7h-9v-13.6h8.7v1.7h-6.8v4.1h6.4v1.6h-6.4V582.4z"/>
	</g>
</g>
<g>
	<path class="st5" d="M-696.7,580.3c0.4-0.3,0.7-0.7,1-1c0.3-0.4,0.4-0.8,0.4-1.2c0-0.5-0.1-0.9-0.4-1.2c-0.3-0.4-0.8-0.5-1.4-0.5
		c-0.7,0-1.3,0.3-1.7,0.8c-0.5,0.5-0.7,1.3-0.7,2.2l-8.1-0.9c0.2-1.6,0.6-3,1.3-4.2c0.7-1.2,1.5-2.2,2.6-3c1-0.8,2.2-1.4,3.5-1.7
		c1.3-0.4,2.6-0.6,3.9-0.6c1.2,0,2.5,0.2,3.7,0.5c1.2,0.3,2.3,0.8,3.3,1.4c0.9,0.7,1.7,1.5,2.3,2.5s0.9,2.3,0.9,3.8
		c0,1-0.1,2-0.4,2.8c-0.3,0.8-0.6,1.5-1.1,2.1c-0.5,0.6-1,1.2-1.6,1.7s-1.2,1-1.8,1.4l-3.7,2.6h8.7v7.1h-20.4v-6.6L-696.7,580.3z"/>
	<path class="st5" d="M-665.1,581.7c0.6,0.2,1.2,0.5,1.8,0.9c0.5,0.4,1,0.8,1.4,1.3s0.7,1,0.9,1.6c0.2,0.6,0.3,1.2,0.3,1.8
		c0,1.5-0.3,2.7-0.9,3.8c-0.6,1.1-1.4,1.9-2.4,2.6s-2.1,1.2-3.4,1.5s-2.5,0.5-3.8,0.5s-2.5-0.1-3.8-0.4c-1.2-0.3-2.4-0.8-3.4-1.4
		c-1-0.6-1.9-1.4-2.7-2.4c-0.8-1-1.3-2.1-1.7-3.5l7.9-1.8c0.1,0.6,0.5,1.2,1.1,1.7c0.6,0.5,1.3,0.8,2.2,0.8c0.2,0,0.5,0,0.7-0.1
		c0.3-0.1,0.5-0.2,0.7-0.3c0.2-0.1,0.4-0.3,0.5-0.5c0.1-0.2,0.2-0.5,0.2-0.8c0-0.8-0.3-1.3-1-1.5s-1.6-0.4-2.7-0.4h-2.4v-5.8h2.7
		c0.9,0,1.6-0.1,2.2-0.4c0.5-0.2,0.8-0.7,0.8-1.4c0-0.5-0.2-0.9-0.6-1.1c-0.4-0.2-0.9-0.3-1.4-0.3c-0.6,0-1.1,0.2-1.6,0.6
		c-0.5,0.4-0.8,0.9-0.9,1.6l-7.9-1.7c0.4-1.4,1-2.5,1.8-3.5s1.7-1.7,2.7-2.3s2.1-1,3.2-1.2s2.3-0.4,3.4-0.4s2.3,0.1,3.5,0.4
		c1.2,0.3,2.3,0.7,3.2,1.3c1,0.6,1.8,1.4,2.4,2.3c0.6,0.9,0.9,2.1,0.9,3.4c0,1.4-0.4,2.6-1.1,3.4c-0.7,0.8-1.7,1.4-2.7,1.7V581.7z"
		/>
	<path class="st5" d="M-700,617.2h6.1v1.7h-8v-13.6h1.9V617.2z"/>
	<path class="st5" d="M-690.2,618.9h-1.9v-13.6h1.9V618.9z"/>
	<path class="st5" d="M-682.4,616.4L-682.4,616.4l4.1-11.1h2.1l-5.3,13.6h-1.8l-5.3-13.6h2.1L-682.4,616.4z"/>
	<path class="st5" d="M-672.7,617.2h7.1v1.7h-9v-13.6h8.7v1.7h-6.8v4.1h6.4v1.6h-6.4V617.2z"/>
	<path class="st5" d="M-714.6,642.8h-2.1l5.9-13.6h1.7l5.8,13.6h-2.1l-1.4-3.3h-6.4L-714.6,642.8z M-712.6,637.8h5.1l-2.5-6.4
		L-712.6,637.8z"/>
	<path class="st5" d="M-699.7,641.1h6.1v1.7h-8v-13.6h1.9V641.1z"/>
	<path class="st5" d="M-678.6,636c0,1-0.2,2-0.5,2.9c-0.4,0.9-0.9,1.6-1.5,2.3c-0.6,0.6-1.4,1.1-2.3,1.5s-1.8,0.5-2.9,0.5
		c-1,0-2-0.2-2.9-0.5s-1.6-0.8-2.3-1.5c-0.6-0.6-1.1-1.4-1.5-2.3c-0.4-0.9-0.5-1.8-0.5-2.9c0-1.1,0.2-2,0.5-2.9
		c0.4-0.9,0.9-1.6,1.5-2.2c0.6-0.6,1.4-1.1,2.3-1.4c0.9-0.3,1.8-0.5,2.9-0.5c1,0,2,0.2,2.9,0.5c0.9,0.3,1.6,0.8,2.3,1.4
		c0.6,0.6,1.1,1.4,1.5,2.2C-678.8,634-678.6,635-678.6,636z M-680.7,636c0-0.7-0.1-1.4-0.4-2.1s-0.6-1.2-1-1.7
		c-0.4-0.5-1-0.9-1.6-1.2c-0.6-0.3-1.3-0.4-2.1-0.4c-0.8,0-1.5,0.1-2.1,0.4c-0.6,0.3-1.2,0.7-1.6,1.2c-0.4,0.5-0.8,1.1-1,1.7
		c-0.2,0.7-0.4,1.4-0.4,2.1c0,0.8,0.1,1.5,0.4,2.1c0.2,0.7,0.6,1.2,1,1.7c0.4,0.5,1,0.9,1.6,1.2c0.6,0.3,1.3,0.4,2.1,0.4
		s1.5-0.1,2.1-0.4s1.2-0.7,1.6-1.2c0.4-0.5,0.8-1.1,1-1.7C-680.8,637.5-680.7,636.8-680.7,636z"/>
	<path class="st5" d="M-666.5,640.1L-666.5,640.1l0-10.9h1.9v13.6h-2.4l-7.2-11.1h0v11.1h-1.9v-13.6h2.5L-666.5,640.1z"/>
	<path class="st5" d="M-659.4,641.1h7.1v1.7h-9v-13.6h8.7v1.7h-6.8v4.1h6.4v1.6h-6.4V641.1z"/>
</g>
<g>
	<path class="st5" d="M-780.1,475h-11v15.3h-13.5V450h13.5v13.6h11V450h13.6v40.2h-13.5V475z"/>
	<path class="st5" d="M-726.9,475.2c0,2.6-0.5,4.9-1.4,6.9c-0.9,2-2.2,3.7-3.8,5.1c-1.6,1.4-3.4,2.4-5.5,3.2
		c-2.1,0.7-4.2,1.1-6.5,1.1c-2.2,0-4.4-0.4-6.5-1.1c-2.1-0.7-3.9-1.8-5.4-3.2c-1.6-1.4-2.8-3.1-3.7-5.1c-0.9-2-1.4-4.3-1.4-6.9
		c0-2.5,0.5-4.8,1.4-6.8c0.9-2,2.2-3.7,3.7-5c1.6-1.4,3.4-2.4,5.4-3.1c2.1-0.7,4.2-1.1,6.5-1.1c2.3,0,4.4,0.4,6.5,1.1
		c2.1,0.7,3.9,1.7,5.5,3.1c1.6,1.4,2.8,3,3.8,5C-727.4,470.4-726.9,472.6-726.9,475.2z M-744,470.3c-1.4,0-2.6,0.5-3.5,1.5
		c-0.9,1-1.3,2.1-1.3,3.5c0,1.4,0.5,2.6,1.4,3.6c0.9,1,2.1,1.5,3.5,1.5c1.4,0,2.6-0.5,3.5-1.5c0.9-1,1.4-2.2,1.4-3.6
		c0-1.3-0.5-2.5-1.4-3.5C-741.4,470.8-742.6,470.3-744,470.3z"/>
	<path class="st5" d="M-690.4,490.2h-12.8V487h-0.1c-0.8,1.1-1.9,2.1-3.4,2.9c-1.5,0.8-3.2,1.2-5.1,1.2c-2.1,0-3.9-0.4-5.2-1.1
		c-1.4-0.7-2.5-1.7-3.3-2.9c-0.8-1.2-1.4-2.5-1.7-4c-0.3-1.5-0.5-3-0.5-4.5v-18.2h13.1v15.8c0,1.5,0.2,2.6,0.7,3.2
		c0.5,0.6,1.2,0.9,2.2,0.9c0.9,0,1.6-0.3,2.2-1.1c0.6-0.7,0.8-1.7,0.8-3v-15.8h13.1V490.2z"/>
	<path class="st5" d="M-659.9,480.8c0,2-0.4,3.7-1.3,5.1c-0.8,1.4-1.9,2.5-3.2,3.3c-1.3,0.8-2.7,1.4-4.3,1.8c-1.5,0.4-3,0.5-4.4,0.5
		c-2.6,0-5.1-0.4-7.6-1.1c-2.5-0.7-4.6-1.8-6.5-3.2l6.4-7.4c0.9,0.8,2,1.5,3.2,2s2.4,0.8,3.6,0.8c0.5,0,0.9-0.1,1.3-0.3
		c0.4-0.2,0.6-0.5,0.6-0.9c0-0.5-0.4-0.9-1.1-1.2s-1.9-0.6-3.7-1.1c-0.9-0.2-1.9-0.6-2.9-1c-1-0.4-1.9-1-2.7-1.7
		c-0.8-0.7-1.5-1.6-2-2.6c-0.5-1-0.8-2.3-0.8-3.7c0-1.9,0.4-3.6,1.3-4.9s1.9-2.5,3.2-3.3c1.3-0.9,2.7-1.5,4.3-1.9
		c1.5-0.4,3-0.6,4.3-0.6c2.3,0,4.6,0.3,6.9,1c2.3,0.7,4.3,1.6,6.1,2.8l-6.1,7.3c-0.9-0.6-1.9-1.1-2.9-1.4c-1-0.3-2-0.5-2.9-0.5
		c-0.6,0-1.2,0.1-1.6,0.3c-0.4,0.2-0.6,0.5-0.6,1c0,0.4,0.2,0.7,0.7,0.9c0.5,0.2,1.6,0.5,3.3,0.8c1.2,0.2,2.3,0.6,3.4,1.1
		c1.1,0.5,2.1,1.1,3,1.8c0.9,0.7,1.6,1.6,2.1,2.7C-660.2,478.1-659.9,479.3-659.9,480.8z"/>
	<path class="st5" d="M-655.4,451.7c0-0.9,0.2-1.8,0.5-2.6c0.4-0.8,0.9-1.5,1.5-2.1c0.6-0.6,1.4-1.1,2.2-1.4
		c0.8-0.4,1.7-0.5,2.7-0.5c0.9,0,1.8,0.2,2.6,0.5c0.8,0.4,1.5,0.8,2.1,1.4c0.6,0.6,1.1,1.3,1.5,2.1c0.4,0.8,0.5,1.7,0.5,2.6
		c0,0.9-0.2,1.8-0.5,2.6c-0.4,0.8-0.9,1.5-1.5,2.1c-0.6,0.6-1.3,1.1-2.1,1.4c-0.8,0.3-1.6,0.5-2.6,0.5c-0.9,0-1.8-0.2-2.7-0.5
		c-0.8-0.3-1.6-0.8-2.2-1.4c-0.6-0.6-1.1-1.3-1.5-2.1C-655.2,453.5-655.4,452.7-655.4,451.7z M-655.2,460.3h13.1v29.9h-13.1V460.3z"
		/>
	<path class="st5" d="M-636,460.3h12.8v3.3h0.1c0.8-1.1,1.9-2.1,3.4-2.9c1.5-0.8,3.2-1.2,5.1-1.2c2.1,0,3.8,0.4,5.2,1.1
		c1.4,0.8,2.5,1.7,3.3,2.9s1.4,2.5,1.7,4c0.3,1.5,0.5,3,0.5,4.4v18.2H-617v-15.9c0-1.5-0.2-2.6-0.7-3.2c-0.5-0.6-1.2-0.9-2.1-0.9
		c-0.9,0-1.6,0.4-2.1,1.1c-0.5,0.7-0.8,1.7-0.8,3v15.9H-636V460.3z"/>
	<path class="st5" d="M-599.3,475.2c0-1.9,0.3-3.8,0.9-5.7c0.6-1.9,1.4-3.5,2.6-5c1.1-1.5,2.6-2.7,4.3-3.6s3.7-1.4,5.9-1.4
		c1.6,0,3.2,0.3,4.7,0.9c1.5,0.6,2.8,1.6,3.8,2.9h0.2v-3h12.3v26.8c0,3.3-0.5,6-1.6,8.1c-1.1,2.2-2.5,3.9-4.2,5.1
		c-1.8,1.3-3.8,2.2-6,2.7c-2.2,0.5-4.5,0.8-6.8,0.8c-2.8,0-5.7-0.4-8.5-1.1c-2.8-0.7-5.3-1.8-7.4-3.3l5.7-8.7c1.4,1.1,3,1.9,4.5,2.4
		c1.6,0.5,3.1,0.8,4.5,0.8c0.9,0,1.8-0.1,2.7-0.4c0.9-0.2,1.6-0.6,2.2-1.1c0.6-0.5,1.2-1.1,1.5-1.8s0.6-1.5,0.6-2.4v-1.3h-0.2
		c-0.7,0.8-1.8,1.6-3.2,2.2c-1.4,0.6-3,1-4.9,1c-2.3,0-4.3-0.4-6-1.2c-1.7-0.8-3.1-1.9-4.3-3.3c-1.1-1.4-2-3-2.5-4.8
		C-599,479.1-599.3,477.2-599.3,475.2z M-587.1,475.2c0,1.4,0.4,2.6,1.3,3.6c0.8,1,2,1.4,3.6,1.4c1.6,0,2.8-0.5,3.7-1.5
		c0.9-1,1.4-2.2,1.4-3.6c0-1.3-0.5-2.5-1.4-3.5c-0.9-1-2.2-1.5-3.7-1.5c-1.6,0-2.8,0.5-3.6,1.5
		C-586.7,472.7-587.1,473.9-587.1,475.2z"/>
</g>
</svg>
