<?xml version="1.0" encoding="utf-8"?>
<!-- Generator: Adobe Illustrator 19.0.0, SVG Export Plug-In . SVG Version: 6.00 Build 0)  -->
<svg version="1.1" id="Layer_1" xmlns="http://www.w3.org/2000/svg" xmlns:xlink="http://www.w3.org/1999/xlink" x="0px" y="0px"
	 viewBox="-687 621 358.3 296.9" style="enable-background:new -687 621 358.3 296.9;" xml:space="preserve">
<style type="text/css">
	.st0{fill:#8B5E3C;}
	.st1{fill:#A97C50;}
	.st2{fill:#414042;}
	.st3{fill:#009444;}
	.st4{fill:#603913;}
	.st5{fill:#FFFFFF;}
	.st6{font-family:'Gotham-Medium';}
	.st7{font-size:12.2218px;}
	.st8{font-family:'Gotham-Black';}
	.st9{font-size:52.9532px;}
	.st10{letter-spacing:-1;}
	.st11{opacity:0.2;}
	.st12{fill-rule:evenodd;clip-rule:evenodd;}
	.st13{fill-rule:evenodd;clip-rule:evenodd;fill:#EEB600;}
</style>
<rect x="-612.1" y="836.9" class="st0" width="28.5" height="81"/>
<rect x="-432.4" y="836.9" class="st0" width="28.5" height="81"/>
<path class="st1" d="M-356.3,853.4H-660c-9.4,0-17-4-17-8.9V640c0-4.9,7.6-8.9,17-8.9h303.7c9.4,0,17,4,17,8.9v204.6
	C-339.5,849.5-346.9,853.4-356.3,853.4z"/>
<path class="st2" d="M-351,860h-313.7c-12.3,0-22.3-10-22.3-22.3V643.3c0-12.3,10-22.3,22.3-22.3H-351c12.3,0,22.3,10,22.3,22.3
	v194.5C-328.8,850-338.7,860-351,860z M-664.7,641.1c-1.3,0-2.3,1-2.3,2.3v194.5c0,1.2,1,2.3,2.3,2.3H-351c1.2,0,2.3-1,2.3-2.3
	V643.3c0-1.2-1-2.3-2.3-2.3L-664.7,641.1L-664.7,641.1z"/>
<rect x="-618.9" y="899" class="st3" width="41.3" height="18.9"/>
<rect x="-438.8" y="899" class="st3" width="41.3" height="18.9"/>
<polygon class="st4" points="-612.1,860.5 -583.6,860.5 -583.6,881.1 "/>
<polygon class="st4" points="-432.4,860.4 -403.9,860.4 -403.9,881.1 "/>
<g>
	<g>
		<g>
			<g>
				<text transform="matrix(1 0 0 1 -513.8771 729.5454)" class="st5 st6 st7">are not immigrants</text>
			</g>
			<g>
				<text transform="matrix(1 0 0 1 -518.4913 712.3198)" class="st5 st8 st9 st10">68</text>
			</g>
		</g>
		<g>
			<text transform="matrix(1 0 0 1 -513.8771 795.7065)" class="st5 st6 st7">are immigrants</text>
			<g>
				<text transform="matrix(1 0 0 1 -513.8775 778.481)" class="st5 st8 st9 st10">26</text>
			</g>
		</g>
	</g>
	<g>
		<g class="st11">
			<circle class="st12" cx="-601.5" cy="700.1" r="9.9"/>
			<circle class="st12" cx="-557.7" cy="699.4" r="9.9"/>
			<path class="st12" d="M-617.7,765.7h-4.6c-0.3,0-0.5-0.2-0.5-0.5v-5.3c0-0.1-0.1-0.2-0.2-0.2h-8.3c-0.1,0-0.2,0.1-0.2,0.2v5.3
				c0,0.3-0.2,0.5-0.5,0.5h-4.7c-0.3,0-0.5,0.2-0.5,0.5v29.5c0,0.3,0.2,0.5,0.5,0.5h1.2c0.3,0,0.5,0.2,0.5,0.4
				c0.5,2.7,4.8,2.7,5.3,0c0-0.2,0.3-0.4,0.5-0.4h4.1c0.3,0,0.5,0.2,0.5,0.4c0.4,2.7,4.8,2.7,5.2,0c0-0.2,0.3-0.4,0.5-0.4h1.2
				c0.3,0,0.5-0.2,0.5-0.5v-29.5C-617.1,765.9-617.4,765.7-617.7,765.7z"/>
			<path class="st12" d="M-526.8,759.8h-7.6c-0.4,0-0.7-0.3-0.7-0.7v-8.9c1.1-1.2,1.6-3,1.2-5l-5.3-27.5c-0.2-1-0.6-1.9-1.2-2.6
				c-0.4-0.5-0.9-1-1.5-1.3c-0.4-0.1-0.8-0.3-1.3-0.4c-1.9-0.5-4.6-0.8-7.5-0.8h-14.3c-3,0-5.6,0.3-7.5,0.8
				c-0.5,0.1-0.9,0.3-1.3,0.4c-0.5,0.3-1,0.7-1.5,1.3c-0.6,0.7-1,1.6-1.2,2.6l-3.6,11.5c-0.4-3.4-0.7-5.9-0.7-6c0,0,0,0,0,0
				c-0.8-5.1-5-9.8-10.5-9.9c0,0-0.1,0-0.1,0h-20.5c0,0-0.1,0-0.1,0c-5.5,0.1-10.1,4.4-10.5,9.9c0,0.3,0,0.5,0,0.8V752
				c0,2.9,2,5.3,4.4,5.3c1.7,0,3.2-1.2,4-3c0.3-0.7,0.5-1.5,0.5-2.4v-28.2h1.7v30.8c0,0,0,39,0,39c0,2.8,2.2,5.1,4.8,5.1
				c2.6,0,4.8-2.3,4.8-5.1v-36.6h1.5v36.7c0,2.8,2.2,5.1,4.8,5.1c2.6,0,4.8-2.3,4.8-5.1l0-69.8h1.7c0,0,3,26.4,3.3,27.1
				c0.7,1.7,2.2,3,3.9,3c2.2,0,4-1.9,4.3-4.4c0-0.2,0.1-0.3,0.1-0.5l8.3-24h2l-7.6,40.8c-0.2,1.2,0.5,2.2,1.7,2.2h6.6v25.5
				c0,2.5,1.7,4.5,3.9,4.5c2.1,0,3.9-2,3.9-4.5v-25.5h2.5v25.5c0,2.5,1.7,4.5,3.9,4.5c2.1,0,3.9-2,3.9-4.5v-25.5h6.6
				c1.2,0,1.9-1,1.7-2.2L-548,725h2l4.2,22c0.5,2.6,2.5,4.4,4.5,4.3c0,13.9,0,27.7,0,41.6c0,0.2,0,0.3-0.1,0.4
				c-0.5,0.7-0.8,1.5-0.8,2.4c0,2.2,1.8,3.9,3.9,3.9c2.1,0,3.8-1.7,3.9-3.7c0-0.4,0.4-0.7,0.7-0.7h2.9c2.3,0,4.2-1.9,4.2-4.2V764
				C-522.7,761.7-524.5,759.8-526.8,759.8z M-535.9,795.6c0-1.9,3-1.9,3,0C-532.9,797.5-535.9,797.5-535.9,795.6z"/>
		</g>
		<g>
			<g>
				<g>
					<circle class="st13" cx="-605.5" cy="696.1" r="9.9"/>
				</g>
				<g>
					<circle class="st13" cx="-561.7" cy="695.4" r="9.9"/>
				</g>
				<g>
					<path class="st13" d="M-621.7,761.7h-4.6c-0.3,0-0.5-0.2-0.5-0.5v-5.3c0-0.1-0.1-0.2-0.2-0.2h-8.3c-0.1,0-0.2,0.1-0.2,0.2v5.3
						c0,0.3-0.2,0.5-0.5,0.5h-4.7c-0.3,0-0.5,0.2-0.5,0.5v29.5c0,0.3,0.2,0.5,0.5,0.5h1.2c0.3,0,0.5,0.2,0.5,0.4
						c0.5,2.7,4.8,2.7,5.3,0c0-0.2,0.3-0.4,0.5-0.4h4.1c0.3,0,0.5,0.2,0.5,0.4c0.4,2.7,4.8,2.7,5.2,0c0-0.2,0.3-0.4,0.5-0.4h1.2
						c0.3,0,0.5-0.2,0.5-0.5v-29.5C-621.1,761.9-621.4,761.7-621.7,761.7z"/>
				</g>
				<g>
					<g>
						<path class="st13" d="M-530.8,755.8h-7.6c-0.4,0-0.7-0.3-0.7-0.7v-8.9c1.1-1.2,1.6-3,1.2-5l-5.3-27.5c-0.2-1-0.6-1.9-1.2-2.6
							c-0.4-0.5-0.9-1-1.5-1.3c-0.4-0.1-0.8-0.3-1.3-0.4c-1.9-0.5-4.6-0.8-7.5-0.8h-14.3c-3,0-5.6,0.3-7.5,0.8
							c-0.5,0.1-0.9,0.3-1.3,0.4c-0.5,0.3-1,0.7-1.5,1.3c-0.6,0.7-1,1.6-1.2,2.6l-3.6,11.5c-0.4-3.4-0.7-5.9-0.7-6c0,0,0,0,0,0
							c-0.8-5.1-5-9.8-10.5-9.9c0,0-0.1,0-0.1,0h-20.5c0,0-0.1,0-0.1,0c-5.5,0.1-10.1,4.4-10.5,9.9c0,0.3,0,0.5,0,0.8V748
							c0,2.9,2,5.3,4.4,5.3c1.7,0,3.2-1.2,4-3c0.3-0.7,0.5-1.5,0.5-2.4v-28.2h1.7v30.8c0,0,0,39,0,39c0,2.8,2.2,5.1,4.8,5.1
							c2.6,0,4.8-2.3,4.8-5.1v-36.6h1.5v36.7c0,2.8,2.2,5.1,4.8,5.1c2.6,0,4.8-2.3,4.8-5.1l0-69.8h1.7c0,0,3,26.4,3.3,27.1
							c0.7,1.7,2.2,3,3.9,3c2.2,0,4-1.9,4.3-4.4c0-0.2,0.1-0.3,0.1-0.5l8.3-24h2l-7.6,40.8c-0.2,1.2,0.5,2.2,1.7,2.2h6.6v25.5
							c0,2.5,1.7,4.5,3.9,4.5c2.1,0,3.9-2,3.9-4.5v-25.5h2.5v25.5c0,2.5,1.7,4.5,3.9,4.5c2.1,0,3.9-2,3.9-4.5v-25.5h6.6
							c1.2,0,1.9-1,1.7-2.2L-552,721h2l4.2,22c0.5,2.6,2.5,4.4,4.5,4.3c0,13.9,0,27.7,0,41.6c0,0.2,0,0.3-0.1,0.4
							c-0.5,0.7-0.8,1.5-0.8,2.4c0,2.2,1.8,3.9,3.9,3.9c2.1,0,3.8-1.7,3.9-3.7c0-0.4,0.4-0.7,0.7-0.7h2.9c2.3,0,4.2-1.9,4.2-4.2V760
							C-526.7,757.7-528.5,755.8-530.8,755.8z M-539.9,791.6c0-1.9,3-1.9,3,0C-536.9,793.5-539.9,793.5-539.9,791.6z"/>
					</g>
				</g>
			</g>
		</g>
	</g>
</g>
</svg>
