<?xml version="1.0" encoding="utf-8"?>
<!-- Generator: Adobe Illustrator 19.0.0, SVG Export Plug-In . SVG Version: 6.00 Build 0)  -->
<svg version="1.1" id="Layer_1" xmlns="http://www.w3.org/2000/svg" xmlns:xlink="http://www.w3.org/1999/xlink" x="0px" y="0px"
	 viewBox="0 0 197.2 255" style="enable-background:new 0 0 197.2 255;" xml:space="preserve">
<style type="text/css">
	.st0{fill-rule:evenodd;clip-rule:evenodd;fill:#8DDAE2;}
	.st1{fill-rule:evenodd;clip-rule:evenodd;fill:#939598;}
</style>
<path class="st0" d="M121.1,135.1C157.5,112.5,141.5,56,98.6,56c-42.8,0-58.9,56.5-22.5,79.1l-2.7,9.1
	c-46.7-25.9-28.2-97.4,25.1-97.4c53.4,0,71.8,71.5,25.1,97.4L121.1,135.1L121.1,135.1z M127.6,157.4c40-19.8,49-73.2,17.3-105
	C103.8,11.3,33.1,40.5,33.1,98.7c0,25.4,14.5,47.8,36.5,58.7l-2.3,7.7C21.5,143.5,10.6,82.8,46.7,46.8
	C92.8,0.6,172.1,33.5,172.1,98.7c0,29-16.9,54.5-42.1,66.5L127.6,157.4L127.6,157.4z M135.2,183c59.2-25.7,74.4-103.3,28.4-149.3
	C105.9-24,6.7,17.1,6.7,98.7c0,37.2,22.3,70,55.3,84.3l-1.9,6.5c-64-27.2-80.9-111-31.3-160.6c62-62,168.4-17.9,168.4,69.7
	c0,40.3-24.3,75.6-60.1,90.8L135.2,183L135.2,183z"/>
<path class="st1" d="M106,108.3c10.3-7.2,5.2-23.5-7.4-23.5c-12.6,0-17.6,16.3-7.4,23.5C77.3,156.9,62.6,206,48.3,255H63l35.6-20.6
	l35.6,20.6h14.7C134.6,206,119.9,156.9,106,108.3z M121,196.7l-15.2-11.9l9.9-7.8L121,196.7z M107.9,147.8l1.5,5.7l-4.1-3.5
	L107.9,147.8z M98.6,113.2l6.7,25.2l-6.9,5.8l-6.5-5.5L98.6,113.2z M89.4,147.8l2.4,2.1l-3.9,3.2L89.4,147.8z M98.5,155.6L113,168
	l-14.3,11.3l-14.6-11.5L98.5,155.6z M81.6,176.8l10.1,7.9l-15.5,12.2L81.6,176.8z M63.4,244.7l7.1-26.6l19.4,11.2L63.4,244.7z
	 M73.7,209.9l25-19.7l24.9,19.6l-25.1,14.5L73.7,209.9z M107.3,229.4l19.4-11.2l7.1,26.6L107.3,229.4z"/>
</svg>
