<?xml version="1.0" encoding="utf-8"?>
<!-- Generator: Adobe Illustrator 19.0.0, SVG Export Plug-In . SVG Version: 6.00 Build 0)  -->
<svg version="1.1" id="Layer_1" xmlns="http://www.w3.org/2000/svg" xmlns:xlink="http://www.w3.org/1999/xlink" x="0px" y="0px"
	 viewBox="0 0 519.6 557.1" style="enable-background:new 0 0 519.6 557.1;" xml:space="preserve">
<style type="text/css">
	.st0{fill:#DDDCD3;}
	.st1{fill-rule:evenodd;clip-rule:evenodd;fill:#FBB040;}
	.st2{fill-rule:evenodd;clip-rule:evenodd;fill:#B38E85;}
	.st3{fill-rule:evenodd;clip-rule:evenodd;fill:#CE7515;}
	.st4{fill-rule:evenodd;clip-rule:evenodd;fill:#333333;}
	.st5{fill-rule:evenodd;clip-rule:evenodd;fill:#231F20;}
	.st6{fill:#333333;}
	.st7{fill-rule:evenodd;clip-rule:evenodd;fill:#63CBE5;}
	.st8{fill:#B38E85;}
	.st9{fill:#FBB040;}
</style>
<rect id="XMLID_94_" x="14.9" y="294.3" class="st0" width="489.4" height="262.8"/>
<rect id="XMLID_97_" x="164.6" y="220.4" class="st0" width="191" height="73.9"/>
<g id="XMLID_1_">
	<path id="XMLID_100_" class="st1" d="M152.4,230h215.5c-1.8-62.5-17.2-101.5-106.9-175.6C171.3,128.5,154.8,167.5,152.4,230z"/>
</g>
<polygon id="XMLID_101_" class="st2" points="164.6,230 355.7,230 355.7,263.5 "/>
<polygon id="XMLID_118_" class="st2" points="18.5,319 504.2,319 504.2,352.5 "/>
<path id="XMLID_103_" class="st3" d="M261,54.4c0,0,35.6,66.6,35.6,133.6s0,42,0,42h71.4c0,0,3.7-61.4-39.1-110.2S261,54.4,261,54.4
	z"/>
<g id="XMLID_102_">
	<polygon id="XMLID_104_" class="st1" points="441.8,67.4 441.8,293.7 504.8,293.7 504.8,67.4 473.3,0 	"/>
</g>
<polygon id="XMLID_108_" class="st3" points="473.3,0 485.1,70 485.1,293.7 504.8,293.7 504.8,67.4 "/>
<g id="XMLID_112_">
	<polygon id="XMLID_114_" class="st1" points="15.5,67.4 15.5,293.7 78.5,293.7 78.5,67.4 47,0 	"/>
</g>
<polygon id="XMLID_110_" class="st3" points="47,0 58.7,70 58.7,293.7 78.5,293.7 78.5,67.4 "/>
<rect id="XMLID_106_" x="5.4" y="278.9" class="st4" width="508.7" height="40.1"/>
<rect id="XMLID_120_" y="289.5" class="st5" width="519.6" height="29.5"/>
<g id="XMLID_134_">
	<g id="XMLID_133_">
		<g id="XMLID_124_">
			<path id="XMLID_126_" class="st6" d="M102.8,354.7c38.3,24.8,37.9,51.1,37.4,79c0,2.2-0.1,4.5-0.1,8.8v6.3h-6.3H64.3H58v-6.3
				c0-4.4,0-6.2,0-8c-0.4-28.2-0.8-54.8,38-79.8l3.4-2.2L102.8,354.7L102.8,354.7z M127.6,433.5c0.4-23.4,0.8-45.5-28.2-65.8
				c-29.4,20.6-29.1,43-28.8,66.7l0,1.8h56.9L127.6,433.5z"/>
		</g>
		<g id="XMLID_116_">
			<path id="XMLID_123_" class="st7" d="M127.6,433.5c0.4-23.4,0.8-45.5-28.2-65.8c-29.4,20.6-29.1,43-28.8,66.7l0,1.8h56.9
				L127.6,433.5z"/>
		</g>
	</g>
	<g id="XMLID_137_">
		<g id="XMLID_142_">
			<path id="XMLID_143_" class="st6" d="M423.7,354.7c38.3,24.8,37.9,51.1,37.4,79c0,2.2-0.1,4.5-0.1,8.8v6.3h-6.3h-69.4h-6.3v-6.3
				c0-4.4,0-6.2,0-8c-0.4-28.2-0.8-54.8,38-79.8l3.4-2.2L423.7,354.7L423.7,354.7z M448.5,433.5c0.4-23.4,0.8-45.5-28.2-65.8
				c-29.4,20.6-29.1,43-28.8,66.7l0,1.8h56.9L448.5,433.5z"/>
		</g>
		<g id="XMLID_138_">
			<path id="XMLID_141_" class="st7" d="M448.5,433.5c0.4-23.4,0.8-45.5-28.2-65.8c-29.4,20.6-29.1,43-28.8,66.7l0,1.8h56.9
				L448.5,433.5z"/>
		</g>
	</g>
</g>
<g id="XMLID_147_">
	<path id="XMLID_148_" class="st8" d="M301.5,460.6c0-9.3-4.5-17.8-11.8-23.9c-7.3-6.1-17.3-10-28.3-10c-11,0-21,3.8-28.3,10
		c-7.3,6.1-11.8,14.6-11.8,23.9V557h80.2V460.6z"/>
</g>
<circle id="XMLID_146_" class="st9" cx="286" cy="505.3" r="6.3"/>
<rect id="XMLID_149_" x="57.9" y="467.3" class="st6" width="33.1" height="18.7"/>
<rect id="XMLID_151_" x="107.2" y="467.3" class="st6" width="33.1" height="18.7"/>
<rect id="XMLID_153_" x="378.8" y="467.3" class="st6" width="33.1" height="18.7"/>
<rect id="XMLID_152_" x="428.2" y="467.3" class="st6" width="33.1" height="18.7"/>
<polygon id="XMLID_150_" class="st8" points="57.9,448.9 140.3,448.9 140.3,458.2 57.9,452 "/>
<polygon id="XMLID_155_" class="st8" points="378.8,448.9 461.3,448.9 461.3,458.2 378.8,452 "/>
</svg>
