<?xml version="1.0" encoding="utf-8"?>
<!-- Generator: Adobe Illustrator 19.0.0, SVG Export Plug-In . SVG Version: 6.00 Build 0)  -->
<svg version="1.1" id="Layer_1" xmlns="http://www.w3.org/2000/svg" xmlns:xlink="http://www.w3.org/1999/xlink" x="0px" y="0px"
	 viewBox="0 0 586.8 383.1" style="enable-background:new 0 0 586.8 383.1;" xml:space="preserve">
<style type="text/css">
	.st0{fill:#EAD2A7;}
	.st1{fill:#E02037;}
	.st2{fill:#414042;}
	.st3{fill:#512E3E;fill-opacity:0.5;}
	.st4{fill:#27AAE1;}
	.st5{fill:#C7D3D0;}
	.st6{fill:#BCBEC0;}
	.st7{fill:#8DC63F;}
</style>
<polygon id="XMLID_148_" class="st0" points="345,173.1 345,22.4 286.1,22.4 286.1,0 71.4,0 71.4,22.4 12.6,22.4 12.6,383.1 
	245,383.1 345,383.1 577.3,383.1 577.3,173.1 "/>
<polygon id="XMLID_1_" class="st1" points="204.9,63 184.8,63 184.8,42.9 168.7,42.9 168.7,63 148.7,63 148.7,79 168.7,79 
	168.7,99.1 184.8,99.1 184.8,79 204.9,79 "/>
<rect id="XMLID_64_" x="71.4" class="st2" width="214.7" height="22"/>
<polygon id="XMLID_291_" class="st3" points="71.4,22 286.1,22 286.1,32.2 "/>
<g id="XMLID_156_">
	<rect id="XMLID_290_" x="47" y="99.5" class="st3" width="49.5" height="7.5"/>
	<g id="XMLID_63_">
		<rect id="XMLID_280_" x="51" y="58.9" class="st4" width="41.5" height="41.5"/>
		<path id="XMLID_277_" class="st2" d="M88.5,62.9v33.5H55V62.9H88.5 M96.5,54.9h-8H55h-8v8v33.5v8h8h33.5h8v-8V62.9V54.9L96.5,54.9
			z"/>
	</g>
</g>
<g id="XMLID_518_">
	<rect id="XMLID_525_" x="274.9" y="99.5" class="st3" width="49.5" height="7.5"/>
	<g id="XMLID_519_">
		<rect id="XMLID_275_" x="278.9" y="58.9" class="st4" width="41.5" height="41.5"/>
		<path id="XMLID_272_" class="st2" d="M316.4,62.9v33.5h-33.5V62.9H316.4 M324.4,54.9h-8h-33.5h-8v8v33.5v8h8h33.5h8v-8V62.9V54.9
			L324.4,54.9z"/>
	</g>
</g>
<g id="XMLID_162_">
	<rect id="XMLID_297_" x="47" y="161.8" class="st3" width="49.5" height="7.5"/>
	<g id="XMLID_163_">
		<rect id="XMLID_270_" x="51" y="121.2" class="st4" width="41.5" height="41.5"/>
		<path id="XMLID_267_" class="st2" d="M88.5,125.2v33.5H55v-33.5H88.5 M96.5,117.2h-8H55h-8v8v33.5v8h8h33.5h8v-8v-33.5V117.2
			L96.5,117.2z"/>
	</g>
</g>
<g id="XMLID_308_">
	<rect id="XMLID_315_" x="47" y="224.1" class="st3" width="49.5" height="7.5"/>
	<g id="XMLID_309_">
		<rect id="XMLID_265_" x="51" y="183.6" class="st4" width="41.5" height="41.5"/>
		<path id="XMLID_262_" class="st2" d="M88.5,187.6V221H55v-33.5H88.5 M96.5,179.6h-8H55h-8v8V221v8h8h33.5h8v-8v-33.5V179.6
			L96.5,179.6z"/>
	</g>
</g>
<g id="XMLID_318_">
	<rect id="XMLID_325_" x="47" y="286.5" class="st3" width="49.5" height="7.5"/>
	<g id="XMLID_319_">
		<rect id="XMLID_260_" x="51" y="245.9" class="st4" width="41.5" height="41.5"/>
		<path id="XMLID_257_" class="st2" d="M88.5,249.9v33.5H55v-33.5H88.5 M96.5,241.9h-8H55h-8v8v33.5v8h8h33.5h8v-8v-33.5V241.9
			L96.5,241.9z"/>
	</g>
</g>
<g id="XMLID_328_">
	<rect id="XMLID_335_" x="47" y="348.8" class="st3" width="49.5" height="7.5"/>
	<g id="XMLID_329_">
		<rect id="XMLID_255_" x="51" y="308.3" class="st4" width="41.5" height="41.5"/>
		<path id="XMLID_252_" class="st2" d="M88.5,312.3v33.5H55v-33.5H88.5 M96.5,304.3h-8H55h-8v8v33.5v8h8h33.5h8v-8v-33.5V304.3
			L96.5,304.3z"/>
	</g>
</g>
<g id="XMLID_368_">
	<rect id="XMLID_375_" x="123.9" y="161.8" class="st3" width="49.5" height="7.5"/>
	<g id="XMLID_369_">
		<rect id="XMLID_250_" x="127.9" y="121.2" class="st4" width="41.5" height="41.5"/>
		<path id="XMLID_247_" class="st2" d="M165.4,125.2v33.5h-33.5v-33.5H165.4 M173.4,117.2h-8h-33.5h-8v8v33.5v8h8h33.5h8v-8v-33.5
			V117.2L173.4,117.2z"/>
	</g>
</g>
<g id="XMLID_358_">
	<rect id="XMLID_365_" x="123.9" y="224.1" class="st3" width="49.5" height="7.5"/>
	<g id="XMLID_359_">
		<rect id="XMLID_245_" x="127.9" y="183.6" class="st4" width="41.5" height="41.5"/>
		<path id="XMLID_242_" class="st2" d="M165.4,187.6V221h-33.5v-33.5H165.4 M173.4,179.6h-8h-33.5h-8v8V221v8h8h33.5h8v-8v-33.5
			V179.6L173.4,179.6z"/>
	</g>
</g>
<g id="XMLID_348_">
	<rect id="XMLID_355_" x="123.9" y="286.5" class="st3" width="49.5" height="7.5"/>
	<g id="XMLID_349_">
		<rect id="XMLID_240_" x="127.9" y="245.9" class="st4" width="41.5" height="41.5"/>
		<path id="XMLID_237_" class="st2" d="M165.4,249.9v33.5h-33.5v-33.5H165.4 M173.4,241.9h-8h-33.5h-8v8v33.5v8h8h33.5h8v-8v-33.5
			V241.9L173.4,241.9z"/>
	</g>
</g>
<g id="XMLID_338_">
	<rect id="XMLID_345_" x="123.9" y="348.8" class="st3" width="49.5" height="7.5"/>
	<g id="XMLID_339_">
		<rect id="XMLID_235_" x="127.9" y="308.3" class="st4" width="41.5" height="41.5"/>
		<path id="XMLID_232_" class="st2" d="M165.4,312.3v33.5h-33.5v-33.5H165.4 M173.4,304.3h-8h-33.5h-8v8v33.5v8h8h33.5h8v-8v-33.5
			V304.3L173.4,304.3z"/>
	</g>
</g>
<g id="XMLID_408_">
	<rect id="XMLID_415_" x="200.8" y="161.8" class="st3" width="49.5" height="7.5"/>
	<g id="XMLID_409_">
		<rect id="XMLID_230_" x="204.8" y="121.2" class="st4" width="41.5" height="41.5"/>
		<path id="XMLID_227_" class="st2" d="M242.3,125.2v33.5h-33.5v-33.5H242.3 M250.3,117.2h-8h-33.5h-8v8v33.5v8h8h33.5h8v-8v-33.5
			V117.2L250.3,117.2z"/>
	</g>
</g>
<g id="XMLID_398_">
	<rect id="XMLID_405_" x="200.8" y="224.1" class="st3" width="49.5" height="7.5"/>
	<g id="XMLID_399_">
		<rect id="XMLID_225_" x="204.8" y="183.6" class="st4" width="41.5" height="41.5"/>
		<path id="XMLID_222_" class="st2" d="M242.3,187.6V221h-33.5v-33.5H242.3 M250.3,179.6h-8h-33.5h-8v8V221v8h8h33.5h8v-8v-33.5
			V179.6L250.3,179.6z"/>
	</g>
</g>
<g id="XMLID_388_">
	<rect id="XMLID_395_" x="200.8" y="286.5" class="st3" width="49.5" height="7.5"/>
	<g id="XMLID_389_">
		<rect id="XMLID_220_" x="204.8" y="245.9" class="st4" width="41.5" height="41.5"/>
		<path id="XMLID_217_" class="st2" d="M242.3,249.9v33.5h-33.5v-33.5H242.3 M250.3,241.9h-8h-33.5h-8v8v33.5v8h8h33.5h8v-8v-33.5
			V241.9L250.3,241.9z"/>
	</g>
</g>
<g id="XMLID_378_">
	<rect id="XMLID_385_" x="200.8" y="348.8" class="st3" width="49.5" height="7.5"/>
	<g id="XMLID_379_">
		<rect id="XMLID_215_" x="204.8" y="308.3" class="st4" width="41.5" height="41.5"/>
		<path id="XMLID_212_" class="st2" d="M242.3,312.3v33.5h-33.5v-33.5H242.3 M250.3,304.3h-8h-33.5h-8v8v33.5v8h8h33.5h8v-8v-33.5
			V304.3L250.3,304.3z"/>
	</g>
</g>
<g id="XMLID_448_">
	<rect id="XMLID_455_" x="274.9" y="161.8" class="st3" width="49.5" height="7.5"/>
	<g id="XMLID_449_">
		<rect id="XMLID_210_" x="278.9" y="121.2" class="st4" width="41.5" height="41.5"/>
		<path id="XMLID_207_" class="st2" d="M316.4,125.2v33.5h-33.5v-33.5H316.4 M324.4,117.2h-8h-33.5h-8v8v33.5v8h8h33.5h8v-8v-33.5
			V117.2L324.4,117.2z"/>
	</g>
</g>
<g id="XMLID_438_">
	<rect id="XMLID_445_" x="274.9" y="224.1" class="st3" width="49.5" height="7.5"/>
	<g id="XMLID_439_">
		<rect id="XMLID_205_" x="278.9" y="183.6" class="st4" width="41.5" height="41.5"/>
		<path id="XMLID_202_" class="st2" d="M316.4,187.6V221h-33.5v-33.5H316.4 M324.4,179.6h-8h-33.5h-8v8V221v8h8h33.5h8v-8v-33.5
			V179.6L324.4,179.6z"/>
	</g>
</g>
<g id="XMLID_458_">
	<rect id="XMLID_465_" x="361.9" y="224.1" class="st3" width="49.5" height="7.5"/>
	<g id="XMLID_459_">
		<rect id="XMLID_200_" x="365.9" y="183.6" class="st4" width="41.5" height="41.5"/>
		<path id="XMLID_197_" class="st2" d="M403.4,187.6V221h-33.5v-33.5H403.4 M411.4,179.6h-8h-33.5h-8v8V221v8h8h33.5h8v-8v-33.5
			V179.6L411.4,179.6z"/>
	</g>
</g>
<g id="XMLID_468_">
	<rect id="XMLID_475_" x="436" y="224.1" class="st3" width="49.5" height="7.5"/>
	<g id="XMLID_469_">
		<rect id="XMLID_195_" x="440" y="183.6" class="st4" width="41.5" height="41.5"/>
		<path id="XMLID_192_" class="st2" d="M477.4,187.6V221H444v-33.5H477.4 M485.4,179.6h-8H444h-8v8V221v8h8h33.5h8v-8v-33.5V179.6
			L485.4,179.6z"/>
	</g>
</g>
<g id="XMLID_478_">
	<rect id="XMLID_485_" x="510.1" y="224.1" class="st3" width="49.5" height="7.5"/>
	<g id="XMLID_479_">
		<rect id="XMLID_190_" x="514.1" y="183.6" class="st4" width="41.5" height="41.5"/>
		<path id="XMLID_187_" class="st2" d="M551.5,187.6V221h-33.5v-33.5H551.5 M559.5,179.6h-8h-33.5h-8v8V221v8h8h33.5h8v-8v-33.5
			V179.6L559.5,179.6z"/>
	</g>
</g>
<g id="XMLID_508_">
	<rect id="XMLID_515_" x="361.9" y="286.5" class="st3" width="49.5" height="7.5"/>
	<g id="XMLID_509_">
		<rect id="XMLID_185_" x="365.9" y="245.9" class="st4" width="41.5" height="41.5"/>
		<path id="XMLID_182_" class="st2" d="M403.4,249.9v33.5h-33.5v-33.5H403.4 M411.4,241.9h-8h-33.5h-8v8v33.5v8h8h33.5h8v-8v-33.5
			V241.9L411.4,241.9z"/>
	</g>
</g>
<g id="XMLID_498_">
	<rect id="XMLID_505_" x="436" y="286.5" class="st3" width="49.5" height="7.5"/>
	<g id="XMLID_499_">
		<rect id="XMLID_180_" x="440" y="245.9" class="st4" width="41.5" height="41.5"/>
		<path id="XMLID_177_" class="st2" d="M477.4,249.9v33.5H444v-33.5H477.4 M485.4,241.9h-8H444h-8v8v33.5v8h8h33.5h8v-8v-33.5V241.9
			L485.4,241.9z"/>
	</g>
</g>
<g id="XMLID_488_">
	<rect id="XMLID_495_" x="510.1" y="286.5" class="st3" width="49.5" height="7.5"/>
	<g id="XMLID_489_">
		<rect id="XMLID_175_" x="514.1" y="245.9" class="st4" width="41.5" height="41.5"/>
		<path id="XMLID_172_" class="st2" d="M551.5,249.9v33.5h-33.5v-33.5H551.5 M559.5,241.9h-8h-33.5h-8v8v33.5v8h8h33.5h8v-8v-33.5
			V241.9L559.5,241.9z"/>
	</g>
</g>
<g id="XMLID_281_">
	<rect id="XMLID_288_" x="361.9" y="348.8" class="st3" width="49.5" height="7.5"/>
	<g id="XMLID_282_">
		<rect id="XMLID_287_" x="365.9" y="308.3" class="st4" width="41.5" height="41.5"/>
		<path id="XMLID_284_" class="st2" d="M403.4,312.3v33.5h-33.5v-33.5H403.4 M411.4,304.3h-8h-33.5h-8v8v33.5v8h8h33.5h8v-8v-33.5
			V304.3L411.4,304.3z"/>
	</g>
</g>
<g id="XMLID_66_">
	<rect id="XMLID_266_" x="510.1" y="348.8" class="st3" width="49.5" height="7.5"/>
	<g id="XMLID_149_">
		<rect id="XMLID_154_" x="514.1" y="308.3" class="st4" width="41.5" height="41.5"/>
		<path id="XMLID_151_" class="st2" d="M551.5,312.3v33.5h-33.5v-33.5H551.5 M559.5,304.3h-8h-33.5h-8v8v33.5v8h8h33.5h8v-8v-33.5
			V304.3L559.5,304.3z"/>
	</g>
</g>
<g id="XMLID_428_">
	<rect id="XMLID_435_" x="274.9" y="286.5" class="st3" width="49.5" height="7.5"/>
	<g id="XMLID_429_">
		<rect id="XMLID_170_" x="278.9" y="245.9" class="st4" width="41.5" height="41.5"/>
		<path id="XMLID_167_" class="st2" d="M316.4,249.9v33.5h-33.5v-33.5H316.4 M324.4,241.9h-8h-33.5h-8v8v33.5v8h8h33.5h8v-8v-33.5
			V241.9L324.4,241.9z"/>
	</g>
</g>
<g id="XMLID_418_">
	<rect id="XMLID_425_" x="274.9" y="348.8" class="st3" width="49.5" height="7.5"/>
	<g id="XMLID_419_">
		<rect id="XMLID_165_" x="278.9" y="308.3" class="st4" width="41.5" height="41.5"/>
		<path id="XMLID_160_" class="st2" d="M316.4,312.3v33.5h-33.5v-33.5H316.4 M324.4,304.3h-8h-33.5h-8v8v33.5v8h8h33.5h8v-8v-33.5
			V304.3L324.4,304.3z"/>
	</g>
</g>
<rect id="XMLID_65_" x="436" y="305.2" class="st5" width="49.5" height="77.8"/>
<rect id="XMLID_293_" x="428.3" y="301.7" class="st2" width="64.3" height="10.5"/>
<rect id="XMLID_294_" x="459.9" y="313" class="st6" width="1.7" height="70.1"/>
<rect id="XMLID_295_" y="362.4" class="st7" width="189.3" height="20.7"/>
<rect id="XMLID_302_" x="208.8" y="362.4" class="st7" width="202.6" height="20.7"/>
<rect id="XMLID_304_" x="510.1" y="362.4" class="st7" width="76.7" height="20.7"/>
</svg>
