<?xml version="1.0" encoding="utf-8"?>
<!-- Generator: Adobe Illustrator 19.0.0, SVG Export Plug-In . SVG Version: 6.00 Build 0)  -->
<svg version="1.1" id="Layer_1" xmlns="http://www.w3.org/2000/svg" xmlns:xlink="http://www.w3.org/1999/xlink" x="0px" y="0px"
	 viewBox="-367 268.9 358.3 296.8" style="enable-background:new -367 268.9 358.3 296.8;" xml:space="preserve">
<style type="text/css">
	.st0{fill:#8B5E3C;}
	.st1{fill:#A97C50;}
	.st2{fill:#414042;}
	.st3{fill:#009444;}
	.st4{fill:#603913;}
	.st5{opacity:0.3;}
	.st6{fill:#E96D84;}
	.st7{fill:#FFFFFF;}
	.st8{font-family:'Gotham-Black';}
	.st9{font-size:56.586px;}
	.st10{letter-spacing:-1;}
	.st11{font-family:'Gotham-Medium';}
	.st12{font-size:13.1805px;}
</style>
<rect x="-292.1" y="484.7" class="st0" width="28.5" height="81"/>
<rect x="-112.4" y="484.7" class="st0" width="28.5" height="81"/>
<path class="st1" d="M-36.3,501.2h-303.7c-9.4,0-17-4-17-8.9V287.8c0-4.9,7.6-8.9,17-8.9h303.7c9.4,0,17,4,17,8.9v204.6
	C-19.5,497.3-26.9,501.2-36.3,501.2z"/>
<path class="st2" d="M-31,507.8h-313.7c-12.3,0-22.3-10-22.3-22.3V291.1c0-12.3,10-22.3,22.3-22.3H-31c12.3,0,22.3,10,22.3,22.3
	v194.5C-8.8,497.8-18.7,507.8-31,507.8z M-344.7,288.9c-1.3,0-2.3,1-2.3,2.3v194.5c0,1.2,1,2.3,2.3,2.3H-31c1.2,0,2.3-1,2.3-2.3
	V291.1c0-1.2-1-2.3-2.3-2.3H-344.7z"/>
<rect x="-298.9" y="546.8" class="st3" width="41.3" height="18.9"/>
<rect x="-118.8" y="546.8" class="st3" width="41.3" height="18.9"/>
<polygon class="st4" points="-292.1,508.3 -263.6,508.3 -263.6,528.9 "/>
<polygon class="st4" points="-112.4,508.2 -83.9,508.2 -83.9,528.9 "/>
<g>
	<g class="st5">
		<path d="M-136.9,355.3c0,0.1,0,0.3,0,0.4v-0.1C-136.9,355.5-136.9,355.4-136.9,355.3z"/>
	</g>
	<g>
		<path class="st6" d="M-141.9,350.3c0,0.1,0,0.3,0,0.4v-0.1C-141.9,350.5-141.9,350.4-141.9,350.3z"/>
	</g>
</g>
<g>
	<g class="st5">
		<circle cx="-131.6" cy="329.6" r="5.4"/>
	</g>
	<g>
		<circle class="st6" cx="-134.6" cy="326.6" r="5.4"/>
	</g>
</g>
<text transform="matrix(1 0 0 1 -116.3281 361.1665)" class="st7 st8 st9 st10">19</text>
<text transform="matrix(1 0 0 1 -109.376 378.7407)" class="st7 st11 st12">single</text>
<g>
	<g class="st5">
		<path d="M-285.9,369.2c-3.3,3.6-8.1,5.9-13.3,5.9c-10,0-18.1-8.1-18.1-18.1c0-10,8.1-18.1,18.1-18.1s18.1,8.1,18.1,18.1
			c0,0.5,0,0.9-0.1,1.4c1.1,0.3,2.3,0.5,3.5,0.5c1.2,0,2.3-0.2,3.3-0.5c0-0.5,0-0.9,0-1.4c0-8.5-4.3-16.1-10.9-20.6l-0.2-0.2
			c-2-1.3-4.2-2.4-6.5-3.1l-0.5-0.2c-2.2-0.6-4.4-0.9-6.8-0.9c-13.7,0-24.9,11.2-24.9,24.9c0,13.7,11.2,24.9,24.9,24.9
			c8.7,0,16.3-4.5,20.8-11.2C-281.1,370.5-283.6,370-285.9,369.2z"/>
	</g>
	<g>
		<path class="st6" d="M-288.9,366.2c-3.3,3.6-8.1,5.9-13.3,5.9c-10,0-18.1-8.1-18.1-18.1c0-10,8.1-18.1,18.1-18.1
			s18.1,8.1,18.1,18.1c0,0.5,0,0.9-0.1,1.4c1.1,0.3,2.3,0.5,3.5,0.5c1.2,0,2.3-0.2,3.3-0.5c0-0.5,0-0.9,0-1.4
			c0-8.5-4.3-16.1-10.9-20.6l-0.2-0.2c-2-1.3-4.2-2.4-6.5-3.1l-0.5-0.2c-2.2-0.6-4.4-0.9-6.8-0.9c-13.7,0-24.9,11.2-24.9,24.9
			c0,13.7,11.2,24.9,24.9,24.9c8.7,0,16.3-4.5,20.8-11.2C-284.1,367.5-286.6,367-288.9,366.2z"/>
	</g>
</g>
<g>
	<g class="st5">
		<path d="M-277.7,325.8c-5.1,0-9.8,1.8-13.5,4.9c2.6,0.8,5,1.9,7.1,3.4c1.9-0.9,4.1-1.5,6.4-1.5c7.9,0,14.4,6.5,14.4,14.4
			c0,7.9-6.5,14.4-14.4,14.4s-14.4-6.5-14.4-14.4c0-1.3,0.2-2.5,0.5-3.6c-1.9-1.1-4.1-1.8-6.5-2c-0.5,1.8-0.8,3.7-0.8,5.6
			c0,11.7,9.5,21.2,21.2,21.2c11.7,0,21.2-9.5,21.2-21.2C-256.5,335.3-266,325.8-277.7,325.8z"/>
	</g>
	<g>
		<path class="st6" d="M-280.7,322.8c-5.1,0-9.8,1.8-13.5,4.9c2.6,0.8,5,1.9,7.1,3.4c1.9-0.9,4.1-1.5,6.4-1.5
			c7.9,0,14.4,6.5,14.4,14.4c0,7.9-6.5,14.4-14.4,14.4s-14.4-6.5-14.4-14.4c0-1.3,0.2-2.5,0.5-3.6c-1.9-1.1-4.1-1.8-6.5-2
			c-0.5,1.8-0.8,3.7-0.8,5.6c0,11.7,9.5,21.2,21.2,21.2c11.7,0,21.2-9.5,21.2-21.2C-259.5,332.3-269,322.8-280.7,322.8z"/>
	</g>
</g>
<text transform="matrix(1 0 0 1 -250.8252 361.1665)" class="st7 st8 st9 st10">49</text>
<text transform="matrix(1 0 0 1 -250.8242 378.7407)" class="st7 st11 st12">married</text>
<g>
	<g class="st5">
		<path d="M-265.7,442.9l-1.5-0.7l-1.5,0.9l-1-1.3l-1.5,0.2c-0.3,4-1.8,7.9-4.7,11c-6.8,7.3-18.2,7.7-25.5,1
			c-7.3-6.8-7.7-18.2-1-25.5c4.4-4.7,10.7-6.5,16.6-5.4l0.4-1.7l1.5-0.7l-0.3-1.7l1.5-0.8l-0.4-1.3c-3.8-1-7.9-1-11.7-0.2l-0.3,0.1
			c-2.3,0.6-4.5,1.4-6.6,2.6l-0.5,0.3c-1.9,1.2-3.7,2.6-5.3,4.3c-9.3,10-8.7,25.7,1.3,35c10,9.3,25.7,8.7,35-1.3
			c4.1-4.5,6.3-10,6.6-15.7L-265.7,442.9z"/>
	</g>
	<g>
		<path class="st6" d="M-268.7,439.9l-1.5-0.7l-1.5,0.9l-1-1.3l-1.5,0.2c-0.3,4-1.8,7.9-4.7,11c-6.8,7.3-18.2,7.7-25.5,1
			c-7.3-6.8-7.7-18.2-1-25.5c4.4-4.7,10.7-6.5,16.6-5.4l0.4-1.7l1.5-0.7l-0.3-1.7l1.5-0.8l-0.4-1.3c-3.8-1-7.9-1-11.7-0.2l-0.3,0.1
			c-2.3,0.6-4.5,1.4-6.6,2.6l-0.5,0.3c-1.9,1.2-3.7,2.6-5.3,4.3c-9.3,10-8.7,25.7,1.3,35c10,9.3,25.7,8.7,35-1.3
			c4.1-4.5,6.3-10,6.6-15.7L-268.7,439.9z"/>
	</g>
</g>
<g>
	<g class="st5">
		<path d="M-271.1,400.4c-9.7-5.4-22-1.9-27.3,7.8c-0.2,0.3-0.3,0.7-0.5,1l1.5-0.6l0.8,1.5l2.1-1.3l0.8,1.3l1.8-0.3
			c4-5.4,11.5-7.1,17.6-3.8c6.6,3.7,9,12,5.3,18.6c-2.5,4.4-7.1,7-11.8,7l1,1.5l-1.4,1.4l1.4,1.2l-1.5,0.9l0.6,1.4
			c7-0.1,13.7-3.8,17.3-10.3C-257.9,418-261.4,405.8-271.1,400.4z"/>
	</g>
	<g>
		<path class="st6" d="M-274.1,397.4c-9.7-5.4-22-1.9-27.3,7.8c-0.2,0.3-0.3,0.7-0.5,1l1.5-0.6l0.8,1.5l2.1-1.3l0.8,1.3l1.8-0.3
			c4-5.4,11.5-7.1,17.6-3.8c6.6,3.7,9,12,5.3,18.6c-2.5,4.4-7.1,7-11.8,7l1,1.5l-1.4,1.4l1.4,1.2l-1.5,0.9l0.6,1.4
			c7-0.1,13.7-3.8,17.3-10.3C-260.9,415-264.4,402.8-274.1,397.4z"/>
	</g>
</g>
<text transform="matrix(1 0 0 1 -256.9453 438.73)" class="st7 st8 st9 st10">6</text>
<text transform="matrix(1 0 0 1 -256.2549 456.5054)" class="st7 st11 st12">divorced</text>
<g>
	<g class="st5">
		<path d="M-132.5,441.1l0.8-6.9l-6.2-2.1l0.6-7.7l-7-2.2l-0.1-7.4c-4-2.2-9.2-3.3-13.2-1c-6.5,3.7-8.5,12.7-4.4,20.2
			c4.5,8.3,15.7,15.3,37.9,17.9l-2.1-7.7L-132.5,441.1z"/>
	</g>
	<g>
		<path class="st6" d="M-135.5,438.1l0.8-6.9l-6.2-2.1l0.6-7.7l-7-2.2l-0.1-7.4c-4-2.2-9.2-3.3-13.2-1c-6.5,3.7-8.5,12.7-4.4,20.2
			c4.5,8.3,15.7,15.3,37.9,17.9l-2.1-7.7L-135.5,438.1z"/>
	</g>
</g>
<g>
	<g class="st5">
		<path d="M-128.3,401c-4.4,1.4-7.1,5.9-8.3,10.3l-1.3,7.2l6.5,3.6l-2,7.4l5.8,3.3l-2.1,6.5l5.7,4.2l0.6,7.9
			c13.3-18,15.8-31,12.8-40C-113.2,403.4-121.2,398.7-128.3,401z"/>
	</g>
	<g>
		<path class="st6" d="M-131.3,398c-4.4,1.4-7.1,5.9-8.3,10.3l-1.3,7.2l6.5,3.6l-2,7.4l5.8,3.3l-2.1,6.5l5.7,4.2l0.6,7.9
			c13.3-18,15.8-31,12.8-40C-116.2,400.4-124.2,395.7-131.3,398z"/>
	</g>
</g>
<text transform="matrix(1 0 0 1 -107.377 438.9312)" class="st7 st8 st9 st10">6</text>
<text transform="matrix(1 0 0 1 -105.711 456.5054)" class="st7 st11 st12">widowed</text>
<g>
	<g class="st5">
		<path d="M-120.2,342.5v15.3c0,1.6-1.1,2.9-2.4,2.9c-0.9,0-1.8-0.7-2.1-1.6c-0.2-0.4-0.3-0.8-0.3-1.3v-15.3h-0.9l0,38
			c0,1.5-1.2,2.8-2.6,2.8c-1.4,0-2.6-1.2-2.6-2.8v-19.9h-0.8v19.9c0,1.5-1.2,2.8-2.6,2.8c-1.4,0-2.6-1.2-2.6-2.8c0,0,0-21.2,0-21.2
			v-16.7h-0.9v15.3c0,0.5-0.1,0.9-0.2,1.3c-0.4,0.9-1.2,1.6-2.1,1.6c-1.3,0-2.4-1.3-2.4-2.9v-15.3c0-0.1,0-0.3,0-0.4
			c0.2-3,2.7-5.3,5.7-5.4c0,0,0,0,0.1,0h11.1c0,0,0,0,0.1,0c3,0,5.5,2.4,5.7,5.4c0,0,0,0,0,0C-120.2,342.2-120.2,342.3-120.2,342.5z
			"/>
	</g>
	<g>
		<path class="st6" d="M-123.2,339.5v15.3c0,1.6-1.1,2.9-2.4,2.9c-0.9,0-1.8-0.7-2.1-1.6c-0.2-0.4-0.3-0.8-0.3-1.3v-15.3h-0.9l0,38
			c0,1.5-1.2,2.8-2.6,2.8c-1.4,0-2.6-1.2-2.6-2.8v-19.9h-0.8v19.9c0,1.5-1.2,2.8-2.6,2.8c-1.4,0-2.6-1.2-2.6-2.8c0,0,0-21.2,0-21.2
			v-16.7h-0.9v15.3c0,0.5-0.1,0.9-0.2,1.3c-0.4,0.9-1.2,1.6-2.1,1.6c-1.3,0-2.4-1.3-2.4-2.9v-15.3c0-0.1,0-0.3,0-0.4
			c0.2-3,2.7-5.3,5.7-5.4c0,0,0,0,0.1,0h11.1c0,0,0,0,0.1,0c3,0,5.5,2.4,5.7,5.4c0,0,0,0,0,0C-123.2,339.2-123.2,339.3-123.2,339.5z
			"/>
	</g>
</g>
</svg>
