<?xml version="1.0" encoding="utf-8"?>
<!-- Generator: Adobe Illustrator 19.0.0, SVG Export Plug-In . SVG Version: 6.00 Build 0)  -->
<svg version="1.1" id="Layer_1" xmlns="http://www.w3.org/2000/svg" xmlns:xlink="http://www.w3.org/1999/xlink" x="0px" y="0px"
	 viewBox="-848 411.4 326 321.6" style="enable-background:new -848 411.4 326 321.6;" xml:space="preserve">
<style type="text/css">
	.st0{fill:#8B5E3C;}
	.st1{fill:#A97C50;}
	.st2{fill:#414042;}
	.st3{fill:#009444;}
	.st4{fill:#603913;}
	.st5{fill:#FFFFFF;}
</style>
<g id="XMLID_4_">
	<g id="XMLID_3_">
		<rect x="-797.1" y="652" class="st0" width="28.5" height="81"/>
	</g>
	<g id="XMLID_6_">
		<rect x="-617.4" y="652" class="st0" width="28.5" height="81"/>
	</g>
</g>
<g id="XMLID_1_">
	<path id="XMLID_73_" class="st1" d="M-838,653.3V433.7c0-6.8,5.5-12.3,12.3-12.3h281.4c6.8,0,12.3,5.5,12.3,12.3v219.6
		c0,6.8-5.5,12.3-12.3,12.3h-281.5C-832.5,665.5-838,660.1-838,653.3z"/>
	<path id="XMLID_76_" class="st2" d="M-848,653.3V433.7c0-12.3,10-22.3,22.3-22.3h281.4c12.3,0,22.3,10,22.3,22.3v219.6
		c0,12.3-10,22.3-22.3,22.3h-281.5C-838,675.5-848,665.6-848,653.3z M-542,433.7c0-1.3-1-2.3-2.3-2.3h-281.5c-1.2,0-2.3,1-2.3,2.3
		v219.6c0,1.2,1,2.3,2.3,2.3h281.5c1.2,0,2.3-1,2.3-2.3V433.7z"/>
</g>
<g id="XMLID_20_">
	<rect x="-803.9" y="714.1" class="st3" width="41.3" height="18.9"/>
</g>
<g id="XMLID_22_">
	<rect x="-623.8" y="714.1" class="st3" width="41.3" height="18.9"/>
</g>
<g id="XMLID_23_">
	<polygon class="st4" points="-797.1,675.6 -768.6,675.6 -768.6,696.2 	"/>
</g>
<g id="XMLID_24_">
	<polygon class="st4" points="-617.4,675.5 -588.9,675.5 -588.9,696.2 	"/>
</g>
<g>
	<path class="st5" d="M-784.3,492.3c2.5,1,4.7,2.3,6.6,4l-8.4,8.4c-0.9-1.1-2-1.9-3.4-2.5c-1.3-0.6-2.5-0.9-3.6-0.9
		c-1,0-1.8,0.1-2.4,0.4c-0.6,0.3-0.9,0.7-0.9,1.4c0,0.6,0.3,1.1,0.9,1.3c0.6,0.3,1.6,0.7,3,1.1c1.4,0.5,3,1,4.5,1.6
		c1.6,0.6,3.1,1.3,4.4,2.3c1.3,0.9,2.5,2.1,3.3,3.5c0.9,1.4,1.3,3.1,1.3,5.1c0,2.1-0.4,4-1.1,5.6c-0.8,1.6-1.8,3-3,4.2
		c-1.3,1.2-2.7,2.1-4.3,2.7c-1.6,0.6-3.4,1-5.1,1.2v4.3h-5.8v-4.3c-2.7-0.2-5.2-0.8-7.7-1.8c-2.5-1-4.6-2.3-6.4-3.8l8.2-8.8
		c0.5,0.5,1,1,1.7,1.4c0.7,0.5,1.4,0.9,2.1,1.2c0.8,0.4,1.5,0.6,2.4,0.9c0.8,0.2,1.6,0.3,2.5,0.3c0.8,0,1.4-0.1,2.1-0.4
		c0.6-0.3,0.9-0.7,0.9-1.4c0-0.4-0.1-0.7-0.3-1c-0.2-0.3-0.6-0.5-1.1-0.8c-0.5-0.3-1.3-0.6-2.2-0.9c-0.9-0.3-2.1-0.7-3.5-1.2
		c-1.4-0.5-2.7-1-3.9-1.6c-1.3-0.6-2.4-1.4-3.3-2.2c-1-0.9-1.7-2-2.3-3.2c-0.6-1.3-0.9-2.7-0.9-4.4c0-2,0.3-3.8,1-5.3
		c0.7-1.5,1.6-2.8,2.7-3.9s2.5-2,4-2.6c1.5-0.7,3-1.1,4.6-1.4v-4.2h5.8v4.1C-789.3,490.8-786.8,491.4-784.3,492.3z"/>
	<path class="st5" d="M-755.1,508c0.6-0.5,1.2-1,1.6-1.6c0.4-0.6,0.6-1.2,0.6-1.9c0-0.8-0.2-1.4-0.7-2c-0.5-0.6-1.2-0.9-2.2-0.9
		c-1.1,0-2,0.4-2.7,1.3c-0.7,0.9-1.1,2-1.2,3.5l-12.9-1.5c0.3-2.6,0.9-4.9,2-6.8c1.1-1.9,2.5-3.5,4.1-4.7s3.5-2.2,5.5-2.8
		c2-0.6,4.1-0.9,6.3-0.9c2,0,3.9,0.2,5.9,0.7c2,0.5,3.7,1.3,5.2,2.3c1.5,1,2.7,2.4,3.7,4.1c0.9,1.7,1.4,3.7,1.4,6
		c0,1.7-0.2,3.1-0.7,4.4c-0.4,1.3-1,2.4-1.8,3.4c-0.7,1-1.6,1.9-2.5,2.7c-0.9,0.8-1.9,1.6-2.9,2.3l-5.9,4.2h13.9v11.3H-771v-10.5
		L-755.1,508z"/>
	<path class="st5" d="M-701.5,531.2h-12.3v-7.1h-19.4v-11L-718,491h16.4v22.6h5.5v10.6h-5.4V531.2z M-713.9,503.4l-6.7,10.2h6.9
		v-10.2H-713.9z"/>
	<path class="st5" d="M-694.4,538.1l4.7-17.8h12.4l-6.5,17.8H-694.4z"/>
	<path class="st5" d="M-658.3,505.3l-6.8,4.7l-6.4-9.9l14.3-9.1h12.5v40.2h-13.6V505.3z"/>
	<path class="st5" d="M-628.3,531.2l15.3-29h-17.3V491h32.1v9.6l-14.4,30.6H-628.3z"/>
	<path class="st5" d="M-575.2,532.4c-2.5,0-4.6-0.3-6.5-1s-3.4-1.5-4.8-2.6c-1.3-1.1-2.4-2.4-3.3-3.8c-0.9-1.4-1.6-3-2.1-4.5
		c-0.5-1.6-0.9-3.2-1.1-4.8c-0.2-1.6-0.3-3.2-0.3-4.7c0-1.5,0.1-3,0.3-4.7c0.2-1.6,0.6-3.2,1.1-4.8c0.5-1.6,1.2-3,2.1-4.4
		c0.9-1.4,2-2.6,3.3-3.7c1.3-1.1,2.9-1.9,4.8-2.5c1.9-0.6,4-0.9,6.5-0.9c3.7,0,6.7,0.7,9.1,2c2.3,1.3,4.2,3.1,5.5,5.1
		c1.3,2.1,2.2,4.3,2.7,6.8c0.5,2.5,0.7,4.8,0.7,7.1c0,1.5-0.1,3-0.3,4.7c-0.2,1.6-0.6,3.3-1.1,4.9c-0.5,1.6-1.2,3.1-2.1,4.5
		c-0.9,1.4-2,2.7-3.3,3.8c-1.3,1.1-2.9,2-4.8,2.6C-570.6,532.1-572.8,532.4-575.2,532.4z M-575.2,501.5c-0.8,0-1.5,0.3-2,0.9
		c-0.5,0.6-0.9,1.3-1.3,2.2c-0.3,0.9-0.5,1.9-0.6,3c-0.1,1.1-0.2,2.2-0.2,3.3c0,1.1,0.1,2.2,0.2,3.4c0.1,1.2,0.3,2.2,0.6,3.2
		c0.3,0.9,0.7,1.7,1.3,2.3c0.5,0.6,1.2,0.9,2,0.9c0.8,0,1.5-0.3,2.1-0.9c0.5-0.6,1-1.4,1.2-2.3c0.3-0.9,0.5-2,0.6-3.2
		c0.1-1.2,0.2-2.3,0.2-3.4c0-1.1-0.1-2.2-0.2-3.3c-0.1-1.1-0.3-2.1-0.6-3c-0.3-0.9-0.7-1.6-1.2-2.2
		C-573.7,501.8-574.4,501.5-575.2,501.5z"/>
	<path class="st5" d="M-793.9,569.5h-3v-21.7h3V569.5z"/>
	<path class="st5" d="M-777.9,551.9c-0.4-0.6-1-1.1-1.7-1.5c-0.7-0.4-1.6-0.6-2.5-0.6c-0.5,0-1,0.1-1.5,0.2c-0.5,0.1-1,0.3-1.4,0.6
		s-0.7,0.7-1,1.1c-0.3,0.4-0.4,1-0.4,1.6c0,0.6,0.1,1.1,0.4,1.5c0.2,0.4,0.6,0.7,1,1c0.4,0.3,0.9,0.5,1.4,0.7
		c0.5,0.2,1.1,0.4,1.7,0.6c0.7,0.2,1.5,0.5,2.2,0.8c0.8,0.3,1.4,0.7,2.1,1.1c0.6,0.5,1.1,1.1,1.5,1.8c0.4,0.7,0.6,1.6,0.6,2.7
		c0,1.1-0.2,2.1-0.6,2.9c-0.4,0.8-1,1.5-1.7,2.1s-1.5,0.9-2.4,1.2c-0.9,0.3-1.8,0.4-2.8,0.4c-1.4,0-2.7-0.3-4-0.8
		c-1.3-0.5-2.3-1.3-3.2-2.4l2.4-2c0.5,0.8,1.2,1.4,2.1,1.8c0.9,0.5,1.8,0.7,2.8,0.7c0.5,0,1-0.1,1.5-0.2c0.5-0.1,1-0.4,1.4-0.7
		c0.4-0.3,0.8-0.7,1-1.1c0.3-0.5,0.4-1,0.4-1.7c0-0.7-0.1-1.2-0.4-1.6c-0.3-0.4-0.6-0.8-1.1-1.1c-0.5-0.3-1-0.6-1.6-0.8
		c-0.6-0.2-1.3-0.4-2-0.7c-0.7-0.2-1.4-0.5-2.1-0.8c-0.7-0.3-1.3-0.7-1.8-1.1c-0.5-0.5-1-1-1.3-1.7s-0.5-1.5-0.5-2.5
		c0-1.1,0.2-2,0.7-2.8c0.4-0.8,1-1.4,1.7-1.9s1.5-0.9,2.4-1.1c0.9-0.2,1.8-0.4,2.7-0.4c1.3,0,2.5,0.2,3.6,0.7c1.1,0.5,2,1.1,2.7,1.8
		L-777.9,551.9z"/>
	<path class="st5" d="M-756.7,569.5h-3v-19h-7v-2.7h16.9v2.7h-7V569.5z"/>
	<path class="st5" d="M-746.9,547.9h3v9.1h11v-9.1h3.1v21.7h-3.1v-9.9h-11v9.9h-3V547.9z"/>
	<path class="st5" d="M-721.5,566.9h11.3v2.7h-14.4v-21.7h13.9v2.7h-10.9v6.5h10.2v2.6h-10.2V566.9z"/>
	<path class="st5" d="M-687.2,564.5L-687.2,564.5l6.5-16.7h4.7v21.7h-3v-18.1h-0.1l-7.2,18.1h-1.9l-7.2-18.1h-0.1v18.1h-2.9v-21.7
		h4.7L-687.2,564.5z"/>
	<path class="st5" d="M-667.8,566.9h11.3v2.7h-14.4v-21.7h13.9v2.7h-10.9v6.5h10.2v2.6h-10.2V566.9z"/>
	<path class="st5" d="M-652.4,547.9h7.4c1.4,0,2.8,0.2,4.2,0.6c1.4,0.4,2.6,1.1,3.8,1.9s2,2,2.7,3.4s1,3,1,4.9c0,1.9-0.3,3.5-1,4.8
		c-0.7,1.4-1.6,2.5-2.7,3.4s-2.4,1.6-3.8,2c-1.4,0.4-2.8,0.7-4.2,0.7h-7.4V547.9z M-649.3,566.9h3.8c1.3,0,2.5-0.2,3.6-0.6
		c1.1-0.4,2.1-0.9,2.9-1.6c0.8-0.7,1.4-1.6,1.9-2.6c0.4-1,0.7-2.2,0.7-3.5c0-1.3-0.2-2.5-0.7-3.6c-0.4-1-1.1-1.9-1.9-2.6
		c-0.8-0.7-1.8-1.2-2.9-1.6s-2.3-0.5-3.6-0.5h-3.8V566.9z"/>
	<path class="st5" d="M-626,569.5h-3v-21.7h3V569.5z"/>
	<path class="st5" d="M-619.9,569.5h-3.4l9.4-21.7h2.8l9.3,21.7h-3.4l-2.2-5.3h-10.3L-619.9,569.5z M-616.6,561.6h8.1l-4-10.2
		L-616.6,561.6z"/>
	<path class="st5" d="M-583.7,565.2L-583.7,565.2l0.1-17.3h3v21.7h-3.8l-11.5-17.7h-0.1v17.7h-3v-21.7h4L-583.7,565.2z"/>
	<path class="st5" d="M-798.2,598.7h-3V577h13.5v2.7h-10.5v6.7h9.8v2.6h-9.8V598.7z"/>
	<path class="st5" d="M-784.6,598.7h-3.4l9.4-21.7h2.8l9.3,21.7h-3.4l-2.2-5.3h-10.3L-784.6,598.7z M-781.4,590.7h8.1l-4-10.2
		L-781.4,590.7z"/>
	<path class="st5" d="M-752.5,593.6L-752.5,593.6l6.5-16.7h4.7v21.7h-3v-18.1h-0.1l-7.2,18.1h-1.9l-7.2-18.1h-0.1v18.1h-2.9V577h4.7
		L-752.5,593.6z"/>
	<path class="st5" d="M-733.1,598.7h-3V577h3V598.7z"/>
	<path class="st5" d="M-724.7,596h9.7v2.7h-12.7V577h3V596z"/>
	<path class="st5" d="M-706.3,598.7h-3.1v-9.4l-8.1-12.3h3.7l6,9.8l6-9.8h3.5l-8.1,12.3V598.7z"/>
	<path class="st5" d="M-685.7,598.7h-3V577h3V598.7z"/>
	<path class="st5" d="M-665.1,594.3L-665.1,594.3l0.1-17.3h3v21.7h-3.8l-11.5-17.7h-0.1v17.7h-3V577h4L-665.1,594.3z"/>
	<path class="st5" d="M-638.2,595.3c-0.9,1.2-2,2.1-3.3,2.8c-1.4,0.7-3,1.1-4.9,1.1c-1.7,0-3.2-0.3-4.6-0.8
		c-1.4-0.6-2.6-1.3-3.6-2.4c-1-1-1.8-2.2-2.4-3.6c-0.6-1.4-0.9-2.9-0.9-4.6c0-1.7,0.3-3.2,0.9-4.6c0.6-1.4,1.4-2.6,2.4-3.6
		c1-1,2.3-1.8,3.7-2.3c1.4-0.6,2.9-0.8,4.6-0.8c0.7,0,1.5,0.1,2.2,0.2s1.5,0.4,2.2,0.6s1.3,0.6,1.9,1.1c0.6,0.4,1.1,0.9,1.5,1.5
		l-2.4,1.8c-0.5-0.7-1.3-1.3-2.3-1.8c-1-0.5-2-0.7-3.1-0.7c-1.3,0-2.4,0.2-3.4,0.7c-1,0.5-1.9,1.1-2.6,1.9s-1.3,1.7-1.7,2.8
		c-0.4,1.1-0.6,2.2-0.6,3.4c0,1.2,0.2,2.4,0.6,3.4c0.4,1.1,0.9,2,1.6,2.8s1.6,1.4,2.6,1.9c1,0.4,2.1,0.7,3.4,0.7
		c1.2,0,2.3-0.2,3.3-0.7c1-0.5,1.8-1.2,2.5-2.1L-638.2,595.3z"/>
	<path class="st5" d="M-613.6,587.8c0,1.7-0.3,3.2-0.9,4.6c-0.6,1.4-1.4,2.6-2.4,3.6c-1,1-2.2,1.8-3.6,2.4s-2.9,0.8-4.6,0.8
		s-3.2-0.3-4.6-0.8c-1.4-0.6-2.6-1.3-3.6-2.4c-1-1-1.8-2.2-2.4-3.6c-0.6-1.4-0.9-2.9-0.9-4.6c0-1.7,0.3-3.2,0.9-4.6
		c0.6-1.4,1.4-2.6,2.4-3.6c1-1,2.2-1.8,3.6-2.3c1.4-0.6,2.9-0.8,4.6-0.8s3.2,0.3,4.6,0.8c1.4,0.6,2.6,1.3,3.6,2.3
		c1,1,1.8,2.2,2.4,3.6C-613.9,584.5-613.6,586.1-613.6,587.8z M-616.8,587.8c0-1.2-0.2-2.3-0.6-3.4c-0.4-1.1-0.9-2-1.7-2.8
		s-1.6-1.4-2.6-1.9c-1-0.5-2.1-0.7-3.4-0.7c-1.2,0-2.4,0.2-3.4,0.7c-1,0.5-1.9,1.1-2.6,1.9s-1.3,1.7-1.6,2.8
		c-0.4,1.1-0.6,2.2-0.6,3.4c0,1.2,0.2,2.3,0.6,3.4c0.4,1.1,0.9,2,1.7,2.8c0.7,0.8,1.6,1.4,2.6,1.9c1,0.5,2.1,0.7,3.4,0.7
		s2.4-0.2,3.4-0.7c1-0.4,1.9-1.1,2.6-1.9c0.7-0.8,1.3-1.7,1.7-2.8C-617,590.1-616.8,589-616.8,587.8z"/>
	<path class="st5" d="M-598.2,593.6L-598.2,593.6l6.5-16.7h4.7v21.7h-3v-18.1h-0.1l-7.2,18.1h-1.9l-7.2-18.1h-0.1v18.1h-2.9V577h4.7
		L-598.2,593.6z"/>
	<path class="st5" d="M-578.7,596h11.3v2.7h-14.4V577h13.9v2.7h-10.9v6.5h10.2v2.6h-10.2V596z"/>
</g>
</svg>
