<?xml version="1.0" encoding="utf-8"?>
<!-- Generator: Adobe Illustrator 19.0.0, SVG Export Plug-In . SVG Version: 6.00 Build 0)  -->
<svg version="1.1" id="Layer_1" xmlns="http://www.w3.org/2000/svg" xmlns:xlink="http://www.w3.org/1999/xlink" x="0px" y="0px"
	 viewBox="-827 349.5 264.1 383.5" style="enable-background:new -827 349.5 264.1 383.5;" xml:space="preserve">
<style type="text/css">
	.st0{fill:#8B5E3C;}
	.st1{fill:#A97C50;}
	.st2{fill:#414042;}
	.st3{fill:#009444;}
	.st4{fill:#603913;}
	.st5{fill:#FFFFFF;}
</style>
<g id="XMLID_4_">
	<g id="XMLID_3_">
		<rect x="-797.1" y="652" class="st0" width="28.5" height="81"/>
	</g>
	<g id="XMLID_6_">
		<rect x="-617.4" y="652" class="st0" width="28.5" height="81"/>
	</g>
</g>
<g id="XMLID_1_">
	<path id="XMLID_73_" class="st1" d="M-585.1,665.5h-219.6c-6.8,0-12.3-5.5-12.3-12.3V371.8c0-6.8,5.5-12.3,12.3-12.3h219.6
		c6.8,0,12.3,5.5,12.3,12.3v281.5C-572.9,660-578.3,665.5-585.1,665.5z"/>
	<path id="XMLID_76_" class="st2" d="M-585.1,675.5h-219.6c-12.3,0-22.3-10-22.3-22.3V371.8c0-12.3,10-22.3,22.3-22.3h219.6
		c12.3,0,22.3,10,22.3,22.3v281.5C-562.9,665.5-572.8,675.5-585.1,675.5z M-804.7,369.5c-1.3,0-2.3,1-2.3,2.3v281.5
		c0,1.2,1,2.3,2.3,2.3h219.6c1.2,0,2.3-1,2.3-2.3V371.8c0-1.2-1-2.3-2.3-2.3H-804.7z"/>
</g>
<g id="XMLID_20_">
	<rect x="-803.9" y="714.1" class="st3" width="41.3" height="18.9"/>
</g>
<g id="XMLID_22_">
	<rect x="-623.8" y="714.1" class="st3" width="41.3" height="18.9"/>
</g>
<g id="XMLID_23_">
	<polygon class="st4" points="-797.1,675.6 -768.6,675.6 -768.6,696.2 	"/>
</g>
<g id="XMLID_24_">
	<polygon class="st4" points="-617.4,675.5 -588.9,675.5 -588.9,696.2 	"/>
</g>
<g>
	<path class="st5" d="M-707.2,491.8h-23.5v-13.6h-37.2V457l29.2-42.4h31.4v43.3h10.5v20.3h-10.4V491.8z M-730.8,438.4l-12.9,19.5
		h13.3v-19.5H-730.8z"/>
	<path class="st5" d="M-656.8,494c-4.7,0-8.9-0.6-12.4-1.9c-3.6-1.2-6.6-2.9-9.2-5c-2.5-2.1-4.7-4.5-6.4-7.3c-1.7-2.8-3.1-5.7-4-8.7
		c-1-3.1-1.7-6.1-2.1-9.3c-0.4-3.1-0.6-6.1-0.6-9c0-2.8,0.2-5.8,0.6-8.9c0.4-3.1,1.1-6.2,2.1-9.2c1-3,2.3-5.8,4-8.5
		c1.7-2.7,3.8-5,6.4-7.1c2.5-2,5.6-3.7,9.2-4.9c3.6-1.2,7.7-1.8,12.4-1.8c7.1,0,12.9,1.3,17.4,3.9c4.5,2.6,8,5.9,10.6,9.8
		c2.5,4,4.3,8.3,5.2,13.1c0.9,4.8,1.4,9.3,1.4,13.6c0,2.8-0.2,5.8-0.6,9c-0.4,3.2-1.1,6.3-2.1,9.3c-1,3.1-2.3,6-4,8.7
		c-1.7,2.8-3.8,5.2-6.4,7.3c-2.6,2.1-5.7,3.8-9.2,5C-647.9,493.4-652.1,494-656.8,494z M-656.8,434.8c-1.6,0-2.9,0.5-3.9,1.6
		s-1.8,2.5-2.4,4.3c-0.6,1.7-1,3.7-1.2,5.8c-0.2,2.1-0.3,4.2-0.3,6.3c0,2.1,0.1,4.3,0.3,6.5c0.2,2.2,0.6,4.2,1.2,6
		c0.6,1.8,1.4,3.3,2.4,4.4c1,1.1,2.3,1.7,3.9,1.7s2.9-0.6,4-1.7c1.1-1.1,1.9-2.6,2.4-4.4c0.5-1.8,0.9-3.8,1.1-6
		c0.2-2.2,0.3-4.4,0.3-6.5c0-2-0.1-4.1-0.3-6.3c-0.2-2.1-0.6-4.1-1.1-5.8s-1.3-3.2-2.4-4.3S-655.2,434.8-656.8,434.8z"/>
	<path class="st5" d="M-744.5,502.9v29.4h-5.4v-29.4H-744.5z"/>
	<path class="st5" d="M-738.5,526.4c1.7,1,4.4,1.9,7.1,1.9c3.4,0,5.4-1.6,5.4-4c0-2.2-1.5-3.5-5.2-4.9c-4.8-1.7-7.9-4.3-7.9-8.5
		c0-4.8,4-8.5,10.4-8.5c3.2,0,5.5,0.7,7.1,1.5l-1.3,4.3c-1-0.6-3.1-1.4-5.8-1.4c-3.4,0-4.9,1.8-4.9,3.5c0,2.3,1.7,3.3,5.6,4.8
		c5.1,1.9,7.6,4.5,7.6,8.7c0,4.7-3.6,8.8-11.2,8.8c-3.1,0-6.3-0.9-7.9-1.8L-738.5,526.4z"/>
	<path class="st5" d="M-702.8,507.4h-8.4v-4.5h22.2v4.5h-8.5v24.9h-5.4V507.4z"/>
	<path class="st5" d="M-680.2,502.9v11.8h12.4v-11.8h5.4v29.4h-5.4v-12.9h-12.4v12.9h-5.4v-29.4H-680.2z"/>
	<path class="st5" d="M-639.8,519.3h-11.1v8.6h12.4v4.4h-17.7v-29.4h17.1v4.4h-11.7v7.6h11.1V519.3z"/>
	<path class="st5" d="M-745.5,560.8c-0.2-3.8-0.4-8.4-0.3-12.3h-0.1c-1,3.6-2.2,7.5-3.5,11.2l-4.3,12.7h-4.1l-3.9-12.6
		c-1.1-3.7-2.2-7.8-3-11.4h-0.1c-0.1,3.8-0.3,8.5-0.5,12.5l-0.7,11.8h-5l2-29.4h7.1l3.8,11.8c1,3.4,2,6.9,2.7,10.2h0.1
		c0.8-3.2,1.8-6.8,2.9-10.2l4.1-11.8h7l1.7,29.4h-5.2L-745.5,560.8z"/>
	<path class="st5" d="M-717.9,559.7h-11.1v8.6h12.4v4.4h-17.7v-29.4h17.1v4.4h-11.7v7.6h11.1V559.7z"/>
	<path class="st5" d="M-711.8,543.8c2.4-0.4,5.4-0.6,8.5-0.6c5.5,0,9.3,1.1,12,3.4c2.8,2.3,4.6,5.8,4.6,10.8c0,5.2-1.8,9.2-4.6,11.7
		c-2.9,2.7-7.6,4-13.3,4c-3.1,0-5.5-0.2-7.2-0.4V543.8z M-706.5,568.7c0.7,0.1,1.9,0.1,3,0.1c7,0,11.1-3.8,11.1-11.2
		c0-6.5-3.7-10.2-10.4-10.2c-1.7,0-2.9,0.1-3.7,0.3V568.7z"/>
	<path class="st5" d="M-676.7,543.4v29.4h-5.4v-29.4H-676.7z"/>
	<path class="st5" d="M-664.7,564.5l-2.5,8.3h-5.5l9.4-29.4h6.8l9.5,29.4h-5.8l-2.7-8.3H-664.7z M-656.3,560.4l-2.3-7.2
		c-0.6-1.8-1-3.8-1.5-5.5h-0.1c-0.4,1.7-0.9,3.7-1.4,5.5l-2.3,7.2H-656.3z"/>
	<path class="st5" d="M-642.8,572.8v-29.4h6.1l7.6,12.6c2,3.3,3.7,6.7,5,9.9h0.1c-0.3-3.9-0.5-7.7-0.5-12.2v-10.2h5v29.4h-5.5
		l-7.7-12.9c-1.9-3.2-3.8-6.8-5.3-10.2l-0.1,0c0.2,3.8,0.3,7.7,0.3,12.5v10.5H-642.8z"/>
	<path class="st5" d="M-725.1,604.9l-2.5,8.3h-5.5l9.4-29.4h6.8l9.5,29.4h-5.8l-2.7-8.3H-725.1z M-716.7,600.9l-2.3-7.2
		c-0.6-1.8-1-3.8-1.5-5.5h-0.1c-0.4,1.7-0.9,3.7-1.4,5.5l-2.3,7.2H-716.7z"/>
	<path class="st5" d="M-680.7,611.9c-1.9,0.7-5.5,1.7-9.5,1.7c-5,0-8.7-1.3-11.5-3.9c-2.6-2.5-4.1-6.4-4.1-10.8
		c0-9.3,6.6-15.3,16.3-15.3c3.6,0,6.5,0.7,7.8,1.4l-1.2,4.3c-1.6-0.7-3.6-1.3-6.7-1.3c-6.3,0-10.7,3.7-10.7,10.5
		c0,6.7,4.1,10.6,10.2,10.6c1.9,0,3.4-0.3,4.1-0.6v-7.3h-5.2V597h10.4V611.9z"/>
	<path class="st5" d="M-658.7,600.2h-11.1v8.6h12.4v4.4h-17.7v-29.4h17.1v4.4h-11.7v7.6h11.1V600.2z"/>
</g>
</svg>
