<?xml version="1.0" encoding="utf-8"?>
<!-- Generator: Adobe Illustrator 19.0.0, SVG Export Plug-In . SVG Version: 6.00 Build 0)  -->
<svg version="1.1" id="Layer_1" xmlns="http://www.w3.org/2000/svg" xmlns:xlink="http://www.w3.org/1999/xlink" x="0px" y="0px"
	 viewBox="-827 349.5 264.1 383.5" style="enable-background:new -827 349.5 264.1 383.5;" xml:space="preserve">
<style type="text/css">
	.st0{fill:#8B5E3C;}
	.st1{fill:#A97C50;}
	.st2{fill:#414042;}
	.st3{fill:#009444;}
	.st4{fill:#603913;}
	.st5{fill:#FFFFFF;}
	.st6{font-family:'AvenirNext-Heavy';}
	.st7{font-size:37.108px;}
	.st8{font-family:'MyriadPro-Semibold';}
	.st9{font-size:14.8432px;}
</style>
<g id="XMLID_4_">
	<g id="XMLID_3_">
		<rect x="-797.1" y="652" class="st0" width="28.5" height="81"/>
	</g>
	<g id="XMLID_6_">
		<rect x="-617.4" y="652" class="st0" width="28.5" height="81"/>
	</g>
</g>
<g id="XMLID_1_">
	<path id="XMLID_73_" class="st1" d="M-585.1,665.5h-219.6c-6.8,0-12.3-5.5-12.3-12.3V371.8c0-6.8,5.5-12.3,12.3-12.3h219.6
		c6.8,0,12.3,5.5,12.3,12.3v281.5C-572.9,660-578.3,665.5-585.1,665.5z"/>
	<path id="XMLID_76_" class="st2" d="M-585.1,675.5h-219.6c-12.3,0-22.3-10-22.3-22.3V371.8c0-12.3,10-22.3,22.3-22.3h219.6
		c12.3,0,22.3,10,22.3,22.3v281.5C-562.9,665.5-572.8,675.5-585.1,675.5z M-804.7,369.5c-1.3,0-2.3,1-2.3,2.3v281.5
		c0,1.2,1,2.3,2.3,2.3h219.6c1.2,0,2.3-1,2.3-2.3V371.8c0-1.2-1-2.3-2.3-2.3H-804.7z"/>
</g>
<g id="XMLID_20_">
	<rect x="-803.9" y="714.1" class="st3" width="41.3" height="18.9"/>
</g>
<g id="XMLID_22_">
	<rect x="-623.8" y="714.1" class="st3" width="41.3" height="18.9"/>
</g>
<g id="XMLID_23_">
	<polygon class="st4" points="-797.1,675.6 -768.6,675.6 -768.6,696.2 	"/>
</g>
<g id="XMLID_24_">
	<polygon class="st4" points="-617.4,675.5 -588.9,675.5 -588.9,696.2 	"/>
</g>
<g>
	<text transform="matrix(1 0 0 1 -727.5548 458.4351)"><tspan x="0" y="0" class="st5 st6 st7">2.6</tspan><tspan x="-10.3" y="13.8" class="st5 st8 st9">NEWCOMERS</tspan><tspan x="9.2" y="27.6" class="st5 st8 st9">ARRIVE</tspan></text>
	<text transform="matrix(1 0 0 1 -720.8756 534.2546)"><tspan x="0" y="0" class="st5 st6 st7">13</tspan><tspan x="-8.8" y="13.8" class="st5 st8 st9">MIGRANTS</tspan><tspan x="2.6" y="27.6" class="st5 st8 st9">ARRIVE</tspan></text>
	<text transform="matrix(1 0 0 1 -714.567 610.0738)"><tspan x="0" y="0" class="st5 st6 st7">.8</tspan><tspan x="-5.2" y="13.8" class="st5 st8 st9">PEOPLE</tspan><tspan x="8.8" y="27.6" class="st5 st8 st9">DIE</tspan></text>
	<text transform="matrix(1 0 0 1 -788.4103 414.926)" class="st5 st6 st7">Each Year</text>
</g>
</svg>
