<?xml version="1.0" encoding="utf-8"?>
<!-- Generator: Adobe Illustrator 19.0.0, SVG Export Plug-In . SVG Version: 6.00 Build 0)  -->
<svg version="1.1" id="Layer_1" xmlns="http://www.w3.org/2000/svg" xmlns:xlink="http://www.w3.org/1999/xlink" x="0px" y="0px"
	 viewBox="0 0 47.4 70.4" style="enable-background:new 0 0 47.4 70.4;" xml:space="preserve">
<style type="text/css">
	.st0{fill:#B6D1CD;}
	.st1{fill:#E07027;}
</style>
<path id="FzwL0B_2_" class="st0" d="M25,45.8c-0.2,0.4-0.3,0.7-0.5,0.9c-1.4,2.9-2.9,5.9-4.3,8.8c-0.8,1.7-2.1,2.5-4,2.5
	C12.1,58,8,58,3.8,57.9c-2.7,0-4.4-2.1-3.7-4.5c0.4-1.4,1.7-2.5,3.2-2.6c3.2-0.2,6.4-0.4,9.7-0.5c0.6,0,0.8-0.2,1-0.8
	c1.1-3.3,2.2-6.7,3.3-10c0.1-0.4,0.2-0.8,0.1-1.1c-0.2-4.7-0.4-9.4-0.6-14.1c0-0.8-0.3-1.4-0.8-2C11.6,17.2,7.1,12,2.6,6.8
	C1.9,6,1.4,5.2,1.6,4.1c0.2-1.2,0.8-2.1,2-2.5c1.2-0.4,2.3-0.1,3.1,0.7c1.7,1.7,3.3,3.3,4.9,5c3.1,3.1,6.2,6.3,9.3,9.3
	c0.3,0.3,0.9,0.5,1.3,0.6c1.5,0.1,2.9,0.1,4.4,0c0.5,0,1.1-0.3,1.5-0.6c4.7-4.7,9.4-9.4,14-14.1c1.7-1.7,4.4-1.2,5.1,1.1
	c0.3,1.2,0,2.2-0.8,3.1c-4.5,5.1-8.9,10.3-13.4,15.4c-0.5,0.6-0.8,1.2-0.9,2.1c-0.2,4.7-0.5,9.4-0.7,14c0,0.6,0.2,1.2,0.4,1.7
	c2.2,3.8,4.4,7.7,6.6,11.5c0.6,1,0.8,2.1,0.5,3.3c-1.1,4.3-2.1,8.6-3.1,12.9c-0.5,2.1-2.3,3.2-4.3,2.7c-1.9-0.4-3-2.3-2.7-4.3
	c0.6-3.5,1.2-7,1.8-10.5c0.1-0.5-0.1-1.2-0.4-1.7C28.8,51.1,26.9,48.5,25,45.8z M24.8,0c-4,0-7.2,3-7.2,6.9c0,3.9,3,7.1,6.9,7.2
	c4.1,0,7.2-3,7.2-7C31.6,3.2,28.5,0,24.8,0z"/>
<g>
	<path class="st1" d="M30.8,54.3c0.1,0.4,0.2,0.9,0.2,1.2c-0.5,3.5-1.2,7-1.8,10.5c-0.4,2.1,0.8,3.9,2.7,4.3c2,0.4,3.8-0.7,4.3-2.7
		c1-4.3,2.1-8.6,3.1-12.9c0-0.1,0-0.3,0.1-0.4H30.8z"/>
	<path class="st1" d="M3.8,57.9C8,58,12.1,58,16.2,58c1.9,0,3.2-0.8,4-2.5c0.2-0.4,0.4-0.9,0.6-1.3H0C-0.1,56.3,1.5,57.9,3.8,57.9z"
		/>
</g>
</svg>
