<?xml version="1.0" encoding="utf-8"?>
<!-- Generator: Adobe Illustrator 19.0.0, SVG Export Plug-In . SVG Version: 6.00 Build 0)  -->
<svg version="1.1" id="Layer_1" xmlns="http://www.w3.org/2000/svg" xmlns:xlink="http://www.w3.org/1999/xlink" x="0px" y="0px"
	 viewBox="0 0 264.1 383.5" style="enable-background:new 0 0 264.1 383.5;" xml:space="preserve">
<style type="text/css">
	.st0{fill:#8B5E3C;}
	.st1{fill:#A97C50;}
	.st2{fill:#414042;}
	.st3{fill:#009444;}
	.st4{fill:#603913;}
	.st5{fill:#FFFFFF;}
	.st6{opacity:0.3;}
	.st7{fill:#FBB040;}
</style>
<g id="XMLID_4_">
	<g id="XMLID_3_">
		<g>
			<rect x="29.9" y="302.5" class="st0" width="28.5" height="81"/>
		</g>
	</g>
	<g id="XMLID_6_">
		<g>
			<rect x="209.6" y="302.5" class="st0" width="28.5" height="81"/>
		</g>
	</g>
</g>
<g id="XMLID_1_">
	<g id="XMLID_73_">
		<path class="st1" d="M241.9,316H22.3c-6.8,0-12.3-5.5-12.3-12.3V22.3C10,15.5,15.5,10,22.3,10h219.6c6.8,0,12.3,5.5,12.3,12.3
			v281.5C254.1,310.5,248.7,316,241.9,316z"/>
	</g>
	<g id="XMLID_76_">
		<path class="st2" d="M241.9,326H22.3C10,326,0,316,0,303.7V22.3C0,10,10,0,22.3,0h219.6c12.3,0,22.3,10,22.3,22.3v281.5
			C264.1,316,254.2,326,241.9,326z M22.3,20C21,20,20,21,20,22.3v281.5c0,1.2,1,2.3,2.3,2.3h219.6c1.2,0,2.3-1,2.3-2.3V22.3
			c0-1.2-1-2.3-2.3-2.3H22.3z"/>
	</g>
</g>
<g id="XMLID_20_">
	<g>
		<rect x="23.1" y="364.6" class="st3" width="41.3" height="18.9"/>
	</g>
</g>
<g id="XMLID_22_">
	<g>
		<rect x="203.2" y="364.6" class="st3" width="41.3" height="18.9"/>
	</g>
</g>
<g id="XMLID_23_">
	<g>
		<polygon class="st4" points="29.9,326.1 58.4,326.1 58.4,346.7 		"/>
	</g>
</g>
<g id="XMLID_24_">
	<g>
		<polygon class="st4" points="209.6,326 238.1,326 238.1,346.7 		"/>
	</g>
</g>
<g id="XMLID_258_">
	<g id="XMLID_13_">
		<path id="XMLID_87_" class="st5" d="M50.4,240.9l21.1-16.1c5.2-4.1,7.2-6.8,7.2-10.1c0-3.5-2.5-5.7-6.3-5.7
			c-3.8,0-6.8,2.2-11.2,7.2l-10.6-8.8c6-7.8,12-12.1,23-12.1c12.3,0,20.8,7.3,20.8,18v0.2c0,9-4.7,13.7-13,19.7l-9.7,6.8H95v12.7
			H50.4V240.9z"/>
		<path id="XMLID_89_" class="st5" d="M97.5,244.9l8.9-10.5c4.6,3.9,8.9,6.1,13.7,6.1c5.2,0,8.3-2.6,8.3-6.6v-0.2
			c0-4-3.4-6.5-8.3-6.5c-3.5,0-6.4,1.2-9,2.8l-9.3-5.2l1.6-28.6h37.7v12.9h-25.4l-0.5,8.5c2.6-1.2,5.2-2,9-2
			c10.1,0,19.3,5.6,19.3,17.9v0.2c0,12.6-9.6,20.1-23.3,20.1C110.4,253.8,103.4,250.3,97.5,244.9z"/>
		<path id="XMLID_91_" class="st5" d="M148.2,237h15.9v15.7h-15.9V237z"/>
		<path id="XMLID_93_" class="st5" d="M168.2,240.9l21.1-16.1c5.2-4.1,7.2-6.8,7.2-10.1c0-3.5-2.5-5.7-6.3-5.7
			c-3.8,0-6.8,2.2-11.2,7.2l-10.6-8.8c6-7.8,12-12.1,23-12.1c12.3,0,20.8,7.3,20.8,18v0.2c0,9-4.7,13.7-13,19.7l-9.7,6.8h23.3v12.7
			h-44.6V240.9z"/>
	</g>
	<g id="XMLID_259_">
		<path id="XMLID_10_" class="st5" d="M48.7,259.7h2.9c2.5,0,4.2,1.7,4.2,3.9v0c0,2.2-1.7,3.9-4.2,3.9h-2.9V259.7z M51.6,266.3
			c1.6,0,2.7-1.1,2.7-2.6v0c0-1.5-1.1-2.7-2.7-2.7h-1.5v5.3H51.6z"/>
		<path id="XMLID_28_" class="st5" d="M57.1,263.7L57.1,263.7c0-2.2,1.7-4.1,4.1-4.1s4.1,1.8,4.1,4v0c0,2.2-1.7,4-4.1,4
			S57.1,265.9,57.1,263.7z M63.9,263.7L63.9,263.7c0-1.5-1.1-2.8-2.7-2.8s-2.6,1.2-2.6,2.8v0c0,1.5,1.1,2.8,2.7,2.8
			S63.9,265.2,63.9,263.7z"/>
		<path id="XMLID_31_" class="st5" d="M67,259.7h1.3l4.2,5.4v-5.4h1.4v7.8h-1.2l-4.3-5.6v5.6H67V259.7z"/>
		<path id="XMLID_33_" class="st5" d="M75.2,262.3c0.7-0.1,1-0.5,1-1.1h-0.6v-1.5h1.5v1.3c0,1.2-0.6,1.8-1.7,1.9L75.2,262.3z"/>
		<path id="XMLID_35_" class="st5" d="M80.7,261h-2.5v-1.3h6.4v1.3h-2.5v6.6h-1.4V261z"/>
		<path id="XMLID_37_" class="st5" d="M89.4,259.7h3.1c1.8,0,3,1,3,2.6v0c0,1.8-1.4,2.7-3.1,2.7h-1.6v2.5h-1.4V259.7z M92.4,263.8
			c1,0,1.7-0.6,1.7-1.4v0c0-0.9-0.7-1.4-1.7-1.4h-1.6v2.8H92.4z"/>
		<path id="XMLID_40_" class="st5" d="M96.9,259.7h3.5c1,0,1.8,0.3,2.3,0.8c0.4,0.4,0.6,1,0.6,1.7v0c0,1.3-0.8,2.1-1.9,2.4l2.1,3
			h-1.6l-1.9-2.7h-1.7v2.7h-1.4V259.7z M100.3,263.6c1,0,1.6-0.5,1.6-1.3v0c0-0.8-0.6-1.3-1.6-1.3h-2v2.6H100.3z"/>
		<path id="XMLID_44_" class="st5" d="M107.7,259.7h1.3l3.4,7.9H111l-0.8-1.9h-3.7l-0.8,1.9h-1.4L107.7,259.7z M109.7,264.4
			l-1.4-3.1l-1.3,3.1H109.7z"/>
		<path id="XMLID_48_" class="st5" d="M113,263.7L113,263.7c0-2.2,1.7-4.1,4-4.1c1.4,0,2.3,0.5,3.1,1.2l-0.9,1c-0.6-0.6-1.3-1-2.2-1
			c-1.5,0-2.6,1.2-2.6,2.8v0c0,1.5,1.1,2.8,2.6,2.8c1,0,1.6-0.4,2.2-1l0.9,0.9c-0.8,0.8-1.7,1.4-3.2,1.4
			C114.7,267.7,113,265.9,113,263.7z"/>
		<path id="XMLID_51_" class="st5" d="M123.5,261H121v-1.3h6.4v1.3h-2.5v6.6h-1.4V261z"/>
		<path id="XMLID_54_" class="st5" d="M128.9,259.7h1.4v7.8h-1.4V259.7z"/>
		<path id="XMLID_57_" class="st5" d="M132,263.7L132,263.7c0-2.2,1.7-4.1,4-4.1c1.4,0,2.3,0.5,3.1,1.2l-0.9,1c-0.6-0.6-1.3-1-2.2-1
			c-1.5,0-2.6,1.2-2.6,2.8v0c0,1.5,1.1,2.8,2.6,2.8c1,0,1.6-0.4,2.2-1l0.9,0.9c-0.8,0.8-1.7,1.4-3.2,1.4
			C133.7,267.7,132,265.9,132,263.7z"/>
		<path id="XMLID_60_" class="st5" d="M140.6,259.7h5.8v1.2H142v2h3.9v1.2H142v2.1h4.5v1.2h-5.9V259.7z"/>
		<path id="XMLID_63_" class="st5" d="M154.2,259.7h1.3l3.4,7.9h-1.5l-0.8-1.9H153l-0.8,1.9h-1.4L154.2,259.7z M156.2,264.4
			l-1.4-3.1l-1.3,3.1H156.2z"/>
		<path id="XMLID_68_" class="st5" d="M160.3,259.7h1.3l4.2,5.4v-5.4h1.4v7.8H166l-4.3-5.6v5.6h-1.4V259.7z"/>
		<path id="XMLID_71_" class="st5" d="M171.4,264.5l-3.1-4.7h1.6l2.2,3.5l2.2-3.5h1.6l-3.1,4.7v3.1h-1.4V264.5z"/>
		<path id="XMLID_74_" class="st5" d="M180.5,259.7h5.8v1.3h-4.5v2.1h3.9v1.3h-3.9v3.2h-1.4V259.7z"/>
		<path id="XMLID_77_" class="st5" d="M189.7,259.7h1.3l3.4,7.9H193l-0.8-1.9h-3.7l-0.8,1.9h-1.4L189.7,259.7z M191.7,264.4
			l-1.4-3.1l-1.3,3.1H191.7z"/>
		<path id="XMLID_81_" class="st5" d="M195.8,259.7h1.4v7.8h-1.4V259.7z"/>
		<path id="XMLID_83_" class="st5" d="M201.2,261h-2.5v-1.3h6.4v1.3h-2.5v6.6h-1.4V261z"/>
		<path id="XMLID_85_" class="st5" d="M206.6,259.7h1.4v3.3h3.7v-3.3h1.4v7.8h-1.4v-3.3h-3.7v3.3h-1.4V259.7z"/>
	</g>
</g>
<g id="XMLID_9_">
	<g id="XMLID_19_" class="st6">
		<g id="XMLID_21_">
			<path d="M137.1,47.1c-35.7,0-64.7,29-64.7,64.7s29,64.7,64.7,64.7s64.7-29,64.7-64.7S172.8,47.1,137.1,47.1z M137.1,66.6
				c9,0,17.3,2.7,24.4,7.2L99,136.2c-4.5-7-7.2-15.4-7.2-24.4C91.8,86.9,112.1,66.6,137.1,66.6z M137.1,157.2
				c-9,0-17.3-2.7-24.4-7.2l62.5-62.5c4.5,7,7.2,15.4,7.2,24.4C182.4,136.8,162.1,157.2,137.1,157.2z"/>
		</g>
	</g>
	<g id="XMLID_14_">
		<g id="XMLID_15_">
			<path class="st7" d="M132.1,42.1c-35.7,0-64.7,29-64.7,64.7s29,64.7,64.7,64.7s64.7-29,64.7-64.7S167.8,42.1,132.1,42.1z
				 M132.1,61.6c9,0,17.3,2.7,24.4,7.2L94,131.2c-4.5-7-7.2-15.4-7.2-24.4C86.8,81.9,107.1,61.6,132.1,61.6z M132.1,152.2
				c-9,0-17.3-2.7-24.4-7.2l62.5-62.5c4.5,7,7.2,15.4,7.2,24.4C177.4,131.8,157.1,152.2,132.1,152.2z"/>
		</g>
	</g>
</g>
</svg>
