<?xml version="1.0" encoding="utf-8"?>
<!-- Generator: Adobe Illustrator 19.0.0, SVG Export Plug-In . SVG Version: 6.00 Build 0)  -->
<svg version="1.1" id="Layer_1" xmlns="http://www.w3.org/2000/svg" xmlns:xlink="http://www.w3.org/1999/xlink" x="0px" y="0px"
	 viewBox="-755 417.9 408.8 247.1" style="enable-background:new -755 417.9 408.8 247.1;" xml:space="preserve">
<style type="text/css">
	.st0{fill:#00A1C6;}
	.st1{fill:#FFFFFF;}
</style>
<rect x="-755" y="417.9" class="st0" width="408.8" height="247.1"/>
<path class="st1" d="M-554,438.9c-56.5,0-102.5,46-102.5,102.5s46,102.5,102.5,102.5s102.5-46,102.5-102.5S-497.5,438.9-554,438.9z
	 M-512.5,602c-12.3,8.5-26.5,12.9-41.5,12.9c-40.5,0-73.5-33-73.5-73.5c0-15,4.4-29.3,12.9-41.5L-512.5,602z M-593.8,479.7
	c11.9-7.7,25.5-11.7,39.8-11.7c40.5,0,73.5,33,73.5,73.5c0,14.3-4,27.9-11.7,39.8L-593.8,479.7z"/>
</svg>
