<?xml version="1.0" encoding="utf-8"?>
<!-- Generator: Adobe Illustrator 19.0.0, SVG Export Plug-In . SVG Version: 6.00 Build 0)  -->
<svg version="1.1" id="Layer_1" xmlns="http://www.w3.org/2000/svg" xmlns:xlink="http://www.w3.org/1999/xlink" x="0px" y="0px"
	 viewBox="-418 474.7 1081.4 133.3" style="enable-background:new -418 474.7 1081.4 133.3;" xml:space="preserve">
<style type="text/css">
	.st0{fill:#6FA800;}
	.st1{fill:#FFFFFF;}
	.st2{fill:#416300;}
	.st3{fill:#78C100;}
	.st4{enable-background:new    ;}
	.st5{fill:#46B3FF;}
	.st6{fill:#CCCBCB;}
	.st7{fill:#44261B;}
	.st8{fill:#00B5B2;}
	.st9{fill:#CDDD00;}
	.st10{fill:#007977;}
	.st11{fill:#E7E800;}
</style>
<g>
	<polygon id="XMLID_464_" class="st0" points="485.9,1477.2 620.6,1477.2 549.2,1391.5 471.4,1391.5 514.4,1437.6 	"/>
	<path id="XMLID_463_" class="st1" d="M513.7,1465.5c1.6,0,3,1.3,3,3c0,1.6-1.3,3-3,3c-1.6,0-3-1.3-3-3
		C510.9,1466.8,512.1,1465.5,513.7,1465.5L513.7,1465.5z"/>
	<path id="XMLID_462_" class="st1" d="M523.4,1465.5c1.6,0,3,1.3,3,3c0,1.6-1.3,3-3,3c-1.6,0-3-1.3-3-3S521.9,1465.5,523.4,1465.5z"
		/>
	<circle id="XMLID_461_" class="st1" cx="533.1" cy="1468.5" r="3"/>
	<circle id="XMLID_460_" class="st1" cx="542.7" cy="1468.5" r="3"/>
	<path id="XMLID_459_" class="st1" d="M552.4,1465.5c1.6,0,3,1.3,3,3c0,1.6-1.3,3-3,3c-1.6,0-3-1.3-3-3
		C549.5,1466.8,550.9,1465.5,552.4,1465.5z"/>
	<path id="XMLID_458_" class="st1" d="M562.1,1465.5c1.6,0,3,1.3,3,3c0,1.6-1.3,3-3,3c-1.6,0-3-1.3-3-3S560.5,1465.5,562.1,1465.5z"
		/>
	<path id="XMLID_457_" class="st1" d="M571.9,1465.5c1.6,0,3,1.3,3,3c0,1.6-1.3,3-3,3c-1.6,0-3-1.3-3-3S570.1,1465.5,571.9,1465.5z"
		/>
	<path id="XMLID_456_" class="st1" d="M581.5,1465.5c1.6,0,3,1.3,3,3c0,1.6-1.3,3-3,3s-3-1.3-3-3S579.9,1465.5,581.5,1465.5z"/>
	<path id="XMLID_455_" class="st1" d="M591.1,1465.5c1.6,0,3,1.3,3,3c0,1.6-1.3,3-3,3c-1.6,0-3-1.3-3-3S589.5,1465.5,591.1,1465.5z"
		/>
	<circle id="XMLID_454_" class="st1" cx="600.9" cy="1468.5" r="3"/>
	<path id="XMLID_443_" class="st1" d="M526.5,1434.2c1.6,0,3,1.3,3,3c0,1.6-1.3,3-3,3c-1.6,0-3-1.3-3-3
		C523.5,1435.5,524.9,1434.2,526.5,1434.2z"/>
	<path id="XMLID_442_" class="st1" d="M521.1,1442c1.6,0,3,1.3,3,3c0,1.6-1.3,3-3,3c-1.6,0-3-1.3-3-3S519.4,1442,521.1,1442z"/>
	<path id="XMLID_441_" class="st1" d="M515.4,1449.8c1.6,0,3,1.3,3,3c0,1.6-1.3,3-3,3c-1.6,0-3-1.3-3-3S513.9,1449.8,515.4,1449.8z"
		/>
	<path id="XMLID_440_" class="st1" d="M509.7,1457.6c1.6,0,3,1.3,3,3c0,1.6-1.3,3-3,3c-1.6,0-3-1.3-3-3
		C506.9,1459,508.1,1457.6,509.7,1457.6z"/>
	<path id="XMLID_438_" class="st1" d="M504.1,1465.5c1.6,0,3,1.3,3,3c0,1.6-1.3,3-3,3c-1.6,0-3-1.3-3-3S502.4,1465.5,504.1,1465.5z"
		/>
	<polygon id="XMLID_437_" class="st2" points="620.6,1477.2 601.2,1451.8 559.2,1451.7 554.5,1453.7 	"/>
	<path id="XMLID_10_" class="st1" d="M539.7,1396.6c1.6,0,3,1.3,3,3c0,1.6-1.3,3-3,3c-1.6,0-3-1.3-3-3
		C536.7,1398,538,1396.6,539.7,1396.6z"/>
	<path id="XMLID_9_" class="st1" d="M530,1396.6c1.6,0,3,1.3,3,3c0,1.6-1.3,3-3,3s-3-1.3-3-3C527,1398,528.5,1396.6,530,1396.6z"/>
	<circle id="XMLID_8_" class="st1" cx="520.3" cy="1399.6" r="3"/>
	<path id="XMLID_7_" class="st1" d="M510.7,1396.6c1.6,0,3,1.3,3,3c0,1.6-1.3,3-3,3c-1.6,0-3-1.3-3-3
		C507.7,1398,509,1396.6,510.7,1396.6z"/>
	<path id="XMLID_6_" class="st1" d="M501,1396.6c1.6,0,3,1.3,3,3c0,1.6-1.3,3-3,3c-1.6,0-3-1.3-3-3
		C498,1398,499.5,1396.6,501,1396.6z"/>
	<path id="XMLID_5_" class="st1" d="M491.1,1396.6c1.6,0,3,1.3,3,3c0,1.6-1.3,3-3,3c-1.6,0-3-1.3-3-3
		C488.1,1398,489.5,1396.6,491.1,1396.6z"/>
	<path id="XMLID_4_" class="st1" d="M497.7,1404.4c1.6,0,3,1.3,3,3c0,1.6-1.3,3-3,3c-1.6,0-3-1.3-3-3S496,1404.4,497.7,1404.4z"/>
	<path id="XMLID_3_" class="st1" d="M504.3,1411.5c1.6,0,3,1.3,3,3c0,1.6-1.3,3-3,3c-1.6,0-3-1.3-3-3S502.6,1411.5,504.3,1411.5z"/>
	<path id="XMLID_2_" class="st1" d="M510.9,1418.5c1.6,0,3,1.3,3,3c0,1.6-1.3,3-3,3c-1.6,0-3-1.3-3-3
		C507.9,1419.9,509.2,1418.5,510.9,1418.5z"/>
	<circle id="XMLID_1_" class="st1" cx="517.5" cy="1428.6" r="3"/>
</g>
<path id="XMLID_465_" class="st3" d="M1026.8,1358.2l120.3,33.7l-148.6,58.8L1026.8,1358.2 M1025.7,1356.1l-29.9,97.6l156.8-62
	L1025.7,1356.1L1025.7,1356.1z"/>
<circle id="XMLID_439_" class="st1" cx="1010" cy="1401.1" r="3"/>
<path id="XMLID_436_" class="st3" d="M554.8,1453.7c243.3,0,199.3,0,442.7,0l29.9-97.6c-263.2,0-239.2,0-502.4,0L554.8,1453.7z"/>
<path id="XMLID_273_" class="st1" d="M1008.8,1382.6c1.6,0,3,1.3,3,3c0,1.6-1.3,3-3,3c-1.6,0-3-1.3-3-3
	C1005.9,1383.9,1007.2,1382.6,1008.8,1382.6L1008.8,1382.6z M1005.9,1392.2c1.6,0,3,1.3,3,3c0,1.6-1.3,3-3,3c-1.6,0-3-1.3-3-3
	C1002.9,1393.6,1004.2,1392.2,1005.9,1392.2z M1002.9,1401.9c1.6,0,3,1.3,3,3c0,1.6-1.3,3-3,3s-3-1.3-3-3
	C1000,1403.2,1001.3,1401.9,1002.9,1401.9z M1000,1411.6c1.7,0,3,1.3,3,3c0,1.6-1.3,3-3,3c-1.6,0-3-1.3-3-3
	C997,1412.9,998.3,1411.6,1000,1411.6z M997,1421.2c1.6,0,3,1.3,3,3c0,1.6-1.3,3-3,3c-1.6,0-3-1.3-3-3
	C994,1422.6,995.4,1421.2,997,1421.2z M993.8,1431.8c1.6,0,3,1.3,3,3c0,1.6-1.3,3-3,3c-1.6,0-3-1.3-3-3S992.1,1431.8,993.8,1431.8z
	 M733.7,1362.3c1.8,0,3,1.3,3,3c0,1.6-1.2,3-3,3c-1.6,0-2.9-1.3-2.9-3C730.9,1363.6,732.1,1362.3,733.7,1362.3z M743.9,1362.3
	c1.7,0,3,1.3,3,3c0,1.6-1.3,3-3,3s-3-1.3-3-3C740.9,1363.6,742.3,1362.3,743.9,1362.3z M754,1362.3c1.7,0,3,1.3,3,3c0,1.6-1.3,3-3,3
	c-1.6,0-3-1.3-3-3C751.1,1363.6,752.4,1362.3,754,1362.3z M764.1,1362.3c1.7,0,3,1.3,3,3c0,1.6-1.4,3-3,3s-2.9-1.3-2.9-3
	C761.2,1363.6,762.5,1362.3,764.1,1362.3z M774.3,1362.3c1.7,0,2.9,1.3,2.9,3c0,1.6-1.3,3-2.9,3s-3-1.3-3-3
	C771.3,1363.6,772.6,1362.3,774.3,1362.3z M784.3,1362.3c1.7,0,3,1.3,3,3c0,1.6-1.4,3-3,3c-1.7,0-2.9-1.3-2.9-3
	S782.7,1362.3,784.3,1362.3z M794.5,1362.3c1.7,0,2.9,1.3,2.9,3c0,1.6-1.3,3-2.9,3c-1.7,0-3-1.3-3-3
	C791.5,1363.6,792.8,1362.3,794.5,1362.3z M804.6,1362.3c1.6,0,2.9,1.3,2.9,3c0,1.6-1.4,3-2.9,3c-1.7,0-3-1.3-3-3
	C801.6,1363.6,803,1362.3,804.6,1362.3z M814.6,1362.3c1.7,0,3.1,1.3,3.1,3c0,1.6-1.4,3-3.1,3c-1.6,0-2.9-1.3-2.9-3
	C811.7,1363.6,813,1362.3,814.6,1362.3z M824.8,1362.3c1.6,0,3,1.3,3,3c0,1.6-1.4,3-3,3s-3-1.3-3-3
	C821.8,1363.6,823.2,1362.3,824.8,1362.3z M834.9,1362.3c1.7,0,3,1.3,3,3c0,1.6-1.4,3-3,3c-1.7,0-2.9-1.3-2.9-3
	C832,1363.6,833.2,1362.3,834.9,1362.3z M845,1362.3c1.6,0,2.9,1.3,2.9,3c0,1.6-1.3,3-2.9,3c-1.7,0-3-1.3-3-3
	C842,1363.6,843.4,1362.3,845,1362.3z M855.1,1362.3c1.7,0,3,1.3,3,3c0,1.6-1.4,3-3,3c-1.7,0-2.9-1.3-2.9-3
	C852.2,1363.6,853.4,1362.3,855.1,1362.3z M865.2,1362.3c1.7,0,2.9,1.3,2.9,3c0,1.6-1.3,3-2.9,3c-1.7,0-3-1.3-3-3
	C862.2,1363.6,863.6,1362.3,865.2,1362.3z M875.3,1362.3c1.7,0,3.1,1.3,3.1,3c0,1.6-1.4,3-3.1,3c-1.6,0-2.9-1.3-2.9-3
	C872.4,1363.6,873.6,1362.3,875.3,1362.3z M885.4,1362.3c1.6,0,3,1.3,3,3c0,1.6-1.3,3-3,3c-1.6,0-3-1.3-3-3
	C882.4,1363.6,883.8,1362.3,885.4,1362.3z M895.5,1362.3c1.7,0,3,1.3,3,3c0,1.6-1.4,3-3,3c-1.7,0-2.9-1.3-2.9-3
	C892.6,1363.6,893.8,1362.3,895.5,1362.3z M905.6,1362.3c1.6,0,2.9,1.3,2.9,3c0,1.6-1.3,3-2.9,3c-1.7,0-3-1.3-3-3
	C902.6,1363.6,904,1362.3,905.6,1362.3z M915.7,1362.3c1.7,0,3,1.3,3,3c0,1.6-1.3,3-3,3s-2.9-1.3-2.9-3
	C912.8,1363.6,914,1362.3,915.7,1362.3z M925.8,1362.3c1.7,0,3,1.3,3,3c0,1.6-1.4,3-3,3s-3-1.3-3-3
	C922.8,1363.6,924.2,1362.3,925.8,1362.3z M936,1362.3c1.7,0,3,1.3,3,3c0,1.6-1.3,3-3,3c-1.6,0-3-1.3-3-3
	C933,1363.6,934.3,1362.3,936,1362.3z M946,1362.3c1.6,0,3.1,1.3,3.1,3c0,1.6-1.4,3-3.1,3c-1.6,0-3-1.3-3-3
	C943.1,1363.6,944.4,1362.3,946,1362.3z M956.2,1362.3c1.6,0,3,1.3,3,3c0,1.6-1.4,3-3,3s-3-1.3-3-3
	C953.2,1363.6,954.5,1362.3,956.2,1362.3z M966.3,1362.3c1.6,0,3,1.3,3,3c0,1.6-1.4,3-3,3c-1.7,0-2.9-1.3-2.9-3
	C963.3,1363.6,964.6,1362.3,966.3,1362.3z M976.4,1362.3c1.7,0,3,1.3,3,3c0,1.6-1.3,3-3,3c-1.6,0-3-1.3-3-3
	C973.4,1363.6,974.8,1362.3,976.4,1362.3z M986.4,1362.3c1.7,0,3.1,1.3,3.1,3c0,1.6-1.4,3-3.1,3c-1.5,0-2.9-1.3-2.9-3
	C983.5,1363.6,984.9,1362.3,986.4,1362.3z M996.6,1362.3c1.7,0,3,1.3,3,3c0,1.6-1.4,3-3,3s-3-1.3-3-3
	C993.6,1363.6,994.9,1362.3,996.6,1362.3z M1006.7,1362.3c1.7,0,3,1.3,3,3c0,1.6-1.3,3-3,3c-1.6,0-3-1.3-3-3
	C1003.7,1363.6,1005.1,1362.3,1006.7,1362.3z M1015.5,1362.3c1.6,0,2.9,1.3,2.9,3c0,1.6-1.3,3-2.9,3s-3-1.3-3-3
	C1012.5,1363.6,1013.9,1362.3,1015.5,1362.3z M981,1441.6c-1.6,0-3,1.3-3,3c0,1.6,1.3,3,3,3c1.6,0,3-1.3,3-3
	C984,1443,982.6,1441.6,981,1441.6z M970.9,1441.6c-1.6,0-3,1.3-3,3c0,1.6,1.3,3,3,3s3-1.3,3-3
	C973.9,1443,972.5,1441.6,970.9,1441.6z M960.8,1441.6c-1.6,0-3,1.3-3,3c0,1.6,1.3,3,3,3c1.6,0,3-1.3,3-3
	C963.8,1443,962.4,1441.6,960.8,1441.6z M950.7,1441.6c-1.6,0-3,1.3-3,3c0,1.6,1.3,3,3,3c1.6,0,3-1.3,3-3
	C953.6,1443,952.3,1441.6,950.7,1441.6z M940.6,1441.6c-1.6,0-3,1.3-3,3c0,1.6,1.3,3,3,3c1.6,0,3-1.3,3-3
	C943.5,1443,942.2,1441.6,940.6,1441.6z M930.5,1441.6c-1.6,0-3,1.3-3,3c0,1.6,1.3,3,3,3c1.6,0,3-1.3,3-3
	C933.4,1443,932.1,1441.6,930.5,1441.6z M920.4,1441.6c-1.6,0-3,1.3-3,3c0,1.6,1.3,3,3,3c1.6,0,3-1.3,3-3
	C923.3,1443,922,1441.6,920.4,1441.6z M910.2,1441.6c-1.6,0-3,1.3-3,3c0,1.6,1.3,3,3,3c1.6,0,3-1.3,3-3
	C913.2,1443,911.9,1441.6,910.2,1441.6z M900.1,1441.6c-1.6,0-3,1.3-3,3c0,1.6,1.3,3,3,3c1.6,0,3-1.3,3-3
	C903.1,1443,901.8,1441.6,900.1,1441.6z M890,1441.6c-1.6,0-3,1.3-3,3c0,1.6,1.3,3,3,3c1.6,0,3-1.3,3-3
	C893,1443,891.7,1441.6,890,1441.6z M879.9,1441.6c-1.6,0-3,1.3-3,3c0,1.6,1.3,3,3,3c1.6,0,3-1.3,3-3
	C882.9,1443,881.6,1441.6,879.9,1441.6z M869.8,1441.6c-1.6,0-3,1.3-3,3c0,1.6,1.3,3,3,3c1.6,0,3-1.3,3-3
	C872.8,1443,871.5,1441.6,869.8,1441.6z M859.7,1441.6c-1.6,0-3,1.3-3,3c0,1.6,1.3,3,3,3c1.6,0,3-1.3,3-3
	C862.7,1443,861.4,1441.6,859.7,1441.6z M849.6,1441.6c-1.6,0-3,1.3-3,3c0,1.6,1.3,3,3,3c1.6,0,3-1.3,3-3
	C852.6,1443,851.3,1441.6,849.6,1441.6z M839.5,1441.6c-1.6,0-3,1.3-3,3c0,1.6,1.3,3,3,3c1.6,0,3-1.3,3-3
	C842.5,1443,841.1,1441.6,839.5,1441.6z M829.4,1441.6c-1.6,0-3,1.3-3,3c0,1.6,1.3,3,3,3c1.6,0,3-1.3,3-3
	C832.4,1443,831,1441.6,829.4,1441.6z M819.3,1441.6c-1.6,0-3,1.3-3,3c0,1.6,1.3,3,3,3c1.6,0,3-1.3,3-3
	C822.3,1443,820.9,1441.6,819.3,1441.6z M809.2,1441.6c-1.6,0-3,1.3-3,3c0,1.6,1.3,3,3,3c1.6,0,3-1.3,3-3
	C812.2,1443,810.8,1441.6,809.2,1441.6z M799.1,1441.6c-1.6,0-3,1.3-3,3c0,1.6,1.3,3,3,3c1.6,0,3-1.3,3-3
	C802,1443,800.7,1441.6,799.1,1441.6z M789,1441.6c-1.6,0-3,1.3-3,3c0,1.6,1.3,3,3,3c1.6,0,3-1.3,3-3
	C791.9,1443,790.6,1441.6,789,1441.6z M778.9,1441.6c-1.6,0-3,1.3-3,3c0,1.6,1.3,3,3,3c1.6,0,3-1.3,3-3
	C781.8,1443,780.5,1441.6,778.9,1441.6z M768.8,1441.6c-1.6,0-3,1.3-3,3c0,1.6,1.3,3,3,3c1.6,0,3-1.3,3-3
	C771.7,1443,770.4,1441.6,768.8,1441.6z M758.6,1441.6c-1.6,0-3,1.3-3,3c0,1.6,1.3,3,3,3c1.6,0,3-1.3,3-3
	C761.6,1443,760.3,1441.6,758.6,1441.6z M748.5,1441.6c-1.6,0-3,1.3-3,3c0,1.6,1.3,3,3,3s3-1.3,3-3
	C751.5,1443,750.2,1441.6,748.5,1441.6z M738.4,1441.6c-1.6,0-3,1.3-3,3c0,1.6,1.3,3,3,3c1.6,0,3-1.3,3-3
	C741.4,1443,740.1,1441.6,738.4,1441.6z M990.2,1441.6c-1.6,0-3,1.3-3,3c0,1.6,1.3,3,3,3c1.6,0,3-1.3,3-3
	C993.2,1443,991.8,1441.6,990.2,1441.6z M1012,1372.4c1.6,0,3,1.3,3,3c0,1.6-1.3,3-3,3c-1.6,0-3-1.3-3-3S1010.3,1372.4,1012,1372.4z
	"/>
<circle id="XMLID_272_" class="st1" cx="570.2" cy="1365.2" r="3"/>
<circle id="XMLID_271_" class="st1" cx="560.1" cy="1365.2" r="3"/>
<circle id="XMLID_270_" class="st1" cx="550" cy="1365.2" r="3"/>
<circle id="XMLID_269_" class="st1" cx="539.9" cy="1365.2" r="3"/>
<path id="XMLID_264_" class="st1" d="M597.9,1365.2c0,1.6,1.4,3,3,3s2.9-1.3,2.9-3c0-1.6-1.3-3-2.9-3
	C599.3,1362.3,597.9,1363.6,597.9,1365.2z"/>
<path id="XMLID_263_" class="st1" d="M608,1365.2c0,1.6,1.3,3,3,3c1.6,0,3-1.3,3-3c0-1.6-1.3-3-3-3
	C609.3,1362.3,608,1363.6,608,1365.2z"/>
<path id="XMLID_262_" class="st1" d="M618.1,1365.2c0,1.6,1.4,3,3,3c1.7,0,2.9-1.3,2.9-3c0-1.6-1.3-3-2.9-3
	C619.4,1362.3,618.1,1363.6,618.1,1365.2z"/>
<path id="XMLID_261_" class="st1" d="M628.2,1365.2c0,1.6,1.2,3,2.9,3c1.7,0,3-1.3,3-3c0-1.6-1.3-3-3-3
	C629.5,1362.3,628.2,1363.6,628.2,1365.2z"/>
<path id="XMLID_260_" class="st1" d="M638.3,1365.2c0,1.6,1.3,3,3,3s2.9-1.3,2.9-3c0-1.6-1.2-3-2.9-3
	C639.6,1362.3,638.3,1363.6,638.3,1365.2z"/>
<path id="XMLID_259_" class="st1" d="M648.4,1365.2c0,1.6,1.3,3,2.9,3c1.7,0,3-1.3,3-3c0-1.6-1.3-3-3-3
	C649.7,1362.3,648.4,1363.6,648.4,1365.2z"/>
<path id="XMLID_258_" class="st1" d="M658.5,1365.2c0,1.6,1.4,3,3,3c1.7,0,2.9-1.3,2.9-3c0-1.6-1.3-3-2.9-3
	C659.9,1362.3,658.5,1363.6,658.5,1365.2z"/>
<path id="XMLID_257_" class="st1" d="M668.7,1365.2c0,1.6,1.3,3,2.9,3c1.7,0,3-1.3,3-3c0-1.6-1.3-3-3-3
	C669.9,1362.3,668.7,1363.6,668.7,1365.2z"/>
<path id="XMLID_256_" class="st1" d="M678.7,1365.2c0,1.6,1.3,3,3,3s2.9-1.3,2.9-3c0-1.6-1.3-3-2.9-3
	C680,1362.3,678.7,1363.6,678.7,1365.2z"/>
<path id="XMLID_255_" class="st1" d="M689.5,1365.2c0,1.6,1.3,3,2.9,3c1.7,0,3-1.3,3-3c0-1.6-1.3-3-3-3
	C690.8,1362.3,689.5,1363.6,689.5,1365.2z"/>
<path id="XMLID_254_" class="st1" d="M699.5,1365.2c0,1.6,1.4,3,3,3c1.7,0,2.9-1.3,2.9-3c0-1.6-1.3-3-2.9-3
	C700.9,1362.3,699.5,1363.6,699.5,1365.2z"/>
<path id="XMLID_253_" class="st1" d="M709.7,1365.2c0,1.6,1.3,3,2.9,3c1.7,0,3-1.3,3-3c0-1.6-1.3-3-3-3
	C711,1362.3,709.7,1363.6,709.7,1365.2z"/>
<path id="XMLID_252_" class="st1" d="M719.7,1365.2c0,1.6,1.3,3,3,3s2.9-1.3,2.9-3c0-1.6-1.3-3-2.9-3
	C721.1,1362.3,719.7,1363.6,719.7,1365.2z"/>
<circle id="XMLID_251_" class="st1" cx="590.6" cy="1365.2" r="3"/>
<circle id="XMLID_250_" class="st1" cx="580.3" cy="1365.2" r="3"/>
<circle id="XMLID_249_" class="st1" cx="564.3" cy="1444.6" r="3"/>
<path id="XMLID_241_" class="st1" d="M592,1444.6c0,1.6,1.4,3,3,3s2.9-1.3,2.9-3c0-1.6-1.3-3-2.9-3
	C593.4,1441.6,592,1443,592,1444.6z"/>
<path id="XMLID_240_" class="st1" d="M602.2,1444.6c0,1.6,1.3,3,3,3c1.6,0,3-1.3,3-3c0-1.6-1.3-3-3-3
	C603.4,1441.6,602.2,1443,602.2,1444.6z"/>
<path id="XMLID_239_" class="st1" d="M612.2,1444.6c0,1.6,1.4,3,3,3c1.7,0,2.9-1.3,2.9-3c0-1.6-1.3-3-2.9-3S612.2,1443,612.2,1444.6
	z"/>
<path id="XMLID_238_" class="st1" d="M622.4,1444.6c0,1.6,1.2,3,2.9,3s3-1.3,3-3c0-1.6-1.3-3-3-3
	C623.6,1441.6,622.4,1443,622.4,1444.6z"/>
<path id="XMLID_237_" class="st1" d="M632.4,1444.6c0,1.6,1.3,3,3,3s2.9-1.3,2.9-3c0-1.6-1.2-3-2.9-3
	C633.8,1441.6,632.4,1443,632.4,1444.6z"/>
<path id="XMLID_236_" class="st1" d="M642.6,1444.6c0,1.6,1.3,3,2.9,3c1.7,0,3-1.3,3-3c0-1.6-1.3-3-3-3S642.6,1443,642.6,1444.6z"/>
<path id="XMLID_235_" class="st1" d="M652.6,1444.6c0,1.6,1.4,3,3,3c1.7,0,2.9-1.3,2.9-3c0-1.6-1.3-3-2.9-3S652.6,1443,652.6,1444.6
	z"/>
<path id="XMLID_234_" class="st1" d="M663.1,1444.6c0,1.6,1.3,3,2.9,3c1.7,0,3-1.3,3-3c0-1.6-1.3-3-3-3
	C664.4,1441.6,663.1,1443,663.1,1444.6z"/>
<path id="XMLID_233_" class="st1" d="M673.6,1444.6c0,1.6,1.3,3,3,3s2.9-1.3,2.9-3c0-1.6-1.3-3-2.9-3
	C674.9,1441.6,673.6,1443,673.6,1444.6z"/>
<path id="XMLID_232_" class="st1" d="M684.7,1444.6c0,1.6,1.3,3,3,3s2.9-1.3,2.9-3c0-1.6-1.2-3-2.9-3
	C686,1441.6,684.7,1443,684.7,1444.6z"/>
<path id="XMLID_231_" class="st1" d="M694.8,1444.6c0,1.6,1.3,3,2.9,3c1.7,0,3-1.3,3-3c0-1.6-1.3-3-3-3
	C696.1,1441.6,694.8,1443,694.8,1444.6z"/>
<path id="XMLID_230_" class="st1" d="M704.9,1444.6c0,1.6,1.4,3,3,3c1.7,0,2.9-1.3,2.9-3c0-1.6-1.3-3-2.9-3
	C706.2,1441.6,704.9,1443,704.9,1444.6z"/>
<path id="XMLID_229_" class="st1" d="M715,1444.6c0,1.6,1.3,3,2.9,3c1.7,0,3-1.3,3-3c0-1.6-1.3-3-3-3
	C716.3,1441.6,715,1443,715,1444.6z"/>
<path id="XMLID_228_" class="st1" d="M725.1,1444.6c0,1.6,1.3,3,3,3s2.9-1.3,2.9-3c0-1.6-1.3-3-2.9-3
	C726.4,1441.6,725.1,1443,725.1,1444.6z"/>
<circle id="XMLID_227_" class="st1" cx="584.7" cy="1444.6" r="3"/>
<circle id="XMLID_226_" class="st1" cx="574.4" cy="1444.6" r="3"/>
<text id="XMLID_224_" transform="matrix(1 0 0 1 573.2 1420.0188)" class="st1" style="font-family:'Avenir-Heavy'; font-size:43.1554px; letter-spacing:1;">MOTHER TOUNGE</text>
<g id="XMLID_99_">
	<g id="XMLID_221_">
		<path id="XMLID_223_" class="st5" d="M1314.2,1369c-0.1,5.5,1.1,19.8,1.1,19.8s1.7-14.3,1.8-19.7c0-1.8-0.6-3.2-1.4-3.2
			C1314.9,1365.8,1314.3,1367.3,1314.2,1369z"/>
		<path id="XMLID_222_" class="st5" d="M1316.4,1412.7c0.1-5.5-1.1-19.8-1.1-19.8s-1.7,14.3-1.8,19.7c0,1.8,0.6,3.2,1.4,3.2
			C1315.7,1415.9,1316.3,1414.5,1316.4,1412.7z"/>
	</g>
	<path id="XMLID_220_" class="st6" d="M1305.9,1391.3C1305.9,1391.3,1305.9,1391.2,1305.9,1391.3L1305.9,1391.3
		c-0.1-5.6,0.4-10.4,1.2-10.1c5.9,1.6,10,5.3,10.1,9.8l0,0l0,0l0,0l0,0l0,0l0,0c0.1,4.5-3.9,8.5-9.7,10.3
		C1306.8,1401.6,1306.1,1396.9,1305.9,1391.3L1305.9,1391.3L1305.9,1391.3z"/>
	<path id="XMLID_219_" class="st5" d="M1146.9,1356.4c15.3,0.3,18.5,4.9,25.6,19.9l2.9,5.8c15.2-3,33.1-5.3,54-5.4
		c1.2,0,2.9,0,4.9,0c0,2.7,6.1,6.7,13.7,6.6c7.5,0,13.6-4,13.6-6.7c13.7,0,33.8-0.1,42.2-0.1c2.1,0,3.9,1.7,3.9,3.9v0.8
		c-0.2,0-0.3-0.1-0.5-0.1c-0.8-0.2-1.3,4.5-1.2,10.1l0,0l0,0l0,0l0,0c0.1,5.6,0.9,10.3,1.7,10h0.1v0.5c0,1.4-0.9,3.3-2.1,4
		c-35.7,22.5-134.4-4.3-161.5-12.2c-0.9-0.3-1.6-1.2-1.6-2c0-0.9,0.7-1.7,1.6-2c1.3-0.4,2.7-0.7,4.1-1.1l-3.2-30.1
		C1144.9,1357.3,1145.7,1356.3,1146.9,1356.4z"/>
	<circle id="XMLID_218_" class="st7" cx="1272.9" cy="1428.1" r="11.3"/>
	<circle id="XMLID_217_" class="st6" cx="1272.9" cy="1428.1" r="6.5"/>
	<path id="XMLID_216_" class="st5" d="M1290.5,1425.9c0-9.4-7.7-17.1-17.1-17c-9.4,0-17.1,7.7-17,17.1L1290.5,1425.9z"/>
	<g id="XMLID_214_">
		<path id="XMLID_215_" class="st6" d="M1183.1,1391.6c0,1.5-1.3,2.7-3.6,2.7c-1.7,0-22-1.3-33.6-2.1c-0.5,0-0.8-0.3-0.8-0.5
			c0-0.3,0.4-0.5,0.8-0.6c11.6-0.8,31.9-2.2,33.6-2.2C1181.9,1388.9,1183.1,1390.1,1183.1,1391.6z"/>
	</g>
	<path id="XMLID_213_" class="st8" d="M1304.7,1345.2L1304.7,1345.2C1304.6,1345.2,1304.6,1345.2,1304.7,1345.2z"/>
	<path id="XMLID_212_" class="st8" d="M1305.4,1345.8C1305.3,1345.8,1305.3,1345.8,1305.4,1345.8
		C1305.3,1345.8,1305.3,1345.8,1305.4,1345.8z"/>
	<path id="XMLID_211_" class="st8" d="M1303.1,1344.6c-0.1,0-0.1,0-0.2,0C1303,1344.6,1303.1,1344.6,1303.1,1344.6z"/>
	<path id="XMLID_210_" class="st8" d="M1305,1345.5L1305,1345.5L1305,1345.5z"/>
	<path id="XMLID_209_" class="st8" d="M1303.6,1344.8c-0.1,0-0.1,0-0.2,0C1303.5,1344.7,1303.6,1344.7,1303.6,1344.8z"/>
	<path id="XMLID_208_" class="st8" d="M1304.1,1344.9L1304.1,1344.9L1304.1,1344.9z"/>
	<path id="XMLID_207_" class="st8" d="M1306.2,1348.5L1306.2,1348.5L1306.2,1348.5z"/>
	<path id="XMLID_206_" class="st8" d="M1242.9,1352.7C1242.9,1352.7,1242.8,1352.7,1242.9,1352.7
		C1242.8,1352.7,1242.9,1352.7,1242.9,1352.7z"/>
	<path id="XMLID_205_" class="st8" d="M1305.7,1346.3C1305.7,1346.2,1305.6,1346.2,1305.7,1346.3
		C1305.6,1346.2,1305.7,1346.2,1305.7,1346.3z"/>
	<path id="XMLID_204_" class="st8" d="M1306.2,1348.1L1306.2,1348.1C1306.2,1348,1306.2,1348,1306.2,1348.1z"/>
	<path id="XMLID_203_" class="st8" d="M1306.1,1347.1C1306.1,1347,1306,1347,1306.1,1347.1C1306,1347,1306.1,1347,1306.1,1347.1z"/>
	<path id="XMLID_202_" class="st8" d="M1306.2,1347.6C1306.2,1347.5,1306.2,1347.5,1306.2,1347.6
		C1306.2,1347.5,1306.2,1347.5,1306.2,1347.6z"/>
	<path id="XMLID_201_" class="st8" d="M1305.9,1346.7C1305.9,1346.7,1305.9,1346.6,1305.9,1346.7
		C1305.9,1346.6,1305.9,1346.6,1305.9,1346.7z"/>
	<path id="XMLID_200_" class="st8" d="M1242.2,1353.2L1242.2,1353.2L1242.2,1353.2z"/>
	<path id="XMLID_199_" class="st8" d="M1242.4,1353L1242.4,1353L1242.4,1353z"/>
	<path id="XMLID_198_" class="st8" d="M1242.1,1353.3L1242.1,1353.3L1242.1,1353.3z"/>
	<path id="XMLID_197_" class="st9" d="M1241.9,1353.6c-0.1,0.3,0.1,1.3,1.6,0.9c7.9-2.2,29.4-8.1,55.5-3.8c6,1,7-1.4,7.2-2
		c-0.1,0.6-0.3,1.3-0.7,2l-9.8,15.6l-34.6,0.1l-18.2-11C1242,1354.9,1241.7,1354.2,1241.9,1353.6z"/>
	<path id="XMLID_196_" class="st8" d="M1242,1353.5L1242,1353.5L1242,1353.5z"/>
	<path id="XMLID_195_" class="st8" d="M1242.7,1352.8C1242.6,1352.8,1242.6,1352.9,1242.7,1352.8
		C1242.6,1352.9,1242.6,1352.8,1242.7,1352.8z"/>
	<path id="XMLID_194_" class="st10" d="M1242.8,1352.7c-0.1,0-0.1,0.1-0.2,0.1C1242.7,1352.8,1242.8,1352.8,1242.8,1352.7z"/>
	<path id="XMLID_193_" class="st10" d="M1306,1347c0-0.1-0.1-0.2-0.1-0.3C1306,1346.8,1306,1346.9,1306,1347z"/>
	<path id="XMLID_192_" class="st10" d="M1242,1353.4L1242,1353.4L1242,1353.4z"/>
	<path id="XMLID_191_" class="st10" d="M1306.2,1347.5c0-0.1-0.1-0.3-0.1-0.4C1306.1,1347.2,1306.1,1347.3,1306.2,1347.5z"/>
	<path id="XMLID_190_" class="st10" d="M1306.2,1348.5c0-0.1,0-0.3,0-0.4C1306.2,1348.2,1306.2,1348.3,1306.2,1348.5z"/>
	<path id="XMLID_189_" class="st10" d="M1241.9,1353.6C1241.9,1353.5,1241.9,1353.5,1241.9,1353.6L1241.9,1353.6L1241.9,1353.6z"/>
	<path id="XMLID_188_" class="st10" d="M1306.2,1348.6L1306.2,1348.6C1306.2,1348.6,1306.2,1348.6,1306.2,1348.6
		C1306.2,1348.5,1306.2,1348.6,1306.2,1348.6z"/>
	<path id="XMLID_187_" class="st10" d="M1306.2,1347.9c0-0.1,0-0.2,0-0.4C1306.2,1347.7,1306.2,1347.8,1306.2,1347.9z"/>
	<path id="XMLID_186_" class="st10" d="M1305.8,1346.5c0-0.1-0.1-0.2-0.2-0.3C1305.7,1346.4,1305.8,1346.5,1305.8,1346.5z"/>
	<path id="XMLID_185_" class="st10" d="M1303.5,1344.7c-0.1,0-0.2-0.1-0.4-0.1C1303.2,1344.6,1303.4,1344.7,1303.5,1344.7z"/>
	<path id="XMLID_184_" class="st10" d="M1305.6,1346.2c-0.1-0.1-0.2-0.2-0.3-0.3C1305.5,1345.9,1305.5,1346.1,1305.6,1346.2z"/>
	<path id="XMLID_183_" class="st10" d="M1302.9,1344.6c-0.2,0-0.4-0.1-0.6-0.1C1302.6,1344.5,1302.8,1344.5,1302.9,1344.6z"/>
	<path id="XMLID_182_" class="st10" d="M1304.1,1344.9c-0.1-0.1-0.3-0.1-0.4-0.2C1303.8,1344.8,1303.9,1344.9,1304.1,1344.9z"/>
	<path id="XMLID_181_" class="st10" d="M1243.1,1352.6c-0.1,0-0.2,0.1-0.3,0.1C1243,1352.7,1243.1,1352.6,1243.1,1352.6z"/>
	<path id="XMLID_180_" class="st10" d="M1242.6,1352.9C1242.5,1352.9,1242.5,1353,1242.6,1352.9
		C1242.5,1352.9,1242.5,1352.9,1242.6,1352.9z"/>
	<path id="XMLID_179_" class="st10" d="M1242.2,1353.2L1242.2,1353.2C1242.1,1353.3,1242.1,1353.2,1242.2,1353.2z"/>
	<path id="XMLID_178_" class="st10" d="M1304.9,1345.4c-0.1-0.1-0.2-0.1-0.3-0.2C1304.7,1345.3,1304.8,1345.4,1304.9,1345.4z"/>
	<path id="XMLID_177_" class="st10" d="M1305.3,1345.8c-0.1-0.1-0.2-0.2-0.3-0.3C1305.1,1345.6,1305.2,1345.7,1305.3,1345.8z"/>
	<path id="XMLID_176_" class="st10" d="M1304.5,1345.2c-0.1-0.1-0.3-0.2-0.4-0.2C1304.3,1345,1304.4,1345.1,1304.5,1345.2z"/>
	<path id="XMLID_175_" class="st10" d="M1242.4,1353c-0.1,0-0.1,0.1-0.2,0.1C1242.3,1353.1,1242.3,1353.1,1242.4,1353z"/>
	<path id="XMLID_174_" class="st11" d="M1299,1350.6c-26.1-4.3-47.6,1.6-55.5,3.8c-1.5,0.4-1.6-0.5-1.6-0.9v-0.1l0,0
		c0,0,0-0.1,0.1-0.1l0,0l0.1-0.1l0,0c0-0.1,0.1-0.1,0.2-0.1l0,0l0.1-0.1h0.1c0,0,0.1-0.1,0.2-0.1h0.1c0.1,0,0.2-0.1,0.3-0.1
		c8.1-3,30.9-11.5,59.2-8.1c0.2,0,0.4,0.1,0.6,0.1c0.1,0,0.1,0,0.2,0s0.3,0.1,0.4,0.1s0.1,0,0.2,0c0.1,0.1,0.3,0.1,0.4,0.2l0,0
		c0.1,0.1,0.3,0.1,0.4,0.2c0,0,0.1,0,0.1,0.1c0.1,0.1,0.2,0.1,0.3,0.2l0.1,0.1c0.1,0.1,0.2,0.2,0.3,0.3l0,0c0.1,0.1,0.2,0.2,0.3,0.3
		c0,0,0,0.1,0.1,0.1c0.1,0.1,0.1,0.2,0.2,0.3c0,0,0,0.1,0.1,0.1c0.1,0.1,0.1,0.2,0.1,0.3c0,0,0,0,0,0.1c0,0.1,0.1,0.3,0.1,0.4v0.1
		c0,0.1,0,0.2,0,0.4v0.1c0,0.1,0,0.3,0,0.4c0,0,0,0,0,0.1c0,0.1,0,0.1,0,0.2C1306,1349.3,1304.9,1351.6,1299,1350.6z"/>
	<path id="XMLID_173_" class="st8" d="M1247.1,1416.9c0.1,0,0.1,0,0.2,0C1247.2,1416.9,1247.2,1416.9,1247.1,1416.9z"/>
	<path id="XMLID_172_" class="st8" d="M1247.4,1416.9c0.1,0,0.2,0,0.2,0C1247.5,1416.9,1247.4,1416.9,1247.4,1416.9z"/>
	<path id="XMLID_171_" class="st9" d="M1247.4,1414.8l12.9-10.1c0.6-0.4,1.6-0.8,2.3-0.8c4-0.1,16-0.2,21.1-0.1
		c0.7,0,1.8,0.4,2.4,0.7l12,7.4c-5.1-1.9-26-1.9-50.1,3.2c-1.5,0.3-1.6,1.2-1.2,1.5c0.1,0.1,0.2,0.2,0.4,0.2
		C1246.3,1416.7,1246.1,1415.6,1247.4,1414.8z"/>
	<path id="XMLID_170_" class="st10" d="M1247.1,1416.9L1247.1,1416.9L1247.1,1416.9z"/>
	<path id="XMLID_168_" class="st10" d="M1247.3,1416.9L1247.3,1416.9L1247.3,1416.9z"/>
	<path id="XMLID_134_" class="st11" d="M1247.9,1415.2c24.1-5.2,45.1-5.1,50.1-3.2c0.3,0.2,1.3,1,1.3,1.9c0,1-0.8,1.7-1.5,1.6
		c-8.1-1.2-25.3-2.9-50.3,1.5c-0.1,0-0.2,0-0.2,0s0,0-0.1,0s-0.1,0-0.2,0c0,0,0,0-0.1,0s-0.3-0.1-0.4-0.2
		C1246.3,1416.3,1246.5,1415.5,1247.9,1415.2z"/>
	<g id="XMLID_102_">
		<path id="XMLID_132_" class="st7" d="M1262.8,1408.1c0.3,0.1,0.5-0.1,0.6-0.3l22.6-54.2c0.1-0.3,0-0.6-0.3-0.7s-0.6,0-0.7,0.3
			l-22.6,54.2C1262.4,1407.7,1262.5,1408,1262.8,1408.1L1262.8,1408.1z"/>
	</g>
	<g id="XMLID_100_">
		<path id="XMLID_101_" class="st7" d="M1284.4,1407.8c0.1,0,0.2,0,0.3,0c0.3-0.1,0.4-0.4,0.3-0.7l-22-53.2
			c-0.1-0.3-0.4-0.4-0.7-0.3c-0.3,0.1-0.4,0.4-0.3,0.7l22,53.2C1284.1,1407.7,1284.2,1407.8,1284.4,1407.8z"/>
	</g>
</g>
<g>
	<path class="st1" d="M547,1382.6c-1.6,0-3,1.3-3,3c0,1.6,1.3,3,3,3c1.6,0,3-1.3,3-3C550,1383.9,548.7,1382.6,547,1382.6z"/>
	<path class="st1" d="M550,1392.2c-1.6,0-3,1.3-3,3c0,1.6,1.3,3,3,3c1.6,0,3-1.3,3-3C553,1393.6,551.6,1392.2,550,1392.2z"/>
	<path class="st1" d="M553,1401.9c-1.6,0-3,1.3-3,3c0,1.6,1.3,3,3,3c1.6,0,3-1.3,3-3C555.9,1403.2,554.6,1401.9,553,1401.9z"/>
	<path class="st1" d="M555.9,1411.6c-1.6,0-3,1.3-3,3c0,1.6,1.3,3,3,3c1.6,0,3-1.3,3-3C558.9,1412.9,557.6,1411.6,555.9,1411.6z"/>
	<path class="st1" d="M558.9,1421.2c-1.6,0-3,1.3-3,3c0,1.6,1.3,3,3,3c1.6,0,3-1.3,3-3C561.8,1422.6,560.5,1421.2,558.9,1421.2z"/>
	<path class="st1" d="M562.1,1431.8c-1.6,0-3,1.3-3,3c0,1.6,1.3,3,3,3c1.6,0,3-1.3,3-3S563.7,1431.8,562.1,1431.8z"/>
	<path class="st1" d="M543.9,1372.4c-1.6,0-3,1.3-3,3c0,1.6,1.3,3,3,3c1.6,0,3-1.3,3-3S545.5,1372.4,543.9,1372.4z"/>
</g>
</svg>
