<?xml version="1.0" encoding="utf-8"?>
<!-- Generator: Adobe Illustrator 19.0.0, SVG Export Plug-In . SVG Version: 6.00 Build 0)  -->
<svg version="1.1" id="Layer_1" xmlns="http://www.w3.org/2000/svg" xmlns:xlink="http://www.w3.org/1999/xlink" x="0px" y="0px"
	 viewBox="184 434.5 1367.3 133.5" style="enable-background:new 184 434.5 1367.3 133.5;" xml:space="preserve">
<style type="text/css">
	.st0{fill:#007977;}
	.st1{fill:#108866;}
	.st2{fill:#FFFFFF;}
	.st3{fill:#00674C;}
	.st4{fill:#00A37C;}
	.st5{font-family:'Avenir-Heavy';}
	.st6{font-size:43.1554px;}
	.st7{letter-spacing:3;}
	.st8{fill:#EFE300;}
	.st9{fill:#CCCBCB;}
	.st10{fill:#44261B;}
	.st11{fill:#00B5B2;}
	.st12{fill:#D85676;}
	.st13{fill:#9E002D;}
</style>
<path id="XMLID_465_" class="st0" d="M1260.8,449l120.3,33.7l-148.6,58.8L1260.8,449 M1259.7,446.9l-29.9,97.6l156.8-62
	L1259.7,446.9L1259.7,446.9z"/>
<polygon id="XMLID_464_" class="st1" points="376.8,568 511.5,568 440.1,482.3 362.3,482.3 405.3,528.4 "/>
<path id="XMLID_463_" class="st2" d="M404.6,556.3c1.6,0,3,1.3,3,3c0,1.6-1.3,3-3,3c-1.6,0-3-1.3-3-3
	C401.8,557.6,403,556.3,404.6,556.3L404.6,556.3z"/>
<path id="XMLID_462_" class="st2" d="M414.3,556.3c1.6,0,3,1.3,3,3c0,1.6-1.3,3-3,3c-1.6,0-3-1.3-3-3S412.8,556.3,414.3,556.3z"/>
<circle id="XMLID_461_" class="st2" cx="424" cy="559.3" r="3"/>
<circle id="XMLID_460_" class="st2" cx="433.6" cy="559.3" r="3"/>
<path id="XMLID_459_" class="st2" d="M443.3,556.3c1.6,0,3,1.3,3,3c0,1.6-1.3,3-3,3c-1.6,0-3-1.3-3-3
	C440.4,557.6,441.8,556.3,443.3,556.3z"/>
<path id="XMLID_458_" class="st2" d="M453,556.3c1.6,0,3,1.3,3,3c0,1.6-1.3,3-3,3c-1.6,0-3-1.3-3-3S451.4,556.3,453,556.3z"/>
<path id="XMLID_457_" class="st2" d="M462.8,556.3c1.6,0,3,1.3,3,3c0,1.6-1.3,3-3,3c-1.6,0-3-1.3-3-3S461,556.3,462.8,556.3z"/>
<path id="XMLID_456_" class="st2" d="M472.4,556.3c1.6,0,3,1.3,3,3c0,1.6-1.3,3-3,3c-1.7,0-3-1.3-3-3S470.8,556.3,472.4,556.3z"/>
<path id="XMLID_455_" class="st2" d="M482,556.3c1.6,0,3,1.3,3,3c0,1.6-1.3,3-3,3c-1.6,0-3-1.3-3-3S480.4,556.3,482,556.3z"/>
<circle id="XMLID_454_" class="st2" cx="491.8" cy="559.3" r="3"/>
<path id="XMLID_453_" class="st2" d="M433,488.9c1.6,0,3,1.3,3,3c0,1.6-1.3,3-3,3c-1.6,0-3-1.3-3-3C430,490.3,431.3,488.9,433,488.9
	z"/>
<path id="XMLID_452_" class="st2" d="M423.3,488.9c1.6,0,3,1.3,3,3c0,1.6-1.3,3-3,3c-1.7,0-3-1.3-3-3
	C420.3,490.3,421.8,488.9,423.3,488.9z"/>
<circle id="XMLID_451_" class="st2" cx="413.6" cy="491.9" r="3"/>
<path id="XMLID_450_" class="st2" d="M404,488.9c1.6,0,3,1.3,3,3c0,1.6-1.3,3-3,3c-1.6,0-3-1.3-3-3C401,490.3,402.3,488.9,404,488.9
	z"/>
<path id="XMLID_449_" class="st2" d="M394.3,488.9c1.6,0,3,1.3,3,3c0,1.6-1.3,3-3,3c-1.6,0-3-1.3-3-3
	C391.3,490.3,392.8,488.9,394.3,488.9z"/>
<path id="XMLID_448_" class="st2" d="M384.4,488.9c1.6,0,3,1.3,3,3c0,1.6-1.3,3-3,3c-1.6,0-3-1.3-3-3
	C381.4,490.3,382.8,488.9,384.4,488.9z"/>
<path id="XMLID_447_" class="st2" d="M391,496.7c1.6,0,3,1.3,3,3c0,1.6-1.3,3-3,3c-1.6,0-3-1.3-3-3C388,498,389.3,496.7,391,496.7z"
	/>
<path id="XMLID_446_" class="st2" d="M397.6,503.8c1.6,0,3,1.3,3,3c0,1.6-1.3,3-3,3c-1.6,0-3-1.3-3-3
	C394.6,505.1,395.9,503.8,397.6,503.8z"/>
<path id="XMLID_445_" class="st2" d="M404.2,510.8c1.6,0,3,1.3,3,3c0,1.6-1.3,3-3,3c-1.6,0-3-1.3-3-3
	C401.2,512.2,402.5,510.8,404.2,510.8z"/>
<circle id="XMLID_444_" class="st2" cx="410.8" cy="520.9" r="3"/>
<path id="XMLID_443_" class="st2" d="M417.4,525c1.6,0,3,1.3,3,3c0,1.6-1.3,3-3,3c-1.6,0-3-1.3-3-3S415.8,525,417.4,525z"/>
<path id="XMLID_442_" class="st2" d="M412,532.8c1.6,0,3,1.3,3,3c0,1.6-1.3,3-3,3c-1.6,0-3-1.3-3-3S410.3,532.8,412,532.8z"/>
<path id="XMLID_441_" class="st2" d="M406.3,540.6c1.6,0,3,1.3,3,3c0,1.6-1.3,3-3,3c-1.6,0-3-1.3-3-3
	C403.3,541.9,404.8,540.6,406.3,540.6z"/>
<path id="XMLID_440_" class="st2" d="M400.6,548.4c1.6,0,3,1.3,3,3c0,1.6-1.3,3-3,3c-1.6,0-3-1.3-3-3
	C397.8,549.8,399,548.4,400.6,548.4z"/>
<circle id="XMLID_439_" class="st2" cx="1244" cy="491.9" r="3"/>
<path id="XMLID_438_" class="st2" d="M395,556.3c1.6,0,3,1.3,3,3c0,1.6-1.3,3-3,3c-1.6,0-3-1.3-3-3S393.3,556.3,395,556.3z"/>
<polygon id="XMLID_437_" class="st3" points="511.5,568 492.1,542.6 450.1,542.5 445.4,544.5 "/>
<path id="XMLID_436_" class="st4" d="M444.7,544.5c243.3,0,543.4,0,786.8,0l29.9-97.6c-263.2,0-583.3,0-846.5,0L444.7,544.5z"/>
<path id="XMLID_273_" class="st2" d="M1242.8,473.4c1.6,0,3,1.3,3,3c0,1.6-1.3,3-3,3c-1.6,0-3-1.3-3-3
	C1239.9,474.7,1241.2,473.4,1242.8,473.4L1242.8,473.4z M1239.9,483c1.6,0,3,1.3,3,3c0,1.6-1.3,3-3,3c-1.6,0-3-1.3-3-3
	C1236.9,484.4,1238.2,483,1239.9,483z M1236.9,492.7c1.6,0,3,1.3,3,3c0,1.6-1.3,3-3,3s-3-1.3-3-3
	C1234,494,1235.3,492.7,1236.9,492.7z M1234,502.4c1.7,0,3,1.3,3,3c0,1.6-1.3,3-3,3c-1.6,0-3-1.3-3-3
	C1231,503.7,1232.3,502.4,1234,502.4z M1231,512c1.6,0,3,1.3,3,3c0,1.6-1.3,3-3,3c-1.6,0-3-1.3-3-3C1228,513.4,1229.4,512,1231,512z
	 M1227.8,522.6c1.6,0,3,1.3,3,3c0,1.6-1.3,3-3,3c-1.6,0-3-1.3-3-3C1224.8,523.9,1226.1,522.6,1227.8,522.6z M436.4,473.4
	c-1.6,0-3,1.3-3,3c0,1.6,1.3,3,3,3c1.6,0,3-1.3,3-3C439.4,474.7,438.1,473.4,436.4,473.4z M439.4,483c-1.6,0-3,1.3-3,3
	c0,1.6,1.3,3,3,3c1.6,0,3-1.3,3-3C442.4,484.4,441,483,439.4,483z M442.4,492.7c-1.6,0-3,1.3-3,3c0,1.6,1.3,3,3,3c1.6,0,3-1.3,3-3
	C445.3,494,444,492.7,442.4,492.7z M445.3,502.4c-1.6,0-3,1.3-3,3c0,1.6,1.3,3,3,3c1.6,0,3-1.3,3-3
	C448.3,503.7,447,502.4,445.3,502.4z M448.3,512c-1.6,0-3,1.3-3,3c0,1.6,1.3,3,3,3c1.6,0,3-1.3,3-3C451.2,513.4,449.9,512,448.3,512
	z M451.5,522.6c-1.6,0-3,1.3-3,3c0,1.6,1.3,3,3,3c1.6,0,3-1.3,3-3C454.5,523.9,453.1,522.6,451.5,522.6z M433.3,463.2
	c-1.6,0-3,1.3-3,3c0,1.6,1.3,3,3,3c1.6,0,3-1.3,3-3C436.3,464.5,434.9,463.2,433.3,463.2z M611.7,453.1c-1.6,0-3,1.3-3,3
	c0,1.6,1.3,3,3,3c1.6,0,3-1.3,3-3C614.7,454.4,613.4,453.1,611.7,453.1z M601.6,453.1c-1.6,0-3,1.3-3,3c0,1.6,1.3,3,3,3
	c1.6,0,3-1.3,3-3C604.6,454.4,603.2,453.1,601.6,453.1z M591.5,453.1c-1.6,0-3,1.3-3,3c0,1.6,1.3,3,3,3c1.6,0,3-1.3,3-3
	C594.5,454.4,593.1,453.1,591.5,453.1z M581.4,453.1c-1.6,0-3,1.3-3,3c0,1.6,1.3,3,3,3c1.6,0,3-1.3,3-3
	C584.4,454.4,583,453.1,581.4,453.1z M571.3,453.1c-1.6,0-3,1.3-3,3c0,1.6,1.3,3,3,3c1.6,0,3-1.3,3-3
	C574.3,454.4,572.9,453.1,571.3,453.1z M561.2,453.1c-1.6,0-3,1.3-3,3c0,1.6,1.3,3,3,3c1.6,0,3-1.3,3-3
	C564.1,454.4,562.8,453.1,561.2,453.1z M551.1,453.1c-1.6,0-3,1.3-3,3c0,1.6,1.3,3,3,3c1.6,0,3-1.3,3-3
	C554,454.4,552.7,453.1,551.1,453.1z M541,453.1c-1.6,0-3,1.3-3,3c0,1.6,1.3,3,3,3c1.6,0,3-1.3,3-3
	C543.9,454.4,542.6,453.1,541,453.1z M530.9,453.1c-1.6,0-3,1.3-3,3c0,1.6,1.3,3,3,3c1.6,0,3-1.3,3-3
	C533.8,454.4,532.5,453.1,530.9,453.1z M520.7,453.1c-1.6,0-3,1.3-3,3c0,1.6,1.3,3,3,3c1.6,0,3-1.3,3-3
	C523.7,454.4,522.4,453.1,520.7,453.1z M510.6,453.1c-1.6,0-3,1.3-3,3c0,1.6,1.3,3,3,3c1.6,0,3-1.3,3-3
	C513.6,454.4,512.3,453.1,510.6,453.1z M500.5,453.1c-1.6,0-3,1.3-3,3c0,1.6,1.3,3,3,3c1.6,0,3-1.3,3-3
	C503.5,454.4,502.2,453.1,500.5,453.1z M490.4,453.1c-1.6,0-3,1.3-3,3c0,1.6,1.3,3,3,3c1.6,0,3-1.3,3-3
	C493.4,454.4,492.1,453.1,490.4,453.1z M480.3,453.1c-1.6,0-3,1.3-3,3c0,1.6,1.3,3,3,3c1.6,0,3-1.3,3-3
	C483.3,454.4,482,453.1,480.3,453.1z M470.2,453.1c-1.6,0-3,1.3-3,3c0,1.6,1.3,3,3,3c1.6,0,3-1.3,3-3
	C473.2,454.4,471.9,453.1,470.2,453.1z M460.1,453.1c-1.6,0-3,1.3-3,3c0,1.6,1.3,3,3,3c1.6,0,3-1.3,3-3
	C463.1,454.4,461.7,453.1,460.1,453.1z M450,453.1c-1.6,0-3,1.3-3,3c0,1.6,1.3,3,3,3c1.6,0,3-1.3,3-3
	C453,454.4,451.6,453.1,450,453.1z M439.9,453.1c-1.6,0-3,1.3-3,3c0,1.6,1.3,3,3,3c1.6,0,3-1.3,3-3
	C442.9,454.4,441.5,453.1,439.9,453.1z M429.8,453.1c-1.6,0-3,1.3-3,3c0,1.6,1.3,3,3,3c1.7,0,3-1.3,3-3
	C432.8,454.4,431.4,453.1,429.8,453.1z M642.4,453.1c1.6,0,2.9,1.3,2.9,3c0,1.6-1.3,3-2.9,3c-1.7,0-3-1.3-3-3
	C639.4,454.4,640.8,453.1,642.4,453.1z M652.5,453.1c1.6,0,3,1.3,3,3c0,1.6-1.3,3-3,3s-3-1.3-3-3
	C649.6,454.4,650.8,453.1,652.5,453.1z M662.6,453.1c1.7,0,2.9,1.3,2.9,3c0,1.6-1.3,3-2.9,3c-1.7,0-3-1.3-3-3
	C659.6,454.4,661,453.1,662.6,453.1z M672.7,453.1c1.7,0,3,1.3,3,3c0,1.6-1.3,3-3,3s-2.9-1.3-2.9-3
	C669.8,454.4,671,453.1,672.7,453.1z M682.8,453.1c1.7,0,2.9,1.3,2.9,3c0,1.6-1.2,3-2.9,3s-3-1.3-3-3
	C679.8,454.4,681.2,453.1,682.8,453.1z M692.9,453.1c1.7,0,3,1.3,3,3c0,1.6-1.3,3-3,3c-1.6,0-2.9-1.3-2.9-3
	C690,454.4,691.2,453.1,692.9,453.1z M703,453.1c1.7,0,2.9,1.3,2.9,3c0,1.6-1.3,3-2.9,3c-1.6,0-3-1.3-3-3
	C700,454.4,701.4,453.1,703,453.1z M713.1,453.1c1.7,0,3,1.3,3,3c0,1.6-1.3,3-3,3c-1.6,0-2.9-1.3-2.9-3
	C710.2,454.4,711.4,453.1,713.1,453.1z M723.2,453.1c1.7,0,2.9,1.3,2.9,3c0,1.6-1.3,3-2.9,3c-1.7,0-3-1.3-3-3
	C720.2,454.4,721.6,453.1,723.2,453.1z M967.7,453.1c1.8,0,3,1.3,3,3c0,1.6-1.2,3-3,3c-1.6,0-2.9-1.3-2.9-3
	C964.9,454.4,966.1,453.1,967.7,453.1z M977.9,453.1c1.7,0,3,1.3,3,3c0,1.6-1.3,3-3,3s-3-1.3-3-3
	C974.9,454.4,976.3,453.1,977.9,453.1z M988,453.1c1.7,0,3,1.3,3,3c0,1.6-1.3,3-3,3c-1.6,0-3-1.3-3-3
	C985.1,454.4,986.4,453.1,988,453.1z M998.1,453.1c1.7,0,3,1.3,3,3c0,1.6-1.4,3-3,3s-2.9-1.3-2.9-3
	C995.2,454.4,996.5,453.1,998.1,453.1z M1008.3,453.1c1.7,0,2.9,1.3,2.9,3c0,1.6-1.3,3-2.9,3c-1.6,0-3-1.3-3-3
	C1005.3,454.4,1006.6,453.1,1008.3,453.1z M1018.3,453.1c1.7,0,3,1.3,3,3c0,1.6-1.4,3-3,3c-1.7,0-2.9-1.3-2.9-3
	C1015.4,454.4,1016.7,453.1,1018.3,453.1z M1028.5,453.1c1.7,0,2.9,1.3,2.9,3c0,1.6-1.3,3-2.9,3c-1.7,0-3-1.3-3-3
	C1025.5,454.4,1026.8,453.1,1028.5,453.1z M1038.6,453.1c1.6,0,2.9,1.3,2.9,3c0,1.6-1.4,3-2.9,3c-1.7,0-3-1.3-3-3
	C1035.6,454.4,1037,453.1,1038.6,453.1z M1048.6,453.1c1.7,0,3.1,1.3,3.1,3c0,1.6-1.4,3-3.1,3c-1.6,0-2.9-1.3-2.9-3
	C1045.7,454.4,1047,453.1,1048.6,453.1z M1058.8,453.1c1.6,0,3,1.3,3,3c0,1.6-1.4,3-3,3c-1.6,0-3-1.3-3-3
	C1055.8,454.4,1057.2,453.1,1058.8,453.1z M1068.9,453.1c1.7,0,3,1.3,3,3c0,1.6-1.4,3-3,3c-1.7,0-2.9-1.3-2.9-3
	C1066,454.4,1067.2,453.1,1068.9,453.1z M1079,453.1c1.6,0,2.9,1.3,2.9,3c0,1.6-1.3,3-2.9,3c-1.7,0-3-1.3-3-3
	C1076,454.4,1077.4,453.1,1079,453.1z M1089.1,453.1c1.7,0,3,1.3,3,3c0,1.6-1.4,3-3,3c-1.7,0-2.9-1.3-2.9-3
	C1086.2,454.4,1087.4,453.1,1089.1,453.1z M1099.2,453.1c1.7,0,2.9,1.3,2.9,3c0,1.6-1.3,3-2.9,3c-1.7,0-3-1.3-3-3
	C1096.2,454.4,1097.6,453.1,1099.2,453.1z M1109.3,453.1c1.7,0,3.1,1.3,3.1,3c0,1.6-1.4,3-3.1,3c-1.6,0-2.9-1.3-2.9-3
	C1106.4,454.4,1107.6,453.1,1109.3,453.1z M1119.4,453.1c1.6,0,3,1.3,3,3c0,1.6-1.3,3-3,3c-1.6,0-3-1.3-3-3
	C1116.4,454.4,1117.8,453.1,1119.4,453.1z M1129.5,453.1c1.7,0,3,1.3,3,3c0,1.6-1.4,3-3,3c-1.7,0-2.9-1.3-2.9-3
	C1126.6,454.4,1127.8,453.1,1129.5,453.1z M1139.6,453.1c1.6,0,2.9,1.3,2.9,3c0,1.6-1.3,3-2.9,3c-1.7,0-3-1.3-3-3
	C1136.6,454.4,1138,453.1,1139.6,453.1z M1149.7,453.1c1.7,0,3,1.3,3,3c0,1.6-1.3,3-3,3c-1.7,0-2.9-1.3-2.9-3
	C1146.8,454.4,1148,453.1,1149.7,453.1z M1159.8,453.1c1.7,0,3,1.3,3,3c0,1.6-1.4,3-3,3c-1.6,0-3-1.3-3-3
	C1156.8,454.4,1158.2,453.1,1159.8,453.1z M1170,453.1c1.7,0,3,1.3,3,3c0,1.6-1.3,3-3,3c-1.6,0-3-1.3-3-3
	C1167,454.4,1168.3,453.1,1170,453.1z M1180,453.1c1.6,0,3.1,1.3,3.1,3c0,1.6-1.4,3-3.1,3c-1.6,0-3-1.3-3-3
	C1177.1,454.4,1178.4,453.1,1180,453.1z M1190.2,453.1c1.6,0,3,1.3,3,3c0,1.6-1.4,3-3,3c-1.6,0-3-1.3-3-3
	C1187.2,454.4,1188.5,453.1,1190.2,453.1z M1200.3,453.1c1.6,0,3,1.3,3,3c0,1.6-1.4,3-3,3c-1.7,0-2.9-1.3-2.9-3
	C1197.3,454.4,1198.6,453.1,1200.3,453.1z M1210.4,453.1c1.7,0,3,1.3,3,3c0,1.6-1.3,3-3,3c-1.6,0-3-1.3-3-3
	C1207.4,454.4,1208.8,453.1,1210.4,453.1z M1220.4,453.1c1.7,0,3.1,1.3,3.1,3c0,1.6-1.4,3-3.1,3c-1.5,0-2.9-1.3-2.9-3
	C1217.5,454.4,1218.9,453.1,1220.4,453.1z M1230.6,453.1c1.7,0,3,1.3,3,3c0,1.6-1.4,3-3,3s-3-1.3-3-3
	C1227.6,454.4,1228.9,453.1,1230.6,453.1z M1240.7,453.1c1.7,0,3,1.3,3,3c0,1.6-1.3,3-3,3c-1.6,0-3-1.3-3-3
	C1237.7,454.4,1239.1,453.1,1240.7,453.1z M1249.5,453.1c1.6,0,2.9,1.3,2.9,3c0,1.6-1.3,3-2.9,3s-3-1.3-3-3
	C1246.5,454.4,1247.9,453.1,1249.5,453.1z M632.1,453.1c1.6,0,3,1.3,3,3c0,1.6-1.3,3-3,3c-1.6,0-3-1.3-3-3
	C629.1,454.4,630.5,453.1,632.1,453.1z M621.8,453.1c-1.6,0-3,1.3-3,3c0,1.6,1.3,3,3,3c1.6,0,3-1.3,3-3
	C624.8,454.4,623.5,453.1,621.8,453.1z M1215,532.4c-1.6,0-3,1.3-3,3c0,1.6,1.3,3,3,3c1.6,0,3-1.3,3-3
	C1218,533.8,1216.6,532.4,1215,532.4z M1204.9,532.4c-1.6,0-3,1.3-3,3c0,1.6,1.3,3,3,3s3-1.3,3-3
	C1207.9,533.8,1206.5,532.4,1204.9,532.4z M1194.8,532.4c-1.6,0-3,1.3-3,3c0,1.6,1.3,3,3,3c1.6,0,3-1.3,3-3
	C1197.8,533.8,1196.4,532.4,1194.8,532.4z M1184.7,532.4c-1.6,0-3,1.3-3,3c0,1.6,1.3,3,3,3c1.6,0,3-1.3,3-3
	C1187.6,533.8,1186.3,532.4,1184.7,532.4z M1174.6,532.4c-1.6,0-3,1.3-3,3c0,1.6,1.3,3,3,3c1.6,0,3-1.3,3-3
	C1177.5,533.8,1176.2,532.4,1174.6,532.4z M1164.5,532.4c-1.6,0-3,1.3-3,3c0,1.6,1.3,3,3,3c1.6,0,3-1.3,3-3
	C1167.4,533.8,1166.1,532.4,1164.5,532.4z M1154.4,532.4c-1.6,0-3,1.3-3,3c0,1.6,1.3,3,3,3c1.6,0,3-1.3,3-3
	C1157.3,533.8,1156,532.4,1154.4,532.4z M1144.2,532.4c-1.6,0-3,1.3-3,3c0,1.6,1.3,3,3,3c1.6,0,3-1.3,3-3
	C1147.2,533.8,1145.9,532.4,1144.2,532.4z M1134.1,532.4c-1.6,0-3,1.3-3,3c0,1.6,1.3,3,3,3c1.6,0,3-1.3,3-3
	C1137.1,533.8,1135.8,532.4,1134.1,532.4z M1124,532.4c-1.6,0-3,1.3-3,3c0,1.6,1.3,3,3,3c1.6,0,3-1.3,3-3
	C1127,533.8,1125.7,532.4,1124,532.4z M1113.9,532.4c-1.6,0-3,1.3-3,3c0,1.6,1.3,3,3,3c1.6,0,3-1.3,3-3
	C1116.9,533.8,1115.6,532.4,1113.9,532.4z M1103.8,532.4c-1.6,0-3,1.3-3,3c0,1.6,1.3,3,3,3c1.6,0,3-1.3,3-3
	C1106.8,533.8,1105.5,532.4,1103.8,532.4z M1093.7,532.4c-1.6,0-3,1.3-3,3c0,1.6,1.3,3,3,3c1.6,0,3-1.3,3-3
	C1096.7,533.8,1095.4,532.4,1093.7,532.4z M1083.6,532.4c-1.6,0-3,1.3-3,3c0,1.6,1.3,3,3,3c1.6,0,3-1.3,3-3
	C1086.6,533.8,1085.3,532.4,1083.6,532.4z M1073.5,532.4c-1.6,0-3,1.3-3,3c0,1.6,1.3,3,3,3c1.6,0,3-1.3,3-3
	C1076.5,533.8,1075.1,532.4,1073.5,532.4z M1063.4,532.4c-1.6,0-3,1.3-3,3c0,1.6,1.3,3,3,3c1.6,0,3-1.3,3-3
	C1066.4,533.8,1065,532.4,1063.4,532.4z M1053.3,532.4c-1.6,0-3,1.3-3,3c0,1.6,1.3,3,3,3c1.6,0,3-1.3,3-3
	C1056.3,533.8,1054.9,532.4,1053.3,532.4z M1043.2,532.4c-1.6,0-3,1.3-3,3c0,1.6,1.3,3,3,3c1.6,0,3-1.3,3-3
	C1046.2,533.8,1044.8,532.4,1043.2,532.4z M1033.1,532.4c-1.6,0-3,1.3-3,3c0,1.6,1.3,3,3,3c1.6,0,3-1.3,3-3
	C1036,533.8,1034.7,532.4,1033.1,532.4z M1023,532.4c-1.6,0-3,1.3-3,3c0,1.6,1.3,3,3,3c1.6,0,3-1.3,3-3
	C1025.9,533.8,1024.6,532.4,1023,532.4z M1012.9,532.4c-1.6,0-3,1.3-3,3c0,1.6,1.3,3,3,3c1.6,0,3-1.3,3-3
	C1015.8,533.8,1014.5,532.4,1012.9,532.4z M1002.8,532.4c-1.6,0-3,1.3-3,3c0,1.6,1.3,3,3,3c1.6,0,3-1.3,3-3
	C1005.7,533.8,1004.4,532.4,1002.8,532.4z M992.6,532.4c-1.6,0-3,1.3-3,3c0,1.6,1.3,3,3,3c1.6,0,3-1.3,3-3
	C995.6,533.8,994.3,532.4,992.6,532.4z M982.5,532.4c-1.6,0-3,1.3-3,3c0,1.6,1.3,3,3,3s3-1.3,3-3
	C985.5,533.8,984.2,532.4,982.5,532.4z M972.4,532.4c-1.6,0-3,1.3-3,3c0,1.6,1.3,3,3,3c1.6,0,3-1.3,3-3
	C975.4,533.8,974.1,532.4,972.4,532.4z M717.8,532.4c-1.6,0-3,1.3-3,3c0,1.6,1.3,3,3,3c1.6,0,3-1.3,3-3
	C720.7,533.8,719.4,532.4,717.8,532.4z M707.6,532.4c-1.6,0-3,1.3-3,3c0,1.6,1.3,3,3,3c1.6,0,3-1.3,3-3
	C710.6,533.8,709.3,532.4,707.6,532.4z M697.5,532.4c-1.6,0-3,1.3-3,3c0,1.6,1.3,3,3,3c1.6,0,3-1.3,3-3
	C700.5,533.8,699.2,532.4,697.5,532.4z M687.4,532.4c-1.6,0-3,1.3-3,3c0,1.6,1.3,3,3,3c1.6,0,3-1.3,3-3
	C690.4,533.8,689.1,532.4,687.4,532.4z M677.3,532.4c-1.6,0-3,1.3-3,3c0,1.6,1.3,3,3,3c1.6,0,3-1.3,3-3
	C680.3,533.8,679,532.4,677.3,532.4z M667.2,532.4c-1.6,0-3,1.3-3,3c0,1.6,1.3,3,3,3c1.6,0,3-1.3,3-3
	C670.2,533.8,668.9,532.4,667.2,532.4z M657.1,532.4c-1.6,0-3,1.3-3,3c0,1.6,1.3,3,3,3c1.6,0,3-1.3,3-3
	C660.1,533.8,658.8,532.4,657.1,532.4z M647,532.4c-1.6,0-3,1.3-3,3c0,1.6,1.3,3,3,3c1.6,0,3-1.3,3-3
	C650,533.8,648.6,532.4,647,532.4z M636.9,532.4c-1.6,0-3,1.3-3,3c0,1.6,1.3,3,3,3c1.6,0,3-1.3,3-3
	C639.9,533.8,638.5,532.4,636.9,532.4z M1224.2,532.4c-1.6,0-3,1.3-3,3c0,1.6,1.3,3,3,3c1.6,0,3-1.3,3-3
	C1227.2,533.8,1225.8,532.4,1224.2,532.4z M455.5,532.4c1.7,0,3,1.3,3,3c0,1.6-1.3,3-3,3c-1.6,0-2.9-1.3-2.9-3
	C452.5,533.8,453.8,532.4,455.5,532.4z M465.5,532.4c1.6,0,3,1.3,3,3c0,1.6-1.4,3-3,3s-2.9-1.3-2.9-3
	C462.6,533.8,464,532.4,465.5,532.4z M475.7,532.4c1.6,0,3,1.3,3,3c0,1.6-1.4,3-3,3c-1.7,0-3-1.3-3-3
	C472.7,533.8,474,532.4,475.7,532.4z M485.8,532.4c1.6,0,2.9,1.3,2.9,3c0,1.6-1.3,3-2.9,3s-3-1.3-3-3
	C482.8,533.8,484.2,532.4,485.8,532.4z M496,532.4c1.6,0,2.9,1.3,2.9,3c0,1.6-1.3,3-2.9,3s-3-1.3-3-3
	C493,533.8,494.3,532.4,496,532.4z M506,532.4c1.6,0,3,1.3,3,3c0,1.6-1.4,3-3,3c-1.7,0-3-1.3-3-3C503,533.8,504.4,532.4,506,532.4z
	 M516.2,532.4c1.6,0,2.9,1.3,2.9,3c0,1.6-1.3,3-2.9,3c-1.7,0-3-1.3-3-3C513.2,533.8,514.4,532.4,516.2,532.4z M526.2,532.4
	c1.7,0,3,1.3,3,3c0,1.6-1.4,3-3,3s-3-1.3-3-3C523.2,533.8,524.6,532.4,526.2,532.4z M536.3,532.4c1.7,0,3,1.3,3,3c0,1.6-1.3,3-3,3
	c-1.6,0-2.9-1.3-2.9-3C533.4,533.8,534.6,532.4,536.3,532.4z M546.4,532.4c1.7,0,3,1.3,3,3c0,1.6-1.3,3-3,3c-1.6,0-2.9-1.3-2.9-3
	C543.5,533.8,544.9,532.4,546.4,532.4z M556.5,532.4c1.6,0,3,1.3,3,3c0,1.6-1.4,3-3,3c-1.5,0-2.9-1.3-2.9-3
	C553.6,533.8,555,532.4,556.5,532.4z M566.7,532.4c1.6,0,3,1.3,3,3c0,1.6-1.4,3-3,3s-3-1.3-3-3C563.7,533.8,565.1,532.4,566.7,532.4
	z M576.8,532.4c1.5,0,2.9,1.3,2.9,3c0,1.6-1.4,3-2.9,3c-1.7,0-3-1.3-3-3C573.8,533.8,575.1,532.4,576.8,532.4z M587,532.4
	c1.6,0,2.9,1.3,2.9,3c0,1.6-1.3,3-2.9,3c-1.8,0-3-1.3-3-3C584,533.8,585.2,532.4,587,532.4z M597,532.4c1.6,0,3,1.3,3,3
	c0,1.6-1.4,3-3,3s-3-1.3-3-3C594,533.8,595.4,532.4,597,532.4z M607.1,532.4c1.7,0,3,1.3,3,3c0,1.6-1.3,3-3,3c-1.7,0-3-1.3-3-3
	C604.1,533.8,605.4,532.4,607.1,532.4z M617.2,532.4c1.6,0,3,1.3,3,3c0,1.6-1.4,3-3,3c-1.7,0-3-1.3-3-3
	C614.2,533.8,615.5,532.4,617.2,532.4z M627.3,532.4c1.6,0,3,1.3,3,3c0,1.6-1.4,3-3,3s-2.9-1.3-2.9-3
	C624.4,533.8,625.7,532.4,627.3,532.4z M1246,463.2c1.6,0,3,1.3,3,3c0,1.6-1.3,3-3,3c-1.6,0-3-1.3-3-3
	C1243,464.5,1244.3,463.2,1246,463.2z"/>
<circle id="XMLID_272_" class="st2" cx="804.2" cy="456" r="3"/>
<circle id="XMLID_271_" class="st2" cx="794.1" cy="456" r="3"/>
<circle id="XMLID_270_" class="st2" cx="784" cy="456" r="3"/>
<circle id="XMLID_269_" class="st2" cx="773.9" cy="456" r="3"/>
<circle id="XMLID_268_" class="st2" cx="763.8" cy="456" r="3"/>
<circle id="XMLID_267_" class="st2" cx="753.6" cy="456" r="3"/>
<circle id="XMLID_266_" class="st2" cx="743.5" cy="456" r="3"/>
<circle id="XMLID_265_" class="st2" cx="733.4" cy="456" r="3"/>
<path id="XMLID_264_" class="st2" d="M831.9,456c0,1.6,1.4,3,3,3s2.9-1.3,2.9-3c0-1.6-1.3-3-2.9-3
	C833.3,453.1,831.9,454.4,831.9,456z"/>
<path id="XMLID_263_" class="st2" d="M842,456c0,1.6,1.3,3,3,3c1.6,0,3-1.3,3-3c0-1.6-1.3-3-3-3C843.3,453.1,842,454.4,842,456z"/>
<path id="XMLID_262_" class="st2" d="M852.1,456c0,1.6,1.4,3,3,3c1.7,0,2.9-1.3,2.9-3c0-1.6-1.3-3-2.9-3
	C853.4,453.1,852.1,454.4,852.1,456z"/>
<path id="XMLID_261_" class="st2" d="M862.2,456c0,1.6,1.2,3,2.9,3s3-1.3,3-3c0-1.6-1.3-3-3-3C863.5,453.1,862.2,454.4,862.2,456z"
	/>
<path id="XMLID_260_" class="st2" d="M872.3,456c0,1.6,1.3,3,3,3s2.9-1.3,2.9-3c0-1.6-1.2-3-2.9-3
	C873.6,453.1,872.3,454.4,872.3,456z"/>
<path id="XMLID_259_" class="st2" d="M882.4,456c0,1.6,1.3,3,2.9,3c1.7,0,3-1.3,3-3c0-1.6-1.3-3-3-3
	C883.7,453.1,882.4,454.4,882.4,456z"/>
<path id="XMLID_258_" class="st2" d="M892.5,456c0,1.6,1.4,3,3,3c1.7,0,2.9-1.3,2.9-3c0-1.6-1.3-3-2.9-3
	C893.9,453.1,892.5,454.4,892.5,456z"/>
<path id="XMLID_257_" class="st2" d="M902.7,456c0,1.6,1.3,3,2.9,3c1.7,0,3-1.3,3-3c0-1.6-1.3-3-3-3
	C903.9,453.1,902.7,454.4,902.7,456z"/>
<path id="XMLID_256_" class="st2" d="M912.7,456c0,1.6,1.3,3,3,3s2.9-1.3,2.9-3c0-1.6-1.3-3-2.9-3C914,453.1,912.7,454.4,912.7,456z
	"/>
<path id="XMLID_255_" class="st2" d="M923.5,456c0,1.6,1.3,3,2.9,3c1.7,0,3-1.3,3-3c0-1.6-1.3-3-3-3
	C924.8,453.1,923.5,454.4,923.5,456z"/>
<path id="XMLID_254_" class="st2" d="M933.5,456c0,1.6,1.4,3,3,3c1.7,0,2.9-1.3,2.9-3c0-1.6-1.3-3-2.9-3
	C934.9,453.1,933.5,454.4,933.5,456z"/>
<path id="XMLID_253_" class="st2" d="M943.7,456c0,1.6,1.3,3,2.9,3c1.7,0,3-1.3,3-3c0-1.6-1.3-3-3-3
	C945,453.1,943.7,454.4,943.7,456z"/>
<path id="XMLID_252_" class="st2" d="M953.7,456c0,1.6,1.3,3,3,3s2.9-1.3,2.9-3c0-1.6-1.3-3-2.9-3
	C955.1,453.1,953.7,454.4,953.7,456z"/>
<circle id="XMLID_251_" class="st2" cx="824.6" cy="456" r="3"/>
<circle id="XMLID_250_" class="st2" cx="814.3" cy="456" r="3"/>
<circle id="XMLID_249_" class="st2" cx="798.3" cy="535.4" r="3"/>
<circle id="XMLID_248_" class="st2" cx="788.2" cy="535.4" r="3"/>
<circle id="XMLID_247_" class="st2" cx="778.1" cy="535.4" r="3"/>
<circle id="XMLID_246_" class="st2" cx="768" cy="535.4" r="3"/>
<circle id="XMLID_245_" class="st2" cx="757.9" cy="535.4" r="3"/>
<circle id="XMLID_244_" class="st2" cx="747.8" cy="535.4" r="3"/>
<circle id="XMLID_243_" class="st2" cx="737.7" cy="535.4" r="3"/>
<circle id="XMLID_242_" class="st2" cx="727.6" cy="535.4" r="3"/>
<path id="XMLID_241_" class="st2" d="M826,535.4c0,1.6,1.4,3,3,3s2.9-1.3,2.9-3c0-1.6-1.3-3-2.9-3C827.4,532.4,826,533.8,826,535.4z
	"/>
<path id="XMLID_240_" class="st2" d="M836.2,535.4c0,1.6,1.3,3,3,3c1.6,0,3-1.3,3-3c0-1.6-1.3-3-3-3
	C837.4,532.4,836.2,533.8,836.2,535.4z"/>
<path id="XMLID_239_" class="st2" d="M846.2,535.4c0,1.6,1.4,3,3,3c1.7,0,2.9-1.3,2.9-3c0-1.6-1.3-3-2.9-3S846.2,533.8,846.2,535.4z
	"/>
<path id="XMLID_238_" class="st2" d="M856.4,535.4c0,1.6,1.2,3,2.9,3s3-1.3,3-3c0-1.6-1.3-3-3-3
	C857.6,532.4,856.4,533.8,856.4,535.4z"/>
<path id="XMLID_237_" class="st2" d="M866.4,535.4c0,1.6,1.3,3,3,3s2.9-1.3,2.9-3c0-1.6-1.2-3-2.9-3
	C867.8,532.4,866.4,533.8,866.4,535.4z"/>
<path id="XMLID_236_" class="st2" d="M876.6,535.4c0,1.6,1.3,3,2.9,3c1.7,0,3-1.3,3-3c0-1.6-1.3-3-3-3S876.6,533.8,876.6,535.4z"/>
<path id="XMLID_235_" class="st2" d="M886.6,535.4c0,1.6,1.4,3,3,3c1.7,0,2.9-1.3,2.9-3c0-1.6-1.3-3-2.9-3
	C888,532.4,886.6,533.8,886.6,535.4z"/>
<path id="XMLID_234_" class="st2" d="M897.1,535.4c0,1.6,1.3,3,2.9,3c1.7,0,3-1.3,3-3c0-1.6-1.3-3-3-3
	C898.4,532.4,897.1,533.8,897.1,535.4z"/>
<path id="XMLID_233_" class="st2" d="M907.6,535.4c0,1.6,1.3,3,3,3s2.9-1.3,2.9-3c0-1.6-1.3-3-2.9-3
	C908.9,532.4,907.6,533.8,907.6,535.4z"/>
<path id="XMLID_232_" class="st2" d="M918.7,535.4c0,1.6,1.3,3,3,3s2.9-1.3,2.9-3c0-1.6-1.2-3-2.9-3S918.7,533.8,918.7,535.4z"/>
<path id="XMLID_231_" class="st2" d="M928.8,535.4c0,1.6,1.3,3,2.9,3c1.7,0,3-1.3,3-3c0-1.6-1.3-3-3-3
	C930.1,532.4,928.8,533.8,928.8,535.4z"/>
<path id="XMLID_230_" class="st2" d="M938.9,535.4c0,1.6,1.4,3,3,3c1.7,0,2.9-1.3,2.9-3c0-1.6-1.3-3-2.9-3
	C940.2,532.4,938.9,533.8,938.9,535.4z"/>
<path id="XMLID_229_" class="st2" d="M949,535.4c0,1.6,1.3,3,2.9,3c1.7,0,3-1.3,3-3c0-1.6-1.3-3-3-3
	C950.3,532.4,949,533.8,949,535.4z"/>
<path id="XMLID_228_" class="st2" d="M959.1,535.4c0,1.6,1.3,3,3,3s2.9-1.3,2.9-3c0-1.6-1.3-3-2.9-3
	C960.4,532.4,959.1,533.8,959.1,535.4z"/>
<circle id="XMLID_227_" class="st2" cx="818.7" cy="535.4" r="3"/>
<circle id="XMLID_226_" class="st2" cx="808.4" cy="535.4" r="3"/>
<text id="XMLID_224_" transform="matrix(1 0 0 1 456.9004 510.8188)" class="st2 st5 st6 st7">LANGUAGES SPOKEN AT HOME</text>
<g id="XMLID_99_">
	<g id="XMLID_221_">
		<path id="XMLID_223_" class="st8" d="M1548.2,459.8c-0.1,5.5,1.1,19.8,1.1,19.8s1.7-14.3,1.8-19.7c0-1.8-0.6-3.2-1.4-3.2
			C1548.9,456.6,1548.3,458.1,1548.2,459.8z"/>
		<path id="XMLID_222_" class="st8" d="M1550.4,503.5c0.1-5.5-1.1-19.8-1.1-19.8s-1.7,14.3-1.8,19.7c0,1.8,0.6,3.2,1.4,3.2
			C1549.7,506.7,1550.3,505.3,1550.4,503.5z"/>
	</g>
	<path id="XMLID_220_" class="st9" d="M1539.9,482.1C1539.9,482.1,1539.9,482,1539.9,482.1L1539.9,482.1c-0.1-5.6,0.4-10.4,1.2-10.1
		c5.9,1.6,10,5.3,10.1,9.8l0,0l0,0l0,0l0,0l0,0l0,0c0.1,4.5-3.9,8.5-9.7,10.3C1540.8,492.4,1540.1,487.7,1539.9,482.1L1539.9,482.1
		L1539.9,482.1z"/>
	<path id="XMLID_219_" class="st8" d="M1380.9,447.2c15.3,0.3,18.5,4.9,25.6,19.9l2.9,5.8c15.2-3,33.1-5.3,54-5.4c1.2,0,2.9,0,4.9,0
		c0,2.7,6.1,6.7,13.7,6.6c7.5,0,13.6-4,13.6-6.7c13.7,0,33.8-0.1,42.2-0.1c2.1,0,3.9,1.7,3.9,3.9v0.8c-0.2,0-0.3-0.1-0.5-0.1
		c-0.8-0.2-1.3,4.5-1.2,10.1l0,0l0,0l0,0l0,0c0.1,5.6,0.9,10.3,1.7,10h0.1v0.5c0,1.4-0.9,3.3-2.1,4c-35.7,22.5-134.4-4.3-161.5-12.2
		c-0.9-0.3-1.6-1.2-1.6-2c0-0.9,0.7-1.7,1.6-2c1.3-0.4,2.7-0.7,4.1-1.1l-3.2-30.1C1378.9,448.1,1379.7,447.1,1380.9,447.2z"/>
	<circle id="XMLID_218_" class="st10" cx="1506.9" cy="518.9" r="11.3"/>
	<circle id="XMLID_217_" class="st9" cx="1506.9" cy="518.9" r="6.5"/>
	<path id="XMLID_216_" class="st8" d="M1524.5,516.7c0-9.4-7.7-17.1-17.1-17c-9.4,0-17.1,7.7-17,17.1L1524.5,516.7z"/>
	<g id="XMLID_214_">
		<path id="XMLID_215_" class="st9" d="M1417.1,482.4c0,1.5-1.3,2.7-3.6,2.7c-1.7,0-22-1.3-33.6-2.1c-0.5,0-0.8-0.3-0.8-0.5
			c0-0.3,0.4-0.5,0.8-0.6c11.6-0.8,31.9-2.2,33.6-2.2C1415.9,479.7,1417.1,480.9,1417.1,482.4z"/>
	</g>
	<path id="XMLID_213_" class="st11" d="M1538.7,436l-0.1-0.1C1538.6,436,1538.6,436,1538.7,436z"/>
	<path id="XMLID_212_" class="st11" d="M1539.4,436.6C1539.3,436.6,1539.3,436.6,1539.4,436.6
		C1539.3,436.6,1539.3,436.6,1539.4,436.6z"/>
	<path id="XMLID_211_" class="st11" d="M1537.1,435.4c-0.1,0-0.1,0-0.2,0C1537,435.4,1537.1,435.4,1537.1,435.4z"/>
	<path id="XMLID_210_" class="st11" d="M1539,436.3L1539,436.3C1539,436.3,1539,436.3,1539,436.3z"/>
	<path id="XMLID_209_" class="st11" d="M1537.6,435.6c-0.1,0-0.1,0-0.2,0C1537.5,435.5,1537.6,435.5,1537.6,435.6z"/>
	<path id="XMLID_208_" class="st11" d="M1538.1,435.7L1538.1,435.7L1538.1,435.7z"/>
	<path id="XMLID_207_" class="st11" d="M1540.2,439.3L1540.2,439.3L1540.2,439.3z"/>
	<path id="XMLID_206_" class="st11" d="M1476.9,443.5C1476.9,443.5,1476.8,443.5,1476.9,443.5
		C1476.8,443.5,1476.9,443.5,1476.9,443.5z"/>
	<path id="XMLID_205_" class="st11" d="M1539.7,437.1C1539.7,437,1539.6,437,1539.7,437.1C1539.6,437,1539.7,437,1539.7,437.1z"/>
	<path id="XMLID_204_" class="st11" d="M1540.2,438.9v-0.1C1540.2,438.8,1540.2,438.8,1540.2,438.9z"/>
	<path id="XMLID_203_" class="st11" d="M1540.1,437.9C1540.1,437.8,1540,437.8,1540.1,437.9C1540,437.8,1540.1,437.8,1540.1,437.9z"
		/>
	<path id="XMLID_202_" class="st11" d="M1540.2,438.4C1540.2,438.3,1540.2,438.3,1540.2,438.4
		C1540.2,438.3,1540.2,438.3,1540.2,438.4z"/>
	<path id="XMLID_201_" class="st11" d="M1539.9,437.5c0,0,0-0.1-0.1-0.1C1539.9,437.4,1539.9,437.4,1539.9,437.5z"/>
	<path id="XMLID_200_" class="st11" d="M1476.2,444L1476.2,444L1476.2,444z"/>
	<path id="XMLID_199_" class="st11" d="M1476.4,443.8L1476.4,443.8L1476.4,443.8z"/>
	<path id="XMLID_198_" class="st11" d="M1476.1,444.1L1476.1,444.1L1476.1,444.1z"/>
	<path id="XMLID_197_" class="st12" d="M1475.9,444.4c-0.1,0.3,0.1,1.3,1.6,0.9c7.9-2.2,29.4-8.1,55.5-3.8c6,1,7-1.4,7.2-2
		c-0.1,0.6-0.3,1.3-0.7,2l-9.8,15.6l-34.6,0.1l-18.2-11C1476,445.7,1475.7,445,1475.9,444.4z"/>
	<path id="XMLID_196_" class="st11" d="M1476,444.3L1476,444.3L1476,444.3z"/>
	<path id="XMLID_195_" class="st11" d="M1476.7,443.6C1476.6,443.6,1476.6,443.7,1476.7,443.6
		C1476.6,443.7,1476.6,443.6,1476.7,443.6z"/>
	<path id="XMLID_194_" class="st0" d="M1476.8,443.5c-0.1,0-0.1,0.1-0.2,0.1C1476.7,443.6,1476.8,443.6,1476.8,443.5z"/>
	<path id="XMLID_193_" class="st0" d="M1540,437.8c0-0.1-0.1-0.2-0.1-0.3C1540,437.6,1540,437.7,1540,437.8z"/>
	<path id="XMLID_192_" class="st0" d="M1476,444.2L1476,444.2C1476,444.2,1476,444.2,1476,444.2z"/>
	<path id="XMLID_191_" class="st0" d="M1540.2,438.3c0-0.1-0.1-0.3-0.1-0.4C1540.1,438,1540.1,438.1,1540.2,438.3z"/>
	<path id="XMLID_190_" class="st0" d="M1540.2,439.3c0-0.1,0-0.3,0-0.4C1540.2,439,1540.2,439.1,1540.2,439.3z"/>
	<path id="XMLID_189_" class="st0" d="M1475.9,444.4C1475.9,444.3,1475.9,444.3,1475.9,444.4L1475.9,444.4L1475.9,444.4z"/>
	<path id="XMLID_188_" class="st0" d="M1540.2,439.4v0.1C1540.2,439.4,1540.2,439.4,1540.2,439.4
		C1540.2,439.3,1540.2,439.4,1540.2,439.4z"/>
	<path id="XMLID_187_" class="st0" d="M1540.2,438.7c0-0.1,0-0.2,0-0.4C1540.2,438.5,1540.2,438.6,1540.2,438.7z"/>
	<path id="XMLID_186_" class="st0" d="M1539.8,437.3c0-0.1-0.1-0.2-0.2-0.3C1539.7,437.2,1539.8,437.3,1539.8,437.3z"/>
	<path id="XMLID_185_" class="st0" d="M1537.5,435.5c-0.1,0-0.2-0.1-0.4-0.1C1537.2,435.4,1537.4,435.5,1537.5,435.5z"/>
	<path id="XMLID_184_" class="st0" d="M1539.6,437c-0.1-0.1-0.2-0.2-0.3-0.3C1539.5,436.7,1539.5,436.9,1539.6,437z"/>
	<path id="XMLID_183_" class="st0" d="M1536.9,435.4c-0.2,0-0.4-0.1-0.6-0.1C1536.6,435.3,1536.8,435.3,1536.9,435.4z"/>
	<path id="XMLID_182_" class="st0" d="M1538.1,435.7c-0.1-0.1-0.3-0.1-0.4-0.2C1537.8,435.6,1537.9,435.7,1538.1,435.7z"/>
	<path id="XMLID_181_" class="st0" d="M1477.1,443.4c-0.1,0-0.2,0.1-0.3,0.1C1477,443.5,1477.1,443.4,1477.1,443.4z"/>
	<path id="XMLID_180_" class="st0" d="M1476.6,443.7C1476.5,443.7,1476.5,443.8,1476.6,443.7
		C1476.5,443.7,1476.5,443.7,1476.6,443.7z"/>
	<path id="XMLID_179_" class="st0" d="M1476.2,444l-0.1,0.1C1476.1,444.1,1476.1,444,1476.2,444z"/>
	<path id="XMLID_178_" class="st0" d="M1538.9,436.2c-0.1-0.1-0.2-0.1-0.3-0.2C1538.7,436.1,1538.8,436.2,1538.9,436.2z"/>
	<path id="XMLID_177_" class="st0" d="M1539.3,436.6c-0.1-0.1-0.2-0.2-0.3-0.3C1539.1,436.4,1539.2,436.5,1539.3,436.6z"/>
	<path id="XMLID_176_" class="st0" d="M1538.5,436c-0.1-0.1-0.3-0.2-0.4-0.2C1538.3,435.8,1538.4,435.9,1538.5,436z"/>
	<path id="XMLID_175_" class="st0" d="M1476.4,443.8c-0.1,0-0.1,0.1-0.2,0.1C1476.3,443.9,1476.3,443.9,1476.4,443.8z"/>
	<path id="XMLID_174_" class="st13" d="M1533,441.4c-26.1-4.3-47.6,1.6-55.5,3.8c-1.5,0.4-1.6-0.5-1.6-0.9v-0.1l0,0
		c0,0,0-0.1,0.1-0.1l0,0l0.1-0.1l0,0c0-0.1,0.1-0.1,0.2-0.1l0,0l0.1-0.1h0.1c0,0,0.1-0.1,0.2-0.1h0.1c0.1,0,0.2-0.1,0.3-0.1
		c8.1-3,30.9-11.5,59.2-8.1c0.2,0,0.4,0.1,0.6,0.1c0.1,0,0.1,0,0.2,0s0.3,0.1,0.4,0.1s0.1,0,0.2,0c0.1,0.1,0.3,0.1,0.4,0.2l0,0
		c0.1,0.1,0.3,0.1,0.4,0.2c0,0,0.1,0,0.1,0.1c0.1,0.1,0.2,0.1,0.3,0.2l0.1,0.1c0.1,0.1,0.2,0.2,0.3,0.3l0,0c0.1,0.1,0.2,0.2,0.3,0.3
		c0,0,0,0.1,0.1,0.1c0.1,0.1,0.1,0.2,0.2,0.3c0,0,0,0.1,0.1,0.1c0.1,0.1,0.1,0.2,0.1,0.3c0,0,0,0,0,0.1s0.1,0.3,0.1,0.4v0.1
		c0,0.1,0,0.2,0,0.4v0.1c0,0.1,0,0.3,0,0.4c0,0,0,0,0,0.1s0,0.1,0,0.2C1540,440.1,1538.9,442.4,1533,441.4z"/>
	<path id="XMLID_173_" class="st11" d="M1481.1,507.7c0.1,0,0.1,0,0.2,0C1481.2,507.7,1481.2,507.7,1481.1,507.7z"/>
	<path id="XMLID_172_" class="st11" d="M1481.4,507.7c0.1,0,0.2,0,0.2,0C1481.5,507.7,1481.4,507.7,1481.4,507.7z"/>
	<path id="XMLID_171_" class="st12" d="M1481.4,505.6l12.9-10.1c0.6-0.4,1.6-0.8,2.3-0.8c4-0.1,16-0.2,21.1-0.1
		c0.7,0,1.8,0.4,2.4,0.7l12,7.4c-5.1-1.9-26-1.9-50.1,3.2c-1.5,0.3-1.6,1.2-1.2,1.5c0.1,0.1,0.2,0.2,0.4,0.2
		C1480.3,507.5,1480.1,506.4,1481.4,505.6z"/>
	<path id="XMLID_170_" class="st0" d="M1481.1,507.7L1481.1,507.7L1481.1,507.7z"/>
	<path id="XMLID_168_" class="st0" d="M1481.3,507.7L1481.3,507.7L1481.3,507.7z"/>
	<path id="XMLID_134_" class="st13" d="M1481.9,506c24.1-5.2,45.1-5.1,50.1-3.2c0.3,0.2,1.3,1,1.3,1.9c0,1-0.8,1.7-1.5,1.6
		c-8.1-1.2-25.3-2.9-50.3,1.5c-0.1,0-0.2,0-0.2,0s0,0-0.1,0s-0.1,0-0.2,0c0,0,0,0-0.1,0s-0.3-0.1-0.4-0.2
		C1480.3,507.1,1480.5,506.3,1481.9,506z"/>
	<g id="XMLID_102_">
		<path id="XMLID_132_" class="st10" d="M1496.8,498.9c0.3,0.1,0.5-0.1,0.6-0.3l22.6-54.2c0.1-0.3,0-0.6-0.3-0.7
			c-0.3-0.1-0.6,0-0.7,0.3l-22.6,54.2C1496.4,498.5,1496.5,498.8,1496.8,498.9L1496.8,498.9z"/>
	</g>
	<g id="XMLID_100_">
		<path id="XMLID_101_" class="st10" d="M1518.4,498.6c0.1,0,0.2,0,0.3,0c0.3-0.1,0.4-0.4,0.3-0.7l-22-53.2
			c-0.1-0.3-0.4-0.4-0.7-0.3c-0.3,0.1-0.4,0.4-0.3,0.7l22,53.2C1518.1,498.5,1518.2,498.6,1518.4,498.6z"/>
	</g>
</g>
</svg>
