<?xml version="1.0" encoding="utf-8"?>
<!-- Generator: Adobe Illustrator 19.0.0, SVG Export Plug-In . SVG Version: 6.00 Build 0)  -->
<svg version="1.1" id="Layer_1" xmlns="http://www.w3.org/2000/svg" xmlns:xlink="http://www.w3.org/1999/xlink" x="0px" y="0px"
	 viewBox="0 0 1367.3 133.5" style="enable-background:new 0 0 1367.3 133.5;" xml:space="preserve">
<style type="text/css">
	.st0{fill:#007977;}
	.st1{fill-rule:evenodd;clip-rule:evenodd;fill:#4CAAA8;}
	.st2{fill-rule:evenodd;clip-rule:evenodd;fill:#FFFFFF;}
	.st3{fill-rule:evenodd;clip-rule:evenodd;fill:#248885;}
	.st4{fill-rule:evenodd;clip-rule:evenodd;fill:#64C6C6;}
	.st5{fill:#FFFFFF;}
	.st6{font-family:'Avenir-Heavy';}
	.st7{font-size:43.1554px;}
	.st8{letter-spacing:4;}
	.st9{fill:#F16646;}
	.st10{fill:#CCCBCB;}
	.st11{fill:#44261B;}
	.st12{fill:#00B5B2;}
	.st13{fill:#64C6C6;}
</style>
<path id="XMLID_465_" class="st0" d="M1076.8,14.5l120.3,33.7l-148.6,58.8L1076.8,14.5 M1075.7,12.4l-29.9,97.6l156.8-62
	L1075.7,12.4L1075.7,12.4z"/>
<g id="XMLID_225_">
	<polygon id="XMLID_464_" class="st1" points="14.4,133.5 149.1,133.5 77.8,47.8 0,47.8 43,93.9 	"/>
	<path id="XMLID_463_" class="st2" d="M42.3,121.8c1.6,0,3,1.3,3,3c0,1.6-1.3,3-3,3c-1.6,0-3-1.3-3-3
		C39.4,123.1,40.7,121.8,42.3,121.8L42.3,121.8z"/>
	<path id="XMLID_462_" class="st2" d="M52,121.8c1.6,0,3,1.3,3,3c0,1.6-1.3,3-3,3c-1.6,0-3-1.3-3-3C49,123.1,50.4,121.8,52,121.8z"
		/>
	<circle id="XMLID_461_" class="st2" cx="61.7" cy="124.8" r="3"/>
	<circle id="XMLID_460_" class="st2" cx="71.3" cy="124.8" r="3"/>
	<path id="XMLID_459_" class="st2" d="M81,121.8c1.6,0,3,1.3,3,3c0,1.6-1.3,3-3,3c-1.6,0-3-1.3-3-3C78.1,123.1,79.4,121.8,81,121.8z
		"/>
	<path id="XMLID_458_" class="st2" d="M90.7,121.8c1.6,0,3,1.3,3,3c0,1.6-1.3,3-3,3c-1.6,0-3-1.3-3-3
		C87.7,123.1,89.1,121.8,90.7,121.8z"/>
	<path id="XMLID_457_" class="st2" d="M100.4,121.8c1.6,0,3,1.3,3,3c0,1.6-1.3,3-3,3c-1.6,0-3-1.3-3-3
		C97.4,123.1,98.7,121.8,100.4,121.8z"/>
	<path id="XMLID_456_" class="st2" d="M110.1,121.8c1.6,0,3,1.3,3,3c0,1.6-1.3,3-3,3c-1.7,0-3-1.3-3-3
		C107.1,123.1,108.4,121.8,110.1,121.8z"/>
	<path id="XMLID_455_" class="st2" d="M119.7,121.8c1.6,0,3,1.3,3,3c0,1.6-1.3,3-3,3c-1.6,0-3-1.3-3-3
		C116.7,123.1,118.1,121.8,119.7,121.8z"/>
	<circle id="XMLID_454_" class="st2" cx="129.4" cy="124.8" r="3"/>
	<path id="XMLID_453_" class="st2" d="M70.7,54.4c1.6,0,3,1.3,3,3c0,1.6-1.3,3-3,3c-1.6,0-3-1.3-3-3C67.7,55.8,69,54.4,70.7,54.4z"
		/>
	<path id="XMLID_452_" class="st2" d="M61,54.4c1.6,0,3,1.3,3,3c0,1.6-1.3,3-3,3c-1.7,0-3-1.3-3-3C58,55.8,59.4,54.4,61,54.4z"/>
	<circle id="XMLID_451_" class="st2" cx="51.3" cy="57.4" r="3"/>
	<path id="XMLID_450_" class="st2" d="M41.7,54.4c1.6,0,3,1.3,3,3c0,1.6-1.3,3-3,3c-1.6,0-3-1.3-3-3C38.7,55.8,40,54.4,41.7,54.4z"
		/>
	<path id="XMLID_449_" class="st2" d="M32,54.4c1.6,0,3,1.3,3,3c0,1.6-1.3,3-3,3c-1.6,0-3-1.3-3-3C29,55.8,30.4,54.4,32,54.4z"/>
	<path id="XMLID_448_" class="st2" d="M22.1,54.4c1.6,0,3,1.3,3,3c0,1.6-1.3,3-3,3c-1.6,0-3-1.3-3-3C19.1,55.8,20.4,54.4,22.1,54.4z
		"/>
	<path id="XMLID_447_" class="st2" d="M28.7,62.2c1.6,0,3,1.3,3,3c0,1.6-1.3,3-3,3c-1.6,0-3-1.3-3-3C25.7,63.5,27,62.2,28.7,62.2z"
		/>
	<path id="XMLID_446_" class="st2" d="M35.3,69.3c1.6,0,3,1.3,3,3c0,1.6-1.3,3-3,3c-1.6,0-3-1.3-3-3C32.3,70.6,33.6,69.3,35.3,69.3z
		"/>
	<path id="XMLID_445_" class="st2" d="M41.9,76.3c1.6,0,3,1.3,3,3c0,1.6-1.3,3-3,3c-1.6,0-3-1.3-3-3C38.9,77.7,40.2,76.3,41.9,76.3z
		"/>
	<circle id="XMLID_444_" class="st2" cx="48.5" cy="86.4" r="3"/>
	<path id="XMLID_443_" class="st2" d="M55.1,90.5c1.6,0,3,1.3,3,3c0,1.6-1.3,3-3,3c-1.6,0-3-1.3-3-3C52.1,91.8,53.5,90.5,55.1,90.5z
		"/>
	<path id="XMLID_442_" class="st2" d="M49.7,98.3c1.6,0,3,1.3,3,3c0,1.6-1.3,3-3,3c-1.6,0-3-1.3-3-3C46.7,99.6,48,98.3,49.7,98.3z"
		/>
	<path id="XMLID_441_" class="st2" d="M44,106.1c1.6,0,3,1.3,3,3c0,1.6-1.3,3-3,3c-1.6,0-3-1.3-3-3C41,107.4,42.4,106.1,44,106.1z"
		/>
	<path id="XMLID_440_" class="st2" d="M38.3,113.9c1.6,0,3,1.3,3,3c0,1.6-1.3,3-3,3c-1.6,0-3-1.3-3-3
		C35.4,115.3,36.7,113.9,38.3,113.9z"/>
	<circle id="XMLID_439_" class="st2" cx="1060" cy="57.4" r="3"/>
	<path id="XMLID_438_" class="st2" d="M32.7,121.8c1.6,0,3,1.3,3,3c0,1.6-1.3,3-3,3c-1.6,0-3-1.3-3-3
		C29.7,123.1,31,121.8,32.7,121.8z"/>
	<polygon id="XMLID_437_" class="st3" points="149.1,133.5 129.8,108.1 87.8,108 83.1,110 	"/>
	<path id="XMLID_436_" class="st4" d="M83.1,110c243.3,0,721.1,0,964.4,0l29.9-97.6c-263.2,0-760.9,0-1024.2,0L83.1,110z"/>
	<path id="XMLID_273_" class="st2" d="M1058.8,38.9c1.6,0,3,1.3,3,3c0,1.6-1.3,3-3,3c-1.6,0-3-1.3-3-3
		C1055.9,40.2,1057.2,38.9,1058.8,38.9L1058.8,38.9z M1055.9,48.5c1.6,0,3,1.3,3,3c0,1.6-1.3,3-3,3c-1.6,0-3-1.3-3-3
		C1052.9,49.9,1054.2,48.5,1055.9,48.5z M1052.9,58.2c1.6,0,3,1.3,3,3c0,1.6-1.3,3-3,3c-1.7,0-3-1.3-3-3
		C1050,59.5,1051.3,58.2,1052.9,58.2z M1050,67.9c1.7,0,3,1.3,3,3c0,1.6-1.3,3-3,3c-1.6,0-3-1.3-3-3
		C1047,69.2,1048.3,67.9,1050,67.9z M1047,77.5c1.6,0,3,1.3,3,3c0,1.6-1.3,3-3,3c-1.6,0-3-1.3-3-3C1044,78.9,1045.4,77.5,1047,77.5z
		 M1043.8,88.1c1.6,0,3,1.3,3,3c0,1.6-1.3,3-3,3c-1.6,0-3-1.3-3-3C1040.8,89.4,1042.1,88.1,1043.8,88.1z M71.8,38.9
		c-1.6,0-3,1.3-3,3c0,1.6,1.3,3,3,3c1.6,0,3-1.3,3-3C74.8,40.2,73.5,38.9,71.8,38.9z M74.8,48.5c-1.6,0-3,1.3-3,3c0,1.6,1.3,3,3,3
		c1.6,0,3-1.3,3-3C77.8,49.9,76.4,48.5,74.8,48.5z M77.8,58.2c-1.6,0-3,1.3-3,3c0,1.6,1.3,3,3,3c1.6,0,3-1.3,3-3
		C80.7,59.5,79.4,58.2,77.8,58.2z M80.7,67.9c-1.6,0-3,1.3-3,3c0,1.6,1.3,3,3,3c1.6,0,3-1.3,3-3C83.7,69.2,82.4,67.9,80.7,67.9z
		 M83.7,77.5c-1.6,0-3,1.3-3,3c0,1.6,1.3,3,3,3c1.6,0,3-1.3,3-3C86.6,78.9,85.3,77.5,83.7,77.5z M86.9,88.1c-1.6,0-3,1.3-3,3
		c0,1.6,1.3,3,3,3c1.6,0,3-1.3,3-3C89.9,89.4,88.5,88.1,86.9,88.1z M68.7,28.7c-1.6,0-3,1.3-3,3c0,1.6,1.3,3,3,3c1.6,0,3-1.3,3-3
		C71.7,30,70.3,28.7,68.7,28.7z M427.7,18.6c-1.6,0-3,1.3-3,3c0,1.6,1.3,3,3,3c1.6,0,3-1.3,3-3C430.7,19.9,429.4,18.6,427.7,18.6z
		 M417.6,18.6c-1.6,0-3,1.3-3,3c0,1.6,1.3,3,3,3c1.6,0,3-1.3,3-3C420.6,19.9,419.2,18.6,417.6,18.6z M407.5,18.6c-1.6,0-3,1.3-3,3
		c0,1.6,1.3,3,3,3c1.6,0,3-1.3,3-3C410.5,19.9,409.1,18.6,407.5,18.6z M397.4,18.6c-1.6,0-3,1.3-3,3c0,1.6,1.3,3,3,3
		c1.6,0,3-1.3,3-3C400.4,19.9,399,18.6,397.4,18.6z M387.3,18.6c-1.6,0-3,1.3-3,3c0,1.6,1.3,3,3,3c1.6,0,3-1.3,3-3
		C390.3,19.9,388.9,18.6,387.3,18.6z M377.2,18.6c-1.6,0-3,1.3-3,3c0,1.6,1.3,3,3,3c1.6,0,3-1.3,3-3
		C380.1,19.9,378.8,18.6,377.2,18.6z M367.1,18.6c-1.6,0-3,1.3-3,3c0,1.6,1.3,3,3,3c1.6,0,3-1.3,3-3C370,19.9,368.7,18.6,367.1,18.6
		z M357,18.6c-1.6,0-3,1.3-3,3c0,1.6,1.3,3,3,3c1.6,0,3-1.3,3-3C359.9,19.9,358.6,18.6,357,18.6z M346.9,18.6c-1.6,0-3,1.3-3,3
		c0,1.6,1.3,3,3,3c1.6,0,3-1.3,3-3C349.8,19.9,348.5,18.6,346.9,18.6z M336.7,18.6c-1.6,0-3,1.3-3,3c0,1.6,1.3,3,3,3
		c1.6,0,3-1.3,3-3C339.7,19.9,338.4,18.6,336.7,18.6z M326.6,18.6c-1.6,0-3,1.3-3,3c0,1.6,1.3,3,3,3c1.6,0,3-1.3,3-3
		C329.6,19.9,328.3,18.6,326.6,18.6z M316.5,18.6c-1.6,0-3,1.3-3,3c0,1.6,1.3,3,3,3c1.6,0,3-1.3,3-3
		C319.5,19.9,318.2,18.6,316.5,18.6z M306.4,18.6c-1.6,0-3,1.3-3,3c0,1.6,1.3,3,3,3c1.6,0,3-1.3,3-3
		C309.4,19.9,308.1,18.6,306.4,18.6z M296.3,18.6c-1.6,0-3,1.3-3,3c0,1.6,1.3,3,3,3c1.6,0,3-1.3,3-3C299.3,19.9,298,18.6,296.3,18.6
		z M286.2,18.6c-1.6,0-3,1.3-3,3c0,1.6,1.3,3,3,3c1.6,0,3-1.3,3-3C289.2,19.9,287.9,18.6,286.2,18.6z M276.1,18.6c-1.6,0-3,1.3-3,3
		c0,1.6,1.3,3,3,3c1.6,0,3-1.3,3-3C279.1,19.9,277.7,18.6,276.1,18.6z M266,18.6c-1.6,0-3,1.3-3,3c0,1.6,1.3,3,3,3c1.6,0,3-1.3,3-3
		C269,19.9,267.6,18.6,266,18.6z M255.9,18.6c-1.6,0-3,1.3-3,3c0,1.6,1.3,3,3,3c1.6,0,3-1.3,3-3C258.9,19.9,257.5,18.6,255.9,18.6z
		 M245.8,18.6c-1.6,0-3,1.3-3,3c0,1.6,1.3,3,3,3s3-1.3,3-3C248.8,19.9,247.4,18.6,245.8,18.6z M235.7,18.6c-1.6,0-3,1.3-3,3
		c0,1.6,1.3,3,3,3c1.6,0,3-1.3,3-3C238.7,19.9,237.3,18.6,235.7,18.6z M225.6,18.6c-1.6,0-3,1.3-3,3c0,1.6,1.3,3,3,3
		c1.6,0,3-1.3,3-3C228.5,19.9,227.2,18.6,225.6,18.6z M215.5,18.6c-1.6,0-3,1.3-3,3c0,1.6,1.3,3,3,3c1.6,0,3-1.3,3-3
		C218.4,19.9,217.1,18.6,215.5,18.6z M205.4,18.6c-1.6,0-3,1.3-3,3c0,1.6,1.3,3,3,3c1.6,0,3-1.3,3-3C208.3,19.9,207,18.6,205.4,18.6
		z M195.3,18.6c-1.6,0-3,1.3-3,3c0,1.6,1.3,3,3,3c1.6,0,3-1.3,3-3C198.2,19.9,196.9,18.6,195.3,18.6z M185.1,18.6c-1.6,0-3,1.3-3,3
		c0,1.6,1.3,3,3,3c1.6,0,3-1.3,3-3C188.1,19.9,186.8,18.6,185.1,18.6z M175,18.6c-1.6,0-3,1.3-3,3c0,1.6,1.3,3,3,3c1.6,0,3-1.3,3-3
		C178,19.9,176.7,18.6,175,18.6z M164.9,18.6c-1.6,0-3,1.3-3,3c0,1.6,1.3,3,3,3c1.6,0,3-1.3,3-3C167.9,19.9,166.6,18.6,164.9,18.6z
		 M154.8,18.6c-1.6,0-3,1.3-3,3c0,1.6,1.3,3,3,3c1.6,0,3-1.3,3-3C157.8,19.9,156.5,18.6,154.8,18.6z M144.7,18.6c-1.6,0-3,1.3-3,3
		c0,1.6,1.3,3,3,3c1.6,0,3-1.3,3-3C147.7,19.9,146.4,18.6,144.7,18.6z M134.6,18.6c-1.6,0-3,1.3-3,3c0,1.6,1.3,3,3,3
		c1.6,0,3-1.3,3-3C137.6,19.9,136.3,18.6,134.6,18.6z M124.5,18.6c-1.6,0-3,1.3-3,3c0,1.6,1.3,3,3,3c1.6,0,3-1.3,3-3
		C127.5,19.9,126.2,18.6,124.5,18.6z M114.4,18.6c-1.6,0-3,1.3-3,3c0,1.6,1.3,3,3,3c1.6,0,3-1.3,3-3C117.4,19.9,116,18.6,114.4,18.6
		z M104.3,18.6c-1.6,0-3,1.3-3,3c0,1.6,1.3,3,3,3c1.6,0,3-1.3,3-3C107.3,19.9,105.9,18.6,104.3,18.6z M94.2,18.6c-1.6,0-3,1.3-3,3
		c0,1.6,1.3,3,3,3c1.6,0,3-1.3,3-3C97.2,19.9,95.8,18.6,94.2,18.6z M84.1,18.6c-1.6,0-3,1.3-3,3c0,1.6,1.3,3,3,3c1.6,0,3-1.3,3-3
		C87.1,19.9,85.7,18.6,84.1,18.6z M74,18.6c-1.6,0-3,1.3-3,3c0,1.6,1.3,3,3,3c1.6,0,3-1.3,3-3C76.9,19.9,75.6,18.6,74,18.6z
		 M65.2,18.6c-1.6,0-3,1.3-3,3c0,1.6,1.3,3,3,3c1.6,0,3-1.3,3-3C68.1,19.9,66.8,18.6,65.2,18.6z M458.4,18.6c1.6,0,2.9,1.3,2.9,3
		c0,1.6-1.3,3-2.9,3c-1.7,0-3-1.3-3-3C455.4,19.9,456.8,18.6,458.4,18.6z M468.5,18.6c1.6,0,3,1.3,3,3c0,1.6-1.3,3-3,3
		c-1.7,0-3-1.3-3-3C465.6,19.9,466.8,18.6,468.5,18.6z M478.6,18.6c1.7,0,2.9,1.3,2.9,3c0,1.6-1.3,3-2.9,3c-1.7,0-3-1.3-3-3
		C475.6,19.9,477,18.6,478.6,18.6z M488.7,18.6c1.7,0,3,1.3,3,3c0,1.6-1.3,3-3,3c-1.7,0-2.9-1.3-2.9-3
		C485.8,19.9,487,18.6,488.7,18.6z M498.8,18.6c1.7,0,2.9,1.3,2.9,3c0,1.6-1.2,3-2.9,3c-1.7,0-3-1.3-3-3
		C495.8,19.9,497.2,18.6,498.8,18.6z M508.9,18.6c1.7,0,3,1.3,3,3c0,1.6-1.3,3-3,3c-1.6,0-2.9-1.3-2.9-3
		C506,19.9,507.2,18.6,508.9,18.6z M519,18.6c1.7,0,2.9,1.3,2.9,3c0,1.6-1.3,3-2.9,3c-1.6,0-3-1.3-3-3C516,19.9,517.4,18.6,519,18.6
		z M529.1,18.6c1.7,0,3,1.3,3,3c0,1.6-1.3,3-3,3c-1.6,0-2.9-1.3-2.9-3C526.2,19.9,527.4,18.6,529.1,18.6z M539.2,18.6
		c1.7,0,2.9,1.3,2.9,3c0,1.6-1.3,3-2.9,3c-1.7,0-3-1.3-3-3C536.2,19.9,537.6,18.6,539.2,18.6z M783.7,18.6c1.8,0,3,1.3,3,3
		c0,1.6-1.2,3-3,3c-1.6,0-2.9-1.3-2.9-3C780.9,19.9,782.1,18.6,783.7,18.6z M793.9,18.6c1.7,0,3,1.3,3,3c0,1.6-1.3,3-3,3
		c-1.7,0-3-1.3-3-3C790.9,19.9,792.3,18.6,793.9,18.6z M804,18.6c1.7,0,3,1.3,3,3c0,1.6-1.3,3-3,3c-1.6,0-3-1.3-3-3
		C801.1,19.9,802.4,18.6,804,18.6z M814.1,18.6c1.7,0,3,1.3,3,3c0,1.6-1.4,3-3,3c-1.6,0-2.9-1.3-2.9-3
		C811.2,19.9,812.5,18.6,814.1,18.6z M824.3,18.6c1.7,0,2.9,1.3,2.9,3c0,1.6-1.3,3-2.9,3c-1.6,0-3-1.3-3-3
		C821.3,19.9,822.6,18.6,824.3,18.6z M834.3,18.6c1.7,0,3,1.3,3,3c0,1.6-1.4,3-3,3c-1.7,0-2.9-1.3-2.9-3
		C831.4,19.9,832.7,18.6,834.3,18.6z M844.5,18.6c1.7,0,2.9,1.3,2.9,3c0,1.6-1.3,3-2.9,3c-1.7,0-3-1.3-3-3
		C841.5,19.9,842.8,18.6,844.5,18.6z M854.6,18.6c1.6,0,2.9,1.3,2.9,3c0,1.6-1.4,3-2.9,3c-1.7,0-3-1.3-3-3
		C851.6,19.9,853,18.6,854.6,18.6z M864.6,18.6c1.7,0,3.1,1.3,3.1,3c0,1.6-1.4,3-3.1,3c-1.6,0-2.9-1.3-2.9-3
		C861.7,19.9,863,18.6,864.6,18.6z M874.8,18.6c1.6,0,3,1.3,3,3c0,1.6-1.4,3-3,3c-1.6,0-3-1.3-3-3C871.8,19.9,873.2,18.6,874.8,18.6
		z M884.9,18.6c1.7,0,3,1.3,3,3c0,1.6-1.4,3-3,3c-1.7,0-2.9-1.3-2.9-3C882,19.9,883.2,18.6,884.9,18.6z M895,18.6
		c1.6,0,2.9,1.3,2.9,3c0,1.6-1.3,3-2.9,3c-1.7,0-3-1.3-3-3C892,19.9,893.4,18.6,895,18.6z M905.1,18.6c1.7,0,3,1.3,3,3
		c0,1.6-1.4,3-3,3c-1.7,0-2.9-1.3-2.9-3C902.2,19.9,903.4,18.6,905.1,18.6z M915.2,18.6c1.7,0,2.9,1.3,2.9,3c0,1.6-1.3,3-2.9,3
		c-1.7,0-3-1.3-3-3C912.2,19.9,913.6,18.6,915.2,18.6z M925.3,18.6c1.7,0,3.1,1.3,3.1,3c0,1.6-1.4,3-3.1,3c-1.6,0-2.9-1.3-2.9-3
		C922.4,19.9,923.6,18.6,925.3,18.6z M935.4,18.6c1.6,0,3,1.3,3,3c0,1.6-1.3,3-3,3c-1.6,0-3-1.3-3-3
		C932.4,19.9,933.8,18.6,935.4,18.6z M945.5,18.6c1.7,0,3,1.3,3,3c0,1.6-1.4,3-3,3c-1.7,0-2.9-1.3-2.9-3
		C942.6,19.9,943.8,18.6,945.5,18.6z M955.6,18.6c1.6,0,2.9,1.3,2.9,3c0,1.6-1.3,3-2.9,3c-1.7,0-3-1.3-3-3
		C952.6,19.9,954,18.6,955.6,18.6z M965.7,18.6c1.7,0,3,1.3,3,3c0,1.6-1.3,3-3,3c-1.7,0-2.9-1.3-2.9-3
		C962.8,19.9,964,18.6,965.7,18.6z M975.8,18.6c1.7,0,3,1.3,3,3c0,1.6-1.4,3-3,3c-1.6,0-3-1.3-3-3C972.8,19.9,974.2,18.6,975.8,18.6
		z M986,18.6c1.7,0,3,1.3,3,3c0,1.6-1.3,3-3,3c-1.6,0-3-1.3-3-3C983,19.9,984.3,18.6,986,18.6z M996,18.6c1.6,0,3.1,1.3,3.1,3
		c0,1.6-1.4,3-3.1,3c-1.6,0-3-1.3-3-3C993.1,19.9,994.4,18.6,996,18.6z M1006.2,18.6c1.6,0,3,1.3,3,3c0,1.6-1.4,3-3,3
		c-1.6,0-3-1.3-3-3C1003.2,19.9,1004.5,18.6,1006.2,18.6z M1016.3,18.6c1.6,0,3,1.3,3,3c0,1.6-1.4,3-3,3c-1.7,0-2.9-1.3-2.9-3
		C1013.3,19.9,1014.6,18.6,1016.3,18.6z M1026.4,18.6c1.7,0,3,1.3,3,3c0,1.6-1.3,3-3,3c-1.6,0-3-1.3-3-3
		C1023.4,19.9,1024.8,18.6,1026.4,18.6z M1036.4,18.6c1.7,0,3.1,1.3,3.1,3c0,1.6-1.4,3-3.1,3c-1.5,0-2.9-1.3-2.9-3
		C1033.5,19.9,1034.9,18.6,1036.4,18.6z M1046.6,18.6c1.7,0,3,1.3,3,3c0,1.6-1.4,3-3,3c-1.6,0-3-1.3-3-3
		C1043.6,19.9,1044.9,18.6,1046.6,18.6z M1056.7,18.6c1.7,0,3,1.3,3,3c0,1.6-1.3,3-3,3c-1.6,0-3-1.3-3-3
		C1053.7,19.9,1055.1,18.6,1056.7,18.6z M1065.5,18.6c1.6,0,2.9,1.3,2.9,3c0,1.6-1.3,3-2.9,3c-1.6,0-3-1.3-3-3
		C1062.5,19.9,1063.9,18.6,1065.5,18.6z M448.1,18.6c1.6,0,3,1.3,3,3c0,1.6-1.3,3-3,3c-1.6,0-3-1.3-3-3
		C445.1,19.9,446.5,18.6,448.1,18.6z M437.8,18.6c-1.6,0-3,1.3-3,3c0,1.6,1.3,3,3,3c1.6,0,3-1.3,3-3
		C440.8,19.9,439.5,18.6,437.8,18.6z M1031,97.9c-1.6,0-3,1.3-3,3c0,1.6,1.3,3,3,3c1.6,0,3-1.3,3-3C1034,99.3,1032.6,97.9,1031,97.9
		z M1020.9,97.9c-1.6,0-3,1.3-3,3c0,1.6,1.3,3,3,3s3-1.3,3-3C1023.9,99.3,1022.5,97.9,1020.9,97.9z M1010.8,97.9c-1.6,0-3,1.3-3,3
		c0,1.6,1.3,3,3,3c1.6,0,3-1.3,3-3C1013.8,99.3,1012.4,97.9,1010.8,97.9z M1000.7,97.9c-1.6,0-3,1.3-3,3c0,1.6,1.3,3,3,3
		c1.6,0,3-1.3,3-3C1003.6,99.3,1002.3,97.9,1000.7,97.9z M990.6,97.9c-1.6,0-3,1.3-3,3c0,1.6,1.3,3,3,3c1.6,0,3-1.3,3-3
		C993.5,99.3,992.2,97.9,990.6,97.9z M980.5,97.9c-1.6,0-3,1.3-3,3c0,1.6,1.3,3,3,3c1.6,0,3-1.3,3-3
		C983.4,99.3,982.1,97.9,980.5,97.9z M970.4,97.9c-1.6,0-3,1.3-3,3c0,1.6,1.3,3,3,3c1.6,0,3-1.3,3-3C973.3,99.3,972,97.9,970.4,97.9
		z M960.2,97.9c-1.6,0-3,1.3-3,3c0,1.6,1.3,3,3,3c1.6,0,3-1.3,3-3C963.2,99.3,961.9,97.9,960.2,97.9z M950.1,97.9c-1.6,0-3,1.3-3,3
		c0,1.6,1.3,3,3,3c1.6,0,3-1.3,3-3C953.1,99.3,951.8,97.9,950.1,97.9z M940,97.9c-1.6,0-3,1.3-3,3c0,1.6,1.3,3,3,3c1.6,0,3-1.3,3-3
		C943,99.3,941.7,97.9,940,97.9z M929.9,97.9c-1.6,0-3,1.3-3,3c0,1.6,1.3,3,3,3c1.6,0,3-1.3,3-3C932.9,99.3,931.6,97.9,929.9,97.9z
		 M919.8,97.9c-1.6,0-3,1.3-3,3c0,1.6,1.3,3,3,3c1.6,0,3-1.3,3-3C922.8,99.3,921.5,97.9,919.8,97.9z M909.7,97.9c-1.6,0-3,1.3-3,3
		c0,1.6,1.3,3,3,3c1.6,0,3-1.3,3-3C912.7,99.3,911.4,97.9,909.7,97.9z M899.6,97.9c-1.6,0-3,1.3-3,3c0,1.6,1.3,3,3,3
		c1.6,0,3-1.3,3-3C902.6,99.3,901.3,97.9,899.6,97.9z M889.5,97.9c-1.6,0-3,1.3-3,3c0,1.6,1.3,3,3,3c1.6,0,3-1.3,3-3
		C892.5,99.3,891.1,97.9,889.5,97.9z M879.4,97.9c-1.6,0-3,1.3-3,3c0,1.6,1.3,3,3,3c1.6,0,3-1.3,3-3C882.4,99.3,881,97.9,879.4,97.9
		z M869.3,97.9c-1.6,0-3,1.3-3,3c0,1.6,1.3,3,3,3c1.6,0,3-1.3,3-3C872.3,99.3,870.9,97.9,869.3,97.9z M859.2,97.9c-1.6,0-3,1.3-3,3
		c0,1.6,1.3,3,3,3c1.6,0,3-1.3,3-3C862.2,99.3,860.8,97.9,859.2,97.9z M849.1,97.9c-1.6,0-3,1.3-3,3c0,1.6,1.3,3,3,3
		c1.6,0,3-1.3,3-3C852,99.3,850.7,97.9,849.1,97.9z M839,97.9c-1.6,0-3,1.3-3,3c0,1.6,1.3,3,3,3c1.6,0,3-1.3,3-3
		C841.9,99.3,840.6,97.9,839,97.9z M828.9,97.9c-1.6,0-3,1.3-3,3c0,1.6,1.3,3,3,3c1.6,0,3-1.3,3-3C831.8,99.3,830.5,97.9,828.9,97.9
		z M818.8,97.9c-1.6,0-3,1.3-3,3c0,1.6,1.3,3,3,3c1.6,0,3-1.3,3-3C821.7,99.3,820.4,97.9,818.8,97.9z M808.6,97.9c-1.6,0-3,1.3-3,3
		c0,1.6,1.3,3,3,3c1.6,0,3-1.3,3-3C811.6,99.3,810.3,97.9,808.6,97.9z M798.5,97.9c-1.6,0-3,1.3-3,3c0,1.6,1.3,3,3,3s3-1.3,3-3
		C801.5,99.3,800.2,97.9,798.5,97.9z M788.4,97.9c-1.6,0-3,1.3-3,3c0,1.6,1.3,3,3,3c1.6,0,3-1.3,3-3
		C791.4,99.3,790.1,97.9,788.4,97.9z M533.8,97.9c-1.6,0-3,1.3-3,3c0,1.6,1.3,3,3,3c1.6,0,3-1.3,3-3
		C536.7,99.3,535.4,97.9,533.8,97.9z M523.6,97.9c-1.6,0-3,1.3-3,3c0,1.6,1.3,3,3,3c1.6,0,3-1.3,3-3
		C526.6,99.3,525.3,97.9,523.6,97.9z M513.5,97.9c-1.6,0-3,1.3-3,3c0,1.6,1.3,3,3,3c1.6,0,3-1.3,3-3
		C516.5,99.3,515.2,97.9,513.5,97.9z M503.4,97.9c-1.6,0-3,1.3-3,3c0,1.6,1.3,3,3,3c1.6,0,3-1.3,3-3
		C506.4,99.3,505.1,97.9,503.4,97.9z M493.3,97.9c-1.6,0-3,1.3-3,3c0,1.6,1.3,3,3,3c1.6,0,3-1.3,3-3C496.3,99.3,495,97.9,493.3,97.9
		z M483.2,97.9c-1.6,0-3,1.3-3,3c0,1.6,1.3,3,3,3c1.6,0,3-1.3,3-3C486.2,99.3,484.9,97.9,483.2,97.9z M473.1,97.9c-1.6,0-3,1.3-3,3
		c0,1.6,1.3,3,3,3c1.6,0,3-1.3,3-3C476.1,99.3,474.8,97.9,473.1,97.9z M463,97.9c-1.6,0-3,1.3-3,3c0,1.6,1.3,3,3,3c1.6,0,3-1.3,3-3
		C466,99.3,464.6,97.9,463,97.9z M452.9,97.9c-1.6,0-3,1.3-3,3c0,1.6,1.3,3,3,3c1.6,0,3-1.3,3-3C455.9,99.3,454.5,97.9,452.9,97.9z
		 M1040.2,97.9c-1.6,0-3,1.3-3,3c0,1.6,1.3,3,3,3c1.6,0,3-1.3,3-3C1043.2,99.3,1041.8,97.9,1040.2,97.9z M99.7,97.9
		c1.6,0,2.9,1.3,2.9,3c0,1.6-1.3,3-2.9,3c-1.7,0-3-1.3-3-3C96.7,99.3,98,97.9,99.7,97.9z M109.8,97.9c1.7,0,3,1.3,3,3
		c0,1.6-1.3,3-3,3c-1.6,0-2.9-1.3-2.9-3C106.9,99.3,108.2,97.9,109.8,97.9z M119.8,97.9c1.7,0,3.1,1.3,3.1,3c0,1.6-1.4,3-3.1,3
		c-1.5,0-2.8-1.3-2.8-3C117,99.3,118.3,97.9,119.8,97.9z M130,97.9c1.6,0,3,1.3,3,3c0,1.6-1.4,3-3,3c-1.6,0-2.9-1.3-2.9-3
		C127,99.3,128.4,97.9,130,97.9z M140.1,97.9c1.6,0,2.9,1.3,2.9,3c0,1.6-1.3,3-2.9,3c-1.7,0-2.9-1.3-2.9-3
		C137.2,99.3,138.4,97.9,140.1,97.9z M150.3,97.9c1.5,0,2.9,1.3,2.9,3c0,1.6-1.4,3-2.9,3c-1.6,0-3-1.3-3-3
		C147.3,99.3,148.6,97.9,150.3,97.9z M160.3,97.9c1.7,0,3,1.3,3,3c0,1.6-1.4,3-3,3c-1.6,0-3-1.3-3-3
		C157.3,99.3,158.7,97.9,160.3,97.9z M170.4,97.9c1.7,0,3,1.3,3,3c0,1.6-1.3,3-3,3c-1.7,0-3-1.3-3-3
		C167.4,99.3,168.7,97.9,170.4,97.9z M180.5,97.9c1.6,0,3,1.3,3,3c0,1.6-1.4,3-3,3c-1.7,0-3-1.3-3-3
		C177.5,99.3,178.9,97.9,180.5,97.9z M190.6,97.9c1.8,0,3,1.3,3,3c0,1.6-1.3,3-3,3c-1.5,0-2.8-1.3-2.8-3
		C187.7,99.3,189,97.9,190.6,97.9z M200.7,97.9c1.7,0,3.1,1.3,3.1,3c0,1.6-1.4,3-3.1,3c-1.5,0-2.9-1.3-2.9-3
		C197.8,99.3,199.2,97.9,200.7,97.9z M210.8,97.9c1.7,0,3,1.3,3,3c0,1.6-1.3,3-3,3c-1.5,0-2.9-1.3-2.9-3
		C207.9,99.3,209.2,97.9,210.8,97.9z M221,97.9c1.5,0,2.8,1.3,2.8,3c0,1.6-1.3,3-2.8,3c-1.6,0-3-1.3-3-3
		C218,99.3,219.4,97.9,221,97.9z M231.1,97.9c1.6,0,2.9,1.3,2.9,3c0,1.6-1.4,3-2.9,3c-1.6,0-3-1.3-3-3
		C228,99.3,229.4,97.9,231.1,97.9z M241.2,97.9c1.7,0,3,1.3,3,3c0,1.6-1.3,3-3,3c-1.7,0-3-1.3-3-3C238.2,99.3,239.5,97.9,241.2,97.9
		z M251.3,97.9c1.6,0,3,1.3,3,3c0,1.6-1.4,3-3,3c-1.7,0-3-1.3-3-3C248.3,99.3,249.6,97.9,251.3,97.9z M261.3,97.9c1.7,0,3,1.3,3,3
		c0,1.6-1.3,3-3,3c-1.6,0-2.9-1.3-2.9-3C258.4,99.3,259.7,97.9,261.3,97.9z M271.5,97.9c1.7,0,3,1.3,3,3c0,1.6-1.3,3-3,3
		c-1.6,0-2.9-1.3-2.9-3C268.5,99.3,269.8,97.9,271.5,97.9z M281.5,97.9c1.6,0,3,1.3,3,3c0,1.6-1.4,3-3,3c-1.6,0-2.9-1.3-2.9-3
		C278.6,99.3,280,97.9,281.5,97.9z M291.7,97.9c1.6,0,3,1.3,3,3c0,1.6-1.4,3-3,3c-1.7,0-3-1.3-3-3C288.7,99.3,290,97.9,291.7,97.9z
		 M301.8,97.9c1.6,0,2.9,1.3,2.9,3c0,1.6-1.3,3-2.9,3c-1.6,0-3-1.3-3-3C298.8,99.3,300.2,97.9,301.8,97.9z M312,97.9
		c1.6,0,2.9,1.3,2.9,3c0,1.6-1.3,3-2.9,3c-1.6,0-3-1.3-3-3C309,99.3,310.3,97.9,312,97.9z M322,97.9c1.6,0,3,1.3,3,3
		c0,1.6-1.4,3-3,3c-1.7,0-3-1.3-3-3C319,99.3,320.4,97.9,322,97.9z M332.2,97.9c1.6,0,2.9,1.3,2.9,3c0,1.6-1.3,3-2.9,3
		c-1.7,0-3-1.3-3-3C329.2,99.3,330.4,97.9,332.2,97.9z M342.2,97.9c1.7,0,3,1.3,3,3c0,1.6-1.4,3-3,3c-1.6,0-3-1.3-3-3
		C339.2,99.3,340.6,97.9,342.2,97.9z M352.3,97.9c1.7,0,3,1.3,3,3c0,1.6-1.3,3-3,3c-1.6,0-2.9-1.3-2.9-3
		C349.4,99.3,350.6,97.9,352.3,97.9z M362.4,97.9c1.7,0,3,1.3,3,3c0,1.6-1.3,3-3,3c-1.6,0-2.9-1.3-2.9-3
		C359.5,99.3,360.9,97.9,362.4,97.9z M372.5,97.9c1.6,0,3,1.3,3,3c0,1.6-1.4,3-3,3c-1.5,0-2.9-1.3-2.9-3
		C369.6,99.3,371,97.9,372.5,97.9z M382.7,97.9c1.6,0,3,1.3,3,3c0,1.6-1.4,3-3,3c-1.6,0-3-1.3-3-3C379.7,99.3,381.1,97.9,382.7,97.9
		z M392.8,97.9c1.5,0,2.9,1.3,2.9,3c0,1.6-1.4,3-2.9,3c-1.7,0-3-1.3-3-3C389.8,99.3,391.1,97.9,392.8,97.9z M403,97.9
		c1.6,0,2.9,1.3,2.9,3c0,1.6-1.3,3-2.9,3c-1.8,0-3-1.3-3-3C400,99.3,401.2,97.9,403,97.9z M413,97.9c1.6,0,3,1.3,3,3
		c0,1.6-1.4,3-3,3c-1.6,0-3-1.3-3-3C410,99.3,411.4,97.9,413,97.9z M423.1,97.9c1.7,0,3,1.3,3,3c0,1.6-1.3,3-3,3c-1.7,0-3-1.3-3-3
		C420.1,99.3,421.4,97.9,423.1,97.9z M433.2,97.9c1.6,0,3,1.3,3,3c0,1.6-1.4,3-3,3c-1.7,0-3-1.3-3-3
		C430.2,99.3,431.5,97.9,433.2,97.9z M443.3,97.9c1.6,0,3,1.3,3,3c0,1.6-1.4,3-3,3c-1.6,0-2.9-1.3-2.9-3
		C440.4,99.3,441.7,97.9,443.3,97.9z M90.5,97.9c1.7,0,3.1,1.3,3.1,3c0,1.6-1.4,3-3.1,3c-1.5,0-2.9-1.3-2.9-3
		C87.5,99.3,88.9,97.9,90.5,97.9z M1062,28.7c1.6,0,3,1.3,3,3c0,1.6-1.3,3-3,3c-1.6,0-3-1.3-3-3C1059,30,1060.3,28.7,1062,28.7z"/>
	<circle id="XMLID_272_" class="st2" cx="620.2" cy="21.5" r="3"/>
	<circle id="XMLID_271_" class="st2" cx="610.1" cy="21.5" r="3"/>
	<circle id="XMLID_270_" class="st2" cx="600" cy="21.5" r="3"/>
	<circle id="XMLID_269_" class="st2" cx="589.9" cy="21.5" r="3"/>
	<circle id="XMLID_268_" class="st2" cx="579.8" cy="21.5" r="3"/>
	<circle id="XMLID_267_" class="st2" cx="569.6" cy="21.5" r="3"/>
	<circle id="XMLID_266_" class="st2" cx="559.5" cy="21.5" r="3"/>
	<circle id="XMLID_265_" class="st2" cx="549.4" cy="21.5" r="3"/>
	<path id="XMLID_264_" class="st2" d="M647.9,21.5c0,1.6,1.4,3,3,3c1.6,0,2.9-1.3,2.9-3c0-1.6-1.3-3-2.9-3
		C649.3,18.6,647.9,19.9,647.9,21.5z"/>
	<path id="XMLID_263_" class="st2" d="M658,21.5c0,1.6,1.3,3,3,3c1.6,0,3-1.3,3-3c0-1.6-1.3-3-3-3C659.3,18.6,658,19.9,658,21.5z"/>
	<path id="XMLID_262_" class="st2" d="M668.1,21.5c0,1.6,1.4,3,3,3c1.7,0,2.9-1.3,2.9-3c0-1.6-1.3-3-2.9-3
		C669.4,18.6,668.1,19.9,668.1,21.5z"/>
	<path id="XMLID_261_" class="st2" d="M678.2,21.5c0,1.6,1.2,3,2.9,3c1.7,0,3-1.3,3-3c0-1.6-1.3-3-3-3
		C679.5,18.6,678.2,19.9,678.2,21.5z"/>
	<path id="XMLID_260_" class="st2" d="M688.3,21.5c0,1.6,1.3,3,3,3c1.7,0,2.9-1.3,2.9-3c0-1.6-1.2-3-2.9-3
		C689.6,18.6,688.3,19.9,688.3,21.5z"/>
	<path id="XMLID_259_" class="st2" d="M698.4,21.5c0,1.6,1.3,3,2.9,3c1.7,0,3-1.3,3-3c0-1.6-1.3-3-3-3
		C699.7,18.6,698.4,19.9,698.4,21.5z"/>
	<path id="XMLID_258_" class="st2" d="M708.5,21.5c0,1.6,1.4,3,3,3c1.7,0,2.9-1.3,2.9-3c0-1.6-1.3-3-2.9-3
		C709.9,18.6,708.5,19.9,708.5,21.5z"/>
	<path id="XMLID_257_" class="st2" d="M718.7,21.5c0,1.6,1.3,3,2.9,3c1.7,0,3-1.3,3-3c0-1.6-1.3-3-3-3
		C719.9,18.6,718.7,19.9,718.7,21.5z"/>
	<path id="XMLID_256_" class="st2" d="M728.7,21.5c0,1.6,1.3,3,3,3c1.7,0,2.9-1.3,2.9-3c0-1.6-1.3-3-2.9-3
		C730,18.6,728.7,19.9,728.7,21.5z"/>
	<path id="XMLID_255_" class="st2" d="M739.5,21.5c0,1.6,1.3,3,2.9,3c1.7,0,3-1.3,3-3c0-1.6-1.3-3-3-3
		C740.8,18.6,739.5,19.9,739.5,21.5z"/>
	<path id="XMLID_254_" class="st2" d="M749.5,21.5c0,1.6,1.4,3,3,3c1.7,0,2.9-1.3,2.9-3c0-1.6-1.3-3-2.9-3
		C750.9,18.6,749.5,19.9,749.5,21.5z"/>
	<path id="XMLID_253_" class="st2" d="M759.7,21.5c0,1.6,1.3,3,2.9,3c1.7,0,3-1.3,3-3c0-1.6-1.3-3-3-3
		C761,18.6,759.7,19.9,759.7,21.5z"/>
	<path id="XMLID_252_" class="st2" d="M769.7,21.5c0,1.6,1.3,3,3,3c1.7,0,2.9-1.3,2.9-3c0-1.6-1.3-3-2.9-3
		C771.1,18.6,769.7,19.9,769.7,21.5z"/>
	<circle id="XMLID_251_" class="st2" cx="640.6" cy="21.5" r="3"/>
	<circle id="XMLID_250_" class="st2" cx="630.3" cy="21.5" r="3"/>
	<circle id="XMLID_249_" class="st2" cx="614.3" cy="100.9" r="3"/>
	<circle id="XMLID_248_" class="st2" cx="604.2" cy="100.9" r="3"/>
	<circle id="XMLID_247_" class="st2" cx="594.1" cy="100.9" r="3"/>
	<circle id="XMLID_246_" class="st2" cx="584" cy="100.9" r="3"/>
	<circle id="XMLID_245_" class="st2" cx="573.9" cy="100.9" r="3"/>
	<circle id="XMLID_244_" class="st2" cx="563.8" cy="100.9" r="3"/>
	<circle id="XMLID_243_" class="st2" cx="553.7" cy="100.9" r="3"/>
	<circle id="XMLID_242_" class="st2" cx="543.6" cy="100.9" r="3"/>
	<path id="XMLID_241_" class="st2" d="M642,100.9c0,1.6,1.4,3,3,3c1.6,0,2.9-1.3,2.9-3c0-1.6-1.3-3-2.9-3
		C643.4,97.9,642,99.3,642,100.9z"/>
	<path id="XMLID_240_" class="st2" d="M652.2,100.9c0,1.6,1.3,3,3,3c1.6,0,3-1.3,3-3c0-1.6-1.3-3-3-3
		C653.4,97.9,652.2,99.3,652.2,100.9z"/>
	<path id="XMLID_239_" class="st2" d="M662.2,100.9c0,1.6,1.4,3,3,3c1.7,0,2.9-1.3,2.9-3c0-1.6-1.3-3-2.9-3
		C663.6,97.9,662.2,99.3,662.2,100.9z"/>
	<path id="XMLID_238_" class="st2" d="M672.4,100.9c0,1.6,1.2,3,2.9,3c1.7,0,3-1.3,3-3c0-1.6-1.3-3-3-3
		C673.6,97.9,672.4,99.3,672.4,100.9z"/>
	<path id="XMLID_237_" class="st2" d="M682.4,100.9c0,1.6,1.3,3,3,3c1.7,0,2.9-1.3,2.9-3c0-1.6-1.2-3-2.9-3
		C683.8,97.9,682.4,99.3,682.4,100.9z"/>
	<path id="XMLID_236_" class="st2" d="M692.6,100.9c0,1.6,1.3,3,2.9,3c1.7,0,3-1.3,3-3c0-1.6-1.3-3-3-3
		C693.8,97.9,692.6,99.3,692.6,100.9z"/>
	<path id="XMLID_235_" class="st2" d="M702.6,100.9c0,1.6,1.4,3,3,3c1.7,0,2.9-1.3,2.9-3c0-1.6-1.3-3-2.9-3
		C704,97.9,702.6,99.3,702.6,100.9z"/>
	<path id="XMLID_234_" class="st2" d="M713.1,100.9c0,1.6,1.3,3,2.9,3c1.7,0,3-1.3,3-3c0-1.6-1.3-3-3-3
		C714.4,97.9,713.1,99.3,713.1,100.9z"/>
	<path id="XMLID_233_" class="st2" d="M723.6,100.9c0,1.6,1.3,3,3,3c1.7,0,2.9-1.3,2.9-3c0-1.6-1.3-3-2.9-3
		C724.9,97.9,723.6,99.3,723.6,100.9z"/>
	<path id="XMLID_232_" class="st2" d="M734.7,100.9c0,1.6,1.3,3,3,3c1.7,0,2.9-1.3,2.9-3c0-1.6-1.2-3-2.9-3
		C736,97.9,734.7,99.3,734.7,100.9z"/>
	<path id="XMLID_231_" class="st2" d="M744.8,100.9c0,1.6,1.3,3,2.9,3c1.7,0,3-1.3,3-3c0-1.6-1.3-3-3-3
		C746.1,97.9,744.8,99.3,744.8,100.9z"/>
	<path id="XMLID_230_" class="st2" d="M754.9,100.9c0,1.6,1.4,3,3,3c1.7,0,2.9-1.3,2.9-3c0-1.6-1.3-3-2.9-3
		C756.2,97.9,754.9,99.3,754.9,100.9z"/>
	<path id="XMLID_229_" class="st2" d="M765,100.9c0,1.6,1.3,3,2.9,3c1.7,0,3-1.3,3-3c0-1.6-1.3-3-3-3C766.3,97.9,765,99.3,765,100.9
		z"/>
	<path id="XMLID_228_" class="st2" d="M775.1,100.9c0,1.6,1.3,3,3,3c1.7,0,2.9-1.3,2.9-3c0-1.6-1.3-3-2.9-3
		C776.4,97.9,775.1,99.3,775.1,100.9z"/>
	<circle id="XMLID_227_" class="st2" cx="634.7" cy="100.9" r="3"/>
	<circle id="XMLID_226_" class="st2" cx="624.4" cy="100.9" r="3"/>
</g>
<text id="XMLID_224_" transform="matrix(1 0 0 1 102.9004 76.3188)" class="st5 st6 st7 st8">If leamington were a village of</text>
<g id="XMLID_99_">
	<g id="XMLID_221_">
		<path id="XMLID_223_" class="st9" d="M1364.2,25.3c-0.1,5.5,1.1,19.8,1.1,19.8s1.7-14.3,1.8-19.7c0-1.8-0.6-3.2-1.4-3.2
			C1364.9,22.1,1364.3,23.6,1364.2,25.3z"/>
		<path id="XMLID_222_" class="st9" d="M1366.4,69c0.1-5.5-1.1-19.8-1.1-19.8s-1.7,14.3-1.8,19.7c0,1.8,0.6,3.2,1.4,3.2
			C1365.7,72.2,1366.3,70.8,1366.4,69z"/>
	</g>
	<path id="XMLID_220_" class="st10" d="M1355.9,47.6C1355.9,47.6,1355.9,47.5,1355.9,47.6L1355.9,47.6c-0.1-5.6,0.4-10.4,1.2-10.1
		c5.9,1.6,10,5.3,10.1,9.8l0,0c0,0,0,0,0,0c0,0,0,0,0,0c0,0,0,0,0,0c0,0,0,0,0,0l0,0c0.1,4.5-3.9,8.5-9.7,10.3
		C1356.8,57.9,1356.1,53.2,1355.9,47.6L1355.9,47.6C1355.9,47.6,1355.9,47.6,1355.9,47.6z"/>
	<path id="XMLID_219_" class="st9" d="M1196.9,12.7c15.3,0.3,18.5,4.9,25.6,19.9l2.9,5.8c15.2-3,33.1-5.3,54-5.4c1.2,0,2.9,0,4.9,0
		c0,2.7,6.1,6.7,13.7,6.6c7.5,0,13.6-4,13.6-6.7c13.7,0,33.8-0.1,42.2-0.1c2.1,0,3.9,1.7,3.9,3.9l0,0.8c-0.2,0-0.3-0.1-0.5-0.1
		c-0.8-0.2-1.3,4.5-1.2,10.1l0,0c0,0,0,0,0,0c0,0,0,0,0,0l0,0c0.1,5.6,0.9,10.3,1.7,10c0,0,0.1,0,0.1,0l0,0.5c0,1.4-0.9,3.3-2.1,4
		c-35.7,22.5-134.4-4.3-161.5-12.2c-0.9-0.3-1.6-1.2-1.6-2c0-0.9,0.7-1.7,1.6-2c1.3-0.4,2.7-0.7,4.1-1.1l-3.2-30.1
		C1194.9,13.6,1195.7,12.6,1196.9,12.7z"/>
	<circle id="XMLID_218_" class="st11" cx="1322.9" cy="84.4" r="11.3"/>
	<circle id="XMLID_217_" class="st10" cx="1322.9" cy="84.4" r="6.5"/>
	<path id="XMLID_216_" class="st9" d="M1340.5,82.2c0-9.4-7.7-17.1-17.1-17c-9.4,0-17.1,7.7-17,17.1L1340.5,82.2z"/>
	<g id="XMLID_214_">
		<path id="XMLID_215_" class="st10" d="M1233.1,47.9c0,1.5-1.3,2.7-3.6,2.7c-1.7,0-22-1.3-33.6-2.1c-0.5,0-0.8-0.3-0.8-0.5
			c0-0.3,0.4-0.5,0.8-0.6c11.6-0.8,31.9-2.2,33.6-2.2C1231.9,45.2,1233.1,46.4,1233.1,47.9z"/>
	</g>
	<path id="XMLID_213_" class="st12" d="M1354.7,1.5c0,0-0.1-0.1-0.1-0.1C1354.6,1.5,1354.6,1.5,1354.7,1.5z"/>
	<path id="XMLID_212_" class="st12" d="M1355.4,2.1C1355.3,2.1,1355.3,2.1,1355.4,2.1C1355.3,2.1,1355.3,2.1,1355.4,2.1z"/>
	<path id="XMLID_211_" class="st12" d="M1353.1,0.9c-0.1,0-0.1,0-0.2,0C1353,0.9,1353.1,0.9,1353.1,0.9z"/>
	<path id="XMLID_210_" class="st12" d="M1355,1.8c0,0-0.1-0.1-0.1-0.1C1355,1.8,1355,1.8,1355,1.8z"/>
	<path id="XMLID_209_" class="st12" d="M1353.6,1.1c-0.1,0-0.1,0-0.2,0C1353.5,1,1353.6,1,1353.6,1.1z"/>
	<path id="XMLID_208_" class="st12" d="M1354.1,1.2C1354.1,1.2,1354.1,1.2,1354.1,1.2C1354.1,1.2,1354.1,1.2,1354.1,1.2z"/>
	<path id="XMLID_207_" class="st12" d="M1356.2,4.8C1356.2,4.8,1356.2,4.8,1356.2,4.8C1356.2,4.8,1356.2,4.8,1356.2,4.8z"/>
	<path id="XMLID_206_" class="st12" d="M1292.9,9C1292.9,9,1292.8,9,1292.9,9C1292.8,9,1292.9,9,1292.9,9z"/>
	<path id="XMLID_205_" class="st12" d="M1355.7,2.6C1355.7,2.5,1355.6,2.5,1355.7,2.6C1355.6,2.5,1355.7,2.5,1355.7,2.6z"/>
	<path id="XMLID_204_" class="st12" d="M1356.2,4.4c0,0,0-0.1,0-0.1C1356.2,4.3,1356.2,4.3,1356.2,4.4z"/>
	<path id="XMLID_203_" class="st12" d="M1356.1,3.4C1356.1,3.3,1356,3.3,1356.1,3.4C1356,3.3,1356.1,3.3,1356.1,3.4z"/>
	<path id="XMLID_202_" class="st12" d="M1356.2,3.9C1356.2,3.8,1356.2,3.8,1356.2,3.9C1356.2,3.8,1356.2,3.8,1356.2,3.9z"/>
	<path id="XMLID_201_" class="st12" d="M1355.9,3c0,0,0-0.1-0.1-0.1C1355.9,2.9,1355.9,2.9,1355.9,3z"/>
	<path id="XMLID_200_" class="st12" d="M1292.2,9.5C1292.2,9.5,1292.2,9.5,1292.2,9.5C1292.2,9.5,1292.2,9.5,1292.2,9.5z"/>
	<path id="XMLID_199_" class="st12" d="M1292.4,9.3C1292.4,9.3,1292.4,9.3,1292.4,9.3C1292.4,9.3,1292.4,9.3,1292.4,9.3z"/>
	<path id="XMLID_198_" class="st12" d="M1292.1,9.6C1292.1,9.6,1292.1,9.6,1292.1,9.6C1292.1,9.6,1292.1,9.6,1292.1,9.6z"/>
	<path id="XMLID_197_" class="st13" d="M1291.9,9.9c-0.1,0.3,0.1,1.3,1.6,0.9c7.9-2.2,29.4-8.1,55.5-3.8c6,1,7-1.4,7.2-2
		c-0.1,0.6-0.3,1.3-0.7,2l-9.8,15.6l-34.6,0.1l-18.2-11C1292,11.2,1291.7,10.5,1291.9,9.9z"/>
	<path id="XMLID_196_" class="st12" d="M1292,9.8C1292,9.8,1292,9.8,1292,9.8C1292,9.8,1292,9.8,1292,9.8z"/>
	<path id="XMLID_195_" class="st12" d="M1292.7,9.1C1292.6,9.1,1292.6,9.2,1292.7,9.1C1292.6,9.2,1292.6,9.1,1292.7,9.1z"/>
	<path id="XMLID_194_" class="st0" d="M1292.8,9c-0.1,0-0.1,0.1-0.2,0.1C1292.7,9.1,1292.8,9.1,1292.8,9z"/>
	<path id="XMLID_193_" class="st0" d="M1356,3.3c0-0.1-0.1-0.2-0.1-0.3C1356,3.1,1356,3.2,1356,3.3z"/>
	<path id="XMLID_192_" class="st0" d="M1292,9.7c0,0-0.1,0.1-0.1,0.1C1292,9.7,1292,9.7,1292,9.7z"/>
	<path id="XMLID_191_" class="st0" d="M1356.2,3.8c0-0.1-0.1-0.3-0.1-0.4C1356.1,3.5,1356.1,3.6,1356.2,3.8z"/>
	<path id="XMLID_190_" class="st0" d="M1356.2,4.8c0-0.1,0-0.3,0-0.4C1356.2,4.5,1356.2,4.6,1356.2,4.8z"/>
	<path id="XMLID_189_" class="st0" d="M1291.9,9.9C1291.9,9.8,1291.9,9.8,1291.9,9.9C1291.9,9.9,1291.9,9.9,1291.9,9.9
		C1291.9,9.9,1291.9,9.9,1291.9,9.9z"/>
	<path id="XMLID_188_" class="st0" d="M1356.2,4.9c0,0,0,0.1,0,0.1C1356.2,4.9,1356.2,4.9,1356.2,4.9
		C1356.2,4.8,1356.2,4.9,1356.2,4.9z"/>
	<path id="XMLID_187_" class="st0" d="M1356.2,4.2c0-0.1,0-0.2,0-0.4C1356.2,4,1356.2,4.1,1356.2,4.2z"/>
	<path id="XMLID_186_" class="st0" d="M1355.8,2.8c0-0.1-0.1-0.2-0.2-0.3C1355.7,2.7,1355.8,2.8,1355.8,2.8z"/>
	<path id="XMLID_185_" class="st0" d="M1353.5,1c-0.1,0-0.2-0.1-0.4-0.1C1353.2,0.9,1353.4,1,1353.5,1z"/>
	<path id="XMLID_184_" class="st0" d="M1355.6,2.5c-0.1-0.1-0.2-0.2-0.3-0.3C1355.5,2.2,1355.5,2.4,1355.6,2.5z"/>
	<path id="XMLID_183_" class="st0" d="M1352.9,0.9c-0.2,0-0.4-0.1-0.6-0.1C1352.6,0.8,1352.8,0.8,1352.9,0.9z"/>
	<path id="XMLID_182_" class="st0" d="M1354.1,1.2c-0.1-0.1-0.3-0.1-0.4-0.2C1353.8,1.1,1353.9,1.2,1354.1,1.2z"/>
	<path id="XMLID_181_" class="st0" d="M1293.1,8.9c-0.1,0-0.2,0.1-0.3,0.1C1293,9,1293.1,8.9,1293.1,8.9z"/>
	<path id="XMLID_180_" class="st0" d="M1292.6,9.2c-0.1,0-0.1,0.1-0.1,0.1C1292.5,9.2,1292.5,9.2,1292.6,9.2z"/>
	<path id="XMLID_179_" class="st0" d="M1292.2,9.5c0,0-0.1,0.1-0.1,0.1C1292.1,9.6,1292.1,9.5,1292.2,9.5z"/>
	<path id="XMLID_178_" class="st0" d="M1354.9,1.7c-0.1-0.1-0.2-0.1-0.3-0.2C1354.7,1.6,1354.8,1.7,1354.9,1.7z"/>
	<path id="XMLID_177_" class="st0" d="M1355.3,2.1c-0.1-0.1-0.2-0.2-0.3-0.3C1355.1,1.9,1355.2,2,1355.3,2.1z"/>
	<path id="XMLID_176_" class="st0" d="M1354.5,1.5c-0.1-0.1-0.3-0.2-0.4-0.2C1354.3,1.3,1354.4,1.4,1354.5,1.5z"/>
	<path id="XMLID_175_" class="st0" d="M1292.4,9.3c-0.1,0-0.1,0.1-0.2,0.1C1292.3,9.4,1292.3,9.4,1292.4,9.3z"/>
	<path id="XMLID_174_" class="st0" d="M1349,6.9c-26.1-4.3-47.6,1.6-55.5,3.8c-1.5,0.4-1.6-0.5-1.6-0.9c0,0,0-0.1,0-0.1c0,0,0,0,0,0
		c0,0,0-0.1,0.1-0.1c0,0,0,0,0,0c0,0,0.1-0.1,0.1-0.1c0,0,0,0,0,0c0-0.1,0.1-0.1,0.2-0.1c0,0,0,0,0,0c0,0,0.1-0.1,0.1-0.1
		c0,0,0.1,0,0.1,0c0,0,0.1-0.1,0.2-0.1c0,0,0.1,0,0.1,0c0.1,0,0.2-0.1,0.3-0.1c8.1-3,30.9-11.5,59.2-8.1c0.2,0,0.4,0.1,0.6,0.1
		c0.1,0,0.1,0,0.2,0c0.1,0,0.3,0.1,0.4,0.1c0.1,0,0.1,0,0.2,0c0.1,0.1,0.3,0.1,0.4,0.2c0,0,0,0,0,0c0.1,0.1,0.3,0.1,0.4,0.2
		c0,0,0.1,0,0.1,0.1c0.1,0.1,0.2,0.1,0.3,0.2c0,0,0.1,0.1,0.1,0.1c0.1,0.1,0.2,0.2,0.3,0.3c0,0,0,0,0,0c0.1,0.1,0.2,0.2,0.3,0.3
		c0,0,0,0.1,0.1,0.1c0.1,0.1,0.1,0.2,0.2,0.3c0,0,0,0.1,0.1,0.1c0.1,0.1,0.1,0.2,0.1,0.3c0,0,0,0,0,0.1c0,0.1,0.1,0.3,0.1,0.4
		c0,0,0,0.1,0,0.1c0,0.1,0,0.2,0,0.4c0,0,0,0.1,0,0.1c0,0.1,0,0.3,0,0.4c0,0,0,0,0,0.1c0,0.1,0,0.1,0,0.2
		C1356,5.6,1354.9,7.9,1349,6.9z"/>
	<path id="XMLID_173_" class="st12" d="M1297.1,73.2c0.1,0,0.1,0,0.2,0C1297.2,73.2,1297.2,73.2,1297.1,73.2z"/>
	<path id="XMLID_172_" class="st12" d="M1297.4,73.2c0.1,0,0.2,0,0.2,0C1297.5,73.2,1297.4,73.2,1297.4,73.2z"/>
	<path id="XMLID_171_" class="st13" d="M1297.4,71.1l12.9-10.1c0.6-0.4,1.6-0.8,2.3-0.8c4-0.1,16-0.2,21.1-0.1
		c0.7,0,1.8,0.4,2.4,0.7l12,7.4c-5.1-1.9-26-1.9-50.1,3.2c-1.5,0.3-1.6,1.2-1.2,1.5c0.1,0.1,0.2,0.2,0.4,0.2
		C1296.3,73,1296.1,71.9,1297.4,71.1z"/>
	<path id="XMLID_170_" class="st0" d="M1297.1,73.2C1297.1,73.2,1297.1,73.2,1297.1,73.2C1297.1,73.2,1297.1,73.2,1297.1,73.2z"/>
	<path id="XMLID_168_" class="st0" d="M1297.3,73.2C1297.3,73.2,1297.3,73.2,1297.3,73.2C1297.3,73.2,1297.3,73.2,1297.3,73.2z"/>
	<path id="XMLID_134_" class="st0" d="M1297.9,71.5c24.1-5.2,45.1-5.1,50.1-3.2c0.3,0.2,1.3,1,1.3,1.9c0,1-0.8,1.7-1.5,1.6
		c-8.1-1.2-25.3-2.9-50.3,1.5c-0.1,0-0.2,0-0.2,0c0,0,0,0-0.1,0c-0.1,0-0.1,0-0.2,0c0,0,0,0-0.1,0c-0.1,0-0.3-0.1-0.4-0.2
		C1296.3,72.6,1296.5,71.8,1297.9,71.5z"/>
	<g id="XMLID_102_">
		<path id="XMLID_132_" class="st11" d="M1312.8,64.4c0.3,0.1,0.5-0.1,0.6-0.3l22.6-54.2c0.1-0.3,0-0.6-0.3-0.7
			c-0.3-0.1-0.6,0-0.7,0.3l-22.6,54.2C1312.4,64,1312.5,64.3,1312.8,64.4C1312.8,64.4,1312.8,64.4,1312.8,64.4z"/>
	</g>
	<g id="XMLID_100_">
		<path id="XMLID_101_" class="st11" d="M1334.4,64.1c0.1,0,0.2,0,0.3,0c0.3-0.1,0.4-0.4,0.3-0.7l-22-53.2c-0.1-0.3-0.4-0.4-0.7-0.3
			c-0.3,0.1-0.4,0.4-0.3,0.7l22,53.2C1334.1,64,1334.2,64.1,1334.4,64.1z"/>
	</g>
</g>
</svg>
