<?xml version="1.0" encoding="utf-8"?>
<!-- Generator: Adobe Illustrator 19.0.0, SVG Export Plug-In . SVG Version: 6.00 Build 0)  -->
<svg version="1.1" id="Layer_1" xmlns="http://www.w3.org/2000/svg" xmlns:xlink="http://www.w3.org/1999/xlink" x="0px" y="0px"
	 viewBox="758.7 869.2 976.5 133.3" style="enable-background:new 758.7 869.2 976.5 133.3;" xml:space="preserve">
<style type="text/css">
	.st0{fill:#DD213E;}
	.st1{fill:#C8202A;}
	.st2{fill:#FFFFFF;}
	.st3{fill:#AA0E1D;}
	.st4{font-family:'Avenir-Heavy';}
	.st5{font-size:43.1554px;}
	.st6{letter-spacing:2;}
	.st7{fill:#59B7EA;}
	.st8{fill:#CCCBCB;}
	.st9{fill:#44261B;}
	.st10{fill:#00B5B2;}
	.st11{fill:#675AA8;}
	.st12{fill:#007977;}
	.st13{fill:#3A3084;}
</style>
<path id="XMLID_465_" class="st0" d="M1444.8,883.5l120.3,33.7L1416.5,976L1444.8,883.5 M1443.7,881.4l-29.9,97.6l156.8-62
	L1443.7,881.4L1443.7,881.4z"/>
<polygon id="XMLID_464_" class="st1" points="773.2,1002.5 907.9,1002.5 836.5,916.8 758.7,916.8 801.7,962.9 "/>
<path id="XMLID_463_" class="st2" d="M801,990.8c1.6,0,3,1.3,3,3c0,1.6-1.3,3-3,3c-1.6,0-3-1.3-3-3
	C798.2,992.1,799.4,990.8,801,990.8L801,990.8z"/>
<path id="XMLID_462_" class="st2" d="M810.7,990.8c1.6,0,3,1.3,3,3c0,1.6-1.3,3-3,3c-1.6,0-3-1.3-3-3S809.2,990.8,810.7,990.8z"/>
<circle id="XMLID_461_" class="st2" cx="820.4" cy="993.8" r="3"/>
<circle id="XMLID_460_" class="st2" cx="830" cy="993.8" r="3"/>
<path id="XMLID_459_" class="st2" d="M839.7,990.8c1.6,0,3,1.3,3,3c0,1.6-1.3,3-3,3c-1.6,0-3-1.3-3-3
	C836.8,992.1,838.2,990.8,839.7,990.8z"/>
<path id="XMLID_458_" class="st2" d="M849.4,990.8c1.6,0,3,1.3,3,3c0,1.6-1.3,3-3,3c-1.6,0-3-1.3-3-3S847.8,990.8,849.4,990.8z"/>
<path id="XMLID_457_" class="st2" d="M859.2,990.8c1.6,0,3,1.3,3,3c0,1.6-1.3,3-3,3c-1.6,0-3-1.3-3-3S857.4,990.8,859.2,990.8z"/>
<path id="XMLID_456_" class="st2" d="M868.8,990.8c1.6,0,3,1.3,3,3c0,1.6-1.3,3-3,3c-1.7,0-3-1.3-3-3S867.2,990.8,868.8,990.8z"/>
<path id="XMLID_455_" class="st2" d="M878.4,990.8c1.6,0,3,1.3,3,3c0,1.6-1.3,3-3,3c-1.6,0-3-1.3-3-3S876.8,990.8,878.4,990.8z"/>
<circle id="XMLID_454_" class="st2" cx="888.2" cy="993.8" r="3"/>
<path id="XMLID_453_" class="st2" d="M829.4,923.4c1.6,0,3,1.3,3,3c0,1.6-1.3,3-3,3c-1.6,0-3-1.3-3-3
	C826.4,924.8,827.7,923.4,829.4,923.4z"/>
<path id="XMLID_452_" class="st2" d="M819.7,923.4c1.6,0,3,1.3,3,3c0,1.6-1.3,3-3,3s-3-1.3-3-3C816.7,924.8,818.2,923.4,819.7,923.4
	z"/>
<circle id="XMLID_451_" class="st2" cx="810" cy="926.4" r="3"/>
<path id="XMLID_450_" class="st2" d="M800.4,923.4c1.6,0,3,1.3,3,3c0,1.6-1.3,3-3,3c-1.6,0-3-1.3-3-3
	C797.4,924.8,798.7,923.4,800.4,923.4z"/>
<path id="XMLID_449_" class="st2" d="M790.7,923.4c1.6,0,3,1.3,3,3c0,1.6-1.3,3-3,3c-1.6,0-3-1.3-3-3
	C787.7,924.8,789.2,923.4,790.7,923.4z"/>
<path id="XMLID_448_" class="st2" d="M780.8,923.4c1.6,0,3,1.3,3,3c0,1.6-1.3,3-3,3c-1.6,0-3-1.3-3-3
	C777.8,924.8,779.2,923.4,780.8,923.4z"/>
<path id="XMLID_447_" class="st2" d="M787.4,931.2c1.6,0,3,1.3,3,3c0,1.6-1.3,3-3,3c-1.6,0-3-1.3-3-3S785.7,931.2,787.4,931.2z"/>
<path id="XMLID_446_" class="st2" d="M794,938.3c1.6,0,3,1.3,3,3c0,1.6-1.3,3-3,3c-1.6,0-3-1.3-3-3S792.3,938.3,794,938.3z"/>
<path id="XMLID_445_" class="st2" d="M800.6,945.3c1.6,0,3,1.3,3,3c0,1.6-1.3,3-3,3c-1.6,0-3-1.3-3-3
	C797.6,946.7,798.9,945.3,800.6,945.3z"/>
<circle id="XMLID_444_" class="st2" cx="807.2" cy="955.4" r="3"/>
<path id="XMLID_443_" class="st2" d="M813.8,959.5c1.6,0,3,1.3,3,3c0,1.6-1.3,3-3,3c-1.6,0-3-1.3-3-3S812.2,959.5,813.8,959.5z"/>
<path id="XMLID_442_" class="st2" d="M808.4,967.3c1.6,0,3,1.3,3,3c0,1.6-1.3,3-3,3c-1.6,0-3-1.3-3-3S806.7,967.3,808.4,967.3z"/>
<path id="XMLID_441_" class="st2" d="M802.7,975.1c1.6,0,3,1.3,3,3c0,1.6-1.3,3-3,3c-1.6,0-3-1.3-3-3
	C799.7,976.4,801.2,975.1,802.7,975.1z"/>
<path id="XMLID_440_" class="st2" d="M797,982.9c1.6,0,3,1.3,3,3c0,1.6-1.3,3-3,3c-1.6,0-3-1.3-3-3
	C794.2,984.3,795.4,982.9,797,982.9z"/>
<circle id="XMLID_439_" class="st2" cx="1428" cy="926.4" r="3"/>
<path id="XMLID_438_" class="st2" d="M791.4,990.8c1.6,0,3,1.3,3,3c0,1.6-1.3,3-3,3c-1.6,0-3-1.3-3-3S789.7,990.8,791.4,990.8z"/>
<polygon id="XMLID_437_" class="st3" points="907.9,1002.5 888.5,977.1 846.5,977 841.8,979 "/>
<path id="XMLID_436_" class="st0" d="M842.2,979c243.3,0,329.9,0,573.3,0l29.9-97.6c-263.2,0-369.8,0-633,0L842.2,979z"/>
<path id="XMLID_273_" class="st2" d="M1426.8,907.9c1.6,0,3,1.3,3,3c0,1.6-1.3,3-3,3c-1.6,0-3-1.3-3-3
	C1423.9,909.2,1425.2,907.9,1426.8,907.9L1426.8,907.9z M1423.9,917.5c1.6,0,3,1.3,3,3c0,1.6-1.3,3-3,3c-1.6,0-3-1.3-3-3
	C1420.9,918.9,1422.2,917.5,1423.9,917.5z M1420.9,927.2c1.6,0,3,1.3,3,3c0,1.6-1.3,3-3,3s-3-1.3-3-3
	C1418,928.5,1419.3,927.2,1420.9,927.2z M1418,936.9c1.7,0,3,1.3,3,3c0,1.6-1.3,3-3,3c-1.6,0-3-1.3-3-3
	C1415,938.2,1416.3,936.9,1418,936.9z M1415,946.5c1.6,0,3,1.3,3,3c0,1.6-1.3,3-3,3c-1.6,0-3-1.3-3-3
	C1412,947.9,1413.4,946.5,1415,946.5z M1411.8,957.1c1.6,0,3,1.3,3,3c0,1.6-1.3,3-3,3c-1.6,0-3-1.3-3-3
	C1408.8,958.4,1410.1,957.1,1411.8,957.1z M833.4,907.9c-1.6,0-3,1.3-3,3c0,1.6,1.3,3,3,3c1.6,0,3-1.3,3-3
	C836.4,909.2,835.1,907.9,833.4,907.9z M836.4,917.5c-1.6,0-3,1.3-3,3c0,1.6,1.3,3,3,3c1.6,0,3-1.3,3-3
	C839.4,918.9,838,917.5,836.4,917.5z M839.4,927.2c-1.6,0-3,1.3-3,3c0,1.6,1.3,3,3,3c1.6,0,3-1.3,3-3
	C842.3,928.5,841,927.2,839.4,927.2z M842.3,936.9c-1.6,0-3,1.3-3,3c0,1.6,1.3,3,3,3c1.6,0,3-1.3,3-3
	C845.3,938.2,844,936.9,842.3,936.9z M845.3,946.5c-1.6,0-3,1.3-3,3c0,1.6,1.3,3,3,3c1.6,0,3-1.3,3-3
	C848.2,947.9,846.9,946.5,845.3,946.5z M848.5,957.1c-1.6,0-3,1.3-3,3c0,1.6,1.3,3,3,3c1.6,0,3-1.3,3-3
	C851.5,958.4,850.1,957.1,848.5,957.1z M830.3,897.7c-1.6,0-3,1.3-3,3c0,1.6,1.3,3,3,3c1.6,0,3-1.3,3-3S831.9,897.7,830.3,897.7z
	 M826.4,887.6c1.6,0,2.9,1.3,2.9,3c0,1.6-1.3,3-2.9,3c-1.7,0-3-1.3-3-3S824.8,887.6,826.4,887.6z M836.5,887.6c1.6,0,3,1.3,3,3
	c0,1.6-1.3,3-3,3c-1.7,0-3-1.3-3-3C833.6,888.9,834.8,887.6,836.5,887.6z M846.6,887.6c1.7,0,2.9,1.3,2.9,3c0,1.6-1.3,3-2.9,3
	c-1.7,0-3-1.3-3-3S845,887.6,846.6,887.6z M856.7,887.6c1.7,0,3,1.3,3,3c0,1.6-1.3,3-3,3c-1.7,0-2.9-1.3-2.9-3
	S855,887.6,856.7,887.6z M866.8,887.6c1.7,0,2.9,1.3,2.9,3c0,1.6-1.2,3-2.9,3c-1.7,0-3-1.3-3-3S865.2,887.6,866.8,887.6z
	 M876.9,887.6c1.7,0,3,1.3,3,3c0,1.6-1.3,3-3,3c-1.6,0-2.9-1.3-2.9-3S875.2,887.6,876.9,887.6z M887,887.6c1.7,0,2.9,1.3,2.9,3
	c0,1.6-1.3,3-2.9,3s-3-1.3-3-3S885.4,887.6,887,887.6z M897.1,887.6c1.7,0,3,1.3,3,3c0,1.6-1.3,3-3,3c-1.6,0-2.9-1.3-2.9-3
	S895.4,887.6,897.1,887.6z M907.2,887.6c1.7,0,2.9,1.3,2.9,3c0,1.6-1.3,3-2.9,3c-1.7,0-3-1.3-3-3S905.6,887.6,907.2,887.6z
	 M1151.7,887.6c1.8,0,3,1.3,3,3c0,1.6-1.2,3-3,3c-1.6,0-2.9-1.3-2.9-3C1148.9,888.9,1150.1,887.6,1151.7,887.6z M1161.9,887.6
	c1.7,0,3,1.3,3,3c0,1.6-1.3,3-3,3c-1.7,0-3-1.3-3-3S1160.3,887.6,1161.9,887.6z M1172,887.6c1.7,0,3,1.3,3,3c0,1.6-1.3,3-3,3
	c-1.6,0-3-1.3-3-3C1169.1,888.9,1170.4,887.6,1172,887.6z M1182.1,887.6c1.7,0,3,1.3,3,3c0,1.6-1.4,3-3,3s-2.9-1.3-2.9-3
	S1180.5,887.6,1182.1,887.6z M1192.3,887.6c1.7,0,2.9,1.3,2.9,3c0,1.6-1.3,3-2.9,3c-1.6,0-3-1.3-3-3S1190.6,887.6,1192.3,887.6z
	 M1202.3,887.6c1.7,0,3,1.3,3,3c0,1.6-1.4,3-3,3c-1.7,0-2.9-1.3-2.9-3C1199.4,888.9,1200.7,887.6,1202.3,887.6z M1212.5,887.6
	c1.7,0,2.9,1.3,2.9,3c0,1.6-1.3,3-2.9,3c-1.7,0-3-1.3-3-3S1210.8,887.6,1212.5,887.6z M1222.6,887.6c1.6,0,2.9,1.3,2.9,3
	c0,1.6-1.4,3-2.9,3c-1.7,0-3-1.3-3-3S1221,887.6,1222.6,887.6z M1232.6,887.6c1.7,0,3.1,1.3,3.1,3c0,1.6-1.4,3-3.1,3
	c-1.6,0-2.9-1.3-2.9-3S1231,887.6,1232.6,887.6z M1242.8,887.6c1.6,0,3,1.3,3,3c0,1.6-1.4,3-3,3s-3-1.3-3-3
	S1241.2,887.6,1242.8,887.6z M1252.9,887.6c1.7,0,3,1.3,3,3c0,1.6-1.4,3-3,3c-1.7,0-2.9-1.3-2.9-3S1251.2,887.6,1252.9,887.6z
	 M1263,887.6c1.6,0,2.9,1.3,2.9,3c0,1.6-1.3,3-2.9,3c-1.7,0-3-1.3-3-3S1261.4,887.6,1263,887.6z M1273.1,887.6c1.7,0,3,1.3,3,3
	c0,1.6-1.4,3-3,3c-1.7,0-2.9-1.3-2.9-3S1271.4,887.6,1273.1,887.6z M1283.2,887.6c1.7,0,2.9,1.3,2.9,3c0,1.6-1.3,3-2.9,3
	c-1.7,0-3-1.3-3-3S1281.6,887.6,1283.2,887.6z M1293.3,887.6c1.7,0,3.1,1.3,3.1,3c0,1.6-1.4,3-3.1,3c-1.6,0-2.9-1.3-2.9-3
	S1291.6,887.6,1293.3,887.6z M1303.4,887.6c1.6,0,3,1.3,3,3c0,1.6-1.3,3-3,3c-1.6,0-3-1.3-3-3S1301.8,887.6,1303.4,887.6z
	 M1313.5,887.6c1.7,0,3,1.3,3,3c0,1.6-1.4,3-3,3c-1.7,0-2.9-1.3-2.9-3S1311.8,887.6,1313.5,887.6z M1323.6,887.6
	c1.6,0,2.9,1.3,2.9,3c0,1.6-1.3,3-2.9,3c-1.7,0-3-1.3-3-3S1322,887.6,1323.6,887.6z M1333.7,887.6c1.7,0,3,1.3,3,3c0,1.6-1.3,3-3,3
	s-2.9-1.3-2.9-3C1330.8,888.9,1332,887.6,1333.7,887.6z M1343.8,887.6c1.7,0,3,1.3,3,3c0,1.6-1.4,3-3,3s-3-1.3-3-3
	S1342.2,887.6,1343.8,887.6z M1354,887.6c1.7,0,3,1.3,3,3c0,1.6-1.3,3-3,3c-1.6,0-3-1.3-3-3S1352.3,887.6,1354,887.6z M1364,887.6
	c1.6,0,3.1,1.3,3.1,3c0,1.6-1.4,3-3.1,3c-1.6,0-3-1.3-3-3C1361.1,888.9,1362.4,887.6,1364,887.6z M1374.2,887.6c1.6,0,3,1.3,3,3
	c0,1.6-1.4,3-3,3s-3-1.3-3-3S1372.5,887.6,1374.2,887.6z M1384.3,887.6c1.6,0,3,1.3,3,3c0,1.6-1.4,3-3,3c-1.7,0-2.9-1.3-2.9-3
	C1381.3,888.9,1382.6,887.6,1384.3,887.6z M1394.4,887.6c1.7,0,3,1.3,3,3c0,1.6-1.3,3-3,3c-1.6,0-3-1.3-3-3
	S1392.8,887.6,1394.4,887.6z M1404.4,887.6c1.7,0,3.1,1.3,3.1,3c0,1.6-1.4,3-3.1,3c-1.5,0-2.9-1.3-2.9-3S1402.9,887.6,1404.4,887.6z
	 M1414.6,887.6c1.7,0,3,1.3,3,3c0,1.6-1.4,3-3,3s-3-1.3-3-3S1412.9,887.6,1414.6,887.6z M1424.7,887.6c1.7,0,3,1.3,3,3
	c0,1.6-1.3,3-3,3c-1.6,0-3-1.3-3-3S1423.1,887.6,1424.7,887.6z M1433.5,887.6c1.6,0,2.9,1.3,2.9,3c0,1.6-1.3,3-2.9,3s-3-1.3-3-3
	S1431.9,887.6,1433.5,887.6z M1399,966.9c-1.6,0-3,1.3-3,3c0,1.6,1.3,3,3,3c1.6,0,3-1.3,3-3C1402,968.3,1400.6,966.9,1399,966.9z
	 M1388.9,966.9c-1.6,0-3,1.3-3,3c0,1.6,1.3,3,3,3s3-1.3,3-3C1391.9,968.3,1390.5,966.9,1388.9,966.9z M1378.8,966.9
	c-1.6,0-3,1.3-3,3c0,1.6,1.3,3,3,3c1.6,0,3-1.3,3-3C1381.8,968.3,1380.4,966.9,1378.8,966.9z M1368.7,966.9c-1.6,0-3,1.3-3,3
	c0,1.6,1.3,3,3,3c1.6,0,3-1.3,3-3C1371.6,968.3,1370.3,966.9,1368.7,966.9z M1358.6,966.9c-1.6,0-3,1.3-3,3c0,1.6,1.3,3,3,3
	c1.6,0,3-1.3,3-3C1361.5,968.3,1360.2,966.9,1358.6,966.9z M1348.5,966.9c-1.6,0-3,1.3-3,3c0,1.6,1.3,3,3,3c1.6,0,3-1.3,3-3
	C1351.4,968.3,1350.1,966.9,1348.5,966.9z M1338.4,966.9c-1.6,0-3,1.3-3,3c0,1.6,1.3,3,3,3c1.6,0,3-1.3,3-3
	C1341.3,968.3,1340,966.9,1338.4,966.9z M1328.2,966.9c-1.6,0-3,1.3-3,3c0,1.6,1.3,3,3,3c1.6,0,3-1.3,3-3
	C1331.2,968.3,1329.9,966.9,1328.2,966.9z M1318.1,966.9c-1.6,0-3,1.3-3,3c0,1.6,1.3,3,3,3c1.6,0,3-1.3,3-3
	C1321.1,968.3,1319.8,966.9,1318.1,966.9z M1308,966.9c-1.6,0-3,1.3-3,3c0,1.6,1.3,3,3,3c1.6,0,3-1.3,3-3
	C1311,968.3,1309.7,966.9,1308,966.9z M1297.9,966.9c-1.6,0-3,1.3-3,3c0,1.6,1.3,3,3,3c1.6,0,3-1.3,3-3
	C1300.9,968.3,1299.6,966.9,1297.9,966.9z M1287.8,966.9c-1.6,0-3,1.3-3,3c0,1.6,1.3,3,3,3c1.6,0,3-1.3,3-3
	C1290.8,968.3,1289.5,966.9,1287.8,966.9z M1277.7,966.9c-1.6,0-3,1.3-3,3c0,1.6,1.3,3,3,3c1.6,0,3-1.3,3-3
	C1280.7,968.3,1279.4,966.9,1277.7,966.9z M1267.6,966.9c-1.6,0-3,1.3-3,3c0,1.6,1.3,3,3,3c1.6,0,3-1.3,3-3
	C1270.6,968.3,1269.3,966.9,1267.6,966.9z M1257.5,966.9c-1.6,0-3,1.3-3,3c0,1.6,1.3,3,3,3c1.6,0,3-1.3,3-3
	C1260.5,968.3,1259.1,966.9,1257.5,966.9z M1247.4,966.9c-1.6,0-3,1.3-3,3c0,1.6,1.3,3,3,3c1.6,0,3-1.3,3-3
	C1250.4,968.3,1249,966.9,1247.4,966.9z M1237.3,966.9c-1.6,0-3,1.3-3,3c0,1.6,1.3,3,3,3c1.6,0,3-1.3,3-3
	C1240.3,968.3,1238.9,966.9,1237.3,966.9z M1227.2,966.9c-1.6,0-3,1.3-3,3c0,1.6,1.3,3,3,3c1.6,0,3-1.3,3-3
	C1230.2,968.3,1228.8,966.9,1227.2,966.9z M1217.1,966.9c-1.6,0-3,1.3-3,3c0,1.6,1.3,3,3,3c1.6,0,3-1.3,3-3
	C1220,968.3,1218.7,966.9,1217.1,966.9z M1207,966.9c-1.6,0-3,1.3-3,3c0,1.6,1.3,3,3,3c1.6,0,3-1.3,3-3
	C1209.9,968.3,1208.6,966.9,1207,966.9z M1196.9,966.9c-1.6,0-3,1.3-3,3c0,1.6,1.3,3,3,3c1.6,0,3-1.3,3-3
	C1199.8,968.3,1198.5,966.9,1196.9,966.9z M1186.8,966.9c-1.6,0-3,1.3-3,3c0,1.6,1.3,3,3,3c1.6,0,3-1.3,3-3
	C1189.7,968.3,1188.4,966.9,1186.8,966.9z M1176.6,966.9c-1.6,0-3,1.3-3,3c0,1.6,1.3,3,3,3c1.6,0,3-1.3,3-3
	C1179.6,968.3,1178.3,966.9,1176.6,966.9z M1166.5,966.9c-1.6,0-3,1.3-3,3c0,1.6,1.3,3,3,3c1.7,0,3-1.3,3-3
	C1169.5,968.3,1168.2,966.9,1166.5,966.9z M1156.4,966.9c-1.6,0-3,1.3-3,3c0,1.6,1.3,3,3,3c1.6,0,3-1.3,3-3
	C1159.4,968.3,1158.1,966.9,1156.4,966.9z M901.8,966.9c-1.6,0-3,1.3-3,3c0,1.6,1.3,3,3,3c1.6,0,3-1.3,3-3
	C904.7,968.3,903.4,966.9,901.8,966.9z M891.6,966.9c-1.6,0-3,1.3-3,3c0,1.6,1.3,3,3,3c1.6,0,3-1.3,3-3
	C894.6,968.3,893.3,966.9,891.6,966.9z M881.5,966.9c-1.6,0-3,1.3-3,3c0,1.6,1.3,3,3,3c1.6,0,3-1.3,3-3
	C884.5,968.3,883.2,966.9,881.5,966.9z M871.4,966.9c-1.6,0-3,1.3-3,3c0,1.6,1.3,3,3,3c1.6,0,3-1.3,3-3
	C874.4,968.3,873.1,966.9,871.4,966.9z M861.3,966.9c-1.6,0-3,1.3-3,3c0,1.6,1.3,3,3,3c1.6,0,3-1.3,3-3
	C864.3,968.3,863,966.9,861.3,966.9z M851.2,966.9c-1.6,0-3,1.3-3,3c0,1.6,1.3,3,3,3c1.6,0,3-1.3,3-3
	C854.2,968.3,852.9,966.9,851.2,966.9z M1408.2,966.9c-1.6,0-3,1.3-3,3c0,1.6,1.3,3,3,3c1.6,0,3-1.3,3-3
	C1411.2,968.3,1409.8,966.9,1408.2,966.9z M1430,897.7c1.6,0,3,1.3,3,3c0,1.6-1.3,3-3,3c-1.6,0-3-1.3-3-3S1428.3,897.7,1430,897.7z"
	/>
<circle id="XMLID_272_" class="st2" cx="988.2" cy="890.5" r="3"/>
<circle id="XMLID_271_" class="st2" cx="978.1" cy="890.5" r="3"/>
<circle id="XMLID_270_" class="st2" cx="968" cy="890.5" r="3"/>
<circle id="XMLID_269_" class="st2" cx="957.9" cy="890.5" r="3"/>
<circle id="XMLID_268_" class="st2" cx="947.8" cy="890.5" r="3"/>
<circle id="XMLID_267_" class="st2" cx="937.6" cy="890.5" r="3"/>
<circle id="XMLID_266_" class="st2" cx="927.5" cy="890.5" r="3"/>
<circle id="XMLID_265_" class="st2" cx="917.4" cy="890.5" r="3"/>
<path id="XMLID_264_" class="st2" d="M1015.9,890.5c0,1.6,1.4,3,3,3s2.9-1.3,2.9-3c0-1.6-1.3-3-2.9-3
	C1017.3,887.6,1015.9,888.9,1015.9,890.5z"/>
<path id="XMLID_263_" class="st2" d="M1026,890.5c0,1.6,1.3,3,3,3c1.6,0,3-1.3,3-3c0-1.6-1.3-3-3-3
	C1027.3,887.6,1026,888.9,1026,890.5z"/>
<path id="XMLID_262_" class="st2" d="M1036.1,890.5c0,1.6,1.4,3,3,3c1.7,0,2.9-1.3,2.9-3c0-1.6-1.3-3-2.9-3
	C1037.4,887.6,1036.1,888.9,1036.1,890.5z"/>
<path id="XMLID_261_" class="st2" d="M1046.2,890.5c0,1.6,1.2,3,2.9,3c1.7,0,3-1.3,3-3c0-1.6-1.3-3-3-3
	C1047.5,887.6,1046.2,888.9,1046.2,890.5z"/>
<path id="XMLID_260_" class="st2" d="M1056.3,890.5c0,1.6,1.3,3,3,3c1.7,0,2.9-1.3,2.9-3c0-1.6-1.2-3-2.9-3
	C1057.6,887.6,1056.3,888.9,1056.3,890.5z"/>
<path id="XMLID_259_" class="st2" d="M1066.4,890.5c0,1.6,1.3,3,2.9,3c1.7,0,3-1.3,3-3c0-1.6-1.3-3-3-3
	C1067.7,887.6,1066.4,888.9,1066.4,890.5z"/>
<path id="XMLID_258_" class="st2" d="M1076.5,890.5c0,1.6,1.4,3,3,3c1.7,0,2.9-1.3,2.9-3c0-1.6-1.3-3-2.9-3
	C1077.9,887.6,1076.5,888.9,1076.5,890.5z"/>
<path id="XMLID_257_" class="st2" d="M1086.7,890.5c0,1.6,1.3,3,2.9,3c1.7,0,3-1.3,3-3c0-1.6-1.3-3-3-3
	C1087.9,887.6,1086.7,888.9,1086.7,890.5z"/>
<path id="XMLID_256_" class="st2" d="M1096.7,890.5c0,1.6,1.3,3,3,3c1.7,0,2.9-1.3,2.9-3c0-1.6-1.3-3-2.9-3
	C1098,887.6,1096.7,888.9,1096.7,890.5z"/>
<path id="XMLID_255_" class="st2" d="M1107.5,890.5c0,1.6,1.3,3,2.9,3c1.7,0,3-1.3,3-3c0-1.6-1.3-3-3-3
	C1108.8,887.6,1107.5,888.9,1107.5,890.5z"/>
<path id="XMLID_254_" class="st2" d="M1117.5,890.5c0,1.6,1.4,3,3,3c1.7,0,2.9-1.3,2.9-3c0-1.6-1.3-3-2.9-3
	C1118.9,887.6,1117.5,888.9,1117.5,890.5z"/>
<path id="XMLID_253_" class="st2" d="M1127.7,890.5c0,1.6,1.3,3,2.9,3c1.7,0,3-1.3,3-3c0-1.6-1.3-3-3-3
	C1129,887.6,1127.7,888.9,1127.7,890.5z"/>
<path id="XMLID_252_" class="st2" d="M1137.7,890.5c0,1.6,1.3,3,3,3c1.7,0,2.9-1.3,2.9-3c0-1.6-1.3-3-2.9-3
	C1139.1,887.6,1137.7,888.9,1137.7,890.5z"/>
<circle id="XMLID_251_" class="st2" cx="1008.6" cy="890.5" r="3"/>
<circle id="XMLID_250_" class="st2" cx="998.3" cy="890.5" r="3"/>
<circle id="XMLID_249_" class="st2" cx="982.3" cy="969.9" r="3"/>
<circle id="XMLID_248_" class="st2" cx="972.2" cy="969.9" r="3"/>
<circle id="XMLID_247_" class="st2" cx="962.1" cy="969.9" r="3"/>
<circle id="XMLID_246_" class="st2" cx="952" cy="969.9" r="3"/>
<circle id="XMLID_245_" class="st2" cx="941.9" cy="969.9" r="3"/>
<circle id="XMLID_244_" class="st2" cx="931.8" cy="969.9" r="3"/>
<circle id="XMLID_243_" class="st2" cx="921.7" cy="969.9" r="3"/>
<circle id="XMLID_242_" class="st2" cx="911.6" cy="969.9" r="3"/>
<path id="XMLID_241_" class="st2" d="M1010,969.9c0,1.6,1.4,3,3,3s2.9-1.3,2.9-3c0-1.6-1.3-3-2.9-3S1010,968.3,1010,969.9z"/>
<path id="XMLID_240_" class="st2" d="M1020.2,969.9c0,1.6,1.3,3,3,3c1.6,0,3-1.3,3-3c0-1.6-1.3-3-3-3
	C1021.4,966.9,1020.2,968.3,1020.2,969.9z"/>
<path id="XMLID_239_" class="st2" d="M1030.2,969.9c0,1.6,1.4,3,3,3c1.7,0,2.9-1.3,2.9-3c0-1.6-1.3-3-2.9-3
	C1031.6,966.9,1030.2,968.3,1030.2,969.9z"/>
<path id="XMLID_238_" class="st2" d="M1040.4,969.9c0,1.6,1.2,3,2.9,3c1.7,0,3-1.3,3-3c0-1.6-1.3-3-3-3
	C1041.6,966.9,1040.4,968.3,1040.4,969.9z"/>
<path id="XMLID_237_" class="st2" d="M1050.4,969.9c0,1.6,1.3,3,3,3c1.7,0,2.9-1.3,2.9-3c0-1.6-1.2-3-2.9-3
	C1051.8,966.9,1050.4,968.3,1050.4,969.9z"/>
<path id="XMLID_236_" class="st2" d="M1060.6,969.9c0,1.6,1.3,3,2.9,3c1.7,0,3-1.3,3-3c0-1.6-1.3-3-3-3
	C1061.8,966.9,1060.6,968.3,1060.6,969.9z"/>
<path id="XMLID_235_" class="st2" d="M1070.6,969.9c0,1.6,1.4,3,3,3c1.7,0,2.9-1.3,2.9-3c0-1.6-1.3-3-2.9-3
	S1070.6,968.3,1070.6,969.9z"/>
<path id="XMLID_234_" class="st2" d="M1081.1,969.9c0,1.6,1.3,3,2.9,3c1.7,0,3-1.3,3-3c0-1.6-1.3-3-3-3
	C1082.4,966.9,1081.1,968.3,1081.1,969.9z"/>
<path id="XMLID_233_" class="st2" d="M1091.6,969.9c0,1.6,1.3,3,3,3c1.7,0,2.9-1.3,2.9-3c0-1.6-1.3-3-2.9-3
	C1092.9,966.9,1091.6,968.3,1091.6,969.9z"/>
<path id="XMLID_232_" class="st2" d="M1102.7,969.9c0,1.6,1.3,3,3,3c1.7,0,2.9-1.3,2.9-3c0-1.6-1.2-3-2.9-3
	C1104,966.9,1102.7,968.3,1102.7,969.9z"/>
<path id="XMLID_231_" class="st2" d="M1112.8,969.9c0,1.6,1.3,3,2.9,3c1.7,0,3-1.3,3-3c0-1.6-1.3-3-3-3
	C1114.1,966.9,1112.8,968.3,1112.8,969.9z"/>
<path id="XMLID_230_" class="st2" d="M1122.9,969.9c0,1.6,1.4,3,3,3c1.7,0,2.9-1.3,2.9-3c0-1.6-1.3-3-2.9-3
	C1124.2,966.9,1122.9,968.3,1122.9,969.9z"/>
<path id="XMLID_229_" class="st2" d="M1133,969.9c0,1.6,1.3,3,2.9,3c1.7,0,3-1.3,3-3c0-1.6-1.3-3-3-3
	C1134.3,966.9,1133,968.3,1133,969.9z"/>
<path id="XMLID_228_" class="st2" d="M1143.1,969.9c0,1.6,1.3,3,3,3c1.7,0,2.9-1.3,2.9-3c0-1.6-1.3-3-2.9-3
	C1144.4,966.9,1143.1,968.3,1143.1,969.9z"/>
<circle id="XMLID_227_" class="st2" cx="1002.7" cy="969.9" r="3"/>
<circle id="XMLID_226_" class="st2" cx="992.4" cy="969.9" r="3"/>
<text id="XMLID_224_" transform="matrix(1 0 0 1 856.75 945.3188)" class="st2 st4 st5 st6">CHRONIC CONDITIONS</text>
<g id="XMLID_99_">
	<g id="XMLID_221_">
		<path id="XMLID_223_" class="st7" d="M1732.2,894.3c-0.1,5.5,1.1,19.8,1.1,19.8s1.7-14.3,1.8-19.7c0-1.8-0.6-3.2-1.4-3.2
			C1732.9,891.1,1732.3,892.6,1732.2,894.3z"/>
		<path id="XMLID_222_" class="st7" d="M1734.4,938c0.1-5.5-1.1-19.8-1.1-19.8s-1.7,14.3-1.8,19.7c0,1.8,0.6,3.2,1.4,3.2
			C1733.7,941.2,1734.3,939.8,1734.4,938z"/>
	</g>
	<path id="XMLID_220_" class="st8" d="M1723.9,916.6C1723.9,916.6,1723.9,916.5,1723.9,916.6L1723.9,916.6
		c-0.1-5.6,0.4-10.4,1.2-10.1c5.9,1.6,10,5.3,10.1,9.8l0,0l0,0l0,0l0,0l0,0l0,0c0.1,4.5-3.9,8.5-9.7,10.3
		C1724.8,926.9,1724.1,922.2,1723.9,916.6L1723.9,916.6L1723.9,916.6z"/>
	<path id="XMLID_219_" class="st7" d="M1564.9,881.7c15.3,0.3,18.5,4.9,25.6,19.9l2.9,5.8c15.2-3,33.1-5.3,54-5.4c1.2,0,2.9,0,4.9,0
		c0,2.7,6.1,6.7,13.7,6.6c7.5,0,13.6-4,13.6-6.7c13.7,0,33.8-0.1,42.2-0.1c2.1,0,3.9,1.7,3.9,3.9v0.8c-0.2,0-0.3-0.1-0.5-0.1
		c-0.8-0.2-1.3,4.5-1.2,10.1l0,0l0,0l0,0l0,0c0.1,5.6,0.9,10.3,1.7,10h0.1v0.5c0,1.4-0.9,3.3-2.1,4c-35.7,22.5-134.4-4.3-161.5-12.2
		c-0.9-0.3-1.6-1.2-1.6-2c0-0.9,0.7-1.7,1.6-2c1.3-0.4,2.7-0.7,4.1-1.1l-3.2-30.1C1562.9,882.6,1563.7,881.6,1564.9,881.7z"/>
	<circle id="XMLID_218_" class="st9" cx="1690.9" cy="953.4" r="11.3"/>
	<circle id="XMLID_217_" class="st8" cx="1690.9" cy="953.4" r="6.5"/>
	<path id="XMLID_216_" class="st7" d="M1708.5,951.2c0-9.4-7.7-17.1-17.1-17c-9.4,0-17.1,7.7-17,17.1L1708.5,951.2z"/>
	<g id="XMLID_214_">
		<path id="XMLID_215_" class="st8" d="M1601.1,916.9c0,1.5-1.3,2.7-3.6,2.7c-1.7,0-22-1.3-33.6-2.1c-0.5,0-0.8-0.3-0.8-0.5
			c0-0.3,0.4-0.5,0.8-0.6c11.6-0.8,31.9-2.2,33.6-2.2C1599.9,914.2,1601.1,915.4,1601.1,916.9z"/>
	</g>
	<path id="XMLID_213_" class="st10" d="M1722.7,870.5l-0.1-0.1C1722.6,870.5,1722.6,870.5,1722.7,870.5z"/>
	<path id="XMLID_212_" class="st10" d="M1723.4,871.1C1723.3,871.1,1723.3,871.1,1723.4,871.1
		C1723.3,871.1,1723.3,871.1,1723.4,871.1z"/>
	<path id="XMLID_211_" class="st10" d="M1721.1,869.9c-0.1,0-0.1,0-0.2,0C1721,869.9,1721.1,869.9,1721.1,869.9z"/>
	<path id="XMLID_210_" class="st10" d="M1723,870.8L1723,870.8L1723,870.8z"/>
	<path id="XMLID_209_" class="st10" d="M1721.6,870.1c-0.1,0-0.1,0-0.2,0C1721.5,870,1721.6,870,1721.6,870.1z"/>
	<path id="XMLID_208_" class="st10" d="M1722.1,870.2L1722.1,870.2L1722.1,870.2z"/>
	<path id="XMLID_207_" class="st10" d="M1724.2,873.8L1724.2,873.8L1724.2,873.8z"/>
	<path id="XMLID_206_" class="st10" d="M1660.9,878C1660.9,878,1660.8,878,1660.9,878C1660.8,878,1660.9,878,1660.9,878z"/>
	<path id="XMLID_205_" class="st10" d="M1723.7,871.6C1723.7,871.5,1723.6,871.5,1723.7,871.6
		C1723.6,871.5,1723.7,871.5,1723.7,871.6z"/>
	<path id="XMLID_204_" class="st10" d="M1724.2,873.4L1724.2,873.4C1724.2,873.3,1724.2,873.3,1724.2,873.4z"/>
	<path id="XMLID_203_" class="st10" d="M1724.1,872.4C1724.1,872.3,1724,872.3,1724.1,872.4C1724,872.3,1724.1,872.3,1724.1,872.4z"
		/>
	<path id="XMLID_202_" class="st10" d="M1724.2,872.9C1724.2,872.8,1724.2,872.8,1724.2,872.9
		C1724.2,872.8,1724.2,872.8,1724.2,872.9z"/>
	<path id="XMLID_201_" class="st10" d="M1723.9,872c0,0,0-0.1-0.1-0.1C1723.9,871.9,1723.9,871.9,1723.9,872z"/>
	<path id="XMLID_200_" class="st10" d="M1660.2,878.5L1660.2,878.5L1660.2,878.5z"/>
	<path id="XMLID_199_" class="st10" d="M1660.4,878.3L1660.4,878.3L1660.4,878.3z"/>
	<path id="XMLID_198_" class="st10" d="M1660.1,878.6L1660.1,878.6L1660.1,878.6z"/>
	<path id="XMLID_197_" class="st11" d="M1659.9,878.9c-0.1,0.3,0.1,1.3,1.6,0.9c7.9-2.2,29.4-8.1,55.5-3.8c6,1,7-1.4,7.2-2
		c-0.1,0.6-0.3,1.3-0.7,2l-9.8,15.6l-34.6,0.1l-18.2-11C1660,880.2,1659.7,879.5,1659.9,878.9z"/>
	<path id="XMLID_196_" class="st10" d="M1660,878.8L1660,878.8L1660,878.8z"/>
	<path id="XMLID_195_" class="st10" d="M1660.7,878.1C1660.6,878.1,1660.6,878.2,1660.7,878.1
		C1660.6,878.2,1660.6,878.1,1660.7,878.1z"/>
	<path id="XMLID_194_" class="st12" d="M1660.8,878c-0.1,0-0.1,0.1-0.2,0.1C1660.7,878.1,1660.8,878.1,1660.8,878z"/>
	<path id="XMLID_193_" class="st12" d="M1724,872.3c0-0.1-0.1-0.2-0.1-0.3C1724,872.1,1724,872.2,1724,872.3z"/>
	<path id="XMLID_192_" class="st12" d="M1660,878.7L1660,878.7L1660,878.7z"/>
	<path id="XMLID_191_" class="st12" d="M1724.2,872.8c0-0.1-0.1-0.3-0.1-0.4C1724.1,872.5,1724.1,872.6,1724.2,872.8z"/>
	<path id="XMLID_190_" class="st12" d="M1724.2,873.8c0-0.1,0-0.3,0-0.4C1724.2,873.5,1724.2,873.6,1724.2,873.8z"/>
	<path id="XMLID_189_" class="st12" d="M1659.9,878.9C1659.9,878.8,1659.9,878.8,1659.9,878.9L1659.9,878.9L1659.9,878.9z"/>
	<path id="XMLID_188_" class="st12" d="M1724.2,873.9v0.1C1724.2,873.9,1724.2,873.9,1724.2,873.9
		C1724.2,873.8,1724.2,873.9,1724.2,873.9z"/>
	<path id="XMLID_187_" class="st12" d="M1724.2,873.2c0-0.1,0-0.2,0-0.4C1724.2,873,1724.2,873.1,1724.2,873.2z"/>
	<path id="XMLID_186_" class="st12" d="M1723.8,871.8c0-0.1-0.1-0.2-0.2-0.3C1723.7,871.7,1723.8,871.8,1723.8,871.8z"/>
	<path id="XMLID_185_" class="st12" d="M1721.5,870c-0.1,0-0.2-0.1-0.4-0.1C1721.2,869.9,1721.4,870,1721.5,870z"/>
	<path id="XMLID_184_" class="st12" d="M1723.6,871.5c-0.1-0.1-0.2-0.2-0.3-0.3C1723.5,871.2,1723.5,871.4,1723.6,871.5z"/>
	<path id="XMLID_183_" class="st12" d="M1720.9,869.9c-0.2,0-0.4-0.1-0.6-0.1C1720.6,869.8,1720.8,869.8,1720.9,869.9z"/>
	<path id="XMLID_182_" class="st12" d="M1722.1,870.2c-0.1-0.1-0.3-0.1-0.4-0.2C1721.8,870.1,1721.9,870.2,1722.1,870.2z"/>
	<path id="XMLID_181_" class="st12" d="M1661.1,877.9c-0.1,0-0.2,0.1-0.3,0.1C1661,878,1661.1,877.9,1661.1,877.9z"/>
	<path id="XMLID_180_" class="st12" d="M1660.6,878.2C1660.5,878.2,1660.5,878.3,1660.6,878.2
		C1660.5,878.2,1660.5,878.2,1660.6,878.2z"/>
	<path id="XMLID_179_" class="st12" d="M1660.2,878.5L1660.2,878.5C1660.1,878.6,1660.1,878.5,1660.2,878.5z"/>
	<path id="XMLID_178_" class="st12" d="M1722.9,870.7c-0.1-0.1-0.2-0.1-0.3-0.2C1722.7,870.6,1722.8,870.7,1722.9,870.7z"/>
	<path id="XMLID_177_" class="st12" d="M1723.3,871.1c-0.1-0.1-0.2-0.2-0.3-0.3C1723.1,870.9,1723.2,871,1723.3,871.1z"/>
	<path id="XMLID_176_" class="st12" d="M1722.5,870.5c-0.1-0.1-0.3-0.2-0.4-0.2C1722.3,870.3,1722.4,870.4,1722.5,870.5z"/>
	<path id="XMLID_175_" class="st12" d="M1660.4,878.3c-0.1,0-0.1,0.1-0.2,0.1C1660.3,878.4,1660.3,878.4,1660.4,878.3z"/>
	<path id="XMLID_174_" class="st13" d="M1717,875.9c-26.1-4.3-47.6,1.6-55.5,3.8c-1.5,0.4-1.6-0.5-1.6-0.9v-0.1l0,0
		c0,0,0-0.1,0.1-0.1l0,0l0.1-0.1l0,0c0-0.1,0.1-0.1,0.2-0.1l0,0l0.1-0.1h0.1c0,0,0.1-0.1,0.2-0.1h0.1c0.1,0,0.2-0.1,0.3-0.1
		c8.1-3,30.9-11.5,59.2-8.1c0.2,0,0.4,0.1,0.6,0.1c0.1,0,0.1,0,0.2,0s0.3,0.1,0.4,0.1s0.1,0,0.2,0c0.1,0.1,0.3,0.1,0.4,0.2l0,0
		c0.1,0.1,0.3,0.1,0.4,0.2c0,0,0.1,0,0.1,0.1c0.1,0.1,0.2,0.1,0.3,0.2l0.1,0.1c0.1,0.1,0.2,0.2,0.3,0.3l0,0c0.1,0.1,0.2,0.2,0.3,0.3
		c0,0,0,0.1,0.1,0.1c0.1,0.1,0.1,0.2,0.2,0.3c0,0,0,0.1,0.1,0.1c0.1,0.1,0.1,0.2,0.1,0.3c0,0,0,0,0,0.1c0,0.1,0.1,0.3,0.1,0.4v0.1
		c0,0.1,0,0.2,0,0.4v0.1c0,0.1,0,0.3,0,0.4c0,0,0,0,0,0.1c0,0.1,0,0.1,0,0.2C1724,874.6,1722.9,876.9,1717,875.9z"/>
	<path id="XMLID_173_" class="st10" d="M1665.1,942.2c0.1,0,0.1,0,0.2,0C1665.2,942.2,1665.2,942.2,1665.1,942.2z"/>
	<path id="XMLID_172_" class="st10" d="M1665.4,942.2c0.1,0,0.2,0,0.2,0C1665.5,942.2,1665.4,942.2,1665.4,942.2z"/>
	<path id="XMLID_171_" class="st11" d="M1665.4,940.1l12.9-10.1c0.6-0.4,1.6-0.8,2.3-0.8c4-0.1,16-0.2,21.1-0.1
		c0.7,0,1.8,0.4,2.4,0.7l12,7.4c-5.1-1.9-26-1.9-50.1,3.2c-1.5,0.3-1.6,1.2-1.2,1.5c0.1,0.1,0.2,0.2,0.4,0.2
		C1664.3,942,1664.1,940.9,1665.4,940.1z"/>
	<path id="XMLID_170_" class="st12" d="M1665.1,942.2L1665.1,942.2L1665.1,942.2z"/>
	<path id="XMLID_168_" class="st12" d="M1665.3,942.2L1665.3,942.2L1665.3,942.2z"/>
	<path id="XMLID_134_" class="st13" d="M1665.9,940.5c24.1-5.2,45.1-5.1,50.1-3.2c0.3,0.2,1.3,1,1.3,1.9c0,1-0.8,1.7-1.5,1.6
		c-8.1-1.2-25.3-2.9-50.3,1.5c-0.1,0-0.2,0-0.2,0s0,0-0.1,0s-0.1,0-0.2,0c0,0,0,0-0.1,0s-0.3-0.1-0.4-0.2
		C1664.3,941.6,1664.5,940.8,1665.9,940.5z"/>
	<g id="XMLID_102_">
		<path id="XMLID_132_" class="st9" d="M1680.8,933.4c0.3,0.1,0.5-0.1,0.6-0.3l22.6-54.2c0.1-0.3,0-0.6-0.3-0.7
			c-0.3-0.1-0.6,0-0.7,0.3l-22.6,54.2C1680.4,933,1680.5,933.3,1680.8,933.4L1680.8,933.4z"/>
	</g>
	<g id="XMLID_100_">
		<path id="XMLID_101_" class="st9" d="M1702.4,933.1c0.1,0,0.2,0,0.3,0c0.3-0.1,0.4-0.4,0.3-0.7l-22-53.2c-0.1-0.3-0.4-0.4-0.7-0.3
			c-0.3,0.1-0.4,0.4-0.3,0.7l22,53.2C1702.1,933,1702.2,933.1,1702.4,933.1z"/>
	</g>
</g>
</svg>
