<?xml version="1.0" encoding="utf-8"?>
<!-- Generator: Adobe Illustrator 19.0.0, SVG Export Plug-In . SVG Version: 6.00 Build 0)  -->
<svg version="1.1" id="Layer_1" xmlns="http://www.w3.org/2000/svg" xmlns:xlink="http://www.w3.org/1999/xlink" x="0px" y="0px"
	 viewBox="0 0 163.7 70.1" style="enable-background:new 0 0 163.7 70.1;" xml:space="preserve">
<style type="text/css">
	.st0{fill:#392317;}
</style>
<g id="XMLID_20_">
	<g id="XMLID_283_">
		<path id="XMLID_311_" class="st0" d="M7.7,59h1.9v4.5h5.2V59h1.9v10.9h-1.9v-4.6H9.6v4.6H7.7V59z"/>
		<path id="XMLID_308_" class="st0" d="M23.4,59h1.8l4.8,11h-2l-1.1-2.6h-5.1l-1.1,2.6h-2L23.4,59z M26.1,65.6l-1.9-4.3l-1.9,4.3
			H26.1z"/>
		<path id="XMLID_306_" class="st0" d="M29.3,59h2.1l3.3,8.4L38,59H40l-4.5,11h-1.7L29.3,59z"/>
		<path id="XMLID_304_" class="st0" d="M41.9,59h8.1v1.7h-6.2v2.8h5.5v1.7h-5.5v2.9H50v1.7h-8.1V59z"/>
		<path id="XMLID_302_" class="st0" d="M56.9,59h1.9v9.1h5.7v1.7h-7.6V59z"/>
		<path id="XMLID_299_" class="st0" d="M65.4,64.5L65.4,64.5c0-3.1,2.4-5.7,5.7-5.7s5.7,2.5,5.7,5.6v0c0,3.1-2.4,5.6-5.7,5.6
			C67.8,70.1,65.4,67.6,65.4,64.5z M74.8,64.5L74.8,64.5c0-2.1-1.5-3.9-3.7-3.9c-2.2,0-3.7,1.7-3.7,3.8v0c0,2.1,1.5,3.9,3.7,3.9
			S74.8,66.6,74.8,64.5z"/>
		<path id="XMLID_297_" class="st0" d="M77.7,59h2.1l2.6,8.1L85,59h1.6l2.7,8.1l2.6-8.1h2l-3.8,11h-1.6l-2.7-7.8L83.1,70h-1.6
			L77.7,59z"/>
		<path id="XMLID_295_" class="st0" d="M100.6,59h1.9v10.9h-1.9V59z"/>
		<path id="XMLID_293_" class="st0" d="M105.4,59h1.8l5.8,7.5V59h1.9v10.9h-1.6l-6-7.7v7.7h-1.9V59z"/>
		<path id="XMLID_291_" class="st0" d="M117.2,64.5L117.2,64.5c0-3.1,2.3-5.7,5.6-5.7c2,0,3.2,0.7,4.3,1.7l-1.2,1.4
			c-0.9-0.8-1.8-1.4-3-1.4c-2.1,0-3.6,1.7-3.6,3.8v0c0,2.1,1.5,3.9,3.6,3.9c1.3,0,2.2-0.5,3.1-1.4l1.2,1.2c-1.1,1.2-2.4,1.9-4.4,1.9
			C119.6,70.1,117.2,67.6,117.2,64.5z"/>
		<path id="XMLID_288_" class="st0" d="M128.4,64.5L128.4,64.5c0-3.1,2.4-5.7,5.7-5.7s5.7,2.5,5.7,5.6v0c0,3.1-2.4,5.6-5.7,5.6
			S128.4,67.6,128.4,64.5z M137.7,64.5L137.7,64.5c0-2.1-1.5-3.9-3.7-3.9c-2.2,0-3.7,1.7-3.7,3.8v0c0,2.1,1.5,3.9,3.7,3.9
			C136.2,68.4,137.7,66.6,137.7,64.5z"/>
		<path id="XMLID_286_" class="st0" d="M142.1,59h2l3.3,5.1l3.3-5.1h2v10.9h-1.9v-7.8l-3.4,5.1h-0.1l-3.4-5.1v7.8h-1.9V59z"/>
		<path id="XMLID_284_" class="st0" d="M155.5,59h8.1v1.7h-6.2v2.8h5.5v1.7h-5.5v2.9h6.2v1.7h-8.1V59z"/>
	</g>
</g>
<g id="XMLID_14_">
	<g id="XMLID_108_">
		<path id="XMLID_112_" class="st0" d="M10.4,12.8l-7.9,1.8L0,4.5l13.8-3.9h9.5V48H10.4V12.8z"/>
		<path id="XMLID_109_" class="st0" d="M34.7,43.6c-3.5-3.5-5.8-8.8-5.8-17.6v-0.1C28.9,11.2,36.1,0,50.8,0C57.4,0,62,1.8,66.5,5.2
			l-6.1,9.2c-2.9-2.2-5.6-3.6-9.4-3.6c-5.5,0-8.3,4.1-8.9,10c2.5-1.9,5.5-3.6,10.2-3.6c8.3,0,15.5,5.2,15.5,14.7V32
			c0,10.6-8.4,17-18.7,17C42.4,49,38.1,47,34.7,43.6z M55.1,32.8v-0.1c0-3.4-2.6-6.1-6.7-6.1c-4.1,0-6.5,2.6-6.5,6v0.1
			c0,3.4,2.6,6.1,6.7,6.1S55.1,36.2,55.1,32.8z"/>
	</g>
</g>
</svg>
