<?xml version="1.0" encoding="utf-8"?>
<!-- Generator: Adobe Illustrator 19.0.0, SVG Export Plug-In . SVG Version: 6.00 Build 0)  -->
<svg version="1.1" id="Layer_1" xmlns="http://www.w3.org/2000/svg" xmlns:xlink="http://www.w3.org/1999/xlink" x="0px" y="0px"
	 viewBox="-687 621 358.3 296.9" style="enable-background:new -687 621 358.3 296.9;" xml:space="preserve">
<style type="text/css">
	.st0{fill:#8B5E3C;}
	.st1{fill:#A97C50;}
	.st2{fill:#414042;}
	.st3{fill:#009444;}
	.st4{fill:#603913;}
	.st5{fill:#FFFFFF;}
	.st6{opacity:0.2;}
	.st7{fill:#EEB600;}
</style>
<rect x="-612.1" y="836.9" class="st0" width="28.5" height="81"/>
<rect x="-432.4" y="836.9" class="st0" width="28.5" height="81"/>
<path class="st1" d="M-356.3,853.4H-660c-9.4,0-17-4-17-8.9V640c0-4.9,7.6-8.9,17-8.9h303.7c9.4,0,17,4,17,8.9v204.6
	C-339.5,849.5-346.9,853.4-356.3,853.4z"/>
<path class="st2" d="M-351,860h-313.7c-12.3,0-22.3-10-22.3-22.3V643.3c0-12.3,10-22.3,22.3-22.3H-351c12.3,0,22.3,10,22.3,22.3
	v194.5C-328.8,850-338.7,860-351,860z M-664.7,641.1c-1.3,0-2.3,1-2.3,2.3v194.5c0,1.2,1,2.3,2.3,2.3H-351c1.2,0,2.3-1,2.3-2.3
	V643.3c0-1.2-1-2.3-2.3-2.3L-664.7,641.1L-664.7,641.1z"/>
<rect x="-618.9" y="899" class="st3" width="41.3" height="18.9"/>
<rect x="-438.8" y="899" class="st3" width="41.3" height="18.9"/>
<polygon class="st4" points="-612.1,860.5 -583.6,860.5 -583.6,881.1 "/>
<polygon class="st4" points="-432.4,860.4 -403.9,860.4 -403.9,881.1 "/>
<g>
	<g>
		<g>
			<path class="st5" d="M-514.9,721.6h1.3l3.6,8.3h-1.5l-0.8-2h-3.9l-0.9,2h-1.5L-514.9,721.6z M-512.8,726.7l-1.4-3.3l-1.4,3.3
				H-512.8z"/>
			<path class="st5" d="M-508.4,721.7h3.7c1,0,1.9,0.3,2.4,0.8c0.4,0.4,0.7,1.1,0.7,1.8v0c0,1.4-0.8,2.2-2,2.5l2.2,3.1h-1.7l-2-2.9
				h-1.8v2.9h-1.5V721.7z M-504.9,725.8c1,0,1.7-0.5,1.7-1.4v0c0-0.9-0.6-1.4-1.7-1.4h-2.1v2.8H-504.9z"/>
			<path class="st5" d="M-499.9,721.7h6.1v1.3h-4.7v2.2h4.2v1.3h-4.2v2.2h4.7v1.3h-6.2V721.7z"/>
			<path class="st5" d="M-488.6,726.4v-4.8h1.5v4.7c0,1.5,0.8,2.4,2.1,2.4c1.3,0,2.1-0.8,2.1-2.3v-4.8h1.5v4.7
				c0,2.5-1.4,3.7-3.6,3.7C-487.2,730.1-488.6,728.8-488.6,726.4z"/>
			<path class="st5" d="M-479.5,721.7h1.3l4.4,5.7v-5.7h1.4v8.3h-1.2l-4.6-5.9v5.9h-1.4V721.7z"/>
			<path class="st5" d="M-470.1,721.7h6.1v1.3h-4.7v2.2h4.2v1.3h-4.2v2.2h4.7v1.3h-6.2V721.7z"/>
			<path class="st5" d="M-462.2,721.7h1.5l2.5,3.9l2.5-3.9h1.5v8.3h-1.5V724l-2.6,3.9h0l-2.6-3.9v5.9h-1.4V721.7z"/>
			<path class="st5" d="M-451.9,721.7h3.3c1.9,0,3.1,1.1,3.1,2.8v0c0,1.9-1.5,2.8-3.3,2.8h-1.6v2.7h-1.5V721.7z M-448.8,726
				c1.1,0,1.8-0.6,1.8-1.5v0c0-1-0.7-1.5-1.8-1.5h-1.7v3H-448.8z"/>
			<path class="st5" d="M-444,721.7h1.5v7h4.4v1.3h-5.8V721.7z"/>
			<path class="st5" d="M-437.6,725.8L-437.6,725.8c0-2.4,1.8-4.3,4.3-4.3s4.3,1.9,4.3,4.3v0c0,2.3-1.8,4.3-4.3,4.3
				S-437.6,728.2-437.6,725.8z M-430.4,725.8L-430.4,725.8c0-1.6-1.2-3-2.8-3c-1.6,0-2.8,1.3-2.8,2.9v0c0,1.6,1.2,2.9,2.8,2.9
				C-431.6,728.8-430.4,727.5-430.4,725.8z"/>
			<path class="st5" d="M-425.4,726.7l-3.3-5h1.7l2.3,3.7l2.3-3.7h1.7l-3.3,5v3.3h-1.5V726.7z"/>
			<path class="st5" d="M-419.4,721.7h6.1v1.3h-4.7v2.2h4.2v1.3h-4.2v2.2h4.7v1.3h-6.2V721.7z"/>
			<path class="st5" d="M-411.5,721.7h3.1c2.6,0,4.4,1.8,4.4,4.1v0c0,2.3-1.8,4.1-4.4,4.1h-3.1V721.7z M-408.4,728.6
				c1.7,0,2.9-1.2,2.9-2.8v0c0-1.6-1.1-2.8-2.9-2.8h-1.6v5.6H-408.4z"/>
		</g>
		<g>
			<g>
				<path class="st5" d="M-512.6,788h1.5v3.4h3.9V788h1.5v8.3h-1.5v-3.5h-3.9v3.5h-1.5V788z"/>
				<path class="st5" d="M-500.6,787.9h1.3l3.6,8.3h-1.5l-0.8-2h-3.9l-0.9,2h-1.5L-500.6,787.9z M-498.6,792.9l-1.4-3.3l-1.4,3.3
					H-498.6z"/>
				<path class="st5" d="M-496.1,788h1.6l2.5,6.4l2.5-6.4h1.6l-3.4,8.3h-1.3L-496.1,788z"/>
				<path class="st5" d="M-486.5,788h6.1v1.3h-4.7v2.2h4.2v1.3h-4.2v2.2h4.7v1.3h-6.2V788z"/>
				<path class="st5" d="M-475.1,788h1.5v7h4.4v1.3h-5.8V788z"/>
				<path class="st5" d="M-468.6,792.1L-468.6,792.1c0-2.4,1.8-4.3,4.3-4.3s4.3,1.9,4.3,4.3v0c0,2.3-1.8,4.3-4.3,4.3
					S-468.6,794.4-468.6,792.1z M-461.5,792.1L-461.5,792.1c0-1.6-1.2-3-2.8-3c-1.6,0-2.8,1.3-2.8,2.9v0c0,1.6,1.2,2.9,2.8,2.9
					C-462.6,795-461.5,793.7-461.5,792.1z"/>
				<path class="st5" d="M-459.3,788h1.6l2,6.1l2-6.2h1.2l2,6.2l2-6.1h1.5l-2.9,8.3h-1.3l-2-5.9l-2,5.9h-1.3L-459.3,788z"/>
				<path class="st5" d="M-441.8,788h1.5v8.3h-1.5V788z"/>
				<path class="st5" d="M-438.1,788h1.3l4.4,5.7V788h1.4v8.3h-1.2l-4.6-5.9v5.9h-1.4V788z"/>
				<path class="st5" d="M-429.1,792.1L-429.1,792.1c0-2.4,1.8-4.3,4.3-4.3c1.5,0,2.4,0.5,3.2,1.3l-0.9,1.1c-0.7-0.6-1.4-1-2.3-1
					c-1.6,0-2.7,1.3-2.7,2.9v0c0,1.6,1.1,2.9,2.7,2.9c1,0,1.7-0.4,2.4-1.1l0.9,0.9c-0.9,0.9-1.8,1.5-3.4,1.5
					C-427.4,796.4-429.1,794.5-429.1,792.1z"/>
				<path class="st5" d="M-420.7,792.1L-420.7,792.1c0-2.4,1.8-4.3,4.3-4.3s4.3,1.9,4.3,4.3v0c0,2.3-1.8,4.3-4.3,4.3
					S-420.7,794.4-420.7,792.1z M-413.5,792.1L-413.5,792.1c0-1.6-1.2-3-2.8-3c-1.6,0-2.8,1.3-2.8,2.9v0c0,1.6,1.2,2.9,2.8,2.9
					C-414.7,795-413.5,793.7-413.5,792.1z"/>
				<path class="st5" d="M-410.2,788h1.5l2.5,3.9l2.5-3.9h1.5v8.3h-1.5v-5.9l-2.6,3.9h0l-2.6-3.9v5.9h-1.4V788z"/>
				<path class="st5" d="M-400,788h6.1v1.3h-4.7v2.2h4.2v1.3h-4.2v2.2h4.7v1.3h-6.2V788z"/>
			</g>
		</g>
		<g>
			<g>
				<path class="st5" d="M-510.5,752.7l-6,1.4l-1.9-7.7l10.5-3h7.2v36.1h-9.8V752.7z"/>
				<path class="st5" d="M-492,776.2c-2.7-2.7-4.4-6.7-4.4-13.4v-0.1c0-11.2,5.4-19.7,16.7-19.7c5,0,8.5,1.4,11.9,3.9l-4.7,7
					c-2.2-1.6-4.3-2.7-7.1-2.7c-4.2,0-6.3,3.1-6.8,7.6c1.9-1.4,4.2-2.8,7.7-2.8c6.3,0,11.8,4,11.8,11.2v0.1c0,8-6.4,12.9-14.2,12.9
					C-486.1,780.3-489.4,778.7-492,776.2z M-476.5,767.9v-0.1c0-2.6-1.9-4.6-5.1-4.6s-5,2-5,4.6v0.1c0,2.6,1.9,4.7,5.1,4.7
					S-476.5,770.5-476.5,767.9z"/>
			</g>
		</g>
		<g>
			<g>
				<path class="st5" d="M-510.5,686.4l-6,1.4l-1.9-7.7l10.5-3h7.2v36.1h-9.8V686.4z"/>
				<path class="st5" d="M-496.4,695.5v-0.1c0-10.1,6.5-18.7,16.7-18.7c10.2,0,16.6,8.4,16.6,18.5v0.1c0,10.1-6.4,18.7-16.7,18.7
					C-490.1,714-496.4,705.6-496.4,695.5z M-473.2,695.5v-0.1c0-5.7-2.7-9.8-6.7-9.8s-6.6,4-6.6,9.7v0.1c0,5.7,2.7,9.8,6.7,9.8
					S-473.2,701.1-473.2,695.5z"/>
			</g>
		</g>
	</g>
	<g>
		<g class="st6">
			<circle cx="-576.3" cy="674.1" r="14.8"/>
			<path d="M-532.3,715l-24.3-19.7c-1.2-1-2.8-1.6-4.3-1.6l-30.9,0c-1.5,0.1-2.9,0.7-4.1,1.6l-24.3,19.7c-2.5,2-3.4,5.4-2.4,8.4
				l9.3,26.4c1.1,3.1,4,5,7.1,5c0.8,0,1.7-0.1,2.5-0.4c1-0.4,1.9-0.9,2.6-1.6c1.1,2.4,4.1,6.5,9.2,13.1c0,16.7,0,47.6,0,47.6
				c0,4.2,3.2,7.6,7.2,7.6c3.9,0,7.2-3.4,7.2-7.6v-54.6h2.2v54.7c0,4.2,3.2,7.6,7.2,7.6c3.9,0,7.2-3.4,7.2-7.6l0-47.7
				c5.2-6.7,8.2-10.9,9.3-13.3c0.8,0.7,1.7,1.4,2.7,1.7c0.8,0.3,1.7,0.4,2.5,0.4c3.1,0,6-1.9,7.1-5l9.3-26.4
				C-528.9,720.3-529.9,717-532.3,715z M-598.9,744.7l-7.6-21.4l14.7-11.9v40.9c-3.2-1.1-5.7-1.9-7.3-2.1
				C-598.4,748.4-598.3,746.5-598.9,744.7z M-553.5,744.7c-0.6,1.8-0.5,3.7,0.2,5.3c-1.6,0.2-4.2,1-7.6,2.2l0-41.1l15,12.2
				L-553.5,744.7z"/>
		</g>
		<g>
			<g>
				<circle class="st7" cx="-580.3" cy="670.1" r="14.8"/>
				<path class="st7" d="M-536.3,711l-24.3-19.7c-1.2-1-2.8-1.6-4.3-1.6l-30.9,0c-1.5,0.1-2.9,0.7-4.1,1.6l-24.3,19.7
					c-2.5,2-3.4,5.4-2.4,8.4l9.3,26.4c1.1,3.1,4,5,7.1,5c0.8,0,1.7-0.1,2.5-0.4c1-0.4,1.9-0.9,2.6-1.6c1.1,2.4,4.1,6.5,9.2,13.1
					c0,16.7,0,47.6,0,47.6c0,4.2,3.2,7.6,7.2,7.6c3.9,0,7.2-3.4,7.2-7.6v-54.6h2.2v54.7c0,4.2,3.2,7.6,7.2,7.6
					c3.9,0,7.2-3.4,7.2-7.6l0-47.7c5.2-6.7,8.2-10.9,9.3-13.3c0.8,0.7,1.7,1.4,2.7,1.7c0.8,0.3,1.7,0.4,2.5,0.4c3.1,0,6-1.9,7.1-5
					l9.3-26.4C-532.9,716.3-533.9,713-536.3,711z M-602.9,740.7l-7.6-21.4l14.7-11.9v40.9c-3.2-1.1-5.7-1.9-7.3-2.1
					C-602.4,744.4-602.3,742.5-602.9,740.7z M-557.5,740.7c-0.6,1.8-0.5,3.7,0.2,5.3c-1.6,0.2-4.2,1-7.6,2.2l0-41.1l15,12.2
					L-557.5,740.7z"/>
			</g>
		</g>
	</g>
</g>
</svg>
