<?xml version="1.0" encoding="utf-8"?>
<!-- Generator: Adobe Illustrator 19.0.0, SVG Export Plug-In . SVG Version: 6.00 Build 0)  -->
<svg version="1.1" id="Layer_1" xmlns="http://www.w3.org/2000/svg" xmlns:xlink="http://www.w3.org/1999/xlink" x="0px" y="0px"
	 viewBox="0 0 152.3 70.1" style="enable-background:new 0 0 152.3 70.1;" xml:space="preserve">
<style type="text/css">
	.st0{fill:#392317;}
</style>
<g id="XMLID_20_">
	<path id="XMLID_21_" class="st0" d="M4.8,59h1.8l4.8,11h-2l-1.1-2.6H3.1L2,69.9H0L4.8,59z M7.5,65.6l-1.9-4.3l-1.9,4.3H7.5z"/>
	<path id="XMLID_25_" class="st0" d="M13.2,59H18c1.4,0,2.4,0.4,3.1,1.1c0.6,0.6,0.9,1.4,0.9,2.3v0c0,1.8-1.1,2.9-2.6,3.3l2.9,4.1
		h-2.3l-2.7-3.8h-2.4v3.8h-1.9V59z M17.9,64.4c1.4,0,2.2-0.7,2.2-1.8v0c0-1.2-0.8-1.8-2.3-1.8h-2.8v3.7H17.9z"/>
	<path id="XMLID_29_" class="st0" d="M24.4,59h8.1v1.7h-6.2v2.8h5.5v1.7h-5.5v2.9h6.2v1.7h-8.1V59z"/>
	<path id="XMLID_31_" class="st0" d="M39.3,65.3V59h1.9v6.2c0,2,1,3.1,2.7,3.1c1.7,0,2.7-1,2.7-3V59h1.9v6.2c0,3.2-1.8,4.9-4.7,4.9
		C41.1,70.1,39.3,68.5,39.3,65.3z"/>
	<path id="XMLID_33_" class="st0" d="M51.2,59H53l5.8,7.5V59h1.9v10.9h-1.6l-6-7.7v7.7h-1.9V59z"/>
	<path id="XMLID_35_" class="st0" d="M63.5,59h8.1v1.7h-6.2v2.8h5.5v1.7h-5.5v2.9h6.2v1.7h-8.1V59z"/>
	<path id="XMLID_37_" class="st0" d="M73.9,59h2l3.3,5.1l3.3-5.1h2v10.9h-1.9v-7.8l-3.4,5.1h-0.1l-3.4-5.1v7.8h-1.9V59z"/>
	<path id="XMLID_39_" class="st0" d="M87.4,59h4.3c2.5,0,4.1,1.4,4.1,3.6v0c0,2.4-2,3.7-4.3,3.7h-2.2v3.5h-1.9V59z M91.5,64.7
		c1.4,0,2.3-0.8,2.3-1.9v0c0-1.3-0.9-1.9-2.3-1.9h-2.2v3.9H91.5z"/>
	<path id="XMLID_42_" class="st0" d="M97.8,59h1.9v9.1h5.7v1.7h-7.6V59z"/>
	<path id="XMLID_44_" class="st0" d="M106.3,64.5L106.3,64.5c0-3.1,2.4-5.7,5.7-5.7s5.7,2.5,5.7,5.6v0c0,3.1-2.4,5.6-5.7,5.6
		C108.6,70.1,106.3,67.6,106.3,64.5z M115.6,64.5L115.6,64.5c0-2.1-1.5-3.9-3.7-3.9c-2.2,0-3.7,1.7-3.7,3.8v0c0,2.1,1.5,3.9,3.7,3.9
		S115.6,66.6,115.6,64.5z"/>
	<path id="XMLID_47_" class="st0" d="M122.2,65.6l-4.3-6.6h2.3l3,4.8l3.1-4.8h2.2l-4.3,6.5v4.3h-1.9V65.6z"/>
	<path id="XMLID_49_" class="st0" d="M130.1,59h8.1v1.7H132v2.8h5.5v1.7H132v2.9h6.2v1.7h-8.1V59z"/>
	<path id="XMLID_51_" class="st0" d="M140.5,59h4.1c3.4,0,5.8,2.3,5.8,5.4v0c0,3.1-2.4,5.4-5.8,5.4h-4.1V59z M144.6,68.2
		c2.3,0,3.8-1.5,3.8-3.7v0c0-2.1-1.5-3.7-3.8-3.7h-2.1v7.4H144.6z"/>
</g>
<g id="XMLID_14_">
	<g id="XMLID_97_">
		<path id="XMLID_101_" class="st0" d="M90.2,12.8l-7.9,1.8L79.8,4.5l13.8-3.9h9.5V48H90.2V12.8z"/>
		<path id="XMLID_98_" class="st0" d="M108.7,24.6v-0.1c0-13.3,8.5-24.5,21.9-24.5c13.4,0,21.7,11,21.7,24.4v0.1
			c0,13.3-8.4,24.5-21.9,24.5S108.7,37.9,108.7,24.6z M139.2,24.6v-0.1c0-7.5-3.6-12.9-8.7-12.9s-8.6,5.2-8.6,12.8v0.1
			c0,7.5,3.5,12.9,8.7,12.9C135.8,37.4,139.2,32.1,139.2,24.6z"/>
	</g>
</g>
</svg>
