<?xml version="1.0" encoding="utf-8"?>
<!-- Generator: Adobe Illustrator 19.0.0, SVG Export Plug-In . SVG Version: 6.00 Build 0)  -->
<svg version="1.1" id="Layer_1" xmlns="http://www.w3.org/2000/svg" xmlns:xlink="http://www.w3.org/1999/xlink" x="0px" y="0px"
	 viewBox="0 0 408.8 247.1" style="enable-background:new 0 0 408.8 247.1;" xml:space="preserve">
<style type="text/css">
	.st0{fill:#FF0000;}
	.st1{fill:#006600;}
	.st2{fill:#FFFF00;}
	.st3{fill:none;stroke:#000000;stroke-width:0.5729;stroke-linecap:round;stroke-linejoin:round;}
	.st4{fill:none;stroke:#000000;stroke-width:0.5732;stroke-linecap:round;stroke-linejoin:round;}
	.st5{fill:none;stroke:#000000;stroke-width:0.5728;stroke-linecap:round;stroke-linejoin:round;}
	.st6{fill:none;stroke:#000000;stroke-width:0.5498;stroke-linecap:round;stroke-linejoin:round;}
	.st7{fill:none;stroke:#000000;stroke-width:0.573;stroke-linecap:round;stroke-linejoin:round;}
	.st8{fill:none;stroke:#000000;stroke-width:0.5724;stroke-linecap:round;stroke-linejoin:round;}
	.st9{fill:none;stroke:#000000;stroke-width:0.5741;stroke-linecap:round;stroke-linejoin:round;}
	.st10{fill:#FFFFFF;}
	.st11{fill:none;stroke:#000000;stroke-width:0.6704;}
	.st12{fill:none;stroke:#000000;stroke-width:0.5073;}
	.st13{fill:#003399;}
	.st14{fill:none;stroke:#000000;stroke-width:0.4994;}
	.st15{fill:none;stroke:#000000;stroke-width:0.497;}
	.st16{fill:none;stroke:#000000;stroke-width:0.499;}
	.st17{fill:none;stroke:#000000;stroke-width:0.5002;}
	.st18{fill:none;stroke:#000000;stroke-width:0.5013;}
</style>
<path id="path1339" class="st0" d="M163.5,247.1h245.3V0H163.5l0,188.6L163.5,247.1z"/>
<path id="path1341" class="st1" d="M0,247.1h163.5V0H0V247.1z"/>
<path id="path1343" class="st2" d="M216.8,166.4c-20.6-0.6-115-59.5-115.6-68.9l5.2-8.7c9.4,13.6,105.9,70.9,115.3,68.9L216.8,166.4
	"/>
<path id="path1345" class="st2" d="M105.3,87.6c-1.8,5,24.6,21.3,56.5,40.7c31.9,19.4,59.3,31.3,61.4,29.6c0.1-0.2,1-1.7,0.9-1.7
	c-0.4,0.6-1.3,0.8-2.8,0.3c-8.6-2.5-31.1-12.8-58.9-29.6c-27.8-16.9-52-32.4-55.7-39c-0.3-0.5-0.4-1.3-0.4-1.9h-0.1l-0.8,1.4
	L105.3,87.6L105.3,87.6L105.3,87.6z M217.3,166.7c-0.3,0.6-1,0.7-2.2,0.5c-7.7-0.9-31.1-12.2-58.7-28.8
	c-32.2-19.3-58.7-36.8-55.9-41.4l0.8-1.4l0.2,0c-2.6,7.8,52.4,39.2,55.7,41.2c31.8,19.7,58.7,31.2,61.1,28.2L217.3,166.7"/>
<path id="path1347" class="st3" d="M105.3,87.6c-1.8,5,24.6,21.3,56.5,40.7c31.9,19.4,59.3,31.3,61.4,29.6c0.1-0.2,1-1.7,0.9-1.7
	c-0.4,0.6-1.3,0.8-2.8,0.3c-8.6-2.5-31.1-12.8-58.9-29.6c-27.8-16.9-52-32.4-55.7-39c-0.3-0.5-0.4-1.3-0.4-1.9l-0.1,0l-0.8,1.4
	L105.3,87.6L105.3,87.6L105.3,87.6z M217.3,166.7c-0.3,0.6-1,0.7-2.2,0.5c-7.7-0.9-31.1-12.2-58.7-28.8
	c-32.2-19.3-58.7-36.8-55.9-41.4l0.8-1.4l0.2,0c-2.6,7.8,52.4,39.2,55.7,41.2c31.8,19.7,58.7,31.2,61.1,28.2L217.3,166.7
	L217.3,166.7L217.3,166.7z"/>
<path id="path1349" class="st2" d="M163.6,103.2c20.6-0.2,46-2.8,60.7-8.6l-3.2-5.1c-8.6,4.8-34.2,7.9-57.7,8.4
	c-27.8-0.3-47.3-2.8-57.2-9.4l-3,5.5C121.4,101.5,139.9,103.1,163.6,103.2"/>
<path id="path1351" class="st2" d="M225.2,94.7c-0.5,0.8-10,4.1-24.1,6.5c-9.5,1.5-22,2.7-37.5,2.7c-14.7,0-26.8-1-35.9-2.3
	c-14.8-2.3-22.4-5.5-25.2-6.7c0.3-0.5,0.4-0.9,0.7-1.4c8.1,3.2,15.8,5.2,24.7,6.6c9.1,1.2,21,2.3,35.6,2.3c15.4,0,27.7-1.4,37.2-2.8
	c14.4-2.3,22.3-5.3,23.4-6.7L225.2,94.7L225.2,94.7L225.2,94.7z M222.4,89.5c-1.6,1.3-9.3,4-23,6.2c-9.1,1.3-20.8,2.5-35.6,2.5
	c-14.1,0-25.6-0.9-34.4-2.2c-13.9-1.8-21.3-5.1-24-6c0.3-0.5,0.5-0.9,0.8-1.4c2.1,1,9.2,3.9,23.3,5.9c8.7,1.2,20.2,2.1,34.2,2.1
	c14.8,0,26.3-1.2,35.4-2.5c13.8-1.9,21.2-5.4,22.3-6.3L222.4,89.5"/>
<path id="path1353" class="st4" d="M225.2,94.7c-0.5,0.8-10,4.1-24.1,6.5c-9.5,1.5-22,2.7-37.5,2.7c-14.7,0-26.8-1-35.9-2.3
	c-14.8-2.3-22.4-5.5-25.2-6.7c0.3-0.5,0.4-0.9,0.7-1.4c8.1,3.2,15.8,5.2,24.7,6.6c9.1,1.2,21,2.3,35.6,2.3c15.4,0,27.7-1.4,37.2-2.8
	c14.4-2.3,22.3-5.3,23.4-6.7L225.2,94.7L225.2,94.7L225.2,94.7z M222.4,89.5c-1.6,1.3-9.3,4-23,6.2c-9.1,1.3-20.8,2.5-35.6,2.5
	c-14.1,0-25.6-0.9-34.4-2.2c-13.9-1.8-21.3-5.1-24-6c0.3-0.5,0.5-0.9,0.8-1.4c2.1,1,9.2,3.9,23.3,5.9c8.7,1.2,20.2,2.1,34.2,2.1
	c14.8,0,26.3-1.2,35.4-2.5c13.8-1.9,21.2-5.4,22.3-6.3L222.4,89.5L222.4,89.5L222.4,89.5z"/>
<path id="path1355" class="st2" d="M96,128c12.7,6.8,40.8,10.3,67.5,10.5c24.3,0,55.8-3.7,67.7-10l-0.3-6.8
	c-3.7,5.8-37.6,11.3-67.6,11.1c-30-0.2-57.9-4.9-67.2-10.9L96,128"/>
<path id="path1357" class="st2" d="M231.7,127l0,1.6c-1.8,2.1-12.9,5.3-26.9,7.6c-10.6,1.6-24.5,2.9-41.7,2.9
	c-16.4,0-29.5-1.2-39.6-2.7c-16-2.3-26.3-6.4-28.3-7.6l0-1.9c6.2,4.1,22.9,7.1,28.6,8c10.1,1.5,23.1,2.7,39.4,2.7
	c17.2,0,31-1.2,41.5-2.8C214.7,133.3,228.9,129.5,231.7,127L231.7,127L231.7,127z M231.8,121.2l0,1.6c-1.8,2.1-12.9,5.3-26.9,7.6
	c-10.6,1.6-24.5,2.9-41.7,2.9c-16.4,0-29.5-1.2-39.6-2.7c-16-2.3-26.3-6.4-28.3-7.6l0-1.9c6.2,4.1,22.9,7.1,28.6,8
	c10.1,1.5,23.1,2.7,39.4,2.7c17.2,0,31-1.2,41.5-2.8C214.7,127.5,228.9,123.7,231.8,121.2"/>
<path id="path1359" class="st5" d="M231.7,127l0,1.6c-1.8,2.1-12.9,5.3-26.9,7.6c-10.6,1.6-24.5,2.9-41.7,2.9
	c-16.4,0-29.5-1.2-39.6-2.7c-16-2.3-26.3-6.4-28.3-7.6l0-1.9c6.2,4.1,22.9,7.1,28.6,8c10.1,1.5,23.1,2.7,39.4,2.7
	c17.2,0,31-1.2,41.5-2.8C214.7,133.3,228.9,129.5,231.7,127L231.7,127L231.7,127z M231.8,121.2l0,1.6c-1.8,2.1-12.9,5.3-26.9,7.6
	c-10.6,1.6-24.5,2.9-41.7,2.9c-16.4,0-29.5-1.2-39.6-2.7c-16-2.3-26.3-6.4-28.3-7.6l0-1.9c6.2,4.1,22.9,7.1,28.6,8
	c10.1,1.5,23.1,2.7,39.4,2.7c17.2,0,31-1.2,41.5-2.8C214.7,127.5,228.9,123.7,231.8,121.2L231.8,121.2L231.8,121.2z"/>
<path id="path1361" class="st2" d="M163.4,165.3c-29.1-0.2-54.1-7.9-59.4-9.2l3.8,6c9.3,3.9,33.7,9.8,55.8,9.1
	c22.1-0.6,41.5-2.4,55.1-9l3.9-6.2C213.5,160.3,181.8,165.2,163.4,165.3"/>
<path id="path1363" class="st2" d="M220.3,160.8c-0.6,0.9-1.2,1.8-1.8,2.6c-6.4,2.3-16.6,4.6-20.8,5.3c-8.7,1.8-22.3,3.1-34.3,3.1
	c-25.8-0.4-47-5.4-56.9-9.7l-0.8-1.4l0.1-0.2l1.4,0.5c17.7,6.3,37.5,8.8,56.3,9.3c11.9,0,23.9-1.4,33.6-3.1
	c14.8-3,20.8-5.2,22.7-6.2L220.3,160.8L220.3,160.8L220.3,160.8z M223.7,155.1C223.7,155.1,223.7,155.2,223.7,155.1
	c-0.4,0.8-0.8,1.5-1.3,2.3c-3.4,1.2-12.7,4-26.3,5.9c-9,1.2-14.5,2.4-32.4,2.7c-33.4-0.9-55-7.4-60.2-9l-0.8-1.5
	c19.4,5.1,39.1,8.6,60.9,8.9c16.3-0.3,23.2-1.5,32.1-2.8c15.9-2.5,23.8-5.1,26.2-5.8c0,0-0.1-0.1-0.1-0.1L223.7,155.1"/>
<path id="path1365" class="st6" d="M220.3,160.8c-0.6,0.9-1.2,1.8-1.8,2.6c-6.4,2.3-16.6,4.7-20.8,5.3c-8.7,1.8-22.3,3.1-34.3,3.1
	c-25.8-0.4-46.9-5.4-56.9-9.7l-0.8-1.4l0.1-0.2l1.4,0.5c17.7,6.3,37.5,8.8,56.3,9.3c11.9,0,23.9-1.4,33.6-3.1
	c14.8-3,20.8-5.2,22.7-6.2L220.3,160.8L220.3,160.8L220.3,160.8z M223.7,155.1C223.7,155.1,223.7,155.2,223.7,155.1
	c-0.4,0.8-0.8,1.5-1.3,2.3c-3.4,1.2-12.7,4-26.3,5.9c-9,1.2-14.5,2.4-32.4,2.7c-33.4-0.9-55-7.4-60.2-9l-0.8-1.5
	c19.4,5.1,39.1,8.6,60.9,8.9c16.3-0.3,23.2-1.5,32.1-2.8c15.9-2.5,23.8-5.1,26.2-5.8c0,0-0.1-0.1-0.1-0.1L223.7,155.1L223.7,155.1
	L223.7,155.1z"/>
<path id="path3966" class="st2" d="M224.1,122.6c0.1,19.2-9.7,36.4-17.6,44c-11.2,10.7-26,17.6-43.3,18
	c-19.3,0.4-37.6-12.2-42.4-17.8c-9.6-10.8-17.3-24.6-17.6-43.1c1.2-20.9,9.4-35.5,21.3-45.5c11.9-10,27.8-14.9,41-14.5
	c15.2,0.4,33,7.9,45.3,22.7C218.7,96.1,222.2,106.7,224.1,122.6L224.1,122.6z M163.3,57c37.1,0,67.7,30.2,67.7,67.3
	c0,37-30.5,67.3-67.7,67.3c-37.1,0-67.4-30.2-67.4-67.3S126.2,57,163.3,57"/>
<path id="path1371" class="st5" d="M163.5,56.8c37.2,0,67.5,30.3,67.5,67.5c0,37.2-30.3,67.5-67.5,67.5c-37.2,0-67.5-30.3-67.5-67.5
	C96,87.1,126.3,56.8,163.5,56.8L163.5,56.8z M163.5,58.2c36.2,0,66,29.7,66,66c0,36.3-29.8,66-66,66c-36.2,0-66-29.7-66-66
	C97.5,87.9,127.3,58.2,163.5,58.2L163.5,58.2z"/>
<path id="path1375" class="st5" d="M163.5,62.4c33.9,0,61.8,27.8,61.8,61.8c0,34-27.9,61.8-61.8,61.8c-33.9,0-61.8-27.8-61.8-61.8
	C101.7,90.2,129.6,62.4,163.5,62.4L163.5,62.4z M163.5,63.8c33.1,0,60.3,27.1,60.3,60.3c0,33.2-27.2,60.3-60.3,60.3
	c-33.1,0-60.3-27.1-60.3-60.3C103.2,91,130.5,63.8,163.5,63.8z"/>
<path id="path1377" class="st2" d="M165.7,55.7v0.7h-4.3v-0.7h-1.5v137.1h1.5v-0.6h4.3v0.7h1.5l0-137.1L165.7,55.7L165.7,55.7z"/>
<path id="path1379" class="st5" d="M161.5,56.5h4.1"/>
<path id="path1381" class="st5" d="M161.5,192h4.1"/>
<path id="path1385" class="st7" d="M165.7,55.7h1.5l0,137.1h-1.5L165.7,55.7L165.7,55.7L165.7,55.7z M159.9,55.7h1.5l0,137.1h-1.5
	L159.9,55.7L159.9,55.7L159.9,55.7z"/>
<path id="path1387" class="st2" d="M95.8,121.3c8.5-7.8,39.7-12.8,67.4-12.7c27.7,0.1,60.5,5.8,67.6,12.5l0.1,5.8
	c-6-5.6-31.5-12.3-67.6-12.4c-36.2-0.1-62.5,6.8-67.4,12.5L95.8,121.3"/>
<path id="path1389" class="st8" d="M95.7,121.6v5"/>
<path id="path1391" class="st8" d="M231,121.8v5"/>
<path id="path1393" class="st2" d="M163.5,113.8c15.9,0,31.4,1.5,43.7,3.9c12.7,2.5,21.6,5.7,24.6,9.2l0,1.8
	c-3.7-4.4-15.7-7.7-24.9-9.5c-12.2-2.4-27.5-3.9-43.4-3.9c-16.7,0-32.3,1.6-44.3,4c-9.6,1.9-22.5,5.7-24.1,9.4v-1.8
	c0.9-2.6,10.4-6.5,23.8-9.1C131.1,115.4,146.7,113.8,163.5,113.8L163.5,113.8L163.5,113.8z M163.5,108c15.9,0,31.4,1.5,43.7,3.9
	c12.7,2.5,21.6,5.7,24.6,9.2l0,1.8c-3.7-4.4-15.7-7.7-24.9-9.5c-12.2-2.4-27.5-3.9-43.4-3.9c-16.7,0-32.2,1.6-44.2,4
	c-9.3,1.8-22.6,5.7-24.1,9.4v-1.8c0.9-2.6,10.6-6.6,23.8-9.1C131.1,109.6,146.7,108,163.5,108"/>
<path id="path1395" class="st5" d="M163.5,113.8c15.9,0,31.4,1.5,43.7,3.9c12.7,2.5,21.6,5.7,24.6,9.2l0,1.8
	c-3.7-4.4-15.7-7.7-24.9-9.5c-12.2-2.4-27.5-3.9-43.4-3.9c-16.7,0-32.3,1.6-44.3,4c-9.6,1.9-22.5,5.7-24.1,9.4v-1.8
	c0.9-2.6,10.4-6.5,23.8-9.1C131.1,115.4,146.7,113.8,163.5,113.8L163.5,113.8z M163.5,108c15.9,0,31.4,1.5,43.7,3.9
	c12.7,2.5,21.6,5.7,24.6,9.2l0,1.8c-3.7-4.4-15.7-7.7-24.9-9.5c-12.2-2.4-27.5-3.9-43.4-3.9c-16.7,0-32.2,1.6-44.2,4
	c-9.3,1.8-22.6,5.7-24.1,9.4v-1.8c0.9-2.6,10.6-6.6,23.8-9.1C131.1,109.6,146.7,108,163.5,108L163.5,108z"/>
<path id="path1397" class="st2" d="M163.2,78.5c25.1-0.1,47,3.5,57,8.6l3.7,6.3c-8.7-4.7-32.3-9.6-60.6-8.8
	c-23.1,0.1-47.7,2.5-60.1,9.1l4.4-7.3C117.6,81.2,141.6,78.5,163.2,78.5"/>
<path id="path1399" class="st9" d="M220.8,88.1l2.5,4"/>
<path id="path1401" class="st2" d="M163.5,83.7c14.3,0,28.2,0.8,39.2,2.8c10.2,1.9,20,4.8,21.4,6.3l1.1,1.9
	c-3.4-2.2-11.9-4.7-22.7-6.7c-10.9-2-24.7-2.7-39-2.7c-16.2-0.1-28.7,0.8-39.5,2.7c-11.4,2.1-19.3,5.2-21.3,6.6l1.1-2
	c3.8-1.9,9.8-4.3,19.9-6.1C134.8,84.4,147.5,83.8,163.5,83.7L163.5,83.7L163.5,83.7z M163.5,77.9c13.7,0,27.2,0.7,37.8,2.6
	c8.3,1.6,16.5,4.1,19.6,6.4l1.6,2.5c-2.7-3-12.8-5.8-21.8-7.4c-10.5-1.8-23.4-2.5-37.1-2.6c-14.4,0-27.7,0.9-38,2.8
	c-9.8,1.9-16.2,4.1-18.9,5.8l1.4-2.1c3.7-2,9.7-3.7,17.2-5.2C135.7,78.8,149,78,163.5,77.9"/>
<path id="path1403" class="st4" d="M163.5,83.7c14.3,0,28.2,0.8,39.2,2.8c10.2,1.9,20,4.8,21.4,6.3l1.1,1.9
	c-3.4-2.2-11.9-4.7-22.7-6.7c-10.9-2-24.7-2.7-39-2.7c-16.2-0.1-28.7,0.8-39.5,2.7c-11.4,2.1-19.3,5.2-21.3,6.6l1.1-2
	c3.8-1.9,9.8-4.3,19.9-6.1C134.8,84.4,147.5,83.8,163.5,83.7L163.5,83.7L163.5,83.7z M163.5,77.9c13.7,0,27.2,0.7,37.8,2.6
	c8.3,1.6,16.5,4.1,19.6,6.4l1.6,2.5c-2.7-3-12.8-5.8-21.8-7.4c-10.5-1.8-23.4-2.5-37.1-2.6c-14.4,0-27.7,0.9-38,2.8
	c-9.8,1.9-16.2,4.1-18.9,5.8l1.4-2.1c3.7-2,9.7-3.7,17.2-5.2C135.7,78.8,149,78,163.5,77.9L163.5,77.9z"/>
<path id="path1405" class="st2" d="M197,152.3c-12.4-2.3-24.8-2.7-33.5-2.6c-41.8,0.5-55.4,8.6-57,11l-3.1-5.1
	c10.7-7.7,33.4-12.1,60.4-11.6c14,0.2,26,1.2,36.2,3.1L197,152.3"/>
<path id="path1407" class="st5" d="M104,156.4l2.1,3.5"/>
<path id="path1409" class="st2" d="M163.2,149c11.6,0.2,23.1,0.7,34.1,2.7l-0.8,1.4c-10.2-1.9-21.2-2.6-33.3-2.6
	c-15.4-0.1-31.1,1.3-44.7,5.2c-4.3,1.2-11.4,4-12.1,6.2l-0.8-1.3c0.2-1.3,4.5-4.1,12.5-6.4C133.8,149.8,148.4,149.1,163.2,149
	L163.2,149L163.2,149z M163.8,143.1c12.1,0.2,24.5,0.8,36.6,3.2l-0.8,1.5c-10.9-2.2-21.4-2.9-35.7-3.1c-15.5,0-31.9,1.1-46.9,5.5
	c-4.8,1.4-13.1,4.4-13.4,6.8l-0.8-1.4c0.2-2.2,7.4-5,13.9-6.9C131.7,144.3,148.2,143.2,163.8,143.1"/>
<path id="path1411" class="st6" d="M163.2,149c11.6,0.2,23.1,0.7,34.1,2.7l-0.8,1.4c-10.2-1.9-21.2-2.6-33.3-2.6
	c-15.4-0.1-31.1,1.3-44.7,5.2c-4.3,1.2-11.4,4-12.1,6.2l-0.8-1.3c0.2-1.3,4.5-4.1,12.5-6.4C133.8,149.8,148.4,149.1,163.2,149
	L163.2,149L163.2,149z M163.8,143.1c12.1,0.2,24.5,0.8,36.6,3.2l-0.8,1.5c-10.9-2.2-21.4-2.9-35.7-3.1c-15.5,0-31.9,1.1-46.9,5.5
	c-4.8,1.4-13.1,4.4-13.4,6.8l-0.8-1.4c0.2-2.2,7.4-5,13.9-6.9C131.7,144.3,148.2,143.2,163.8,143.1L163.8,143.1z"/>
<path id="path1419" class="st2" d="M106.9,86.4c20.7-0.3,116.5,58.5,116.7,69.3l-5.9,9.1C215,152.2,117.9,95,101.9,96.1L106.9,86.4"
	/>
<path id="path1421" class="st7" d="M223.2,156.4l-5,7.8"/>
<path id="path1423" class="st7" d="M106.8,86.9l-4.7,8.7"/>
<path id="path1425" class="st2" d="M101.3,95.7c3.8-2.6,32.1,10,61.7,27.8c29.5,17.9,57.7,38.1,55.2,41.9l-0.8,1.3l-0.4,0.3
	c0.1-0.1,0.5-0.6,0-2c-1.3-4.1-21.3-20.1-54.4-40.1c-32.3-19.3-59.3-30.9-62-27.6L101.3,95.7L101.3,95.7L101.3,95.7z M224.2,156.3
	c2.4-4.8-23.8-24.6-56.3-43.8c-33.3-18.8-57.2-29.9-61.6-26.6l-1,1.8c0,0.1,0-0.1,0.2-0.3c0.8-0.7,2.1-0.6,2.7-0.7
	c7.5,0.1,29.1,10,59.3,27.3c13.2,7.7,55.9,35.1,55.8,42.8c0,0.7,0.1,0.8-0.2,1.1L224.2,156.3"/>
<path id="path1427" class="st7" d="M101.3,95.7c3.8-2.6,32.1,10,61.7,27.8c29.5,17.9,57.7,38.1,55.2,41.9l-0.8,1.3l-0.4,0.3
	c0.1-0.1,0.5-0.6,0-2c-1.3-4.1-21.3-20.1-54.4-40.1c-32.3-19.3-59.3-30.9-62-27.6L101.3,95.7L101.3,95.7L101.3,95.7z M224.2,156.3
	c2.4-4.8-23.8-24.6-56.3-43.8c-33.3-18.9-57.2-29.9-61.6-26.6l-1,1.8c0,0.1,0-0.1,0.2-0.3c0.8-0.7,2.1-0.6,2.7-0.7
	c7.5,0.1,29.1,10,59.3,27.3c13.2,7.7,55.9,35.1,55.8,42.8c0,0.7,0.1,0.8-0.2,1.1L224.2,156.3L224.2,156.3L224.2,156.3z"/>
<path id="path1429" class="st10" d="M123.1,131.7c0,11.1,4.5,21.1,11.9,28.4c7.4,7.3,17.4,12,28.5,12c11.2,0,21.3-4.5,28.6-11.8
	c7.3-7.3,11.9-17.4,11.9-28.5h0v-54L123,77.6L123.1,131.7"/>
<path id="path1431" class="st11" d="M123.1,131.7c0,11.1,4.5,21.1,11.9,28.4c7.4,7.3,17.4,12,28.5,12c11.2,0,21.3-4.5,28.6-11.8
	c7.3-7.3,11.9-17.4,11.9-28.5h0v-54L123,77.6L123.1,131.7L123.1,131.7L123.1,131.7z"/>
<path id="path1433" class="st0" d="M124.6,131.7L124.6,131.7c0,10.6,4.4,20.3,11.4,27.3c7.1,7,16.8,11.4,27.4,11.4
	c10.7,0,20.4-4.3,27.4-11.3c7-7,11.4-16.6,11.4-27.3h0V79.4l-77.6,0L124.6,131.7 M186.6,95.1l0,33.3l0,3.5h0c0,0.9-0.1,2-0.2,2.9
	c-0.6,5.3-3.1,9.9-6.6,13.4c-4.2,4.2-10,6.8-16.4,6.8c-6.4,0-12-2.7-16.2-6.9c-4.3-4.3-6.8-10.2-6.8-16.3l0-36.8L186.6,95.1"/>
<path id="path1435" class="st12" d="M124.6,131.7L124.6,131.7c0,10.6,4.4,20.3,11.4,27.3c7.1,7,16.8,11.4,27.4,11.4
	c10.7,0,20.4-4.3,27.4-11.3c7-7,11.4-16.6,11.4-27.3h0V79.4l-77.6,0L124.6,131.7 M186.6,95.1l0,33.3l0,3.5h0c0,0.9-0.1,2-0.2,2.9
	c-0.6,5.3-3.1,9.9-6.6,13.4c-4.2,4.2-10,6.8-16.4,6.8c-6.4,0-12-2.7-16.2-6.9c-4.3-4.3-6.8-10.2-6.8-16.3l0-36.8L186.6,95.1
	L186.6,95.1L186.6,95.1z"/>
<g id="XMLID_16_">
	<g id="XMLID_17_">
		<g id="use3438" transform="translate(-20.745 -.040565)">
			<path id="path1485" class="st13" d="M158.5,125.8L158.5,125.8c0,1.5,0.6,2.9,1.5,3.9c0.9,1,2.2,1.6,3.6,1.6
				c1.4,0,2.7-0.6,3.6-1.6c0.9-1,1.5-2.4,1.5-3.9v-7.3l-10.2,0L158.5,125.8"/>
		</g>
		<g id="use3434" transform="translate(-.06747 51.8)">
			<path id="path1485_1_" class="st13" d="M158.5,143.4L158.5,143.4c0,1.5,0.6,2.9,1.5,3.9c0.9,1,2.2,1.6,3.6,1.6
				c1.4,0,2.7-0.6,3.6-1.6c0.9-1,1.5-2.4,1.5-3.9V136l-10.2,0L158.5,143.4"/>
		</g>
		<g id="XMLID_18_">
			<g id="XMLID_1016_">
				<g id="XMLID_1017_">
					<g id="use3440" transform="translate(-20.799 .05071)">
						<path id="path1485_2_" class="st13" d="M144.3,125.8L144.3,125.8c0,1.5,0.6,2.9,1.5,3.9c0.9,1,2.2,1.6,3.6,1.6
							c1.4,0,2.7-0.6,3.6-1.6c0.9-1,1.5-2.4,1.5-3.9v-7.3l-10.2,0L144.3,125.8"/>
					</g>
					<g id="XMLID_1018_">
						<g id="use3436" transform="translate(20.818 -25.743)">
							<path id="path1485_3_" class="st13" d="M172.6,125.8L172.6,125.8c0,1.5,0.6,2.9,1.5,3.9c0.9,1,2.2,1.6,3.6,1.6
								c1.4,0,2.7-0.6,3.6-1.6c0.9-1,1.5-2.4,1.5-3.9v-7.3l-10.2,0L172.6,125.8"/>
						</g>
						<path id="path1485_4_" class="st13" d="M158.5,108.1L158.5,108.1c0,1.5,0.6,2.9,1.5,3.9c0.9,1,2.2,1.6,3.6,1.6
							c1.4,0,2.7-0.6,3.6-1.6c0.9-1,1.5-2.4,1.5-3.9v-7.3l-10.2,0L158.5,108.1"/>
						<g id="XMLID_1019_">
							<g id="use4364" transform="translate(10.608)">
								<path id="path1539" class="st2" d="M137.3,84.3l0.1,2.4l-2.8,0l0.1-2.4H137.3"/>
							</g>
							<path id="path1497" class="st2" d="M129.6,93.1c0.1-3.8,2.8-4.7,2.8-4.7c0,0,2.9,1,2.9,4.7L129.6,93.1"/>
							<path id="path1499" class="st2" d="M127.3,88.5l-0.5,4.3l2.8,0c0-3.6,2.7-4.2,2.8-4.2c0.1,0,2.7,0.8,2.8,4.2h2.8l-0.5-4.4
								L127.3,88.5"/>
							<path id="path1501" class="st14" d="M127.3,88.5l-0.5,4.3l2.8,0c0-3.6,2.7-4.2,2.8-4.2c0.1,0,2.7,0.8,2.8,4.2h2.8l-0.5-4.4
								L127.3,88.5L127.3,88.5L127.3,88.5z"/>
							<path id="path1503" class="st2" d="M126.6,92.9h11.5c0.2,0,0.4,0.2,0.4,0.5c0,0.3-0.2,0.5-0.4,0.5h-11.5
								c-0.2,0-0.4-0.2-0.4-0.5C126.2,93.1,126.4,92.9,126.6,92.9"/>
							<path id="path1505" class="st14" d="M126.6,92.9h11.5c0.2,0,0.4,0.2,0.4,0.5c0,0.3-0.2,0.5-0.4,0.5h-11.5
								c-0.2,0-0.4-0.2-0.4-0.5C126.2,93.1,126.4,92.9,126.6,92.9z"/>
							<path id="path1507" class="st2" d="M130.8,92.8c0-2.3,1.5-2.9,1.5-2.9c0,0,1.6,0.7,1.6,2.9H130.8"/>
							<path id="path1509" class="st15" d="M130.8,92.8c0-2.3,1.5-2.9,1.5-2.9c0,0,1.6,0.7,1.6,2.9H130.8"/>
							<path id="path1511" class="st2" d="M126.9,86.7h11.1c0.2,0,0.4,0.2,0.4,0.5c0,0.3-0.2,0.5-0.4,0.5h-11.1
								c-0.2,0-0.4-0.2-0.4-0.5C126.5,86.9,126.6,86.7,126.9,86.7"/>
							<path id="path1513" class="st16" d="M126.9,86.7h11.1c0.2,0,0.4,0.2,0.4,0.5c0,0.3-0.2,0.5-0.4,0.5h-11.1
								c-0.2,0-0.4-0.2-0.4-0.5C126.5,86.9,126.6,86.7,126.9,86.7z"/>
							<path id="path1515" class="st2" d="M127.1,87.7h10.6c0.2,0,0.4,0.2,0.4,0.5c0,0.3-0.2,0.5-0.4,0.5h-10.6
								c-0.2,0-0.4-0.2-0.4-0.5C126.7,87.9,126.9,87.7,127.1,87.7"/>
							<path id="path1517" class="st16" d="M127.1,87.7h10.6c0.2,0,0.4,0.2,0.4,0.5c0,0.3-0.2,0.5-0.4,0.5h-10.6
								c-0.2,0-0.4-0.2-0.4-0.5C126.7,87.9,126.9,87.7,127.1,87.7z"/>
							<g id="g6250">
								<g id="use4658" transform="translate(-5.2791 -3.1627)">
									<path id="path1535" class="st2" d="M130.6,80.5l0.8,0v0.6h0.6v-0.6l0.8,0v0.6h0.6v-0.6l0.8,0l0,1.4c0,0.2-0.2,0.4-0.4,0.4
										H131c-0.2,0-0.4-0.2-0.4-0.4L130.6,80.5"/>
								</g>
								<path id="path1521" class="st17" d="M130.5,80.5l0.8,0v0.6h0.6v-0.6l0.9,0v0.6h0.6v-0.6h0.9l0,1.4c0,0.2-0.2,0.4-0.4,0.4h-3
									c-0.2,0-0.4-0.2-0.4-0.4L130.5,80.5L130.5,80.5L130.5,80.5z"/>
								<path id="path1523" class="st2" d="M133.7,82.3l0.2,4.4l-2.9,0l0.2-4.4L133.7,82.3"/>
								<path id="path1525" class="st16" d="M133.7,82.3l0.2,4.4l-2.9,0l0.2-4.4L133.7,82.3"/>
								<g id="use4656" transform="translate(10.608)">
									<path id="path1535_1_" class="st2" d="M134.2,82.6l0.8,0v0.6h0.6v-0.6l0.8,0v0.6h0.6v-0.6l0.8,0l0,1.4
										c0,0.2-0.2,0.4-0.4,0.4h-2.9c-0.2,0-0.4-0.2-0.4-0.4L134.2,82.6"/>
								</g>
								<g id="use4366" transform="translate(10.609)">
									<path id="path1541" class="st18" d="M137.3,84.3l0.1,2.4l-2.8,0l0.1-2.4H137.3L137.3,84.3L137.3,84.3z"/>
								</g>
								<g id="use4660" transform="translate(10.609 -.010585)">
									<path id="path1537" class="st17" d="M134.2,82.6l0.8,0v0.6h0.6v-0.6l0.8,0v0.6h0.6v-0.6l0.8,0l0,1.4c0,0.2-0.2,0.4-0.4,0.4
										h-2.9c-0.2,0-0.4-0.2-0.4-0.4L134.2,82.6L134.2,82.6L134.2,82.6z"/>
								</g>
								<path id="path1535_2_" class="st2" d="M126.9,82.6l0.8,0v0.6h0.6v-0.6l0.8,0v0.6h0.6v-0.6l0.8,0l0,1.4
									c0,0.2-0.2,0.4-0.4,0.4h-2.9c-0.2,0-0.4-0.2-0.4-0.4L126.9,82.6"/>
								<path id="path1537_1_" class="st17" d="M126.9,82.6l0.8,0v0.6h0.6v-0.6l0.8,0v0.6h0.6v-0.6l0.8,0l0,1.4
									c0,0.2-0.2,0.4-0.4,0.4h-2.9c-0.2,0-0.4-0.2-0.4-0.4L126.9,82.6L126.9,82.6L126.9,82.6z"/>
								<path id="path1539_1_" class="st2" d="M130.1,84.3l0.1,2.4l-2.8,0l0.1-2.4H130.1"/>
								<path id="path1541_1_" class="st18" d="M130.1,84.3l0.1,2.4l-2.8,0l0.1-2.4H130.1L130.1,84.3L130.1,84.3z"/>
								<path id="path1543" d="M132.1,83.7c0-0.4,0.6-0.4,0.6,0v1h-0.6V83.7"/>
								<g id="use4362" transform="translate(10.641)">
									<path id="path1547" d="M135.7,85.2c0-0.4,0.6-0.4,0.6,0V86h-0.6V85.2"/>
								</g>
								<path id="path1547_1_" d="M128.5,85.2c0-0.4,0.6-0.4,0.6,0V86h-0.6V85.2"/>
							</g>
							<g id="XMLID_1020_">
								<g id="XMLID_1021_">
									<g id="XMLID_1022_">
										<g id="use5166" transform="translate(10.608)">
											<path id="path1539_2_" class="st2" d="M168.5,38l0.1,2.4l-2.8,0l0.1-2.4H168.5"/>
										</g>
										<path id="path5168" class="st2" d="M160.7,46.8c0.1-3.8,2.8-4.7,2.8-4.7c0,0,2.9,1,2.9,4.7L160.7,46.8"/>
										<path id="path5170" class="st2" d="M158.4,42.2l-0.5,4.3l2.8,0c0-3.6,2.7-4.2,2.8-4.2c0.1,0,2.7,0.8,2.8,4.2h2.8l-0.5-4.4
											L158.4,42.2"/>
										<path id="path5172" class="st14" d="M158.4,42.2l-0.5,4.3l2.8,0c0-3.6,2.7-4.2,2.8-4.2c0.1,0,2.7,0.8,2.8,4.2h2.8
											l-0.5-4.4L158.4,42.2L158.4,42.2L158.4,42.2z"/>
										<path id="path5174" class="st2" d="M157.8,46.5h11.5c0.2,0,0.4,0.2,0.4,0.5c0,0.3-0.2,0.5-0.4,0.5h-11.5
											c-0.2,0-0.4-0.2-0.4-0.5C157.3,46.8,157.5,46.5,157.8,46.5"/>
										<path id="path5176" class="st14" d="M157.8,46.5h11.5c0.2,0,0.4,0.2,0.4,0.5c0,0.3-0.2,0.5-0.4,0.5h-11.5
											c-0.2,0-0.4-0.2-0.4-0.5C157.3,46.8,157.5,46.5,157.8,46.5z"/>
										<path id="path5178" class="st2" d="M162,46.5c0-2.3,1.5-2.9,1.5-2.9c0,0,1.6,0.7,1.6,2.9H162"/>
										<path id="path5180" class="st15" d="M162,46.5c0-2.3,1.5-2.9,1.5-2.9c0,0,1.6,0.7,1.6,2.9H162"/>
										<path id="path5182" class="st2" d="M158,40.4h11.1c0.2,0,0.4,0.2,0.4,0.5c0,0.3-0.2,0.5-0.4,0.5H158
											c-0.2,0-0.4-0.2-0.4-0.5C157.6,40.6,157.8,40.4,158,40.4"/>
										<path id="path5184" class="st16" d="M158,40.4h11.1c0.2,0,0.4,0.2,0.4,0.5c0,0.3-0.2,0.5-0.4,0.5H158
											c-0.2,0-0.4-0.2-0.4-0.5C157.6,40.6,157.8,40.4,158,40.4z"/>
										<path id="path5186" class="st2" d="M158.3,41.4h10.6c0.2,0,0.4,0.2,0.4,0.5c0,0.3-0.2,0.5-0.4,0.5h-10.6
											c-0.2,0-0.4-0.2-0.4-0.5C157.9,41.6,158,41.4,158.3,41.4"/>
										<path id="path5188" class="st16" d="M158.3,41.4h10.6c0.2,0,0.4,0.2,0.4,0.5c0,0.3-0.2,0.5-0.4,0.5h-10.6
											c-0.2,0-0.4-0.2-0.4-0.5C157.9,41.6,158,41.4,158.3,41.4z"/>
										<g id="use4980" transform="translate(0 46.32)">
											<g id="use5190" transform="translate(-5.2791 -3.1627)">
												<path id="path1535_3_" class="st2" d="M161.7,34.1l0.8,0v0.6h0.6v-0.6l0.8,0v0.6h0.6v-0.6l0.8,0l0,1.4
													c0,0.2-0.2,0.4-0.4,0.4h-2.9c-0.2,0-0.4-0.2-0.4-0.4L161.7,34.1"/>
											</g>
											<path id="path5192" class="st17" d="M161.7,34.1l0.8,0v0.6h0.6v-0.6l0.9,0v0.6h0.6v-0.6h0.9l0,1.4c0,0.2-0.2,0.4-0.4,0.4
												h-3c-0.2,0-0.4-0.2-0.4-0.4L161.7,34.1L161.7,34.1L161.7,34.1z"/>
											<path id="path5194" class="st2" d="M164.8,36l0.2,4.4l-2.9,0l0.2-4.4L164.8,36"/>
											<path id="path5196" class="st16" d="M164.8,36l0.2,4.4l-2.9,0l0.2-4.4L164.8,36"/>
											<g id="use5198" transform="translate(10.608)">
												<path id="path1535_4_" class="st2" d="M165.3,36.3l0.8,0v0.6h0.6v-0.6l0.8,0v0.6h0.6v-0.6l0.8,0l0,1.4
													c0,0.2-0.2,0.4-0.4,0.4h-2.9c-0.2,0-0.4-0.2-0.4-0.4L165.3,36.3"/>
											</g>
											<g id="use5200" transform="translate(10.609)">
												<path id="path1541_2_" class="st18" d="M168.5,38l0.1,2.4l-2.8,0l0.1-2.4H168.5L168.5,38L168.5,38z"/>
											</g>
											<g id="use5202" transform="translate(10.609 -.010585)">
												<path id="path1537_2_" class="st17" d="M165.3,36.3l0.8,0v0.6h0.6v-0.6l0.8,0v0.6h0.6v-0.6l0.8,0l0,1.4
													c0,0.2-0.2,0.4-0.4,0.4h-2.9c-0.2,0-0.4-0.2-0.4-0.4L165.3,36.3L165.3,36.3L165.3,36.3z"/>
											</g>
											<path id="path5204" class="st2" d="M158.1,36.3l0.8,0v0.6h0.6v-0.6l0.8,0v0.6h0.6v-0.6l0.8,0l0,1.4
												c0,0.2-0.2,0.4-0.4,0.4h-2.9c-0.2,0-0.4-0.2-0.4-0.4L158.1,36.3"/>
											<path id="path5206" class="st17" d="M158.1,36.3l0.8,0v0.6h0.6v-0.6l0.8,0v0.6h0.6v-0.6l0.8,0l0,1.4
												c0,0.2-0.2,0.4-0.4,0.4h-2.9c-0.2,0-0.4-0.2-0.4-0.4L158.1,36.3L158.1,36.3L158.1,36.3z"/>
											<path id="path5208" class="st2" d="M161.2,38l0.1,2.4l-2.8,0l0.1-2.4H161.2"/>
											<path id="path5210" class="st18" d="M161.2,38l0.1,2.4l-2.8,0l0.1-2.4H161.2L161.2,38L161.2,38z"/>
											<path id="path5212" d="M163.3,37.4c0-0.4,0.6-0.4,0.6,0v1h-0.6V37.4"/>
											<g id="use4984" transform="translate(-45.205)">
												<path id="path1547_2_" d="M166.9,38.9c0-0.4,0.6-0.4,0.6,0v0.8h-0.6V38.9"/>
											</g>
											<path id="path5216" d="M159.6,38.9c0-0.4,0.6-0.4,0.6,0v0.8h-0.6V38.9"/>
										</g>
										<g id="XMLID_1023_">
											<g id="XMLID_1024_">
												<g id="use5166_1_" transform="translate(10.608)">
													<path id="path1539_3_" class="st2" d="M199.3-8.3l0.1,2.4l-2.8,0l0.1-2.4H199.3"/>
												</g>
												<path id="path5168_1_" class="st2" d="M191.5,0.5c0.1-3.8,2.8-4.7,2.8-4.7c0,0,2.9,1,2.9,4.7L191.5,0.5"/>
												<path id="path5170_1_" class="st2" d="M189.2-4.1l-0.5,4.3l2.8,0c0-3.6,2.7-4.2,2.8-4.2c0.1,0,2.7,0.8,2.8,4.2h2.8
													l-0.5-4.4L189.2-4.1"/>
												<path id="path5172_1_" class="st14" d="M189.2-4.1l-0.5,4.3l2.8,0c0-3.6,2.7-4.2,2.8-4.2c0.1,0,2.7,0.8,2.8,4.2h2.8
													l-0.5-4.4L189.2-4.1L189.2-4.1L189.2-4.1z"/>
												<path id="path5174_1_" class="st2" d="M188.6,0.2h11.5c0.2,0,0.4,0.2,0.4,0.5c0,0.3-0.2,0.5-0.4,0.5h-11.5
													c-0.2,0-0.4-0.2-0.4-0.5C188.1,0.5,188.3,0.2,188.6,0.2"/>
												<path id="path5176_1_" class="st14" d="M188.6,0.2h11.5c0.2,0,0.4,0.2,0.4,0.5c0,0.3-0.2,0.5-0.4,0.5h-11.5
													c-0.2,0-0.4-0.2-0.4-0.5C188.1,0.5,188.3,0.2,188.6,0.2z"/>
												<path id="path5178_1_" class="st2" d="M192.8,0.2c0-2.3,1.5-2.9,1.5-2.9c0,0,1.6,0.7,1.6,2.9H192.8"/>
												<path id="path5180_1_" class="st15" d="M192.8,0.2c0-2.3,1.5-2.9,1.5-2.9c0,0,1.6,0.7,1.6,2.9H192.8"/>
												<path id="path5182_1_" class="st2" d="M188.8-5.9h11.1c0.2,0,0.4,0.2,0.4,0.5c0,0.3-0.2,0.5-0.4,0.5h-11.1
													c-0.2,0-0.4-0.2-0.4-0.5C188.4-5.7,188.6-5.9,188.8-5.9"/>
												<path id="path5184_1_" class="st16" d="M188.8-5.9h11.1c0.2,0,0.4,0.2,0.4,0.5c0,0.3-0.2,0.5-0.4,0.5h-11.1
													c-0.2,0-0.4-0.2-0.4-0.5C188.4-5.7,188.6-5.9,188.8-5.9z"/>
												<path id="path5186_1_" class="st2" d="M189.1-5h10.6c0.2,0,0.4,0.2,0.4,0.5c0,0.3-0.2,0.5-0.4,0.5h-10.6
													c-0.2,0-0.4-0.2-0.4-0.5C188.7-4.7,188.8-5,189.1-5"/>
												<path id="path5188_1_" class="st16" d="M189.1-5h10.6c0.2,0,0.4,0.2,0.4,0.5c0,0.3-0.2,0.5-0.4,0.5h-10.6
													c-0.2,0-0.4-0.2-0.4-0.5C188.7-4.7,188.8-5,189.1-5z"/>
												<g id="use4980_1_" transform="translate(0 46.32)">
													<g id="use5190_1_" transform="translate(-5.2791 -3.1627)">
														<path id="path1535_5_" class="st2" d="M192.5-12.2l0.8,0v0.6h0.6v-0.6l0.8,0v0.6h0.6v-0.6l0.8,0l0,1.4
															c0,0.2-0.2,0.4-0.4,0.4h-2.9c-0.2,0-0.4-0.2-0.4-0.4L192.5-12.2"/>
													</g>
													<path id="path5192_1_" class="st17" d="M192.5-12.2l0.8,0v0.6h0.6v-0.6l0.9,0v0.6h0.6v-0.6h0.9l0,1.4
														c0,0.2-0.2,0.4-0.4,0.4h-3c-0.2,0-0.4-0.2-0.4-0.4L192.5-12.2L192.5-12.2L192.5-12.2z"/>
													<path id="path5194_1_" class="st2" d="M195.6-10.3l0.2,4.4l-2.9,0l0.2-4.4L195.6-10.3"/>
													<path id="path5196_1_" class="st16" d="M195.6-10.3l0.2,4.4l-2.9,0l0.2-4.4L195.6-10.3"/>
													<g id="use5198_1_" transform="translate(10.608)">
														<path id="path1535_6_" class="st2" d="M196.1-10l0.8,0v0.6h0.6V-10l0.8,0v0.6h0.6V-10l0.8,0l0,1.4
															c0,0.2-0.2,0.4-0.4,0.4h-2.9c-0.2,0-0.4-0.2-0.4-0.4L196.1-10"/>
													</g>
													<g id="use5200_1_" transform="translate(10.609)">
														<path id="path1541_3_" class="st18" d="M199.3-8.3l0.1,2.4l-2.8,0l0.1-2.4H199.3L199.3-8.3L199.3-8.3z"/>
													</g>
													<g id="use5202_1_" transform="translate(10.609 -.010585)">
														<path id="path1537_3_" class="st17" d="M196.1-10l0.8,0v0.6h0.6V-10l0.8,0v0.6h0.6V-10l0.8,0l0,1.4
															c0,0.2-0.2,0.4-0.4,0.4h-2.9c-0.2,0-0.4-0.2-0.4-0.4L196.1-10L196.1-10L196.1-10z"/>
													</g>
													<path id="path5204_1_" class="st2" d="M188.9-10l0.8,0v0.6h0.6V-10l0.8,0v0.6h0.6V-10l0.8,0l0,1.4
														c0,0.2-0.2,0.4-0.4,0.4h-2.9c-0.2,0-0.4-0.2-0.4-0.4L188.9-10"/>
													<path id="path5206_1_" class="st17" d="M188.9-10l0.8,0v0.6h0.6V-10l0.8,0v0.6h0.6V-10l0.8,0l0,1.4
														c0,0.2-0.2,0.4-0.4,0.4h-2.9c-0.2,0-0.4-0.2-0.4-0.4L188.9-10L188.9-10L188.9-10z"/>
													<path id="path5208_1_" class="st2" d="M192.1-8.3l0.1,2.4l-2.8,0l0.1-2.4H192.1"/>
													<path id="path5210_1_" class="st18" d="M192.1-8.3l0.1,2.4l-2.8,0l0.1-2.4H192.1L192.1-8.3L192.1-8.3z"/>
													<path id="path5212_1_" d="M194.1-9c0-0.4,0.6-0.4,0.6,0v1h-0.6V-9"/>
													<g id="use4982" transform="translate(90.919 -46.32)">
														<path id="path1547_3_" d="M197.7-7.4c0-0.4,0.6-0.4,0.6,0v0.8h-0.6V-7.4"/>
													</g>
													<path id="path5216_1_" d="M190.4-7.4c0-0.4,0.6-0.4,0.6,0v0.8h-0.6V-7.4"/>
												</g>
												<g id="XMLID_1025_">
													<g id="use5166_2_" transform="translate(10.608)">
														<path id="path1539_4_" class="st2" d="M137.3-23.1l0.1,2.4l-2.8,0l0.1-2.4L137.3-23.1"/>
													</g>
													<path id="path5168_2_" class="st2" d="M129.6-14.3c0.1-3.8,2.8-4.7,2.8-4.7c0,0,2.9,1,2.9,4.7L129.6-14.3"/>
													<path id="path5170_2_" class="st2" d="M127.3-18.9l-0.5,4.3l2.8,0c0-3.6,2.7-4.2,2.8-4.2c0.1,0,2.7,0.8,2.8,4.2h2.8
														l-0.5-4.4L127.3-18.9"/>
													<path id="path5172_2_" class="st14" d="M127.3-18.9l-0.5,4.3l2.8,0c0-3.6,2.7-4.2,2.8-4.2c0.1,0,2.7,0.8,2.8,4.2h2.8
														l-0.5-4.4L127.3-18.9L127.3-18.9L127.3-18.9z"/>
													<path id="path5174_2_" class="st2" d="M126.6-14.5h11.5c0.2,0,0.4,0.2,0.4,0.5c0,0.3-0.2,0.5-0.4,0.5h-11.5
														c-0.2,0-0.4-0.2-0.4-0.5C126.2-14.3,126.4-14.5,126.6-14.5"/>
													<path id="path5176_2_" class="st14" d="M126.6-14.5h11.5c0.2,0,0.4,0.2,0.4,0.5c0,0.3-0.2,0.5-0.4,0.5h-11.5
														c-0.2,0-0.4-0.2-0.4-0.5C126.2-14.3,126.4-14.5,126.6-14.5z"/>
													<path id="path5178_2_" class="st2" d="M130.8-14.6c0-2.3,1.5-2.9,1.5-2.9c0,0,1.6,0.7,1.6,2.9H130.8"/>
													<path id="path5180_2_" class="st15" d="M130.8-14.6c0-2.3,1.5-2.9,1.5-2.9c0,0,1.6,0.7,1.6,2.9H130.8"/>
													<path id="path5182_2_" class="st2" d="M126.9-20.7h11.1c0.2,0,0.4,0.2,0.4,0.5c0,0.3-0.2,0.5-0.4,0.5h-11.1
														c-0.2,0-0.4-0.2-0.4-0.5C126.5-20.5,126.6-20.7,126.9-20.7"/>
													<path id="path5184_2_" class="st16" d="M126.9-20.7h11.1c0.2,0,0.4,0.2,0.4,0.5c0,0.3-0.2,0.5-0.4,0.5h-11.1
														c-0.2,0-0.4-0.2-0.4-0.5C126.5-20.5,126.6-20.7,126.9-20.7z"/>
													<path id="path5186_2_" class="st2" d="M127.1-19.7h10.6c0.2,0,0.4,0.2,0.4,0.5c0,0.3-0.2,0.5-0.4,0.5h-10.6
														c-0.2,0-0.4-0.2-0.4-0.5C126.7-19.5,126.9-19.7,127.1-19.7"/>
													<path id="path5188_2_" class="st16" d="M127.1-19.7h10.6c0.2,0,0.4,0.2,0.4,0.5c0,0.3-0.2,0.5-0.4,0.5h-10.6
														c-0.2,0-0.4-0.2-0.4-0.5C126.7-19.5,126.9-19.7,127.1-19.7z"/>
													<g id="use4980_2_" transform="translate(0 46.32)">
														<g id="use5190_2_" transform="translate(-5.2791 -3.1627)">
															<path id="path1535_7_" class="st2" d="M130.6-26.9l0.8,0v0.6h0.6v-0.6l0.8,0v0.6h0.6v-0.6l0.8,0l0,1.4
																c0,0.2-0.2,0.4-0.4,0.4H131c-0.2,0-0.4-0.2-0.4-0.4L130.6-26.9"/>
														</g>
														<path id="path5192_2_" class="st17" d="M130.5-26.9l0.8,0v0.6h0.6v-0.6l0.9,0v0.6h0.6v-0.6h0.9l0,1.4
															c0,0.2-0.2,0.4-0.4,0.4h-3c-0.2,0-0.4-0.2-0.4-0.4L130.5-26.9L130.5-26.9L130.5-26.9z"/>
														<path id="path5194_2_" class="st2" d="M133.7-25.1l0.2,4.4l-2.9,0l0.2-4.4L133.7-25.1"/>
														<path id="path5196_2_" class="st16" d="M133.7-25.1l0.2,4.4l-2.9,0l0.2-4.4L133.7-25.1"/>
														<g id="use5198_2_" transform="translate(10.608)">
															<path id="path1535_8_" class="st2" d="M134.2-24.8l0.8,0v0.6h0.6v-0.6l0.8,0v0.6h0.6v-0.6l0.8,0l0,1.4
																c0,0.2-0.2,0.4-0.4,0.4h-2.9c-0.2,0-0.4-0.2-0.4-0.4L134.2-24.8"/>
														</g>
														<g id="use5200_2_" transform="translate(10.609)">
															<path id="path1541_4_" class="st18" d="M137.3-23.1l0.1,2.4l-2.8,0l0.1-2.4L137.3-23.1L137.3-23.1L137.3-23.1z"/>
														</g>
														<g id="use5202_2_" transform="translate(10.609 -.010585)">
															<path id="path1537_4_" class="st17" d="M134.2-24.8l0.8,0v0.6h0.6v-0.6l0.8,0v0.6h0.6v-0.6l0.8,0l0,1.4
																c0,0.2-0.2,0.4-0.4,0.4h-2.9c-0.2,0-0.4-0.2-0.4-0.4L134.2-24.8L134.2-24.8L134.2-24.8z"/>
														</g>
														<path id="path5204_2_" class="st2" d="M126.9-24.8l0.8,0v0.6h0.6v-0.6l0.8,0v0.6h0.6v-0.6l0.8,0l0,1.4
															c0,0.2-0.2,0.4-0.4,0.4h-2.9c-0.2,0-0.4-0.2-0.4-0.4L126.9-24.8"/>
														<path id="path5206_2_" class="st17" d="M126.9-24.8l0.8,0v0.6h0.6v-0.6l0.8,0v0.6h0.6v-0.6l0.8,0l0,1.4
															c0,0.2-0.2,0.4-0.4,0.4h-2.9c-0.2,0-0.4-0.2-0.4-0.4L126.9-24.8L126.9-24.8L126.9-24.8z"/>
														<path id="path5208_2_" class="st2" d="M130.1-23.1l0.1,2.4l-2.8,0l0.1-2.4L130.1-23.1"/>
														<path id="path5210_2_" class="st18" d="M130.1-23.1l0.1,2.4l-2.8,0l0.1-2.4L130.1-23.1L130.1-23.1L130.1-23.1z"/>
														<path id="path5212_2_" d="M132.1-23.7c0-0.4,0.6-0.4,0.6,0v1h-0.6V-23.7"/>
														<g id="use5214" transform="translate(10.641)">
															<path id="path1547_4_" d="M135.7-22.2c0-0.4,0.6-0.4,0.6,0v0.8h-0.6V-22.2"/>
														</g>
														<path id="path5216_2_" d="M128.5-22.2c0-0.4,0.6-0.4,0.6,0v0.8h-0.6V-22.2"/>
													</g>
													<g id="XMLID_1026_">
														<g id="use5328" transform="translate(10.608)">
															<path id="path1539_5_" class="st2" d="M-23.6,43.9l0.1,2.4l-2.8,0l0.1-2.4L-23.6,43.9"/>
														</g>
														<path id="path5330" class="st2" d="M-31.3,52.7c0.1-3.8,2.8-4.7,2.8-4.7c0,0,2.9,1,2.9,4.7L-31.3,52.7"/>
														<path id="path5332" class="st2" d="M-33.6,48.1l-0.5,4.3l2.8,0c0-3.6,2.7-4.2,2.8-4.2c0.1,0,2.7,0.8,2.8,4.2l2.8,0
															l-0.5-4.4L-33.6,48.1"/>
														<path id="path5334" class="st14" d="M-33.6,48.1l-0.5,4.3l2.8,0c0-3.6,2.7-4.2,2.8-4.2c0.1,0,2.7,0.8,2.8,4.2l2.8,0
															l-0.5-4.4L-33.6,48.1L-33.6,48.1L-33.6,48.1z"/>
														<path id="path5336" class="st2" d="M-34.3,52.4l11.5,0c0.2,0,0.4,0.2,0.4,0.5c0,0.3-0.2,0.5-0.4,0.5h-11.5
															c-0.2,0-0.4-0.2-0.4-0.5C-34.7,52.7-34.5,52.4-34.3,52.4"/>
														<path id="path5338" class="st14" d="M-34.3,52.4l11.5,0c0.2,0,0.4,0.2,0.4,0.5c0,0.3-0.2,0.5-0.4,0.5h-11.5
															c-0.2,0-0.4-0.2-0.4-0.5C-34.7,52.7-34.5,52.4-34.3,52.4z"/>
														<path id="path5340" class="st2" d="M-30.1,52.4c0-2.3,1.5-2.9,1.5-2.9c0,0,1.6,0.7,1.6,2.9L-30.1,52.4"/>
														<path id="path5342" class="st15" d="M-30.1,52.4c0-2.3,1.5-2.9,1.5-2.9c0,0,1.6,0.7,1.6,2.9H-30.1"/>
														<path id="path5344" class="st2" d="M-34,46.3l11.1,0c0.2,0,0.4,0.2,0.4,0.5c0,0.3-0.2,0.5-0.4,0.5l-11.1,0
															c-0.2,0-0.4-0.2-0.4-0.5C-34.4,46.5-34.2,46.3-34,46.3"/>
														<path id="path5346" class="st16" d="M-34,46.3l11.1,0c0.2,0,0.4,0.2,0.4,0.5c0,0.3-0.2,0.5-0.4,0.5H-34
															c-0.2,0-0.4-0.2-0.4-0.5C-34.4,46.5-34.2,46.3-34,46.3z"/>
														<path id="path5348" class="st2" d="M-33.8,47.3h10.6c0.2,0,0.4,0.2,0.4,0.5c0,0.3-0.2,0.5-0.4,0.5l-10.6,0
															c-0.2,0-0.4-0.2-0.4-0.5C-34.2,47.5-34,47.3-33.8,47.3"/>
														<path id="path5350" class="st16" d="M-33.8,47.3h10.6c0.2,0,0.4,0.2,0.4,0.5c0,0.3-0.2,0.5-0.4,0.5h-10.6
															c-0.2,0-0.4-0.2-0.4-0.5C-34.2,47.5-34,47.3-33.8,47.3z"/>
														<g id="use5132" transform="matrix(.70711 .70711 -.70711 .70711 240.44 -.49531)">
															<g id="use5352" transform="translate(-5.2791 -3.1627)">
																<path id="path1535_9_" class="st2" d="M-30.3,40l0.8,0l0,0.6l0.6,0V40l0.8,0l0,0.6l0.6,0l0-0.6l0.8,0l0,1.4
																	c0,0.2-0.2,0.4-0.4,0.4l-2.9,0c-0.2,0-0.4-0.2-0.4-0.4L-30.3,40"/>
															</g>
															<path id="path5354" class="st17" d="M-30.4,40l0.8,0l0,0.6l0.6,0l0-0.6l0.9,0v0.6h0.6V40h0.9l0,1.4
																c0,0.2-0.2,0.4-0.4,0.4l-3,0c-0.2,0-0.4-0.2-0.4-0.4L-30.4,40L-30.4,40L-30.4,40z"/>
															<path id="path5356" class="st2" d="M-27.2,41.9l0.2,4.4l-2.9,0l0.2-4.4L-27.2,41.9"/>
															<path id="path5358" class="st16" d="M-27.2,41.9l0.2,4.4l-2.9,0l0.2-4.4L-27.2,41.9"/>
															<g id="use5360" transform="translate(10.608)">
																<path id="path1535_10_" class="st2" d="M-26.7,42.2l0.8,0l0,0.6l0.6,0l0-0.6l0.8,0l0,0.6l0.6,0l0-0.6l0.8,0l0,1.4
																	c0,0.2-0.2,0.4-0.4,0.4l-2.9,0c-0.2,0-0.4-0.2-0.4-0.4L-26.7,42.2"/>
															</g>
															<g id="use5362" transform="translate(10.609)">
																<path id="path1541_5_" class="st18" d="M-23.6,43.9l0.1,2.4l-2.8,0l0.1-2.4H-23.6L-23.6,43.9L-23.6,43.9z"/>
															</g>
															<g id="use5364" transform="translate(10.609 -.010585)">
																<path id="path1537_5_" class="st17" d="M-26.7,42.2l0.8,0l0,0.6h0.6l0-0.6l0.8,0l0,0.6l0.6,0l0-0.6l0.8,0l0,1.4
																	c0,0.2-0.2,0.4-0.4,0.4h-2.9c-0.2,0-0.4-0.2-0.4-0.4L-26.7,42.2L-26.7,42.2L-26.7,42.2z"/>
															</g>
															<path id="path5366" class="st2" d="M-34,42.2l0.8,0l0,0.6l0.6,0l0-0.6l0.8,0l0,0.6h0.6l0-0.6l0.8,0l0,1.4
																c0,0.2-0.2,0.4-0.4,0.4h-2.9c-0.2,0-0.4-0.2-0.4-0.4L-34,42.2"/>
															<path id="path5368" class="st17" d="M-34,42.2l0.8,0v0.6l0.6,0l0-0.6l0.8,0v0.6l0.6,0v-0.6l0.8,0l0,1.4
																c0,0.2-0.2,0.4-0.4,0.4h-2.9c-0.2,0-0.4-0.2-0.4-0.4L-34,42.2L-34,42.2L-34,42.2z"/>
															<path id="path5370" class="st2" d="M-30.8,43.9l0.1,2.4l-2.8,0l0.1-2.4L-30.8,43.9"/>
															<path id="path5372" class="st18" d="M-30.8,43.9l0.1,2.4l-2.8,0l0.1-2.4L-30.8,43.9L-30.8,43.9L-30.8,43.9z"/>
															<path id="path5374" d="M-28.8,43.3c0-0.4,0.6-0.4,0.6,0l0,1l-0.6,0L-28.8,43.3"/>
															<g id="use5376" transform="translate(10.641)">
																<path id="path1547_5_" d="M-25.2,44.8c0-0.4,0.6-0.4,0.6,0l0,0.8l-0.6,0L-25.2,44.8"/>
															</g>
															<path id="path5378" d="M-32.4,44.8c0-0.4,0.6-0.4,0.6,0v0.8h-0.6L-32.4,44.8"/>
														</g>
														<g id="XMLID_1027_">
															<g id="use5220" transform="translate(10.608)">
																<path id="path1539_6_" class="st2" d="M-135.9-33.1l1.7,1.6l-2,2l-1.6-1.7L-135.9-33.1"/>
															</g>
															<path id="path5222" class="st2" d="M-135.2-21.5c-2.6-2.7-1.3-5.2-1.3-5.3c0,0,2.7-1.4,5.4,1.3L-135.2-21.5"/>
															<path id="path5224" class="st2" d="M-140.1-23.1l2.7,3.4l2-2c-2.5-2.5-1-4.9-1-4.9c0,0,2.5-1.4,4.9,1l2-2l-3.4-2.7
																L-140.1-23.1"/>
															<path id="path5226" class="st14" d="M-140.1-23.1l2.7,3.4l2-2c-2.5-2.5-1-4.9-1-4.9c0,0,2.5-1.4,4.9,1l2-2l-3.4-2.7
																L-140.1-23.1L-140.1-23.1L-140.1-23.1z"/>
															<path id="path5228" class="st2" d="M-137.5-19.6l8.2-8.2c0.2-0.2,0.5-0.1,0.7,0.1c0.2,0.2,0.2,0.5,0.1,0.7l-8.2,8.2
																c-0.2,0.2-0.5,0.1-0.7-0.1C-137.6-19.1-137.7-19.4-137.5-19.6"/>
															<path id="path5230" class="st14" d="M-137.5-19.6l8.2-8.2c0.2-0.2,0.5-0.1,0.7,0.1c0.2,0.2,0.2,0.5,0.1,0.7l-8.2,8.2
																c-0.2,0.2-0.5,0.1-0.7-0.1C-137.6-19.1-137.7-19.4-137.5-19.6z"/>
															<path id="path5232" class="st2" d="M-134.5-22.5c-1.6-1.6-1-3.1-1-3.1c0,0,1.6-0.7,3.2,0.9L-134.5-22.5"/>
															<path id="path5234" class="st15" d="M-134.5-22.5c-1.6-1.6-1-3.1-1-3.1c0,0,1.6-0.7,3.2,0.9L-134.5-22.5"/>
															<path id="path5236" class="st2" d="M-141.7-24.1l7.8-7.8c0.2-0.2,0.5-0.1,0.6,0c0.2,0.2,0.2,0.5,0,0.6l-7.8,7.8
																c-0.2,0.2-0.5,0.1-0.6,0C-141.8-23.6-141.8-23.9-141.7-24.1"/>
															<path id="path5238" class="st16" d="M-141.7-24.1l7.8-7.8c0.2-0.2,0.5-0.1,0.6,0c0.2,0.2,0.2,0.5,0,0.6l-7.8,7.8
																c-0.2,0.2-0.5,0.1-0.6,0C-141.8-23.6-141.8-23.9-141.7-24.1z"/>
															<path id="path5240" class="st2" d="M-140.8-23.5l7.5-7.5c0.2-0.2,0.4-0.1,0.6,0.1c0.2,0.2,0.2,0.5,0.1,0.6l-7.5,7.5
																c-0.2,0.2-0.4,0.1-0.6-0.1C-140.9-23.1-141-23.4-140.8-23.5"/>
															<path id="path5242" class="st16" d="M-140.8-23.5l7.5-7.5c0.2-0.2,0.4-0.1,0.6,0.1c0.2,0.2,0.2,0.5,0.1,0.6l-7.5,7.5
																c-0.2,0.2-0.4,0.1-0.6-0.1C-140.9-23.1-141-23.4-140.8-23.5z"/>
															<g id="use5100" transform="translate(90.85 46.321)">
																<g id="use5244" transform="translate(-5.2791 -3.1627)">
																	<path id="path1535_11_" class="st2" d="M-143.5-31.1l0.6-0.6l0.4,0.4l0.4-0.4l-0.4-0.4l0.6-0.6l0.4,0.4l0.4-0.4
																		l-0.4-0.4l0.6-0.6l1,1c0.2,0.2,0.1,0.4,0,0.5l-2.1,2.1c-0.1,0.1-0.4,0.2-0.5,0L-143.5-31.1"/>
																</g>
																<path id="path5246" class="st17" d="M-143.5-31.1l0.6-0.6l0.4,0.4l0.4-0.4l-0.4-0.4l0.6-0.6l0.4,0.4l0.4-0.4
																	l-0.4-0.4l0.6-0.6l1,1c0.2,0.2,0.1,0.4,0,0.5l-2.1,2.1c-0.1,0.1-0.4,0.2-0.5,0L-143.5-31.1L-143.5-31.1L-143.5-31.1
																	z"/>
																<path id="path5248" class="st2" d="M-140-32l3.2,3l-2.1,2.1l-3-3.2L-140-32"/>
																<path id="path5250" class="st16" d="M-140-32l3.2,3l-2.1,2.1l-3-3.2L-140-32"/>
																<g id="use5252" transform="translate(10.608)">
																	<path id="path1535_12_" class="st2" d="M-139.4-32.1l0.6-0.6l0.4,0.4l0.4-0.4l-0.4-0.4l0.6-0.6l0.4,0.4l0.4-0.4
																		l-0.4-0.4l0.6-0.6l1,1c0.2,0.2,0.1,0.4,0,0.5l-2.1,2.1c-0.1,0.1-0.4,0.2-0.5,0L-139.4-32.1"/>
																</g>
																<g id="use5254" transform="translate(10.609)">
																	<path id="path1541_6_" class="st18" d="M-135.9-33.1l1.7,1.6l-2,2l-1.6-1.7L-135.9-33.1L-135.9-33.1L-135.9-33.1z"
																		/>
																</g>
																<g id="use5256" transform="translate(10.609 -.010585)">
																	<path id="path1537_6_" class="st17" d="M-139.4-32.1l0.6-0.6l0.4,0.4l0.4-0.4l-0.4-0.4l0.6-0.6l0.4,0.4l0.4-0.4
																		l-0.4-0.4l0.6-0.6l1,1c0.2,0.2,0.1,0.4,0,0.5l-2.1,2.1c-0.1,0.1-0.4,0.2-0.5,0L-139.4-32.1L-139.4-32.1
																		L-139.4-32.1z"/>
																</g>
																<path id="path5258" class="st2" d="M-144.5-27l0.6-0.6l0.4,0.4l0.4-0.4l-0.4-0.4l0.6-0.6l0.4,0.4l0.4-0.4l-0.4-0.4
																	l0.6-0.6l1,1c0.2,0.2,0.1,0.4,0,0.5l-2.1,2.1c-0.1,0.1-0.4,0.2-0.5,0L-144.5-27"/>
																<path id="path5260" class="st17" d="M-144.5-27l0.6-0.6l0.4,0.4l0.4-0.4l-0.4-0.4l0.6-0.6l0.4,0.4l0.4-0.4l-0.4-0.4
																	l0.6-0.6l1,1c0.2,0.2,0.1,0.4,0,0.5l-2.1,2.1c-0.1,0.1-0.4,0.2-0.5,0L-144.5-27L-144.5-27L-144.5-27z"/>
																<path id="path5262" class="st2" d="M-141.1-28l1.7,1.6l-2,2l-1.6-1.7L-141.1-28"/>
																<path id="path5264" class="st18" d="M-141.1-28l1.7,1.6l-2,2l-1.6-1.7L-141.1-28L-141.1-28L-141.1-28z"/>
																<path id="path5266" d="M-140.1-29.9c-0.3-0.3,0.1-0.7,0.4-0.4l0.7,0.7l-0.4,0.4L-140.1-29.9"/>
																<g id="use5268" transform="translate(10.641)">
																	<path id="path1547_6_" d="M-136.5-31.4c-0.3-0.3,0.1-0.7,0.4-0.4l0.6,0.6l-0.4,0.4L-136.5-31.4"/>
																</g>
																<path id="path5270" d="M-141.6-26.3c-0.3-0.3,0.1-0.7,0.4-0.4l0.6,0.6l-0.4,0.4L-141.6-26.3"/>
															</g>
															<g id="use5274" transform="matrix(.70711 -.70711 .70711 .70711 -27.965 266.76)">
																<path id="path1539_7_" class="st2" d="M-155.8,29.1l2.4-0.1l0,2.8l-2.4-0.1L-155.8,29.1"/>
															</g>
															<path id="path5276" class="st2" d="M-147.1,36.9c-3.8-0.1-4.7-2.8-4.7-2.8c0,0,1-2.9,4.7-2.9L-147.1,36.9"/>
															<path id="path5278" class="st2" d="M-151.7,39.2l4.3,0.5l0-2.8c-3.6,0-4.2-2.7-4.2-2.8c0-0.1,0.8-2.7,4.2-2.8v-2.8
																l-4.4,0.5L-151.7,39.2"/>
															<path id="path5280" class="st14" d="M-151.7,39.2l4.3,0.5l0-2.8c-3.6,0-4.2-2.7-4.2-2.8c0-0.1,0.8-2.7,4.2-2.8l0-2.8
																l-4.4,0.5L-151.7,39.2L-151.7,39.2L-151.7,39.2z"/>
															<path id="path5282" class="st2" d="M-147.3,39.8l0-11.5c0-0.2,0.2-0.4,0.5-0.4c0.3,0,0.5,0.2,0.5,0.4l0,11.5
																c0,0.2-0.2,0.4-0.5,0.4C-147.1,40.2-147.3,40.1-147.3,39.8"/>
															<path id="path5284" class="st14" d="M-147.3,39.8l0-11.5c0-0.2,0.2-0.4,0.5-0.4c0.3,0,0.5,0.2,0.5,0.4v11.5
																c0,0.2-0.2,0.4-0.5,0.4C-147.1,40.2-147.3,40.1-147.3,39.8L-147.3,39.8z"/>
															<path id="path5286" class="st2" d="M-147.3,35.6c-2.3,0-2.9-1.5-2.9-1.5c0,0,0.7-1.6,2.9-1.6L-147.3,35.6"/>
															<path id="path5288" class="st15" d="M-147.3,35.6c-2.3,0-2.9-1.5-2.9-1.5c0,0,0.7-1.6,2.9-1.6V35.6"/>
															<path id="path5290" class="st2" d="M-153.5,39.6V28.5c0-0.2,0.2-0.4,0.5-0.4c0.3,0,0.5,0.2,0.5,0.4v11.1
																c0,0.2-0.2,0.4-0.5,0.4C-153.2,40-153.5,39.8-153.5,39.6"/>
															<path id="path5292" class="st16" d="M-153.5,39.6V28.5c0-0.2,0.2-0.4,0.5-0.4c0.3,0,0.5,0.2,0.5,0.4v11.1
																c0,0.2-0.2,0.4-0.5,0.4C-153.2,40-153.5,39.8-153.5,39.6L-153.5,39.6z"/>
															<path id="path5294" class="st2" d="M-152.5,39.3l0-10.6c0-0.2,0.2-0.4,0.5-0.4c0.3,0,0.5,0.2,0.5,0.4v10.6
																c0,0.2-0.2,0.4-0.5,0.4C-152.3,39.7-152.5,39.6-152.5,39.3"/>
															<path id="path5296" class="st16" d="M-152.5,39.3V28.7c0-0.2,0.2-0.4,0.5-0.4c0.3,0,0.5,0.2,0.5,0.4l0,10.6
																c0,0.2-0.2,0.4-0.5,0.4C-152.3,39.7-152.5,39.6-152.5,39.3L-152.5,39.3z"/>
															<g id="XMLID_1028_">
																<g id="use5298" transform="matrix(.70711 -.70711 .70711 .70711 -41.435 275.76)">
																	<path id="path1535_13_" class="st2" d="M-159.7,35.9l0-0.8l0.6,0l0-0.6l-0.6,0l0-0.8h0.6l0-0.6l-0.6,0l0-0.8l1.4,0
																		c0.2,0,0.4,0.2,0.4,0.4l0,2.9c0,0.2-0.2,0.4-0.4,0.4L-159.7,35.9"/>
																</g>
																<path id="path5300" class="st17" d="M-159.7,35.9l0-0.8l0.6,0v-0.6h-0.6l0-0.9l0.6,0V33h-0.6l0-0.9l1.4,0
																	c0.2,0,0.4,0.2,0.4,0.4l0,3c0,0.2-0.2,0.4-0.4,0.4L-159.7,35.9L-159.7,35.9L-159.7,35.9z"/>
																<path id="path5302" class="st2" d="M-157.9,32.8l4.4-0.2l0,2.9l-4.4-0.2L-157.9,32.8"/>
																<path id="path5304" class="st16" d="M-157.9,32.8l4.4-0.2l0,2.9l-4.4-0.2L-157.9,32.8"/>
																<g id="use5306" transform="matrix(.70711 -.70711 .70711 .70711 -27.965 266.76)">
																	<path id="path1535_14_" class="st2" d="M-157.6,32.3l0-0.8l0.6,0l0-0.6l-0.6,0l0-0.8l0.6,0l0-0.6l-0.6,0l0-0.8
																		l1.4,0c0.2,0,0.4,0.2,0.4,0.4l0,2.9c0,0.2-0.2,0.4-0.4,0.4L-157.6,32.3"/>
																</g>
																<g id="use5308" transform="matrix(.70711 -.70711 .70711 .70711 -27.965 266.76)">
																	<path id="path1541_7_" class="st18" d="M-155.8,29.1l2.4-0.1l0,2.8l-2.4-0.1L-155.8,29.1L-155.8,29.1L-155.8,29.1z
																		"/>
																</g>
																<g id="use5310" transform="matrix(.70711 -.70711 .70711 .70711 -27.972 266.75)">
																	<path id="path1537_7_" class="st17" d="M-157.6,32.3l0-0.8h0.6l0-0.6l-0.6,0l0-0.8h0.6l0-0.6h-0.6l0-0.8l1.4,0
																		c0.2,0,0.4,0.2,0.4,0.4v2.9c0,0.2-0.2,0.4-0.4,0.4L-157.6,32.3L-157.6,32.3L-157.6,32.3z"/>
																</g>
																<path id="path5312" class="st2" d="M-157.6,39.5l0-0.8l0.6,0l0-0.6l-0.6,0l0-0.8h0.6l0-0.6l-0.6,0l0-0.8l1.4,0
																	c0.2,0,0.4,0.2,0.4,0.4v2.9c0,0.2-0.2,0.4-0.4,0.4L-157.6,39.5"/>
																<path id="path5314" class="st17" d="M-157.6,39.5l0-0.8l0.6,0v-0.6l-0.6,0l0-0.8l0.6,0v-0.6l-0.6,0l0-0.8l1.4,0
																	c0.2,0,0.4,0.2,0.4,0.4v2.9c0,0.2-0.2,0.4-0.4,0.4L-157.6,39.5L-157.6,39.5L-157.6,39.5z"/>
																<path id="path5316" class="st2" d="M-155.8,36.3l2.4-0.1l0,2.8l-2.4-0.1V36.3"/>
																<path id="path5318" class="st18" d="M-155.8,36.3l2.4-0.1l0,2.8l-2.4-0.1L-155.8,36.3L-155.8,36.3L-155.8,36.3z"/>
																<path id="path5320" d="M-156.5,34.3c-0.4,0-0.4-0.6,0-0.6l1,0l0,0.6L-156.5,34.3"/>
																<g id="use5322" transform="matrix(.70711 -.70711 .70711 .70711 -27.942 266.74)">
																	<path id="path1547_7_" d="M-155,30.7c-0.4,0-0.4-0.6,0-0.6l0.8,0v0.6L-155,30.7"/>
																</g>
																<path id="path5324" d="M-155,38c-0.4,0-0.4-0.6,0-0.6h0.8l0,0.6L-155,38"/>
																<g id="use6358" transform="translate(-20.819 25.744)">
																	<path id="use5944" class="st10" d="M-139.7,9.5c-0.4,0.4-0.4,1,0,1.4c0.4,0.4,1,0.4,1.4,0c0.4-0.4,0.4-1,0-1.4
																		C-138.7,9.1-139.3,9.1-139.7,9.5"/>
																</g>
																<g id="use6360" transform="translate(-29.056 25.754)">
																	<path id="use5944_1_" class="st10" d="M-143.7,13.4c-0.4,0.4-0.4,1,0,1.4c0.4,0.4,1,0.4,1.4,0c0.4-0.4,0.4-1,0-1.4
																		C-142.6,13-143.3,13-143.7,13.4"/>
																</g>
																<g id="use6356" transform="translate(-24.976 21.575)">
																	<path id="use5944_2_" class="st10" d="M-143.7,9.4c-0.4,0.4-0.4,1,0,1.4c0.4,0.4,1,0.4,1.4,0c0.4-0.4,0.4-1,0-1.4
																		C-142.7,9.1-143.3,9.1-143.7,9.4"/>
																</g>
																<g id="use6352" transform="translate(-20.81 17.581)">
																	<path id="use5944_3_" class="st10" d="M-143.6,5.5c-0.4,0.4-0.4,1,0,1.4c0.4,0.4,1,0.4,1.4,0c0.4-0.4,0.4-1,0-1.4
																		C-142.6,5.1-143.2,5.1-143.6,5.5"/>
																</g>
																<path id="use5944_4_" class="st10" d="M-142.1-13c-0.4,0.4-0.4,1,0,1.4c0.4,0.4,1,0.4,1.4,0c0.4-0.4,0.4-1,0-1.4
																	C-141-13.4-141.7-13.4-142.1-13"/>
																<g id="use5946" transform="translate(-8.1127 .012345)">
																	<path id="use5944_5_" class="st10" d="M-146-9.1c-0.4,0.4-0.4,1,0,1.4c0.4,0.4,1,0.4,1.4,0c0.4-0.4,0.4-1,0-1.4
																		C-144.9-9.5-145.6-9.5-146-9.1"/>
																</g>
																<g id="XMLID_1029_">
																	<g id="use5948" transform="translate(3.9554 -4.18)">
																		<path id="use5944_6_" class="st10" d="M-146.1-13c-0.4,0.4-0.4,1,0,1.4c0.4,0.4,1,0.4,1.4,0c0.4-0.4,0.4-1,0-1.4
																			C-145-13.4-145.7-13.4-146.1-13"/>
																	</g>
																	<g id="XMLID_1030_">
																		<g id="XMLID_1031_">
																			<g id="use5950" transform="translate(4.1661 -3.9948)">
																				<path id="use5944_7_" class="st10" d="M-146-16.9c-0.4,0.4-0.4,1,0,1.4c0.4,0.4,1,0.4,1.4,0
																					c0.4-0.4,0.4-1,0-1.4C-145-17.3-145.6-17.3-146-16.9"/>
																			</g>
																			<g id="XMLID_1032_">
																				<g id="XMLID_1033_">
																					<g id="XMLID_1034_">
																						<g id="use5952" transform="translate(-8.1391 -.00705)">
																							<path id="use5944_8_" class="st10" d="M-149.9-13c-0.4,0.4-0.4,1,0,1.4c0.4,0.4,1,0.4,1.4,0
																								c0.4-0.4,0.4-1,0-1.4C-148.9-13.4-149.5-13.4-149.9-13"/>
																						</g>
																						<g id="XMLID_1035_">
																							<g id="XMLID_1036_">
																								<g id="XMLID_1037_">
																									<g id="XMLID_1038_">
																										<g id="use5954" transform="translate(-12.617 8.1298)">
																											<path id="use5944_9_" class="st10" d="M-152.1-3c-0.4,0.4-0.4,1,0,1.4c0.4,0.4,1,0.4,1.4,0
																												c0.4-0.4,0.4-1,0-1.4C-151-3.4-151.7-3.4-152.1-3"/>
																										</g>
																										<g id="XMLID_1039_">
																											<g id="XMLID_1040_">
																												<g id="XMLID_1041_">
																													<path id="use5944_10_" class="st10" d="M-156.1,1c-0.4,0.4-0.4,1,0,1.4c0.4,0.4,1,0.4,1.4,0
																														c0.4-0.4,0.4-1,0-1.4C-155,0.6-155.7,0.6-156.1,1"/>
																													<path id="use5944_11_" class="st10" d="M-156.1-3c-0.4,0.4-0.4,1,0,1.4c0.4,0.4,1,0.4,1.4,0
																														c0.4-0.4,0.4-1,0-1.4C-155.1-3.4-155.7-3.4-156.1-3"/>
																													<path id="use5944_12_" class="st10" d="M-156-6.9c-0.4,0.4-0.4,1,0,1.4c0.4,0.4,1,0.4,1.4,0
																														c0.4-0.4,0.4-1,0-1.4C-155-7.3-155.6-7.3-156-6.9"/>
																													<path id="use5944_13_" class="st10" d="M-160-2.9c-0.4,0.4-0.4,1,0,1.4c0.4,0.4,1,0.4,1.4,0
																														c0.4-0.4,0.4-1,0-1.4C-159-3.3-159.6-3.3-160-2.9"/>
																													<path id="use5944_14_" class="st10" d="M-162.1,7c-0.4,0.4-0.4,1,0,1.4c0.4,0.4,1,0.4,1.4,0
																														c0.4-0.4,0.4-1,0-1.4C-161,6.6-161.7,6.6-162.1,7"/>
																													<path id="use5944_15_" class="st10" d="M-166,11c-0.4,0.4-0.4,1,0,1.4c0.4,0.4,1,0.4,1.4,0
																														c0.4-0.4,0.4-1,0-1.4C-164.9,10.6-165.6,10.6-166,11"/>
																													<path id="use5944_16_" class="st10" d="M-166.1,7c-0.4,0.4-0.4,1,0,1.4c0.4,0.4,1,0.4,1.4,0
																														c0.4-0.4,0.4-1,0-1.4C-165,6.6-165.7,6.6-166.1,7"/>
																													<path id="use5944_17_" class="st10" d="M-166,3.1c-0.4,0.4-0.4,1,0,1.4c0.4,0.4,1,0.4,1.4,0
																														c0.4-0.4,0.4-1,0-1.4C-165,2.7-165.6,2.7-166,3.1"/>
																													<path id="use5944_18_" class="st10" d="M-147.6,9.5c-0.4,0.4-0.4,1,0,1.4c0.4,0.4,1,0.4,1.4,0
																														c0.4-0.4,0.4-1,0-1.4C-146.6,9.1-147.2,9.1-147.6,9.5"/>
																													<path id="use6320" class="st2" d="M-169.9,7c-0.4,0.4-0.4,1,0,1.4c0.4,0.4,1,0.4,1.4,0s0.4-1,0-1.4
																														C-168.9,6.6-169.5,6.6-169.9,7"/>
																													<path id="use5944_19_" class="st10" d="M-172.5-15.5c-0.4,0.4-0.4,1,0,1.4c0.4,0.4,1,0.4,1.4,0
																														c0.4-0.4,0.4-1,0-1.4C-171.5-15.9-172.2-15.9-172.5-15.5"/>
																													<path id="use5944_20_" class="st10" d="M-168.6-19.4c-0.4,0.4-0.4,1,0,1.4c0.4,0.4,1,0.4,1.4,0
																														c0.4-0.4,0.4-1,0-1.4C-167.6-19.8-168.2-19.8-168.6-19.4"/>
																													<path id="use5944_21_" class="st10" d="M-168.7-15.5c-0.4,0.4-0.4,1,0,1.4c0.4,0.4,1,0.4,1.4,0
																														s0.4-1,0-1.4C-167.7-15.9-168.3-15.9-168.7-15.5"/>
																													<path id="use5944_22_" class="st10" d="M-164.7-15.5c-0.4,0.4-0.4,1,0,1.4c0.4,0.4,1,0.4,1.4,0
																														c0.4-0.4,0.4-1,0-1.4C-163.7-15.8-164.3-15.8-164.7-15.5"/>
																													<path id="use5944_23_" class="st10" d="M-168.6-11.5c-0.4,0.4-0.4,1,0,1.4c0.4,0.4,1,0.4,1.4,0
																														c0.4-0.4,0.4-1,0-1.4C-167.6-11.9-168.2-11.9-168.6-11.5"/>
																													<path id="use5944_24_" class="st10" d="M-169.9,7c-0.4,0.4-0.4,1,0,1.4c0.4,0.4,1,0.4,1.4,0
																														c0.4-0.4,0.4-1,0-1.4C-168.9,6.6-169.5,6.6-169.9,7"/>
																												</g>
																											</g>
																										</g>
																									</g>
																								</g>
																							</g>
																						</g>
																					</g>
																				</g>
																			</g>
																		</g>
																	</g>
																</g>
															</g>
														</g>
													</g>
												</g>
											</g>
										</g>
									</g>
								</g>
							</g>
						</g>
					</g>
				</g>
			</g>
		</g>
	</g>
</g>
</svg>
