<?xml version="1.0" encoding="utf-8"?>
<!-- Generator: Adobe Illustrator 19.0.0, SVG Export Plug-In . SVG Version: 6.00 Build 0)  -->
<svg version="1.1" id="Layer_1" xmlns="http://www.w3.org/2000/svg" xmlns:xlink="http://www.w3.org/1999/xlink" x="0px" y="0px"
	 viewBox="0 0 175.1 153.4" style="enable-background:new 0 0 175.1 153.4;" xml:space="preserve">
<style type="text/css">
	.st0{fill:#392317;}
	.st1{fill:#248885;}
	.st2{fill:#64C6C6;}
	.st3{fill:#FFFFFF;}
</style>
<g id="XMLID_3_">
	<g id="XMLID_7_">
		<path id="XMLID_8_" class="st0" d="M10.5,0.3h6.6l10.5,24.8h-7.3l-1.8-4.4H8.9l-1.8,4.4H0L10.5,0.3z M16.5,15.4l-2.7-7l-2.8,7
			H16.5z"/>
		<path id="XMLID_11_" class="st0" d="M24.5,0.5h7.6l5.6,15.6l5.6-15.6h7.5l-10,24.8h-6.3L24.5,0.5z"/>
		<path id="XMLID_13_" class="st0" d="M53.2,0.5h19.8v5.8H60V10h11.8v5.4H60v3.9h13.2v5.8h-20V0.5z"/>
		<path id="XMLID_15_" class="st0" d="M76.7,0.5h11.7c3.8,0,6.4,1,8,2.7c1.4,1.4,2.2,3.3,2.2,5.7V9c0,3.8-2,6.3-5.1,7.6l5.9,8.6
			h-7.9l-5-7.5h-3v7.5h-6.8V0.5z M88.1,12.3c2.3,0,3.7-1.1,3.7-2.9V9.3c0-1.9-1.4-2.9-3.7-2.9h-4.5v5.9H88.1z"/>
		<path id="XMLID_19_" class="st0" d="M110.1,0.3h6.6l10.5,24.8h-7.3l-1.8-4.4h-9.5l-1.8,4.4h-7.2L110.1,0.3z M116.1,15.4l-2.7-7
			l-2.8,7H116.1z"/>
		<path id="XMLID_23_" class="st0" d="M127.2,12.9L127.2,12.9c0-7.3,5.6-12.9,13.3-12.9c4.3,0,7.4,1.3,10,3.6l-4,4.8
			c-1.8-1.5-3.5-2.3-6-2.3c-3.6,0-6.3,3-6.3,6.8v0.1c0,4,2.8,6.8,6.7,6.8c1.7,0,2.9-0.4,3.9-1v-3H140v-5h11.3v11.1
			c-2.6,2.1-6.2,3.8-10.7,3.8C132.9,25.6,127.2,20.4,127.2,12.9z"/>
		<path id="XMLID_25_" class="st0" d="M155.1,0.5h19.8v5.8h-13.1V10h11.8v5.4h-11.8v3.9h13.2v5.8h-20V0.5z"/>
		<path id="XMLID_27_" class="st0" d="M2,33.4h3v7.2h8.2v-7.2h3v17.3h-3v-7.3H5v7.3H2V33.4z"/>
		<path id="XMLID_29_" class="st0" d="M20,42.1L20,42.1c0-4.9,3.7-9,9-9c5.3,0,9,4,9,8.9v0c0,4.9-3.7,8.9-9,8.9S20,47,20,42.1z
			 M34.9,42.1L34.9,42.1c0-3.4-2.4-6.2-5.9-6.2s-5.8,2.7-5.8,6.1v0c0,3.4,2.4,6.1,5.9,6.1C32.5,48.2,34.9,45.5,34.9,42.1z"/>
		<path id="XMLID_32_" class="st0" d="M41.4,43.4v-9.9h3v9.8c0,3.2,1.7,4.9,4.4,4.9c2.7,0,4.3-1.6,4.3-4.8v-9.9h3v9.8
			c0,5.2-2.9,7.7-7.4,7.7C44.3,51,41.4,48.4,41.4,43.4z"/>
		<path id="XMLID_34_" class="st0" d="M59.2,48.2L61,46c1.7,1.4,3.3,2.2,5.4,2.2c1.9,0,3.1-0.9,3.1-2.2v0c0-1.2-0.7-1.9-3.9-2.6
			c-3.7-0.9-5.7-2-5.7-5.2v0c0-3,2.5-5,5.9-5c2.5,0,4.5,0.8,6.3,2.2l-1.6,2.3c-1.6-1.2-3.1-1.8-4.7-1.8c-1.8,0-2.8,0.9-2.8,2v0
			c0,1.3,0.8,1.9,4.1,2.7c3.6,0.9,5.5,2.2,5.5,5.1v0c0,3.2-2.5,5.2-6.2,5.2C63.8,50.9,61.3,50,59.2,48.2z"/>
		<path id="XMLID_36_" class="st0" d="M76.2,33.4H89v2.7h-9.8v4.5h8.7v2.7h-8.7V48h9.9v2.7H76.2V33.4z"/>
		<path id="XMLID_38_" class="st0" d="M100.1,33.4h6.8c4,0,6.6,2.3,6.6,5.8v0c0,3.9-3.1,5.9-6.9,5.9h-3.4v5.5h-3V33.4z M106.6,42.4
			c2.3,0,3.7-1.3,3.7-3.1v0c0-2-1.5-3.1-3.7-3.1h-3.5v6.2H106.6z"/>
		<path id="XMLID_41_" class="st0" d="M116.5,33.4h7.7c2.2,0,3.9,0.6,5,1.7c0.9,0.9,1.4,2.2,1.4,3.7v0c0,2.8-1.7,4.5-4.1,5.2
			l4.7,6.5h-3.6l-4.2-6h-3.8v6h-3V33.4z M124,42c2.2,0,3.6-1.1,3.6-2.9v0c0-1.8-1.3-2.9-3.6-2.9h-4.4V42H124z"/>
		<path id="XMLID_44_" class="st0" d="M134.5,33.4h3v17.3h-3V33.4z"/>
		<path id="XMLID_46_" class="st0" d="M141.4,42.1L141.4,42.1c0-5,3.7-9,8.9-9c3.2,0,5.1,1.1,6.8,2.7l-1.9,2.2
			c-1.4-1.3-2.9-2.1-4.8-2.1c-3.3,0-5.7,2.7-5.7,6.1v0c0,3.4,2.4,6.1,5.7,6.1c2.1,0,3.5-0.9,5-2.2l1.9,2c-1.8,1.9-3.8,3.1-7,3.1
			C145.2,51,141.4,47.1,141.4,42.1z"/>
		<path id="XMLID_48_" class="st0" d="M160.4,33.4h12.8v2.7h-9.8v4.5h8.7v2.7h-8.7V48h9.9v2.7h-12.9V33.4z"/>
	</g>
</g>
<g id="XMLID_1_">
	<g>
		<polygon id="XMLID_6_" class="st1" points="133.8,82.3 114.6,93.3 98.6,84.1 98.6,66.4 80.6,66.4 80.6,75.2 57.4,63.4 0.7,93.1 
			6.9,103.8 57.4,77.6 112.1,106.1 133.8,93.5 169.5,114.2 174.4,105.7 		"/>
		<g>
			<polygon id="XMLID_5_" class="st2" points="110.8,111.9 57.4,84.1 16.2,104.9 16.2,153.4 105.4,153.4 105.4,153.4 124.8,153.4 
				124.8,125.2 142.7,125.2 142.7,153.4 162.1,153.4 162.1,115.1 133.8,98.7 			"/>
		</g>
	</g>
	<g id="XMLID_2_">
		<g id="XMLID_153_">
			<path id="XMLID_162_" class="st3" d="M34.9,141.8c-3-0.3-5.9-1.4-8.2-3l2.7-4c1.9,1.4,3.8,2.2,5.6,2.5v-3.6
				c-4.9-1.1-7.4-2.8-7.4-6.5V127c0-3.6,2.6-6.1,7.2-6.4v-1.7h3.2v1.8c2.5,0.3,4.6,1.1,6.4,2.4l-2.5,4.1c-1.2-0.9-2.7-1.5-4.1-1.8
				v3.5c4.8,1.1,7.2,2.8,7.2,6.6v0.1c0,3.7-2.8,6-7.2,6.4v3h-3.2V141.8z M35.1,125c-1.5,0.1-2.1,0.7-2.1,1.5v0.1
				c0,0.8,0.4,1.2,2.1,1.7V125z M40,135.9L40,135.9c0-0.9-0.5-1.3-2-1.8v3.3C39.3,137.2,40,136.7,40,135.9z"/>
			<path id="XMLID_160_" class="st3" d="M50.3,125.9l-3.6,0.8l-1.1-4.5l6.2-1.8h4.3v21.4h-5.8V125.9z"/>
			<path id="XMLID_158_" class="st3" d="M68.6,125.5h-9.8v-4.9h16.3v4.4l-9.4,16.8h-6.5L68.6,125.5z"/>
			<path id="XMLID_156_" class="st3" d="M75.2,138.5l3.7-3.7c1.5,1.5,3.1,2.4,5.1,2.4c1.7,0,2.7-0.8,2.7-2.2V135
				c0-1.4-1.2-2.2-3.5-2.2h-2.5l-0.8-3.1l4.9-4.4h-8.1v-4.8H92v4.2l-5.1,4.3c3,0.7,5.5,2.4,5.5,6v0.1c0,4.3-3.5,7.1-8.2,7.1
				C80.2,142.2,77.3,140.8,75.2,138.5z"/>
			<path id="XMLID_154_" class="st3" d="M94.6,125.1H99v8.5l3.4-4.1h4.9l-4.3,5l4.4,7.4h-4.8l-2.5-4.2l-1.1,1.3v2.9h-4.3V125.1z"/>
		</g>
	</g>
</g>
</svg>
