<?xml version="1.0" encoding="utf-8"?>
<!-- Generator: Adobe Illustrator 19.0.0, SVG Export Plug-In . SVG Version: 6.00 Build 0)  -->
<svg version="1.1" id="Layer_1" xmlns="http://www.w3.org/2000/svg" xmlns:xlink="http://www.w3.org/1999/xlink" x="0px" y="0px"
	 viewBox="-139.1 124.5 297 382.5" style="enable-background:new -139.1 124.5 297 382.5;" xml:space="preserve">
<style type="text/css">
	.st0{fill:#8B5E3C;}
	.st1{fill:#A97C50;}
	.st2{fill:#414042;}
	.st3{fill:#009444;}
	.st4{fill:#603913;}
	.st5{fill:#FFFFFF;}
	.st6{opacity:0.3;}
	.st7{fill:#FBB040;}
</style>
<g id="XMLID_3_">
	<g id="XMLID_37_">
		<g id="XMLID_39_">
			<rect x="-97.9" y="426" class="st0" width="28.5" height="81"/>
		</g>
	</g>
</g>
<g id="XMLID_6_">
	<g id="XMLID_34_">
		<g id="XMLID_35_">
			<rect x="89.3" y="426" class="st0" width="28.5" height="81"/>
		</g>
	</g>
</g>
<g id="XMLID_73_">
	<g id="XMLID_10_">
		<path class="st1" d="M134.9,433.5h-255.9c-3.8,0-6.9-5.5-6.9-12.3V139.8c0-6.8,3.1-12.3,6.9-12.3h255.9c3.8,0,6.9,5.5,6.9,12.3
			v281.5C141.7,428,138.6,433.5,134.9,433.5z"/>
	</g>
</g>
<g id="XMLID_76_">
	<g id="XMLID_9_">
		<path class="st2" d="M135.5,450.5h-252.3c-12.3,0-22.3-10-22.3-22.3V146.8c0-12.3,10-22.3,22.3-22.3h252.4
			c12.3,0,22.3,10,22.3,22.3v281.5C157.8,440.5,147.8,450.5,135.5,450.5z M-116.8,144.5c-1.3,0-2.3,1-2.3,2.3v281.5
			c0,1.2,1,2.3,2.3,2.3h252.4c1.2,0,2.3-1,2.3-2.3V146.8c0-1.2-1-2.3-2.3-2.3H-116.8z"/>
	</g>
</g>
<g id="XMLID_20_">
	<g id="XMLID_28_">
		<g id="XMLID_29_">
			<rect x="-104.6" y="488.1" class="st3" width="41.3" height="18.9"/>
		</g>
	</g>
</g>
<g id="XMLID_22_">
	<g id="XMLID_19_">
		<g id="XMLID_21_">
			<rect x="82.9" y="488.1" class="st3" width="41.3" height="18.9"/>
		</g>
	</g>
</g>
<g id="XMLID_23_">
	<g id="XMLID_16_">
		<g id="XMLID_17_">
			<polygon class="st4" points="-97.9,449.6 -69.4,449.6 -69.4,470.2 			"/>
		</g>
	</g>
</g>
<g id="XMLID_24_">
	<g id="XMLID_13_">
		<g id="XMLID_14_">
			<polygon class="st4" points="89.3,449.5 117.8,449.5 117.8,470.2 			"/>
		</g>
	</g>
</g>
<g id="XMLID_112_">
	<path id="XMLID_119_" class="st5" d="M-87.4,311l6-4.6c1.5-1.2,2.1-1.9,2.1-2.9s-0.7-1.6-1.8-1.6c-1.1,0-1.9,0.6-3.2,2.1l-3-2.5
		c1.7-2.2,3.4-3.4,6.5-3.4c3.5,0,5.9,2.1,5.9,5.1l0,0c0,2.6-1.3,3.9-3.7,5.6l-2.7,1.9h6.6v3.6h-12.7L-87.4,311L-87.4,311z"/>
	<path id="XMLID_122_" class="st5" d="M-66.1,302h-7.4v-3.7h12.3v3.3l-7.1,12.7h-4.9L-66.1,302z"/>
	<path id="XMLID_124_" class="st5" d="M-54.2,305.4h1.6v3.7h4.2v-3.7h1.6v8.9h-1.6v-3.7h-4.2v3.7h-1.6V305.4z"/>
	<path id="XMLID_126_" class="st5" d="M-41.4,305.4h1.4l3.9,9h-1.7l-0.9-2.1h-4.2l-0.9,2.1h-1.6L-41.4,305.4z M-39.1,310.8l-1.5-3.6
		l-1.5,3.6H-39.1z"/>
	<path id="XMLID_129_" class="st5" d="M-36.5,305.4h1.7l2.7,6.8l2.7-6.8h1.7l-3.7,9h-1.4L-36.5,305.4z"/>
	<path id="XMLID_131_" class="st5" d="M-26.2,305.4h6.6v1.4h-5v2.3h4.5v1.4h-4.5v2.4h5.1v1.4h-6.7V305.4z"/>
	<path id="XMLID_133_" class="st5" d="M-13.9,305.4h1.6v7.5h4.7v1.4h-6.2v-8.9H-13.9z"/>
	<path id="XMLID_135_" class="st5" d="M-5.9,305.4h1.6v8.9h-1.6V305.4z"/>
	<path id="XMLID_137_" class="st5" d="M-2,305.4h1.7l2.7,4.2l2.7-4.2h1.7v8.9H5.2v-6.4l-2.8,4.2H2.3l-2.8-4.2v6.4H-2V305.4z"/>
	<path id="XMLID_139_" class="st5" d="M9.2,305.4h1.6v8.9H9.2V305.4z"/>
	<path id="XMLID_141_" class="st5" d="M15.3,306.9h-2.8v-1.4h7.2v1.4h-2.8v7.4h-1.6L15.3,306.9L15.3,306.9z"/>
	<path id="XMLID_143_" class="st5" d="M21.3,305.4h6.6v1.4h-5v2.3h4.5v1.4h-4.5v2.4H28v1.4h-6.7V305.4z"/>
	<path id="XMLID_145_" class="st5" d="M29.9,305.4h3.3c2.8,0,4.7,1.9,4.7,4.4l0,0c0,2.5-1.9,4.4-4.7,4.4h-3.3V305.4z M33.2,312.9
		c1.9,0,3.1-1.3,3.1-3l0,0c0-1.7-1.2-3-3.1-3h-1.8v6.1h1.8V312.9z"/>
	<path id="XMLID_148_" class="st5" d="M46.8,305.4h1.4l3.9,9h-1.7l-0.9-2.1h-4.2l-0.9,2.1h-1.6L46.8,305.4z M49,310.8l-1.5-3.6
		l-1.5,3.6H49z"/>
	<path id="XMLID_151_" class="st5" d="M52.7,309.9L52.7,309.9c0-2.6,1.9-4.6,4.6-4.6c1.6,0,2.6,0.6,3.5,1.4l-1,1.2
		c-0.7-0.7-1.5-1.1-2.5-1.1c-1.7,0-2.9,1.4-2.9,3.1l0,0c0,1.7,1.2,3.2,2.9,3.2c1.1,0,1.8-0.4,2.6-1.2l1,1c-0.9,1-1.9,1.6-3.6,1.6
		C54.7,314.5,52.7,312.5,52.7,309.9z"/>
	<path id="XMLID_153_" class="st5" d="M64.7,306.9h-2.8v-1.4h7.2v1.4h-2.8v7.4h-1.6L64.7,306.9L64.7,306.9z"/>
	<path id="XMLID_155_" class="st5" d="M70.8,305.4h1.6v8.9h-1.6V305.4z"/>
	<path id="XMLID_157_" class="st5" d="M74,305.4h1.7l2.7,6.8l2.7-6.8h1.7l-3.7,9h-1.4L74,305.4z"/>
	<path id="XMLID_159_" class="st5" d="M84.4,305.4H86v8.9h-1.6V305.4z"/>
	<path id="XMLID_161_" class="st5" d="M90.5,306.9h-2.8v-1.4h7.2v1.4h-2.8v7.4h-1.6L90.5,306.9L90.5,306.9z"/>
	<path id="XMLID_163_" class="st5" d="M99.2,310.8l-3.5-5.4h1.8l2.5,3.9l2.5-3.9h1.8l-3.5,5.4v3.5h-1.6L99.2,310.8L99.2,310.8z"/>
	<path id="XMLID_165_" class="st5" d="M-84.4,329.8l-2.7,0.6l-0.8-3.4l4.7-1.3h3.2v16.1h-4.4L-84.4,329.8L-84.4,329.8z"/>
	<path id="XMLID_167_" class="st5" d="M-77.9,340.2l2.1-3.1c1.1,0.9,2.2,1.3,3.4,1.3c1.8,0,2.8-1.3,3-3.3c-0.8,0.8-2,1.3-3.4,1.3
		c-3.1,0-5.4-1.9-5.4-5.1l0,0c0-3.5,2.7-5.8,6.4-5.8c2.3,0,3.7,0.7,4.9,1.9c1.2,1.1,1.9,3,1.9,5.9l0,0c0,5.2-2.6,8.8-7.4,8.8
		C-74.7,342.1-76.4,341.3-77.9,340.2z M-69.3,331.1L-69.3,331.1c0-1.3-0.9-2.2-2.3-2.2s-2.2,0.9-2.2,2.2l0,0c0,1.2,0.9,2.1,2.3,2.1
		S-69.3,332.3-69.3,331.1z"/>
	<path id="XMLID_170_" class="st5" d="M-54.4,332.8h1.4l3.9,9h-1.7l-0.9-2.1h-4.2l-0.9,2.1h-1.6L-54.4,332.8z M-52.2,338.2l-1.5-3.6
		l-1.5,3.6H-52.2z"/>
	<path id="XMLID_173_" class="st5" d="M-47.6,332.9h4c1.1,0,2,0.3,2.6,0.9c0.5,0.5,0.7,1.1,0.7,1.9l0,0c0,1.5-0.9,2.3-2.1,2.7
		l2.4,3.4h-1.8l-2.2-3.1h-2v3.1h-1.6V332.9z M-43.7,337.3c1.1,0,1.8-0.6,1.8-1.5l0,0c0-1-0.7-1.5-1.8-1.5H-46v3H-43.7z"/>
	<path id="XMLID_176_" class="st5" d="M-38.4,332.9h6.6v1.4h-5v2.3h4.5v1.4h-4.5v2.4h5.1v1.4h-6.7V332.9z"/>
	<path id="XMLID_178_" class="st5" d="M-19.1,341.1c-0.8,0.5-1.7,0.8-2.7,0.8c-2.7,0-4.6-2.1-4.6-4.6l0,0c0-2.5,1.9-4.6,4.7-4.6
		c2.7,0,4.6,2.1,4.6,4.6l0,0c0,1-0.3,2-0.9,2.7l1,0.9l-1,1.1L-19.1,341.1z M-20.2,340.1l-1.5-1.3l1-1.1l1.5,1.4
		c0.3-0.5,0.5-1,0.5-1.7l0,0c0-1.7-1.3-3.2-3-3.2c-1.8,0-3,1.4-3,3.1l0,0c0,1.7,1.3,3.2,3,3.2C-21.2,340.5-20.6,340.3-20.2,340.1z"
		/>
	<path id="XMLID_181_" class="st5" d="M-15.4,338v-5.1h1.6v5.1c0,1.7,0.9,2.5,2.2,2.5c1.4,0,2.2-0.8,2.2-2.5v-5.1h1.6v5
		c0,2.7-1.5,4-3.8,4C-13.9,341.9-15.4,340.6-15.4,338z"/>
	<path id="XMLID_183_" class="st5" d="M-5.5,332.9h1.6v8.9h-1.6V332.9z"/>
	<path id="XMLID_185_" class="st5" d="M0.6,334.3h-2.8v-1.4H5v1.4H2.2v7.4H0.6L0.6,334.3L0.6,334.3z"/>
	<path id="XMLID_187_" class="st5" d="M6.7,332.9h6.6v1.4h-5v2.3h4.5v1.4H8.3v2.4h5.1v1.4H6.7V332.9z"/>
	<path id="XMLID_189_" class="st5" d="M18.4,340.5l0.9-1.1c0.9,0.7,1.7,1.2,2.8,1.2c1,0,1.6-0.4,1.6-1.1l0,0c0-0.6-0.4-1-2-1.4
		c-1.9-0.5-3-1-3-2.7l0,0c0-1.5,1.3-2.6,3-2.6c1.3,0,2.3,0.4,3.2,1.1l-0.8,1.2c-0.8-0.6-1.6-0.9-2.4-0.9c-0.9,0-1.4,0.5-1.4,1.1l0,0
		c0,0.7,0.4,1,2.1,1.4c1.9,0.5,2.9,1.1,2.9,2.6l0,0c0,1.7-1.3,2.7-3.2,2.7C20.8,341.9,19.5,341.4,18.4,340.5z"/>
	<path id="XMLID_191_" class="st5" d="M29.2,334.3h-2.8v-1.4h7.2v1.4h-2.8v7.4h-1.6L29.2,334.3L29.2,334.3z"/>
	<path id="XMLID_193_" class="st5" d="M35.2,332.9h4c1.1,0,2,0.3,2.6,0.9c0.5,0.5,0.7,1.1,0.7,1.9l0,0c0,1.5-0.9,2.3-2.1,2.7
		l2.4,3.4H41l-2.2-3.1h-2v3.1h-1.6V332.9z M39.1,337.3c1.1,0,1.8-0.6,1.8-1.5l0,0c0-1-0.7-1.5-1.8-1.5h-2.3v3H39.1z"/>
	<path id="XMLID_196_" class="st5" d="M44.4,332.9H51v1.4h-5v2.3h4.5v1.4H46v2.4h5.1v1.4h-6.7V332.9z"/>
	<path id="XMLID_198_" class="st5" d="M52.3,340.5l0.9-1.1c0.9,0.7,1.7,1.2,2.8,1.2c1,0,1.6-0.4,1.6-1.1l0,0c0-0.6-0.4-1-2-1.4
		c-1.9-0.5-3-1-3-2.7l0,0c0-1.5,1.3-2.6,3-2.6c1.3,0,2.3,0.4,3.2,1.1l-0.8,1.2c-0.8-0.6-1.6-0.9-2.4-0.9c-0.9,0-1.4,0.5-1.4,1.1l0,0
		c0,0.7,0.4,1,2.1,1.4c1.9,0.5,2.9,1.1,2.9,2.6l0,0c0,1.7-1.3,2.7-3.2,2.7C54.7,341.9,53.4,341.4,52.3,340.5z"/>
	<path id="XMLID_200_" class="st5" d="M60.3,340.5l0.9-1.1c0.9,0.7,1.7,1.2,2.8,1.2c1,0,1.6-0.4,1.6-1.1l0,0c0-0.6-0.4-1-2-1.4
		c-1.9-0.5-3-1-3-2.7l0,0c0-1.5,1.3-2.6,3-2.6c1.3,0,2.3,0.4,3.2,1.1l-0.8,1.2c-0.8-0.6-1.6-0.9-2.4-0.9c-0.9,0-1.4,0.5-1.4,1.1l0,0
		c0,0.7,0.4,1,2.1,1.4c1.9,0.5,2.9,1.1,2.9,2.6l0,0c0,1.7-1.3,2.7-3.2,2.7C62.7,341.9,61.4,341.4,60.3,340.5z"/>
	<path id="XMLID_202_" class="st5" d="M69.1,332.9h6.6v1.4h-5v2.3h4.5v1.4h-4.5v2.4h5.1v1.4h-6.7V332.9z"/>
	<path id="XMLID_204_" class="st5" d="M77.6,332.9h3.3c2.8,0,4.7,1.9,4.7,4.4l0,0c0,2.5-1.9,4.4-4.7,4.4h-3.3V332.9z M80.9,340.4
		c1.9,0,3.1-1.3,3.1-3l0,0c0-1.7-1.2-3-3.1-3h-1.8v6H80.9z"/>
	<path id="XMLID_207_" class="st5" d="M-84.4,357.2l-2.7,0.6l-0.8-3.4l4.7-1.3h3.2v16.1h-4.4L-84.4,357.2L-84.4,357.2z"/>
	<path id="XMLID_209_" class="st5" d="M-75.4,357.2l-2.7,0.6l-0.8-3.4l4.7-1.3h3.2v16.1h-4.4L-75.4,357.2L-75.4,357.2z"/>
	<path id="XMLID_211_" class="st5" d="M-63.1,360.3h1.6v3.7h4.2v-3.7h1.6v8.9h-1.6v-3.7h-4.2v3.7h-1.6V360.3z"/>
	<path id="XMLID_213_" class="st5" d="M-50.3,360.3h1.4l3.9,9h-1.7l-0.9-2.1h-4.2l-0.9,2.1h-1.6L-50.3,360.3z M-48,365.7l-1.5-3.6
		l-1.5,3.6H-48z"/>
	<path id="XMLID_216_" class="st5" d="M-45.4,360.3h1.7l2.7,6.8l2.7-6.8h1.7l-3.7,9h-1.4L-45.4,360.3z"/>
	<path id="XMLID_218_" class="st5" d="M-35.1,360.3h6.6v1.4h-5v2.3h4.5v1.4h-4.5v2.4h5.1v1.4h-6.7V360.3z"/>
	<path id="XMLID_220_" class="st5" d="M-22.8,360.3h6.6v1.4h-5.1v2.4h4.5v1.4h-4.5v3.6h-1.6v-8.8H-22.8z"/>
	<path id="XMLID_222_" class="st5" d="M-12.3,360.3h1.4l3.9,9h-1.7l-0.9-2.1h-4.2l-0.9,2.1h-1.6L-12.3,360.3z M-10.1,365.7l-1.5-3.6
		l-1.5,3.6H-10.1z"/>
	<path id="XMLID_225_" class="st5" d="M-5.3,360.3h1.6v8.9h-1.6V360.3z"/>
	<path id="XMLID_227_" class="st5" d="M-1.4,360.3h4c1.1,0,2,0.3,2.6,0.9c0.5,0.5,0.7,1.1,0.7,1.9l0,0c0,1.5-0.9,2.3-2.1,2.7
		l2.4,3.4H4.4l-2.2-3.1h-2v3.1h-1.6V360.3z M2.5,364.8c1.1,0,1.8-0.6,1.8-1.5l0,0c0-1-0.7-1.5-1.8-1.5H0.2v3H2.5z"/>
	<path id="XMLID_230_" class="st5" d="M12.1,359.1h1.3l-5.7,11.8H6.4L12.1,359.1z"/>
	<path id="XMLID_232_" class="st5" d="M14.4,360.3h3.5c2.1,0,3.4,1.2,3.4,3l0,0c0,2-1.6,3-3.6,3H16v2.9h-1.6V360.3z M17.8,365
		c1.2,0,1.9-0.7,1.9-1.6l0,0c0-1-0.8-1.6-1.9-1.6H16v3.2H17.8L17.8,365z"/>
	<path id="XMLID_235_" class="st5" d="M22.5,364.8L22.5,364.8c0-2.5,1.9-4.6,4.7-4.6c2.7,0,4.6,2.1,4.6,4.6l0,0
		c0,2.5-1.9,4.6-4.7,4.6C24.5,369.4,22.5,367.3,22.5,364.8z M30.2,364.8L30.2,364.8c0-1.8-1.3-3.2-3-3.2c-1.8,0-3,1.4-3,3.1l0,0
		c0,1.7,1.3,3.2,3,3.2C29,368,30.2,366.5,30.2,364.8z"/>
	<path id="XMLID_238_" class="st5" d="M33.4,364.8L33.4,364.8c0-2.5,1.9-4.6,4.7-4.6c2.7,0,4.6,2.1,4.6,4.6l0,0
		c0,2.5-1.9,4.6-4.7,4.6C35.3,369.4,33.4,367.3,33.4,364.8z M41,364.8L41,364.8c0-1.8-1.3-3.2-3-3.2c-1.8,0-3,1.4-3,3.1l0,0
		c0,1.7,1.3,3.2,3,3.2C39.8,368,41,366.5,41,364.8z"/>
	<path id="XMLID_241_" class="st5" d="M44.6,360.3h4c1.1,0,2,0.3,2.6,0.9c0.5,0.5,0.7,1.1,0.7,1.9l0,0c0,1.5-0.9,2.3-2.1,2.7
		l2.4,3.4h-1.8l-2.2-3.1h-2v3.1h-1.6V360.3z M48.4,364.8c1.1,0,1.8-0.6,1.8-1.5l0,0c0-1-0.7-1.5-1.8-1.5h-2.3v3H48.4z"/>
	<path id="XMLID_244_" class="st5" d="M57.6,360.3h1.6v3.7h4.2v-3.7H65v8.9h-1.6v-3.7h-4.2v3.7h-1.6V360.3z"/>
	<path id="XMLID_246_" class="st5" d="M67.2,360.3h6.6v1.4h-5v2.3h4.5v1.4h-4.5v2.4h5.1v1.4h-6.7V360.3z"/>
	<path id="XMLID_248_" class="st5" d="M78.9,360.3h1.4l3.9,9h-1.7l-0.9-2.1h-4.2l-0.9,2.1H75L78.9,360.3z M81.1,365.7l-1.5-3.6
		l-1.5,3.6H81.1z"/>
	<path id="XMLID_251_" class="st5" d="M85.8,360.3h1.6v7.5h4.7v1.4h-6.2v-8.9H85.8z"/>
	<path id="XMLID_253_" class="st5" d="M94.6,361.8h-2.8v-1.4H99v1.4h-2.8v7.4h-1.6L94.6,361.8L94.6,361.8z"/>
	<path id="XMLID_255_" class="st5" d="M100.6,360.3h1.6v3.7h4.2v-3.7h1.6v8.9h-1.6v-3.7h-4.2v3.7h-1.6V360.3z"/>
	<path id="XMLID_258_" class="st5" d="M-84.4,384.7l-2.7,0.6l-0.8-3.4l4.7-1.3h3.2v16.1h-4.4L-84.4,384.7L-84.4,384.7z"/>
	<path id="XMLID_260_" class="st5" d="M-75.4,384.7l-2.7,0.6l-0.8-3.4l4.7-1.3h3.2v16.1h-4.4L-75.4,384.7L-75.4,384.7z"/>
	<path id="XMLID_262_" class="st5" d="M-59.9,387.7h1.4l3.9,9h-1.7l-0.9-2.1h-4.2l-0.9,2.1h-1.6L-59.9,387.7z M-57.7,393.2l-1.5-3.6
		l-1.5,3.6H-57.7z"/>
	<path id="XMLID_265_" class="st5" d="M-53,387.8h4c1.1,0,2,0.3,2.6,0.9c0.5,0.5,0.7,1.1,0.7,1.9l0,0c0,1.5-0.9,2.3-2.1,2.7l2.4,3.4
		h-1.8l-2.2-3.1h-2v3.1H-53V387.8z M-49.2,392.2c1.1,0,1.8-0.6,1.8-1.5l0,0c0-1-0.7-1.5-1.8-1.5h-2.3v3H-49.2z"/>
	<path id="XMLID_268_" class="st5" d="M-43.8,387.8h6.6v1.4h-5v2.3h4.5v1.4h-4.5v2.4h5.1v1.4h-6.7V387.8z"/>
	<path id="XMLID_270_" class="st5" d="M-31.5,387.8h6.6v1.4h-5v2.3h4.5v1.4H-30v2.4h5.1v1.4h-6.7v-8.9H-31.5z"/>
	<path id="XMLID_272_" class="st5" d="M-20.4,392.2l-3.1-4.4h1.8l2.2,3.2l2.2-3.2h1.8l-3.1,4.3l3.2,4.6h-1.8l-2.3-3.4l-2.4,3.4h-1.8
		L-20.4,392.2z"/>
	<path id="XMLID_274_" class="st5" d="M-13.7,387.8h3.5c2.1,0,3.4,1.2,3.4,3l0,0c0,2-1.6,3-3.6,3h-1.8v2.9h-1.6v-8.9H-13.7z
		 M-10.3,392.4c1.2,0,1.9-0.7,1.9-1.6l0,0c0-1-0.8-1.6-1.9-1.6h-1.8v3.2H-10.3z"/>
	<path id="XMLID_277_" class="st5" d="M-5.2,387.8h6.6v1.4h-5v2.3h4.5v1.4h-4.5v2.4h5.1v1.4h-6.7V387.8z"/>
	<path id="XMLID_279_" class="st5" d="M3.3,387.8h4c1.1,0,2,0.3,2.6,0.9c0.5,0.5,0.7,1.1,0.7,1.9l0,0c0,1.5-0.9,2.3-2.1,2.7l2.4,3.4
		H9l-2.2-3.1h-2v3.1H3.2v-8.9H3.3z M7.1,392.2c1.1,0,1.8-0.6,1.8-1.5l0,0c0-1-0.7-1.5-1.8-1.5H4.8v3H7.1z"/>
	<path id="XMLID_282_" class="st5" d="M12.6,387.8h1.6v8.9h-1.6V387.8z"/>
	<path id="XMLID_284_" class="st5" d="M16.5,387.8h6.6v1.4h-5v2.3h4.5v1.4h-4.5v2.4h5.1v1.4h-6.7V387.8z"/>
	<path id="XMLID_286_" class="st5" d="M25,387.8h1.4l4.8,6.2v-6.2h1.5v8.9h-1.3l-4.9-6.3v6.3H25V387.8z"/>
	<path id="XMLID_288_" class="st5" d="M34.7,392.3L34.7,392.3c0-2.6,1.9-4.6,4.6-4.6c1.6,0,2.6,0.6,3.5,1.4l-1,1.2
		c-0.7-0.7-1.5-1.1-2.5-1.1c-1.7,0-2.9,1.4-2.9,3.1l0,0c0,1.7,1.2,3.2,2.9,3.2c1.1,0,1.8-0.4,2.6-1.2l1,1c-0.9,1-1.9,1.6-3.6,1.6
		C36.6,396.8,34.7,394.8,34.7,392.3z"/>
	<path id="XMLID_290_" class="st5" d="M44.6,387.8h1.6v8.9h-1.6V387.8z"/>
	<path id="XMLID_292_" class="st5" d="M48.5,387.8h1.4l4.8,6.2v-6.2h1.5v8.9h-1.3l-4.9-6.3v6.3h-1.5V387.8z"/>
	<path id="XMLID_294_" class="st5" d="M58.2,392.3L58.2,392.3c0-2.5,1.9-4.6,4.6-4.6c1.5,0,2.5,0.4,3.4,1.2l-1,1.2
		c-0.7-0.6-1.4-1-2.5-1c-1.6,0-2.9,1.4-2.9,3.1l0,0c0,1.8,1.2,3.2,3,3.2c0.8,0,1.6-0.3,2.1-0.7V393h-2.3v-1.4h3.8v3.7
		c-0.9,0.8-2.1,1.4-3.7,1.4C60,396.8,58.2,394.9,58.2,392.3z"/>
	<path id="XMLID_296_" class="st5" d="M72.3,387.8h3.5c2.1,0,3.4,1.2,3.4,3l0,0c0,2-1.6,3-3.6,3h-1.8v2.9h-1.6v-8.9H72.3z
		 M75.7,392.4c1.2,0,1.9-0.7,1.9-1.6l0,0c0-1-0.8-1.6-1.9-1.6h-1.8v3.2H75.7z"/>
	<path id="XMLID_299_" class="st5" d="M83.1,387.7h1.4l3.9,9h-1.7l-0.9-2.1h-4.2l-0.9,2.1h-1.6L83.1,387.7z M85.3,393.2l-1.5-3.6
		l-1.5,3.6H85.3z"/>
	<path id="XMLID_302_" class="st5" d="M90.1,387.8h1.6v8.9h-1.6V387.8z"/>
	<path id="XMLID_304_" class="st5" d="M94,387.8h1.4l4.8,6.2v-6.2h1.5v8.9h-1.3l-4.9-6.3v6.3H94V387.8z"/>
</g>
<g id="MU8G1F_2_">
	<g id="XMLID_27_" class="st6">
		<g id="XMLID_30_">
			<path d="M8.3,177.6c-4.9,0.6-9.7,1-14.6,1.9c-3.1,0.6-6.1,1.6-9,2.8c-3.3,1.3-6.6,2.7-10.3,2.6c-2.1-0.1-4.2-0.1-6.3,0
				c-1,0-2.1,0.1-3,0.5c-2.5,1-3.1,3.4-3.1,5.7c-0.1,11.3-0.1,22.6,0,33.9c0,1.5,0.4,3.1,1.1,4.3c1.2,2.2,3.3,3,5.7,3.2
				c2.7,0.2,5.4,0.3,8,0.8c1.9,0.4,3.7,1.4,4.8,3.4c2.8,5.4,6.8,9.7,12.1,12.7c2.6,1.5,5,3.3,6.5,6c2.5,4.4,4.6,8.9,5.4,13.9
				c0.3,1.7,0.9,3.3,1.5,4.9c1.2,3.1,6.6,2.2,7,1.9c1.2-0.6,2.5-0.9,3.5-1.7c2.6-2,3.3-5,3.4-8c0.2-5.2-0.6-10.3-2.1-15.2
				c-0.9-2.9-2.1-5.8-3.1-8.6c-0.2-0.4-0.3-0.9-0.4-1.5c0.6-0.1,1.1-0.1,1.5-0.2c2.6-0.3,5.2-0.6,7.7-0.9c3.6-0.5,7.2-0.9,10.8-1.4
				c2.6-0.3,5.2-0.6,7.7-1c1.1-0.2,2.2-0.3,3.1-0.8c4.3-2.3,6-8.2,2.5-12.3c-1.1-1.3-2.8-2.1-4.3-3.1c3.6-1.7,6.2-4.5,5.4-8.9
				c-0.7-4.2-3.9-6.4-8.1-7c0.8-0.5,1.4-0.7,2-1c4.5-2.7,4.3-9.7,0.1-12.6c-2.3-1.6-4.8-1.8-7.4-1.6c-0.5,0-1,0-1.7,0
				c3.2-3.3,2.9-4.1,2.9-6.5c0-3-1.5-5.5-4.4-6C27,177,8.3,177.6,8.3,177.6z"/>
		</g>
	</g>
	<g id="XMLID_7_">
		<g id="XMLID_26_">
			<path class="st7" d="M3.3,172.6c-4.9,0.6-9.7,1-14.6,1.9c-3.1,0.6-6.1,1.6-9,2.8c-3.3,1.3-6.6,2.7-10.3,2.6
				c-2.1-0.1-4.2-0.1-6.3,0c-1,0-2.1,0.1-3,0.5c-2.5,1-3.1,3.4-3.1,5.7c-0.1,11.3-0.1,22.6,0,33.9c0,1.5,0.4,3.1,1.1,4.3
				c1.2,2.2,3.3,3,5.7,3.2c2.7,0.2,5.4,0.3,8,0.8c1.9,0.4,3.7,1.4,4.8,3.4c2.8,5.4,6.8,9.7,12.1,12.7c2.6,1.5,5,3.3,6.5,6
				c2.5,4.4,4.6,8.9,5.4,13.9c0.3,1.7,0.9,3.3,1.5,4.9c1.2,3.1,6.6,2.2,7,1.9c1.2-0.6,2.5-0.9,3.5-1.7c2.6-2,3.3-5,3.4-8
				c0.2-5.2-0.6-10.3-2.1-15.2c-0.9-2.9-2.1-5.8-3.1-8.6c-0.2-0.4-0.3-0.9-0.4-1.5c0.6-0.1,1.1-0.1,1.5-0.2c2.6-0.3,5.2-0.6,7.7-0.9
				c3.6-0.5,7.2-0.9,10.8-1.4c2.6-0.3,5.2-0.6,7.7-1c1.1-0.2,2.2-0.3,3.1-0.8c4.3-2.3,6-8.2,2.5-12.3c-1.1-1.3-2.8-2.1-4.3-3.1
				c3.6-1.7,6.2-4.5,5.4-8.9c-0.7-4.2-3.9-6.4-8.1-7c0.8-0.5,1.4-0.7,2-1c4.5-2.7,4.3-9.7,0.1-12.6c-2.3-1.6-4.8-1.8-7.4-1.6
				c-0.5,0-1,0-1.7,0c3.2-3.3,2.9-4.1,2.9-6.5c0-3-1.5-5.5-4.4-6C22,172,3.3,172.6,3.3,172.6z"/>
		</g>
	</g>
</g>
</svg>
