<?xml version="1.0" encoding="utf-8"?>
<!-- Generator: Adobe Illustrator 19.0.0, SVG Export Plug-In . SVG Version: 6.00 Build 0)  -->
<svg version="1.1" id="Layer_1" xmlns="http://www.w3.org/2000/svg" xmlns:xlink="http://www.w3.org/1999/xlink" x="0px" y="0px"
	 width="98.2px" height="109px" viewBox="-450 446 98.2 109" style="enable-background:new -450 446 98.2 109;"
	 xml:space="preserve">
<style type="text/css">
	.st0{opacity:0.3;}
	.st1{fill:#FBB040;}
</style>
<g id="MU8G1F_1_">
	<g id="XMLID_15_" class="st0">
		<g id="XMLID_18_">
			<path d="M-405.6,446.4c5.1,0.7,10.2,1.1,15.3,2c3.2,0.6,6.4,1.7,9.5,2.9c3.5,1.4,6.9,2.8,10.8,2.7c2.2-0.1,4.4-0.1,6.7,0
				c1.1,0,2.2,0.1,3.1,0.5c2.7,1.1,3.2,3.5,3.3,6c0.1,11.9,0.1,23.8,0,35.6c0,1.5-0.5,3.2-1.2,4.6c-1.2,2.3-3.4,3.2-6,3.3
				c-2.8,0.2-5.6,0.3-8.4,0.9c-2,0.4-3.9,1.5-5,3.5c-2.9,5.7-7.1,10.2-12.7,13.3c-2.7,1.6-5.2,3.4-6.8,6.3
				c-2.6,4.6-4.8,9.4-5.7,14.6c-0.3,1.7-0.9,3.5-1.6,5.1c-1.2,3.3-6.9,2.3-7.4,2c-1.2-0.6-2.6-1-3.7-1.8c-2.7-2.1-3.5-5.2-3.6-8.4
				c-0.2-5.4,0.6-10.8,2.2-15.9c1-3.1,2.2-6,3.3-9.1c0.2-0.5,0.3-0.9,0.5-1.6c-0.7-0.1-1.1-0.1-1.6-0.2c-2.7-0.3-5.4-0.6-8.1-1
				c-3.8-0.5-7.5-1-11.3-1.5c-2.7-0.3-5.4-0.6-8.1-1c-1.1-0.2-2.3-0.3-3.3-0.8c-4.5-2.4-6.3-8.6-2.6-12.9c1.2-1.3,2.9-2.2,4.5-3.3
				c-3.7-1.7-6.5-4.7-5.7-9.3c0.8-4.4,4-6.7,8.5-7.3c-0.8-0.5-1.5-0.7-2.1-1.1c-4.7-2.8-4.5-10.2-0.1-13.3c2.4-1.7,5-1.8,7.8-1.7
				c0.5,0,1,0,1.8,0c-3.4-3.5-3.1-4.3-3.1-6.9c0-3.1,1.6-5.8,4.6-6.3C-425.2,445.7-405.6,446.4-405.6,446.4z"/>
		</g>
	</g>
	<g id="XMLID_4_">
		<g id="XMLID_12_">
			<path class="st1" d="M-400.6,451.4c5.1,0.7,10.2,1.1,15.3,2c3.2,0.6,6.4,1.7,9.5,2.9c3.5,1.4,6.9,2.8,10.8,2.7
				c2.2-0.1,4.4-0.1,6.7,0c1.1,0,2.2,0.1,3.1,0.5c2.7,1.1,3.2,3.5,3.3,6c0.1,11.9,0.1,23.8,0,35.6c0,1.5-0.5,3.2-1.2,4.6
				c-1.2,2.3-3.4,3.2-6,3.3c-2.8,0.2-5.6,0.3-8.4,0.9c-2,0.4-3.9,1.5-5,3.5c-2.9,5.7-7.1,10.2-12.7,13.3c-2.7,1.6-5.2,3.4-6.8,6.3
				c-2.6,4.6-4.8,9.4-5.7,14.6c-0.3,1.7-0.9,3.5-1.6,5.1c-1.2,3.3-6.9,2.3-7.4,2c-1.2-0.6-2.6-1-3.7-1.8c-2.7-2.1-3.5-5.2-3.6-8.4
				c-0.2-5.4,0.6-10.8,2.2-15.9c1-3.1,2.2-6,3.3-9.1c0.2-0.5,0.3-0.9,0.5-1.6c-0.7-0.1-1.1-0.1-1.6-0.2c-2.7-0.3-5.4-0.6-8.1-1
				c-3.8-0.5-7.5-1-11.3-1.5c-2.7-0.3-5.4-0.6-8.1-1c-1.1-0.2-2.3-0.3-3.3-0.8c-4.5-2.4-6.3-8.6-2.6-12.9c1.2-1.3,2.9-2.2,4.5-3.3
				c-3.7-1.7-6.5-4.7-5.7-9.3c0.8-4.4,4-6.7,8.5-7.3c-0.8-0.5-1.5-0.7-2.1-1.1c-4.7-2.8-4.5-10.2-0.1-13.3c2.4-1.7,5-1.8,7.8-1.7
				c0.5,0,1,0,1.8,0c-3.4-3.5-3.1-4.3-3.1-6.9c0-3.1,1.6-5.8,4.6-6.3C-420.2,450.7-400.6,451.4-400.6,451.4z"/>
		</g>
	</g>
</g>
</svg>
