<?xml version="1.0" encoding="utf-8"?>
<!-- Generator: Adobe Illustrator 19.0.0, SVG Export Plug-In . SVG Version: 6.00 Build 0)  -->
<svg version="1.1" id="Layer_1" xmlns="http://www.w3.org/2000/svg" xmlns:xlink="http://www.w3.org/1999/xlink" x="0px" y="0px"
	 viewBox="0 0 98.2 109" style="enable-background:new 0 0 98.2 109;" xml:space="preserve">
<style type="text/css">
	.st0{opacity:0.3;}
	.st1{fill:#FBB040;}
</style>
<g id="MU8G1F_1_">
	<g id="XMLID_15_" class="st0">
		<g id="XMLID_18_">
			<path d="M53.8,108.7c-5.1-0.7-10.2-1.1-15.3-2c-3.2-0.6-6.4-1.7-9.5-2.9c-3.5-1.4-6.9-2.8-10.8-2.7c-2.2,0.1-4.4,0.1-6.7,0
				c-1.1,0-2.2-0.1-3.1-0.5c-2.7-1.1-3.2-3.5-3.3-6C5,82.7,5,70.8,5.1,59c0-1.5,0.5-3.2,1.2-4.6c1.2-2.3,3.4-3.2,6-3.3
				c2.8-0.2,5.6-0.3,8.4-0.9c2-0.4,3.9-1.5,5-3.5c2.9-5.7,7.1-10.2,12.7-13.3c2.7-1.6,5.2-3.4,6.8-6.3c2.6-4.6,4.8-9.4,5.7-14.6
				c0.3-1.7,0.9-3.5,1.6-5.1c1.2-3.3,6.9-2.3,7.4-2c1.2,0.6,2.6,1,3.7,1.8c2.7,2.1,3.5,5.2,3.6,8.4c0.2,5.4-0.6,10.8-2.2,15.9
				c-1,3.1-2.2,6-3.3,9.1c-0.2,0.5-0.3,0.9-0.5,1.6c0.7,0.1,1.1,0.1,1.6,0.2c2.7,0.3,5.4,0.6,8.1,1c3.8,0.5,7.5,1,11.3,1.5
				c2.7,0.3,5.4,0.6,8.1,1c1.1,0.2,2.3,0.3,3.3,0.8c4.5,2.4,6.3,8.6,2.6,12.9c-1.2,1.3-2.9,2.2-4.5,3.3c3.7,1.7,6.5,4.7,5.7,9.3
				c-0.8,4.4-4,6.7-8.5,7.3c0.8,0.5,1.5,0.7,2.1,1.1c4.7,2.8,4.5,10.2,0.1,13.3c-2.4,1.7-5,1.8-7.8,1.7c-0.5,0-1,0-1.8,0
				c3.4,3.5,3.1,4.3,3.1,6.9c0,3.1-1.6,5.8-4.6,6.3C73.4,109.4,53.8,108.7,53.8,108.7z"/>
		</g>
	</g>
	<g id="XMLID_4_">
		<g id="XMLID_12_">
			<path class="st1" d="M48.8,103.7c-5.1-0.7-10.2-1.1-15.3-2c-3.2-0.6-6.4-1.7-9.5-2.9c-3.5-1.4-6.9-2.8-10.8-2.7
				c-2.2,0.1-4.4,0.1-6.7,0c-1.1,0-2.2-0.1-3.1-0.5c-2.7-1.1-3.2-3.5-3.3-6C0,77.7,0,65.8,0.1,54c0-1.5,0.5-3.2,1.2-4.6
				c1.2-2.3,3.4-3.2,6-3.3c2.8-0.2,5.6-0.3,8.4-0.9c2-0.4,3.9-1.5,5-3.5c2.9-5.7,7.1-10.2,12.7-13.3c2.7-1.6,5.2-3.4,6.8-6.3
				c2.6-4.6,4.8-9.4,5.7-14.6c0.3-1.7,0.9-3.5,1.6-5.1c1.2-3.3,6.9-2.3,7.4-2c1.2,0.6,2.6,1,3.7,1.8c2.7,2.1,3.5,5.2,3.6,8.4
				c0.2,5.4-0.6,10.8-2.2,15.9c-1,3.1-2.2,6-3.3,9.1c-0.2,0.5-0.3,0.9-0.5,1.6c0.7,0.1,1.1,0.1,1.6,0.2c2.7,0.3,5.4,0.6,8.1,1
				c3.8,0.5,7.5,1,11.3,1.5c2.7,0.3,5.4,0.6,8.1,1c1.1,0.2,2.3,0.3,3.3,0.8c4.5,2.4,6.3,8.6,2.6,12.9c-1.2,1.3-2.9,2.2-4.5,3.3
				c3.7,1.7,6.5,4.7,5.7,9.3c-0.8,4.4-4,6.7-8.5,7.3c0.8,0.5,1.5,0.7,2.1,1.1c4.7,2.8,4.5,10.2,0.1,13.3c-2.4,1.7-5,1.8-7.8,1.7
				c-0.5,0-1,0-1.8,0c3.4,3.5,3.1,4.3,3.1,6.9c0,3.1-1.6,5.8-4.6,6.3C68.4,104.4,48.8,103.7,48.8,103.7z"/>
		</g>
	</g>
</g>
</svg>
