<?xml version="1.0" encoding="utf-8"?>
<!-- Generator: Adobe Illustrator 19.0.0, SVG Export Plug-In . SVG Version: 6.00 Build 0)  -->
<svg version="1.1" id="Layer_1" xmlns="http://www.w3.org/2000/svg" xmlns:xlink="http://www.w3.org/1999/xlink" x="0px" y="0px"
	 viewBox="0 0 2473.7 90.3" style="enable-background:new 0 0 2473.7 90.3;" xml:space="preserve">
<style type="text/css">
	.st0{fill:#532C18;}
	.st1{fill:#93C53F;}
</style>
<g id="XMLID_184_">
	<path id="XMLID_186_" class="st0" d="M30.8,47.9c2.4,25.5,11.1,41.4,11.1,41.4l-23.5,1c7.5-16.5,7.5-28.2,6.9-41.1
		C24.5,36.4,30.8,47.9,30.8,47.9z"/>
	<circle id="XMLID_185_" class="st1" cx="28.9" cy="28.9" r="28.9"/>
</g>
<g id="XMLID_181_">
	<path id="XMLID_183_" class="st0" d="M484.6,57.1c1.8,20,8.7,32.4,8.7,32.4l-18.4,0.8c5.9-12.9,5.9-22.1,5.4-32.1
		C479.7,48.1,484.6,57.1,484.6,57.1z"/>
	<circle id="XMLID_182_" class="st1" cx="483.2" cy="42.2" r="22.6"/>
</g>
<g id="XMLID_178_">
	<path id="XMLID_180_" class="st0" d="M653.6,57.1c1.8,20,8.7,32.4,8.7,32.4l-18.4,0.8c5.9-12.9,5.9-22.1,5.4-32.1
		S653.6,57.1,653.6,57.1z"/>
	<circle id="XMLID_179_" class="st1" cx="652.2" cy="42.2" r="22.6"/>
</g>
<g id="XMLID_175_">
	<path id="XMLID_177_" class="st0" d="M873.6,47.9c2.4,25.5,11.1,41.4,11.1,41.4l-23.5,1c7.5-16.5,7.5-28.2,6.9-41.1
		S873.6,47.9,873.6,47.9z"/>
	<circle id="XMLID_176_" class="st1" cx="871.7" cy="28.9" r="28.9"/>
</g>
<g id="XMLID_172_">
	<path id="XMLID_174_" class="st0" d="M971.7,57.1c1.8,20,8.7,32.4,8.7,32.4l-18.4,0.8c5.9-12.9,5.9-22.1,5.4-32.1
		S971.7,57.1,971.7,57.1z"/>
	<circle id="XMLID_173_" class="st1" cx="970.2" cy="42.2" r="22.6"/>
</g>
<g id="XMLID_168_">
	<path id="XMLID_171_" class="st0" d="M1319.1,47.9c2.4,25.5,11.1,41.4,11.1,41.4l-23.5,1c7.5-16.5,7.5-28.2,6.9-41.1
		C1312.8,36.4,1319.1,47.9,1319.1,47.9z"/>
	<circle id="XMLID_170_" class="st1" cx="1317.2" cy="28.9" r="28.9"/>
</g>
<g id="XMLID_102_">
	<path id="XMLID_134_" class="st0" d="M1380.7,57.1c1.8,20,8.7,32.4,8.7,32.4l-18.4,0.8c5.9-12.9,5.9-22.1,5.4-32.1
		C1375.8,48.1,1380.7,57.1,1380.7,57.1z"/>
	<circle id="XMLID_132_" class="st1" cx="1379.2" cy="42.2" r="22.6"/>
</g>
<g id="XMLID_99_">
	<path id="XMLID_101_" class="st0" d="M1594.7,57.1c1.8,20,8.7,32.4,8.7,32.4l-18.4,0.8c5.9-12.9,5.9-22.1,5.4-32.1
		C1589.8,48.1,1594.7,57.1,1594.7,57.1z"/>
	<circle id="XMLID_100_" class="st1" cx="1593.3" cy="42.2" r="22.6"/>
</g>
</svg>
