<?xml version="1.0" encoding="utf-8"?>
<!-- Generator: Adobe Illustrator 19.0.0, SVG Export Plug-In . SVG Version: 6.00 Build 0)  -->
<svg version="1.1" id="Layer_1" xmlns="http://www.w3.org/2000/svg" xmlns:xlink="http://www.w3.org/1999/xlink" x="0px" y="0px"
	 viewBox="0 0 63.4 143.4" style="enable-background:new 0 0 63.4 143.4;" xml:space="preserve">
<style type="text/css">
	.st0{fill:#FFFFFF;}
	.st1{fill:#F27E90;}
</style>
<g id="XMLID_369_">
	<g id="XMLID_374_">
		<path id="XMLID_375_" class="st0" d="M44.8,13.1c0,7.2-5.9,13.1-13.1,13.1c-7.2,0-13.1-5.9-13.1-13.1S24.5,0,31.7,0
			C39,0,44.8,5.9,44.8,13.1z M63.3,73.6l-7-36.4c-0.3-1.3-0.8-2.5-1.5-3.5c-0.6-0.7-1.2-1.3-1.9-1.7c-0.5-0.2-1-0.4-1.7-0.5
			c-2.5-0.7-6-1.1-9.9-1.1H22.2c-3.9,0-7.4,0.4-9.9,1.1c-0.6,0.2-1.2,0.4-1.7,0.5c-0.7,0.4-1.4,1-1.9,1.7c-0.7,0.9-1.3,2.1-1.5,3.5
			l-7,36.4c-0.7,3.7,1.1,7.3,4,8c2.9,0.6,5.9-1.9,6.6-5.6l5.6-29h2.6l-10.1,54c-0.3,1.6,0.7,3,2.3,3h8.8v33.7c0,3.3,2.3,5.9,5.1,5.9
			c2.8,0,5.1-2.7,5.1-5.9v-33.7h3.3v33.7c0,3.3,2.3,5.9,5.1,5.9c2.8,0,5.1-2.7,5.1-5.9v-33.7h8.8c1.5,0,2.6-1.3,2.3-3l-10.1-54h2.6
			l5.6,29c0.7,3.7,3.7,6.3,6.6,5.6C62.2,80.9,64,77.3,63.3,73.6z"/>
	</g>
	<g id="XMLID_370_">
		<path id="XMLID_373_" class="st1" d="M52.7,75.9c0.7,3.7,3.7,6.3,6.6,5.6c2.9-0.6,4.7-4.2,4-8L61.8,66h-11L52.7,75.9z"/>
		<path id="XMLID_372_" class="st1" d="M38.5,143.4c2.8,0,5.1-2.7,5.1-5.9v-33.7h8.8c1.5,0,2.6-1.3,2.3-3L48.1,66H15.3l-6.5,34.9
			c-0.3,1.6,0.7,3,2.3,3h8.8v33.7c0,3.3,2.3,5.9,5.1,5.9c2.8,0,5.1-2.7,5.1-5.9v-33.7h3.3v33.7C33.4,140.7,35.7,143.4,38.5,143.4z"
			/>
		<path id="XMLID_371_" class="st1" d="M4.1,81.5c2.9,0.6,5.9-1.9,6.6-5.6l1.9-9.9h-11l-1.5,7.6C-0.6,77.3,1.2,80.9,4.1,81.5z"/>
	</g>
</g>
</svg>
