<?xml version="1.0" encoding="utf-8"?>
<!-- Generator: Adobe Illustrator 19.0.0, SVG Export Plug-In . SVG Version: 6.00 Build 0)  -->
<svg version="1.1" id="Layer_1" xmlns="http://www.w3.org/2000/svg" xmlns:xlink="http://www.w3.org/1999/xlink" x="0px" y="0px"
	 viewBox="0 0 201.4 309.7" style="enable-background:new 0 0 201.4 309.7;" xml:space="preserve">
<style type="text/css">
	.st0{fill:#FFCE66;}
	.st1{fill:#D7B88E;}
	.st2{fill:#EED4AE;}
	.st3{fill:#63503C;}
	.st4{fill:#F2BD56;}
	.st5{fill:#B15E27;stroke:#B15E27;stroke-width:2;stroke-linecap:round;stroke-miterlimit:10;}
	.st6{fill:#6C62AA;}
</style>
<g id="XMLID_202_">
	<path id="XMLID_238_" class="st0" d="M141.4,296.5c6.5,12.1,22.7,13.2,22.7,13.2h37.3c0,0-17.5-7.2-21.7-25l-25.6-1.5l-12.7,10
		V296.5z"/>
	<g id="XMLID_211_">
		<g id="XMLID_215_">
			<g id="XMLID_218_">
				<path id="XMLID_237_" class="st1" d="M115.8,309.7l-4.3-148.7c-22.8,0-29.2,0-31,0c-0.7,0-0.7,0-0.7,0c-30.4,0-31,0-31,0
					l-4.3,148.7h31.7l4-137.9l4,137.9H115.8z"/>
				<g id="XMLID_233_">
					<g id="XMLID_234_">
						<g id="XMLID_235_">
							<polygon id="XMLID_236_" class="st2" points="69.3,66.4 82.8,66.4 96.2,66.4 114,112 125.4,246.7 34.1,246.7 51.5,112 
															"/>
						</g>
					</g>
				</g>
				<path id="XMLID_232_" class="st1" d="M89.4,84.8l17.7-8.5c6.3,19.4,12,60.7-21.9,93.4c-3.4,3.3-7.2,6.5-11.3,9.6l-22.3-21.5
					C93.1,127.2,90,86.6,89.4,84.8z"/>
				<path id="XMLID_230_" class="st1" d="M47.6,166.5c-3.4,5.6-1.7,12.9,3.9,16.4c5.6,3.4,12.9,1.7,16.4-3.9
					c3.4-5.6,1.7-12.9-3.9-16.4C58.4,159.1,51,160.9,47.6,166.5z"/>
				<path id="XMLID_229_" class="st2" d="M11.6,130.4c50-12.4,42.1-50.7,42.2-52.5c0.6-7.1,6.9-12.4,14-11.8
					c7.1,0.6,12.4,6.8,11.8,13.9c-1.6,20.3-3.9,53.8-47.7,71.1c-4.4,1.7-9.1,3.3-14.1,4.5L11.6,130.4z"/>
				<path id="XMLID_227_" class="st3" d="M88.9,49.8c0,10.2,8.2,18.4,18.4,18.4c10.2,0,18.4-8.2,18.4-18.4
					c0-10.2-8.2-18.4-18.4-18.4C97.1,31.3,88.9,39.6,88.9,49.8z"/>
				<path id="XMLID_226_" class="st4" d="M81.6,79.6c-7.4,0-13.4-6-13.4-13.4V55.6H95v10.6C95,73.6,89,79.6,81.6,79.6z"/>
				<g id="XMLID_224_">
					<path id="XMLID_225_" class="st0" d="M103.1,10.8c-2.8-3.2-6.1-5.7-9.7-7.6c2.5,5.1,3.9,11.1,3.9,17.5c0,0-23.4,9.8-51.5,9.8
						c-0.4,8.1,2.2,16.4,7.9,23c11.8,13.6,32.4,15,46,3.2C113.4,45.1,114.9,24.4,103.1,10.8z"/>
				</g>
				<path id="XMLID_223_" class="st3" d="M66.7,1.9C76.6-1.4,85.6,0,93.4,3.3c3.7,1.6,6.9,4.3,9.7,7.6c8,9.3,11,22.9,7.1,33.7
					C75.8,47.3,66,29.5,66,29.5c-4,9.2-9.3,16.2-15,20.3c-3.7-5.8-5.5-12.5-5.1-19.1C47.3,11.5,58.7,4.5,66.7,1.9z"/>
				<line id="XMLID_222_" class="st5" x1="1" y1="124" x2="151.2" y2="280.1"/>
				<path id="XMLID_220_" class="st0" d="M49.5,169.1c-3.4,5.6-1.7,12.9,3.9,16.4c5.6,3.4,12.9,1.7,16.4-3.9
					c3.4-5.6,1.7-12.9-3.9-16.4C60.2,161.7,52.9,163.5,49.5,169.1z"/>
				<path id="XMLID_219_" class="st2" d="M95.2,67c6.8-2.2,14,1.5,16.2,8.3c6.3,19.4,7.7,61.7-26.2,94.4c-3.4,3.3-7.2,6.5-11.3,9.6
					l-15.3-20.9C100,127.8,87.3,85,86.7,83.2C84.6,76.4,88.4,69.1,95.2,67z"/>
			</g>
			<path id="XMLID_216_" class="st0" d="M1.8,146.7c2.4,6.1,9.3,9.1,15.5,6.7c6.1-2.4,9.1-9.3,6.7-15.4c-2.4-6.1-9.3-9.1-15.5-6.7
				C2.4,133.7-0.6,140.6,1.8,146.7z"/>
		</g>
		<g id="XMLID_212_">
			<path id="XMLID_214_" class="st6" d="M55.6,292.2c-9.6,0-17.4,7.8-17.4,17.4h38L55.6,292.2z"/>
			<path id="XMLID_213_" class="st6" d="M95,292.2c-9.6,0-17.4,7.8-17.4,17.4h38.3L95,292.2z"/>
		</g>
	</g>
	<path id="XMLID_210_" class="st6" d="M147.7,272c2.4,1.2,33.3,12.3,33.3,12.3l-40.6,12.3l1-22.1L147.7,272z"/>
	<path id="XMLID_209_" class="st4" d="M123.5,306.6c0,1.7,1.4,3.1,3.1,3.1c1.7,0,3.1-1.4,3.1-3.1c0-1.7-1.4-3.1-3.1-3.1
		C124.9,303.5,123.5,304.9,123.5,306.6z"/>
	<path id="XMLID_208_" class="st4" d="M159.3,306.6c0,1.7,1.4,3.1,3.1,3.1c1.7,0,3.1-1.4,3.1-3.1c0-1.7-1.4-3.1-3.1-3.1
		C160.6,303.5,159.3,304.9,159.3,306.6z"/>
	<path id="XMLID_207_" class="st4" d="M151.2,306.6c0,1.7,1.4,3.1,3.1,3.1c1.7,0,3.1-1.4,3.1-3.1c0-1.7-1.4-3.1-3.1-3.1
		C152.6,303.5,151.2,304.9,151.2,306.6z"/>
	<path id="XMLID_206_" class="st4" d="M144.1,306.6c0,1.7,1.4,3.1,3.1,3.1c1.7,0,3.1-1.4,3.1-3.1c0-1.7-1.4-3.1-3.1-3.1
		C145.5,303.5,144.1,304.9,144.1,306.6z"/>
	<path id="XMLID_205_" class="st4" d="M145,303.5c0,1.7,1.4,3.1,3.1,3.1c1.7,0,3.1-1.4,3.1-3.1c0-1.7-1.4-3.1-3.1-3.1
		C146.4,300.4,145,301.8,145,303.5z"/>
	<path id="XMLID_204_" class="st4" d="M137.3,305.8c0,1.7,1.4,3.1,3.1,3.1c1.7,0,3.1-1.4,3.1-3.1c0-1.7-1.4-3.1-3.1-3.1
		C138.7,302.7,137.3,304.1,137.3,305.8z"/>
	<path id="XMLID_203_" class="st4" d="M154.3,303.5c0,1.7,1.4,3.1,3.1,3.1c1.7,0,3.1-1.4,3.1-3.1c0-1.7-1.4-3.1-3.1-3.1
		C155.7,300.4,154.3,301.8,154.3,303.5z"/>
</g>
</svg>
