<?xml version="1.0" encoding="utf-8"?>
<!-- Generator: Adobe Illustrator 19.0.0, SVG Export Plug-In . SVG Version: 6.00 Build 0)  -->
<svg version="1.1" id="Layer_1" xmlns="http://www.w3.org/2000/svg" xmlns:xlink="http://www.w3.org/1999/xlink" x="0px" y="0px"
	 viewBox="0 0 395.6 82.1" style="enable-background:new 0 0 395.6 82.1;" xml:space="preserve">
<style type="text/css">
	.st0{fill:#6C62AA;}
	.st1{fill:#FFFFFF;}
</style>
<g id="XMLID_286_">
	<path id="XMLID_349_" class="st0" d="M31.6,25.4v21.3c0,2.2-1.5,4-3.3,4c-1.3,0-2.4-0.9-3-2.2c-0.2-0.5-0.3-1.1-0.3-1.8V25.4h-1.3
		l0,52.8c0,2.1-1.6,3.9-3.6,3.9c-2,0-3.6-1.7-3.6-3.9V50.5h-1.1v27.7c0,2.1-1.6,3.9-3.6,3.9c-2,0-3.6-1.7-3.6-3.9c0,0,0-29.5,0-29.5
		V25.4H6.7v21.3c0,0.6-0.1,1.2-0.3,1.8c-0.5,1.3-1.7,2.2-3,2.2c-1.8,0-3.3-1.8-3.3-4V25.4c0-0.2,0-0.4,0-0.6
		c0.3-4.1,3.7-7.4,7.9-7.5c0,0,0.1,0,0.1,0h15.5c0,0,0.1,0,0.1,0c4.2,0,7.6,3.3,7.9,7.5v0C31.6,25.1,31.6,25.2,31.6,25.4z M15.8,0
		c-4.1,0-7.5,3.4-7.5,7.5c0,4.1,3.4,7.5,7.5,7.5c4.1,0,7.5-3.4,7.5-7.5C23.3,3.4,19.9,0,15.8,0z"/>
	<path id="XMLID_341_" class="st0" d="M71.7,25.4v21.3c0,2.2-1.5,4-3.3,4c-1.3,0-2.4-0.9-3-2.2C65.1,48,65,47.4,65,46.7V25.4h-1.3
		l0,52.8c0,2.1-1.6,3.9-3.6,3.9c-2,0-3.6-1.7-3.6-3.9V50.5h-1.1v27.7c0,2.1-1.6,3.9-3.6,3.9c-2,0-3.6-1.7-3.6-3.9c0,0,0-29.5,0-29.5
		V25.4h-1.3v21.3c0,0.6-0.1,1.2-0.3,1.8c-0.5,1.3-1.7,2.2-3,2.2c-1.8,0-3.3-1.8-3.3-4V25.4c0-0.2,0-0.4,0-0.6
		c0.3-4.1,3.7-7.4,7.9-7.5c0,0,0.1,0,0.1,0h15.5c0,0,0.1,0,0.1,0c4.2,0,7.6,3.3,7.9,7.5v0C71.7,25.1,71.7,25.2,71.7,25.4z M55.9,0
		c-4.1,0-7.5,3.4-7.5,7.5c0,4.1,3.4,7.5,7.5,7.5c4.1,0,7.5-3.4,7.5-7.5C63.4,3.4,60,0,55.9,0z"/>
	<path id="XMLID_333_" class="st0" d="M111.8,25.4v21.3c0,2.2-1.5,4-3.3,4c-1.3,0-2.4-0.9-3-2.2c-0.2-0.5-0.3-1.1-0.3-1.8V25.4h-1.3
		l0,52.8c0,2.1-1.6,3.9-3.6,3.9c-2,0-3.6-1.7-3.6-3.9V50.5h-1.1v27.7c0,2.1-1.6,3.9-3.6,3.9c-2,0-3.6-1.7-3.6-3.9c0,0,0-29.5,0-29.5
		V25.4h-1.3v21.3c0,0.6-0.1,1.2-0.3,1.8c-0.5,1.3-1.7,2.2-3,2.2c-1.8,0-3.3-1.8-3.3-4V25.4c0-0.2,0-0.4,0-0.6
		c0.3-4.1,3.7-7.4,7.9-7.5c0,0,0.1,0,0.1,0h15.5c0,0,0.1,0,0.1,0c4.2,0,7.6,3.3,7.9,7.5v0C111.8,25.1,111.8,25.2,111.8,25.4z M96,0
		c-4.1,0-7.5,3.4-7.5,7.5c0,4.1,3.4,7.5,7.5,7.5c4.1,0,7.5-3.4,7.5-7.5C103.5,3.4,100.1,0,96,0z"/>
	<path id="XMLID_325_" class="st0" d="M151.9,25.4v21.3c0,2.2-1.5,4-3.3,4c-1.3,0-2.4-0.9-3-2.2c-0.2-0.5-0.3-1.1-0.3-1.8V25.4h-1.3
		l0,52.8c0,2.1-1.6,3.9-3.6,3.9c-2,0-3.6-1.7-3.6-3.9V50.5h-1.1v27.7c0,2.1-1.6,3.9-3.6,3.9c-2,0-3.6-1.7-3.6-3.9c0,0,0-29.5,0-29.5
		V25.4H127v21.3c0,0.6-0.1,1.2-0.3,1.8c-0.5,1.3-1.7,2.2-3,2.2c-1.8,0-3.3-1.8-3.3-4V25.4c0-0.2,0-0.4,0-0.6
		c0.3-4.1,3.7-7.4,7.9-7.5c0,0,0.1,0,0.1,0h15.5c0,0,0.1,0,0.1,0c4.2,0,7.6,3.3,7.9,7.5v0C151.9,25.1,151.9,25.2,151.9,25.4z
		 M136.1,0c-4.1,0-7.5,3.4-7.5,7.5c0,4.1,3.4,7.5,7.5,7.5c4.1,0,7.5-3.4,7.5-7.5C143.6,3.4,140.2,0,136.1,0z"/>
	<path id="XMLID_317_" class="st0" d="M192,25.4v21.3c0,2.2-1.5,4-3.3,4c-1.3,0-2.4-0.9-3-2.2c-0.2-0.5-0.3-1.1-0.3-1.8V25.4H184
		l0,52.8c0,2.1-1.6,3.9-3.6,3.9c-2,0-3.6-1.7-3.6-3.9V50.5h-1.1v27.7c0,2.1-1.6,3.9-3.6,3.9c-2,0-3.6-1.7-3.6-3.9c0,0,0-29.5,0-29.5
		V25.4h-1.3v21.3c0,0.6-0.1,1.2-0.3,1.8c-0.5,1.3-1.7,2.2-3,2.2c-1.8,0-3.3-1.8-3.3-4V25.4c0-0.2,0-0.4,0-0.6
		c0.3-4.1,3.7-7.4,7.9-7.5c0,0,0.1,0,0.1,0h15.5c0,0,0.1,0,0.1,0c4.2,0,7.6,3.3,7.9,7.5v0C192,25.1,192,25.2,192,25.4z M176.2,0
		c-4.1,0-7.5,3.4-7.5,7.5c0,4.1,3.4,7.5,7.5,7.5c4.1,0,7.5-3.4,7.5-7.5C183.7,3.4,180.3,0,176.2,0z"/>
	<g id="XMLID_131_">
		<path id="XMLID_309_" class="st0" d="M235.2,25.4v21.3c0,2.2-1.5,4-3.3,4c-1.3,0-2.4-0.9-3-2.2c-0.2-0.5-0.3-1.1-0.3-1.8V25.4
			h-1.3l0,52.8c0,2.1-1.6,3.9-3.6,3.9c-2,0-3.6-1.7-3.6-3.9V50.5h-1.1v27.7c0,2.1-1.6,3.9-3.6,3.9c-2,0-3.6-1.7-3.6-3.9
			c0,0,0-29.5,0-29.5V25.4h-1.3v21.3c0,0.6-0.1,1.2-0.3,1.8c-0.5,1.3-1.7,2.2-3,2.2c-1.8,0-3.3-1.8-3.3-4V25.4c0-0.2,0-0.4,0-0.6
			c0.3-4.1,3.7-7.4,7.9-7.5c0,0,0.1,0,0.1,0h15.5c0,0,0.1,0,0.1,0c4.2,0,7.6,3.3,7.9,7.5v0C235.2,25.1,235.2,25.2,235.2,25.4z
			 M219.4,0c-4.1,0-7.5,3.4-7.5,7.5c0,4.1,3.4,7.5,7.5,7.5c4.1,0,7.5-3.4,7.5-7.5C226.9,3.4,223.6,0,219.4,0z"/>
		<path id="XMLID_301_" class="st0" d="M275.3,25.4v21.3c0,2.2-1.5,4-3.3,4c-1.3,0-2.4-0.9-3-2.2c-0.2-0.5-0.3-1.1-0.3-1.8V25.4
			h-1.3l0,52.8c0,2.1-1.6,3.9-3.6,3.9c-2,0-3.6-1.7-3.6-3.9V50.5h-1.1v27.7c0,2.1-1.6,3.9-3.6,3.9c-2,0-3.6-1.7-3.6-3.9
			c0,0,0-29.5,0-29.5V25.4h-1.3v21.3c0,0.6-0.1,1.2-0.3,1.8c-0.5,1.3-1.7,2.2-3,2.2c-1.8,0-3.3-1.8-3.3-4V25.4c0-0.2,0-0.4,0-0.6
			c0.3-4.1,3.7-7.4,7.9-7.5c0,0,0.1,0,0.1,0h15.5c0,0,0.1,0,0.1,0c4.2,0,7.6,3.3,7.9,7.5v0C275.3,25.1,275.3,25.2,275.3,25.4z
			 M259.5,0c-4.1,0-7.5,3.4-7.5,7.5c0,4.1,3.4,7.5,7.5,7.5c4.1,0,7.5-3.4,7.5-7.5C267,3.4,263.6,0,259.5,0z"/>
		<path id="XMLID_293_" class="st0" d="M315.4,25.4v21.3c0,2.2-1.5,4-3.3,4c-1.3,0-2.4-0.9-3-2.2c-0.2-0.5-0.3-1.1-0.3-1.8V25.4
			h-1.3l0,52.8c0,2.1-1.6,3.9-3.6,3.9c-2,0-3.6-1.7-3.6-3.9V50.5H299v27.7c0,2.1-1.6,3.9-3.6,3.9c-2,0-3.6-1.7-3.6-3.9
			c0,0,0-29.5,0-29.5V25.4h-1.3v21.3c0,0.6-0.1,1.2-0.3,1.8c-0.5,1.3-1.7,2.2-3,2.2c-1.8,0-3.3-1.8-3.3-4V25.4c0-0.2,0-0.4,0-0.6
			c0.3-4.1,3.7-7.4,7.9-7.5c0,0,0.1,0,0.1,0h15.5c0,0,0.1,0,0.1,0c4.2,0,7.6,3.3,7.9,7.5v0C315.4,25.1,315.4,25.2,315.4,25.4z
			 M299.6,0c-4.1,0-7.5,3.4-7.5,7.5c0,4.1,3.4,7.5,7.5,7.5c4.1,0,7.5-3.4,7.5-7.5C307.1,3.4,303.7,0,299.6,0z"/>
		<path id="XMLID_290_" class="st1" d="M355.5,25.4v21.3c0,2.2-1.5,4-3.3,4c-1.3,0-2.4-0.9-3-2.2c-0.2-0.5-0.3-1.1-0.3-1.8V25.4
			h-1.3l0,52.8c0,2.1-1.6,3.9-3.6,3.9c-2,0-3.6-1.7-3.6-3.9V50.5h-1.1v27.7c0,2.1-1.6,3.9-3.6,3.9c-2,0-3.6-1.7-3.6-3.9
			c0,0,0-29.5,0-29.5V25.4h-1.3v21.3c0,0.6-0.1,1.2-0.3,1.8c-0.5,1.3-1.7,2.2-3,2.2c-1.8,0-3.3-1.8-3.3-4V25.4c0-0.2,0-0.4,0-0.6
			c0.3-4.1,3.7-7.4,7.9-7.5c0,0,0.1,0,0.1,0h15.5c0,0,0.1,0,0.1,0c4.2,0,7.6,3.3,7.9,7.5v0C355.5,25.1,355.5,25.2,355.5,25.4z
			 M339.7,0c-4.1,0-7.5,3.4-7.5,7.5c0,4.1,3.4,7.5,7.5,7.5c4.1,0,7.5-3.4,7.5-7.5C347.2,3.4,343.8,0,339.7,0z"/>
		<path id="XMLID_287_" class="st1" d="M395.6,25.4v21.3c0,2.2-1.5,4-3.3,4c-1.3,0-2.4-0.9-3-2.2c-0.2-0.5-0.3-1.1-0.3-1.8V25.4
			h-1.3l0,52.8c0,2.1-1.6,3.9-3.6,3.9c-2,0-3.6-1.7-3.6-3.9V50.5h-1.1v27.7c0,2.1-1.6,3.9-3.6,3.9c-2,0-3.6-1.7-3.6-3.9
			c0,0,0-29.5,0-29.5V25.4h-1.3v21.3c0,0.6-0.1,1.2-0.3,1.8c-0.5,1.3-1.7,2.2-3,2.2c-1.8,0-3.3-1.8-3.3-4V25.4c0-0.2,0-0.4,0-0.6
			c0.3-4.1,3.7-7.4,7.9-7.5c0,0,0.1,0,0.1,0h15.5c0,0,0.1,0,0.1,0c4.2,0,7.6,3.3,7.9,7.5v0C395.6,25.1,395.6,25.2,395.6,25.4z
			 M379.8,0c-4.1,0-7.5,3.4-7.5,7.5c0,4.1,3.4,7.5,7.5,7.5c4.1,0,7.5-3.4,7.5-7.5C387.3,3.4,383.9,0,379.8,0z"/>
	</g>
</g>
</svg>
