<?xml version="1.0" encoding="utf-8"?>
<!-- Generator: Adobe Illustrator 19.0.0, SVG Export Plug-In . SVG Version: 6.00 Build 0)  -->
<svg version="1.1" id="Layer_1" xmlns="http://www.w3.org/2000/svg" xmlns:xlink="http://www.w3.org/1999/xlink" x="0px" y="0px"
	 viewBox="0 0 55.2 143.4" style="enable-background:new 0 0 55.2 143.4;" xml:space="preserve">
<style type="text/css">
	.st0{fill:#FFFFFF;}
	.st1{fill:#57B8C4;}
</style>
<g id="XMLID_358_">
	<g id="XMLID_363_">
		<g id="XMLID_364_">
			<path id="XMLID_368_" class="st0" d="M9.8,70.8c0,0.3,0,0.7,0,1v-0.2C9.8,71.3,9.8,71.1,9.8,70.8z"/>
			<path id="XMLID_365_" class="st0" d="M55.2,44.4v37.2c0,3.9-2.6,7-5.8,7c-2.3,0-4.3-1.6-5.2-3.9c-0.4-0.9-0.6-2-0.6-3.1V44.4
				h-2.3l0,92.3c0,3.7-2.9,6.7-6.3,6.7c-3.5,0-6.3-3-6.3-6.7V88.2h-1.9v48.4c0,3.7-2.9,6.7-6.3,6.7c-3.5,0-6.3-3-6.3-6.7
				c0,0,0-51.5,0-51.5V44.4h-2.3v37.3c0,1.1-0.2,2.2-0.6,3.1c-1,2.3-2.9,3.9-5.2,3.9c-3.2,0-5.8-3.2-5.8-7V44.4c0-0.3,0-0.7,0-1
				c0.5-7.2,6.5-13,13.9-13.1c0.1,0,0.1,0,0.2,0h27c0.1,0,0.1,0,0.2,0c7.3,0.1,13.4,5.8,13.9,13.1c0,0,0,0,0,0
				C55.2,43.8,55.2,44.1,55.2,44.4z M27.6,0c-7.2,0-13.1,5.9-13.1,13.1c0,7.2,5.9,13.1,13.1,13.1c7.2,0,13.1-5.9,13.1-13.1
				C40.7,5.9,34.8,0,27.6,0z"/>
		</g>
	</g>
	<g id="XMLID_359_">
		<path id="XMLID_362_" class="st1" d="M0,77.4v4.2c0,3.9,2.6,7,5.8,7c2.3,0,4.3-1.6,5.2-3.9c0.4-0.9,0.6-2,0.6-3.1v-4.2H0z"/>
		<path id="XMLID_361_" class="st1" d="M43.5,77.4v4.2c0,1.1,0.2,2.2,0.6,3.1c1,2.3,2.9,3.9,5.2,3.9c3.2,0,5.8-3.2,5.8-7v-4.2H43.5z
			"/>
		<path id="XMLID_360_" class="st1" d="M41.3,136.7l0-59.2H13.9v7.6c0.1,0,0,51.5,0,51.5c0,3.7,2.9,6.7,6.3,6.7c3.5,0,6.3-3,6.3-6.7
			V88.2h1.9v48.5c0,3.7,2.9,6.7,6.3,6.7C38.4,143.4,41.3,140.4,41.3,136.7z"/>
	</g>
</g>
</svg>
