<?xml version="1.0" encoding="utf-8"?>
<!-- Generator: Adobe Illustrator 19.0.0, SVG Export Plug-In . SVG Version: 6.00 Build 0)  -->
<svg version="1.1" id="Layer_1" xmlns="http://www.w3.org/2000/svg" xmlns:xlink="http://www.w3.org/1999/xlink" x="0px" y="0px"
	 viewBox="0 0 141.4 175.5" style="enable-background:new 0 0 141.4 175.5;" xml:space="preserve">
<style type="text/css">
	.st0{fill:#FFFFFF;}
	.st1{fill:#272016;}
	.st2{fill:#333333;}
	.st3{fill:#4D4E4E;}
	.st4{fill:#57B8C4;}
</style>
<path id="XMLID_384_" class="st0" d="M51.3,7.2c0,0.2,0,0.4,0,0.7V7.7C51.3,7.6,51.3,7.4,51.3,7.2z"/>
<g id="XMLID_189_">
	<path id="XMLID_190_" class="st0" d="M141.4,167.1c0-1.6-0.3-3-0.7-4.4c0.2-1,0.3-2,0.3-3c0-8.5-6.7-15.4-15-15.8l-0.1-24.9
		c0,0,0.7-3.8-1.6-6.9c-3.2-4.2-7.9-4.3-7.9-4.3h-12.7V96.8h5c1.1,0.3,2.3,0.3,3.4,0h2.4v-1c1.3-0.8,2.3-2,2.9-3.5
		c1.6-3.9-0.3-8.3-4.2-9.8c-0.6-0.2-1.2-0.4-1.8-0.5l0.2-0.3c-8.1-3.8-13.7-8-17.5-11.7c-0.4-7.7-4.3-14.4-9.9-18.3
		c5.2-2.6,9.1-7.6,10.1-13.8c1.8-10.4-5.2-20.3-15.6-22c-10.4-1.8-20.3,5.2-22,15.6c-1.3,7.5,2,14.7,7.8,18.8
		c-7.2,3.6-12.2,11.5-12.3,20.6l0,0c0,0.2,0,0.4,0,0.6l0.1,9.6c-1.4-0.2-2.8-0.3-4.2-0.3V63c0-4.2-3.4-7.7-7.6-7.7H28.8v3.5h11.7
		c2.3,0,4.2,2,4.2,4.3h0v17.8C19.8,82.1,0,102.7,0,127.8c0,25.9,21.1,47,47,47c18.9,0,35.1-11.1,42.6-27.2h10.6v19.5v1.9v1h13.1
		c2.9,3.3,7.1,5.4,11.9,5.4c6,0,11.2-3.4,13.9-8.3H141.4z M108.7,164h-1.8l1.2-0.7C108.3,163.5,108.5,163.7,108.7,164z M94.6,89.6
		c1.9,1.2,4,2.5,6.3,3.7h-6.3L94.6,89.6z M52.7,105.2L52.7,105.2c0.5,12.1,9.5,23,20.3,21.4c-1.3,0.4-2.1,0.5-2.1,0.6h0h-16
		c-0.3-3.7-3.1-6.6-6.7-7.1V96.8h4.4L52.7,105.2z M48.1,135.5c2.8-0.4,5.1-2.3,6.1-4.8h33.5c-0.3,4.7-1.5,9.3-3.3,13.4H48.1V135.5z
		 M94.5,107.9c0.2-1,0.2-2.1,0.3-3.2v0c0-0.2,0-0.4,0-0.6l-0.1-7.2h5.6v11.1H94.5z M52.4,87.3l0.1,5.9h-4.4V87
		C49.6,87,51,87.2,52.4,87.3z M47,168.6c-22.5,0-40.8-18.3-40.8-40.8c0-21.7,17-39.5,38.4-40.7v33.3c-3.1,1-5.4,3.9-5.4,7.4
		c0,3.5,2.3,6.4,5.4,7.4v12.4h1.8h1.7h34.6C75.7,160.2,62.3,168.6,47,168.6z M91.2,144.1c1.6-4.2,2.5-8.7,2.8-13.4h6.2v4.3v9.1H91.2
		z M103.7,167.1v-32.1v-7.8h1.6l-0.1,37.7l0.1-0.1v2.3H103.7z"/>
</g>
<g id="XMLID_166_">
	<g id="XMLID_167_">
		<g id="XMLID_171_">
			<path id="XMLID_174_" class="st1" d="M52.9,17.5l2.5,12.6c1.2,4.7,9.3,6.8,17,4.7l7.1-1.9c7.7-2,15.3-3.2,14.1-7.9L87.9,8.2
				L52.9,17.5z"/>
			<polygon id="XMLID_173_" class="st2" points="103.9,4.3 103.5,3 37.5,20.4 37.8,21.8 74,24.7 			"/>
			<polygon id="XMLID_172_" class="st3" points="103.5,3 67.4,0 37.5,20.4 73.6,23.4 			"/>
		</g>
		<g id="XMLID_169_">
			<path id="XMLID_170_" class="st0" d="M48.5,35c-0.2,0.1-0.5-0.1-0.5-0.3c0,0-0.9-12.1,0.8-13.6c0.7-0.6,20.6-9.6,21.2-10
				c0.2-0.1,0.5-0.1,0.6,0.1c0.1,0.2,0.1,0.5-0.1,0.6c-0.1,0.1-20.5,9.4-21.1,10c-1.2,0.9-0.4,12.7-0.4,12.7
				C48.9,34.7,48.8,35,48.5,35z"/>
		</g>
		<path id="XMLID_168_" class="st0" d="M50.1,37.1c0-0.4,0-1.3,0-1.3c0-1-0.8-1.8-1.8-1.8c-1,0-1.8,0.8-1.8,1.8c0,0,0,0.8,0,1.3
			C46.5,38.1,50.1,38.2,50.1,37.1z"/>
	</g>
</g>
<path id="XMLID_159_" class="st4" d="M105.3,164.9l0.1-0.1v2.3h-1.7v-17.6h-3.5v17.6v1.9v1h13.1c2.9,3.3,7.1,5.4,11.9,5.4
	c6,0,11.2-3.4,13.9-8.3h2.3c0-1.6-0.3-3-0.7-4.4c0.2-1,0.3-2,0.3-3c0-3.8-1.4-7.4-3.7-10.1h-32L105.3,164.9z M108.1,163.3
	c0.2,0.2,0.4,0.5,0.6,0.7h-1.8L108.1,163.3z"/>
<path id="XMLID_158_" class="st4" d="M47,174.8c18.1,0,33.8-10.3,41.7-25.3h-7.2c-7.2,11.4-20,19.1-34.5,19.1
	c-14.5,0-27.3-7.6-34.5-19.1H5.4C13.2,164.6,28.9,174.8,47,174.8z"/>
</svg>
