<?xml version="1.0" encoding="utf-8"?>
<!-- Generator: Adobe Illustrator 19.0.0, SVG Export Plug-In . SVG Version: 6.00 Build 0)  -->
<svg version="1.1" id="Layer_1" xmlns="http://www.w3.org/2000/svg" xmlns:xlink="http://www.w3.org/1999/xlink" x="0px" y="0px"
	 viewBox="0 0 81.8 204.4" style="enable-background:new 0 0 81.8 204.4;" xml:space="preserve">
<style type="text/css">
	.st0{fill:#FFFFFF;}
	.st1{fill:#272016;}
	.st2{fill:#333333;}
	.st3{fill:#4D4E4E;}
	.st4{fill:#57B8C4;}
</style>
<path id="XMLID_186_" class="st0" d="M68.2,190.8l-0.1,0.3c-2-23.4-9.5-47.4-21.6-69.8c0.2-0.1,0.4-0.3,0.6-0.4
	c1.1-0.4,4.1-3.2,4.1-11.4c0-0.6,5.4,9.9,9.5,11.9l1.9-2.6c1.4,2.1,3.8,3.5,6.5,3.4c4-0.2,7.1-3.6,6.9-7.7c-0.2-3.2-2.4-5.9-5.4-6.7
	l0.8-1.1C49.1,92.2,50.6,64.1,49.9,61.6c-0.3-1.2-0.8-2.2-1.5-3.2v-5.2l-1.6-0.4l0.1-0.9c9-1.5,15.8-9.2,15.8-18.6
	c0-10.4-8.4-18.8-18.8-18.8c-10.4,0-18.8,8.4-18.8,18.8c0,1.9,0.3,3.8,0.8,5.6c-0.4,0.1-0.5,0.2,0.1,0.2c0.6,1.7,1.4,3.4,2.4,4.9
	c0.4,0.6,0.9,1.3,1.3,1.9L28.8,48l-2.4-0.6L22,54.7c-1.4,1.4-2.7,3-3.2,5.1c-6,27.4-4,46.1-2.9,63.7c0,0.8,0,1.5,0,2
	c0.1,21.6-5.1,44.2-15,65.3c-0.9,1.9-1.1,3.9-0.8,5.8l0.7-0.1c-0.6,1.9-1.2,6.4,2.6,8h30.7c0-7.1-5.5-13-12.5-13.6
	c7-16.7,11.3-34.1,12.7-51.3c8.6,18.3,13.8,37.5,15,56c0.1,1.6,0.6,3.1,1.4,4.4l1.3-0.4c0,0.7-0.1,3.7,2.1,5h27.6
	C81.8,196.9,75.7,190.8,68.2,190.8z"/>
<g id="XMLID_175_">
	<g id="XMLID_176_">
		<g id="XMLID_177_">
			<g id="XMLID_181_">
				<path id="XMLID_184_" class="st1" d="M21,17.5l2.5,12.6c1.2,4.7,9.3,6.8,17,4.7l7.1-1.9c7.7-2,15.3-3.2,14.1-7.9L56,8.2L21,17.5
					z"/>
				<polygon id="XMLID_183_" class="st2" points="72,4.3 71.7,3 5.6,20.4 6,21.8 42.1,24.7 				"/>
				<polygon id="XMLID_182_" class="st3" points="71.7,3 35.5,0 5.6,20.4 41.7,23.4 				"/>
			</g>
			<g id="XMLID_179_">
				<path id="XMLID_180_" class="st0" d="M16.7,35c-0.2,0.1-0.5-0.1-0.5-0.3c0,0-0.9-12.1,0.8-13.6c0.7-0.6,20.6-9.6,21.2-10
					c0.2-0.1,0.5-0.1,0.6,0.1c0.1,0.2,0.1,0.5-0.1,0.6c-0.1,0.1-20.5,9.4-21.1,10C16.2,22.7,17,34.5,17,34.5
					C17,34.7,16.9,35,16.7,35z"/>
			</g>
			<path id="XMLID_178_" class="st0" d="M18.2,37.1c0-0.4,0-1.3,0-1.3c0-1-0.8-1.8-1.8-1.8c-1,0-1.8,0.8-1.8,1.8c0,0,0,0.8,0,1.3
				C14.6,38.1,18.2,38.2,18.2,37.1z"/>
		</g>
	</g>
</g>
<path id="XMLID_164_" class="st4" d="M21.6,190.8c6.1-14.8,10.2-30.1,12.1-45.3H14.6c-2.1,15.2-6.8,30.6-13.7,45.3
	c-0.9,1.9-1.1,3.9-0.8,5.8l0.7-0.1c-0.6,1.9-1.2,6.4,2.6,8h30.7C34.2,197.3,28.6,191.4,21.6,190.8z"/>
<path id="XMLID_163_" class="st4" d="M68.2,190.8l-0.1,0.3c-1.3-15.1-4.9-30.5-10.5-45.6H37.1c7,16.5,11.2,33.5,12.3,50
	c0.1,1.6,0.6,3.1,1.4,4.4l1.3-0.4c0,0.7-0.1,3.7,2.1,5h27.6C81.8,196.9,75.7,190.8,68.2,190.8z"/>
</svg>
