<?xml version="1.0" encoding="utf-8"?>
<!-- Generator: Adobe Illustrator 19.0.0, SVG Export Plug-In . SVG Version: 6.00 Build 0)  -->
<svg version="1.1" id="Layer_1" xmlns="http://www.w3.org/2000/svg" xmlns:xlink="http://www.w3.org/1999/xlink" x="0px" y="0px"
	 viewBox="0 0 149.4 168.9" style="enable-background:new 0 0 149.4 168.9;" xml:space="preserve">
<style type="text/css">
	.st0{fill:#FFFFFF;}
	.st1{fill:#57B8C4;}
</style>
<path id="XMLID_398_" class="st0" d="M149.4,160.1c0-1.6-0.3-3.2-0.8-4.7c0.2-1,0.3-2.1,0.3-3.2c0-8.9-7.1-16.2-15.9-16.7l-0.1-26.3
	c0,0,0.8-4.1-1.7-7.3c-3.4-4.4-8.3-4.5-8.3-4.5h-13.4V85.8h5.3c1.2,0.3,2.4,0.3,3.6,0h2.6v-1.1c1.3-0.9,2.4-2.1,3-3.7
	c1.6-4.1-0.3-8.7-4.4-10.4c-0.6-0.2-1.2-0.4-1.9-0.5l0.2-0.4c-8.6-4-14.5-8.4-18.5-12.3c-0.4-8.2-4.5-15.2-10.5-19.3
	c5.5-2.8,9.6-8,10.7-14.5c1.9-11-5.5-21.4-16.5-23.3c-11-1.9-21.4,5.5-23.3,16.4c-1.4,7.9,2.1,15.5,8.2,19.9
	c-7.6,3.8-12.9,12.1-13,21.8l0,0c0,0.2,0,0.4,0,0.7l0.1,10.1c-1.5-0.2-3-0.3-4.5-0.3V50.1c0-4.5-3.6-8.2-8.1-8.2H30.4v3.6h12.4
	c2.4,0,4.4,2.1,4.4,4.5h0v18.9C20.9,70.3,0,92,0,118.6c0,27.4,22.3,49.7,49.7,49.7c19.9,0,37.1-11.8,45.1-28.7h11.2v20.6v2v1.1h13.8
	c3.1,3.5,7.5,5.7,12.5,5.7c6.3,0,11.9-3.6,14.7-8.8H149.4z M114.9,156.8H113l1.2-0.7C114.4,156.3,114.7,156.6,114.9,156.8z
	 M99.9,78.2c2,1.3,4.3,2.6,6.7,3.9H100L99.9,78.2z M55.7,94.7L55.7,94.7c0.5,12.8,10,24.3,21.4,22.7c-1.4,0.4-2.3,0.6-2.3,0.7h0
	H57.9c-0.3-3.9-3.2-7-7.1-7.6V85.8h4.7L55.7,94.7z M50.9,126.7c2.9-0.4,5.4-2.4,6.5-5.1h35.4c-0.4,5-1.6,9.8-3.5,14.2H50.9V126.7z
	 M99.8,97.5c0.2-1.1,0.3-2.2,0.3-3.4v0c0-0.2,0-0.4,0-0.7l-0.1-7.6h5.9v11.7H99.8z M55.4,75.8l0.1,6.3h-4.6v-6.6
	C52.4,75.5,53.9,75.6,55.4,75.8z M49.7,161.7c-23.8,0-43.1-19.4-43.1-43.1c0-22.9,18-41.7,40.6-43.1v35.2c-3.3,1.1-5.7,4.2-5.7,7.8
	c0,3.7,2.4,6.8,5.7,7.8v13.1H49h1.8h36.5C80,152.8,65.9,161.7,49.7,161.7z M96.3,135.8c1.7-4.5,2.7-9.2,3-14.2h6.6v4.6v9.6H96.3z
	 M109.6,160.1v-33.9V118h1.7l-0.1,39.8l0.2-0.1v2.4H109.6z"/>
<path id="XMLID_392_" class="st1" d="M105.9,89.3v8.3h-6.1c0.2-1.1,0.3-2.2,0.3-3.4v0c0-0.2,0-0.4,0-0.7l-0.1-4.2H55.6l0.1,5.4
	l0.1,0c0.5,12.8,9.9,24.3,21.4,22.7c-1.4,0.4-2.3,0.6-2.3,0.7h0H57.9c-0.3-3.9-3.2-7-7.1-7.6V89.3h-3.7v21.5
	c-3.3,1.1-5.7,4.2-5.7,7.8c0,3.7,2.4,6.8,5.7,7.8v13.1H49h1.8h36.5c-7.4,13.2-21.5,22.2-37.7,22.2c-23.8,0-43.1-19.4-43.1-43.1
	c0-11.3,4.4-21.6,11.5-29.3H9.6c-6,8.2-9.6,18.4-9.6,29.3c0,27.4,22.3,49.7,49.7,49.7c19.9,0,37.1-11.8,45.1-28.7h11.2v20.6v2v1.1
	h13.8c3.1,3.5,7.5,5.7,12.5,5.7c6.3,0,11.9-3.6,14.7-8.8h2.4c0-1.6-0.3-3.2-0.8-4.7c0.2-1,0.3-2.1,0.3-3.2c0-8.9-7.1-16.2-15.9-16.7
	l-0.1-26.3c0,0,0.8-4.1-1.7-7.3c-3.4-4.4-8.3-4.5-8.3-4.5h-13.4v-8.3H105.9z M89.2,135.8H50.9v-9.1c2.9-0.4,5.4-2.4,6.5-5.1h35.4
	C92.4,126.7,91.2,131.5,89.2,135.8z M105.9,126.3v9.6h-9.6c1.7-4.5,2.7-9.2,3-14.2h6.6V126.3z M114.2,156.1c0.2,0.3,0.4,0.5,0.6,0.7
	H113L114.2,156.1z M111.3,118l-0.1,39.8l0.2-0.1v2.4h-1.8v-33.9V118H111.3z"/>
</svg>
