<?xml version="1.0" encoding="utf-8"?>
<!-- Generator: Adobe Illustrator 19.0.0, SVG Export Plug-In . SVG Version: 6.00 Build 0)  -->
<svg version="1.1" id="Layer_1" xmlns="http://www.w3.org/2000/svg" xmlns:xlink="http://www.w3.org/1999/xlink" x="0px" y="0px"
	 viewBox="0 0 86.4 203.5" style="enable-background:new 0 0 86.4 203.5;" xml:space="preserve">
<style type="text/css">
	.st0{fill:#FFFFFF;}
	.st1{fill:#57B8C4;}
</style>
<path id="XMLID_390_" class="st0" d="M64,115.9l2.1-2.8c1.4,2.3,4,3.7,6.9,3.6c4.2-0.2,7.5-3.8,7.3-8.1c-0.2-3.4-2.6-6.2-5.7-7
	l0.9-1.2c-23.5-15.4-22-45.1-22.7-47.7c-0.3-1.2-0.8-2.4-1.6-3.3v-5.5l-1.7-0.4l0.1-0.9c8.3-1.7,14.7-8.9,15.1-17.7
	c0.1-1.3,0-2.5-0.2-3.7c5.7-2.4,9.1-4.9,8.8-6.7c-0.4-1.9-4.5-2.7-10.7-2.6l-0.1-0.3c0,0,0,0,0,0L56.7,0c-18,0.3-30.6,7.3-30.6,7.3
	V19v0.2c-6.2,2.5-10,5.1-9.5,7c0.4,1.9,4.7,2.8,11.1,2.6c0.7,2.6,2,5.1,3.7,7.1l-0.9,2.4L28,37.6l-4.7,7.8c-1.5,1.5-2.9,3.2-3.3,5.4
	c-6.4,29-4.2,48.8-3,67.3c0,0.8,0,1.6,0,2.2c0.2,22.8-5.3,46.7-15.9,69c-0.9,2-1.2,4.1-0.8,6.1l0.8-0.1c-0.6,2-1.2,6.8,2.7,8.4h32.5
	c0-7.5-5.8-13.7-13.2-14.3c7.3-17.7,11.9-36.1,13.5-54.3c9.1,19.3,14.5,39.6,15.8,59.2c0.1,1.7,0.6,3.3,1.5,4.6l1.4-0.4
	c0,0.7-0.1,3.9,2.2,5.3h29.2c0-7.9-6.4-14.4-14.4-14.4l-0.1,0.3c-2.1-24.7-10-50.1-22.8-73.8c0.2-0.1,0.4-0.3,0.6-0.4
	c1.2-0.4,4.4-3.4,4.3-12C54,102.6,59.7,113.8,64,115.9z"/>
<path id="XMLID_389_" class="st1" d="M72.1,189.2l-0.1,0.3c-2.1-24.7-10-50.1-22.8-73.8c0.2-0.1,0.4-0.3,0.6-0.4
	c1.2-0.4,4.4-3.4,4.3-12c0-0.7,5.7,10.5,10,12.6l2.1-2.8c1.4,2.3,4,3.7,6.9,3.6c4.2-0.2,7.5-3.8,7.3-8.1c-0.2-3.4-2.6-6.2-5.7-7
	l0.9-1.2C52.6,85.4,53.4,57.1,52.8,52.9H19.5c-5.8,27.8-3.7,47.1-2.6,65.1c0,0.8,0,1.6,0,2.2c0.2,22.8-5.3,46.7-15.9,69
	c-0.9,2-1.2,4.1-0.8,6.1l0.8-0.1c-0.6,2-1.2,6.8,2.7,8.4h32.5c0-7.5-5.8-13.7-13.2-14.3c7.3-17.7,11.9-36.1,13.5-54.3
	c9.1,19.3,14.5,39.6,15.8,59.2c0.1,1.7,0.6,3.3,1.5,4.6l1.4-0.4c0,0.7-0.1,3.9,2.2,5.3h29.2C86.4,195.6,80,189.2,72.1,189.2z"/>
</svg>
