<?xml version="1.0" encoding="utf-8"?>
<!-- Generator: Adobe Illustrator 19.0.0, SVG Export Plug-In . SVG Version: 6.00 Build 0)  -->
<svg version="1.1" id="Layer_1" xmlns="http://www.w3.org/2000/svg" xmlns:xlink="http://www.w3.org/1999/xlink" x="0px" y="0px"
	 viewBox="0 0 128.2 315.6" style="enable-background:new 0 0 128.2 315.6;" xml:space="preserve">
<style type="text/css">
	.st0{fill:#A0CFCF;}
	.st1{fill:#B6E0E1;}
	.st2{fill:#22A3CF;}
	.st3{fill:#ED1D52;}
	.st4{fill:#FFFFFF;}
	.st5{fill:#FDE56E;}
	.st6{fill:#FFD242;}
	.st7{fill:#6C62AA;}
	.st8{fill:#FFD57D;}
	.st9{fill:#D2D1E8;}
	.st10{fill:#67C8D0;}
	.st11{fill:#F2BD56;}
	.st12{fill:#FFCE66;}
	.st13{fill:#BFBFC8;}
</style>
<g id="XMLID_439_">
	<g id="XMLID_442_">
		<g id="XMLID_443_">
			<g id="XMLID_509_">
				<path id="XMLID_510_" class="st0" d="M62.6,301.2c0,7.9-6.4,14.3-14.3,14.3l0,0c-7.9,0-14.3-6.4-14.3-14.3l-0.3-141.1
					c29,0,29,32.6,29,32.6V301.2z"/>
			</g>
			<g id="XMLID_507_">
				<path id="XMLID_508_" class="st0" d="M65.5,301.2c0,7.9,6.4,14.3,14.3,14.3l0,0c7.9,0,14.3-6.4,14.3-14.3l0.3-141.1
					c-29,0-29,32.6-29,32.6V301.2z"/>
			</g>
			<path id="XMLID_505_" class="st1" d="M8.7,141.8c7.2,3.1,15.5-0.2,18.7-7.2l-8.7,94.8h90.9l-8.8-95.1c3.1,7.2,11.6,10.6,18.8,7.5
				c7.3-3.1,10.6-11.6,7.5-18.8l-20.9-47.7c-2.1-4.9-6.7-8-11.7-8.5l0-0.1h-1.3c-0.2,0-0.3,0-0.5,0H35.5c-0.2,0-0.3,0-0.5,0h-1.5
				l0,0.1c-4.9,0.6-9.4,3.6-11.5,8.5L1.2,123C-2,130.2,1.4,138.7,8.7,141.8z"/>
			<g id="XMLID_446_">
				<g id="XMLID_449_">
					<g id="XMLID_458_">
						<g id="XMLID_492_">
							<path id="XMLID_504_" class="st2" d="M92.1,121.4c0,1.3-1,2.3-2.3,2.3H79.4c-1.3,0-2.3-1-2.3-2.3v-14.8c0-1.3,1-2.3,2.3-2.3
								h10.3c1.3,0,2.3,1,2.3,2.3V121.4z"/>
							<g id="XMLID_497_">
								<g id="XMLID_139_">
									<g id="XMLID_140_">
										<path id="XMLID_141_" class="st3" d="M79,110.6v10.7c0,0.3,0.2,0.5,0.5,0.5h10.3c0.3,0,0.5-0.2,0.5-0.5v-10.7H79z"/>
									</g>
								</g>
							</g>
							<rect id="XMLID_496_" x="79.6" y="101.8" class="st2" width="10" height="2.4"/>
							<rect id="XMLID_493_" x="78.5" y="99.9" class="st4" width="12.1" height="3.1"/>
						</g>
						<g id="XMLID_481_">
							<path id="XMLID_491_" class="st5" d="M75.8,121.4c0,1.3-1,2.3-2.3,2.3H63.2c-1.3,0-2.3-1-2.3-2.3v-11.1c0-1.3,1-2.3,2.3-2.3
								h10.3c1.3,0,2.3,1,2.3,2.3V121.4z"/>
							<g id="XMLID_484_">
								<g id="XMLID_135_">
									<g id="XMLID_136_">
										<path id="XMLID_137_" class="st3" d="M62.7,116.5v4.9c0,0.3,0.2,0.5,0.5,0.5h10.3c0.3,0,0.5-0.2,0.5-0.5v-4.9H62.7z"/>
									</g>
								</g>
							</g>
							<rect id="XMLID_483_" x="64.9" y="105.5" class="st5" width="6.8" height="2.4"/>
							<rect id="XMLID_482_" x="64.2" y="103.6" class="st6" width="8.3" height="3.1"/>
						</g>
						<g id="XMLID_470_">
							<path id="XMLID_480_" class="st7" d="M56.6,121.7c0,1.1-0.9,2-2,2h-8.9c-1.1,0-2-0.9-2-2v-12.8c0-1.1,0.9-2,2-2h8.9
								c1.1,0,2,0.9,2,2V121.7z"/>
							<g id="XMLID_473_">
								<g id="XMLID_131_">
									<g id="XMLID_132_">
										<path id="XMLID_133_" class="st3" d="M45.2,114.3v7.4c0,0.2,0.2,0.4,0.4,0.4h8.9c0.2,0,0.4-0.2,0.4-0.4v-7.4l-5-2.9
											L45.2,114.3z"/>
									</g>
								</g>
							</g>
							<rect id="XMLID_472_" x="45.7" y="104.7" class="st7" width="8.7" height="2.1"/>
							<rect id="XMLID_471_" x="44.8" y="103" class="st4" width="10.5" height="2.7"/>
						</g>
						<g id="XMLID_464_">
							<path id="XMLID_469_" class="st8" d="M41.8,113.6c0,5.6-4.5,10.1-10.1,10.1c-5.6,0-10.1-4.5-10.1-10.1
								c0-5.6,4.5-10.1,10.1-10.1C37.3,103.5,41.8,108,41.8,113.6z"/>
							<path id="XMLID_468_" class="st9" d="M25.2,113.6c0,3.6,2.9,6.4,6.4,6.4c3.6,0,6.4-2.9,6.4-6.4H25.2z"/>
							<rect id="XMLID_467_" x="28.8" y="93" class="st8" width="5.7" height="16.1"/>
							<rect id="XMLID_466_" x="29.6" y="89.4" class="st9" width="4.1" height="2.1"/>
							<path id="XMLID_465_" class="st8" d="M36.2,93.1c0,0.9-0.7,1.6-1.6,1.6h-5.8c-0.9,0-1.6-0.7-1.6-1.6l0,0
								c0-0.9,0.7-1.6,1.6-1.6h5.8C35.5,91.5,36.2,92.2,36.2,93.1L36.2,93.1z"/>
						</g>
						<g id="XMLID_459_">
							<path id="XMLID_463_" class="st10" d="M104.6,123.7H97c-2.7,0-3.8-1.9-2.4-4.2l4.1-7v-1.6h4.3v1.6l4.1,7
								C108.4,121.8,107.3,123.7,104.6,123.7z"/>
							<g id="XMLID_461_">
								<path id="XMLID_462_" class="st4" d="M103.5,117.6h-5.3l-1.7,2.9c-0.3,0.5-0.3,0.8-0.3,0.9c0,0,0.3,0.1,0.9,0.1h7.6
									c0.6,0,0.8-0.1,0.9-0.2c0,0,0-0.3-0.3-0.8L103.5,117.6z"/>
							</g>
							<path id="XMLID_460_" class="st10" d="M104.2,111c0,0.7-0.5,1.2-1.2,1.2h-4.4c-0.7,0-1.2-0.5-1.2-1.2l0,0
								c0-0.7,0.5-1.2,1.2-1.2h4.4C103.7,109.8,104.2,110.3,104.2,111L104.2,111z"/>
						</g>
					</g>
					<g id="XMLID_453_">
						<path id="XMLID_457_" class="st11" d="M64.1,85c-9.7,0-17.5-7.9-17.5-17.5V53.7h35v13.8C81.6,77.2,73.7,85,64.1,85z"/>
						<path id="XMLID_456_" class="st1" d="M64.1,0c15.4,0,28,12.6,28,28v17.1h-56V28C36.1,12.6,48.6,0,64.1,0z"/>
						<g id="XMLID_454_">
							<path id="XMLID_455_" class="st12" d="M36.1,44.5c0,15.5,12.5,28,28,28s28-12.5,28-28c0-15.5-12.5-17.7-28-17.7
								S36.1,29.1,36.1,44.5z"/>
						</g>
					</g>
					<path id="XMLID_452_" class="st12" d="M124,125.9c0,8-6.5,14.5-14.5,14.5c-8,0-14.5-6.5-14.5-14.5H124z"/>
					<path id="XMLID_451_" class="st12" d="M33,125.9c0,8-6.5,14.5-14.5,14.5c-8,0-14.5-6.5-14.5-14.5H33z"/>
					<polygon id="XMLID_450_" class="st13" points="14.3,127.6 113.8,127.6 117,123.7 11.2,123.7 					"/>
				</g>
				<rect id="XMLID_448_" x="61.4" y="9.3" class="st4" width="5.4" height="14.5"/>
				<rect id="XMLID_447_" x="56.8" y="13.9" class="st4" width="14.5" height="5.4"/>
			</g>
			<path id="XMLID_445_" class="st12" d="M115.3,125.9c0,2.4,1.9,4.3,4.3,4.3c2.4,0,4.3-1.9,4.3-4.3c0-2.4-1.9-4.3-4.3-4.3
				C117.3,121.6,115.3,123.5,115.3,125.9z"/>
			<path id="XMLID_444_" class="st12" d="M4,125.9c0,2.4,1.9,4.3,4.3,4.3c2.4,0,4.3-1.9,4.3-4.3c0-2.4-1.9-4.3-4.3-4.3
				C5.9,121.6,4,123.5,4,125.9z"/>
		</g>
	</g>
	<path id="XMLID_441_" class="st10" d="M48.1,301.1c8,0,14.5,6.5,14.5,14.5H33.7C33.7,307.6,40.1,301.1,48.1,301.1z"/>
	<path id="XMLID_440_" class="st10" d="M80,301.1c8,0,14.5,6.5,14.5,14.5H65.6C65.6,307.6,72,301.1,80,301.1z"/>
</g>
</svg>
