<?xml version="1.0" encoding="utf-8"?>
<!-- Generator: Adobe Illustrator 19.0.0, SVG Export Plug-In . SVG Version: 6.00 Build 0)  -->
<svg version="1.1" id="Layer_1" xmlns="http://www.w3.org/2000/svg" xmlns:xlink="http://www.w3.org/1999/xlink" x="0px" y="0px"
	 viewBox="0 0 248.3 232.1" style="enable-background:new 0 0 248.3 232.1;" xml:space="preserve">
<style type="text/css">
	.st0{fill:#EED4AE;}
	.st1{fill:#FFCE66;}
	.st2{fill:#D7B88E;}
	.st3{fill:#BFBFC8;}
	.st4{fill:#D2D1E8;}
	.st5{fill:#A0CFCF;}
	.st6{fill:#DB2526;}
	.st7{fill:#1A1A1B;}
	.st8{fill:#6C62AA;}
	.st9{fill:#B6E0E1;}
	.st10{fill:#63503C;}
</style>
<g id="XMLID_131_">
	<g id="XMLID_147_">
		<g id="XMLID_163_">
			<g id="XMLID_164_">
				<g id="XMLID_167_">
					<g id="XMLID_178_">
						<g id="XMLID_179_">
							<g id="XMLID_196_">
								<g id="XMLID_199_">
									<g id="XMLID_205_">
										<path id="XMLID_206_" class="st0" d="M196.6,102.4L196.6,102.4c-0.4-13.1-10.2-23.6-22.2-23.6c-12,0-21.8,10.5-22.2,23.6
											l0,0v0c0,0.2,0,0.4,0,0.7v35.6h0.1c0.3,13.1,10.1,23.6,22.2,23.6c12.1,0,21.8-10.5,22.2-23.6l0,0v0c0-0.2,0-0.4,0-0.7
											V102.4z"/>
									</g>
									<polygon id="XMLID_204_" class="st1" points="171.1,68.8 167.6,79.9 186.6,83.7 189.8,70.8 									"/>
									<polygon id="XMLID_203_" class="st0" points="190.1,81.4 166.7,75.4 157.4,87.5 191.4,87.5 									"/>
									<path id="XMLID_202_" class="st2" d="M196.6,138v-11.2h-10l-19.8-22.4l14.2,56.8c8.9-3,15.4-11.9,15.7-22.5v0
										C196.6,138.4,196.6,138.2,196.6,138z"/>
									<g id="XMLID_200_">
										<path id="XMLID_201_" class="st1" d="M203.1,58.8c0,11.1-9,20.1-20.1,20.1c-11.1,0-20.1-9-20.1-20.1
											c0-11.1,9-20.1,20.1-20.1C194.1,38.6,203.1,47.7,203.1,58.8z"/>
									</g>
								</g>
								<path id="XMLID_198_" class="st1" d="M219.3,126.8c-4.4,0-7.9-3.6-7.9-8c0-4.4,3.6-7.9,8-7.9c4.4,0,7.9,3.6,7.9,8
									C227.3,123.3,223.7,126.8,219.3,126.8z"/>
								<rect id="XMLID_197_" x="186.6" y="110.9" class="st0" width="32.8" height="16"/>
							</g>
							<g id="XMLID_180_">
								<g id="XMLID_193_">
									<g id="XMLID_194_">
										<rect id="XMLID_195_" x="146.2" y="95" class="st3" width="3.7" height="89.4"/>
									</g>
								</g>
								<g id="XMLID_190_">
									<g id="XMLID_191_">
										<polygon id="XMLID_192_" class="st3" points="208.5,206.9 204.8,206.9 204.8,166.5 148,166.5 148,162.8 208.5,162.8 
																					"/>
									</g>
								</g>
								<g id="XMLID_182_">
									<g id="XMLID_183_">
										<rect id="XMLID_189_" x="148" y="180.7" class="st3" width="58.7" height="3.7"/>
										<g id="XMLID_184_">
											<path id="XMLID_188_" class="st4" d="M173.8,162.3L173.8,162.3C173.8,162.3,173.8,162.4,173.8,162.3z"/>
											<path id="XMLID_187_" class="st5" d="M235.1,191.6H227v-8.3l-14.3,2.7v14.1c1,1.9,3,3,5.1,3h17.3c3.2,0,5.8-2.6,5.8-5.8
												C240.9,194.2,238.3,191.6,235.1,191.6z"/>
											<path id="XMLID_186_" class="st6" d="M233.4,190h-5.2v11.5h-17.9v3.4h38C248.3,196.7,241.6,190,233.4,190z"/>
											<path id="XMLID_185_" class="st0" d="M230.2,146.9c-3.4-4.4-8.3-4.5-8.3-4.5h-47.1c-0.9,16.7-1,19.5-1,19.9h36.5
												l-0.1,40.3L232,190l-0.1-35.9C231.8,154.1,232.6,150.1,230.2,146.9z"/>
										</g>
									</g>
								</g>
								<polygon id="XMLID_181_" class="st3" points="220,127 148,127 148,130.7 204.8,130.7 204.8,171.1 208.5,171.1 208.5,130.7 
									220,130.7 								"/>
							</g>
						</g>
					</g>
					<g id="XMLID_174_">
						<path id="XMLID_175_" class="st7" d="M148.7,231.5c-27.4,0-49.6-22.3-49.6-49.6c0-27.4,22.3-49.6,49.6-49.6
							c27.4,0,49.6,22.3,49.6,49.6C198.3,209.2,176.1,231.5,148.7,231.5z M148.7,138.8c-23.8,0-43.1,19.3-43.1,43.1
							s19.3,43.1,43.1,43.1c23.8,0,43.1-19.3,43.1-43.1S172.4,138.8,148.7,138.8z"/>
					</g>
					<g id="XMLID_170_">
						<path id="XMLID_171_" class="st7" d="M231.1,232.1c-9.2,0-16.7-7.5-16.7-16.7c0-9.2,7.5-16.7,16.7-16.7
							c9.2,0,16.7,7.5,16.7,16.7C247.8,224.7,240.3,232.1,231.1,232.1z M231.1,205.4c-5.6,0-10.1,4.5-10.1,10.1
							c0,5.6,4.5,10.1,10.1,10.1c5.6,0,10.1-4.5,10.1-10.1C241.2,209.9,236.7,205.4,231.1,205.4z"/>
					</g>
					<rect id="XMLID_169_" x="204.8" y="204.9" class="st7" width="16.1" height="3.1"/>
					<path id="XMLID_168_" class="st7" d="M156.9,181.9c0,4.5-3.7,8.2-8.2,8.2c-4.5,0-8.2-3.7-8.2-8.2c0-4.5,3.7-8.2,8.2-8.2
						C153.2,173.6,156.9,177.3,156.9,181.9z"/>
				</g>
				<g id="XMLID_165_">
					<path id="XMLID_166_" class="st3" d="M149.8,95h-3.6c0-2.4-2-4.5-4.4-4.5h-12.4v-3.6h12.4C146.2,86.8,149.8,90.6,149.8,95z"/>
				</g>
			</g>
		</g>
		<g id="XMLID_148_">
			<g id="XMLID_149_">
				<g id="XMLID_150_">
					<path id="XMLID_162_" class="st8" d="M95,219.2c7.1,0,12.9,5.8,12.9,12.9H75.2v-12.3L95,219.2z"/>
					<path id="XMLID_161_" class="st5" d="M97.3,219.1c0-75.4-42.8-94.9-44.6-96.1c-6-3.8-14-2.1-17.9,3.9c-3.9,6-2.2,14.1,3.8,18
						c1.3,0.9,38.1,15.3,32.7,86.5L97.3,219.1z"/>
					<path id="XMLID_160_" class="st8" d="M22.5,211.3c1.3,0-0.8,8.1,0.4,8.5c5.3,1.6,9.2,6.5,9.2,12.4H14.1L0,220.3l8.3-11.1
						L22.5,211.3z"/>
					<path id="XMLID_159_" class="st9" d="M33.1,137.4c-1.9-7,2.2-14.1,9.2-16c7-1.9,14.1,2.2,16,9.2c0.5,1.9,11.8,38-32,90.8
						l-25-11C41.6,165.2,33.2,137.8,33.1,137.4z"/>
					<path id="XMLID_158_" class="st1" d="M134.6,98.7c-5.2,0-9.4-4.3-9.3-9.5c0-5.2,4.3-9.4,9.5-9.3c5.2,0,9.4,4.3,9.3,9.5
						C144,94.5,139.8,98.7,134.6,98.7z"/>
					<g id="XMLID_156_">
						<path id="XMLID_157_" class="st9" d="M41.9,143.7c-9.8-3.9-14.6-15-10.7-24.8l23-66.4c3.9-9.8,15-14.6,24.8-10.7
							c9.8,3.9,14.6,15,10.7,24.8l-23,66.4C62.9,142.8,51.7,147.6,41.9,143.7z"/>
					</g>
					<polygon id="XMLID_155_" class="st5" points="67.4,57.2 66.8,133 84.5,81.7 					"/>
					<path id="XMLID_154_" class="st9" d="M131.1,79.9c-38.3,3.8-45.9-26.6-46.7-29.5c-1.4-5.6-7-9-12.6-7.7
						c-5.6,1.3-9.1,7-7.8,12.6c3.7,15.7,23,50,69.1,45.4L131.1,79.9z"/>
					<polygon id="XMLID_153_" class="st1" points="78.3,29.4 72.1,39.8 89.7,51.2 98.6,40.9 					"/>
					<g id="XMLID_151_">
						<path id="XMLID_152_" class="st1" d="M116.1,31.2C111.4,42.9,98.2,48.6,86.5,44C74.8,39.3,69.1,26,73.7,14.4
							C78.4,2.7,91.6-3,103.3,1.6C115,6.3,120.7,19.5,116.1,31.2z"/>
					</g>
				</g>
			</g>
		</g>
	</g>
	<path id="XMLID_146_" class="st10" d="M202.9,61.7c-4.6-0.5-6.3,6.3-6.3,6.3c-8.3-1.7-6.8-19.2-6.8-19.2
		c25.9-1.3,5.1-13.6-8.2-13.1c-13.3,0.4-21,11.2-18.8,23.9c2.2,12.7,0,14.4,0,14.4c8.4,1.9,13.2-3.6,15.9-9.2
		c-1.3-0.9-2.2-2.5-2.2-4.3c0-2.9,2.3-5.2,5.2-5.2c0-0.2,0.1-0.4,0.1-0.4l1.3,9.8c4,19.9,14.3,25.2,19.9,20.8
		C207.6,81.9,207.5,62.2,202.9,61.7z"/>
	<polygon id="XMLID_145_" class="st9" points="72.1,36.2 67.4,41 91,57.2 94.2,49.8 	"/>
</g>
</svg>
