<?xml version="1.0" encoding="utf-8"?>
<!-- Generator: Adobe Illustrator 19.0.0, SVG Export Plug-In . SVG Version: 6.00 Build 0)  -->
<svg version="1.1" id="Layer_1" xmlns="http://www.w3.org/2000/svg" xmlns:xlink="http://www.w3.org/1999/xlink" x="0px" y="0px"
	 viewBox="0 0 100.3 207.7" style="enable-background:new 0 0 100.3 207.7;" xml:space="preserve">
<style type="text/css">
	.st0{fill:#F2BD56;}
	.st1{fill:#994822;}
	.st2{fill:#BFBFC8;}
	.st3{fill:#B15E27;}
	.st4{fill:#FFCE66;}
	.st5{fill:#A0CFCF;}
	.st6{fill:#DB2526;}
	.st7{fill:#B92025;}
</style>
<g id="XMLID_253_">
	<g id="XMLID_277_">
		<g id="XMLID_278_">
			<path id="XMLID_279_" class="st0" d="M26.5,198.2c-1.2,6.3-7.3,10.4-13.5,9.1l0,0c-6.3-1.2-10.4-7.3-9.1-13.5l12-85.8
				c22.9,4.4,22.7,4.4,22.7,4.4L26.5,198.2z"/>
		</g>
	</g>
	<path id="XMLID_276_" class="st1" d="M14.4,207.7c8.2,0.1,16.4-0.4,24.6,0c-0.6-6.3-5.2-11.1-11.8-12.3l-7.1,9.2h-4.9l-13-2.5
		l-0.6,3.2l12.5,2.4C14.2,207.7,14.3,207.7,14.4,207.7z"/>
	<path id="XMLID_274_" class="st2" d="M15.2,23.1c0,7.4,6,13.4,13.4,13.4c7.4,0,13.4-6,13.4-13.4c0-7.4-6-13.4-13.4-13.4
		C21.1,9.7,15.2,15.7,15.2,23.1z"/>
	<g id="XMLID_258_">
		<g id="XMLID_271_">
			<g id="XMLID_272_">
				<path id="XMLID_273_" class="st3" d="M98.2,207.6c1.2,0,2.1-0.9,2.1-2.1v-89.5c0-9.1-7.4-16.5-16.5-16.5s-16.5,7.4-16.5,16.5
					c0,1.2,0.9,2.1,2.1,2.1c1.2,0,2.1-0.9,2.1-2.1c0-6.8,5.5-12.3,12.3-12.3c6.8,0,12.3,5.5,12.3,12.3v89.5
					C96.1,206.6,97.1,207.6,98.2,207.6z"/>
			</g>
		</g>
		<g id="XMLID_259_">
			<g id="XMLID_260_">
				<g id="XMLID_268_">
					<g id="XMLID_269_">
						<path id="XMLID_270_" class="st4" d="M46.8,196c0,6.4-5.2,11.5-11.5,11.5l0,0c-6.4,0-11.5-5.2-11.5-11.5l-4.5-87.3
							c23.3,0,23.1,0,23.1,0L46.8,196z"/>
					</g>
				</g>
				<rect id="XMLID_267_" x="3.2" y="132" class="st5" width="43.8" height="34.7"/>
				<g id="XMLID_265_">
					<path id="XMLID_266_" class="st6" d="M57.1,31c-17.3,57.7-3.2,107.2-3.2,107.2H0.1c0,0-3.1-74.5,33-115.1L57.1,31z"/>
				</g>
				<path id="XMLID_264_" class="st7" d="M57.1,31c-17.3,57.7-3.2,107.2-3.2,107.2H25.2c-0.1-13,0.9-71.4,29.4-108L57.1,31z"/>
				<path id="XMLID_262_" class="st4" d="M75.2,106c0,4.8,3.9,8.7,8.7,8.7c4.8,0,8.7-3.9,8.7-8.7c0-4.8-3.9-8.7-8.7-8.7
					C79,97.3,75.2,101.2,75.2,106z"/>
				<path id="XMLID_261_" class="st6" d="M33.9,46.3c0.4-5.2,4.9-9,10.1-8.6c5.2,0.4,9,4.9,8.7,10.1c-0.1,1.4-1.9,33.8,32.6,48.4
					l-7.4,17.3c-3.5-1.5-6.7-3.1-9.6-4.9C38.8,91.3,32.7,61.1,33.9,46.3z"/>
			</g>
		</g>
	</g>
	<path id="XMLID_256_" class="st4" d="M33.1,20.6c0,11.4,9.2,20.6,20.6,20.6c11.4,0,20.6-9.2,20.6-20.6C74.3,9.2,65.1,0,53.7,0
		C42.3,0,33.1,9.2,33.1,20.6z"/>
	<path id="XMLID_255_" class="st2" d="M53.7,0C62.5,0,70,5.5,73,13.3c-9.8,5.7-23.9,9.2-39.6,9.2c-0.1,0-0.1,0-0.2,0
		c-0.1-0.6-0.1-1.3-0.1-1.9C33.1,9.2,42.3,0,53.7,0z"/>
	<path id="XMLID_254_" class="st3" d="M41.9,204.3l5.1-11.3c8.1,0,14.6,6.6,14.6,14.6H23.7v-3.3H41.9z"/>
</g>
</svg>
