<?xml version="1.0" encoding="utf-8"?>
<!-- Generator: Adobe Illustrator 19.0.0, SVG Export Plug-In . SVG Version: 6.00 Build 0)  -->
<svg version="1.1" id="Layer_1" xmlns="http://www.w3.org/2000/svg" xmlns:xlink="http://www.w3.org/1999/xlink" x="0px" y="0px"
	 viewBox="0 0 270.4 201.2" style="enable-background:new 0 0 270.4 201.2;" xml:space="preserve">
<style type="text/css">
	.st0{fill:#504D93;}
	.st1{fill:#BFBFC8;}
	.st2{fill:#B15E27;}
	.st3{fill:#904420;}
	.st4{fill:#F2BD56;}
	.st5{fill:#FFCE66;}
	.st6{fill:#1A1A1B;}
	.st7{fill:#377886;}
	.st8{fill:#EED4AE;}
	.st9{fill:#D7B88E;}
	.st10{fill:#6C62AA;}
	.st11{fill:#B6E0E1;}
</style>
<g id="XMLID_185_">
	<path id="XMLID_520_" class="st0" d="M151.1,197.6l5.4-12.1c8.6,0,15.6,7,15.6,15.6h-40.4v-3.5H151.1z"/>
	<g id="XMLID_326_">
		<g id="XMLID_499_">
			<g id="XMLID_517_">
				<rect id="XMLID_519_" x="10.6" y="72.1" class="st1" width="8.3" height="129"/>
				<rect id="XMLID_518_" x="101.3" y="72.1" class="st1" width="8.3" height="129"/>
			</g>
			<rect id="XMLID_516_" x="0" y="144.8" class="st2" width="120.2" height="13.5"/>
			<g id="XMLID_500_">
				<rect id="XMLID_515_" x="0" y="119.1" class="st3" width="120.2" height="11.8"/>
				<rect id="XMLID_514_" x="0" y="93.2" class="st3" width="120.2" height="11.8"/>
				<rect id="XMLID_501_" x="0" y="67.3" class="st3" width="120.2" height="11.8"/>
			</g>
		</g>
		<g id="XMLID_379_">
			<g id="XMLID_495_">
				<path id="XMLID_498_" class="st4" d="M143.8,200.6c6.1,0,11.3-4.6,11.9-10.9l5.8-59.5c0.3-3.4-0.8-6.7-3.1-9.2
					c-2.3-2.5-5.5-3.9-8.9-3.9h-34c-6.6,0-12,5.4-12,12c0,6.6,5.4,12,12,12h20.7l-4.5,46.3c-0.6,6.6,4.2,12.5,10.8,13.1
					C143,200.6,143.4,200.6,143.8,200.6z"/>
			</g>
			<g id="XMLID_488_">
				<path id="XMLID_494_" class="st5" d="M125.7,200.6c5.6,0,10.6-4,11.8-9.7l11.8-59.5c0.7-3.5-0.2-7.2-2.5-10
					c-2.3-2.8-5.7-4.4-9.3-4.4h-43c-6.6,0-12,5.4-12,12c0,6.6,5.4,12,12,12h28.3l-8.9,45.1c-1.3,6.5,2.9,12.8,9.5,14.1
					C124.2,200.5,125,200.6,125.7,200.6z"/>
			</g>
			<path id="XMLID_487_" class="st6" d="M82.1,139.2c-1.8-1.8-3-4.2-3.4-6.8c-0.2-0.7-0.2-1.4-0.2-2.1c0,0,0,0,0-0.1c0,0,0,0,0-0.1
				c0-0.3,0-0.5,0-0.8c1.3-25.8,7.6-72.7,34.9-103.5l25.6,8.5c-9.5,31.7-10.1,58.2-8.5,79.1c3.6,0.1,8.4,0.3,14.8,0.7
				c27.6,1.7,18.9,43.2,18.9,43.2h-50.4v-10c0,0-23.9,1.8-31.7-8.1c0,0,0,0,0,0C82.2,139.3,82.1,139.3,82.1,139.2
				C82.1,139.2,82.1,139.2,82.1,139.2z"/>
			<path id="XMLID_486_" class="st7" d="M82.1,139.2c-1.8-1.8-3-4.2-3.4-6.8c-0.2-0.7-0.2-1.4-0.2-2.1c0,0,0,0,0-0.1c0,0,0,0,0-0.1
				c0-0.3,0-0.5,0-0.8c1.3-25.8,7.6-72.7,34.9-103.5l25.6,8.5c-9.5,31.7-10.1,58.2-8.5,79.1c3.6,0.1,8.4,0.3,14.8,0.7
				c27.6,1.7,18.9,43.2,18.9,43.2h-50.4v-10c0,0-23.9,1.8-31.7-8.1c0,0,0,0,0,0C82.2,139.3,82.1,139.3,82.1,139.2
				C82.1,139.2,82.1,139.2,82.1,139.2z"/>
			<path id="XMLID_485_" class="st8" d="M122.5,46.7c4.8-2.7,10.9-1,13.7,3.8c0.7,1.3,18.3,31.2,57.5,23.9l3.7,19.7
				c-3.9,0.7-7.7,1.2-11.4,1.4c-36.5,1.9-59.7-21.4-67.3-35.2C116,55.4,117.7,49.4,122.5,46.7z"/>
			<path id="XMLID_476_" class="st5" d="M185.1,83.6c0,5.1,4.1,9.2,9.2,9.2c5.1,0,9.2-4.1,9.2-9.2c0-5.1-4.1-9.2-9.2-9.2
				C189.2,74.3,185.1,78.5,185.1,83.6z"/>
			<path id="XMLID_474_" class="st5" d="M141.1,112.7c0,5.1,4.1,9.2,9.2,9.2c5.1,0,9.2-4.1,9.2-9.2c0-5.1-4.1-9.2-9.2-9.2
				C145.3,103.5,141.1,107.6,141.1,112.7z"/>
			<path id="XMLID_438_" class="st8" d="M78.5,129.4c1.3-25.8,5.8-72.5,34.9-103.5l25.6,8.5c-9.5,31.7-10.1,58.2-8.5,79.1
				c1.2,0-21,0.1-21,0.1s-17.8,0.8-31.1,17.3c0-0.2-0.1-0.4-0.1-0.6c0,0,0,0,0-0.1c0,0,0,0,0-0.1C78.4,129.9,78.4,129.7,78.5,129.4z
				"/>
			<path id="XMLID_437_" class="st9" d="M134.7,113.6h-24.2C95,92.8,97.3,63.4,98.3,50.7c0.4-5.5,5.3-9.6,10.8-9.2
				c5.5,0.4,9.6,5.2,9.3,10.7c-0.1,0.9,2.6,13.2,12.3,26.4c-1.1,12.9-0.8,24.5,0,34.8C131.8,113.5,133.2,113.5,134.7,113.6z"/>
			<path id="XMLID_436_" class="st8" d="M98.3,50.7c0.4-5.5,5.3-9.6,10.8-9.2c5.5,0.4,9.6,5.2,9.3,10.7c-0.1,1.5-2,36.1,34.7,51.7
				l-7.8,18.5c-3.7-1.6-7.1-3.3-10.3-5.2C103.5,98.7,97,66.5,98.3,50.7z"/>
			<path id="XMLID_415_" class="st1" d="M82.9,27.6c0,7.9,6.4,14.3,14.3,14.3c7.9,0,14.3-6.4,14.3-14.3c0-7.9-6.4-14.3-14.3-14.3
				C89.3,13.3,82.9,19.7,82.9,27.6z"/>
			<path id="XMLID_409_" class="st5" d="M102,25c0,13.8,11.2,25,25,25c13.8,0,25-11.2,25-25c0-13.8-11.2-25-25-25
				C113.2,0,102,11.2,102,25z"/>
			<path id="XMLID_391_" class="st4" d="M208.3,105.9c0,1.3,1.1,2.4,2.4,2.4c1.3,0,2.4-1.1,2.4-2.4c0-1.3-1.1-2.4-2.4-2.4
				C209.3,103.5,208.3,104.6,208.3,105.9z"/>
			<path id="XMLID_388_" class="st4" d="M226.8,120.9c0,1.3,1.1,2.4,2.4,2.4c1.3,0,2.4-1.1,2.4-2.4c0-1.3-1.1-2.4-2.4-2.4
				C227.9,118.5,226.8,119.5,226.8,120.9z"/>
			<path id="XMLID_385_" class="st4" d="M218.1,145c0,1.3,1.1,2.4,2.4,2.4c1.3,0,2.4-1.1,2.4-2.4c0-1.3-1.1-2.4-2.4-2.4
				C219.2,142.6,218.1,143.7,218.1,145z"/>
			<path id="XMLID_383_" class="st4" d="M234.1,163.7c0,1.3,1.1,2.4,2.4,2.4c1.3,0,2.4-1.1,2.4-2.4c0-1.3-1.1-2.4-2.4-2.4
				C235.2,161.3,234.1,162.3,234.1,163.7z"/>
			<path id="XMLID_382_" class="st4" d="M212.4,174.3c0,1.3,1.1,2.4,2.4,2.4c1.3,0,2.4-1.1,2.4-2.4c0-1.3-1.1-2.4-2.4-2.4
				C213.5,171.9,212.4,173,212.4,174.3z"/>
			<path id="XMLID_380_" class="st4" d="M234.1,198.6c0,1.3,1.1,2.4,2.4,2.4c1.3,0,2.4-1.1,2.4-2.4c0-1.3-1.1-2.4-2.4-2.4
				C235.2,196.2,234.1,197.3,234.1,198.6z"/>
		</g>
		<g id="XMLID_344_">
			<g id="XMLID_353_">
				<rect id="XMLID_357_" x="255.7" y="194.4" class="st2" width="0.7" height="5.9"/>
				<path id="XMLID_354_" class="st2" d="M253.3,200.6c0,0.2,0.2,0.4,0.4,0.4h4.7c0.2,0,0.4-0.2,0.4-0.4l0,0c0-0.2-0.2-0.4-0.4-0.4
					h-4.7C253.5,200.2,253.3,200.4,253.3,200.6L253.3,200.6z"/>
			</g>
			<g id="XMLID_350_">
				<polygon id="XMLID_352_" class="st2" points="252.7,200.2 253.4,200.2 256.4,194.4 255.7,194.4 				"/>
				<path id="XMLID_351_" class="st2" d="M250.3,200.6c0,0.2,0.2,0.4,0.4,0.4h4.7c0.2,0,0.4-0.2,0.4-0.4l0,0c0-0.2-0.2-0.4-0.4-0.4
					h-4.7C250.5,200.2,250.3,200.4,250.3,200.6L250.3,200.6z"/>
			</g>
			<path id="XMLID_346_" class="st1" d="M238.8,183.6c0.8,0.8,2.2,1.4,3.4,1.4c1.3,6.2,6.7,10.8,13.3,10.8c5.6,0,10.4-3.4,12.5-8.2
				c-1.3,1.3-4.6,2.1-6.6,2.1c-0.7,0-1.4-0.1-2-0.3c1.5-0.6,6.3-1.9,7-6.9c-1.2,1.1-1.9,1.5-3.4,2.1c0.4-0.4,2.4-3.1,2-6
				c-0.9,1.4-1.7,2.1-3,3c0.3-0.6,1.9-3.4,0.4-6.8c-1.2,4.2-4.5,7.3-8.5,8.4c0-0.3-0.1-0.6-0.1-0.9h0c0-3.7-2.3-6.7-6-6.7
				c-3.3,0-5.5,2.4-5.9,5.6c-1,0.6-2.2,0.9-3.5,0.7c0.8,0.9,2.2,1.4,3.5,1.4C241,183.6,239.9,183.8,238.8,183.6z"/>
			<path id="XMLID_345_" class="st10" d="M246.1,180c0-0.4,0.3-0.7,0.7-0.7c0.4,0,0.7,0.3,0.7,0.7c0,0.4-0.3,0.7-0.7,0.7
				C246.4,180.7,246.1,180.4,246.1,180z"/>
		</g>
		<g id="XMLID_329_">
			<g id="XMLID_338_">
				<rect id="XMLID_343_" x="214.1" y="194.4" class="st2" width="0.7" height="5.9"/>
				<path id="XMLID_342_" class="st2" d="M211.7,200.6c0,0.2,0.2,0.4,0.4,0.4h4.7c0.2,0,0.4-0.2,0.4-0.4l0,0c0-0.2-0.2-0.4-0.4-0.4
					h-4.7C211.9,200.2,211.7,200.4,211.7,200.6L211.7,200.6z"/>
			</g>
			<g id="XMLID_335_">
				<polygon id="XMLID_337_" class="st2" points="211.1,200.2 211.8,200.2 214.8,194.4 214.1,194.4 				"/>
				<path id="XMLID_336_" class="st2" d="M208.7,200.6c0,0.2,0.2,0.4,0.4,0.4h4.7c0.2,0,0.4-0.2,0.4-0.4l0,0c0-0.2-0.2-0.4-0.4-0.4
					h-4.7C208.9,200.2,208.7,200.4,208.7,200.6L208.7,200.6z"/>
			</g>
			<path id="XMLID_334_" class="st11" d="M195.5,192.1c1.1,0.3,2.6,0.1,3.7-0.5c4.2,4.7,11.2,6.1,16.9,2.9c4.9-2.7,7.4-8,6.9-13.2
				c-5.5,4.8-7.6,0.1-14.5,2.9c0,0-0.4-0.5-0.5-0.8h0c-1.8-3.2-5.3-4.7-8.5-2.9c-2.9,1.6-3.6,4.8-2.4,7.8c-0.5,1-1.5,1.9-2.8,2.3
				c1.2,0.4,2.6,0.1,3.7-0.5C197.5,191,196.7,191.7,195.5,192.1z"/>
			<path id="XMLID_330_" class="st10" d="M199.3,185.9c-0.2-0.3-0.1-0.8,0.3-1c0.3-0.2,0.8-0.1,1,0.3c0.2,0.3,0.1,0.8-0.3,1
				C199.9,186.3,199.5,186.2,199.3,185.9z"/>
		</g>
		<path id="XMLID_328_" class="st4" d="M194.3,198.6c0,1.3,1.1,2.4,2.4,2.4c1.3,0,2.4-1.1,2.4-2.4c0-1.3-1.1-2.4-2.4-2.4
			C195.4,196.2,194.3,197.3,194.3,198.6z"/>
		<path id="XMLID_327_" class="st4" d="M265.6,198.6c0,1.3,1.1,2.4,2.4,2.4c1.3,0,2.4-1.1,2.4-2.4c0-1.3-1.1-2.4-2.4-2.4
			C266.7,196.2,265.6,197.3,265.6,198.6z"/>
	</g>
	<path id="XMLID_322_" class="st1" d="M106.1,38.7c-2.6-3.9-4.1-8.6-4.1-13.7c0-13.8,11.2-25,25-25c13.8,0,25,11.2,25,25
		c0,1.7-0.2,3.4-0.5,5.1c-2.4-4.1-5.7-7.5-10-6.9C141.5,23.1,128.8,42.4,106.1,38.7z"/>
	<path id="XMLID_321_" class="st10" d="M133.9,197.6l5.4-12.1c8.6,0,15.6,7,15.6,15.6h-40.4v-3.5H133.9z"/>
</g>
</svg>
