<?xml version="1.0" encoding="utf-8"?>
<!-- Generator: Adobe Illustrator 19.0.0, SVG Export Plug-In . SVG Version: 6.00 Build 0)  -->
<svg version="1.1" id="Layer_1" xmlns="http://www.w3.org/2000/svg" xmlns:xlink="http://www.w3.org/1999/xlink" x="0px" y="0px"
	 viewBox="0 0 262.3 216.2" style="enable-background:new 0 0 262.3 216.2;" xml:space="preserve">
<style type="text/css">
	.st0{fill:#FFFFFF;}
	.st1{fill:#904420;}
	.st2{fill:#504D93;}
	.st3{fill:#BFBFC8;}
	.st4{fill:#B15E27;}
	.st5{fill:#F2BD56;}
	.st6{fill:#FFCE66;}
	.st7{fill:#1A1A1B;}
	.st8{fill:#D7B88E;}
	.st9{fill:#6C62AA;}
	.st10{fill:#EED4AE;}
	.st11{fill:#DB2526;}
	.st12{fill:#B6E0E1;}
	.st13{fill:#A0CFCF;}
</style>
<g>
	<g>
		<path class="st0" d="M115.2,214H93.6c-2.6,0-5.1-1.4-6.3-3.8l-3.6-17.7c-1.9-3.5-0.7-7.9,2.9-9.8c3.5-1.9,13.9,2.9,15.8,6.4
			l2.8,10.4h10.1c4,0,7.2,3.2,7.2,7.2S119.2,214,115.2,214z"/>
	</g>
	<path class="st1" d="M113.1,197.6h-6.5V212H84.3v4.2h47.4C131.7,205.9,123.4,197.6,113.1,197.6z"/>
	<g>
		<path class="st2" d="M175,212.5l-5.7-12.6c-9,0-16.3,7.3-16.3,16.3h42.3v-3.7H175z"/>
		<g>
			<g>
				<rect x="242.5" y="81.2" class="st3" width="8.7" height="134.9"/>
				<rect x="11.1" y="81.3" class="st3" width="8.7" height="134.9"/>
			</g>
			<rect y="157.2" class="st4" width="262.3" height="14.1"/>
			<g>
				<rect y="130.4" class="st1" width="262.3" height="12.3"/>
				<rect y="103.3" class="st1" width="262.3" height="12.3"/>
				<rect y="76.2" class="st1" width="262.3" height="12.3"/>
			</g>
		</g>
		<g>
			<g>
				<path class="st5" d="M182.7,215.6c-6.4,0-11.9-4.9-12.5-11.4l-6-62.2c-0.3-3.5,0.8-7,3.2-9.7c2.4-2.6,5.8-4.1,9.3-4.1h35.5
					c6.9,0,12.6,5.6,12.6,12.6c0,6.9-5.6,12.6-12.6,12.6h-21.7l4.7,48.5c0.7,6.9-4.4,13.1-11.3,13.7
					C183.5,215.6,183.1,215.6,182.7,215.6z"/>
			</g>
			<g>
				<path class="st6" d="M201.6,215.6c-5.9,0-11.1-4.1-12.3-10.1L177,143.3c-0.7-3.7,0.2-7.5,2.6-10.4c2.4-2.9,6-4.6,9.7-4.6h44.9
					c6.9,0,12.6,5.6,12.6,12.6c0,6.9-5.6,12.6-12.6,12.6h-29.6l9.3,47.2c1.4,6.8-3.1,13.4-9.9,14.8
					C203.2,215.5,202.4,215.6,201.6,215.6z"/>
			</g>
			<path class="st7" d="M247.2,151.4c1.9-1.9,3.1-4.4,3.6-7.1c0.2-0.8,0.2-1.5,0.2-2.2c0,0,0,0,0-0.1s0,0,0-0.1c0-0.3,0-0.5,0-0.8
				c-1.4-27-7.9-76.1-36.5-108.3l-26.8,8.9c10,33.2,10.6,60.8,8.9,82.7c-3.8,0.1-8.8,0.3-15.5,0.7c-28.9,1.7-19.8,45.2-19.8,45.2
				H214v-10.4c0,0,25,1.9,33.1-8.4c0,0,0,0,0,0C247.1,151.5,247.2,151.4,247.2,151.4C247.2,151.4,247.2,151.4,247.2,151.4z"/>
			<path class="st5" d="M160.6,114c-5.3,0-9.7,4.3-9.7,9.7c0,5.3,4.3,9.7,9.7,9.7c5.3,0,9.7-4.3,9.7-9.7
				C170.3,118.4,166,114,160.6,114z"/>
			<path class="st8" d="M215.1,58.8c-0.5-5.8-5.5-10-11.3-9.6c-5.8,0.4-10.1,5.5-9.7,11.2c0.1,1.5,2.1,37.7-36.3,54.1l8.2,19.3
				c3.9-1.6,7.4-3.5,10.8-5.4C209.6,109,216.4,75.3,215.1,58.8z"/>
			<path class="st9" d="M247.2,151.4c1.9-1.9,3.1-4.4,3.6-7.1c0.2-0.8,0.2-1.5,0.2-2.2c0,0,0,0,0-0.1s0,0,0-0.1c0-0.3,0-0.5,0-0.8
				c-1.4-27-7.9-76.1-36.5-108.3l-26.8,8.9c10,33.2,10.6,60.8,8.9,82.7c-3.8,0.1-8.8,0.3-15.5,0.7c-28.9,1.7-19.8,45.2-19.8,45.2
				H214v-10.4c0,0,25,1.9,33.1-8.4c0,0,0,0,0,0C247.1,151.5,247.2,151.4,247.2,151.4C247.2,151.4,247.2,151.4,247.2,151.4z"/>
			<path class="st6" d="M175.8,114c-5.3,0-9.7,4.3-9.7,9.7c0,5.3,4.3,9.7,9.7,9.7c5.3,0,9.7-4.3,9.7-9.7
				C185.5,118.4,181.1,114,175.8,114z"/>
			<path class="st10" d="M251,141.2c-1.4-27-7.9-76.1-36.5-108.3l-26.8,8.9c10,33.2,10.6,60.8,8.9,82.7c-1.3,0-2.7,0.1-4.3,0.1h26.2
				c0,0,18.6,0.8,32.5,18.1c0-0.2,0.1-0.4,0.1-0.6c0,0,0,0,0-0.1s0,0,0-0.1C251,141.7,251,141.4,251,141.2z"/>
			<path class="st8" d="M192.2,124.6h25.4c16.1-21.7,13.8-52.5,12.7-65.7c-0.5-5.8-5.5-10-11.3-9.6c-5.8,0.4-10.1,5.5-9.7,11.2
				c0.1,0.9-2.7,13.8-12.8,27.6c1.1,13.5,0.9,25.7,0,36.4C195.2,124.5,193.8,124.5,192.2,124.6z"/>
			<path class="st10" d="M230.3,58.8c-0.5-5.8-5.5-10-11.3-9.6c-5.8,0.4-10.1,5.5-9.7,11.2c0.1,1.5,2.1,37.7-36.3,54.1l8.2,19.3
				c3.9-1.6,7.4-3.5,10.8-5.4C224.8,109,231.6,75.3,230.3,58.8z"/>
			<path class="st3" d="M231.5,19.7c-8.3,0-14.9,6.7-14.9,14.9c0,8.2,6.7,14.9,14.9,14.9c8.3,0,14.9-6.7,14.9-14.9
				C246.4,26.4,239.7,19.7,231.5,19.7z"/>
			<path class="st6" d="M200.3,5.8c-14.4,0-26.1,11.7-26.1,26.1c0,14.4,11.7,26.1,26.1,26.1c14.4,0,26.1-11.7,26.1-26.1
				C226.4,17.5,214.7,5.8,200.3,5.8z"/>
		</g>
		<path class="st3" d="M222.1,46.3c2.7-4.1,4.3-9,4.3-14.3c0-14.4-11.7-26.1-26.1-26.1c-14.4,0-26.1,11.7-26.1,26.1
			c0,1.8,0.2,3.6,0.5,5.3c2.5-4.3,6-7.8,10.4-7.3C185.1,30,198.3,50.2,222.1,46.3z"/>
		<path class="st9" d="M193,212.5l-5.7-12.6c-9,0-16.3,7.3-16.3,16.3h42.3v-3.7H193z"/>
	</g>
	<g>
		<g>
			<g>
				<path class="st6" d="M34.2,32.9c0,14.4,11.7,26.1,26.2,26.1c14.4,0,26.2-11.7,26.2-26.1c0-14.4-11.7-26.2-26.2-26.2
					C45.9,6.8,34.2,18.5,34.2,32.9z"/>
			</g>
		</g>
		<g>
			<path class="st2" d="M94.6,18.3c0.9,4.4-14.7,11.5-35,15.8c-20.2,4.3-37.4,4.2-38.3-0.2c-0.9-4.4,14.7-11.5,35-15.8
				C76.5,13.9,93.6,13.9,94.6,18.3z"/>
			<path class="st9" d="M33.6,30V9.4c0,0,16.3-9,39.6-9.4l9.6,19.2C82.8,19.2,60.9,30.3,33.6,30z"/>
			<path class="st11" d="M80.5,14.6c-5.9,2.6-24.6,10.1-46.9,9.9V30c27.3,0.2,49.2-10.9,49.2-10.9L80.5,14.6z"/>
		</g>
		<path class="st8" d="M44.9,135.3h33.5c3.5,0,12.9,4.5,14.5,13.8l15.8,47.7L87.2,212l-16.6-51.6H44.9c-6.9,0-12.6-5.6-12.6-12.6
			C32.3,140.9,37.9,135.3,44.9,135.3z"/>
		<g>
			<path class="st0" d="M88,214H66.4c-2.6,0-5.1-1.4-6.3-3.8l-3.6-17.7c-1.9-3.5-0.7-7.9,2.9-9.8c3.5-1.9,13.9,2.9,15.8,6.4
				l2.8,10.4H88c4,0,7.2,3.2,7.2,7.2S92,214,88,214z"/>
		</g>
		<path class="st4" d="M85.9,197.6h-6.5V212H57.1v4.2h47.4C104.5,205.9,96.2,197.6,85.9,197.6z"/>
		<path class="st10" d="M22.8,135.3h33.5c3.5,0,12.9,4.5,14.5,13.8l10.7,47.7L57.1,212l-8.6-51.6H22.8c-6.9,0-12.6-5.6-12.6-12.6
			C10.3,140.9,15.9,135.3,22.8,135.3z"/>
		<path class="st12" d="M10.3,149.1c0-0.3,0-0.5,0-0.8c1.4-27,1.8-65.3,30.4-97.5l26,8.6c-10,33.2-12.7,53.5-11,75.5l-45.4,14.3
			C10.3,149.2,10.3,149.2,10.3,149.1C10.3,149.1,10.3,149.1,10.3,149.1z"/>
		<path class="st13" d="M62.7,70.8c-6.7,25.9-8.5,45.5-7.1,64.1l-34.5,10.9c2.4-24.2,8.6-53,30.7-77.8L62.7,70.8z"/>
		<path class="st5" d="M78.8,125.6c-5.3,0-9.7,4.3-9.7,9.7c0,5.3,4.3,9.7,9.7,9.7c5.3,0,9.7-4.3,9.7-9.7
			C88.4,129.9,84.1,125.6,78.8,125.6z"/>
		<path class="st12" d="M36.8,61.5c1.5-5.6,7.2-8.9,12.8-7.5c5.6,1.4,9,7.1,7.6,12.7c-0.4,1.5-8.6,36.8,26.4,59.6l-11.4,17.6
			c-3.5-2.3-6.7-4.7-9.7-7.2C33.5,111.9,32.7,77.5,36.8,61.5z"/>
	</g>
</g>
</svg>
