<?xml version="1.0" encoding="utf-8"?>
<!-- Generator: Adobe Illustrator 19.0.0, SVG Export Plug-In . SVG Version: 6.00 Build 0)  -->
<svg version="1.1" id="Layer_1" xmlns="http://www.w3.org/2000/svg" xmlns:xlink="http://www.w3.org/1999/xlink" x="0px" y="0px"
	 viewBox="0 0 238.7 202.9" style="enable-background:new 0 0 238.7 202.9;" xml:space="preserve">
<style type="text/css">
	.st0{fill:#BFBFC8;}
	.st1{fill:#B15E27;}
	.st2{fill:#B6E0E1;}
	.st3{fill:#FFCE66;}
	.st4{fill:#377886;}
	.st5{fill:#DB2526;}
	.st6{fill:#1A1A1B;}
	.st7{fill:#A4A4B1;}
	.st8{fill:#904420;}
	.st9{fill:#D7B88E;}
	.st10{fill:#EED4AE;}
	.st11{fill:#A0CFCF;}
</style>
<g>
	<path class="st0" d="M90.9,188.8h-8.2l2.4-8.4L68,183.2v14.4c1,1.9,3,3.1,5.2,3.1h17.6c3.3,0,5.9-2.6,5.9-5.9
		C96.8,191.5,94.1,188.8,90.9,188.8z"/>
	<path class="st1" d="M89.1,187.7h-5.3v11.7H65.6v3.4h38.7C104.3,194.5,97.5,187.7,89.1,187.7z"/>
	<g>
		<g>
			<g>
				<g>
					<g>
						<g>
							<g>
								<g>
									<g>
										<path class="st2" d="M53.7,96.4L53.7,96.4c-0.4-13.3-10.4-24-22.6-24c-12.3,0-22.2,10.7-22.6,24l0,0v0c0,0.2,0,0.4,0,0.7
											v36.2h0.1c0.3,13.3,10.3,24,22.6,24c12.3,0,22.3-10.7,22.6-24l0,0v0c0-0.2,0-0.4,0-0.7V96.4z"/>
									</g>
									<g>
										<g>
											<path class="st3" d="M47.3,76.5c-12.1,0-22-9.9-22-22c0-12.1,9.9-22,22-22c12.1,0,22,9.9,22,22
												C69.3,66.6,59.4,76.5,47.3,76.5z"/>
										</g>
									</g>
									<g>
										<g>
											<path class="st0" d="M41.1,61.3H26.4l-0.3-1c-0.1-0.3-2.7-7.6,1.3-14.9l0.4-0.8h22.1v8.7h-4.1c-2.8,0-5.1,2.3-5.1,5.1
												c0,0.3,0,0.7,0.1,1.1L41.1,61.3z"/>
										</g>
									</g>
								</g>
							</g>
							<g>
								<g>
									<g>
										<rect y="89" class="st1" width="6.1" height="113.9"/>
									</g>
								</g>
								<g>
									<g>
										<polygon class="st1" points="60,202.9 53.9,202.9 53.9,161.7 4.2,161.7 4.2,157.9 60,157.9 										"/>
									</g>
								</g>
								<g>
									<path class="st4" d="M82.7,141.7c-3.4-4.5-8.4-4.6-8.4-4.6H53.3c-1.4,16.4-22.8,19.9-22.8,20.3h31.9l-0.1,42.8l22.1-13
										l0.4-38.2C84.8,149.1,85.2,144.9,82.7,141.7z"/>
									<path class="st5" d="M30.5,157.4L30.5,157.4C30.5,157.4,30.5,157.5,30.5,157.4z"/>
								</g>
							</g>
						</g>
					</g>
				</g>
			</g>
			<rect x="69.2" y="49.8" class="st6" width="2.6" height="10"/>
			<g>
				<path class="st6" d="M45.7,65c-3.6,0-6.6-3-6.6-6.6c0-3.6,3-6.6,6.6-6.6h24.2c0.8,0,1.5,0.7,1.5,1.5c0,0.8-0.7,1.5-1.5,1.5H45.7
					c-2,0-3.7,1.6-3.7,3.7c0,2,1.6,3.7,3.7,3.7c0.8,0,1.5,0.7,1.5,1.5C47.2,64.4,46.5,65,45.7,65z"/>
			</g>
		</g>
		<g>
			<polygon class="st7" points="179.3,11.4 201.5,43.9 209.7,43.8 226.4,0 205.4,40.4 			"/>
			<g>
				<path class="st2" d="M175.6,126c-6.8,0-10.4-17.6-10.4-35c0-17.4,3.6-35,10.4-35c6.8,0,10.4,17.6,10.4,35
					C186,108.4,182.5,126,175.6,126z"/>
			</g>
			<rect x="176.9" y="135.2" class="st8" width="56.7" height="4.2"/>
			<rect x="171.9" y="49.7" class="st1" width="66.8" height="86.1"/>
			<g>
				<polygon class="st8" points="183,202.9 176.9,202.9 179.9,142.3 188.8,142.3 				"/>
				<polygon class="st8" points="227.6,202.9 233.6,202.9 230.7,142.3 221.8,142.3 				"/>
			</g>
			<path class="st0" d="M220.3,49.7c-2.7-5.6-8.4-9.5-15-9.5c-6.6,0-12.3,3.9-15,9.5H220.3z"/>
			<rect x="172.6" y="139.3" class="st0" width="65.4" height="5.9"/>
		</g>
	</g>
	<polygon class="st3" points="29.7,62.5 28.3,71.9 47.3,81.3 52.2,72.4 	"/>
	<polygon class="st2" points="51.4,79 26.7,69 22,74.5 53.1,91.4 	"/>
</g>
<g>
	<polygon class="st9" points="92.9,88.3 139.4,104.6 149.8,45.7 115.9,34 	"/>
	
		<rect x="92.1" y="40.6" transform="matrix(-0.9848 -0.1737 0.1737 -0.9848 223.0293 160.6074)" class="st10" width="52.9" height="59.8"/>
	<g>
		
			<rect x="101.4" y="45.3" transform="matrix(-0.9848 -0.1736 0.1736 -0.9848 207.0967 124.7996)" class="st9" width="15.3" height="16.1"/>
		<g>
			
				<rect x="121.2" y="49.2" transform="matrix(-0.9848 -0.1737 0.1737 -0.9848 252.1075 126.3492)" class="st9" width="20.7" height="5.9"/>
			
				<rect x="119.4" y="59.3" transform="matrix(-0.9848 -0.1737 0.1737 -0.9848 246.8517 145.966)" class="st9" width="20.7" height="5.9"/>
			
				<rect x="98.5" y="67.6" transform="matrix(-0.9848 -0.1736 0.1736 -0.9848 223.0289 160.6058)" class="st9" width="40" height="5.9"/>
			
				<rect x="96.8" y="77.7" transform="matrix(-0.9848 -0.1736 0.1736 -0.9848 217.7735 180.2203)" class="st9" width="40" height="5.9"/>
			
				<rect x="95" y="87.7" transform="matrix(-0.9848 -0.1736 0.1736 -0.9848 212.5178 199.8374)" class="st9" width="40" height="5.9"/>
		</g>
	</g>
</g>
<path class="st11" d="M31,77.5c-4.1,4.9-3.5,12.1,1.3,16.3l21.4,35.9l0.3-27c0,0,1.8-16-1.5-20.6c-2.7-1.8-2.8-3.9-5.3-5.9
	C42.4,72,35.1,72.6,31,77.5z"/>
<path class="st3" d="M100.7,83.7c-4.6,2.4-10.2,0.7-12.7-3.8c-2.4-4.6-0.7-10.2,3.9-12.7c4.6-2.4,10.2-0.7,12.7,3.8
	C107,75.6,105.3,81.3,100.7,83.7z"/>
<path class="st2" d="M83.9,73.5c-3.1,4.9-9.7,12.9-14.6,15.8c-4-0.5-14.3-6.6-22-13.1C42.4,72,35.1,72.6,31,77.5
	c-4.1,4.9-3.5,12.1,1.3,16.3c8.9,7.6,24.2,18.6,37.5,18.6c3.1,0,6-0.6,8.7-1.9c12.7-6.2,23.5-22.6,24.7-24.5L83.9,73.5z"/>
</svg>
