<?xml version="1.0" encoding="utf-8"?>
<!-- Generator: Adobe Illustrator 19.0.0, SVG Export Plug-In . SVG Version: 6.00 Build 0)  -->
<svg version="1.1" id="Layer_1" xmlns="http://www.w3.org/2000/svg" xmlns:xlink="http://www.w3.org/1999/xlink" x="0px" y="0px"
	 viewBox="0 0 148.8 303.8" style="enable-background:new 0 0 148.8 303.8;" xml:space="preserve">
<style type="text/css">
	.st0{fill:#EED4AE;}
	.st1{fill:#D7B88E;}
	.st2{fill:#B15E27;}
	.st3{fill:#FFCE66;}
	.st4{fill:#51A5AC;}
	.st5{fill:#F2BD56;}
	.st6{fill:#FFFFFF;}
	.st7{fill:#272016;}
	.st8{fill:#333333;}
	.st9{fill:#4D4E4E;}
	.st10{fill:#A6A8AB;}
</style>
<g>
	<g>
		<g>
			<g>
				<g>
					<g>
						<g>
							<g>
								<path class="st0" d="M86.8,197v106.7h30.8l0.3-141.8C86.8,161.9,86.8,197,86.8,197z"/>
								<path class="st0" d="M49.1,161.9l0.3,141.8h30.8V197C80.2,197,80.2,161.9,49.1,161.9z"/>
							</g>
							<path class="st1" d="M86.8,197V216h31l0.1-54C86.8,161.9,86.8,197,86.8,197z"/>
						</g>
						<g>
							<path class="st2" d="M2.4,303.8c-1.3,0-2.4-1.1-2.4-2.4V198.1c0-10.5,8.5-19,19-19c10.5,0,19,8.5,19,19
								c0,1.3-1.1,2.4-2.4,2.4c-1.3,0-2.4-1.1-2.4-2.4c0-7.8-6.4-14.2-14.2-14.2c-7.8,0-14.2,6.4-14.2,14.2v103.2
								C4.8,302.7,3.8,303.8,2.4,303.8z"/>
						</g>
					</g>
				</g>
			</g>
			<path class="st1" d="M80.2,197c0,0,0-35.1-31.1-35.1l0.1,54h31V197z"/>
			<path class="st3" d="M21.2,174c-6.9,0-12.4,5.6-12.4,12.4c0,6.9,5.6,12.4,12.4,12.4c6.9,0,12.4-5.6,12.4-12.4
				C33.7,179.6,28.1,174,21.2,174z"/>
			<path class="st3" d="M134.3,175.5c-6.9,0-12.4,5.6-12.4,12.4c0,6.9,5.6,12.4,12.4,12.4c6.9,0,12.4-5.6,12.4-12.4
				C146.7,181.1,141.2,175.5,134.3,175.5z"/>
			<path class="st4" d="M120.8,187.2l27.9-1.5c-1.6-26.2-3.2-55.3-4.7-81.5c-1.5-10.2-5.7-24.4-27.4-23.5c-22.2,0.9-44.5,1-66.8,0.4
				c-21.4-0.7-26.8,18.9-28.2,29.1c-0.1,0,0.9,32.9-12.9,66.6l27.1,9.2c12.4-26.7,12.2-56.5,13.4-78.5c0.1,0,0.1,0,0.2,0
				c-0.5,18.8-1,80.8-1.5,99.6h71.2c-0.7-18.8-1.3-81.2-2-99.9c0.2,0,0.4,0,0.6,0C118.8,132.9,119.8,161.5,120.8,187.2z"/>
			<path class="st5" d="M83.5,97.3c8.9,0,16.1-7.2,16.1-16.1V68.4H67.3v12.7C67.3,90,74.6,97.3,83.5,97.3z"/>
			<path class="st3" d="M83.5,22.9c-17.1,0-30.9,13.8-30.9,30.9c0,17,13.8,30.9,30.9,30.9c17.1,0,30.9-13.8,30.9-30.9
				C114.3,36.8,100.5,22.9,83.5,22.9z"/>
			<path class="st6" d="M86.5,27.9c8.4,0,15.5,3.1,17.7,7.3c-3.9-3-10.4-5-17.7-5c-7.3,0-13.8,2-17.7,5C71,30.9,78.1,27.9,86.5,27.9
				z"/>
			<path class="st6" d="M86.5,33.2c8.4,0,15.5,3.1,17.7,7.3c-3.9-3-10.4-5-17.7-5c-7.3,0-13.8,2-17.7,5C71,36.2,78.1,33.2,86.5,33.2
				z"/>
			<path class="st6" d="M95.4,70.6c-4.3,0-7.8-3-8.8-6.9h-6.3c-1,4-4.5,6.9-8.8,6.9c-5,0-9.1-4.1-9.1-9.1c0-5,4.1-9.1,9.1-9.1
				c4.3,0,7.8,3,8.8,6.9h6.3c1-4,4.5-6.9,8.8-6.9c5,0,9.1,4.1,9.1,9.1C104.6,66.5,100.5,70.6,95.4,70.6z"/>
			<path class="st2" d="M63.9,287.5c-9,0-16.3,7.3-16.3,16.3h32.6C80.2,294.8,72.9,287.5,63.9,287.5z"/>
			<path class="st2" d="M103.1,287.5c-9,0-16.3,7.3-16.3,16.3h32.6C119.4,294.8,112.1,287.5,103.1,287.5z"/>
		</g>
	</g>
	<g>
		<g>
			<g>
				<g>
					<path class="st7" d="M51.3,24.5l3.5,17.7c1.7,6.6,13,9.5,23.8,6.6l9.9-2.6c10.8-2.8,21.4-4.5,19.7-11.1l-7.9-23.6L51.3,24.5z"
						/>
					<polygon class="st8" points="122.8,6.1 122.3,4.2 29.8,28.5 30.3,30.4 80.9,34.6 					"/>
					<polygon class="st9" points="122.3,4.2 71.7,0 29.8,28.5 80.4,32.7 					"/>
				</g>
				<g>
					<path class="st10" d="M45.3,49c-0.3,0.1-0.6-0.1-0.7-0.4c0,0-1.3-17,1.1-19c0.9-0.8,28.9-13.5,29.6-14c0.3-0.2,0.6-0.1,0.8,0.2
						c0.2,0.3,0.1,0.6-0.2,0.8c-0.2,0.1-28.6,13.2-29.6,14c-1.7,1.3-0.6,17.8-0.6,17.8C45.8,48.6,45.6,48.9,45.3,49z"/>
				</g>
				<path class="st10" d="M47.5,52c0-0.5,0-1.8,0-1.8c0-1.4-1.1-2.5-2.5-2.6c-1.4,0-2.5,1.1-2.6,2.5c0,0,0,1.2,0,1.8
					C42.4,53.3,47.5,53.4,47.5,52z"/>
			</g>
		</g>
	</g>
</g>
</svg>
